<?xml version="1.0" encoding="utf-8"?>
<!-- Generator: Adobe Illustrator 22.1.0, SVG Export Plug-In . SVG Version: 6.00 Build 0)  -->
<svg version="1.1" id="Layer_1" xmlns="http://www.w3.org/2000/svg" xmlns:xlink="http://www.w3.org/1999/xlink" x="0px" y="0px"
	 viewBox="0 0 233 73" style="enable-background:new 0 0 233 73;" xml:space="preserve">
<style type="text/css">
	.st0{fill:#3D3D3D;}
</style>
<title>Asset 49</title>
<g id="Layer_2_1_">
	<g id="Layer_1-2">
		<g id="_Group_">
			<path id="_Path_" class="st0" d="M116.5,41.7c-12.6,0-25.2,0-37.8,0c-0.6,0-0.8-0.1-0.8-0.8c0.1-0.6-0.2-1.3,0.1-1.7
				c0.4-0.3,1.1-0.1,1.6-0.1c24.8,0,49.6,0,74.4,0c0.7,0,0.9,0.2,0.9,0.9c-0.1,1.7,0,1.7-1.7,1.7H116.5z"/>
			<path id="_Path_2" class="st0" d="M114.1,27.1c0,2.2,0,4.4,0,6.6c0,0.5-0.1,0.7-0.6,0.7c-0.7-0.1-1.7,0.3-2.1-0.2
				c-0.4-0.4-0.1-1.3-0.1-2c0-1.3,0-1.3-1.3-1.3c-2.2,0-4.3,0-6.5,0c-0.4,0-0.6,0.1-0.6,0.6c0,0.8,0,1.7,0,2.5
				c0,0.3-0.1,0.5-0.4,0.4h-0.1c-0.7,0-1.7,0.2-2.1-0.1c-0.5-0.4-0.1-1.4-0.1-2.1c0-3.9,0-7.8,0-11.6c0-0.6,0.2-0.7,0.7-0.7
				c0.5,0,1,0,1.5,0c0.4,0,0.5,0.1,0.5,0.6c0,2.4,0,4.9,0,7.3c0,0.5,0.1,0.6,0.6,0.6c2.4,0,4.9,0,7.3,0c0.5,0,0.6-0.1,0.6-0.6
				c0-2.4,0-4.8,0-7.2c0-0.6,0.2-0.7,0.7-0.7c0.5,0,1,0,1.5,0c0.5,0,0.6,0.1,0.6,0.6C114.1,22.6,114.1,24.8,114.1,27.1z"/>
			<path id="_Compound_Path_" class="st0" d="M77.9,34.3c1.4-3.9,2.7-7.7,3.9-11.6c0.3-0.8,0.6-1.6,0.8-2.4c0.1-0.4,0.3-0.6,0.8-0.6
				c0.7,0.1,1.6-0.3,2.1,0.1s0.5,1.2,0.8,1.9l4.1,12.1c0,0.1,0.1,0.2,0.1,0.4c-0.9,0-1.8,0-2.6,0c-0.3,0-0.4-0.2-0.5-0.4
				c-0.3-0.9-0.6-1.8-0.8-2.7c0-0.3-0.3-0.5-0.6-0.4c0,0,0,0,0,0c-1.2,0-2.4,0-3.6,0c-0.4,0-0.5,0.2-0.6,0.5
				c-0.2,0.9-0.5,1.7-0.8,2.6c-0.1,0.2-0.1,0.5-0.5,0.4C79.8,34.3,78.9,34.3,77.9,34.3z M82.8,28.3c0.9,0,1.7,0,2.4,0
				c0.4,0,0.5-0.1,0.3-0.5c-0.4-1.4-0.8-2.8-1.3-4.3L82.8,28.3z"/>
			<path id="_Compound_Path_2" class="st0" d="M123.5,34.3c0.7-2.1,1.4-4.2,2.1-6.3c0.8-2.5,1.7-5,2.5-7.5c0.1-0.5,0.5-0.8,1-0.7
				c0,0,0,0,0,0c0.6,0.1,1.4-0.2,1.9,0.1c0.5,0.3,0.5,1.2,0.7,1.8c1.3,3.9,2.7,7.9,4,11.8c0.1,0.2,0.2,0.5,0.2,0.8
				c-0.8,0-1.7,0-2.5,0c-0.4,0-0.4-0.2-0.5-0.4c-0.3-0.9-0.6-1.8-0.8-2.7c0-0.3-0.3-0.5-0.5-0.4c0,0,0,0,0,0c-1.2,0-2.4,0-3.6,0
				c-0.3,0-0.5,0.1-0.6,0.4c0,0,0,0,0,0c-0.3,0.9-0.6,1.8-0.8,2.7c-0.1,0.3-0.2,0.4-0.5,0.4C125.3,34.3,124.4,34.3,123.5,34.3z
				 M131.3,28.3l-1.4-4.6c-0.6,1.4-1,2.8-1.4,4.2c-0.1,0.3,0,0.4,0.3,0.4C129.6,28.2,130.4,28.3,131.3,28.3L131.3,28.3z"/>
			<path id="_Path_3" class="st0" d="M146.1,27c0-2.2,0-4.4,0-6.7c0-0.4,0.1-0.6,0.5-0.5c0.7,0,1.6-0.2,2,0.1s0.1,1.3,0.1,2
				c0,3.1,0,6.2,0,9.3c0,0.5,0.1,0.6,0.6,0.6c1.7,0,3.3,0,5,0c0.4,0,0.6,0.1,0.6,0.6s0.3,1.5-0.1,1.9c-0.4,0.4-1.2,0.1-1.8,0.1
				c-2.1,0-4.2,0-6.3,0c-0.6,0-0.6-0.2-0.6-0.7C146.1,31.4,146.1,29.2,146.1,27z"/>
			<path id="_Path_4" class="st0" d="M122.9,52.1l1.6-4.1c0.2-0.5,0.8-0.7,1.2-0.5c0.2,0.1,0.2,0.3,0.2,0.4c0,1.6,0,3.2,0,4.8
				c0,0.3-0.1,0.5-0.4,0.5c-0.3,0-0.5-0.1-0.4-0.4c0-1.2,0-2.4-0.1-3.7c-0.5,1.2-1,2.4-1.5,3.6c-0.1,0.3-0.2,0.5-0.6,0.5
				s-0.5-0.2-0.6-0.5c-0.5-1.2-1-2.4-1.6-3.6c0,1.2,0,2.4,0,3.5c0,0.3,0.1,0.6-0.4,0.6s-0.5-0.3-0.5-0.6c0-1.5,0-3,0-4.5
				c0-0.2-0.2-0.7,0.3-0.6c0.5,0,0.9-0.2,1.1,0.4C121.8,49.2,122.3,50.6,122.9,52.1z"/>
			<path id="_Compound_Path_3" class="st0" d="M90.2,53.3c-1.5,0-2.8-1.2-2.9-2.7c0-0.1,0-0.2,0-0.3c0-1.6,1.3-2.9,2.8-2.9
				c0.1,0,0.1,0,0.2,0c1.6,0.1,2.8,1.5,2.7,3.2C93,52.1,91.7,53.2,90.2,53.3L90.2,53.3z M88.3,50.4c-0.1,1.1,0.7,2,1.7,2.1
				c0.1,0,0.2,0,0.3,0c1.1,0,2-0.9,2-2c0-0.1,0-0.1,0-0.2c0.1-1.1-0.8-2-1.9-2.1c0,0-0.1,0-0.1,0c-1.1,0-2,0.9-2,2
				C88.3,50.2,88.3,50.3,88.3,50.4z"/>
			<path id="_Compound_Path_4" class="st0" d="M108.4,53.3c-1.6,0-2.8-1.3-2.8-2.8c0-0.1,0-0.1,0-0.2c0.1-1.6,1.4-2.9,3-2.8
				s2.9,1.4,2.8,3c0,1.6-1.3,2.8-2.9,2.8C108.5,53.3,108.5,53.3,108.4,53.3z M110.5,50.3c0-1.1-0.9-2-2-2c-1.1,0-2,0.9-2,2
				c-0.1,1.1,0.8,2,1.9,2.1c0,0,0.1,0,0.1,0c1.1,0,2-0.8,2-1.8C110.5,50.5,110.5,50.4,110.5,50.3z"/>
			<path id="_Compound_Path_5" class="st0" d="M79.1,47.5c0.3,0,0.6,0,0.9,0.1c0.8,0.2,1.3,0.9,1.1,1.7c0,0.2-0.1,0.4-0.3,0.6
				c-0.2,0.3-0.2,0.4,0,0.6c0.6,0.7,0.5,1.7-0.1,2.3c-0.2,0.2-0.5,0.3-0.9,0.4c-1.8,0.3-1.9,0.3-1.9-1.5c0-1.1,0-2.2,0-3.4
				c0-0.6,0.1-0.9,0.8-0.8C78.8,47.5,78.9,47.5,79.1,47.5L79.1,47.5z M79.3,50.6c-0.3-0.1-0.6,0.1-0.5,0.5s-0.5,1.1,0.4,1.3
				c0.5,0.1,0.9-0.1,1.1-0.6c0-0.1,0-0.2,0-0.3C80.4,51,80.1,50.6,79.3,50.6z M78.8,49.1c0.1,0.3-0.3,0.8,0.5,0.8
				c0.6,0,0.9-0.2,0.9-0.8c0-0.6-0.3-0.8-0.9-0.8C78.6,48.2,78.9,48.7,78.8,49.1z"/>
			<path id="_Compound_Path_6" class="st0" d="M154.5,53.2c-0.3,0-0.5,0-0.6-0.3c0-0.1,0-0.1-0.1-0.2c-0.5-1.3-0.5-1.3-2-1.3
				c-0.4,0-0.6,0.1-0.8,0.5c-0.1,0.4-0.2,0.7-0.4,1.1c-0.2,0.4-0.5,0.3-0.8,0.2c-0.3-0.1,0-0.4,0-0.5c0.6-1.6,1.2-3.1,1.8-4.7
				c0.1-0.3,0.2-0.5,0.6-0.5s0.6,0.1,0.7,0.4c0.6,1.6,1.2,3.2,1.9,4.8C154.9,53,155,53.3,154.5,53.2z M153,50.5l-0.7-1.8l-0.7,1.9
				L153,50.5z"/>
			<path id="_Path_5" class="st0" d="M115.5,53.2c-0.8,0.1-1.6-0.4-1.7-1.2c0,0,0,0,0,0c0-0.2-0.2-0.5,0.1-0.6
				c0.4-0.1,0.6-0.1,0.7,0.3c0,0.4,0.4,0.8,0.9,0.7c0,0,0.1,0,0.1,0c0.4,0,0.7-0.3,0.7-0.7c0.1-0.4-0.1-0.8-0.5-1
				c-0.4-0.2-0.9-0.4-1.3-0.6c-0.6-0.4-0.9-1.1-0.6-1.8c0.3-0.9,1.2-1.3,2.1-1c0.4,0.1,0.8,0.5,1,0.9c0.1,0.2,0.1,0.5,0,0.7
				c-0.1,0.1-0.3,0-0.5,0c-0.2,0-0.2-0.2-0.3-0.4c-0.1-0.3-0.5-0.6-0.8-0.5c-0.3,0-0.6,0.2-0.6,0.6c-0.1,0.4,0.1,0.7,0.4,0.9
				c0.3,0.2,0.7,0.3,1,0.5c0.8,0.3,1.2,1.2,1,2C117.1,52.8,116.3,53.3,115.5,53.2z"/>
			<path id="_Path_6" class="st0" d="M101.6,53.3c-1.2,0-2.3-0.7-2.6-1.8c-0.4-1.2-0.1-2.5,0.7-3.4c0.9-0.8,2.2-0.9,3.3-0.4
				c0.4,0.2,0.7,0.4,0.2,0.8c-0.2,0.2-0.3,0.1-0.5,0c-0.7-0.5-1.7-0.4-2.3,0.1c-0.7,0.6-0.9,1.5-0.6,2.4c0.3,1,1.3,1.7,2.4,1.4
				c0.2,0,0.4-0.1,0.5-0.2c0.4-0.2,0.6-0.2,0.8,0.2s-0.2,0.4-0.4,0.6C102.7,53.2,102.2,53.3,101.6,53.3z"/>
			<path id="_Path_7" class="st0" d="M145.8,53.3c-1.2,0.1-2.4-0.7-2.8-1.8c-0.4-1.2-0.1-2.5,0.8-3.4c0.9-0.8,2.2-0.9,3.3-0.3
				c0.2,0.1,0.6,0.1,0.4,0.5c-0.2,0.4-0.3,0.5-0.8,0.2c-0.8-0.5-1.9-0.3-2.5,0.5c-0.6,0.9-0.6,2,0.1,2.9c0.6,0.7,1.7,0.9,2.5,0.4
				c0.4-0.2,0.5-0.1,0.7,0.2s-0.1,0.4-0.3,0.5C146.8,53.1,146.3,53.3,145.8,53.3z"/>
			<path id="_Path_8" class="st0" d="M128.7,50.4c0-0.8,0-1.5,0-2.3c0-0.4,0.1-0.6,0.5-0.6c0.5,0,1,0,1.5,0c0.3,0,0.5,0,0.5,0.4
				c0,0.4-0.2,0.5-0.5,0.4c0,0-0.1,0-0.1,0c-1,0-1.2,0.4-1,1.3c0.1,0.2,0.2,0.2,0.4,0.2s0.6,0,0.8,0s0.4,0.1,0.4,0.4
				c0,0.3,0,0.5-0.4,0.4c-0.2,0-0.3,0-0.5,0c-0.6-0.1-0.8,0.1-0.8,0.7c0.1,1,0,1,1,1c0.2,0,0.6-0.2,0.6,0.4s-0.3,0.4-0.6,0.4
				c-0.6,0-1.4,0.3-1.8-0.1s-0.1-1.2-0.1-1.8C128.7,51,128.7,50.7,128.7,50.4z"/>
			<path id="_Path_9" class="st0" d="M134.8,50.8c0-0.6,0-1.3,0-1.9s-0.1-0.6-0.6-0.6c-0.3,0-0.6,0.1-0.6-0.4c0-0.5,0.3-0.4,0.6-0.4
				c0.7,0,1.5,0,2.2,0c0.3,0,0.4,0.1,0.4,0.4c0,0.3-0.1,0.5-0.4,0.4c-0.7-0.1-0.7,0.2-0.7,0.8c0,1.2,0,2.4,0,3.6
				c0,0.3,0,0.5-0.4,0.5s-0.5-0.2-0.5-0.6C134.8,52,134.8,51.4,134.8,50.8z"/>
			<path id="_Path_10" class="st0" d="M83.9,50.3c0-0.8,0-1.5,0-2.3c0-0.4,0.1-0.5,0.5-0.5c0.4,0,0.4,0.1,0.4,0.5c0,1.6,0,3.2,0,4.8
				c0,0.3-0.1,0.5-0.4,0.5c-0.4,0-0.5-0.2-0.5-0.5C83.9,51.9,83.9,51.1,83.9,50.3z"/>
			<path id="_Path_11" class="st0" d="M140.2,50.4v2.3c0,0.3,0,0.5-0.4,0.5s-0.4-0.2-0.4-0.5c0-1.6,0-3.2,0-4.8c0-0.3,0-0.4,0.4-0.5
				c0.4,0,0.5,0.2,0.5,0.5C140.2,48.8,140.2,49.6,140.2,50.4z"/>
			<path id="_Path_12" class="st0" d="M129.9,46.5H129c-0.2,0-0.3-0.1-0.3-0.3s0.1-0.3,0.3-0.3c0.6,0,1.2,0,1.9,0
				c0.2,0,0.3,0.1,0.3,0.3s-0.1,0.3-0.3,0.3H129.9z"/>
		</g>
	</g>
</g>
</svg>
