<?xml version="1.0" encoding="utf-8"?>
<!-- Generator: Adobe Illustrator 22.1.0, SVG Export Plug-In . SVG Version: 6.00 Build 0)  -->
<svg version="1.1" id="Layer_1" xmlns="http://www.w3.org/2000/svg" xmlns:xlink="http://www.w3.org/1999/xlink" x="0px" y="0px"
	 viewBox="0 0 233 73" style="enable-background:new 0 0 233 73;" xml:space="preserve">
<style type="text/css">
	.st0{fill:#3D3D3D;}
	.st1{fill:#7D7D7D;}
	.st2{fill:#FFFFFF;}
	.st3{fill:#E5E5E5;}
</style>
<title>Asset 19</title>
<g id="Layer_2_1_">
	<g id="Layer_1-2">
		<g id="_Group_">
			<path id="_Compound_Path_" class="st0" d="M103.2,44L103.2,44c0,0.1,0.1,0.1,0.2,0.1c0.2-0.4,0.6-0.1,0.9-0.2
				c0.5,0.3,1.1,0.1,1.6,0.1c0.1,0,0.4-0.1,0.3-0.3c-0.1-0.8,0-1.6,0-2.3c0-0.8,0.1-1.6,0.2-2.4c0-0.5,0-0.5-0.5-0.6h-2.6
				c-0.2,0-0.2,0.1-0.2,0.3c0,0,0,0.1,0,0.1c0,0.5,0,1-0.1,1.6c0,0.6,0,0.5-0.5,0.5c-0.1,0-0.3,0-0.4,0c-0.3-0.1-0.6-0.1-0.9-0.1
				c-0.4,0-0.4,0-0.4-0.4c0.1-3.3-0.2-6.6,0.1-9.9c0-0.8,0-1.5,0-2.3c0-0.1-0.1-0.3,0.2-0.4c0.1,0,0-0.1,0-0.1
				c-0.1-0.1-0.1-0.2-0.1-0.3c0-0.7,0.1-1.4,0.1-2c0-0.1,0.1-0.2,0.1-0.3c-0.4-0.1-0.7-0.2-1.1-0.2c-0.6,0-1.2,0-1.8,0
				c-0.1,0-0.2,0-0.2,0.1c-0.1,0.3-0.1,0.5,0.1,0.8c0.1,0,0.1,0.1,0,0.1c-0.1,0-0.1,0.2-0.1,0.2c0,0.6,0,1.1-0.1,1.7
				c-0.1,0.8,0,1.7-0.1,2.5c-0.1,0.9,0,1.8,0,2.6c0,0.5,0.1,1,0,1.5c0,0.2,0,0.5,0,0.7c-0.1,0.2-0.1,0.4-0.1,0.6
				c0.1,0.3,0.1,0.6,0,0.8c0,0.4,0,0.8,0,1.3c0,0.1,0.1,0.3-0.1,0.3c0,0,0,0,0,0.1s0.1,0.2,0.1,0.2c0,0.4,0,0.7,0,1.1
				c0,0.1,0.1,0.2,0.1,0.3s0,0.4-0.1,0.6s0,0.5,0,0.7s0,0.4,0,0.7c0,0.4,0,0.7,0,1.1c0,0.1,0,0.3-0.1,0.4c-0.2,0.2,0.1,0.2,0.1,0.2
				c0.6,0.1,1.3,0.2,1.9,0.1c0.3,0,0.5,0.1,0.8,0h0.1c0,0.3,0.2,0.1,0.3,0.1c0.5-0.1,1,0.1,1.6,0C102.8,43.8,103,43.9,103.2,44z
				 M125.3,25.4c-0.1,0-0.2,0.2-0.3,0c0-0.1-0.1-0.1-0.2,0c0,0,0,0,0,0c-0.1,0.2-0.1,0.2-0.2,0c0-0.1-0.1,0-0.1,0
				c-0.2,0.1-0.3,0.1-0.5,0.1c-0.2,0-0.4,0-0.6,0.1c-0.2,0.1-0.2,0-0.4-0.2v0.3c0,0.5,0,1,0,1.5s0,1.1,0,1.7c0,0.9,0,1.8-0.1,2.7
				c0,0.5,0,1,0,1.6c0,0.2,0.1,0.3,0.3,0.3c0.4-0.1,0.7,0,1.1,0.1c0,0,0.1,0,0.1,0c0.3-0.1,0.6,0,0.9-0.1c0.1,0,0.3,0.1,0.4-0.1
				c0.1-0.2,0.1-0.3,0.2-0.4c0-0.1,0-0.1,0-0.2v-1.8c0-0.1,0-0.2,0-0.3c0.1-0.3,0.1-0.7,0-1c-0.1-0.6-0.1-1.1-0.1-1.7
				c0-0.1,0-0.2,0.1-0.2c0.4,0,0.9,0,1.3,0c0.2,0,0.4,0,0.6,0c0.4-0.1,0.4-0.1,0.4,0.3v6.1c0,0.4,0,0.8,0,1.2c0,0.1,0,0.2-0.2,0.2
				c-0.4,0-0.9,0-1.3,0c-0.5,0-1.1,0-1.6,0l0.1,0.1v0.1c-0.2,0-0.4,0.1-0.6-0.1c0,0,0.1,0,0.1,0c0,0-0.1,0-0.2,0h-0.2
				c-0.2,0-0.4,0-0.6,0c0.2,0.1,0.4,0,0.5,0.1c-0.1,0-0.3,0-0.4,0.1c-0.1,0.1-0.1,0.1-0.3,0h-0.1c-0.1,0-0.2,0-0.2-0.2
				c0-0.1,0-0.2-0.1-0.2h-0.1c-0.1,0.8-0.1,1.7-0.1,2.5c0,0.1,0,0.1,0,0.2c-0.1,0-0.1,0.1,0,0.1c0.1,0.1,0.1,0.2,0.1,0.3
				c0,0.8,0,1.6,0,2.3c0,0.3,0,0.7-0.2,1c0,0-0.1,0.1,0,0.2c0.2,0.3,0.1,0.7,0.2,1.1c0.1,0.4,0.1,0.3,0.4,0.3c1.4,0,2.8-0.1,4.2,0.1
				c1,0.1,2,0.2,3,0.1c0.2,0,0.3,0,0.4-0.2c0.1-0.2,0.2-0.2,0.3-0.4c0-0.4-0.1-0.8-0.2-1.2c0-0.5,0.1-1-0.1-1.4c0-0.1,0-0.3,0-0.4
				c0.1-0.3,0.1-0.6,0-0.9c-0.1-0.2-0.1-0.4,0-0.6c0,0,0-0.1,0-0.2c0-0.5,0-1,0-1.5c0-0.4,0-0.8,0.1-1.3c0.1-0.3,0-0.6-0.1-0.9
				c0-0.1,0-0.2,0-0.3c0.1-0.5,0.1-1.1,0-1.7c-0.1-0.9-0.1-1.8,0-2.8c0-1,0-2,0-3c0-0.2,0.2-0.4,0.1-0.5c-0.1-0.4,0-0.9,0.2-1.3
				c-0.2,0-0.5,0-0.7,0c-1.2-0.1-2.3-0.1-3.5-0.1c-0.5,0-1.1,0-1.6,0c-0.2,0-0.4,0.1-0.5,0c-0.1-0.1-0.3-0.1-0.4-0.1
				c-0.2,0.1-0.4,0.1-0.6,0.1h-0.5C124.1,25.2,124.7,25.3,125.3,25.4L125.3,25.4z M84.6,53.8c0,0.2,0,0.4,0.1,0.6
				c0.2,0.4,0.6,0.7,1.1,0.7c1.2,0,2.4,0.1,3.6-0.1c0.8-0.1,1.6,0,2.4,0l3.6-0.1c1.4-0.1,2.7,0,4.1-0.1c1.8-0.2,3.5,0,5.3-0.1
				c0.8-0.1,1.6,0,2.5,0c1-0.1,2-0.1,3.1-0.1c1.7-0.1,3.4,0,5.2-0.1c1.7-0.1,3.7,0,5.6-0.1c1.4-0.1,2.8,0,4.1-0.1
				c0.9-0.1,1.8,0,2.6,0c0.9,0,1.7,0,2.6-0.1s1.4,0,2.1,0s1.7,0,2.6-0.1c1.6,0,3.1,0,4.7,0c0.4,0,0.8,0,1.1,0
				c0.5-0.1,0.9-0.1,1.4-0.1c1.6,0,3.3,0,4.9,0c0.3,0,0.7-0.1,1-0.1c0.2,0,0.4-0.1,0.5-0.2c0.3-0.2,0.4-0.6,0.4-1
				c0-0.4,0-0.9-0.1-1.3c0-0.7,0-1.4,0-2c-0.1-0.8-0.1-1.6-0.1-2.5c0-0.3-0.1-0.7-0.1-1c0-0.2-0.1-0.3-0.3-0.4c0-0.3,0-0.6,0-0.9
				c0-0.3-0.2-0.6-0.5-0.6c0,0,0,0,0,0c-0.7-0.1-1.4-0.1-2,0c-0.2,0-0.3,0-0.3-0.3c0-0.9,0-1.7,0-2.6s0-2,0-3c0-0.2,0-0.2,0.2-0.2
				c0.7,0.1,1.3,0.1,2,0.2c0.1,0,0.3,0.1,0.4,0.1c0.4,0.3,0.9,0.4,1.3,0.2c0.3-0.1,0.3-0.3,0.1-0.5c-0.4-0.3-0.9-0.3-1.3-0.1
				c-0.1,0.1-0.3,0.1-0.4,0.1l-2.1-0.2c-0.1,0-0.1,0-0.1-0.1c0,0,0-0.2-0.2-0.2c-0.2,0,0,0.2,0,0.2v6.1c0,0.1,0,0.2-0.1,0.2
				c-0.3,0-0.7,0-1,0c-0.2,0-0.2-0.1-0.2-0.2c0-0.5,0.1-1,0-1.6c0-0.5,0-1,0-1.5c0-0.4,0-0.8,0-1.1c0-0.3,0.1-0.7,0-1.1
				c-0.1-0.5-0.1-0.9,0-1.4c0.1-0.4-0.1-0.8,0.2-1.2l0,0c-0.2-0.2-0.1-0.5-0.1-0.7c0-0.2-0.1-0.3,0-0.4c0.1-0.1,0.1-0.3,0-0.4
				c0-0.1,0-0.2,0-0.3c0-0.2,0-0.5,0-0.7c0-0.3-0.3-0.3-0.3-0.6h-0.1c-0.5,0-0.9,0-1.4,0c-0.4,0-0.9,0-1.3,0c-0.5,0.1-1.1,0.1-1.6,0
				c-0.6-0.1-0.6-0.1-0.6-0.6c0-0.3,0-0.7,0-1c0-0.4,0.2-0.7,0.2-1.1c0-0.5,0-1,0.1-1.6c0-0.1,0.1-0.2,0.2-0.1c0.3,0,0.5,0,0.8,0
				c0.5,0,0.9,0,1.3-0.1c0.4-0.1,0.7-0.1,1.1-0.1h1.1c0.3,0,0.4-0.3,0.6-0.4c0,0,0,0,0,0c-0.2-0.2,0-0.4-0.1-0.6c0-0.4,0-0.8,0-1.2
				c0-0.4,0.1-0.7,0.3-1c-0.3-0.1-0.6-0.2-0.9-0.2c-0.5,0.1-1.1,0-1.6,0c-0.4,0-0.7-0.1-1-0.1c-0.3,0.1-0.7,0.1-1,0.1
				c-0.5,0-1,0-1.5,0c-0.8,0-1.6,0.1-2.3,0c-0.1,0-0.2,0.1-0.2,0.2c-0.1,0.3-0.1,0.7-0.1,1c0,0.8-0.1,1.6,0,2.4c0,0.2,0,0.4,0,0.6
				c0,0.6,0,1.2-0.1,1.7c0.1,0.8,0,1.6-0.2,2.3c0.2,0.2,0.1,0.5,0.1,0.7c0.1,0.3,0.1,0.6,0,0.9c-0.2,0.5,0.2,0.7,0.3,1.1h0.1
				c0.5,0,1.1,0,1.6,0c1,0,2.1,0.1,3.1,0.1c0.2,0,0.3,0.1,0.3,0.3c0,0.4,0,0.8,0,1.2c0,0.4,0,0.7,0,1.1c-0.1,0.3-0.1,0.7-0.1,1
				c0.1,0.4,0,0.8,0.1,1.2c0,0.2,0,0.2-0.2,0.2c-0.8,0-1.7,0.1-2.5,0c-0.7,0.1-1.4,0-2.1-0.1c-0.3-0.1-0.6,0.1-0.7,0.4
				c0,0.1,0,0.1,0,0.2c0,0.1,0,0.1,0,0.2c-0.1,0.6-0.2,1.3-0.1,2c0,0.2,0,0.2-0.2,0.2c-1.2,0-2.4,0.1-3.6,0.1c-0.9,0-1.8,0-2.6,0
				c-0.9,0-1.6,0.1-2.5,0.1c-0.4,0-0.8,0-1.1,0c-1,0-2,0.1-3,0.1s-2,0-3,0.1c-1.9,0-3.8,0.1-5.8,0.1l-8.8,0.2
				c-0.8,0.1-1.5,0.1-2.3,0c-0.7,0-1.4,0-2.1,0.1h-1.6c-1.5,0-3,0-4.4,0.1L87.8,45c-0.2,0-0.3,0-0.3-0.3c0-2.3,0-4.5,0-6.8v-0.2
				c0-0.1,0-0.1-0.1-0.1c-0.1,0-0.1,0-0.1,0.1c0,0.1-0.1,0.1-0.2,0.2L85,38c-0.1,0-0.2,0-0.3,0c-0.4-0.2-0.9-0.2-1.3,0
				c-0.2,0.1-0.2,0.4,0,0.5c0.4,0.2,0.9,0.1,1.3-0.2c0.1-0.1,0.2-0.1,0.4-0.2c0.7-0.1,1.3-0.1,2-0.2c0.2,0,0.3,0,0.3,0.2
				c0,2.2,0,4.4,0,6.5c0,0.2-0.1,0.2-0.2,0.2l-2.5,0c-0.5,0-0.5,0.1-0.5,0.5c0.1,2.5,0.1,4.9,0.2,7.4C84.3,53.2,84.4,53.5,84.6,53.8
				z M120,25.8v-0.1h-1.1c-0.1,0-0.3-0.1-0.3-0.1c-0.2,0.1-0.4,0.1-0.6,0.1c-0.3,0-0.6,0.1-0.8,0.2c0,0-0.1,0.1,0,0.1
				c0.2,0.1,0,0.2,0,0.2s-0.2,0.3-0.3,0.5c-0.1,0.2-0.2,0.6-0.3,0.8c-0.1,0.3-0.2,0.5-0.4,0.7c-0.1,0.1-0.2,0.2-0.1,0.3
				c0.1,0.4-0.1,0.7-0.2,1c-0.2,0.4-0.3,0.7-0.5,1.1c0,0.1-0.1,0.2-0.1,0.2c0,0.2-0.4,0.3-0.2,0.6c0,0.1,0,0.2-0.2,0.2
				c-0.1,0-0.2,0-0.4,0c-0.2,0-0.3,0-0.3-0.3c-0.1-1.6,0.2-3.2,0.2-4.9c0-0.6,0-1.1,0-1.7c0-0.8,0-1.6-0.1-2.4
				c0-0.2-0.2-0.3-0.4-0.4c-0.4-0.1-0.8-0.1-1.1,0c-0.2,0-0.4,0-0.6,0c-0.2,0-0.5,0-0.7,0c-0.2,0-0.4,0.1-0.4,0.3
				c0.1,0.6,0.1,1.2,0,1.8c0,0,0,0.1,0,0.1c0.1,0.5,0.1,1,0.1,1.5c0,0.5-0.1,0.9-0.1,1.4c0,0.3,0,0.6,0,1c0,0.1-0.2,0.2-0.1,0.2
				s0.1,0.2,0.1,0.3c0,3.9,0,7.8,0,11.7c0,0.9,0,1.8,0,2.7c-0.1,0.4,0,0.8,0.2,1.2c0.1-0.1,0-0.3,0.2-0.3c0.5,0,1,0,1.4,0
				c0.1,0,0.1,0,0.1,0c0.1,0.2,0.3,0.1,0.4,0.1c0.2,0,0.1-0.1,0.2,0c0.3,0.2,0.4-0.1,0.6-0.2c-0.2,0-0.3-0.1-0.3-0.3
				c0-0.7,0-1.3,0-2c0-0.2-0.1-0.5,0-0.8c0-0.1,0.1-0.2,0.1-0.3c0-0.4-0.1-0.8-0.1-1.3c0.1-0.4,0-1.1,0.1-1.6c0-0.7,0.1-1.4,0.1-2.2
				c0-0.1,0-0.2,0.1-0.2s0.1,0.1,0.1,0.1c0.1,0.2,0.2,0.4,0.2,0.7c0.4,1.1,0.7,2.3,1,3.5c0,0.4,0.2,0.8,0.3,1.2
				c0,0.2,0.1,0.5,0.2,0.7c0.2,0.6,0.2,1.1,0.4,1.7c0.1,0.2,0.1,0.6,0.4,0.6c0,0,0.1,0.1,0.1,0.1c0.1,0.2,0.3,0.3,0.5,0.2
				c0.6,0,1.2,0.2,1.8,0.2h2c0.2,0,0.4-0.3,0.3-0.4c-0.2-0.4-0.3-0.8-0.3-1.3c-0.1-0.3-0.1-0.5-0.2-0.8c0-0.4-0.2-0.6-0.5-0.6
				c-0.3,0-0.8-0.1-1.2-0.1c-0.2,0-0.4,0-0.5-0.3c-0.6-2.1-1.2-4.2-1.8-6.2c-0.1-0.1-0.1-0.2,0-0.4c0.4-0.8,0.7-1.6,1.1-2.3
				c0,0,0,0,0-0.1c0.3-0.7,0.5-1.5,0.7-2.2c0.1-0.4,0.2-0.6,0.6-0.6c0.4,0,0.7-0.2,1.1,0c0.1,0,0.5-0.2,0.5-0.2
				c-0.1-0.2,0-0.3,0.1-0.4c0.1-0.4,0.2-0.7,0.4-1c0.2-0.3,0.3-0.6,0.5-1c0.1-0.1,0-0.3-0.2-0.2c-0.4,0-0.8,0.1-1.2,0.2
				c-0.6,0-1.1,0-1.7-0.1v-0.1L120,25.8z M105.1,32c-0.4-0.1-0.5-0.4-0.3-0.7c0.1-0.3-0.1-0.3,0.1-0.5c-0.1,0-0.2-0.1-0.1-0.3
				c0,0,0,0,0,0c0.2-0.4-0.1-0.9,0.2-1.2c-0.2-0.2,0-0.4,0-0.6c0-0.3,0-0.5,0-0.8c0-0.2-0.1-0.5,0-0.7c0,0,0-0.1,0-0.1
				s0-0.3,0.2-0.3s0.4,0.1,0.7,0.1c0.7,0,1.4,0,2.1,0c0.7,0,1.2,0.1,1.8,0.1c0.3,0,0.4-0.1,0.3-0.4c0-0.3,0-0.5,0.1-0.8
				c0.2-0.6,0-1.2,0.2-1.8c-0.3-0.4,0.2-0.8-0.1-1.2c0.1-0.4-0.1-0.7,0-1c0.1-0.3,0-0.6,0.4-0.5c0-0.1-0.1-0.1-0.2-0.1
				c0,0-0.2,0-0.2-0.1c0-0.3-0.2-0.6,0.1-0.8c0,0,0-0.1,0-0.1c-0.2-0.1,0-0.2,0-0.3c0-0.1,0.1-0.1,0.1-0.2c-0.1-0.3-0.1-0.6,0-0.9
				c0.1-0.2,0-0.4-0.3-0.4l-1.3-0.1c-0.4-0.1-0.8-0.1-1.2,0c-0.1,0-0.2-0.1-0.3,0c-0.1-0.3-0.3-0.2-0.4-0.2
				c-0.2,0.2-0.6,0.1-0.8,0.2c0,0-0.1,0-0.1-0.1c0-0.3-0.2-0.2-0.3-0.2c-0.6,0-1.1,0-1.7,0c-0.6,0-1,0-1.5,0c-0.2,0-0.3,0.2-0.5,0.1
				c-0.2-0.1-0.3,0.1-0.5,0.1c-0.2,0-0.1,0,0,0.1s0.1,0.2,0.1,0.4c-0.1,0.6,0.2,1.2,0.2,1.9c0,0.5,0,0.9-0.1,1.4c0,0.5,0,1.1,0,1.7
				c0,0.2,0.2,0.3,0.2,0.5c-0.1,0.5,0,1,0.1,1.5c0,0,0,0.1,0,0.1c-0.1,0.2-0.1,0.4,0,0.6c0,0.1,0.1,0.1,0,0.2
				c-0.1,0.1-0.1,0.3-0.1,0.5c0,0.5,0,0.9,0.1,1.4c0.1,0.4,0.1,0.8,0,1.2c0,0.1,0.1,0.2,0.1,0.3c-0.1,0.5,0,1-0.1,1.4s0,0.8-0.1,1.1
				c-0.1,0.5-0.1,1,0,1.4c0,1.1,0,2.2,0,3.3c0.2-0.1,0.3,0,0.5,0c0.1,0-0.1,0-0.1,0.1c0.6,0,1.1,0,1.7,0.1c1.5-0.1,3,0,4.4,0.1
				c0.6,0.1,1.2,0.1,1.9,0c-0.1-0.1-0.2-0.2-0.2-0.3c-0.1-0.5-0.1-1,0-1.5c0,0,0-0.1,0-0.2c0-0.2,0-0.4,0.1-0.6
				c0.1-0.2,0.3-0.1,0.4-0.2h-0.4c-0.1,0-0.2-0.1-0.1-0.1c0.1-0.2,0-0.5,0-0.7c0-0.7,0-1.3,0.1-2c0.1-0.4,0.1-0.7,0-1.1
				c0-0.1,0-0.1,0-0.2c0.2-0.2,0.1-0.4,0.1-0.6c0-0.1,0-0.3,0-0.4c0.1-0.4,0-0.5-0.4-0.4L109,29c-0.2,0-0.4-0.1-0.5,0.2
				c0,0.1-0.2,0-0.3,0l0,0c0-0.1,0.2,0,0.2-0.1c-0.4,0-0.9,0.1-1.3,0.2c-0.2,0-0.3,0.2-0.2,0.4c0,0.2,0.1,0.3,0,0.5
				c0.1,0.5,0,1-0.1,1.5c-0.1,0.2-0.1,0.4-0.1,0.6c0.1,0.2,0.1,0.4,0,0.6c0,0,0,0.1,0,0.2c0.3,0.2,0.2,0.5,0.2,0.7
				c0,0.2,0,0.5,0.1,0.7c0.1,0.1,0,0.2-0.1,0.2s-0.4,0.2-0.6,0c-0.1-0.1-0.4,0-0.6,0c-0.5,0-0.8-0.2-0.8-0.7c0-0.3,0-0.6,0-0.9
				c0-0.1,0-0.2,0-0.2C104.8,32.4,104.7,32,105.1,32z M89,25c0.2,0.1,0.1,0.3,0.1,0.4c0,0.6,0,1.2-0.1,1.8c0,0.3,0,0.5,0,0.8
				c0,0.1,0.2,0.2,0.1,0.3c-0.3,0.2,0,0.5-0.1,0.8c-0.1,0.2,0.1,0.4,0,0.7c0,0.3,0,0.7,0,1c0,0.3,0,0.5,0,0.8c0,0.4,0,0.9,0,1.3
				c0,1.1,0,2.2,0,3.4c0,0.5-0.1,1.1-0.1,1.7c0,1.6,0.1,3.2,0,4.7c0,0.2,0.2,0.4,0,0.6c0,0,0.1,0.1,0.1,0.1c0.2,0.1,0.4,0.2,0.7,0.2
				c0.4-0.1,0.9-0.1,1.3,0c0.3,0.1,0.5,0,0.5-0.3c0-1,0-2,0-3s0-2.1,0-3.2c0-0.2,0.1-0.3,0.3-0.3c0.5,0,1,0,1.5,0
				c0.2,0,0.2,0.1,0.2,0.3c0,0.8,0,1.6,0,2.5c0,0.4,0,0.7,0,1.1c-0.1,0.2-0.1,0.5,0,0.7c0,0.1,0.2,0.2,0,0.4c0,0,0,0,0,0.1
				c0,0,0,0.3,0,0.4s-0.1,0.2-0.1,0.2c0.1,0.3,0.1,0.7,0,1c0,0,0,0.2,0.1,0.2c0.1,0,0.3,0.1,0.5,0.1c0.5-0.1,1-0.1,1.5,0
				c0.4,0,0.8-0.2,0.7-0.7c-0.1-0.8-0.1-1.7-0.1-2.5c0-1.2-0.1-2.5,0-3.7c0.1-0.8-0.1-1.7,0-2.5c0-0.2,0-0.3,0-0.5
				c-0.1-0.4,0-0.9,0-1.3c0-0.1,0.1-0.3,0.2-0.3c0,0,0.1,0,0.1,0c-0.3,0-0.3-0.2-0.2-0.3c0-0.1,0-0.2,0.1-0.3c0-0.6,0-1.1,0.1-1.7
				c0,0,0-0.1,0-0.1c-0.1-0.1-0.1-0.2-0.1-0.3c0-0.2,0.1-0.5,0.1-0.7c0-1,0.1-2.1,0.2-3.1c0-0.2-0.1-0.4-0.3-0.4h-1
				c-1,0-2.1-0.1-3.1-0.1C91.2,25,90.1,25,89,25z M134.8,25.8c-1.1-0.2-1.9-0.8-1.8-2c0.1-1.4,1.1-1.9,2.4-1.8
				c-1-0.6-2.3-0.3-2.9,0.7c-0.4,0.6-0.4,1.5-0.1,2.1C132.9,25.6,133.8,26,134.8,25.8z"/>
			<path id="_Compound_Path_2" class="st0" d="M84.6,53.8c-0.2-0.2-0.3-0.5-0.3-0.8c-0.1-2.5-0.1-4.9-0.2-7.4c0-0.5,0-0.5,0.5-0.5
				l2.5-0.1c0.2,0,0.2-0.1,0.2-0.2c0-2.2,0-4.4,0-6.5c0-0.2-0.1-0.2-0.3-0.2c-0.7,0.1-1.3,0.1-2,0.2c-0.1,0-0.3,0.1-0.4,0.2
				c-0.4,0.3-0.9,0.3-1.3,0.2c-0.3-0.1-0.3-0.3,0-0.5c0.4-0.2,0.9-0.3,1.3,0c0.1,0,0.2,0.1,0.3,0.1l2.2-0.3c0.1,0,0.2,0,0.2-0.2
				c0-0.2,0-0.1,0.1-0.1c0.1,0,0.1,0.1,0.1,0.1v0.2c0,2.3,0,4.5,0,6.8c0,0.3,0.1,0.3,0.3,0.3l6.9-0.2c1.5,0,3-0.1,4.4-0.1h1.6
				c0.7-0.1,1.4-0.1,2.1-0.1c0.8,0.1,1.5,0.1,2.3,0l8.8-0.2c1.9,0,3.8-0.1,5.8-0.1c1,0,2-0.1,3-0.1c1,0,2,0,3-0.1c0.4,0,0.8,0,1.1,0
				c0.8,0,1.6-0.1,2.4-0.1c0.8,0,1.7,0,2.6,0c1.2,0,2.4-0.1,3.6-0.1c0.2,0,0.2-0.1,0.2-0.2c0-0.7,0-1.3,0.1-1.9c0-0.1,0-0.1,0-0.2
				c0-0.3,0.2-0.6,0.5-0.6c0,0,0.1,0,0.1,0c0.6,0.1,1.2,0.2,1.9,0.2c0.8,0,1.7,0,2.5,0c0.2,0,0.2-0.1,0.2-0.2c0-0.4,0-0.8-0.1-1.2
				c0-0.3,0-0.7,0.1-1c0-0.4,0-0.7,0-1.1c0-0.4,0-0.8,0-1.2c0-0.3-0.1-0.3-0.3-0.3c-1,0-2.1-0.1-3.1-0.1c-0.5,0-1.1,0-1.6,0h-0.1
				c-0.1-0.4-0.5-0.6-0.3-1.1c0.1-0.3,0.1-0.6,0-0.9c0-0.2,0.1-0.5-0.1-0.7c0.2-0.8,0.2-1.5,0.1-2.3c0.1-0.6,0.1-1.2,0.1-1.7
				c0-0.2,0-0.4,0-0.6c0-0.8,0-1.6,0-2.4c0-0.3,0-0.7,0.1-1c0-0.1,0.1-0.2,0.2-0.2c0.1,0,0.1,0,0.2,0c0.8,0,1.6,0,2.3,0
				c0.5,0,1,0,1.5,0c0.3,0,0.7,0,1-0.1c0.4-0.1,0.7,0.1,1,0.1c0.5,0,1,0,1.6,0c0.3,0,0.6,0.1,0.9,0.2c-0.2,0.3-0.3,0.6-0.3,1
				c0,0.4,0,0.8,0,1.2c0,0.2-0.2,0.4,0.1,0.6v0.1c-0.2,0.1-0.4,0.4-0.6,0.4h-1.1c-0.4,0-0.7,0-1.1,0.1c-0.4,0.1-0.9,0.1-1.3,0.1
				c-0.3,0-0.5,0-0.8,0c-0.1,0-0.2,0-0.2,0.2c0,0.5,0,1-0.1,1.6c0,0.4-0.2,0.7-0.2,1.1c0,0.3,0,0.7,0,1c0,0.5,0,0.5,0.6,0.6
				c0.5,0.1,1.1,0.1,1.6,0c0.4,0,0.9,0,1.3,0c0.5,0,0.9,0,1.4,0h0.1c0,0.2,0.4,0.3,0.3,0.6c0,0.2,0,0.5,0,0.7c0,0.1,0,0.2,0,0.3
				c0.1,0.1,0.1,0.3,0,0.4c-0.1,0.1,0,0.3,0,0.4s-0.1,0.5,0.1,0.7l0,0c-0.4,0.3-0.1,0.8-0.2,1.2c0,0.3,0,0.7,0.1,1
				c0,0.4,0,0.7,0,1.1c0,0.4,0,0.8,0,1.1c0,0.5,0,1,0,1.5c0,0.5-0.1,1.1,0,1.6c0,0.1,0,0.2,0.2,0.2c0.3,0,0.7,0,1,0
				c0.1,0,0.1-0.1,0.1-0.2v-6c0-0.1-0.1-0.2,0.1-0.2s0.2,0.1,0.2,0.2c0,0.1,0.1,0,0.1,0.1l2.1,0.2c0.1,0,0.3,0,0.4-0.1
				c0.4-0.2,0.9-0.2,1.3,0.1c0.2,0.2,0.2,0.4-0.1,0.5c-0.4,0.2-1,0.1-1.3-0.1c-0.1-0.1-0.2-0.1-0.4-0.1c-0.7-0.1-1.3-0.1-2-0.2
				c-0.2,0-0.2,0-0.2,0.2c0,1,0,2,0,3s0,1.7,0,2.6c0,0.2,0.1,0.3,0.3,0.3c0.7-0.1,1.4-0.1,2.1,0c0.3,0,0.6,0.3,0.6,0.6c0,0,0,0,0,0
				c0,0.3,0,0.6,0,0.9c0,0,0,0.1,0,0.1c0,1.3,0.1,2.6,0.1,4c0,0.8,0,1.7,0.1,2.5c0,0.2,0,0.4-0.4,0.4s-0.9,0-1.4,0.1
				c-0.7,0.1-1.5,0-2.2,0s-1.6,0-2.4,0.1c-2.6,0-5.1,0.1-7.6,0.1c-3.4,0.1-6.9,0.2-10.3,0.3c-2,0.1-3.9,0.1-5.9,0.1l-6.8,0.1
				c-0.4,0-0.7-0.1-1.1,0c-0.8,0.1-1.5,0.1-2.3,0.1c-0.9,0.1-1.8,0-2.7,0.1c-0.7,0-1.4,0-2.1,0c-1,0-1.9,0.1-2.9,0
				c-0.4,0-0.8,0-1.2,0c-0.5,0.1-1,0.1-1.5,0.2c-0.8,0.1-1.5,0-2.3,0c-1.5,0.1-3,0.1-4.5,0.1C89,53.6,86.8,53.6,84.6,53.8z
				 M115.2,48.4L115.2,48.4c0-0.1,0-0.1,0-0.2c0.3-0.2,0.2-0.5,0.3-0.8c0,0,0-0.1,0-0.1c0,0,0,0,0,0c-0.2,0-0.4,0-0.6,0
				c-0.1,0-0.1,0.1,0,0.2c0,0.1,0,0-0.1,0c-0.1,0-0.1,0.1-0.1,0.2c0,0.1-0.1,0.3,0.1,0.5c-0.2,0.1,0,0.4-0.1,0.5
				c-0.1,0.4,0.2,0.7,0.4,1c0,0,0.1,0,0.1,0c0,0,0.1,0,0.1,0c0,0,0,0,0,0c0,0.2,0.2,0.2,0.3,0.2c0.2,0,0.3,0,0.5,0
				c0.6-0.1,1.1-0.6,1.1-1.2c0-0.2,0-0.3-0.2-0.3c-0.2,0-0.1,0.1-0.1-0.1c0-0.1,0-0.2,0.1-0.2c0.3,0.1,0.2-0.1,0.2-0.2
				c0-0.2,0-0.4,0-0.5c0-0.2-0.2-0.3-0.5-0.2c-0.3,0.1-0.2,0.1-0.2,0.3c0.1,0.5,0.1,0.9,0,1.4c0,0.2-0.2,0.4-0.5,0.4
				c-0.2,0-0.5-0.1-0.6-0.3c-0.1-0.1-0.2-0.3-0.4-0.2c0,0-0.1,0-0.1,0s0-0.1,0.1-0.1c0,0,0.1,0,0.1-0.1c0.1-0.1,0.1-0.3,0.1-0.4
				S115.3,48.5,115.2,48.4z M100.9,47.6c-0.4,0.7-0.7,1.4-1.2,2.1c0-0.1-0.1-0.2-0.1-0.3s0-0.1-0.1-0.1c-0.2,0-0.3,0-0.5,0
				c-0.2,0-0.3,0.1-0.3,0.3c0,0,0.1,0.1,0,0.2c-0.1,0-0.1,0-0.1,0s-0.1-0.2,0-0.2c0.1-0.1,0.1-0.2-0.1-0.2s-0.1,0-0.2-0.1
				c0.1-0.2,0.5-0.2,0.5-0.6c0,0,0.1-0.1,0.2,0s0.1,0,0.1,0l0.6-0.4c0.1-0.1,0.2-0.2,0-0.3s-0.1-0.1,0-0.2c0.1-0.1,0-0.2,0-0.2
				s-0.3-0.1-0.4-0.1c-0.4,0-0.7,0-1.1-0.1c-0.3-0.1-0.6-0.1-0.9,0c-0.1,0,0,0.4,0,0.5c0,0,0,0,0,0c0,0.1,0,0.1,0.1,0.1
				c0.2-0.1,0.4,0,0.7,0s0.4,0,0.6,0c-0.3,0.3-0.6,0.5-1,0.7c-0.3,0.1-0.4,0.4-0.4,0.7c0,0.1,0,0.2,0.2,0.2c0.3,0,0.7,0,1,0
				c0.1,0,0.2,0,0.2-0.1c0-0.1,0-0.1,0.1,0c0.1,0.1,0.2,0.2,0.3,0c0.1-0.2,0.1-0.2,0.2-0.1c0.1,0.1-0.1,0.1,0,0.2c0.2,0,0.4,0,0.6,0
				s0.4,0,0.5-0.3c0.1-0.3,0.2-0.2,0.2-0.2c0.4,0.1,0.8,0.1,1.1,0.1c0.1,0,0.1,0,0.2,0.1c0.1,0.2,0.2,0.4,0.2,0.6
				c0,0.3,0.1,0.2,0.3,0.2h0.4c-0.1-0.3-0.2-0.6-0.4-0.9c-0.2-0.6-0.5-1.1-0.6-1.7c0-0.1,0-0.2,0.1-0.2h0.2c0.4,0,0.4,0,0.3-0.4
				c0-0.2,0-0.2-0.2-0.2l-2.2,0c-0.4,0-0.4,0-0.4,0.4c0,0.1,0.1,0.2,0.2,0.1C100.4,47.4,100.6,47.6,100.9,47.6
				C100.8,47.5,100.9,47.6,100.9,47.6L100.9,47.6z M124,48.2l-0.1,0.1l-0.7,1.2c0-0.3-0.1-0.5-0.3-0.7c-0.1-0.1-0.4-0.1-0.2-0.3
				c0,0,0,0-0.1,0c-0.1,0-0.1,0-0.1-0.1c0,0,0,0,0-0.1c0,0,0.1-0.1,0.2-0.1c0,0,0.2-0.1,0.3-0.1c0-0.1-0.3-0.1-0.1-0.2
				c0.1-0.1,0-0.3-0.1-0.4c-0.3-0.2-0.7-0.3-1.1-0.3c-0.3,0-0.5,0-0.8,0.1c-0.3,0.2-0.4,0.5-0.3,0.8c0.1,0.4,0,0.8,0,1.1
				c0,0.1-0.1,0.1-0.2,0.1c-0.1,0-0.3,0-0.4,0s0,0.2,0,0.4s0,0.3-0.2,0.3s-0.5-0.6-0.4-0.7s0.1,0,0.1,0s0.4-0.1,0.5-0.3
				c0.2-0.1,0.2-0.1,0.1-0.2c-0.1-0.1,0-0.2,0-0.3s0.2,0.1,0.2,0.2c0-0.1,0.1-0.3,0.1-0.4s-0.2,0-0.3,0c-0.1,0,0,0.1,0,0.2h-0.3
				c0.2,0,0.1-0.2,0.1-0.3c0-0.1,0.2,0,0.3,0s0.2-0.1,0.1-0.2c-0.1-0.2-0.3-0.3-0.5-0.4c-0.5-0.2-1.1-0.2-1.7-0.1
				c-0.1,0-0.1,0-0.2,0c0,0.1-0.1,0.1-0.2,0.1c-0.1-0.1-0.2,0-0.2,0.2c0,0.4,0.1,0.9,0,1.3c0,0.4-0.1,0.7-0.1,1.1
				c0,0.2,0,0.2,0.2,0.2c0.6,0,0.6,0,0.5-0.6c0-0.2,0.1-0.3,0.3-0.2s0.2,0.3,0.3,0.5c0.1,0.4,0.5,0.6,0.9,0.5c0.3,0,0.5-0.2,0.7-0.4
				c0,0.3,0.1,0.3,0.3,0.3c0.2,0,0.5,0,0.8,0c0.5,0.1,1.1,0,1.4-0.4c0.1-0.1,0.2-0.2,0.4-0.1h0.2c0.2,0,0.3,0,0.3-0.2
				c0.1-0.3,0.3-0.3,0.5-0.3c0.1,0,0.1,0,0.2,0c0,0,0.1,0,0.1,0s0.1-0.2,0.2-0.1c0,0,0,0.1,0,0.2c0.5-0.1,0.7,0.2,0.8,0.6
				c0,0,0,0.1,0,0.1c0,0.1,0.1,0.2,0.2,0s0.1-0.1,0.2,0c0.1,0-0.1,0.1,0,0.2h0.5l-0.3-0.6c-0.2-0.5-0.4-0.9-0.5-1.3
				c-0.1-0.2-0.3-0.2-0.2-0.5s0-0.3,0.2-0.3c0.5,0,0.5,0,0.5-0.5c0,0,0,0,0,0s-0.2,0.1-0.3,0s-0.3,0-0.5,0c-0.5,0-1,0-1.5,0
				c-0.3,0-0.3,0.3-0.5,0.4c-0.1,0.1,0,0.2,0,0.2c0,0,0.1,0,0.1,0h0.7C124.3,47.8,124.1,48,124,48.2L124,48.2z M107.6,50.3
				c-0.4-0.8-0.7-1.6-0.9-2.4c-0.1-0.4-0.1-0.4,0.3-0.4c0.1,0,0.3,0.1,0.3-0.2c0-0.3,0-0.4-0.3-0.4c-0.4,0-0.8,0-1.2,0
				c-0.4-0.1-0.8,0.1-1.2,0h-0.1c0,0.2-0.1,0.3-0.1,0.5c0,0.1,0.2,0,0.3,0.1c0.1,0,0.2,0,0.3,0c0.3,0,0.3,0,0.2,0.3
				c-0.3,0.6-0.7,1.2-1,1.8c0,0.1,0,0.1,0.1,0.2c0.3,0.1,0.6,0,0.7-0.3c0-0.1,0.2-0.2,0.3-0.2c0.3,0,0.7,0,1,0
				c0.2,0,0.3,0.1,0.3,0.2c0,0,0,0,0,0C106.9,50.2,106.9,50.2,107.6,50.3L107.6,50.3z M108.2,48.6L108.2,48.6
				c0.3,0.4,0.5,0.8,0.7,1.1c0,0.1,0.1,0.2,0.1,0.2c0.2,0,0.2,0.2,0.2,0.3c0,0.3,0.1,0.3,0.3,0.3c0.1,0,0.1-0.1,0.2,0
				c0.1,0.1,0.2,0,0.2-0.2c0-0.8,0-1.6,0.1-2.4c0-0.5,0-0.5-0.4-0.5c-0.2,0-0.3,0.1-0.2,0.3c0,0.5,0,1,0,1.5
				c-0.3-0.5-0.5-0.8-0.7-1.2c-0.1-0.3-0.4-0.5-0.7-0.4c-0.2,0-0.2,0.1-0.2,0.2c0.1,0.3,0.1,0.7,0,1c0,0.3,0,0.7-0.1,1
				c0,0.1,0,0.2,0.1,0.2c0.1,0,0.2,0,0.2,0c0.2,0,0.2,0,0.2-0.2C108.2,49.4,108.2,49,108.2,48.6z M110.3,49.5c0,0.1,0,0.2,0,0.3
				c0,0.1,0,0.2,0.1,0.2c0.6,0.1,1.1,0.1,1.7,0c0.1,0,0.4,0,0.4-0.3c0,0,0.1-0.1,0.1-0.1c0.3,0.1,0.4-0.2,0.5-0.4
				c0.2-0.7-0.1-1.5-0.9-1.7c-0.1,0-0.3-0.1-0.4-0.1c-0.3,0-0.7,0-1,0c-0.5,0-0.5,0-0.5,0.5c0,0.4-0.1,0.7,0.1,1.1
				C110.2,49.1,110.4,49.3,110.3,49.5L110.3,49.5z M127.2,48.4c0.1,0.3,0.3,0.4,0.3,0.6c0.1,0.3,0.4,0.7,0.5,1
				c0.1,0.3,0.3,0.4,0.6,0.4c0,0,0,0,0,0c0.1,0,0.2,0,0.2-0.2s0-0.5,0-0.8c0-0.4,0.1-0.9-0.1-1.3c0-0.1-0.1-0.2,0-0.2
				c0.1,0,0.1-0.3,0.1-0.5c0-0.2,0-0.2-0.1-0.1c-0.1,0-0.3,0-0.4,0c-0.2,0-0.2,0.1-0.2,0.2c0,0.1,0.1,0.2,0.2,0.3c0,0,0.1,0,0.1,0.1
				c0,0.1-0.1,0.1-0.1,0.1c0,0,0,0,0,0c-0.2,0-0.1,0.1-0.1,0.2c0,0.3,0,0.6,0,0.9l-0.8-1.4c-0.1-0.2-0.4-0.3-0.7-0.2
				c0,0-0.1,0-0.1,0.1c0,0.2,0,0.4,0,0.5c-0.1,0.5-0.1,1-0.1,1.4c0,0.5,0,0.4,0.3,0.3c0.1,0,0.1,0.1,0.2,0c0-0.3,0-0.7,0-1
				C127.1,48.7,127.2,48.6,127.2,48.4L127.2,48.4z M139.4,48.7c-0.2,0-0.4,0.3-0.4,0.5c0,0,0,0,0,0.1c0,0,0,0.1,0,0.1
				c0,0.2-0.1,0.4,0,0.5c0.1,0.1,0.3,0.1,0.5,0c0.2-0.1,0,0,0,0c0.5,0,0.9,0,1.4-0.1c0.5-0.1,0.8-0.5,0.9-1c0.1-0.5-0.1-0.9-0.5-1.2
				c-0.2-0.1-0.4-0.1-0.5-0.2c-0.3-0.2-0.6-0.2-0.9-0.1c-0.1,0-0.1,0-0.1,0c0,0-0.4-0.1-0.5-0.1c-0.2,0-0.2,0.2-0.1,0.3
				s0.1,0.3,0,0.4h0.1c0.1,0,0.2-0.1,0.2,0.1s-0.1,0-0.1,0s-0.1,0-0.1,0c-0.2,0.2-0.2,0.4,0,0.6C139.1,48.7,139.3,48.7,139.4,48.7
				L139.4,48.7z M91.1,48.7L91.1,48.7c0,0.3,0,0.7,0,1c0,0.3,0,0.3,0.3,0.3c0.4,0,0.4,0,0.4-0.4c0-0.1,0-0.2,0-0.3s0-0.3,0.2-0.3
				c0.5,0,0.9-0.1,1.3-0.3c0.2-0.1,0.4-0.4,0.4-0.6c0-0.3-0.2-0.5-0.4-0.7c0,0-0.1,0-0.1,0c-0.6-0.1-1.3-0.1-1.9,0
				c-0.2,0-0.2,0.1-0.2,0.2C91.2,48,91.1,48.3,91.1,48.7L91.1,48.7z M96.3,48.1c-0.3,0.3-0.7,0.5-1.1,0.7c-0.3,0.1-0.5,0.5-0.4,0.8
				c0,0.1,0,0.2,0.2,0.2c0.3-0.1,0.7-0.1,1,0c0.3,0.1,0.6,0,0.9,0.1c0.1,0,0.2,0,0.2-0.2c0-0.3,0-0.4-0.4-0.4c-0.4,0-0.6,0-0.9,0
				c-0.1,0-0.1,0-0.1-0.1c0,0,0.1-0.1,0.1-0.1c0.4-0.2,0.8-0.5,1.2-0.7c0.2-0.1,0.4-0.4,0.3-0.6c0-0.1-0.1-0.2-0.2-0.2
				c-0.6,0-1.1,0-1.7,0c-0.2,0-0.5-0.1-0.6,0c-0.1,0.1,0,0.4,0,0.6l0,0C95.3,48.2,95.8,48.1,96.3,48.1L96.3,48.1z M134.6,50
				c0.7,0,1.3-0.5,1.3-1.2c0-0.5-0.3-1-0.7-1.2c-0.4-0.2-0.9-0.1-1.3,0.2c-0.5,0.3-0.7,0.9-0.6,1.4C133.6,49.7,134.1,50,134.6,50z
				 M136.2,48.7c-0.1,0.4,0.1,0.8,0.5,1c0.4,0.2,0.8,0.5,1.2,0.1c0,0,0-0.1,0.1,0c0.1,0,0.2,0,0.3,0c0.4-0.2,0.7-0.7,0.6-1.2
				c-0.1-0.5-0.4-0.9-0.9-1c-0.2,0-0.4,0-0.6,0c-0.2,0-0.4,0.1-0.6,0.2c-0.1,0.1,0,0.2-0.1,0.3C136.2,48.1,136.2,48.5,136.2,48.7z
				 M132.6,49.1h0.3c0.1,0,0.1,0,0.2-0.1c0-0.2-0.1-0.3-0.2-0.4c-0.1-0.1-0.3-0.2-0.4-0.1s-0.1,0.1-0.2,0s-0.1,0-0.2,0h-0.6
				c-0.1,0-0.1,0-0.2-0.1c0-0.1-0.3-0.1-0.5-0.2c-0.2,0-0.1,0.2-0.1,0.2c0,0.5,0,1.1-0.1,1.6c0,0.1,0,0.1,0.1,0.2
				c0.3,0.1,0.5-0.1,0.6-0.3c0-0.1,0-0.2,0-0.3c0-0.1,0-0.2,0-0.4c0-0.2,0.1-0.2,0.2-0.2C131.9,49,132.2,49.1,132.6,49.1L132.6,49.1
				z M94.6,48v-0.2c0-0.2,0-0.4-0.3-0.3c0,0-0.1,0-0.1,0c-0.2,0-0.2,0.1-0.2,0.3c0,0.6,0,1.2-0.1,1.8c0,0.2,0.1,0.3,0.2,0.2
				c0.1,0,0.5,0.2,0.6-0.1v0C94.6,49,94.6,48.5,94.6,48L94.6,48z M131.3,47.9c0.1,0,0.3-0.1,0.4-0.1c0.4,0.1,0.9,0.1,1.3,0.1
				c0.2,0,0.2-0.1,0.3-0.2c0-0.1,0-0.2,0-0.2c-0.1-0.1-0.2-0.2-0.3,0c-0.1,0.1-0.1,0-0.1,0c-0.1-0.1-0.3-0.2-0.5-0.2
				c-0.5,0-0.9,0-1.4,0c-0.1,0-0.2,0.1-0.2,0.1c0.1,0.1,0,0.2-0.1,0.2c0,0.2,0,0.4,0.1,0.5c0.1,0,0.3,0,0.4,0
				C131.3,48.1,131.2,48,131.3,47.9L131.3,47.9z M143.9,48.5c-0.1,0-0.2,0-0.3,0c-0.3,0-0.1,0.2-0.2,0.4s0,0.2,0.2,0.2
				c0.6,0,1.1,0,1.7,0c0.4,0,0.3-0.2,0.3-0.4v-0.1c0-0.1-0.1-0.1-0.1-0.1c-0.2,0-0.4,0-0.6,0C144.6,48.5,144.2,48.6,143.9,48.5
				L143.9,48.5z M88.5,49.1L88.5,49.1c0.2,0,0.5,0,0.7,0c0.2,0,0.3,0,0.2-0.2c0-0.2,0.2-0.4-0.2-0.4c-0.5,0.1-1,0.1-1.5,0
				c-0.1,0-0.1,0-0.2,0c0,0-0.1,0-0.1,0.1c0,0.1,0.2,0.3,0.1,0.5c0,0,0.2,0,0.3,0C88,49,88.3,49.1,88.5,49.1L88.5,49.1z M137.7,27.3
				c0.2,0.1,0.1-0.2,0.2-0.2c0.1,0-0.2-0.1-0.2-0.2c-0.1,0.1-0.2,0.1-0.2,0.2C137.5,27.2,137.5,27.4,137.7,27.3z M136.9,25.2
				c0.2,0.2,0.5,0.2,0.7,0c0,0,0,0,0,0H136.9z M137.7,35.7L137.7,35.7h-1.1l0,0H137.7z"/>
			<path id="_Compound_Path_3" class="st0" d="M120,25.8h-1v0.1c0.6,0.1,1.1,0.1,1.7,0.1c0.4,0,0.8,0,1.2,0c0.2,0,0.2,0.1,0.2,0.2
				c-0.1,0.4-0.3,0.7-0.5,1c-0.2,0.3-0.3,0.6-0.4,1c0,0.1-0.2,0.3-0.1,0.5c0,0-0.4,0.3-0.5,0.2c-0.4-0.2-0.7-0.1-1.1,0
				c-0.4,0-0.6,0.2-0.6,0.6c-0.2,0.8-0.4,1.5-0.7,2.2c0,0,0,0,0,0.1c-0.4,0.8-0.8,1.6-1.1,2.3c-0.1,0.1-0.1,0.2,0,0.4
				c0.6,2.1,1.2,4.2,1.8,6.2c0.1,0.3,0.3,0.3,0.5,0.3c0.4,0,0.8,0.1,1.2,0.1s0.4,0.2,0.5,0.6c0,0.3,0.1,0.6,0.2,0.8
				c0.1,0.4,0.2,0.8,0.4,1.2c0.1,0.1-0.2,0.4-0.3,0.4h-2.1c-0.6,0-1.2-0.2-1.8-0.2c-0.2,0-0.4-0.1-0.5-0.2c0,0-0.1-0.1-0.1-0.1
				c-0.4,0-0.3-0.4-0.4-0.6c-0.2-0.5-0.2-1.1-0.4-1.7c-0.1-0.2-0.1-0.5-0.2-0.7c-0.1-0.4-0.2-0.8-0.3-1.2c-0.3-1.2-0.6-2.3-1-3.5
				c0-0.2-0.1-0.4-0.2-0.7c0-0.1,0-0.1-0.1-0.1c-0.1,0-0.1,0.1-0.1,0.2c-0.1,0.7-0.1,1.5-0.1,2.2c0,0.5,0,1.1-0.1,1.6
				s0.1,0.9,0.1,1.3c0,0.1,0,0.2,0,0.3c-0.1,0.2,0,0.5,0,0.8c-0.1,0.6,0,1.3,0,2c0,0.2,0,0.3,0.3,0.3c-0.2,0.1-0.3,0.4-0.6,0.2
				c0,0-0.1,0-0.2,0c-0.1,0-0.3,0.1-0.5-0.1c0,0-0.1,0-0.1,0c-0.5,0-1,0-1.4,0c-0.2,0-0.2,0.2-0.2,0.3c-0.2-0.4-0.3-0.8-0.2-1.2
				c0-0.9,0-1.8,0-2.7c0-3.9,0-7.8,0-11.7c0-0.1,0-0.2-0.1-0.3c-0.1-0.1,0.1-0.1,0.1-0.2c0-0.3,0-0.6,0-1c0-0.5,0-0.9,0.1-1.4
				c0-0.5,0-1-0.1-1.5c0,0,0-0.1,0-0.1c0.1-0.6,0.1-1.2,0-1.8c0-0.2,0.2-0.3,0.4-0.3s0.5,0,0.7,0c0.2,0,0.4,0,0.6,0
				c0.3-0.2,0.7-0.2,1.1-0.1c0.2,0.1,0.3,0.3,0.3,0.5c0.1,0.8,0.1,1.6,0.1,2.4c0,0.6,0,1.1,0,1.7c0.1,1.6-0.2,3.2-0.2,4.9
				c0,0.3,0.1,0.3,0.3,0.3c0.1,0,0.2,0,0.4,0c0.2,0,0.2-0.2,0.2-0.2c-0.2-0.3,0.2-0.4,0.2-0.6c0,0,0.1-0.1,0.1-0.2
				c0.1-0.4,0.3-0.7,0.5-1.1c0.1-0.3,0.4-0.6,0.2-1c0-0.1,0.1-0.2,0.1-0.3c0.2-0.2,0.4-0.4,0.4-0.7c0.1-0.3,0.2-0.6,0.3-0.8
				s0.3-0.3,0.3-0.5c0-0.2,0.2-0.2,0-0.2c0,0,0-0.1,0-0.1c0.3-0.1,0.6-0.2,0.9-0.2c0.2,0,0.4,0,0.6-0.1c0,0,0.2,0.1,0.4,0.1
				L120,25.8L120,25.8z M117.6,26.2c0.1,0,0.3-0.1,0.4-0.2c0,0,0-0.1,0-0.1c-0.1,0-0.2,0-0.3,0l0,0c-0.1,0-0.2,0-0.2,0.1
				S117.6,26.1,117.6,26.2z"/>
			<path id="_Compound_Path_4" class="st0" d="M105.1,32c-0.4,0.1-0.3,0.5-0.4,0.7c0,0.1,0,0.2,0,0.2c0,0.3,0,0.6,0,0.9
				c0,0.5,0.3,0.7,0.8,0.7c0.2,0,0.5,0,0.6,0c0.2,0.2,0.4,0,0.6,0s0.2-0.1,0.1-0.2c-0.1-0.2-0.1-0.5-0.1-0.7c0-0.2,0.1-0.5-0.2-0.7
				c0,0,0-0.1,0-0.1c0.1-0.2,0.1-0.4,0-0.6c0-0.2,0-0.4,0.1-0.6c0.1-0.5,0.1-1,0.1-1.5c0-0.2,0-0.3-0.1-0.5c0-0.2,0-0.4,0.2-0.4
				c0.4-0.1,0.8-0.2,1.3-0.2c0,0.1-0.2,0-0.2,0.1l0,0c0.1,0,0.3,0.1,0.3,0c0.1-0.3,0.3-0.2,0.5-0.2l0.8-0.1c0.4,0,0.5,0.1,0.5,0.5
				c0,0.1,0,0.3,0,0.4c0,0.2,0.1,0.4-0.1,0.6c0,0.1,0,0.1,0,0.2c0.1,0.4,0.1,0.7,0,1.1c0,0.7-0.1,1.3-0.1,2c0,0.2,0.1,0.4,0,0.7
				c0,0,0.1,0.1,0.1,0.1h0.3c-0.1,0.1-0.3,0-0.4,0.2c-0.1,0.2-0.1,0.4-0.1,0.6c0,0.1,0,0.1,0,0.2c-0.1,0.5-0.1,1,0,1.5
				c0,0.1,0.1,0.2,0.2,0.3c-0.6,0.2-1.3,0.2-1.9,0.1c-1.5-0.1-3-0.2-4.4-0.1c-0.6-0.1-1.1-0.1-1.7-0.1c0-0.1,0.2-0.1,0.1-0.2
				c-0.1-0.1-0.3-0.2-0.5,0c0-1.1,0-2.2,0-3.3c-0.1-0.5-0.1-1,0-1.4c0.1-0.4-0.1-0.8,0.1-1.1c0.1-0.4,0-1,0.1-1.4
				c0-0.1-0.1-0.2-0.1-0.3c0.1-0.4,0.1-0.8,0-1.2c-0.1-0.4-0.1-0.9-0.1-1.3c0-0.2,0-0.3,0.1-0.5c0-0.1,0-0.1,0-0.2
				c-0.1-0.2-0.1-0.4,0-0.6c0,0,0-0.1,0-0.1c-0.1-0.5-0.2-1-0.1-1.5c0-0.2-0.2-0.3-0.2-0.5c0-0.6,0-1.1,0-1.7c0-0.6,0.1-0.9,0.1-1.4
				c0.1-0.6-0.2-1.2-0.2-1.9c0-0.1,0.1-0.2-0.1-0.4c-0.2-0.1,0-0.1,0-0.1s0.3-0.2,0.5-0.1c0.2,0.1,0.3-0.1,0.5-0.1c0.5,0,1,0,1.5,0
				c0.5,0,1.1,0,1.7,0c0.1,0,0.3-0.1,0.3,0.2c0,0.1,0.1,0.1,0.1,0.1c0.2-0.2,0.6,0,0.8-0.2c0,0,0.3-0.2,0.4,0.1c0.1,0,0.2,0,0.3,0
				c0.4-0.1,0.8-0.1,1.2,0h1.1c0.3,0,0.4,0.2,0.3,0.4c-0.1,0.3-0.1,0.6,0,0.9c0,0.1,0,0.1-0.1,0.2s-0.2,0.2,0,0.3c0,0,0,0.1,0,0.1
				c-0.3,0.2-0.1,0.5-0.1,0.8c0,0.1,0.1,0.1,0.2,0.1c0.1,0,0.1,0,0.2,0.1c-0.4-0.1-0.4,0.2-0.4,0.5s0.2,0.7,0,1
				c0.4,0.4-0.1,0.8,0.1,1.2c-0.2,0.6,0,1.2-0.2,1.8c-0.1,0.3-0.1,0.5-0.1,0.8c0,0.3-0.1,0.4-0.3,0.4c-0.6,0-1.2-0.1-1.8-0.1
				s-1.4,0-2.1,0c-0.2,0-0.4-0.1-0.7-0.1c-0.2,0-0.3,0.2-0.2,0.3c0,0.2,0,0.1,0,0.1c-0.1,0.2,0,0.5,0,0.7c0,0.3,0,0.5,0,0.8
				c0,0.2-0.2,0.4,0,0.6c-0.3,0.4,0,0.8-0.2,1.2c-0.1,0.1,0,0.2,0.1,0.3c0,0,0,0,0,0c-0.1,0.1,0,0.3-0.1,0.5
				C104.5,31.4,104.7,31.8,105.1,32z M105,23.6c0.2-0.1,0.3-0.1,0.5-0.1c0.4,0,0.9,0.2,1.3,0.1c0.2,0,0.2,0,0.2-0.2
				c0-0.3,0-0.5,0-0.8c0-0.3,0-0.7,0-1c0-0.2,0-0.3-0.3-0.4c-0.3,0-0.7,0.1-1,0c-0.3-0.1-0.5,0.2-0.7,0.2c0,0-0.1,0.1-0.1,0.1
				c0,0.3,0,0.5,0,0.8C105,22.8,105,23.2,105,23.6z M106.2,25c0.1,0,0.2-0.1,0.2-0.2c0.1-0.1,0-0.1,0.1,0c0.1,0.1,0.3,0,0.4-0.1
				c0-0.1,0-0.1,0-0.2c0-0.1-0.1-0.2-0.2-0.2c-0.1,0-0.3-0.1-0.5-0.1c0,0,0,0,0-0.1c0-0.1,0-0.2-0.1-0.2s-0.2,0-0.1,0.2
				s-0.1,0.1-0.2,0.2c-0.1,0.1-0.1,0.1-0.1,0s-0.1-0.1-0.2-0.1c0,0,0,0.1,0,0.1c0,0.1,0.1,0.1,0.2,0.1c0.1,0,0,0,0,0.1
				s-0.2,0.1-0.3,0c-0.1-0.1-0.1,0-0.2,0s-0.1,0.1,0,0.1s0.1,0.1,0.2,0.1c0.3,0.1,0.6,0.1,0.9,0C106.3,24.9,106.2,24.9,106.2,25z
				 M105.1,19.7c-0.2,0-0.3-0.1-0.4-0.3c0,0.2-0.2,0.2-0.4,0.3c0.2,0.1,0.2,0.2,0.2,0.4c0.1-0.1,0.2-0.1,0.4,0
				C104.9,20,104.9,19.8,105.1,19.7z M102.1,18.7c0,0.2,0,0.3,0,0.4c0,0.1,0,0.1,0.1,0.1c0,0,0.1,0,0.1-0.1
				C102.3,19,102.2,18.8,102.1,18.7z M108.1,29.6c-0.1,0-0.2-0.1-0.2,0.2c0,0.2,0,0.2,0.1,0.1c0.1,0,0.3-0.1,0.4-0.2
				C108.4,29.5,108.2,29.6,108.1,29.6L108.1,29.6z M109.7,35.9c0-0.1,0-0.2,0-0.3c0-0.1-0.1-0.1-0.1,0c-0.1,0.1-0.2,0.1,0,0.2
				C109.7,35.8,109.5,35.9,109.7,35.9c0,0-0.2,0.3,0,0.3S109.6,36,109.7,35.9L109.7,35.9z M106.5,35.2c0.2,0.1,0.3,0.1,0.3,0.3
				c0,0.2,0.1,0.1,0.1,0.1s0.1-0.1,0.1-0.1s0-0.1-0.1-0.1c-0.1,0-0.2,0-0.3-0.1C106.6,35,106.5,35.1,106.5,35.2L106.5,35.2z
				 M108.2,30.2C108.2,30.2,108.1,30.3,108.2,30.2c0.1,0.2,0.2,0.2,0.2,0.3c0,0,0.1,0,0.1-0.1C108.5,30.3,108.3,30.2,108.2,30.2
				L108.2,30.2z M109.7,29.5c0-0.1-0.1-0.1-0.2-0.1c-0.1,0-0.2,0-0.2,0.1C109.4,29.6,109.6,29.5,109.7,29.5
				C109.7,29.6,109.7,29.5,109.7,29.5L109.7,29.5z M104.3,23.6c0.1-0.2,0.1-0.4,0.1-0.7C104.2,23.1,104.3,23.4,104.3,23.6z
				 M103.4,28c0.1,0,0.2-0.2,0.3,0c0,0,0.1,0,0.1,0c0,0,0,0,0,0c0,0,0-0.1,0-0.1c-0.1-0.1-0.2-0.1-0.2-0.1
				C103.4,27.7,103.3,27.8,103.4,28z M107.3,33.4c0,0.1-0.1,0.2,0,0.3c0.1,0.1,0.2,0,0.2,0C107.5,33.7,107.3,33.5,107.3,33.4
				L107.3,33.4z"/>
			<path id="_Compound_Path_5" class="st0" d="M124.4,35.8h0.2l0.1,0.1c0.2,0.2,0.4,0,0.6,0.1c0,0,0.1,0,0,0l-0.1-0.1
				c0.5,0,1.1,0,1.6,0c0.4,0,0.9,0,1.3,0c0.2,0,0.2-0.1,0.2-0.2c0-0.4,0-0.8,0-1.2v-6.1c0-0.4,0-0.4-0.4-0.3c-0.2,0-0.4,0-0.6,0
				c-0.4,0-0.9,0-1.3,0c-0.1,0-0.1,0.1-0.1,0.1c0,0.6,0,1.1,0.1,1.7c0.1,0.3,0.1,0.7,0,1c0,0.1,0,0.2,0,0.3V33c0,0.1,0,0.1,0,0.2
				c0,0.1-0.1,0.3-0.1,0.4c-0.1,0.1-0.3,0-0.4,0.1c-0.3,0.1-0.6,0-0.9,0.1c0,0-0.1,0-0.1,0c-0.3-0.1-0.7-0.2-1.1-0.1
				c-0.2,0-0.3-0.1-0.3-0.3c0-0.5,0-1,0-1.6c0.1-0.9,0.1-1.8,0.1-2.7c0-0.6,0-1.1,0-1.7s0-1,0-1.5v-0.3c0.1,0.2,0.1,0.3,0.3,0.2
				c0.2-0.1,0.4-0.1,0.6-0.1c0.2,0,0.4,0,0.5-0.1c0,0,0.1-0.1,0.1,0c0.1,0.3,0.1,0.2,0.2,0c0-0.1,0.1-0.1,0.2,0c0,0,0,0,0,0
				c0.1,0.2,0.2,0,0.3,0c0.1,0.2,0.2,0.2,0.4,0l-0.4-0.1c-0.6,0-1.2-0.1-1.8-0.1h0.5c0.2,0,0.4,0,0.6-0.1c0.1-0.1,0.3,0,0.4,0.1
				c0.1,0.1,0.4,0,0.5,0c0.6-0.1,1.1-0.1,1.7-0.1c1.2,0,2.3,0,3.5,0.1c0.2,0,0.5,0,0.7,0c-0.2,0.4-0.3,0.9-0.2,1.3
				c0.1,0.1-0.1,0.3-0.1,0.5c0,1,0,2,0,3c-0.1,0.9-0.1,1.8,0,2.8c0.1,0.5,0.1,1.1,0,1.6c0,0.1,0,0.2,0,0.3c0.1,0.3,0.1,0.6,0.1,0.9
				c-0.1,0.4-0.1,0.9-0.1,1.3c0,0.5,0,1,0,1.5c0,0,0,0.1,0,0.1c-0.1,0.2-0.1,0.4,0,0.6c0.1,0.3,0.1,0.6,0,0.9c0,0.1,0,0.3,0,0.4
				c0.3,0.5,0.1,1,0.1,1.4c0,0.4,0,0.9,0,1.3c0,0.2-0.2,0.2-0.3,0.4c-0.1,0.2-0.2,0.2-0.4,0.2c-1,0-2,0-3-0.1
				c-1.4-0.2-2.8,0-4.2-0.1c-0.3,0-0.3-0.1-0.4-0.3c0-0.2,0.1-0.8-0.2-1.1c0,0,0-0.1,0-0.2c0.1-0.3,0.2-0.7,0.2-1c0-0.8,0-1.6,0-2.3
				c0-0.1,0-0.2-0.1-0.3c-0.1-0.1-0.1-0.1,0-0.1c0-0.1,0-0.1,0-0.2c0-0.8,0-1.7,0.1-2.5h0.2c0,0.1,0.1,0.2,0.1,0.2
				c0,0.1,0.1,0.2,0.2,0.2h0.1c0.2,0.1,0.2,0.1,0.3,0c0.1-0.1,0.3-0.1,0.4-0.1C124.5,36,124.3,35.7,124.4,35.8z M128.7,29.4
				c0.1,0,0.1,0.1,0.2,0.1s0,0,0-0.1C128.9,29.5,128.8,29.4,128.7,29.4c-0.1-0.1,0.2-0.3,0.1-0.4c-0.1-0.1-0.1,0.1-0.1,0.1
				c-0.1,0,0-0.2-0.1-0.2C128.5,29.1,128.5,29.3,128.7,29.4L128.7,29.4z M127.9,40.8c0.2,0.1,0.3,0,0.3-0.1c0.1-0.3,0.1-0.5,0-0.8
				c-0.1-0.2-0.1-0.5-0.1-0.7c0-0.4-0.1-0.6-0.5-0.6c-0.3,0-0.7,0-1,0.1c-0.1,0-0.3,0-0.3-0.1c0,0.2-0.2,0.1-0.3,0.1s-0.1,0-0.1,0.1
				c0,0.4-0.1,0.7,0,1.1c0.1,0.4,0.1,0.5,0,0.7c0,0.1,0,0.2,0.2,0.2C126.6,40.8,127.2,40.8,127.9,40.8z M127.3,25.9
				c0,0.3-0.3,0.5-0.6,0.5c0,0,0,0,0,0c0.3,0.2,0.3,0.4,0.3,0.8c0.3-0.3,0.5-0.1,0.8,0c-0.2-0.3,0-0.5,0.2-0.8
				C127.5,26.4,127.4,26.2,127.3,25.9z M130.8,39.6C130.8,39.6,130.8,39.6,130.8,39.6c0-0.1-0.1-0.1-0.1-0.2s-0.1,0,0,0.1
				c0,0.2,0,0.4,0,0.6c0,0,0,0.1,0.1,0.1c0.1,0,0.1-0.1,0.1-0.1S130.8,39.8,130.8,39.6z M130,25.4c-0.1,0-0.2,0-0.2,0.1
				c0,0.1,0,0.1,0,0.2s0.1,0.1,0.2,0c0.1-0.1,0.1,0,0.2,0c0.1,0,0.2,0,0.2-0.1c0-0.1-0.1-0.1-0.2-0.1L130,25.4z M124.8,40.7
				c-0.1-0.1,0.1-0.4-0.2-0.5s-0.2,0.2-0.2,0.3C124.5,40.7,124.7,40.6,124.8,40.7z M128.4,28.4c0.1-0.1,0.1-0.2,0.3-0.2
				c0.1,0,0.1-0.1,0-0.2c-0.1-0.1,0-0.1-0.1-0.1c-0.1,0-0.2,0-0.2,0.1L128.4,28.4z M128.4,40.4c0.1-0.2,0.2-0.1,0.3-0.2
				c-0.1-0.1-0.2-0.1-0.3-0.1S128.4,40.3,128.4,40.4L128.4,40.4z M128.4,30.1c0.2-0.1,0.1-0.2,0.2-0.3c0,0,0.1-0.1,0-0.1
				c0,0,0,0,0,0c-0.1,0-0.1,0-0.2,0.1L128.4,30.1z M123.2,32.1c0.1,0,0.2,0,0.3-0.1c0-0.1,0.1-0.2-0.1-0.2
				C123.3,31.8,123.3,32,123.2,32.1L123.2,32.1z M128.9,25.4c-0.2-0.1-0.3,0-0.5,0c0,0-0.1,0-0.1,0.1c0,0,0,0,0,0c0,0,0,0.1,0.1,0.1
				C128.6,25.6,128.8,25.5,128.9,25.4L128.9,25.4z M124.9,40c0,0.1-0.1,0.2,0.1,0.2c0.1,0,0.1-0.2,0.1-0.2s0-0.2-0.1-0.2
				C124.9,39.7,124.8,39.8,124.9,40z M129.7,33.8c0,0.1-0.1,0.2,0,0.4c0.1-0.1,0.2-0.1,0.3-0.2C129.8,34,129.8,33.8,129.7,33.8
				L129.7,33.8z M123.3,41.4c0.1-0.1,0.2-0.1,0.2-0.3c0-0.1-0.1-0.1-0.1-0.1C123.4,41.1,123.3,41.2,123.3,41.4L123.3,41.4z
				 M125.1,40.4c0-0.1-0.1-0.1-0.2-0.1s-0.1,0-0.1,0.1c0,0.1,0.1,0.1,0.1,0.2C125.1,40.5,125.1,40.4,125.1,40.4L125.1,40.4z
				 M127.7,37.1L127.7,37.1c-0.2-0.1-0.1,0.2-0.3,0.2c0,0,0,0,0,0.1c0,0,0,0,0,0c0,0,0,0,0.1,0C127.6,37.3,127.7,37.2,127.7,37.1
				L127.7,37.1z M126.2,41c-0.2,0-0.3-0.1-0.4,0.1c-0.1,0.1,0,0.1,0,0.1S126.1,41.1,126.2,41z"/>
			<path id="_Compound_Path_6" class="st0" d="M89,25c1.1,0,2.2,0,3.2,0c1.1,0,2.1,0.1,3.1,0.1h1c0.2,0,0.3,0.2,0.3,0.4
				c-0.2,1-0.2,2.1-0.2,3.1c0,0.2,0,0.5-0.1,0.7c0,0.1-0.1,0.2,0.1,0.3c0,0,0,0.1,0,0.1c-0.1,0.6-0.1,1.1-0.1,1.7
				c0,0.1,0,0.2-0.1,0.3c0,0.2,0,0.3,0.2,0.3c-0.1,0-0.3,0.1-0.3,0.2c0,0,0,0.1,0,0.1c0.1,0.4,0,0.9,0,1.3c0,0.2,0,0.3,0,0.5
				c0,0.8,0.1,1.7,0,2.5c-0.1,1.2,0,2.5,0,3.7c0,0.8,0,1.7,0.1,2.5c0.1,0.5-0.3,0.7-0.7,0.7c-0.5,0-1,0-1.5,0
				c-0.2,0-0.3-0.1-0.5-0.1c-0.2,0-0.1-0.1-0.1-0.2c0.1-0.3,0.1-0.7,0-1c0-0.1,0.1-0.1,0.1-0.2s0.1-0.3,0-0.4c-0.1-0.1,0-0.1,0-0.1
				c0.2-0.1,0-0.3,0-0.4c-0.1-0.2-0.1-0.5,0-0.7c0-0.4,0-0.7,0-1.1c0-0.8,0-1.6,0-2.5c0-0.2,0-0.3-0.2-0.3c-0.5,0-1,0-1.5,0
				c-0.2,0-0.3,0.1-0.3,0.3c0,1.1,0,2.1,0,3.2c0,1,0,2,0,3c0,0.4-0.1,0.4-0.5,0.3c-0.4-0.1-0.9-0.1-1.3,0c-0.3,0-0.5-0.1-0.7-0.2
				c0,0-0.1-0.1-0.1-0.1c0.1-0.2,0-0.4,0-0.6c0-1.6,0-3.2,0-4.7c0-0.6,0.1-1.1,0.1-1.7c0-1.1,0-2.2,0-3.4c0-0.4,0-0.9,0-1.3
				c0-0.3,0-0.5,0-0.8c0-0.3,0-0.7,0-1c0-0.2-0.1-0.5,0-0.6s-0.2-0.5,0.1-0.8c0.1-0.1-0.1-0.2-0.1-0.3c0-0.3,0-0.5,0-0.8
				c0-0.6,0.1-1.2,0.1-1.8C89.2,25.3,89.2,25.2,89,25z M93.7,28.2L93.7,28.2c0-0.1,0-0.3,0-0.4c0-0.3-0.1-0.3-0.3-0.3l-1.3,0.2
				c-0.2,0-0.3,0.1-0.3,0.3c0,0.5,0,1,0,1.4c0.1,0.7,0.1,1.3,0,2c0,0.4-0.1,0.9-0.1,1.3c0.1,0.4,0.1,0.9,0.1,1.4
				c0,0.2,0,0.3,0.3,0.2c0.3-0.1,0.6-0.1,1,0c0.2,0.1,0.4,0,0.5-0.3c0.2-0.5,0.2-1,0.1-1.6c0-0.1-0.1-0.1-0.1-0.2
				c0.2-0.4,0.3-0.9,0.2-1.3c0-0.4,0-0.8,0-1.2C93.7,29.2,93.7,28.7,93.7,28.2z M89.4,25.2c0.2,0.2,0.5,0.2,0.8,0.1
				c0.1,0,0.2,0,0.2-0.2s-0.2,0-0.2,0s-0.2,0.2-0.3,0.1S89.6,25.2,89.4,25.2L89.4,25.2z M94.7,27.5c0.3,0.1,0.4-0.1,0.5-0.3
				c-0.1,0-0.2-0.1-0.3-0.2C94.7,27,94.6,27.2,94.7,27.5C94.7,27.5,94.7,27.5,94.7,27.5L94.7,27.5z M90.7,25.5
				c0.1,0,0.3-0.1,0.2-0.2c0-0.1-0.2,0-0.3-0.1s-0.1,0.1-0.1,0.1S90.6,25.5,90.7,25.5L90.7,25.5z M92.5,25.3
				c-0.2-0.1-0.5-0.1-0.8-0.1c0,0-0.1,0-0.1,0.1s0,0.1,0.1,0.1C91.9,25.2,92.2,25.3,92.5,25.3L92.5,25.3z"/>
			<path id="_Path_" class="st1" d="M84.6,53.8c2.2-0.1,4.4-0.1,6.6-0.2c1.5,0,3-0.1,4.5-0.1c0.8,0,1.5,0,2.3,0c0.5,0,1-0.1,1.5-0.2
				c0.4,0,0.8,0,1.2,0c1,0,1.9,0,2.9,0c0.7,0,1.4,0,2.1,0c0.9,0,1.8,0,2.7-0.1c0.8-0.1,1.5,0,2.3-0.1c0.4,0,0.7,0,1.1,0l6.8-0.2
				c2,0,3.9-0.1,5.9-0.1c3.5-0.1,6.9-0.2,10.3-0.3c2.5,0,5.1-0.1,7.6-0.1c0.8,0,1.6,0,2.4-0.1c0.8-0.1,1.5,0.1,2.2,0
				c0.5-0.1,0.9,0,1.4-0.1s0.4-0.2,0.4-0.4c0-0.8,0-1.7-0.1-2.5c0-1.3-0.1-2.6-0.1-4c0,0,0-0.1,0-0.1c0.2,0.1,0.3,0.2,0.3,0.4
				c0.1,0.3,0.1,0.7,0.1,1c0,0.8,0,1.6,0.1,2.5c0.1,0.7,0,1.4,0,2c0,0.4,0.1,0.9,0.1,1.3c0,0.4-0.1,0.7-0.4,1
				c-0.1,0.1-0.3,0.2-0.5,0.2c-0.3,0.1-0.7,0.1-1,0.1c-1.6,0-3.3,0-4.9,0c-0.5,0-0.9,0-1.4,0.1c-0.4,0-0.8,0-1.1,0
				c-1.6,0-3.1,0-4.7,0c-0.9,0-1.8,0-2.6,0.1s-1.4,0-2.1,0c-0.7,0-1.7,0-2.6,0.1c-0.9,0.1-1.8,0-2.6,0c-1.4,0.1-2.8,0.1-4.1,0.1
				c-1.8,0.1-3.7,0.1-5.6,0.1s-3.5,0-5.2,0.1c-1,0-2,0-3.1,0.1c-0.8,0-1.6,0-2.5,0c-1.8,0.2-3.5,0-5.3,0.1c-1.4,0.1-2.7,0.1-4.1,0.1
				L91.8,55c-0.8,0-1.7-0.1-2.4,0C88.2,55.1,87,55,85.8,55c-0.5,0.1-0.9-0.2-1.1-0.7C84.7,54.2,84.6,54,84.6,53.8z"/>
			<path id="_Path_2" class="st0" d="M103.2,44c-0.2,0-0.5,0-0.7,0c-0.5,0.1-1-0.2-1.6,0c-0.1,0-0.3,0.3-0.3-0.1c0,0,0,0-0.1,0
				c-0.3,0.1-0.5,0-0.8,0c-0.6,0-1.3,0-1.9-0.1c0,0-0.2-0.1-0.1-0.2c0.1-0.1,0.1-0.3,0.1-0.4c0-0.4,0-0.7,0-1.1c0-0.2,0-0.4,0-0.7
				s0-0.5,0-0.7s-0.1-0.4,0.1-0.6c0.2-0.2-0.1-0.2-0.1-0.3c0-0.4,0-0.8,0-1.1c0-0.1,0.1-0.2-0.1-0.2s-0.1,0,0-0.1
				c0.2-0.1,0.1-0.2,0.1-0.3c0-0.4,0-0.8,0-1.3c0.1-0.3,0.1-0.6,0-0.8c0-0.2,0-0.4,0.1-0.6c0-0.2,0-0.5,0-0.7c0-0.5-0.1-1,0-1.5
				c0.1-0.9,0-1.8,0-2.7s0-1.7,0.1-2.5c0.2-0.7,0.2-1.2,0.2-1.8c0-0.1,0-0.2,0.1-0.2c0.1-0.1,0-0.1,0-0.1c-0.2-0.2-0.2-0.5-0.1-0.8
				c0-0.1,0.1-0.1,0.2-0.1c0.6,0,1.2,0,1.8,0c0.4,0,0.7,0,1.1,0.1c0,0.1-0.1,0.2-0.1,0.3c0,0.7-0.1,1.4-0.1,2.1c0,0.1,0,0.2,0.1,0.3
				c0,0,0.1,0.1,0,0.1c-0.2,0.1-0.2,0.2-0.2,0.4c0,0.8,0,1.5,0,2.3c-0.3,3.3,0,6.6-0.1,9.9c0,0.4,0,0.4,0.4,0.4c0.3,0,0.6,0,0.9,0.1
				c0.1,0,0.3,0,0.4,0c0.5,0,0.5,0,0.5-0.5c0-0.5,0-1,0.1-1.6c0,0,0-0.1,0-0.1c0-0.2,0-0.3,0.2-0.3h2.6c0.5,0.1,0.5,0.1,0.5,0.6
				c0,0.8-0.2,1.6-0.2,2.4c-0.1,0.8-0.1,1.6,0,2.3c0,0.2-0.2,0.3-0.3,0.3c-0.5,0-1.1,0.2-1.6-0.1c-0.3,0.2-0.7-0.1-0.9,0.2
				C103.4,44,103.3,44,103.2,44C103.2,43.8,103.3,43.9,103.2,44L103.2,44z"/>
			<path id="_Path_3" class="st0" d="M134.8,25.8c-0.9,0.3-1.9-0.1-2.4-1c-0.6-1-0.2-2.3,0.9-2.9c0.7-0.4,1.5-0.3,2.1,0.1
				c-1.4-0.1-2.3,0.4-2.5,1.8C132.9,25,133.6,25.6,134.8,25.8z"/>
			<path id="_Path_4" class="st0" d="M125.3,25.3l0.4,0.1C125.6,25.6,125.4,25.6,125.3,25.3L125.3,25.3z"/>
			<path id="_Path_5" class="st0" d="M124.4,35.8c-0.1,0,0.1,0.2-0.1,0.1c-0.2-0.1-0.3,0-0.5-0.1C124,35.7,124.2,35.7,124.4,35.8z"
				/>
			<path id="_Path_6" class="st0" d="M124.6,35.8L124.6,35.8c0-0.1,0.1-0.1,0.1-0.1C124.8,35.8,124.7,35.8,124.6,35.8z"/>
			<path id="_Compound_Path_7" class="st2" d="M120,48.5c0,0.1-0.1,0.2,0,0.3s-0.1,0.1-0.1,0.2c0,0-0.4,0.1-0.5,0.3s-0.1,0-0.1,0
				s0.2,0.7,0.4,0.7s0.2-0.2,0.2-0.3c0-0.1-0.1-0.3,0-0.4s0.3,0,0.4,0s0.2,0,0.2-0.1c0-0.4,0.2-0.8,0-1.1c-0.1-0.3,0.1-0.6,0.3-0.8
				c0.3-0.1,0.5-0.1,0.8-0.1c0.4,0,0.8,0.1,1.1,0.3c0.1,0.1,0.4,0.2,0.1,0.4c-0.2,0.2,0.1,0.1,0.2,0.2c-0.1,0-0.2,0.2-0.3,0.1
				s-0.1,0.1-0.2,0.1c0,0.1,0,0.1,0,0.1c0,0,0,0,0.1,0l0.1,0c-0.2,0.3,0.1,0.2,0.2,0.3c0.2,0.2,0.3,0.4,0.3,0.7l0.7-1.2
				c0.1,0,0.2,0,0.2-0.1c0-0.1-0.1,0-0.1,0c0-0.2,0.3-0.4,0.2-0.7h-0.6c-0.1,0-0.2,0-0.2-0.1c0,0,0-0.1,0-0.1
				c0.2-0.1,0.3-0.4,0.5-0.4c0.5,0,1,0,1.5,0c0.2,0,0.3-0.1,0.4,0.1c0.1,0.2,0.2,0,0.3,0c0.1,0,0,0,0,0.1c0,0.4,0,0.4-0.4,0.5
				c-0.3,0-0.2,0.1-0.2,0.3c-0.1,0.2,0.2,0.3,0.2,0.5c0.1,0.5,0.4,0.9,0.5,1.3l0.3,0.6H126c0-0.1,0.1-0.1,0-0.2
				c-0.1-0.1-0.1,0-0.2,0s-0.1,0-0.2,0c0,0,0-0.1,0-0.1c-0.1-0.4-0.3-0.8-0.8-0.6c0-0.1,0.1-0.2,0-0.2s-0.2,0-0.2,0.2
				c0.1,0.2-0.1,0-0.1,0c-0.1,0-0.1,0-0.2,0c-0.2,0-0.5-0.1-0.5,0.3c0,0.2-0.2,0.2-0.3,0.2h-0.2c-0.1,0-0.3,0-0.4,0.1
				c-0.4,0.3-0.9,0.5-1.4,0.4c-0.2,0-0.5,0-0.8,0c-0.2,0-0.4,0-0.3-0.3c-0.2,0.2-0.4,0.4-0.7,0.4c-0.4,0.1-0.7-0.2-0.9-0.5
				c-0.1-0.2-0.1-0.4-0.3-0.5s-0.3,0-0.3,0.2c0,0.6,0,0.6-0.6,0.6c-0.2,0-0.2-0.1-0.2-0.2c0-0.4,0.1-0.7,0.1-1.1
				c0-0.4,0-0.8-0.1-1.3c0-0.2,0.1-0.2,0.2-0.2s0.1,0.1,0.2,0c0-0.1,0.1,0,0.2-0.1c0.6-0.1,1.1-0.1,1.7,0.1c0.2,0,0.3,0.2,0.4,0.3
				c0.1,0.1,0,0.2-0.1,0.2s-0.2,0-0.3,0c-0.1,0,0.1,0.3-0.1,0.3L120,48.5L120,48.5z M124.4,48.3L124.4,48.3L124.4,48.3l-0.3,0.1l0,0
				L124.4,48.3c0.1,0.1,0.1,0.2,0,0.3s-0.1,0.2,0.1,0.2c0.2,0,0.2,0,0.2,0s0.4,0.1,0.7,0.1c-0.2-0.2-0.3-0.4-0.2-0.6
				c0,0,0-0.1,0-0.2c-0.2,0-0.2-0.2-0.3-0.3c-0.1,0.1-0.2,0.2-0.2,0.3S124.5,48.3,124.4,48.3z M118.8,48.9l0.3-0.1
				c0.3-0.1,0.5-0.6,0.3-0.8c-0.2-0.2-0.5-0.2-0.7-0.2c-0.2,0-0.4,0-0.5,0.3s0.1,0.3,0,0.4c0,0.1,0,0.2,0,0.3c0.3,0,0.5,0.2,0.7,0.2
				C119,49,118.9,49,118.8,48.9z M122.6,49c-0.4,0-0.8-0.1-1.2,0c-0.1,0-0.2,0-0.2,0.1s0,0.4,0,0.7c0,0.2,0.1,0.1,0.1,0.1
				c0.3,0,0.7,0,1-0.2c0.2-0.1,0.3-0.2,0.2-0.4S122.5,49.1,122.6,49L122.6,49z M121.6,47.6c-0.1,0.2-0.5,0.1-0.4,0.4
				c0,0.1,0,0.1,0,0.2c0,0.1,0.1,0.2,0.1,0.2c0.1,0,0.2,0,0.3,0c0.3,0,0.6-0.1,0.8-0.4c0.1-0.1,0.1-0.2,0-0.3c0,0,0,0-0.1,0
				C122,47.6,121.7,47.8,121.6,47.6L121.6,47.6z M121.9,50c0,0.1,0,0.2,0.1,0.2c0,0,0.1,0,0.1-0.1c0,0,0,0,0,0
				c0-0.1-0.2-0.1-0.2-0.2L121.9,50z M125.2,47.7c0,0.2,0.1,0.1,0.1,0.1c0.1,0,0.1,0,0.1,0s-0.1-0.1-0.1-0.1
				C125.2,47.8,125.2,47.7,125.2,47.7z M124.4,49.3C124.4,49.2,124.4,49.2,124.4,49.3C124.4,49.2,124.3,49.2,124.4,49.3
				C124.3,49.4,124.3,49.4,124.4,49.3C124.5,49.3,124.4,49.3,124.4,49.3L124.4,49.3z M125.1,47.8L125.1,47.8L125.1,47.8L125.1,47.8z
				"/>
			<path id="_Compound_Path_8" class="st2" d="M100.9,47.6c0,0-0.1-0.1-0.1-0.1c-0.2,0.1-0.4-0.1-0.7,0c-0.1,0-0.1,0-0.2-0.1
				c0-0.4,0-0.4,0.4-0.4h2.2c0.2,0,0.2,0,0.2,0.2c0,0.4,0,0.4-0.3,0.4h-0.2c-0.1,0-0.2,0-0.1,0.2c0.2,0.6,0.4,1.2,0.6,1.7
				c0.1,0.3,0.2,0.6,0.4,0.9h-0.5c-0.2,0-0.3,0-0.3-0.2c-0.1-0.2-0.1-0.4-0.2-0.6c0-0.1-0.1-0.1-0.2-0.1c-0.4,0-0.8,0-1.2-0.1
				c-0.1,0-0.2,0.1-0.2,0.2c0,0.2-0.2,0.4-0.5,0.3c-0.3-0.1-0.4,0-0.6,0c0-0.1,0.2-0.1,0-0.2c-0.1-0.1-0.1,0.1-0.2,0.1
				c-0.1,0.1-0.2,0.1-0.3,0c-0.1-0.1-0.1,0-0.1,0c0,0.1-0.2,0.1-0.2,0.1c-0.3,0-0.7,0-1,0c-0.2,0-0.2,0-0.2-0.2
				c-0.1-0.3,0.1-0.6,0.4-0.7c0.4-0.2,0.7-0.5,1-0.7c-0.2,0-0.4-0.1-0.6,0c-0.2,0.1-0.4,0-0.7,0c-0.1,0-0.1,0-0.1-0.1c0,0,0,0,0,0
				c0-0.2-0.1-0.5,0-0.5c0.3-0.1,0.6-0.1,0.9,0c0.4,0.1,0.7,0.1,1.1,0.1c0.1,0,0.3,0.1,0.4,0.1c0.2-0.1,0.1,0.1,0,0.2
				s-0.1,0.1,0,0.2s0.1,0.2,0,0.3l-0.6,0.4c0,0-0.1,0-0.1,0c0,0-0.2,0-0.2,0c0,0.3-0.4,0.4-0.5,0.6c0,0.1,0.1,0.1,0.2,0.1
				c0.1,0,0.2,0.1,0.1,0.2c-0.2,0.1,0,0.2,0,0.2s0.1,0,0.1,0s0-0.1,0-0.2c0-0.2,0-0.3,0.3-0.3c0.2,0,0.3,0,0.5,0
				c0.1,0,0.2,0,0.1,0.1s0.1,0.2,0.1,0.3C100.2,49.1,100.5,48.3,100.9,47.6c0,0.1,0.1,0.3,0.2,0.1L100.9,47.6z M101.5,47.8
				c-0.1,0.3-0.3,0.6-0.5,0.8c-0.1,0.1-0.1,0.3,0.2,0.2c0.2,0,0.4,0,0.5,0c0.1,0,0.1,0,0.1-0.1s-0.1-0.3,0-0.4
				C101.6,48.2,101.7,48,101.5,47.8z"/>
			<path id="_Compound_Path_9" class="st2" d="M107.7,50.3L107.7,50.3c-0.7,0-0.7,0-0.9-0.7c0-0.2-0.2-0.3-0.3-0.3c0,0,0,0,0,0
				c-0.3,0-0.7,0-1,0c-0.1,0-0.3,0.1-0.3,0.2c-0.1,0.3-0.4,0.4-0.7,0.3c-0.1-0.1-0.1-0.1-0.1-0.2c0.3-0.6,0.7-1.2,1-1.8
				c0.2-0.3,0.2-0.3-0.2-0.3c-0.1,0-0.2,0-0.3,0c-0.1,0-0.3,0.1-0.3-0.1c0-0.2,0-0.3,0-0.5h0.1c0.4,0.1,0.8-0.1,1.2,0
				c0.4,0,0.8,0,1.2,0c0.2,0,0.3,0.1,0.3,0.4c0,0.4-0.2,0.2-0.3,0.2c-0.4,0-0.4,0-0.3,0.4C107,48.7,107.3,49.5,107.7,50.3z
				 M106.4,48.8l-0.4-1l-0.5,0.9c0,0.1,0,0.2,0.1,0.2L106.4,48.8z"/>
			<path id="_Compound_Path_10" class="st2" d="M108.2,48.6c0,0.4,0,0.8,0,1.2c0,0.2,0,0.3-0.2,0.2c-0.1,0-0.2,0-0.2,0
				c-0.1,0-0.2,0-0.1-0.2c0.1-0.3,0.1-0.7,0.1-1c0.1-0.3,0.1-0.7,0-1c-0.1-0.2,0-0.2,0.2-0.2c0.3,0,0.6,0.1,0.7,0.4
				c0.2,0.4,0.5,0.8,0.7,1.2c0-0.6,0-1,0-1.5c0-0.2,0-0.3,0.2-0.3c0.5,0,0.5,0,0.5,0.5c0,0.8-0.1,1.6-0.1,2.4c0,0.1,0,0.3-0.2,0.2
				s-0.1,0-0.2,0c-0.2,0.1-0.3,0-0.3-0.3c0-0.1,0.1-0.3-0.2-0.3c0,0-0.1-0.1-0.1-0.2c-0.2-0.4-0.4-0.8-0.6-1.1L108.2,48.6z
				 M107.9,48.8c-0.1,0-0.2-0.1-0.2,0.1c0,0.1,0,0.1,0.1,0.1C107.8,48.9,108,49,107.9,48.8L107.9,48.8L107.9,48.8z"/>
			<path id="_Compound_Path_11" class="st2" d="M110.3,49.5c0.1-0.2-0.1-0.4,0.1-0.6c-0.2-0.3,0-0.7-0.1-1.1c-0.1-0.5,0-0.5,0.5-0.5
				c0.3,0,0.7,0,1,0c0.7,0,1.3,0.6,1.3,1.4c0,0.1,0,0.3-0.1,0.4c-0.1,0.2-0.1,0.5-0.5,0.4c0,0-0.1,0-0.1,0.1c0,0.3-0.2,0.3-0.4,0.3
				c-0.5,0.1-1.1,0.1-1.7,0.1c-0.1,0-0.2,0-0.1-0.2C110.3,49.7,110.3,49.6,110.3,49.5z M111.4,49.5c0.3,0,0.6-0.1,0.8-0.3
				c0.1,0,0.2,0,0.2-0.1s0.1-0.3,0.1-0.5c0-0.3-0.2-0.6-0.5-0.7c-0.2-0.1-0.5-0.1-0.7-0.1c-0.2,0-0.2,0-0.2,0.2c0,0.3,0,0.7,0,1
				S111,49.5,111.4,49.5z"/>
			<path id="_Compound_Path_12" class="st2" d="M127.2,48.4c-0.1,0.2-0.2,0.3-0.1,0.5c0,0.3,0,0.7,0,1c-0.1,0.1-0.1,0-0.2,0
				c-0.4,0.1-0.4,0.1-0.3-0.3s0-1,0.1-1.4c0-0.2,0-0.4,0-0.5c0-0.1,0.1-0.1,0.1-0.1c0.2-0.1,0.5,0,0.7,0.2l0.8,1.4
				c0-0.3,0-0.6,0-0.9c0-0.1,0-0.2,0.1-0.2c0.1,0,0.1,0,0.1-0.1c0,0,0,0,0,0c0-0.1-0.1-0.1-0.1-0.1c-0.1-0.1-0.1-0.2-0.2-0.3
				c0-0.1,0-0.2,0.2-0.2c0.1,0,0.3,0,0.4,0c0.1,0,0.1,0,0.1,0.1c0,0.1,0,0.4-0.1,0.5s0,0.2,0,0.2c0.2,0.4,0,0.8,0.1,1.3
				c0,0.2,0,0.5,0,0.8s0,0.2-0.2,0.2c-0.3,0.1-0.5-0.1-0.6-0.3c0,0,0,0,0,0c-0.1-0.3-0.3-0.7-0.5-1
				C127.5,48.9,127.3,48.7,127.2,48.4z M128.7,50c0,0,0.1-0.1,0-0.1c-0.1,0-0.2,0-0.1,0.1c0.1,0.1-0.1,0.2,0.1,0.2
				S128.7,50.1,128.7,50z"/>
			<path id="_Compound_Path_13" class="st2" d="M139.4,48.7c-0.2-0.1-0.4-0.3-0.3-0.5c0,0,0-0.1,0-0.1c0-0.1,0.1,0,0.1,0
				c0,0,0.1,0.1,0.1,0c0-0.1-0.1-0.1-0.1-0.1h-0.1c0.2-0.1,0.2-0.2,0-0.4c-0.2-0.2-0.1-0.3,0.1-0.3s0.4-0.1,0.5,0.1
				c0.2,0.1,0.1,0,0.2,0c0.3-0.1,0.6-0.1,0.9,0.1c0.2,0.1,0.4,0,0.5,0.2c0.4,0.3,0.6,0.7,0.5,1.2c-0.1,0.5-0.4,0.9-0.9,1
				c-0.5,0.1-0.9,0.2-1.4,0.1l0,0c0,0-0.4,0.1-0.5,0c-0.1-0.1,0-0.3,0-0.5c0,0,0-0.1,0-0.1c-0.1-0.2-0.1-0.5,0.1-0.6
				C139.3,48.8,139.3,48.7,139.4,48.7z M139.8,48.7L139.8,48.7c0,0.1,0,0.2,0,0.3c0,0.2-0.1,0.4,0.1,0.5c0.2,0.1,0.4,0.1,0.6,0
				l0.2-0.1c0,0,0.1,0,0.1,0c0.1,0.2,0.1,0,0.1,0s0.1-0.4,0.4-0.4c0.1,0,0.1-0.1,0-0.2s-0.2-0.3-0.2-0.4c0-0.2-0.1-0.3-0.2-0.4
				c-0.2-0.2-0.5-0.2-0.7-0.3c-0.2-0.1-0.1-0.2-0.3-0.1c-0.1,0.1-0.3,0.2-0.3,0.4C139.7,48.3,139.8,48.5,139.8,48.7z"/>
			<path id="_Compound_Path_14" class="st2" d="M91.1,48.7c0-0.4,0-0.8,0-1.1c0-0.2,0.1-0.2,0.2-0.2c0.6-0.1,1.3-0.1,1.9,0
				c0,0,0.1,0,0.1,0c0.2,0.2,0.4,0.4,0.4,0.7c0,0.3-0.2,0.5-0.4,0.6C92.9,48.9,92.5,49,92,49c-0.2,0-0.3,0.1-0.2,0.3s0,0.2,0,0.3
				c0,0.4,0,0.4-0.4,0.4c-0.3,0-0.3-0.1-0.3-0.3S91.1,49,91.1,48.7L91.1,48.7z M91.7,48.1c0,0.2-0.1,0.3,0.1,0.4
				c0.4,0.1,0.8,0,1-0.3c0.1-0.2,0.1-0.3-0.2-0.4c-0.2,0-0.4,0-0.7,0C91.8,47.9,91.7,48,91.7,48.1z"/>
			<path id="_Path_7" class="st2" d="M96.3,48.1c-0.5,0-0.9,0-1.4,0l0,0c0-0.2-0.1-0.5,0-0.7c0.1-0.2,0.4,0,0.6,0c0.6,0,1.1,0,1.7,0
				c0.1,0,0.2,0.1,0.2,0.2c0.1,0.3-0.1,0.5-0.3,0.6c-0.4,0.2-0.8,0.5-1.2,0.7c0,0-0.1,0-0.1,0.1c0,0.1,0.1,0,0.1,0
				c0.3,0,0.6,0,0.9,0c0.3,0,0.4,0.1,0.4,0.4c0,0.2-0.1,0.2-0.2,0.2c-0.3-0.1-0.6,0-0.9-0.1c-0.3-0.1-0.7-0.1-1,0
				c-0.1,0-0.2,0-0.2-0.2c-0.1-0.3,0.1-0.6,0.4-0.8C95.6,48.6,96,48.4,96.3,48.1z"/>
			<path id="_Path_8" class="st2" d="M115.2,48.4c0,0,0.2-0.1,0.2,0c0,0.1,0.1,0.3-0.1,0.4c0,0,0,0.1-0.1,0.1c-0.1,0-0.1,0-0.1,0.1
				s0.1,0,0.1,0c0.2-0.1,0.3,0,0.4,0.2c0.1,0.2,0.4,0.3,0.6,0.3c0.2,0,0.4-0.2,0.4-0.4c0.1-0.5,0.1-0.9,0-1.4c0-0.2,0-0.3,0.2-0.3
				c0.2,0,0.5,0,0.5,0.2c0,0.2,0,0.4,0,0.5c0,0.1,0,0.3-0.2,0.2c-0.1,0-0.1,0.1-0.1,0.2s0.1,0,0.1,0.1c0.1,0,0.2,0.1,0.2,0.3
				c0,0.6-0.5,1.2-1.1,1.3c-0.2,0-0.3,0-0.5,0c-0.1,0-0.3,0-0.3-0.2c0,0,0-0.1-0.1-0.1c0,0,0,0,0,0c0,0-0.1,0-0.1,0
				c-0.2-0.3-0.5-0.6-0.4-1c0-0.2-0.2-0.4,0.1-0.5c-0.2-0.1-0.1-0.3-0.1-0.5c0-0.2,0-0.2,0.1-0.2c0.1,0,0,0,0.1,0
				c0.1,0-0.1-0.2,0-0.2c0.2,0,0.4,0,0.6,0c0,0,0,0.1,0,0.1c0,0,0,0,0,0c-0.1,0.2,0,0.6-0.3,0.8C115.2,48.3,115.2,48.4,115.2,48.4
				c0,0-0.1,0-0.1,0C115.1,48.5,115.2,48.5,115.2,48.4z"/>
			<path id="_Compound_Path_15" class="st2" d="M134.6,50c-0.5,0-1-0.3-1.2-0.8c-0.2-0.5,0.1-1.1,0.6-1.4c0.4-0.3,0.9-0.4,1.3-0.2
				c0.5,0.2,0.8,0.6,0.7,1.2C135.9,49.5,135.3,50,134.6,50z M135.3,48.8c0-0.5-0.1-0.7-0.5-0.7c-0.4-0.1-0.8,0.2-0.8,0.6
				c0,0.1,0,0.2,0,0.4c0,0.1,0.2,0.2,0,0.4c0,0,0,0.1,0.1,0.1c0.1,0,0.4,0,0.6,0.1c0.2,0.1,0.2,0.1,0.3,0
				C135.1,49.2,135.3,49,135.3,48.8L135.3,48.8z"/>
			<path id="_Compound_Path_16" class="st2" d="M136.2,48.7c0.1-0.2,0-0.6,0.4-0.7c0.1,0,0-0.2,0.1-0.3c0.2-0.1,0.4-0.1,0.6-0.2
				c0.2,0,0.4-0.1,0.6,0c0.5,0.1,0.9,0.5,0.9,1c0.1,0.5-0.2,0.9-0.6,1.2c-0.1,0-0.2,0.2-0.3,0c-0.1-0.2,0,0-0.1,0
				c-0.4,0.4-0.8,0.1-1.2-0.1C136.3,49.5,136.1,49.1,136.2,48.7z M137,47.7C137,47.7,137,47.8,137,47.7C137,47.8,137,47.8,137,47.7
				c0.1,0.1,0.1,0.1,0.1,0.1h0.1C137.2,47.8,137.1,47.6,137,47.7C137,47.7,137,47.7,137,47.7L137,47.7z M138.1,49.3L138.1,49.3
				L138.1,49.3L138.1,49.3c-0.2-0.1-0.1-0.1-0.1-0.2c0.2-0.3,0.2-0.7-0.1-1c-0.1-0.1-0.1-0.1,0-0.2s0.1,0,0-0.1
				c-0.1-0.1-0.1-0.1-0.1,0c-0.1,0.1-0.1,0.1-0.2,0.1c-0.4-0.1-0.7,0.1-0.8,0.5c-0.1,0.2,0,0.4,0.1,0.6c0.1,0.1,0.1,0.2,0.2,0.3
				C137.4,49.4,137.8,49.4,138.1,49.3L138.1,49.3z"/>
			<path id="_Compound_Path_17" class="st2" d="M132.6,49.1c-0.4,0-0.8-0.1-1.1,0c-0.2,0-0.3,0.1-0.2,0.2c0,0.1,0,0.2,0,0.4
				c0.1,0.3-0.1,0.5-0.4,0.6c-0.1,0-0.2,0-0.3,0c-0.1,0-0.1-0.1-0.1-0.2c0.1-0.5,0-1.1,0.1-1.6c0-0.1,0-0.3,0.1-0.2
				c0.1,0,0.4-0.1,0.5,0.2s0.1,0.1,0.2,0.1h0.6c0.1,0,0.1,0,0.2,0c0.1,0,0.1,0.1,0.2,0c0.1-0.1,0.3,0,0.4,0.1
				c0.1,0.1,0.2,0.2,0.2,0.4c0,0.1-0.1,0.1-0.2,0.1L132.6,49.1z M132,48.8L132,48.8L132,48.8L132,48.8L132,48.8z M132,48.7L132,48.7
				L132,48.7z"/>
			<path id="_Path_9" class="st2" d="M94.6,48c0,0.5,0,1,0,1.6v0c-0.1,0.4-0.4,0.1-0.6,0.1c-0.2,0.1-0.2,0-0.2-0.2
				c0.1-0.6,0.1-1.2,0.1-1.8c0-0.2,0-0.3,0.2-0.3c0,0,0.1,0,0.1,0c0.3-0.1,0.3,0,0.3,0.3L94.6,48z"/>
			<path id="_Path_10" class="st2" d="M131.2,47.9c0,0.1,0.1,0.3,0,0.3c-0.1,0-0.3,0-0.4,0c-0.1-0.2-0.1-0.4-0.1-0.5
				c0.1-0.1,0.2-0.1,0.1-0.2s0-0.1,0.2-0.1c0.5,0,0.9,0,1.4,0c0.2,0,0.4,0,0.5,0.2c0,0,0.1,0.1,0.1,0c0.1-0.1,0.2,0,0.3,0
				c0,0.1,0,0.2,0,0.2c-0.1,0.1-0.1,0.2-0.3,0.2c-0.4-0.1-0.9,0-1.3-0.1C131.5,47.8,131.4,47.8,131.2,47.9z"/>
			<path id="_Path_11" class="st2" d="M143.9,48.5c0.4,0,0.7,0,1.1,0c0.2,0,0.4,0,0.6,0c0.1,0,0.1,0,0.1,0.1v0.1
				c0,0.2,0.1,0.4-0.3,0.4c-0.6,0-1.1,0-1.7,0c-0.2,0-0.2-0.1-0.2-0.2c0-0.1-0.1-0.4,0.2-0.4C143.7,48.5,143.8,48.5,143.9,48.5z"/>
			<path id="_Path_12" class="st2" d="M88.5,49.1c-0.2,0-0.4,0-0.6,0s-0.3,0-0.3,0c0-0.2-0.1-0.3-0.1-0.5s0-0.1,0.1-0.1
				c0.1,0,0.1,0,0.2,0c0.5,0.1,1,0.1,1.5,0c0.4,0,0.2,0.3,0.2,0.4c0,0.2-0.1,0.2-0.2,0.2C89.1,49.2,88.7,49.2,88.5,49.1L88.5,49.1z"
				/>
			<path id="_Path_13" class="st2" d="M137.7,27.3c-0.2,0.1-0.1-0.2-0.2-0.2s0.1-0.1,0.2-0.2c0,0.1,0.2,0.1,0.2,0.2
				C137.9,27.2,137.9,27.4,137.7,27.3z"/>
			<path id="_Path_14" class="st2" d="M136.9,25.2h0.8C137.5,25.4,137.2,25.4,136.9,25.2C137,25.2,136.9,25.2,136.9,25.2z"/>
			<path id="_Path_15" class="st0" d="M120,48.5c0-0.1-0.1-0.2,0-0.2c0.1-0.1,0.2-0.1,0.3,0c0,0.1,0,0.2-0.1,0.4
				C120.2,48.6,120.1,48.5,120,48.5L120,48.5z"/>
			<path id="_Path_16" class="st2" d="M137.7,35.7h-1.1l0,0H137.7z"/>
			<path id="_Path_17" class="st0" d="M100.9,47.6h0.3C101.1,47.8,101,47.7,100.9,47.6z"/>
			<path id="_Path_18" class="st0" d="M124,48.2C124,48.2,124.1,48.2,124,48.2C124.1,48.2,124,48.3,124,48.2L124,48.2z"/>
			<path id="_Path_19" class="st2" d="M117.6,26.2c0,0-0.2,0-0.2-0.1s0.1-0.1,0.2-0.1l0,0c0.1,0,0.2,0,0.3,0V26
				C117.9,26.1,117.7,26.2,117.6,26.2z"/>
			<path id="_Path_20" class="st2" d="M105,23.6c0-0.4,0-0.8-0.1-1.1c0-0.3,0-0.5,0-0.8c0,0,0-0.1,0.1-0.1c0.2,0,0.5-0.2,0.7-0.2
				c0.3,0,0.7-0.1,1,0c0.3,0.1,0.3,0.2,0.3,0.4c0,0.3,0,0.7,0,1c0,0.3,0,0.5,0,0.8c0,0.2,0,0.2-0.2,0.2c-0.5,0-0.9-0.1-1.3-0.1
				C105.3,23.6,105.1,23.6,105,23.6z"/>
			<path id="_Path_21" class="st2" d="M106.2,25c0-0.1,0.1-0.1,0.1-0.3c-0.3,0.1-0.6,0.1-0.9,0c-0.1,0-0.1-0.1-0.2-0.1s0-0.1,0-0.1
				s0.1-0.1,0.2,0c0.1,0.1,0.2,0.1,0.3,0c0.1-0.1,0-0.1,0-0.1s-0.2,0-0.2-0.1c0,0,0-0.1,0-0.1c0.1,0,0.2-0.1,0.2,0.1
				c0.1,0.2,0.1,0,0.1,0s0.2,0,0.2-0.2c0-0.2,0-0.1,0.1-0.2s0.2,0,0.1,0.2c-0.1,0.2,0,0.1,0,0.1c0.2-0.1,0.3,0.1,0.5,0.1
				c0.2-0.1,0.2,0,0.2,0.2c0,0.2-0.1,0.3-0.3,0.3c-0.1,0-0.1,0-0.2,0c-0.1,0-0.1,0-0.1,0S106.3,25,106.2,25z"/>
			<path id="_Path_22" class="st2" d="M105.1,19.7c-0.2,0.1-0.2,0.2-0.1,0.4c-0.2-0.1-0.3-0.1-0.4,0c0-0.1,0-0.3-0.2-0.4
				c0.2-0.1,0.3-0.1,0.4-0.3C104.8,19.6,104.9,19.7,105.1,19.7z"/>
			<path id="_Path_23" class="st2" d="M102,18.7L102,18.7c0.1,0.1,0.2,0.3,0.1,0.5c0,0-0.1,0.1-0.1,0.1c-0.1,0-0.1-0.1-0.1-0.1
				S102,18.9,102,18.7z"/>
			<path id="_Path_24" class="st2" d="M108,29.5c0.1,0,0.3,0,0.3,0.1c0,0.1-0.2,0.2-0.4,0.2s-0.1,0-0.1-0.1
				C107.8,29.6,107.9,29.6,108,29.5z"/>
			<path id="_Path_25" class="st2" d="M109.6,35.9c-0.1,0.1,0.1,0.3-0.1,0.3c-0.1,0,0-0.2-0.1-0.3c-0.1-0.1,0-0.1,0-0.1
				c-0.1,0,0-0.1,0-0.2c0,0,0.1,0,0.1,0C109.6,35.5,109.6,35.8,109.6,35.9z"/>
			<path id="_Path_26" class="st2" d="M106.4,35.2c0.1,0,0.1-0.2,0.2-0.1c0.1,0.1,0.2,0.2,0.3,0.1c0.1,0,0.1,0.1,0.1,0.1
				c0,0.1,0,0.1-0.1,0.1c-0.1,0-0.1,0-0.2-0.1S106.6,35.2,106.4,35.2z"/>
			<path id="_Path_27" class="st2" d="M108.2,30.1c0.2,0,0.3,0.1,0.3,0.2s-0.1,0.1-0.1,0.1C108.3,30.4,108.2,30.3,108.2,30.1
				C108.1,30.2,108.1,30.2,108.2,30.1z"/>
			<path id="_Path_28" class="st2" d="M109.7,29.4C109.7,29.5,109.6,29.6,109.7,29.4c-0.1,0-0.3,0.2-0.3,0s0.1-0.1,0.2-0.1
				C109.6,29.3,109.7,29.3,109.7,29.4z"/>
			<path id="_Path_29" class="st2" d="M104.3,23.6c0-0.2-0.1-0.4,0.1-0.7C104.4,23.1,104.4,23.3,104.3,23.6z"/>
			<path id="_Path_30" class="st2" d="M103.4,28c0-0.2,0.1-0.1,0.2-0.1c0.1,0,0.2,0,0.2,0.1c0,0,0,0.1,0,0.2c0,0-0.1,0-0.1,0
				c0,0,0,0,0,0C103.6,27.7,103.5,28,103.4,28z"/>
			<path id="_Path_31" class="st2" d="M107.3,33.3c0,0.2,0.3,0,0.2,0.2c-0.1,0.2-0.1,0.1-0.2,0S107.3,33.5,107.3,33.3z"/>
			<path id="_Path_32" class="st3" d="M127.9,40.8c-0.6,0-1.2,0-1.9,0c-0.2,0-0.2-0.1-0.2-0.2c0.1-0.3,0-0.5,0-0.7
				c0-0.2,0.1-0.8,0-1.1c0-0.1,0-0.1,0.1-0.1s0.2,0,0.3-0.1c0.1,0.1,0.2,0.1,0.3,0.1c0.3-0.1,0.7-0.1,1-0.1c0.4,0,0.5,0.2,0.5,0.6
				c0,0.2,0,0.5,0.1,0.7c0.1,0.3,0.1,0.5,0,0.8C128.2,40.8,128,40.8,127.9,40.8z"/>
			<path id="_Path_33" class="st3" d="M127.3,25.9c0.1,0.3,0.2,0.6,0.6,0.5c-0.2,0.2-0.4,0.4-0.2,0.8c-0.3-0.1-0.5-0.3-0.8,0
				c0-0.3,0.1-0.6-0.3-0.8C126.9,26.4,127.2,26.2,127.3,25.9C127.3,25.9,127.3,25.9,127.3,25.9z"/>
			<path id="_Path_34" class="st2" d="M130.8,39.6c0,0.2,0,0.3,0,0.5s0,0.1-0.1,0.1c-0.1,0-0.1,0-0.1-0.1c0-0.2,0-0.4,0-0.6
				c0,0,0-0.1,0-0.1S130.7,39.5,130.8,39.6C130.7,39.6,130.8,39.6,130.8,39.6z"/>
			<path id="_Path_35" class="st3" d="M130,25.4h0.2c0.1,0,0.2,0,0.2,0.1c0,0.1-0.1,0-0.2,0.1c0,0.1-0.1,0-0.2,0s-0.1,0.1-0.2,0
				c-0.1-0.1,0-0.1,0-0.2C129.9,25.4,129.9,25.4,130,25.4z"/>
			<path id="_Path_36" class="st3" d="M124.8,40.7c-0.1-0.1-0.4,0-0.4-0.2c0,0,0-0.3,0.2-0.3C124.8,40.2,124.7,40.6,124.8,40.7z"/>
			<path id="_Path_37" class="st3" d="M128.4,28.4V28c0-0.1,0.1-0.1,0.2-0.1c0.1,0,0.1,0,0.1,0.1c0,0.1,0.1,0.2,0,0.2
				S128.5,28.4,128.4,28.4z"/>
			<path id="_Path_38" class="st2" d="M128.4,40.4c0-0.1-0.1-0.2,0-0.3c0.1,0,0.2-0.1,0.3,0.1C128.6,40.3,128.5,40.2,128.4,40.4z"/>
			<path id="_Path_39" class="st3" d="M128.5,30.1v-0.4c0-0.1,0.1-0.1,0.1-0.1c0,0,0.1,0.1,0,0.1c0,0,0,0,0,0
				C128.6,30,128.6,30.1,128.5,30.1z"/>
			<path id="_Path_40" class="st3" d="M123.2,32.1c0.1-0.1,0-0.3,0.2-0.3s0.1,0.1,0.1,0.2C123.5,32.1,123.3,32.1,123.2,32.1z"/>
			<path id="_Path_41" class="st3" d="M129,25.4c-0.1,0.1-0.3,0.1-0.5,0.1c-0.2,0.1-0.1,0-0.1-0.1c0,0,0-0.1,0-0.1c0,0,0,0,0,0
				C128.6,25.4,128.8,25.3,129,25.4z"/>
			<path id="_Path_42" class="st3" d="M124.9,40c-0.1-0.1,0-0.2,0.1-0.2c0.1,0,0.1,0.1,0.1,0.2c0,0.1,0,0.2-0.1,0.2
				S124.9,40,124.9,40z"/>
			<path id="_Path_43" class="st3" d="M129.7,33.8c0.1,0,0.1,0.2,0.3,0.1c0,0.1-0.2,0.2-0.3,0.2C129.6,34,129.7,34,129.7,33.8z"/>
			<path id="_Path_44" class="st3" d="M123.3,41.4c0-0.2,0-0.2,0-0.3c0.1-0.1,0.1,0,0.1,0.1C123.4,41.2,123.4,41.3,123.3,41.4z"/>
			<path id="_Path_45" class="st3" d="M125.2,40.4c0,0.1,0,0.1-0.1,0.1s-0.1-0.1-0.1-0.2c0-0.1,0-0.1,0.1-0.1S125.2,40.3,125.2,40.4
				z"/>
			<path id="_Path_46" class="st2" d="M127.7,37c-0.1,0.1-0.1,0.3-0.3,0.3c0,0,0,0-0.1,0c0,0,0,0,0-0.1c0,0,0,0,0,0
				C127.5,37.3,127.4,37,127.7,37C127.7,37,127.7,37,127.7,37z"/>
			<path id="_Path_47" class="st0" d="M128.7,29.4c-0.2-0.1-0.1-0.3-0.2-0.5c0.1,0,0,0.2,0.1,0.2C128.6,29.3,128.6,29.3,128.7,29.4z
				"/>
			<path id="_Path_48" class="st2" d="M126.2,41c-0.1,0.1-0.2,0.2-0.4,0.1c-0.1,0,0,0,0-0.1C125.9,41,126.1,41,126.2,41z"/>
			<path id="_Path_49" class="st3" d="M128.7,29.4c0-0.1,0-0.2,0-0.3c0.1,0,0.1-0.2,0.1-0.1S128.8,29.3,128.7,29.4L128.7,29.4
				L128.7,29.4z"/>
			<path id="_Path_50" class="st0" d="M128.7,29.4c0.1,0,0.2,0,0.2,0.1s0,0.1,0,0.1S128.8,29.4,128.7,29.4L128.7,29.4z"/>
			<path id="_Path_51" class="st2" d="M93.7,28.2c-0.1,0.5-0.1,1-0.1,1.4c0,0.4,0,0.8,0,1.2c0.1,0.5,0,0.9-0.2,1.4
				c-0.1,0.1,0.1,0.1,0.1,0.2c0.1,0.5,0.1,1.1-0.1,1.6c-0.1,0.3-0.3,0.4-0.5,0.3c-0.3-0.1-0.6-0.1-1,0c-0.2,0-0.3,0-0.3-0.2
				c0-0.5,0-0.9-0.1-1.4c0-0.4,0-0.9,0.1-1.3c0.1-0.7,0.1-1.3,0-2c0-0.5,0-1,0-1.4c0-0.2,0.1-0.3,0.3-0.3l1.3-0.1
				c0.2,0,0.4,0,0.3,0.3C93.7,27.9,93.7,28.1,93.7,28.2L93.7,28.2z"/>
			<path id="_Path_52" class="st2" d="M89.4,25.2c0.2,0,0.3-0.2,0.5,0c0.2,0.1,0.2-0.1,0.3-0.1c0.1,0,0.2-0.1,0.2,0
				c0,0.1-0.1,0.1-0.2,0.2C90,25.4,89.7,25.4,89.4,25.2z"/>
			<path id="_Path_53" class="st2" d="M94.7,27.5c-0.1-0.2,0-0.4,0.1-0.5c0,0,0,0,0.1,0c0,0.1,0.1,0.2,0.3,0.2
				C95.1,27.5,95,27.6,94.7,27.5z"/>
			<path id="_Path_54" class="st0" d="M90.6,25.5c-0.1,0-0.2,0-0.2-0.1s0.1-0.2,0.1-0.1c0,0,0.3-0.1,0.3,0.1S90.8,25.5,90.6,25.5z"
				/>
			<path id="_Path_55" class="st2" d="M92.4,25.2c-0.3,0.1-0.5,0-0.8,0.1c-0.1,0-0.1,0-0.1-0.1c0-0.1,0-0.1,0.1-0.1
				C91.9,25.1,92.2,25.1,92.4,25.2z"/>
			<path id="_Path_56" class="st0" d="M103.2,44L103.2,44C103.3,44,103.3,44,103.2,44L103.2,44z"/>
			<path id="_Path_57" class="st0" d="M118.8,48.9c0.1,0.1,0.2,0.1,0.2,0.2c-0.2,0-0.4-0.3-0.7-0.2c0-0.1,0-0.2,0-0.3
				c0-0.2-0.2-0.2,0-0.4c0.1-0.2,0.3-0.2,0.5-0.3c0.2-0.1,0.5,0,0.7,0.2c0.2,0.2,0,0.6-0.3,0.8L118.8,48.9z"/>
			<path id="_Path_58" class="st0" d="M122.6,49c0,0.1-0.1,0.2-0.1,0.3c0,0.1-0.1,0.3-0.2,0.4c-0.3,0.1-0.7,0.2-1,0.2
				c-0.1,0-0.2,0-0.2-0.1c0-0.1,0-0.4,0-0.7c0-0.2,0.1-0.1,0.2-0.1C121.7,48.9,122.2,49,122.6,49z"/>
			<path id="_Path_59" class="st0" d="M121.5,47.6c0.2,0.2,0.5,0,0.7,0.1c0.1,0,0.2,0.1,0.1,0.2c0,0,0,0,0,0.1
				c-0.2,0.3-0.5,0.4-0.8,0.4c-0.1,0-0.2,0-0.3,0c0,0-0.1-0.1-0.1-0.2c0-0.1,0.1-0.1,0-0.2C121,47.7,121.5,47.8,121.5,47.6z"/>
			<path id="_Path_60" class="st0" d="M124.4,48.3c0.2,0,0.3,0,0.3-0.2c0-0.2,0.2-0.2,0.2-0.3c0.1,0.1,0.1,0.3,0.3,0.3
				c0,0,0.1,0.1,0,0.2c-0.2,0.3,0,0.4,0.2,0.6c-0.2,0.1-0.4-0.1-0.7,0s-0.2,0-0.2,0s-0.2-0.1-0.1-0.2S124.5,48.5,124.4,48.3
				L124.4,48.3z"/>
			<path id="_Path_61" class="st0" d="M121.8,50v-0.1c0,0.1,0.2,0.1,0.2,0.2c0,0,0,0.1-0.1,0.1c0,0,0,0,0,0
				C121.9,50.2,121.8,50.1,121.8,50z"/>
			<path id="_Path_62" class="st0" d="M124.4,48.3L124.4,48.3l-0.3,0.1l0,0L124.4,48.3L124.4,48.3C124.4,48.3,124.4,48.3,124.4,48.3
				z"/>
			<path id="_Path_63" class="st0" d="M125.2,47.7c0,0,0.1,0,0.1,0c0,0,0.1,0,0.1,0.1c0,0.1-0.1,0.1-0.1,0
				C125.3,47.8,125.2,48,125.2,47.7z"/>
			<path id="_Path_64" class="st0" d="M124.4,49.3L124.4,49.3C124.4,49.3,124.3,49.3,124.4,49.3c-0.1-0.1-0.1-0.1,0-0.1
				S124.4,49.2,124.4,49.3z"/>
			<path id="_Path_65" class="st0" d="M125,47.8L125,47.8L125,47.8L125,47.8z"/>
			<path id="_Path_66" class="st0" d="M101.5,47.8c0.1,0.2,0.1,0.5,0.3,0.6c-0.1,0.1,0,0.3,0,0.4s-0.1,0-0.1,0.1c-0.2,0-0.4,0-0.5,0
				c-0.3,0-0.2-0.2-0.2-0.2C101.2,48.3,101.4,48.1,101.5,47.8z"/>
			<path id="_Path_67" class="st0" d="M106.4,48.8h-0.8c-0.1,0-0.1-0.1-0.1-0.2l0.5-0.9L106.4,48.8z"/>
			<path id="_Path_68" class="st0" d="M108,48.8c0.1,0.2-0.1,0.1-0.2,0.1c-0.1,0-0.1,0-0.1-0.1C107.8,48.8,107.9,48.8,108,48.8
				L108,48.8z"/>
			<path id="_Path_69" class="st0" d="M108,48.8L108,48.8L108,48.8L108,48.8z"/>
			<path id="_Path_70" class="st0" d="M111.4,49.5c-0.4,0-0.4,0-0.4-0.4c0-0.4,0-0.7,0-1c0-0.2,0.1-0.2,0.2-0.2c0.2,0,0.5,0,0.7,0.1
				c0.3,0.1,0.5,0.4,0.5,0.7c0,0.2-0.1,0.3,0,0.5c0,0.2-0.1,0-0.2,0.1C112,49.4,111.7,49.5,111.4,49.5z"/>
			<path id="_Path_71" class="st0" d="M128.7,50c0,0.1,0.1,0.2,0,0.2S128.7,50.1,128.7,50c-0.2-0.1,0-0.1,0-0.1
				C128.8,49.9,128.7,50,128.7,50z"/>
			<path id="_Path_72" class="st0" d="M139.8,48.7c0-0.2,0-0.3,0-0.5c0-0.2,0.1-0.3,0.3-0.4c0.1-0.1,0.2,0,0.3,0.1
				c0.1,0.1,0.5,0.1,0.7,0.3c0.1,0.1,0.2,0.2,0.2,0.4c0,0.1,0,0.3,0.1,0.4c0.2,0.1,0,0.2,0,0.2c-0.3,0-0.3,0.2-0.4,0.4
				c-0.1,0.2,0,0.2-0.2,0c0,0-0.1,0-0.1,0l-0.2,0.1c-0.2,0.1-0.4,0.1-0.6,0c-0.2-0.1,0-0.3-0.1-0.5
				C139.8,48.8,139.8,48.7,139.8,48.7L139.8,48.7z"/>
			<path id="_Path_73" class="st0" d="M91.7,48.1c-0.1-0.2,0.1-0.2,0.3-0.3c0.2,0,0.4,0,0.7,0c0.2,0,0.3,0.2,0.2,0.4
				c-0.3,0.3-0.7,0.4-1.1,0.3C91.7,48.5,91.8,48.3,91.7,48.1z"/>
			<path id="_Path_74" class="st0" d="M115.2,48.4c0,0-0.1,0-0.2,0c0,0,0,0,0,0C115,48.4,115.1,48.4,115.2,48.4L115.2,48.4z"/>
			<path id="_Path_75" class="st0" d="M135.3,48.7c0,0.3-0.2,0.5-0.3,0.8c0,0.1-0.2,0.1-0.3,0s-0.4-0.2-0.6-0.1s-0.1-0.1-0.1-0.1
				c0.2-0.1,0-0.3,0-0.4c-0.1-0.4,0-0.8,0.4-1c0.1,0,0.2-0.1,0.4,0C135.2,48,135.3,48.2,135.3,48.7z"/>
			<path id="_Path_76" class="st0" d="M138.1,49.3c-0.3,0.1-0.6,0.2-0.9,0.1c-0.2-0.1-0.2-0.2-0.2-0.3c-0.1-0.2-0.2-0.4-0.1-0.6
				c0.1-0.3,0.4-0.6,0.8-0.5c0.1,0,0.2,0,0.2-0.1c0,0,0.1,0,0.1,0c0,0,0,0.1,0,0.1s-0.1,0.1,0,0.2c0.2,0.3,0.3,0.7,0.1,1
				C138.1,49.2,138,49.2,138.1,49.3L138.1,49.3z"/>
			<path id="_Path_77" class="st0" d="M137,47.7c0.1-0.2,0.1,0,0.2,0H137L137,47.7z"/>
			<path id="_Path_78" class="st0" d="M137,47.8C137,47.8,137,47.8,137,47.8C136.9,47.8,137,47.8,137,47.8L137,47.8z"/>
			<path id="_Path_79" class="st0" d="M138.1,49.3L138.1,49.3L138.1,49.3L138.1,49.3L138.1,49.3z"/>
			<path id="_Path_80" class="st0" d="M137.1,47.7C137.1,47.7,137,47.7,137.1,47.7l-0.1-0.1l0,0L137.1,47.7z"/>
			<path id="_Path_81" class="st0" d="M132,48.8L132,48.8L132,48.8L132,48.8z"/>
			<polygon id="_Path_82" class="st0" points="132.1,48.7 132.1,48.7 132.1,48.7 			"/>
		</g>
	</g>
</g>
</svg>
