<?xml version="1.0" encoding="utf-8"?>
<!-- Generator: Adobe Illustrator 22.1.0, SVG Export Plug-In . SVG Version: 6.00 Build 0)  -->
<svg version="1.1" id="Layer_1" xmlns="http://www.w3.org/2000/svg" xmlns:xlink="http://www.w3.org/1999/xlink" x="0px" y="0px"
	 viewBox="0 0 233 73" style="enable-background:new 0 0 233 73;" xml:space="preserve">
<style type="text/css">
	.st0{fill:#3D3D3D;}
	.st1{fill:#7D7D7D;}
</style>
<title>Asset 13</title>
<g id="Layer_2_1_">
	<g id="Layer_1-2">
		<g id="_Group_">
			<path id="_Path_" class="st0" d="M141.2,57.9L141,58c-0.1,0-0.1-0.1-0.1-0.2c0-0.3,0-0.7,0-1c0-0.1,0.1-0.1,0.1-0.2l0.1,0.1V57.9
				z"/>
			<path id="_Path_2" class="st0" d="M112,19.8h-0.7c-0.3,0-0.3,0-0.1-0.3c0.6-0.9,1.2-1.8,1.8-2.7l3.6-5.5c0.2-0.3,0.2-0.3,0.4,0
				l3.3,5.1c0.3,0.5,0.4,0.5,1,0.3c0.2-0.1,0.4-0.1,0.6-0.2c0.2,0.2,0,0.3-0.1,0.4c-0.3,0.1-0.5,0.3-0.8,0.4
				c-0.8,0.3-1.6,0.6-2.4,0.8c-0.5,0.1-0.9,0.2-1.4,0.4c-0.7,0.2-1.5,0.3-2.2,0.4c-0.9,0-1.7,0.3-2.4,0.9
				C112.3,19.8,112.2,19.9,112,19.8z"/>
			<path id="_Path_3" class="st0" d="M112,19.8c0.1,0,0.2-0.3,0.4-0.1c0,0.1,0,0.1,0,0.2c-0.2,0.6,0,1.2,0.5,1.6
				c0.2,0.4,0.6,0.7,0.8,1.1c0.2,0.2,0.3,0.5,0.5,0.7c0.1,0.1,0.1,0.2,0.2,0.3c0,0.3,0.1,0.6,0.2,0.9c0.2,0.2-0.2,0.7-0.5,0.9
				c-0.2,0-0.3-0.1-0.4-0.3c-0.1-0.2-0.4-0.4-0.6-0.3h-4c-0.1,0-0.3,0-0.4,0.1c-0.3,0.2-0.6,0.2-0.9,0.1h-0.1c-0.2,0-0.4,0-0.4,0.2
				c0,0.2,0.2,0.1,0.4,0.1h5.9c0.2,0,0.5-0.1,0.6,0.2c0,0.2-0.2,0.1-0.3,0.1c-1.9,0-3.8,0-5.6,0s-3.8,0-5.7,0
				c-0.3-0.1-0.7-0.1-1-0.1h-5.4c-0.2,0-0.4,0-0.5-0.1c-0.1-1.1-0.1-1.1,1-1.1h10.2h6.2c0.1,0,0.3,0,0.4,0c-0.1-0.3-0.5-0.5-0.8-0.5
				c-1.3,0-2.6,0-4,0c-0.1,0-0.3,0-0.3-0.1s0.1-0.2,0.1-0.3l0.9-1.4c0.1-0.2,0.3-0.3,0.5-0.2c0.5,0,1.1,0,1.6,0
				c0.3,0,0.4-0.1,0.3-0.4c0-0.1,0-0.1,0-0.2c0.3,0.2,0.3,0.3,0.1,0.6c-0.1,0.1-0.3,0.1-0.4,0.1c-0.4,0-0.9,0.1-1.3,0.2
				c-0.5,0.1-0.9,0.5-1.2,0.9c-0.1,0.1-0.1,0.3,0.1,0.3c0.1,0,0.2,0,0.3,0.1c1.1,0,2.2,0,3.4,0c0.2-0.1,0.2-0.2,0.2-0.4
				c0-0.4-0.2-0.8-0.5-1.1c-0.1-0.3-0.3-0.5-0.5-0.7c-0.1-0.3-0.3-0.1-0.5,0H96.5c-0.3,0-0.6,0.1-0.9,0c-0.1-0.3,0.2-0.3,0.4-0.4
				c0.5,0,1.1,0,1.6,0c0.4,0.1,0.7-0.1,0.9-0.4c0.1-0.2,0.3-0.1,0.4-0.1c-0.3,0-0.6,0-0.8,0c-0.1,0-0.2,0-0.3-0.1
				c0,0-0.1-0.1-0.1-0.1c0-0.1,0.1-0.1,0.1-0.1h0.3c2.8,0,5.6,0,8.3,0c1.7,0,3.5-0.1,5.2,0c0.1,0,0.2,0.1,0.3-0.1L112,19.8z"/>
			<path id="_Path_4" class="st0" d="M121.8,28.4c-0.2,0.2-0.2,0.4,0.1,0.4c0.1,0.2,0.3,0.4,0.2,0.7c0,0.1-0.1,0.1-0.1,0.1
				c-0.7-0.2-1.1,0.3-1.6,0.6c-0.2,0.1-0.4,0.2-0.6,0.4c-1,0.5-2,1-3.1,1.5c-0.3,0.1-0.6,0.2-0.9,0.3c-0.9,0.4-1.8,0.8-2.8,1
				c-1.3,0.4-2.4,1.2-3.1,2.3c-0.2,0.5-0.4,1.1-0.7,1.6c-0.1,0.1-0.1,0.2-0.2,0.2c-0.1,0-0.2,0-0.2-0.1c-0.1-0.2,0-0.4,0.1-0.5
				c0.1-0.2,0.2-0.1,0.2-0.2c-0.1-0.1-0.2-0.1-0.3-0.1h-6.8c-0.5,0-1,0-1.6,0c-0.1,0-0.3,0.1-0.1-0.1c0.2-0.1,0.4-0.2,0.6-0.2
				c0.6,0,1.2,0,1.8,0c1.2,0.1,2.4,0.1,3.5-0.1c0.6-0.1,1.3-0.1,1.9,0c0.7,0.2,0.9,0.1,1.3-0.5c0-0.1,0.1-0.1,0.1-0.2
				c0.2-0.4,0.5-0.8,0.9-1c0.1,0,0.2-0.1,0.1-0.2c0.1-0.1,0.1-0.2,0.2-0.3c0.4-0.2,0.7-0.5,1-0.7c-0.1-0.1-0.3-0.1-0.4-0.1
				c-0.8,0-1.6,0-2.4-0.1c-0.1,0-0.3,0-0.3-0.1s0.2-0.1,0.3-0.1h3c0.2,0,0.5,0,0.7-0.1c0.1,0,0.1-0.1,0.2-0.1
				c0.1-0.1,0.1-0.2,0.2-0.2c0.9-0.5,1.9-1.1,2.8-1.5c0-0.1,0-0.1,0-0.1c-2.2-0.1-4.4-0.3-6.6-0.1c-1.4,0.1-2.7,0-4.1,0
				c-0.4-0.1-0.9,0.1-1.1,0.5c-0.1,0.1-0.2,0.2-0.4,0.1c0.1-0.2,0.3-0.5,0.4-0.7c0.1-0.2,0.3-0.2,0.5-0.2h11.8c0.2,0,0.4,0,0.6-0.1
				c-0.1-0.1-0.4-0.2-0.6-0.2l-9.4-0.1l-11-0.1c-0.1,0-0.3,0.1-0.3-0.1c0.1-0.2,0.3-0.2,0.5-0.2c0.8,0,1.6,0,2.4,0.1
				c1.8,0,3.7,0,5.5,0c1.7,0,3.3,0,5,0c0.4,0.1,0.8,0.1,1.2,0c0.9,0,1.9,0,2.8,0c1,0,1.9,0.2,2.9,0.1c0.3,0,0.6,0,1,0
				c0.3,0,0.3-0.3,0.3-0.5c0-0.3-0.2-0.4-0.1-0.6c0.1-0.1,0.1-0.1,0.2-0.2c0.3-0.1,0.6-0.3,0.8-0.5c0.4-0.4,1-0.8,1.5-1.1
				c0.2-0.1,0.3-0.3,0.1-0.5c-0.2-0.3-0.5-0.7-0.7-1c-0.1-0.2-0.2-0.4-0.1-0.5c0-0.1,0.1-0.1,0.2-0.2c0.2,0,0.2,0.2,0.4,0.4
				c0.2,0.2,0.5,0.3,0.8,0.2h3.8c0.1,0,0.1,0,0.2,0c0.3,0.1,0.7,0.1,1,0h5.4c0.2,0,0.5,0.1,0.7,0h4.7c0.2,0,0.4,0,0.5,0.2
				c0,0.2-0.2,0.1-0.4,0.1h-16.2c-0.1,0-0.4-0.1-0.4,0.1c0,0.2,0.2,0.3,0.5,0.3l2.8,0.1c0.1,0,0.2,0,0.3,0c-0.1,0.2-0.3,0.2-0.4,0.2
				h-2c-0.3,0-0.5,0.2-0.3,0.5C121,27.3,121.4,27.9,121.8,28.4C121.8,28.4,121.8,28.4,121.8,28.4z"/>
			<path id="_Path_5" class="st0" d="M116.3,28.5c-0.2-0.1-0.4-0.1-0.5-0.1h-9.8c-0.1,0-0.3,0.1-0.4-0.1c-0.1-0.1,0.1-0.2,0.2-0.3
				c0.4-0.6,0.7-1.2,1.1-1.8c0.1,0,0.3,0,0.4,0c2.4,0,4.7,0,7.1,0c0.5-0.1,0.9,0.2,1,0.7c0.1-0.1,0.1-0.1,0.1-0.2
				c0-0.2,0.1-0.4,0.4-0.3c0.2,0.1,0.3,0.4,0.3,0.6c-0.1,0.4-0.1,0.8,0.1,1.1C116.4,28.3,116.4,28.4,116.3,28.5z"/>
			<path id="_Path_6" class="st0" d="M123.2,38.6h0.6h10.8c0.1,0.2,0,0.3-0.2,0.3c-0.3,0.1-0.6,0.1-0.9,0.1
				c-0.7-0.1-1.4,0.1-1.9,0.6c-0.3,0.3-0.6,0.5-1,0.6c-0.1,0-0.2,0.1-0.2,0.2s0.1,0.1,0.2,0.1c0.1,0,0.2,0,0.4,0c1.5,0,3,0,4.4,0
				c0.2,0,0.5,0,0.7,0.1c0,0.2,0,0.2-0.2,0.2l-3.7,0.1l-9.8,0.1c-0.2,0-0.4,0.1-0.5,0.3c-0.1,0.1-0.1,0.3-0.3,0.4
				c0-0.4,0-0.8,0.1-1.2c0-0.1,0.1-0.3,0.1-0.4c0-0.1,0.1-0.2,0.2-0.2c0.1,0,0.2,0.1,0.2,0.2c0,0.1,0,0,0,0c0.1,0.7,0.1,0.7,0.8,0.7
				h-0.3c-0.1,0-0.2,0-0.3-0.1c0-0.4,0.3-0.8,0.4-1.1c0.2-0.2,0.2-0.5,0.2-0.7C122.8,38.5,122.9,38.4,123.2,38.6z"/>
			<path id="_Path_7" class="st0" d="M108.8,37.4c0,0.1,0.1,0.1,0.1,0.2c0.2,0.1,0.2,0.3,0.1,0.5c-0.1,0.2-0.1,0.4-0.1,0.5
				c0,0.4,0,0.7,0,1.1c0,0.2,0.1,0.3,0.2,0.4c0.2,0.1,0.3,0,0.4-0.2c0.1-0.1,0.3-0.2,0.5-0.3c0.3-0.1,0.5-0.3,0.5-0.5
				c0-0.5,0.1-1,0.3-1.4c0.2-0.5,0.4-1,0.8-1.5c0-0.1,0.1-0.1,0.1-0.2c0.5-0.7,1.1-1.2,1.7-1.6c0.6-0.4,1.2-0.7,1.8-0.9
				c0.1,0,0.2,0,0.4,0h0.3c0.1,0,0.2,0.1,0.3,0.1c0.1,0,0.2,0.2,0.2,0.4c-0.1,0.2-0.1,0.5,0.1,0.7c0.1,0.1,0.1,0.2,0.1,0.3
				c0,0.2-0.2,0.2-0.3,0.2c-0.4,0-0.8,0.2-1.2,0.3c-0.2,0-0.3-0.1-0.4-0.1c-0.2,0-0.2-0.2-0.2-0.3c0-0.5-0.1-0.5-0.5-0.3
				c-0.3,0.1-0.5,0.3-0.7,0.5c-0.5,0.4-0.7,1-0.5,1.6c-0.1,0.4-0.4,0.7-0.8,0.9c-0.2,0-0.2-0.2-0.2-0.3c0-0.1,0-0.2-0.1-0.2
				c-0.1,0.3-0.1,0.7,0,1c-0.1,0.2-0.1,0.5-0.5,0.5s-0.1,0.1-0.1,0.2c0.1,0.2,0.1,0.5,0.2,0.7c0.1,0.4,0.4,0.7,0.6,1
				c0,0.1,0,0.1,0,0.2c0.1,0.5,0.1,0.5-0.3,0.7s-0.6,0.5-1,0.7c-0.2,0.1-0.1,0.2,0.1,0.3c0.3,0.2,0.7,0.4,1.1,0.6
				c0.1,0,0.3,0.1,0.4,0.2c0.2,0,0.4,0.1,0.6,0.1c0.2,0,0.3,0.1,0.3,0.3c-0.1,0.1-0.1,0.2-0.2,0.3c-0.3,0.1-0.6-0.1-0.9-0.2
				c-0.5-0.1-0.5-0.1-0.7,0.3s-0.2,0.4-0.5,0.4c-0.2-0.1-0.5-0.2-0.6-0.4c0.1-0.2,0.4-0.3,0.4-0.6c0-0.3-0.1-0.6-0.4-0.7
				c-0.2-0.1-0.4-0.3-0.6-0.5c0-0.1-0.1-0.1-0.2-0.1c-0.1,0-0.1,0.1-0.1,0.2c0,0.4,0.3,0.8,0.6,1c0.1,0.1,0.2,0.2,0,0.4
				c-0.7-0.4-1.2-1-1.4-1.7c-0.1-0.2-0.2-0.4-0.2-0.7c0-0.2-0.2-0.4-0.5-0.4H97.8c-0.1,0-0.3,0.1-0.4-0.1c0.1-0.1,0.2-0.2,0.3-0.2
				c0.6-0.1,1.2-0.1,1.8-0.1c0.3,0,0.6,0,0.8,0c0.3,0.1,0.7,0.1,1,0h5c0.3,0,0.7-0.1,1-0.2c0.3-0.1,0.5-0.3,0.5-0.6
				c0-0.2,0.1-0.3,0.3-0.3c0,0,0.1,0,0.1,0c0.2,0,0.2,0.2,0.2,0.4c0,0.2,0,0.4,0.2,0.5c0,0.2,0,0.4,0.1,0.5c-0.1-0.3,0-0.7-0.2-1
				c0-0.1,0-0.1-0.1-0.2c-0.1-0.6-0.2-0.7-0.8-0.7c-0.7,0-1.4,0-2.1,0c-0.7-0.1-1.3-0.2-2-0.1c-1.4,0.1-2.8,0-4.2,0
				c-0.2,0-0.5,0.1-0.6-0.2c0.1-0.2,0.3-0.1,0.4-0.1h9c0.2,0,0.5,0.2,0.5-0.2s-0.3-0.2-0.4-0.2l-11.3,0h-0.9c-0.1,0-0.3,0.1-0.3-0.1
				c0-0.1,0.1-0.1,0.2-0.1c0.2-0.1,0.5-0.1,0.7-0.1c1,0,1.9,0,2.9,0c0.8,0.2,1.7,0.2,2.5,0c0.6,0,1.1,0,1.7,0c0.6,0,0.9-0.1,1.4-0.1
				h0.3c0.6,0.2,1.2,0.2,1.8,0.2h0.9c0.3,0,0.5,0,0.5-0.4c0-0.1,0.1-0.2,0.2-0.2C108.7,37.4,108.8,37.4,108.8,37.4z"/>
			<path id="_Path_8" class="st0" d="M123.8,37c1.4,0,2.8,0,4.2,0l8.4,0.1c0.1,0,0.3-0.1,0.4,0.1c-0.1,0.1-0.3,0.2-0.4,0.2
				c-0.3,0-0.6,0-0.8,0c-0.4,0-0.7,0.1-1,0.3c-0.1,0-0.2,0.1-0.2,0.2s0.1,0.1,0.2,0.1h1.7c0.2,0,0.4,0,0.5,0.2s-0.2,0.2-0.4,0.2H131
				h-7.6c-0.1-0.1,0-0.2,0-0.2c0.1-0.2,0.1-0.4,0.1-0.6C123.5,37.2,123.6,37,123.8,37z"/>
			<path id="_Path_9" class="st0" d="M103.6,31.2c0.2-0.1,0.3-0.2,0.4-0.3c0.2-0.3,0.5-0.4,0.8-0.4c2.8,0,5.7,0,8.5,0
				c0.9,0,1.8,0,2.8,0.1c0.2,0,0.4-0.1,0.4,0.1c0,0.2-0.2,0.2-0.3,0.3c-0.6,0.3-1.2,0.6-1.8,0.9c-0.2,0.1-0.4,0.3-0.7,0.4
				c-0.2,0.1-0.4,0.2-0.6,0.3c-0.1,0.1-0.2,0.1-0.3,0.1h-4.1c0,0-0.1,0-0.1,0c-0.1-0.2-0.1-0.4,0.2-0.4c0.4,0,0.7,0,1.1,0
				c0.4,0,0.9-0.1,1.3-0.4c0.6-0.3,1.1-0.7,1.7-1c0.2-0.1,0.3-0.1,0.5-0.1c-0.9,0.1-1.9,0.1-2.8,0.1c-0.6,0.1-1.2,0.2-1.8,0.3
				c-0.2,0.1-0.4,0.1-0.6,0.1c-0.4,0-0.7,0.2-1,0.2c-0.8,0.2-1.6,0.1-2.3,0.3c-0.3,0.1-0.7,0.1-1,0c-0.1,0-0.2-0.1-0.3-0.2
				C103.3,31.5,103.4,31.3,103.6,31.2z"/>
			<path id="_Path_10" class="st0" d="M113,43.5c0-0.1,0.1-0.1,0.2-0.2c0.1-0.2,0.3-0.2,0.5-0.2c0.6,0,1.1,0,1.6-0.1
				c0.1,0,0.3-0.1,0.4-0.2c1-0.7,2.2-1.3,3.2-2c0.4-0.2,0.8-0.4,1.1-0.6c0.8-0.4,1.6-1,2.2-1.6c0.1-0.1,0.1-0.1,0.2-0.1
				c0,0,0.1,0,0.1,0.1c0.1,0.2,0,0.4-0.1,0.6c-0.2,0.4-0.3,0.9-0.3,1.3c0.1,0.2,0.3,0.1,0.4,0.1c0.6,0,1.2,0,1.8,0.1h-2.3
				c-0.2,0-0.2-0.1-0.3-0.3c0-0.2,0-0.4-0.1-0.6c-0.2,0.6-0.2,1.1-0.4,1.6c0,0.2-0.2,0.3-0.3,0.4c0,0-0.1,0-0.2,0c0-0.2,0-0.5,0-0.7
				c0-0.1,0.1-0.2-0.1-0.2c-0.4,0.2-0.6,0.6-0.5,1.1c0,0.1,0.1,0.2,0.1,0.3c-0.1,0.2-0.3,0.3-0.5,0.3c-0.2,0.1-0.3,0-0.3-0.2
				s0-0.2,0-0.3s-0.1-0.2-0.3-0.1s-0.6,0.3-0.8,0.5c-0.2,0.1-0.3,0.3-0.3,0.5c0,0.3-0.1,0.6-0.3,0.8c-0.4,0.2-0.8,0.4-1.2,0.4
				c-0.4,0-0.5-0.2-0.4-0.6c0-0.2-0.1-0.3-0.3-0.3s-0.6-0.1-0.9,0.2c-0.3,0.3-0.2,0.4-0.2,0.6c0,0.2,0,0.5-0.3,0.6c-0.5,0-1,0-1.4,0
				c-0.1,0-0.3,0-0.2-0.2C113.4,44.3,113.4,43.8,113,43.5C113.1,43.5,113.1,43.5,113,43.5z"/>
			<path id="_Path_11" class="st0" d="M123.6,33c0.2,0.1,0.4,0.1,0.6,0.1h12c0.5,0,0.5,0,0.5,0.5s0,0.6-0.6,0.6
				c-3.9,0-7.9-0.1-11.8,0c-0.2,0-0.4-0.1-0.5,0.1c-0.1,0.2-0.1,0.5,0.3,0.5c2.5,0,5.1,0,7.6,0c0.3,0,0.5,0.1,0.6,0.4
				c0.2,0.3,0.4,0.6,0.6,0.9c0.1,0.2,0.2,0.3-0.2,0.3c-2,0-4,0.2-6,0.2c0-0.3,0.2-0.3,0.3-0.3c0.3,0,0.7,0,1,0c0.5,0,1-0.1,1.4-0.1
				c0.5-0.1,1-0.3,1.4-0.7c0.1-0.1,0.2-0.1,0.1-0.2c0-0.1-0.2-0.1-0.3-0.1H125c-0.2,0-0.3,0-0.5,0s-0.2,0-0.4,0
				c-0.4,0-0.5-0.1-0.5-0.5c0-0.4,0.1-0.6,0.4-0.6c2.2,0,4.3,0,6.5,0c0.3,0,0.6-0.1,0.8-0.3c-1,0-2-0.2-3-0.2c-1.2,0-2.4,0-3.6,0
				c-0.3,0-0.5,0-0.8,0c-0.1,0-0.3,0-0.4-0.1C123.6,33.2,123.6,33.1,123.6,33C123.6,33,123.6,33,123.6,33z"/>
			<path id="_Path_12" class="st0" d="M126.6,32.4c-1,0-2,0-3,0c-0.2,0-0.4-0.2-0.6-0.2c-0.2-0.2-0.3-0.4-0.3-0.6
				c-0.1-0.3-0.2-0.6-0.3-0.9c0-0.1,0-0.1,0.1-0.1c2.2,0,4.4,0,6.6,0c0.5,0,0.5,0.4,0.7,0.6c0.1,0.2,0.1,0.5-0.1,0.7
				c-0.3,0.5-0.8,0.4-1.2,0.4C127.8,32.2,127.2,32.3,126.6,32.4z"/>
			<path id="_Path_13" class="st0" d="M124.6,34.8h7.1c0.1,0,0.2,0,0.2,0.1s0,0.1-0.1,0.1c-0.4,0.1-0.6,0.5-0.9,0.8
				c-0.2,0.2-0.4,0.3-0.7,0.4c-0.8,0.2-1.7,0.2-2.5,0.2c-0.2,0-0.4,0-0.6,0.1c-1.1,0-2.1,0.2-3.2,0.2c-0.1-0.1-0.1-0.2-0.1-0.3
				c0.1-0.3,0.2-0.6,0.5-0.8c0.1-0.1,0.2-0.2,0.2-0.3C124.3,35.1,124.4,34.9,124.6,34.8z"/>
			<path id="_Path_14" class="st0" d="M104.1,29.9c-1.9,0-3.8,0-5.8,0l-2.7-0.1c-0.1-1-0.1-1,0.9-1h19.4c0.2,0,0.5,0.1,0.4-0.3
				c0.3,0,0.2,0.2,0.2,0.3c0,0.2-0.1,0.3-0.3,0.3c-0.2,0-0.3,0-0.5,0c-1.9,0-3.8,0-5.7,0c-0.4-0.1-0.8-0.1-1.2,0c-1.3,0-2.5,0-3.8,0
				c-0.4,0-0.7,0-0.8,0.5C104.2,29.8,104.1,29.8,104.1,29.9z"/>
			<path id="_Path_15" class="st0" d="M92.7,52.4c0.1-0.7,0.4-1.3,0.6-1.9c0.1-0.2,0.2-0.4,0.2-0.7c0.2-0.3,0.2-0.7,0.3-1
				c0.1-0.5,0.3-0.9,0.5-1.3c0.3,0,0.3,0.2,0.3,0.4c0,0.4,0.3,0.6,0.7,0.4c0.3-0.1,0.6-0.1,0.8,0c0.1,0,0.2,0.2,0.3,0.1
				c0.1-0.1,0-0.2,0-0.3c-0.1-0.5-0.3-0.9-0.4-1.4c0-0.2,0-0.3,0.2-0.4c0.2,0.4,0.4,0.8,0.5,1.3c0.5,1.3,0.9,2.6,1.3,3.9
				c0,0.1,0,0.2,0,0.2c-0.1,0.1-0.2,0.1-0.3,0.1c0,0-0.1,0-0.1-0.1c-0.2-0.4-0.5-0.5-0.9-0.5c-0.1,0-0.2,0-0.3,0c-0.1,0-0.1,0-0.2,0
				c-0.1,0-0.2-0.1-0.3-0.2c-0.2-0.3-0.4-0.6-0.4-0.9c-0.1-0.2-0.1-0.4-0.2-0.6c-0.2,0.6-0.4,1.2-0.7,1.8c-0.1,0.1-0.2-0.1-0.4,0
				h-0.8c-0.2,0-0.3,0.1-0.4,0.3c0,0,0,0,0,0c0,0.2-0.1,0.3-0.2,0.5C93.1,52.2,92.9,52.4,92.7,52.4z"/>
			<path id="_Path_16" class="st0" d="M110.3,34.5c0,0.1,0,0.2-0.1,0.2c-0.4,0.4-0.7,0.9-0.9,1.5c-0.1,0.2-0.3,0.4-0.5,0.3
				c-0.8-0.1-1.6-0.2-2.4-0.1c-1.2,0.1-2.5,0.2-3.7,0.1c0-0.3,0.2-0.3,0.3-0.3c0.4,0,0.8,0,1.2,0c0.2,0,0.3,0,0.4-0.2
				c0-0.1,0.1-0.2,0.2-0.3c0.5-0.3,0.9-0.7,1.1-0.8c-0.9,0.1-1.9,0.1-2.8,0c-0.4,0-0.7,0-1.1,0c-0.2,0-0.4,0-0.6-0.2
				c0.1-0.1,0.2-0.1,0.3-0.1L110.3,34.5z"/>
			<path id="_Path_17" class="st0" d="M137.8,47c0.2,0.1,0.2,0.3,0.2,0.5c0.4,1.2,0.8,2.3,1.2,3.5c0,0.1,0,0.2,0,0.3
				c0,0.1-0.1,0.1-0.1,0.1c-0.4-0.1-0.8-0.1-1.3-0.1c-0.2,0-0.3-0.1-0.4-0.2c-0.1,0-0.2-0.3-0.2-0.4c-0.1-0.4-0.3-0.9-0.3-1.4
				c-0.1,0.6-0.3,1.2-0.5,1.8c0,0.1-0.1,0.1-0.1,0.1c-0.1,0-0.2,0-0.4,0h-0.1c-0.1,0-0.3,0-0.4,0c-0.4,0-0.7,0-0.8,0.4
				c0,0.1-0.1,0.1-0.2,0.1c0,0-0.1,0-0.2,0c0.4-1.1,0.8-2.2,1.1-3.4c0.1-0.3,0.2-0.7,0.4-1.1c0-0.1,0.1-0.1,0.1-0.2
				c0.2-0.1,0.3,0.1,0.3,0.2s-0.1,0.4-0.2,0.6c0,0.2-0.1,0.2,0,0.3c0.1,0.1,0.2,0,0.3,0c0.3-0.1,0.7-0.2,1-0.1c0.1,0,0.2,0,0.3,0
				c0.3-0.1,0.3-0.2,0.2-0.4c-0.1-0.3-0.2-0.3-0.3-0.5c-0.1-0.2-0.1-0.3,0.1-0.4C137.7,46.9,137.8,46.9,137.8,47z"/>
			<path id="_Path_18" class="st0" d="M122,29.5c0-0.2-0.2-0.4-0.1-0.7h2.1c0.1,0.1,0.3,0.1,0.5,0.1c2,0,4.1,0,6.1,0
				c0.7,0,1.5,0.1,2.2,0.2c0.1,0,0.2,0,0.3,0c0.2,0.1,0.2,0.2,0.2,0.4c0,0.1-0.1,0.1-0.2,0.2c-0.2,0.1-0.4,0.1-0.6,0.1
				c-3.2,0.2-6.5,0.1-9.7,0.1c0,0-0.1,0-0.2,0C122.3,30,122.1,29.9,122,29.5z"/>
			<path id="_Path_19" class="st0" d="M122,29.5c0.3,0.3,0.7,0.4,1.1,0.4c1.5,0,3,0,4.5,0c1.1,0,2.1,0,3.2-0.1c0.7,0,1.3-0.2,2-0.2
				c0.1,0,0.3,0,0.3-0.2s-0.2-0.2-0.3-0.2c-0.5-0.1-0.9-0.2-1.4-0.2c-2.3,0-4.6,0-6.9,0c-0.2,0-0.4,0.1-0.5-0.1c2.2,0,4.4,0,6.6,0
				c1.9,0,3.8,0.1,5.8,0.1c0.3,0,0.4,0.1,0.4,0.4s0.1,0.5-0.4,0.5c-2.8,0-5.6,0-8.4,0h-5.1c-0.1,0-0.4-0.1-0.4,0.1s0.2,0.4,0.4,0.4
				h4.2c0.7,0,1.4,0,2,0c0.2,0,0.4,0.1,0.5,0.3c0.2,0.4,0.5,0.9,0.8,1.3c0.1,0.2,0.1,0.3-0.2,0.3h-3.6c0.2-0.2,0.5-0.2,0.8-0.2
				c0.6,0,1.1-0.2,1.6-0.2c0.2,0,0.6-0.5,0.5-0.7c0-0.2-0.2-0.5-0.6-0.5c-0.1,0-0.2,0-0.2-0.1c0.1-0.1,0.3,0,0.4-0.1h-6.8
				c-0.1,0-0.2-0.1-0.2-0.2c0,0,0,0,0,0c-0.1-0.2-0.1-0.3-0.2-0.5C121.8,29.8,121.8,29.7,122,29.5L122,29.5z"/>
			<path id="_Path_20" class="st0" d="M120.9,17.3l0.7-0.4c0.1-0.1,0.2-0.1,0.2-0.3c0.1-0.1,0.2-0.1,0.3-0.1
				c0.2-0.2,0.4-0.3,0.7-0.5c0.2-0.1,0.3-0.3,0.4-0.5c0.1-0.2,0.3-0.2,0.4-0.1c0.5,0.6,1,1.3,1.3,2c0.1,0.3-0.1,0.7-0.5,0.8
				c-0.2,0.1-0.3,0.2-0.5,0.3c-0.2,0.1-0.4,0.2-0.5,0.1c-0.2-0.1-0.2-0.2-0.3-0.4c-0.1-0.2-0.3-0.3-0.4-0.2c0,0,0,0-0.1,0
				c-0.7,0.4-1.5,0.7-2.2,1c-0.5,0.1-1,0.2-1.5,0.4c-0.2,0.1-0.5,0.2-0.7,0.1c-0.2-0.3-0.1-0.6,0.2-0.7c0.2,0,0.4-0.1,0.5-0.3
				c0.1-0.1,0.2-0.2,0.3-0.2c0.2,0,0.5-0.2,0.6-0.4c0.1-0.2,0.4-0.4,0.6-0.4C120.6,17.6,120.9,17.6,120.9,17.3z"/>
			<path id="_Path_21" class="st0" d="M126.9,52.9v-1.8c0.1-0.3,0.2-0.3,0.5-0.3c0.5,0,0.6-0.1,0.6-0.6c0-0.5,0-0.9,0-1.4
				c-0.3,0.1-0.5-0.1-0.8-0.1c-0.3,0.1-0.2-0.1-0.2-0.3v-0.8c0-0.1,0-0.2-0.1-0.3c0.1-0.5,0.4-0.9,0.9-1c0.9-0.1,1.9-0.2,2.8-0.1
				c0.5,0,1.1,0.2,1.5,0.5c0.3,0.2,0.4,0.5,0.3,0.9c-0.1,0.4-0.6,0.5-1,0.2c-0.1-0.1-0.2-0.1-0.3-0.2c-0.1-0.1-0.2-0.2-0.3-0.1
				c-0.7-0.1-1.5-0.1-2.2,0c-0.3,0-0.4,0.1-0.4,0.4c0.1,0.9,0.1,1.7,0,2.6c0,0.2,0,0.4,0,0.6c-0.2,0.2-0.4,0.2-0.6,0.2
				c-0.2,0-0.4,0.1-0.4,0.4c0,0.2,0.1,0.3,0.2,0.3c0.1,0.1,0.3,0,0.3-0.1c0.1-0.1,0.2-0.2,0.3-0.2c0.2,0.1,0.1,0.2,0.1,0.4
				c0,0.4,0,0.8,0.1,1.2c0.1,0.2,0.1,0.4-0.2,0.4C127.2,54,127.1,53.9,126.9,52.9z"/>
			<path id="_Path_22" class="st0" d="M106.3,47.3c0.1-0.5,0.5-0.9,1-1c0.8-0.2,1.7-0.2,2.6-0.1c0.4-0.1,0.8,0,1.1,0.1
				c0.4,0.1,0.7,0.3,0.9,0.6c0.1,0.3,0.1,0.7,0.2,1c0,0.3-0.1,0.5-0.4,0.6c-0.3,0.1-0.6-0.1-0.8-0.3c-0.1-0.3-0.3-0.3-0.5-0.3
				c-0.6-0.3-1.3-0.4-1.9-0.2c-0.3,0-0.5,0.3-0.5,0.7c0,0.9,0,1.7,0,2.6c0,0.6,0,1.2,0,1.9c0,0.2,0,0.4-0.2,0.5c-0.1,0-0.1,0-0.2,0
				c-0.1-0.1-0.1-0.3-0.1-0.4c0-0.7,0-1.3-0.1-2c-0.1-0.7-0.1-1.4-0.1-2.1c0-0.5,0-0.5-0.5-0.3h-0.1c-0.3,0.1-0.4,0-0.4-0.3
				C106.4,48,106.3,47.6,106.3,47.3z"/>
			<path id="_Path_23" class="st0" d="M136,40.6c-0.1,0.1-0.3,0.1-0.5,0.1h-5.1c-0.2,0-0.6,0.1-0.6-0.2s0.3-0.2,0.5-0.3
				c0.5-0.3,1-0.6,1.5-1c0.3-0.2,0.6-0.3,0.9-0.3c0.4,0,0.8,0,1.2,0c0.2,0,0.5,0,0.7-0.2c0.2,0,0.4,0.1,0.5,0.3
				C135.4,39.5,135.7,40.1,136,40.6z"/>
			<path id="_Path_24" class="st0" d="M124.1,26.2h2.2c0.2,0,0.4,0.1,0.4,0.3c0.3,0.5,0.7,1,1,1.5c0.2,0.3,0.1,0.4-0.2,0.4l-1.8,0.1
				h-2.6c-0.2-0.1-0.5,0-0.7-0.1s-0.3,0-0.4-0.2s0.1-0.3,0.3-0.3c0.4-0.1,0.7-0.3,0.9-0.6c0.1-0.2,0.3-0.3,0.5-0.3
				c0.3,0,0.5-0.2,0.7-0.4C124.3,26.4,124,26.5,124.1,26.2z"/>
			<path id="_Path_25" class="st0" d="M101.5,34.6c0.7-0.1,1.3,0,2,0.1c0.1,0,0.3,0,0.4,0h2.6c0.1,0,0.3,0,0.4,0.1
				c-0.1,0.2-0.3,0.1-0.4,0.1c-0.2,0-0.4-0.1-0.5,0.3c0,0.2-0.2,0.2-0.3,0.2c-0.2,0.1-0.4,0.2-0.6,0.3c-0.2,0.1-0.4,0.3-0.1,0.7
				h-1.8c-0.2,0-0.4,0-0.5,0.1h-2.4c0-0.2,0.2-0.4,0.3-0.6C100.8,35.5,101.2,35,101.5,34.6z"/>
			<path id="_Path_26" class="st0" d="M100.3,40.6c-0.8,0-1.7,0-2.5,0c0,0-0.1,0-0.1,0s-0.1-0.2,0-0.3c0.1-0.1,0.1-0.2,0.2-0.3
				c0.2-0.4,0.5-0.9,0.8-1.2h7c0,0.2-0.1,0.2-0.2,0.2c-0.3,0.1-0.7,0.1-1,0.1c-0.4-0.1-0.8,0-1.1,0.2c-0.1,0.1-0.2,0.1-0.4,0.2
				c-0.2,0-0.4,0.1-0.5,0.3c-0.1,0.1-0.2,0.1-0.3,0.2c-0.3,0.1-0.6,0.2-0.8,0.5C101,40.6,100.6,40.5,100.3,40.6z"/>
			<path id="_Path_27" class="st0" d="M99.6,47.2c0-0.2,0-0.3,0-0.5c0-0.6,0-0.6,0.5-0.6c1.3,0,2.6,0,3.8,0.1c0.5,0,0.9,0.2,1.2,0.6
				c0,0.2,0.1,0.4,0.2,0.6c0.1,0.2,0.2,0.4,0,0.6c-0.3,0.1-0.7,0.1-1-0.1c-0.1,0-0.2-0.1-0.2-0.1c-0.3-0.2-0.7-0.3-1-0.2
				c-0.5,0-1.1,0-1.6,0c-0.1,0-0.2,0-0.3,0.1c-0.1,0-0.1,0.1-0.2,0.1c0,0-0.1,0-0.1,0.1c-0.1,0.2-0.3,0.4-0.6,0.3
				c-0.3-0.1-0.5-0.3-0.6-0.7C99.8,47.4,99.7,47.2,99.6,47.2z"/>
			<path id="_Path_28" class="st0" d="M118.2,54.4c-0.2,0.4-0.6,0.4-1,0.5c-0.4,0.1-0.8,0-1.1,0c-0.3-0.2-0.6,0-1-0.1
				c0.3,0.1,0.7-0.1,1,0.1c-0.4,0.1-0.9,0.1-1.3,0c-0.6,0-1.2,0-1.8,0c-0.2,0-0.4-0.1-0.4-0.3c0-2.8,0-5.5,0-8.3c0,0,0-0.1,0.1-0.1
				c0.2,0.1,0.1,0.3,0.1,0.5c0,0.8,0,1.7,0,2.5s0.1,1.6,0,2.5c0,0.8,0,1.8-0.1,2.6c0,0.1,0,0.2,0,0.4c0,0.1,0,0.1,0.1,0.1s0.1,0,0,0
				l0,0c-0.2-0.3,0-0.7-0.1-1c0-0.1,0.1-0.3,0.2-0.3c0.3,0,0.7-0.1,1-0.2c0.1,0,0.2,0.1,0.3,0.1c0.9,0.1,1.7,0,2.6-0.1
				c0.2,0.1,0.5,0.2,0.8,0.1c0.1,0,0.2,0,0.2,0c0.5,0,0.6,0.1,0.6,0.6C118.4,54.2,118.4,54.3,118.2,54.4z"/>
			<path id="_Path_29" class="st0" d="M128.2,51.1c0-1.1,0.1-2.2,0-3.3c0-0.2,0.1-0.3,0.3-0.4s0.2,0,0.2,0.1
				c-0.2,0.1-0.3,0.4-0.3,0.7c0,1.6,0,3.2,0,4.8c0,0.2,0,0.3,0.1,0.5c0.3,0.3,0.6,0.2,0.9,0.3c0.4,0,0.7,0,1.1-0.1
				c0.3-0.1,0.5-0.2,0.7-0.4c0.4-0.1,0.7,0.1,1.1,0c0.2-0.1,0.3,0,0.3,0.3c0,0.3-0.1,0.3,0,0.4c-0.2,0.7-0.8,0.8-1.4,0.9
				c-0.1,0-0.2,0-0.3,0c-0.5,0-0.9,0-1.4,0c-0.3-0.1-0.6-0.1-0.8,0c-0.5,0-1.1-0.2-1.5-0.5c-0.1-0.2-0.2-0.3-0.3-0.5v-1
				c0,0,0,0.1,0,0.1c0.2,0.7,0.6,0.8,1.3,0.5c0.2-0.1,0-0.2,0-0.2c0-0.3,0-0.7,0-1c0-0.2,0-0.5-0.1-0.7
				C128,51.4,128.1,51.2,128.2,51.1z"/>
			<path id="_Path_30" class="st0" d="M105.3,48c0-0.2,0-0.5-0.1-0.7c-0.1-0.1-0.2-0.3,0-0.4c0.3,0.2,0.5,0.6,0.4,1
				c0,0.7,0,1.5,0,2.2c0,0.3-0.1,0.6-0.3,0.9c-0.1,0.1-0.2,0.3-0.4,0.3c-0.3-0.1-0.7-0.1-1-0.1h-4c-0.1,0-0.2,0-0.3,0v-1.8
				c0.2-0.2,0.4-0.4,0.7-0.1c0.3,0.3,0.3,0.1,0.4-0.1c0-0.1,0.1-0.3,0.1-0.4c0-0.2,0.1-0.3,0.4-0.3c0.1,0.3,0.2,0.7,0.1,1
				c0,0.7,0,0.7,0.8,0.8c0.6,0.1,1.2-0.1,1.8-0.4c0.3,0,0.2-0.2,0.2-0.4s0-0.4,0-0.5s0-0.3,0.2-0.3c0.2,0,0.2,0.1,0.2,0.2
				c0,0.1,0,0.2,0.1,0.3c0.1,0.1,0.2,0.2,0.4,0.2c0.2,0,0.2-0.1,0.2-0.3c0-0.1,0-0.5,0-0.7S105.2,48,105.3,48z"/>
			<path id="_Path_31" class="st0" d="M124,47.4c0.2,0.7,0.4,1.3,0.6,2c0.1,0.5,0.3,0.9,0.5,1.3c0,0.1,0.1,0.2,0.1,0.3
				c0,0-0.1,0.1-0.1,0.1c0,0-0.1,0-0.1,0c-0.3,0-0.6-0.2-1-0.1c-0.1,0-0.2,0-0.3,0.1c0,0-0.1,0.1-0.1,0.1h-0.1
				c-0.1-0.2-0.2-0.4-0.3-0.7c-0.1-0.6-0.4-1.1-0.5-1.6c-0.1,0.1-0.1,0.3-0.1,0.4c0,0.6-1,1-1.5,0.8c-0.2-0.1-0.3-0.3-0.2-0.5
				c0-0.1,0-0.3,0.1-0.4c0-0.1,0-0.3,0.1-0.4c0-0.3,0.1-0.5,0.2-0.8c0.2-0.2,0.3-0.1,0.4,0.1c0.1,0.1,0.4,0.3,0.7,0.1s0.5-0.3,0.8,0
				c0.1,0.1,0.3,0.1,0.4,0c0.1-0.1,0.2-0.2,0.1-0.4c0-0.1,0-0.2,0-0.3C123.7,47.4,123.8,47.3,124,47.4z"/>
			<path id="_Path_32" class="st0" d="M124.1,26.2c0.1,0.2,0.3,0.1,0.5,0.1s0.3,0.1,0.1,0.2c-0.2,0.2-0.5,0.6-1,0.6
				c-0.1,0-0.1,0-0.2,0.1c-0.2,0.2-0.3,0.5-0.5,0.6l-0.7,0.3c0.2,0.3,0.7,0,0.9,0.4h-1.4c-0.2,0.1-0.3,0-0.5-0.2
				c-0.3-0.6-0.6-1.1-1-1.6c-0.2-0.3-0.1-0.4,0.2-0.4c0.3,0,0.7,0,1,0L124.1,26.2L124.1,26.2z"/>
			<path id="_Path_33" class="st0" d="M136.8,20.4c0,1,0,1-1,1h-6.9c-0.1-0.3,0.1-0.3,0.3-0.3c0.2,0,0.5,0,0.8,0
				c0.2,0,0.4,0,0.5-0.1c0.2-0.3,0.5-0.4,0.9-0.4c-0.1,0-0.2,0-0.4,0c-0.1,0-0.3,0-0.2-0.2c0.2,0,0.4,0,0.6,0h5.1
				C136.5,20.4,136.6,20.4,136.8,20.4z"/>
			<path id="_Path_34" class="st0" d="M131.4,60.3c-0.3,0.7-0.9,1.2-1.6,1.4c-1.5,0.5-3.1-0.2-3.6-1.7c0-0.1-0.1-0.2-0.1-0.3
				c0.1,0,0.1-0.1,0.1-0.2c0-0.3,0.1-0.3,0.4-0.3c0.3,0.1,0.6-0.1,0.7-0.3c0.2,0,0.3,0.1,0.3,0.3c0,0.2,0.1,0.4,0.2,0.6
				c0.3,0.7,1,1,1.7,0.7c0.1-0.1,0.3-0.1,0.4-0.3c0.1-0.1,0.1-0.2,0.3-0.2c0.3,0.2,0.7,0.2,1,0.1C131.2,60.1,131.4,60.2,131.4,60.3
				C131.4,60.3,131.4,60.3,131.4,60.3z"/>
			<path id="_Path_35" class="st0" d="M111.8,54.1c0,0.1-0.1,0.2-0.1,0.2c-0.2,0.3-0.5,0.5-0.9,0.5l-0.6,0.1c-0.4,0-0.7,0-1.1,0
				c-0.4,0-0.9,0-1.3,0c-0.5-0.1-1-0.2-1.4-0.6c-0.2-0.1-0.2-0.3-0.2-0.5c0-0.4,0-0.8,0-1.1c0.2-0.1,0.3,0.1,0.3,0.2
				c0,0.2,0.2,0.4,0.5,0.4c0,0,0.1,0,0.1,0c0.1,0,0.3,0,0.4,0c0.1,0.1,0.3,0.1,0.4,0c0.3,0,0.6,0.1,0.8,0.2c0.1,0,0.2,0.1,0.2,0.2
				c0,0.1-0.1,0.1-0.2,0.1c0.5-0.1,0.9,0.1,1.4-0.2c0.4-0.1,0.8-0.2,1.3-0.2C111.9,53.4,112,53.5,111.8,54.1
				C111.8,54.1,111.8,54.1,111.8,54.1z"/>
			<path id="_Path_36" class="st0" d="M99.3,34.3h-2c-0.1-0.1-0.2-0.1-0.3-0.2c-0.1,0-0.2-0.1-0.2-0.3c0-0.1,0.1-0.2,0.2-0.3
				c0.1,0,0.3,0,0.4,0c0.3,0.1,0.7,0,0.9-0.3c0.1-0.2,0.4-0.3,0.6-0.3c0.5,0,1.1-0.1,1.6-0.2c1.2,0,2.4,0,3.5,0c0.2,0,0.3,0,0.5,0
				c0.1,0.2-0.2,0.2-0.2,0.3c-0.1,0.1-0.3,0.1-0.4,0.1c-0.3-0.2-0.8-0.1-1.1-0.1h0.7c0.2,0,0.3,0,0.3,0.2c0,0.2-0.1,0.3-0.2,0.3
				c-0.2,0.1-0.4,0.1-0.5,0.1c0.5,0.2,0.5,0.2,0.4,0.4c-0.5,0.1-1.1,0-1.6,0c-0.9,0.1-1.7,0.1-2.6,0C99.3,34.1,99.4,34.2,99.3,34.3z
				"/>
			<path id="_Path_37" class="st0" d="M99.4,38.1h-3.7c-0.1-0.2-0.1-0.4-0.1-0.6c0-0.2,0-0.3-0.1-0.5c0.3-0.1,0.6-0.1,0.8-0.1l0.5,0
				c1.7,0,3.4,0,5.1,0c0.1,0,0.3,0.1,0.3,0.2c0,0.1-0.1,0.3-0.2,0.3c0,0-0.1,0-0.1,0c-0.6,0.7-1.4,0.4-2.1,0.5
				C99.7,38,99.6,38,99.4,38.1z"/>
			<path id="_Path_38" class="st0" d="M137.8,51.1c0.4-0.2,0.8,0,1.2-0.1c0.2,0,0.1,0.2,0.2,0.3s0.2,0.4,0.3,0.5
				c0.1,0.2,0,0.2,0.2,0.3v0.1c-0.2,0.5-0.3,0.5-0.8,0.4c-1-0.2-2.1-0.2-3.2-0.1c-0.2,0-0.4,0.1-0.5,0.1c-0.7,0.1-1.1-0.2-1-0.9h0.2
				c0.2-0.8,0.3-0.7,0.9-0.7c0.2,0,0.5,0,0.7,0.1c0.2,0.4,0.5,0.4,0.9,0.4c0.2,0,0.3,0,0.5,0C137.5,51.5,137.7,51.3,137.8,51.1z"/>
			<path id="_Path_39" class="st0" d="M116.1,27c-0.1-0.2-0.2-0.4-0.3-0.5c-0.3,0-0.3,0-0.3,0.4c0,0.3,0,0.3-0.2,0.3
				c-0.3-0.7-0.8-0.8-1.5-0.8c-2.3,0.1-4.6,0-6.9,0c0.2-0.1,0.3,0,0.5,0h7.3c0-0.4-0.3-0.5-0.6-0.4h-10.8H96c-0.1,0-0.3,0.1-0.4-0.1
				c0.1-0.1,0.2-0.1,0.4-0.1h6.1c0.1,0,0.3,0,0.4,0.1h11.3c0.1,0,0.3,0,0.4-0.1c0.1-0.2-0.1-0.2,0-0.3c0.3-0.3,0.3-0.7,0.1-1
				c-0.1-0.2-0.3-0.3-0.1-0.6c0.3,0.2,0.6,0.5,0.7,0.9c0.3,0.3,0.5,0.7,0.7,1c0.3,0.6,0.6,1.1,1,1.6c0.2,0.4,0.4,0.8,0.7,1.1
				c0.1,0.1,0.2,0.3,0,0.4c0,0.1-0.1,0.1-0.1,0.1c-0.3,0-0.3-0.3-0.4-0.4c-0.2-0.3-0.4-0.6-0.6-1C116.1,27.2,116,27.1,116.1,27z"/>
			<path id="_Path_40" class="st0" d="M92.7,52.4c0.1-0.1,0.2-0.3,0.3-0.5c0,0,0,0,0.1,0c0.4,0.4,1,0.2,1.5,0.2
				c0.4,0.1,0.8,0.1,1.2,0.1c0.2,0,0.4,0,0.6-0.1c0.3-0.1,0.7-0.1,1,0c0.3,0,0.5,0,0.7-0.2c0.1-0.1,0.2-0.1,0.3,0c0,0,0,0,0,0
				c0,0.2,0.2,0.2,0.2,0.4c0,0.2,0,0.4,0.1,0.6c0.2,0.5,0.2,0.6-0.4,0.8c-0.1,0-0.2,0.1-0.4,0.1c-0.2,0-0.3,0.1-0.3,0.3
				s0,0.3-0.3,0.3c-0.1-0.4-0.3-0.9-0.4-1.4c0-0.2-0.2-0.3-0.4-0.3h-1.9c-0.2,0-0.3,0.1-0.3,0.2c0,0,0,0,0,0c0,0.3-0.1,0.5-0.3,0.8
				c-0.3,0.1-0.7,0.2-1,0.1c-0.2,0-0.3,0-0.5,0.2s-0.2,0-0.3-0.1c0.1-0.4,0.2-0.8,0.4-1.1C92.5,52.6,92.5,52.4,92.7,52.4z"/>
			<path id="_Path_41" class="st0" d="M98.2,51.9C98.2,51.9,98.2,51.9,98.2,51.9c-0.4,0.7-1,0.4-1.5,0.4c-0.1,0-0.2,0-0.4,0
				c-0.6,0.1-1.2,0.2-1.8,0.1c-0.3-0.1-0.7-0.1-1,0c-0.3,0.1-0.5,0-0.6-0.5c0.1-0.2,0.2-0.3,0.2-0.5c0-0.2,0.1-0.4,0.4-0.3
				c0.3,0.1,0.7,0,1,0.1c0.1,0.2,0.4,0.3,0.6,0.3c0.2,0,0.5,0,0.7,0c0.3,0.1,0.5-0.1,0.7-0.3h0.5c0.4,0,0.8,0,0.9,0.5
				C98,51.7,98.1,51.8,98.2,51.9L98.2,51.9z"/>
			<path id="_Path_42" class="st0" d="M102.5,60.4c0,0.4-0.2,0.8-0.5,1c-0.2,0.2-0.4,0.3-0.7,0.3c-0.1,0.1-0.3,0.2-0.5,0.2
				c-0.2,0-0.5,0-0.7,0c-0.4,0-0.8-0.1-1.2-0.3c-0.2-0.1-0.4-0.3-0.5-0.6c-0.1-0.1-0.1-0.3-0.1-0.4c0.1-0.1,0.1-0.3,0.2-0.2
				c0.4,0.1,0.4-0.3,0.5-0.5c0.1-0.2,0-0.3,0.1-0.5c0.1-0.2,0.1-0.1,0.2-0.1c0,0.3,0,0.7,0.1,1c0.3,0.6,1,0.8,1.6,0.4
				c0.1,0,0.1-0.1,0.1-0.1c0.2-0.2,0.3-0.5,0.2-0.8c0-1.2,0-2.5,0-3.8c0-0.1-0.1-0.3,0.1-0.4c0.1,0.1,0.1,0.3,0.1,0.4
				c0,1.2,0.1,2.3,0.1,3.5c0,0.1,0,0.2,0.1,0.4c0,0.1,0.1,0.2,0.3,0.2C102.5,59.9,102.5,60.2,102.5,60.4z"/>
			<path id="_Path_43" class="st0" d="M124,47.4c-0.2,0.1-0.2,0.2-0.2,0.4c0.1,0.2,0.1,0.5-0.1,0.6c0,0,0,0,0,0
				c-0.2,0.2-0.5,0.1-0.7-0.1c0,0,0,0,0,0c-0.1-0.2-0.2-0.2-0.4,0c-0.1,0.1-0.2,0.1-0.2,0.2c-0.2,0.2-0.5,0.2-0.7,0
				c0-0.1-0.1-0.1-0.1-0.2c0-0.1-0.1-0.2-0.2-0.2c-0.1,0,0-0.1,0-0.2l0,0c0.1-0.3,0.2-0.6,0.3-0.9c0-0.3,0.1-0.5,0.3-0.7
				c0.3-0.4,0.8-0.2,1.3-0.2c0.2,0,0.4,0.1,0.5,0.3c0,0,0,0,0,0C123.7,46.8,123.8,47.1,124,47.4z"/>
			<path id="_Path_44" class="st0" d="M136.7,25.4h-5.2c-0.1-0.1-0.4-0.1-0.4-0.4c0-0.1-0.1-0.1-0.2-0.1c-0.2,0-0.4-0.1-0.6-0.1
				h-3.9c-0.3,0-0.7,0-1,0c-1.4,0.1-2.8,0-4.1,0c-0.2,0-0.5,0.1-0.6-0.2c0-0.1,0.1-0.1,0.2-0.1H136
				C136.8,24.6,136.8,24.6,136.7,25.4z"/>
			<path id="_Path_45" class="st0" d="M120.8,60.4c0,0.3,0,0.6,0,0.9c0,0.1-0.1,0.3-0.2,0.3c-0.3,0-0.5,0.2-0.8,0.2
				c-0.6,0.1-1.3,0-1.9-0.1c-0.2-0.1-0.5-0.2-0.7-0.3c-0.3-0.2-0.5-0.4-0.7-0.7c-0.1-0.1-0.1-0.2-0.1-0.3c0-0.2,0.2-0.3,0.4-0.3
				c0,0,0,0,0.1,0c0.2,0.1,0.4,0,0.4-0.2s0-0.3,0.2-0.3c0.1,0.4,0.3,0.8,0.7,1c0.5,0.2,1,0.3,1.5,0.2c0.2,0,0.1-0.2,0.1-0.3
				c0-0.4,0-0.8,0-1.3c0-0.2,0.1-0.3,0.3-0.3c0.2,0,0.5-0.1,0.7,0.1c-0.1,0.1-0.2,0.2-0.3,0.2c-0.1,0-0.2,0.1-0.3,0.2
				c-0.1,0.3-0.1,0.7,0,1c0,0.2,0.2,0.2,0.3,0.1S120.7,60.3,120.8,60.4z"/>
			<path id="_Path_46" class="st0" d="M110.6,60.3c0.4,0.4,1,0.6,1.6,0.5c0.5-0.1,0.9-0.2,1.3-0.5c0.3-0.2,0.3,0,0.3,0.1
				c0.2,0.8-0.1,1.1-0.9,1.2c-0.5,0.1-1.1,0.1-1.7,0.1c-1-0.1-1.8-0.6-2.2-1.5c0.1-0.2,0.3-0.2,0.5,0c0.2,0.2,0.4,0.4,0.6,0
				C110.3,60.1,110.4,60.3,110.6,60.3z"/>
			<path id="_Path_47" class="st0" d="M102.1,37.1h-4.5c-0.2,0-0.5,0-0.7-0.1c0.1-0.1,0.2-0.1,0.3-0.1h11.6c0.2,0.1,0,0.3,0,0.5
				c-0.3,0.2-0.1,0.6-0.2,0.9c-0.1-0.1-0.3-0.2-0.5-0.2c-0.5,0-0.9,0-1.4,0c-0.5,0-0.9,0-1.4-0.2c-0.1-0.2,0-0.2,0.2-0.3
				s0.3-0.1,0.3-0.3c0-0.2-0.2-0.1-0.4-0.1h-2.6C102.6,37.3,102.3,37.2,102.1,37.1z"/>
			<path id="_Path_48" class="st0" d="M137.8,47c-0.1,0-0.2-0.2-0.2,0c0,0.1,0,0.3,0.2,0.4c0.2,0.2,0.4,0.8,0.2,0.9
				c-0.2,0.1-0.6,0.3-0.8,0.2c-0.4-0.3-0.7,0-1,0.1c-0.2,0-0.3,0.2-0.4,0c-0.1-0.2-0.1-0.3-0.1-0.5c0.1-0.2,0.1-0.4,0.2-0.5
				c0.1-0.2,0.1-0.3-0.1-0.4c0-0.3,0.1-0.5,0.2-0.8c0-0.1,0.1-0.2,0.2-0.2c0.4,0,0.8,0,1.1,0S137.8,46.5,137.8,47z"/>
			<path id="_Path_49" class="st0" d="M96.3,46.3c-0.2,0.2,0,0.4,0,0.6c0.1,0.5,0.2,0.9,0.4,1.4c0,0.1,0.1,0.2,0,0.3
				c-0.1,0.1-0.3,0-0.4,0c-0.1,0-0.2-0.1-0.2-0.2c-0.2-0.2-0.5-0.2-0.7,0c-0.3,0.2-0.6,0-0.8-0.1c-0.3-0.1-0.1-0.3-0.1-0.4
				c0-0.2,0-0.3-0.1-0.5c0.1-0.4,0.2-0.8,0.3-1.1c0-0.1,0.1-0.2,0.1-0.2C95.3,46.1,95.8,46.1,96.3,46.3z"/>
			<path id="_Path_50" class="st0" d="M112,20.3c-0.1,0.1-0.2,0.1-0.3,0.1c-1.5-0.1-3,0.1-4.5,0.1c-2.9-0.1-5.9,0-8.9-0.1
				c-0.1,0-0.3,0-0.4,0c0.5,0.1,1.1,0,1.7,0.1c-0.2,0.1-0.4,0.2-0.7,0.2c-0.2,0-0.3,0-0.4,0.2c0,0.2-0.2,0.3-0.5,0.3h-2.1
				c-0.2,0-0.3,0-0.4,0.2c-0.2-0.3-0.1-1,0.1-1.1c0.8,0.1,1.5,0,2.3,0h13.5L112,20.3z"/>
			<path id="_Path_51" class="st0" d="M106.8,59.5c0.2,0.6,0.1,1.3-0.4,1.8c-0.3,0.3-0.8,0.5-1.2,0.6c-0.4,0-0.7,0-1.1,0
				c-0.3,0-0.5-0.1-0.8-0.2c-0.3-0.1-0.3-0.3-0.3-0.5c0-0.8,0-0.8,0.8-0.5c0.3,0.1,0.7,0.2,1.1,0.2c0.3,0,0.5-0.1,0.6-0.3
				c0.1-0.3,0.1-0.6-0.1-0.8c0.1-0.1,0.2-0.1,0.2,0c0.1,0,0,0.2,0.1,0.2c0.1,0,0.2,0,0.3,0.1c0.2,0.2,0.4,0.1,0.5-0.2
				C106.6,59.7,106.6,59.5,106.8,59.5z"/>
			<path id="_Path_52" class="st0" d="M103.3,31.6c0.9,0.1,1.8-0.2,2.8-0.2c0.3,0,0.6-0.2,0.9-0.1c0.2-0.1,0.5-0.1,0.7-0.1
				c0.1,0,0.2,0,0.3,0.1c0,0.1,0,0.2-0.1,0.3c-0.1,0.1-0.3,0.2-0.5,0.3c-0.4,0.1-0.7,0.2-0.8,0.6c0,0-0.1,0.1-0.1,0.1
				c-1.1,0-2.2,0-3.3,0c-0.2,0-0.4,0-0.3-0.2L103.3,31.6z"/>
			<path id="_Path_53" class="st0" d="M109.8,56c0.3-0.4,0.8-0.6,1.3-0.6c0.7-0.1,1.5,0,2.2,0.1c0.2,0,0.4,0.1,0.5,0.3
				c0.1,0.3,0.1,0.6-0.1,0.9c-0.1,0.1-0.2,0.1-0.3,0c-0.7-0.3-1.6-0.4-2.4-0.3c-0.3,0.1-0.7,0.2-1.1,0.2c-0.1,0-0.3,0-0.3-0.2
				c-0.1-0.1-0.1-0.2,0-0.3C109.8,56.2,109.8,56.1,109.8,56z"/>
			<path id="_Path_54" class="st0" d="M121.7,59.9c-0.1-1.3,0-2.7,0-4c0-0.2,0.1-0.4,0.3-0.3c0.7,0,1.3,0,2,0c0.5,0,0.9,0.2,1.2,0.6
				c0.1,0.1,0.1,0.2,0.1,0.3c0.1,0.5-0.2,0.7-0.7,0.6c-0.3-0.1-0.5-0.1-0.8-0.2c-0.2-0.1-0.5-0.1-0.8,0c-0.1,0.1-0.1,0.3-0.1,0.4
				c0,0.1,0,0.1-0.1,0.2c0,0-0.1,0-0.2,0c-0.4,0-0.2-0.5-0.5-0.5c-0.3,0-0.5-0.2-0.5-0.5c0,0,0,0,0-0.1v-0.1
				c0.1,0.9,0.1,1.8,0.1,2.7c0,0.3,0.1,0.6-0.1,0.8C121.8,59.9,121.7,60,121.7,59.9C121.7,59.9,121.7,59.9,121.7,59.9z"/>
			<path id="_Path_55" class="st0" d="M116.9,56.2c0.1-0.3,0.3-0.4,0.5-0.5c0.4-0.2,0.8-0.3,1.2-0.3c0.4,0,0.7,0,1.1,0
				c0.2,0,0.3,0,0.4,0.1l-0.1,0.1h0.1c0.6,0,0.6,0,0.6,0.6c0,0.6,0,0.6-0.6,0.5c-0.3-0.1-0.6-0.2-0.9-0.2c-0.1-0.1-0.3-0.1-0.4,0
				c-0.4,0-0.8,0.2-1.1,0.5c0,0-0.1,0.1-0.1,0c0-0.2-0.1-0.1-0.2-0.1c-0.2,0.1-0.5,0-0.7-0.2C116.5,56.5,116.8,56.4,116.9,56.2z"/>
			<path id="_Path_56" class="st0" d="M137.4,55.7c0.2-0.1,0.5-0.1,0.7-0.1c0.7-0.1,1.3,0,2,0.1c0.4,0.1,0.7,0.4,0.9,0.7
				c-0.1,0.3-0.4,0.6-0.7,0.6c-0.2,0-0.3,0.2-0.5,0.1c-0.2-0.1-0.3-0.2-0.5-0.2c-0.4-0.1-0.6,0.1-0.7,0.5c0,0.2,0,0.4,0,0.7
				c0,0.2,0,0.3-0.1,0.4c-0.1,0.1-0.2,0-0.3,0l-0.1-0.1c-0.1-0.3-0.1-0.6-0.1-0.8c0-0.2,0-0.4-0.3-0.4c-0.3,0-0.5-0.3-0.4-0.6
				c0,0,0,0,0,0C137.3,56.2,137.3,55.9,137.4,55.7z"/>
			<path id="_Path_57" class="st0" d="M133.3,60.2l0.3,0.4c0.5,0.4,1.2,0.3,1.6-0.1c0.1,0,0.1-0.1,0.2-0.1c0.1,0,0.1,0,0.2,0
				c0.2,0.1,0.3,0.1,0.5-0.1s0.3-0.2,0.4,0.1c0,0.5-0.2,0.9-0.6,1.1c-0.3,0.3-0.7,0.4-1.1,0.4c-0.5,0-1,0-1.4-0.1
				c-0.7-0.2-1.1-0.8-1.2-1.5c0.1-0.2,0.2-0.2,0.4,0c0.1,0.2,0.1,0.1,0.1,0.2c0.2,0.3,0.4,0.3,0.6,0
				C133.2,60.4,133.2,60.3,133.3,60.2C133.3,60.2,133.3,60.2,133.3,60.2z"/>
			<path id="_Path_58" class="st0" d="M93.3,59.5c0-0.2-0.2-0.3-0.1-0.4s0.1-0.2,0.2-0.1c0.4,0.1,0.7-0.1,1,0
				c0.1,0.2,0.1,0.4,0.1,0.6c0,0.2,0.1,0.2,0.2,0.1c0.1-0.1,0-0.4,0.1-0.7c0,0,0.1-0.1,0.1-0.1c0.2,0,0.4,0.1,0.5,0.2
				c0.2,0,0.3,0.2,0.3,0.3c-0.2,0.6-0.5,1.2-0.7,1.8c0,0.1-0.1,0.1-0.2,0.1h-0.4c-0.5,0-0.5,0-0.7-0.5
				C93.7,60.3,93.5,59.9,93.3,59.5z"/>
			<path id="_Path_59" class="st0" d="M130.9,47.5c0-0.2,0.1-0.2,0.3-0.1c0.1,0.1,0.2,0.2,0.3,0.2c0.3,0.2,0.6,0.2,0.8,0
				c0.2-0.3,0.1-0.6-0.2-0.8c-0.4-0.3-0.9-0.4-1.4-0.5c-0.6,0-1.1,0-1.7,0c-0.1,0-0.2,0-0.3,0c-0.2,0.1-0.5,0.1-0.7,0
				c0.1-0.2,0.3-0.1,0.4-0.2c0.3-0.2,0.7,0,1-0.1c0.8-0.1,1.6,0,2.4,0.3c0.7,0.2,1.2,0.8,1.1,1.6c0,0.3,0,0.6,0,0.9
				s-0.1,0.3-0.3,0.3c-0.2,0-0.7,0-1.1,0c-0.1,0-0.2,0-0.2-0.2s0-0.5,0-0.7C131.3,47.9,131.2,47.6,130.9,47.5z"/>
			<path id="_Path_60" class="st0" d="M100.4,32.8c-0.5,0.1-1,0.2-1.4,0.2c-0.2,0-0.4,0.1-0.5,0.3c-0.3,0.3-0.6,0.6-1.1,0.4
				c-0.1,0-0.2,0-0.3,0c-0.1,0-0.2,0.1,0,0.2c0.1,0.1,0.2,0.2,0.3,0.3l-1.5,0c-0.2,0-0.2-0.1-0.2-0.2c0-0.4,0-0.8,0-1.2
				c0.1-0.1,0.2-0.1,0.3-0.1c1.4,0,2.8,0,4.1,0C100.2,32.8,100.3,32.7,100.4,32.8z"/>
			<path id="_Path_61" class="st0" d="M126.1,61.1c0.3,0.6,0.3,0.5-0.4,0.6c-0.5,0.1-1.1-0.2-1.3-0.7c-0.3-0.5-0.7-0.9-1-1.5
				c0,0,0-0.1,0-0.1c0-0.3,0.2-0.3,0.4-0.3c0.3,0.1,0.6-0.1,0.7-0.4c0.1-0.2,0.2-0.3,0.5-0.1l-0.2,0.2c-0.1,0.1-0.1,0.4,0,0.5
				c0.3,0.3,0.5,0.7,0.8,1C125.8,60.5,125.9,60.8,126.1,61.1z"/>
			<path id="_Path_62" class="st0" d="M132.3,58.4c-0.5-0.8-0.2-1.6-0.3-2.4c0-0.2,0.1-0.3,0.3-0.3c1.2,0,1-0.2,1,0.9
				c0,1.1,0,2.4,0,3.6l0,0c0,0.1,0,0.2-0.2,0.2c-0.1,0-0.2-0.1-0.2-0.2c0-0.1,0-0.2,0-0.3c0-0.3,0-0.5,0.1-0.8
				c0-0.4-0.1-0.5-0.5-0.5C132.4,58.5,132.3,58.5,132.3,58.4z"/>
			<path id="_Path_63" class="st0" d="M125,58.6c-0.2,0-0.3,0.2-0.4,0.4c-0.1,0.3-0.3,0.4-0.6,0.3c-0.2-0.1-0.4,0-0.5,0.1
				c0,0,0,0-0.1,0c-0.2-0.1-0.3-0.2-0.4,0.1v0.1c-0.1,0.4-0.1,0.4-0.5,0.2s-0.4,0-0.4,0.2c0,0.2,0,0.7,0,1.1c0,0.1,0,0.2,0,0.2
				s0,0.3-0.2,0.3c-0.2,0-0.1-0.2-0.1-0.3c0-0.5,0-0.9,0-1.4v-4.1h0.1v0.7c0.1,0.4,0.2,0.7,0.2,1.1c0,0.2,0,0.3,0.2,0.4
				c0.2,0,0.3-0.1,0.4-0.3c0-0.1,0-0.3,0.2-0.3h0.1c0.2,0.1,0.1,0.3,0.3,0.5c0.1,0.1,0.3,0.1,0.5,0.1h0.2c0,0,0.1,0,0.2,0
				c0.3,0.2,0.5,0,0.8,0s0.4,0.1,0.3,0.4C125.1,58.4,125.1,58.5,125,58.6C125.1,58.5,125,58.6,125,58.6L125,58.6z"/>
			<path id="_Path_64" class="st0" d="M138.2,58.2L138.2,58.2c0.1,0.1,0.1,0.1,0.2,0.2c0.1,0,0.1,0,0.1,0c0,0,0-0.1,0-0.1
				c0.2-0.2,0.6-0.3,0.9-0.3c0.1,0.1,0.3,0.1,0.4,0.1c0.2,0,0.4,0,0.6,0c0.3,0,0.4,0.1,0.3,0.5l-0.1,0.2c-0.3,0.3-0.6,0.5-1,0.6
				c-0.4-0.1-0.7,0.2-1.1,0.2c-0.1,0.1-0.1,0.2-0.1,0.3v1.5c0,0.1,0.1,0.2-0.1,0.3c-0.2,0.1-0.2-0.2-0.2-0.3c0-0.4-0.1-0.8-0.1-1.2
				c0-0.4-0.1-0.5-0.4-0.5c-0.2,0-0.3-0.2-0.3-0.3v-0.6c0-0.5,0.2-0.6,0.7-0.5C138.1,58.1,138.2,58.2,138.2,58.2z"/>
			<path id="_Path_65" class="st0" d="M112.8,46.7v-0.5c0.2-0.1,0.4-0.1,0.5-0.1c1.1,0,2.3,0,3.4,0c0.6-0.1,1.1,0.1,1.6,0.5
				c0.1,0.1,0,0.2-0.1,0.2c-0.1,0.1-0.3,0.1-0.4,0c-0.4-0.1-0.7-0.2-1.1-0.2c-0.9,0-1.9,0-2.9,0c-0.1,0-0.3,0-0.4,0.1
				c-0.2,0.1-0.2,0.2-0.2,0.4c0,0.1,0.1,0.3,0.2,0.3c0.1,0.1,0.3,0,0.4-0.1c0.2-0.3,0.5-0.3,0.9-0.3c0.6,0,1.2,0,1.8,0
				c0.2,0,0.4,0,0.4,0.3c-0.1,0.1-0.3,0.1-0.4,0.1H115c-0.2,0-0.4,0-0.5,0.1l-0.1,0.1c0,0.1-0.1,0.2-0.2,0.4l-0.1,0.1
				c-0.1,0.1-0.1,0.2-0.2,0.3c-0.1,0.3-0.3,0.4-0.6,0.4c-0.3,0-0.5-0.1-0.5-0.5c0-0.3-0.1-0.3-0.1-0.5
				C112.8,47.4,112.8,47,112.8,46.7z"/>
			<path id="_Path_66" class="st0" d="M106.3,47.3c0.2,0.2,0.1,0.5,0.1,0.8c0,0.4,0,0.4,0.4,0.3c0.2-0.1,0.6,0,0.6-0.4h0.1v2.9
				c0,0,0,0,0,0.1l0,0c-0.1,0.2-0.2,0.1-0.3,0.1c-0.2,0-0.5,0-0.7,0.1c0,0-0.1,0-0.1,0c-0.1,0-0.1,0-0.1-0.1L106.3,47.3z"/>
			<path id="_Path_67" class="st0" d="M118.2,46.8l0.1-0.2c0.3,0.2,0.4,0.6,0.4,0.9v5.7c0.1,0.4-0.1,0.9-0.4,1.2l0.2-0.5
				c0.1-0.1,0.1-0.2,0.1-0.3c-0.1-0.5-0.1-1,0-1.5c0-0.3,0-0.6-0.2-0.8c-0.1-0.2-0.3-0.3-0.4-0.2c-0.2,0-0.3,0-0.5,0
				c-0.1-0.1-0.1-0.2-0.1-0.3c0-0.4,0-0.9,0-1.3c0-0.3,0.1-0.4,0.4-0.4c0.3,0,0.5-0.1,0.5-0.4c0,0,0,0,0,0c0.1-0.4,0-0.7,0.1-1.1
				c0-0.1-0.1-0.2-0.2-0.3C118.1,47.2,118,47,118.2,46.8z"/>
			<path id="_Path_68" class="st0" d="M99.6,52.5c0-0.4,0-0.7,0-1.1c0.1-0.3,0.3-0.4,0.6-0.4h4.2c0.2,0,0.3-0.1,0.5,0.1
				c0.1,0.2-0.1,0.2-0.2,0.2c-0.1,0-0.1,0-0.2-0.1c-0.2,0.2-0.6,0.3-0.9,0.3c-0.8,0-1.5,0-2.3,0c-0.2,0-0.3,0.1-0.4,0.3
				c0,0.3-0.2,0.6-0.6,0.5S99.8,52.6,99.6,52.5z"/>
			<path id="_Path_69" class="st0" d="M126.9,47.3c0.2,0.2,0.1,0.6,0.1,0.8c0,0.3,0,0.5,0.4,0.4h0.1c0.4,0.1,0.4,0.1,0.5-0.3
				c0.1,0.1,0.1,0.2,0.1,0.3c0,0.7,0,1.5,0,2.2c0,0.3-0.1,0.4-0.4,0.4c-0.3-0.1-0.6,0-0.8,0.1L126.9,47.3z"/>
			<path id="_Path_70" class="st0" d="M130.7,20.5h1.2c-0.2,0.2-0.5,0.3-0.8,0.3c-0.1,0-0.3,0.1-0.4,0.2c-0.2,0.3-0.5,0.3-0.9,0.3
				c-0.3,0-0.7-0.1-1,0.1h-1.5c0,0-0.1,0-0.1,0c-0.1-0.1-0.1-0.2-0.1-0.3c0-0.2,0-0.3-0.1-0.5c0-0.1,0-0.1,0.1-0.2
				c0.1,0,0.1,0,0.2,0c0.9,0.1,1.9,0,2.8,0C130.2,20.5,130.5,20.4,130.7,20.5z"/>
			<path id="_Path_71" class="st0" d="M113,43.5c0.3,0,0.5,0.1,0.6,0.4c0,0.4-0.1,0.7-0.4,0.9h1.5c0.1,0,0.2,0,0.2,0c0,0,0,0,0,0.1
				c-1.1,0.2-2.2,0.1-3.3-0.3c-0.3-0.1-0.5-0.2-0.7-0.4c0.3-0.1,0.4-0.3,0.4-0.6c0.1-0.5,0.1-0.5,0.6-0.4L113,43.5z"/>
			<path id="_Path_72" class="st0" d="M103.1,56.7c0.1-0.5,0.5-0.9,1-1c0.7,0,1.4,0,2.1,0c0.3,0,0.5,0.1,0.4,0.5c0,0.1,0,0.2,0,0.3
				c0,0.5-0.1,0.5-0.5,0.4c-0.4-0.2-0.9-0.3-1.3-0.2c-0.2,0-0.4,0.2-0.5,0.4C103.8,57.2,103.4,57.1,103.1,56.7z"/>
			<path id="_Path_73" class="st0" d="M123.4,51.3L123.4,51.3c0.2,0,0.4-0.1,0.4,0.1c0,0.1,0,0.3-0.1,0.3c0,0,0,0-0.1,0
				c-0.6,0.1-1.2,0.1-1.9,0c-0.1,0-0.2-0.1-0.2-0.2c-0.1-0.3-0.3-0.3-0.5-0.2s-0.5,0.1-0.5,0.4c0,0.1,0,0.2-0.1,0.2
				c-0.1,0.1-0.1,0.2,0,0.2c0.1,0.1,0.2,0,0.2,0c0.4-0.2,0.7,0,0.9,0.2c0,0.1,0,0.1,0,0.2c-0.3,0.3-0.4,0.6-0.5,1l0,0
				c-0.5,0.3-1.1,0.4-1.6,0.2c-0.2-0.1-0.1-0.2-0.1-0.4c0.1-0.4,0.2-0.8,0.4-1.2c0-0.3,0.1-0.5,0.2-0.7c0.1-0.2,0.2-0.5,0.2-0.7
				c0.1,0,0.2-0.1,0.2-0.1c0.4,0.1,0.9,0.1,1.3,0c0,0,0.1,0,0.1,0c0.2,0.2,0.5,0.4,0.8,0.3C123,51.1,123.3,51,123.4,51.3z"/>
			<path id="_Path_74" class="st0" d="M99.6,52.5c0.1,0,0.1-0.1,0.1-0.2c0-0.3,0.2-0.2,0.3-0.1c0.5,0.3,0.7,0.2,0.8-0.4
				c0-0.2,0.1-0.2,0.3-0.2c0.6,0,1.2,0,1.9,0c0.5,0,1-0.1,1.4-0.3c-0.2,0.4-0.5,0.3-0.8,0.3c-0.8,0-1.7,0-2.5,0
				c-0.1,0.1-0.1,0.2-0.1,0.3c0,0.8,0,1.7,0,2.5c0,0.2-0.1,0.4-0.3,0.3c-0.4,0-0.8,0-1.2-0.1l0,0c0-0.5,0-1,0-1.5L99.6,52.5z"/>
			<path id="_Path_75" class="st0" d="M128,55.5c0.8-0.2,1.7-0.1,2.3,0.3c0.1,0.1,0.2,0.2,0.2,0.2c0.1,0.1,0.2,0.3,0.1,0.5
				c-0.1,0.1-0.3,0.2-0.4,0.2c-0.4-0.1-0.8,0-1.2,0h-0.5c-0.3,0-0.7,0-1,0.1c-0.2,0.1-0.4,0-0.5-0.2c-0.1-0.1-0.1-0.3,0-0.4
				c0,0,0,0,0,0c0.2-0.3,0.5-0.5,0.8-0.6C128,55.7,128,55.6,128,55.5z"/>
			<path id="_Path_76" class="st0" d="M92,58.3v-1.8c0.2-0.1,0.2,0,0.3,0.1c0.2,0.2,0.5,0.2,0.7,0c0,0,0.1-0.1,0.1-0.2
				c0.1-0.1,0.2-0.3,0.3-0.2c0.2,0.6,0.4,1.2,0.6,1.8c0,0.3-0.1,0.4-0.3,0.4h-0.2c-0.5,0-0.5,0-0.7-0.5c0.1,0.2,0.1,0.4-0.1,0.5
				C92.5,58.5,92.2,58.5,92,58.3z"/>
			<path id="_Path_77" class="st0" d="M109.8,56c0.1,0.2-0.2,0.4,0.1,0.5s0.4,0,0.6,0h0.6c-0.2,0.2-0.5,0.2-0.6,0.5
				c-0.2,0.3-0.4,0.6-0.4,1c0,0.4,0,0.9,0.1,1.3c-0.1,0.1-0.1,0.1-0.2,0.1c-0.2-0.1-0.2-0.3-0.2-0.5c0-0.2-0.1-0.4-0.4-0.4
				c-0.3,0-0.3,0.2-0.3,0.4c0,0.2,0,0.5-0.1,0.7l-0.1,0.1c-0.1-0.7-0.1-1.4,0-2.1C108.9,57,109.3,56.4,109.8,56z"/>
			<path id="_Path_78" class="st0" d="M97.3,54.3c0.1-0.2,0.1-0.4,0-0.6c-0.1-0.2,0-0.4,0.2-0.3c0.2,0.1,0.6-0.1,0.9-0.2
				s0.2-0.2,0.1-0.3c-0.1-0.2-0.1-0.3-0.2-0.5c-0.1-0.2,0-0.2,0.1-0.3c0.2,0.7,0.4,1.4,0.7,2.1c0.2,0.7,0.3,0.6-0.4,0.6
				c-0.3,0-0.5,0-0.8,0c-0.3,0-0.5-0.1-0.5-0.5C97.3,54.4,97.3,54.4,97.3,54.3z"/>
			<path id="_Path_79" class="st0" d="M128,55.5c-0.2,0.2-0.6,0.3-0.7,0.6c-0.1,0.1-0.2,0.2-0.1,0.3c0.1,0.1,0.2,0.1,0.3,0.1
				c0.3-0.1,0.7-0.1,1-0.1c0,0.1-0.1,0.3-0.2,0.3c-0.4,0.3-0.7,0.8-0.7,1.3c0,0.2,0,0.4-0.3,0.3c-0.3,0-0.4,0-0.7,0s-0.4,0-0.5-0.2
				C126,57,126.8,55.9,128,55.5z"/>
			<path id="_Path_80" class="st0" d="M110.4,53.5c0.3-0.1,0.3-0.3,0.3-0.5c0-0.6,0-1.1,0-1.7c0-0.2,0-0.4,0.3-0.3
				c0.2,0,0.4,0,0.7,0c0.1,0,0.3,0,0.3,0.2c-0.2,0.1-0.4,0.2-0.7,0.2c-0.2,0-0.4,0.1-0.4,0.3c0,0.2,0.1,0.3,0.3,0.3c0,0,0,0,0,0
				c0.2,0,0.3-0.1,0.4-0.3s0-0.5,0.3-0.4v2.5c0.1,0.2-0.1,0.2-0.2,0.3c-0.1,0-0.1-0.1-0.1-0.2c0-0.3,0-0.4-0.4-0.3
				c-0.2,0.1-0.4,0.1-0.6,0c-0.2-0.1-0.4,0.2-0.7,0.1c-0.1,0-0.1-0.1-0.1-0.1c0-0.1,0.2-0.2,0.3-0.2
				C110.3,53.4,110.3,53.4,110.4,53.5z"/>
			<path id="_Path_81" class="st0" d="M135.7,52.4c1.1-0.1,2.3,0,3.4,0.1c0.3,0,0.4-0.3,0.6-0.3l0.4,1.1c0,0.4-0.2,0.5-0.7,0.5
				c-0.3,0-0.6-0.2-0.8-0.2c-0.3,0-0.1-0.3-0.2-0.3c-0.3-0.8-0.1-0.7-1-0.7h-1.6C135.6,52.6,135.6,52.5,135.7,52.4z"/>
			<path id="_Path_82" class="st0" d="M129.1,56.5c0.3-0.1,0.6,0.1,0.9,0c0.3-0.1,0.4,0.1,0.5,0c0.1-0.1,0-0.4-0.1-0.5
				c0,0,0-0.1,0-0.1c0.8,0.4,1.3,1.2,1.3,2.1c-0.2,0.5-0.2,0.5-1,0.4c0,0.4,0,0.7-0.1,1.1c0,0.1-0.1,0.1-0.2,0.1
				c-0.2-0.1-0.2-0.2-0.1-0.4c0-0.4,0-0.8,0-1.2c-0.1-0.5-0.4-1-0.9-1.3C129.3,56.7,129.1,56.6,129.1,56.5z"/>
			<path id="_Path_83" class="st0" d="M121.8,59.9v1.5h0.1v-1.8c0-0.2,0-0.5,0.3-0.2c0.2,0.1,0.4,0,0.5,0.2s0.1-0.2,0.2-0.2
				c0,0.6,0,1.2,0,1.8c0,0.3-0.1,0.4-0.3,0.4c-0.9,0-0.9,0-0.9-0.9c0-0.3,0-0.6,0-0.8H121.8z"/>
			<path id="_Path_84" class="st0" d="M119.9,52.2c-0.1,0.4-0.2,0.7-0.3,1.1c0,0.2,0,0.3,0.2,0.3c0.3,0.1,0.7,0,1-0.1
				c0.2-0.1,0.2,0.1,0.4,0.1l-0.4,1.2c0,0.1-0.2,0.1-0.3,0.2c-0.4,0-0.9,0-1.4,0c-0.5,0-0.2-0.3-0.1-0.4c0.1-0.2,0.2-0.5,0.2-0.7
				c0.2-0.5,0.3-0.9,0.5-1.3C119.8,52.3,119.9,52.3,119.9,52.2z"/>
			<path id="_Path_85" class="st0" d="M95.7,20.4c-0.2,0.3-0.2,0.8-0.1,1.1c0.3,0.1,0.6,0,0.9,0c4.8,0,9.7,0,14.5,0h0.8v0.1H96.2
				c-0.2-0.1-0.5,0-0.7,0.2c0-0.5,0-0.9,0-1.4C95.5,20.2,95.6,20.3,95.7,20.4z"/>
			<path id="_Path_86" class="st0" d="M120.9,24.6h-0.2c-0.2,0.1-0.3,0-0.3-0.2c0.1-0.2,0.1-0.4,0.1-0.6c0-0.2,0-0.2-0.2-0.3
				c-0.1,0-0.3,0-0.4,0.1c-0.3,0.2-0.6,0.5-0.7,0.8c0,0.1-0.1,0.2-0.2,0.2l-0.1,0.2c-0.2,0-0.2-0.1-0.2-0.3c0-0.1,0-0.2,0-0.3
				c-0.1-0.5,0.4-0.8,0.7-1c0.8-0.4,1.7-0.7,2.6-0.9c0,0,0.1,0,0.1,0s0.3,0,0.3,0.2c0,0,0,0.1,0,0.1c-0.1,0.1-0.3,0.2-0.5,0.3
				c-0.2,0.1-0.3,0.3-0.2,0.5c0,0.2,0.2,0.2,0.4,0.2c0.1,0,0.2,0,0.2,0c0.3,0,0.7,0,1,0c0.5,0,0.9,0,1.4,0h0.1
				c0.2,0.2,0.1,0.3-0.1,0.3c-0.2,0-0.6,0-0.9,0c-0.6,0-1.2-0.1-1.8,0C121.7,23.9,121.2,24.2,120.9,24.6z"/>
			<path id="_Path_87" class="st0" d="M126.4,54.9c-0.1,0.2-0.3,0.2-0.5,0.1c-0.2-0.1-0.5-0.1-0.7-0.1c-0.3,0.1-0.5-0.1-0.6-0.3
				c0,0,0-0.1,0-0.2c0-0.1-0.1-0.2-0.1-0.3s0-0.2-0.1-0.3c0-0.4,0.3-0.4,0.6-0.4c0.3,0,0.7-0.1,0.9-0.4c0.2,0.2,0.3,0.5,0.3,0.7
				C126.3,54.1,126.3,54.5,126.4,54.9z"/>
			<path id="_Path_88" class="st0" d="M97.4,56.3v1.9c-0.2,0.3-0.6,0.3-0.8,0.1c0,0,0,0-0.1-0.1c-0.1-0.2-0.2-0.1-0.2,0
				c-0.2,0.2-0.4,0.2-0.7,0.2c-0.3,0-0.3-0.2-0.3-0.5v-0.2c0.2-0.2,0.2-0.6,0.4-0.8c0.2-0.2,0-0.3,0.1-0.4c0.1-0.1,0.3,0,0.4,0.1
				c0.2,0.2,0.5,0.2,0.7,0c0.1-0.1,0.1-0.1,0.1-0.2C97.1,56.4,97.2,56.2,97.4,56.3z"/>
			<path id="_Path_89" class="st0" d="M118.1,44c-0.1-0.6,0.1-1.3,0.7-1.6c0.3-0.1,0.5-0.3,0.8-0.5s0.3-0.1,0.3,0.2
				c0,0.3-0.1,0.6,0.1,0.8C119.5,43.4,118.8,43.7,118.1,44z"/>
			<path id="_Path_90" class="st0" d="M92.1,53.8c0.1,0,0.2,0.2,0.2,0c0-0.2,0.1-0.3,0.2-0.4c0.2,0.3,0.6,0.4,0.9,0.2
				c0.2-0.1,0.3,0,0.5,0.1c0,0.3-0.1,0.7-0.2,1c-0.1,0.4-0.5,0.3-0.8,0.3c-0.2,0-0.5,0-0.7,0c-0.4,0-0.4-0.1-0.3-0.4
				C92,54.3,92,54.1,92.1,53.8z"/>
			<path id="_Path_91" class="st0" d="M135.4,60.4l-0.2,0.1c0-0.1,0-0.3,0.1-0.4c0.1-1,0.1-2,0.1-3c0-0.3,0-0.7,0-1.1
				c0-0.1-0.1-0.3,0.2-0.3c0.2,0.2,0.3,0.5,0.1,0.8c-0.1,0.2-0.1,0.5-0.1,0.7c0,0.1-0.1,0.1,0,0.1c0.1,0,0,0,0,0c0-0.1,0-0.1,0-0.2
				c0-0.2-0.1-0.4,0.1-0.5c0.2-0.1,0.5,0,0.6,0.2c-0.1-0.3-0.2-0.7,0.1-1.1c0.1,0,0.1,0.1,0.1,0.2c0,1.4,0,2.7,0,4.1
				c0,0.1,0,0.2,0,0.3c0,0-0.1,0-0.1,0c0,0,0,0,0,0c-0.1-0.3-0.2-0.6-0.2-0.9c0.1-0.2,0.1-0.4,0-0.6c0-0.1-0.1-0.3-0.3-0.3
				c0,0,0,0,0,0c-0.2,0-0.2,0.1-0.3,0.3c0,0.2,0,0.3,0,0.4c0,0.3,0,0.6-0.1,0.9C135.6,60.2,135.6,60.3,135.4,60.4z"/>
			<path id="_Path_92" class="st0" d="M135.7,52.4v0.3c-0.2,0.5-0.4,1.1-0.6,1.7c-0.2,0.1-0.3,0-0.3-0.2c0-0.2-0.1-0.3-0.3-0.3
				s-0.4-0.1-0.5-0.1c-0.2,0-0.3-0.2-0.3-0.4c0.1-0.6,0.3-1.1,0.5-1.6C134.6,52.6,134.6,52.6,135.7,52.4z"/>
			<path id="_Path_93" class="st0" d="M127.1,20.5v0.1c0.2,0.2-0.1,0.3-0.2,0.4s-0.2,0.2-0.3,0.2c-0.1,0-0.3,0.1-0.4,0.2
				c-0.3,0.1-0.6,0.2-0.9,0.4c-0.1,0.1-0.2,0.2-0.2,0.4c0,0.2,0,0.3,0.2,0.3s0.3,0,0.3,0.2c-0.3,0.2-0.7,0.2-1,0.5
				c-0.1,0.2-0.3,0.3-0.5,0.3h-0.1c-0.6-0.1-0.6-0.2-0.4-0.7c0-0.2,0.1-0.4-0.2-0.3l-0.1,0.1c-0.1,0.1-0.2,0.1-0.3,0.1
				c-0.1,0-0.2,0-0.3,0c-0.1,0-0.2-0.1-0.3-0.2c0-0.2,0.1-0.2,0.2-0.2c0.7-0.2,1.3-0.6,2-0.8c0.6-0.3,1.2-0.6,1.8-0.9
				C126.7,20.5,126.8,20.3,127.1,20.5L127.1,20.5z"/>
			<path id="_Path_94" class="st0" d="M136.7,38h-2.6c-0.1,0-0.3,0-0.3-0.1c-0.1-0.1,0.1-0.2,0.2-0.3c0.5-0.4,1.2-0.5,1.8-0.4
				c0.3,0,0.6,0,0.9,0L136.7,38z"/>
			<path id="_Path_95" class="st0" d="M102.5,60.4c-0.1-0.1-0.1-0.2-0.3,0c-0.2,0.2-0.3,0.2-0.5-0.1c-0.1-0.2-0.1-0.4-0.1-0.6v-4
				h0.7c0.1,0,0.2,0,0.2,0.2c0,0.2-0.2,0.3-0.4,0.4s-0.1,0.2-0.2,0.3c0,0.4,0,0.8,0,1.2c0,0.2,0.1,0.3,0.3,0.3
				c0.1,0,0.2,0.1,0.3,0.2L102.5,60.4z"/>
			<path id="_Path_96" class="st0" d="M101,48.5c-0.2,0.2-0.1,0.5-0.2,0.7c-0.1,0.4-0.4,0.5-0.7,0.2s-0.4-0.1-0.6-0.1v-2.2
				c0.2,0,0.3,0.1,0.3,0.2c0,0.1,0.1,0.3,0.1,0.4c0.1,0.2,0.4,0.3,0.6,0.2c0.1,0,0.1-0.1,0.2-0.2c0.1,0,0.1-0.1,0.2-0.1
				c0.2,0.2,0.1,0.4,0.2,0.7C101.2,48.4,101.1,48.5,101,48.5z"/>
			<path id="_Path_97" class="st0" d="M138.3,53.3c0.5,0.4,1.1,0.4,1.7,0.2c0,0,0.1-0.1,0.1-0.2c0.2,0.4,0.3,0.8,0.4,1.2
				c0.1,0.2,0,0.3-0.2,0.3H139c-0.1,0-0.2,0-0.3-0.2c0-0.1,0-0.2,0-0.3c0-0.2-0.1,0-0.1,0c0,0-0.2-0.1-0.2-0.2
				C138.4,53.8,138.4,53.6,138.3,53.3z"/>
			<path id="_Path_98" class="st0" d="M103.1,56.7c0.4,0.1,0.8,0,1.1,0.2c-0.1,0.5,0.3,0.7,0.7,1c0.2,0.1,0.4,0.1,0.5,0.3
				c0.1,0.2,0,0.4-0.3,0.3c-0.4-0.1-0.9-0.1-1.3,0c-0.2,0-0.2-0.1-0.3-0.2C103,57.9,102.8,57.3,103.1,56.7z"/>
			<path id="_Path_99" class="st0" d="M133.7,53.3c0,0.1,0,0.2,0.1,0.2c0.3,0,0.6,0.2,1,0.1c0.3-0.1,0.3,0,0.2,0.3
				c-0.1,0.3-0.1,0.3,0.1,0.4c-0.2,0.5-0.2,0.5-0.8,0.5h-0.9c-0.1,0-0.2,0-0.2-0.2C133.3,54.2,133.5,53.7,133.7,53.3z"/>
			<path id="_Path_100" class="st0" d="M92,58.3h0.2c0.4,0,0.6,0,0.5-0.5c0,0,0,0,0.1-0.1c0.2,0.3,0.2,0.7,0.7,0.6
				c0.2,0,0.4,0,0.5-0.2c0.2,0.3,0.3,0.6,0.3,0.9c-0.2,0.3-0.6,0.3-0.9,0.2c-0.1,0-0.2,0-0.3,0c0-0.1,0-0.3-0.1-0.4
				c-0.1-0.1-0.1-0.2-0.2-0.2c-0.1,0-0.2,0.1-0.2,0.3c0,0.5,0,1,0,1.6c-0.2,0-0.2-0.1-0.2-0.2c0-0.4-0.1-0.6-0.5-0.8
				c0,0-0.1-0.1-0.1-0.1L92,58.3z"/>
			<path id="_Path_101" class="st0" d="M138.2,58.2c-1,0-0.9-0.1-0.9,0.9v0.2c0.1,0.2,0.2,0.5,0.2,0.7v0.8c0,0.3,0.1,0.5,0.4,0.6
				c0.1,0,0.2,0.1,0.3,0.2c0.2-0.1,0.1-0.2,0.1-0.4v-1.3c0-0.2,0-0.3,0.1-0.4c0,0.6,0,1.2,0,1.9c0,0.3-0.1,0.3-0.3,0.3
				c-0.9,0-0.9,0-0.9-0.9c0.1-1.7,0.1-3.3,0.1-4.9c0-0.1,0-0.1,0.1-0.2v0.7c0,0.2,0.2,0.3,0.4,0.4c0.2,0.1,0.3,0,0.4-0.2h0.1
				L138.2,58.2z"/>
			<path id="_Path_102" class="st0" d="M116.9,56.2c0.1,0.2,0.1,0.2-0.1,0.3c0.3,0.3,0.8,0.2,1.1-0.1c0.1,0.2-0.4,0.3-0.1,0.5
				c-0.2,0.4-0.4,0.9-0.5,1.4c0,0-0.1,0.1-0.1,0.1c-0.3,0-0.7,0-1-0.1v-0.9c0.1-0.3,0.2-0.6,0.4-0.9
				C116.7,56.5,116.7,56.3,116.9,56.2z"/>
			<path id="_Path_103" class="st0" d="M96.1,58.1c0,0,0-0.1,0.1-0.1c0.1-0.1,0.1-0.4,0.2-0.4s0,0.2,0,0.4c0,0.2,0.2,0.3,0.3,0.3
				h0.5v1c-0.1,0.3-0.1,0.6-0.1,0.8c0,0.2,0,0.3-0.2,0.3c-0.2,0-0.3,0-0.3,0.2c-0.1,0.2,0,0.5,0.2,0.7c0.1,0.1,0.3,0.1,0.3,0.3
				c-0.1,0.2-0.3,0.1-0.4,0.1c-0.4,0-0.5,0-0.5-0.5v-2.3c0-0.2,0-0.4-0.1-0.6C96.2,58.2,96.2,58.1,96.1,58.1z"/>
			<path id="_Path_104" class="st0" d="M140.7,58.5c0-0.3-0.2-0.3-0.4-0.3c-0.2,0-0.6,0.2-0.9-0.1c-0.1-0.2,0.1-0.3,0.2-0.5
				s0.1-0.4,0.1-0.6c0,0,0-0.1,0.1-0.1c0.2-0.1,0.3-0.3,0.6-0.2c0.1,0,0.2,0,0.2-0.1c0-0.3,0.2-0.2,0.3-0.2l0.1,0.2
				c0.1,0.4,0.1,0.9,0,1.3C141,58.2,140.9,58.4,140.7,58.5z"/>
			<path id="_Path_105" class="st0" d="M107.4,61.6v-2.5c0.3-0.1,0.6,0,0.9,0.2v2.1c0,0.2-0.1,0.3-0.2,0.2
				C107.8,61.7,107.6,61.7,107.4,61.6z"/>
			<path id="_Path_106" class="st0" d="M125,58.5c-0.2-0.4-0.6-0.2-0.9-0.2c-0.3,0.1-0.2,0-0.2-0.2c0.1-0.1,0.1-0.3,0.1-0.5
				c0.1-0.2,0-0.4-0.1-0.6c0-0.1-0.1-0.2,0-0.3c0.2,0,0.4,0.1,0.7,0.1c0.3,0.2,0.5-0.2,0.8-0.1c0,0,0-0.2,0-0.3
				C125.7,57.2,125.5,58,125,58.5z"/>
			<path id="_Path_107" class="st0" d="M98.3,58.4v-2c0.2-0.1,0.5,0.1,0.7,0.1c0.2,0,0.1,0.3,0.1,0.4c0-0.2,0-0.4-0.1-0.6
				c-0.1-0.2,0-0.5,0.2-0.6c0.2,0,0.1,0.2,0.1,0.3c0,1,0,2,0,3c-0.2,0.1-0.2,0-0.3-0.1c0-0.4-0.2-0.5-0.6-0.4
				C98.5,58.5,98.4,58.5,98.3,58.4z"/>
			<path id="_Path_108" class="st0" d="M132.6,54c-0.1-0.4-0.4-0.6-0.8-0.4c-0.1,0.1-0.3-0.2-0.5,0c-0.2,0.2-0.1-0.1-0.1-0.2l0,0
				c0.2-0.3,0.1-0.6,0.1-0.9s0.1-0.4,0.4-0.4c0.1,0,0.2,0,0.4,0c0.2,0,0.4,0,0.6,0c0.2,0.1,0.1,0.3,0.1,0.5c0,0.1,0.1,0.1,0.1,0.1
				c0,0.1-0.1,0.2-0.1,0.3c-0.2,0.2,0,0.5-0.1,0.8L132.6,54z"/>
			<path id="_Path_109" class="st0" d="M92,59.2c0.1,0,0.2,0,0.3,0c0.5-0.2,0.4,0.1,0.4,0.5c0,0.2,0,0.4,0.1,0.6c0,0.4,0,0.8,0,1.1
				c0,0.4-0.2,0.3-0.4,0.2s-0.5,0.1-0.4-0.2C92,60.7,92,59.9,92,59.2z"/>
			<path id="_Path_110" class="st0" d="M122,50.8c-0.5,0.3-1.2,0.2-1.7-0.1c0.2-0.4,0.3-0.8,0.4-1.2c0-0.1,0.1-0.2,0.2-0.3
				c0,0.1,0,0.2,0,0.3c0,0.5,0.4,0.7,0.8,0.4c0.2-0.2,0.5-0.3,0.6-0.7c0,0,0.1,0,0.1,0c0.1,0.2,0.1,0.4,0,0.6
				c-0.1,0.2-0.2,0.5-0.3,0.7C122.2,50.8,122.2,50.9,122,50.8z"/>
			<path id="_Path_111" class="st0" d="M97.4,56.3c0,0-0.1,0.1-0.1,0.1c0,0.3-0.1,0.5-0.5,0.5c-0.4,0-0.5,0.1-0.7-0.2
				c0,0-0.1-0.1-0.2-0.1c-0.1,0.1-0.1-0.1-0.2-0.2c0-0.1,0.1-0.1,0.1-0.2c0.1-0.7,0.6-0.8,1.2-0.8c0.3,0,0.4,0.1,0.3,0.4
				S97.4,56.2,97.4,56.3z"/>
			<path id="_Path_112" class="st0" d="M103.8,58.4c0.1-0.1,0.2-0.2,0.4-0.1c0.4,0,0.7,0,1.1,0c0.2,0.1,0.1-0.1,0.1-0.2
				c0,0,0.1-0.1,0.1,0c0,0,0,0,0,0c0.1,0.1,0.2,0.2,0.4,0.3c0.3,0.2,0.5,0.4,0.7,0.7c0,0.2-0.2,0.2-0.3,0.3c-0.5,0-1-0.1-1.4-0.3
				C104.3,59,103.9,58.8,103.8,58.4z"/>
			<path id="_Path_113" class="st0" d="M96.4,58.8c0,0.8,0,1.5,0,2.2c0,0.6,0,0.6,0.7,0.5c-0.6,0.1-0.5-0.3-0.5-0.7s0-0.6,0-1
				c0.2,0.1,0.4,0.4,0.6,0.3s0.1-0.4,0.1-0.5s0-0.3,0.1-0.4c0,0.7,0,1.4,0,2.2c0,0.2,0,0.2-0.2,0.2c-1,0-0.8,0.1-0.8-0.8
				c0-0.7,0-1.4,0-2C96.3,58.8,96.3,58.8,96.4,58.8C96.4,58.8,96.4,58.8,96.4,58.8z"/>
			<path id="_Path_114" class="st0" d="M93.5,56.3l-0.1,0.2c-0.3,0.6-0.8,0.6-1.3,0.1c0,0-0.1-0.1-0.1-0.1c0-0.2,0-0.3,0-0.5
				c0-0.4,0.1-0.5,0.5-0.4c0.2,0,0.3,0,0.5,0.1C93.3,55.7,93.5,55.8,93.5,56.3z"/>
			<path id="_Path_115" class="st0" d="M106.3,51.1h0.1c0.2,0.1,0.2,0.3,0.2,0.5c0,0.2,0,0.4,0.2,0.4c0.2,0.1,0.3-0.1,0.4-0.3
				c0-0.1,0.1-0.2,0.2-0.2c0.1,0,0.1,0.1,0.1,0.2c0,0.5,0,0.9,0,1.4h0.2c0.1,0,0.1,0.1,0.1,0.2c0,0.1,0,0.1,0,0.1
				c-0.4,0-0.8,0-1.2-0.1c-0.2,0-0.2-0.2-0.2-0.4c0-0.2,0-0.3-0.1-0.4L106.3,51.1z"/>
			<path id="_Path_116" class="st0" d="M107.4,61.6c0.9,0,0.9,0,0.9-0.8v-1.6c-0.1-0.1-0.2-0.2-0.2-0.3c-0.1-0.4-0.1-0.4-0.5-0.5
				c-0.1,0-0.1,0-0.2-0.1v-1.8c0.1-0.1,0.2-0.1,0.2,0c0.1,0.1,0.3,0.2,0.4,0.1c0,0,0,0,0,0c0.2-0.1,0.1-0.2,0.1-0.4c0,0,0-0.1,0-0.1
				c0-0.2,0.1-0.4,0.2-0.5c0.1,0.1,0.1,0.2,0.1,0.3c0,1.7,0,3.5,0,5.2c0,0.3-0.1,0.5-0.4,0.4C107.7,61.7,107.6,61.8,107.4,61.6z"/>
			<path id="_Path_117" class="st0" d="M123.3,22.4L123.3,22.4c0.4-0.2,0.4,0,0.4,0.2c0,0.2-0.1,0.2-0.1,0.3c0,0.5,0.1,0.5,0.5,0.4
				l0.5-0.1c0.1,0.2,0.3,0.3,0.3,0.6l0,0c-0.1,0.1-0.3,0.1-0.5,0.1c-0.3,0-0.7,0-1,0c-0.4,0-0.7,0-1.1,0c-0.2-0.4-0.2-0.8,0.1-1.2
				l0,0c0.1-0.1,0.2,0,0.3-0.1h0.3c0.3,0.2,0.1,0.4,0.2,0.6C123.3,22.9,123.3,22.7,123.3,22.4z"/>
			<path id="_Path_118" class="st0" d="M117.4,59.6c0,0.2,0,0.4,0,0.6c-0.1,0.3-0.2,0.3-0.5,0.2c-0.2-0.1-0.3-0.2-0.5,0
				c-0.1,0-0.1,0-0.2,0c-0.1-0.3-0.2-0.5-0.2-0.8v-0.6c0,0,0.1-0.1,0.1-0.1c0.4,0.1,0.7,0,1-0.3C117.3,59,117.3,59.3,117.4,59.6z"/>
			<path id="_Path_119" class="st0" d="M133.2,59.8c0,0.1,0,0.2,0,0.4c0,0.2,0.1,0.1,0.2,0c0,0.1,0,0.3-0.1,0.4
				c-0.2,0.3-0.3,0.4-0.6,0.1c-0.2-0.3-0.4-0.2-0.3-0.5c0-0.1-0.1,0-0.2,0c-0.2-0.2-0.1-0.5-0.1-0.8c0-0.3,0.1-0.1,0.2-0.2
				c0.1-0.1,0.2-0.1,0.3-0.1c0.5-0.1,0.6,0,0.6,0.5C133.1,59.6,133.1,59.7,133.2,59.8z"/>
			<path id="_Path_120" class="st0" d="M104.7,59.1c0.4,0.1,0.9,0.1,1.3,0.1c0.1,0,0.3,0,0.4-0.2c0,0,0.1,0,0.1,0
				c0.1,0.1,0.2,0.3,0.2,0.4c0,0.2,0,0.5,0,0.7c0,0.1,0,0.1,0,0.2c0,0-0.1,0.1-0.1,0c-0.2-0.3-0.6,0.5-0.7-0.2
				c0-0.1-0.1-0.2-0.2-0.2c-0.1,0-0.1-0.1-0.1-0.2l-0.2-0.1C105.3,59.4,105,59.3,104.7,59.1C104.7,59.2,104.7,59.1,104.7,59.1z"/>
			<path id="_Path_121" class="st0" d="M102.7,32.4c0,0.2,0.2,0.1,0.3,0.1h3.4c0.1-0.1,0.2-0.1,0.3-0.1c0.4,0,0.9,0,1.3,0
				c0.1,0,0.2,0.1,0.3,0.1h4.7c0,0.1-0.1,0.1-0.1,0.2s-0.1,0-0.2,0c-2.5,0-5.1,0-7.6,0h-2c-0.1,0-0.2,0-0.3-0.1
				C102.5,32.6,102.5,32.4,102.7,32.4z"/>
			<path id="_Path_122" class="st0" d="M109.9,59.4h0.2c-0.1,0.4,0.2,0.7,0.4,0.9c-0.1,0-0.4,0-0.2,0.2c0.1,0.3-0.1,0.3-0.2,0.2
				c-0.2,0-0.4-0.1-0.6-0.3c-0.1-0.1-0.3-0.2-0.4-0.2c-0.1-0.2-0.2-0.4-0.2-0.7v-0.1c0-0.3,0.2-0.4,0.4-0.3
				C109.6,59.3,109.8,59.2,109.9,59.4z"/>
			<path id="_Path_123" class="st0" d="M120.8,60.4c0,0.3-0.2,0.4-0.6,0.3c-0.3-0.1-0.3-0.3-0.3-0.5c0-0.2,0-0.5,0-0.8
				s0.1-0.5,0.5-0.5h0.4V60.4z"/>
			<path id="_Path_124" class="st0" d="M130.4,59.6l0.1-0.1c0.1-0.1,0-0.4,0.2-0.4c0.3-0.1,0.5-0.1,0.8,0c0.2,0.1,0.1,0.3,0.2,0.5
				c0,0.3-0.1,0.6-0.3,0.8c-0.2,0-0.5,0-0.7,0.1c-0.2,0.1-0.5,0-0.7-0.2c0,0,0,0,0,0C130,59.9,130.1,59.7,130.4,59.6z"/>
			<path id="_Path_125" class="st0" d="M115.2,43.5c0.1-0.2,0.3-0.1,0.4-0.1c0.2,0,0.4,0,0.6-0.1c0.3-0.1,0.4,0,0.4,0.3
				c0,0.1,0,0.2,0,0.3c-0.1,0.2,0,0.5,0.2,0.6c-0.6,0.2-1.3,0.3-1.9,0.4c0,0,0,0,0-0.1c-0.1-0.1,0-0.2,0.1-0.2
				C115.6,44.2,115.7,44,115.2,43.5C115.2,43.6,115.2,43.5,115.2,43.5z"/>
			<path id="_Path_126" class="st0" d="M126.1,58.3h0.6c0.2,0,0.5,0,0.6-0.4v0.5c0.1,0.1,0.2,0.3,0.1,0.4c0,0-0.1,0.1-0.1,0.1v0.6
				c-0.2-0.3-0.5,0-0.7-0.1c-0.2-0.1-0.3,0.2-0.5,0.3L126.1,58.3z"/>
			<path id="_Path_127" class="st0" d="M125.1,51.1L125.1,51.1c0.2,0.2,0.3,0.4,0.3,0.6c0.1,0.3,0.2,0.5,0.3,0.8
				c0,0.1,0.1,0.2,0.1,0.4c-0.1,0.3-0.2,0.5-0.6,0.3c-0.2-0.1-0.3,0-0.4,0.1c-0.1,0.1-0.3,0.1-0.4,0.1c0,0-0.1-0.1-0.1-0.1
				c0.1-0.2-0.1-0.4-0.1-0.6c0-0.2-0.1-0.2-0.2-0.2c0,0,0-0.1,0-0.2c0.2-0.2,0.5-0.2,0.8-0.2c0.3,0,0.3-0.1,0.3-0.3
				C125,51.6,124.9,51.3,125.1,51.1z"/>
			<path id="_Path_128" class="st0" d="M99.3,34.3c-0.2-0.3-0.5-0.1-0.7-0.2c1-0.1,2-0.2,3-0.1c0,0,0,0.1,0,0.1c-0.3,0-0.6,0-0.8,0
				c0.3,0,0.5,0,0.8,0c1-0.1,2,0,2.9,0h3.9c0.3,0,0.5,0,0.7-0.2h0.1c0.3,0.1,0.7,0,1,0.2c0.1,0.2,0,0.2-0.2,0.2c-0.2,0-0.4,0-0.6,0
				h-1.8h-8L99.3,34.3z"/>
			<path id="_Path_129" class="st0" d="M102.5,58.2c-0.8,0-0.8,0-0.8-0.8c0-0.3,0-0.6,0.1-0.9c0.2-0.1,0.5-0.1,0.7,0.1V58.2z"/>
			<path id="_Path_130" class="st0" d="M102.6,32.7h9.5c0.2,0,0.4,0,0.5,0.1c-0.2,0.1-0.3,0.1-0.5,0.1c-2.4,0-4.8,0.1-7.1,0
				c-3.1-0.1-6.1,0-9.2-0.1c-0.1,0-0.2,0-0.2,0c0-0.1,0.1-0.2,0.2-0.2c0.2,0.1,0.5,0.1,0.8,0.1L102.6,32.7z"/>
			<path id="_Path_131" class="st0" d="M95.6,32.8h17.2l-0.1,0.1c-0.1,0.1-0.3,0.1-0.5,0.1h-2.5c-1.6,0-3.2,0.1-4.7,0
				c-0.2,0-0.3,0.1-0.5-0.1L95.6,32.8L95.6,32.8z"/>
			<path id="_Path_132" class="st0" d="M131.7,59.5c-0.2-0.4-0.6-0.3-0.9-0.3c-0.2,0-0.1,0.2-0.2,0.3V58c0.3,0.3,0.7,0.4,1.1,0.1
				c0,0,0.1-0.1,0.1-0.1L131.7,59.5z"/>
			<path id="_Path_133" class="st0" d="M125.7,22.7c-0.2,0-0.3,0-0.5,0.1c-0.3,0.1-0.4-0.1-0.4-0.4c0.1-0.8,0.7-0.9,1.3-1.2
				c0.1,0.2,0,0.4,0,0.6s-0.1,0.5-0.1,0.7C126,22.7,125.8,22.7,125.7,22.7z"/>
			<path id="_Path_134" class="st0" d="M124.8,17.3l-1.2-1.7c-0.2-0.2-0.3-0.2-0.4,0c-0.1,0.2-0.2,0.3-0.4,0.4c0,0,0-0.1,0-0.2
				c0.2-0.2,0.3-0.5,0.5-0.7c0.2-0.2,0.2-0.2,0.3,0l2.4,3.4c0,0,0,0.1,0,0.1c0,0.1,0,0.1,0,0.2c-0.2,0.2-0.3,0-0.4-0.1
				c-0.2-0.3-0.4-0.6-0.6-0.9C124.8,17.6,125,17.5,124.8,17.3z"/>
			<path id="_Path_135" class="st0" d="M99.3,59.3c0,0.4,0,0.7-0.2,1.1c-0.1,0.2-0.2,0.3-0.4,0.1c-0.1-0.1-0.3-0.1-0.3,0v-1.5
				C98.7,58.9,99.1,59,99.3,59.3z"/>
			<path id="_Path_136" class="st0" d="M136.5,55.7v1.7c-0.1,0-0.1-0.1-0.1-0.1c0.1-0.5-0.3-0.4-0.6-0.5c-0.2-0.1-0.1,0.1-0.1,0.2
				c0,0.2,0,0.4,0,0.6c0-0.6,0-1.2,0-1.8C135.9,55.7,136.2,55.7,136.5,55.7z"/>
			<path id="_Path_137" class="st0" d="M96.1,58.1l0.2,0.1c0.2,0.2,0,0.3-0.1,0.4l-0.3,0.8c-0.2-0.1-0.4-0.2-0.7-0.2
				c-0.2,0-0.2-0.1-0.1-0.2c-0.1-0.3,0.1-0.5,0.2-0.8l0.1-0.1C95.4,58.4,95.8,58.4,96.1,58.1z"/>
			<path id="_Path_138" class="st0" d="M99.3,55.7v1.6c-0.2-0.2-0.1-0.4-0.2-0.6c0-0.2,0-0.2-0.2-0.1c-0.3,0.3-0.4,0.1-0.5-0.2
				c0,0-0.1-0.1-0.1-0.1c0-0.8-0.1-0.7,0.7-0.7C99.1,55.7,99.2,55.7,99.3,55.7z"/>
			<path id="_Path_139" class="st0" d="M102.5,25.7h-6.9v-0.1h6.3C102.2,25.6,102.4,25.5,102.5,25.7z"/>
			<path id="_Path_140" class="st0" d="M127.2,20.5h-0.2c-0.3-0.1-0.5-0.3-0.5-0.6c0-0.1,0-0.2,0.1-0.2c0.1,0,0.1,0,0.2,0
				c0.4,0.7,1,0.7,1.6,0.7c2.6,0,5.3,0,7.9,0c0.1,0,0.3-0.1,0.4,0.1h-5.6c-0.2,0-0.3,0-0.5,0.1h-0.6c-0.6,0-1.2,0-1.8,0
				C127.9,20.4,127.6,20.4,127.2,20.5z"/>
			<path id="_Path_141" class="st0" d="M110.4,42.4c0.4,0.1,0.7,0.6,0.6,1c0,0.1-0.1,0.2-0.1,0.3c-0.1,0.2-0.3,0.1-0.5,0.1
				c-0.1,0-0.3-0.1-0.3-0.3l-0.1-0.3C110.1,42.9,110.1,42.6,110.4,42.4z"/>
			<path id="_Path_142" class="st0" d="M111,46.3c-0.1,0.1-0.3,0.3-0.4,0c0,0-0.1,0-0.2,0c-0.9,0.1-1.7,0.1-2.6,0
				c-0.1,0-0.1,0-0.2,0.1s-0.3,0-0.4,0c0.2-0.2,0.5-0.3,0.7-0.2c0.9-0.1,1.9-0.1,2.8,0.1C110.8,46.3,110.9,46.3,111,46.3z"/>
			<path id="_Path_143" class="st0" d="M117.2,58.7c-0.1,0.6-0.4,0.7-1.1,0.4v-0.7c0.3-0.2,0.8-0.2,1.1,0L117.2,58.7z"/>
			<path id="_Path_144" class="st0" d="M116.1,27l0.8,1.3c-0.1,0.2,0,0.4-0.1,0.6c-0.1,0.2-0.1,0.2-0.2,0.3c-0.1,0-0.1-0.1-0.2-0.2
				c0-0.1,0-0.2-0.1-0.3l0,0c-0.2-0.4-0.3-0.8-0.3-1.2C116,27.2,116,27,116.1,27z"/>
			<path id="_Path_145" class="st0" d="M107.4,58.4c0.2-0.2,0.4-0.2,0.7-0.1c0.2,0,0.2,0.1,0.2,0.3v0.7c-0.3,0.3-0.6,0.1-0.9-0.1
				L107.4,58.4z"/>
			<path id="_Path_146" class="st0" d="M99.3,59.3c-0.3-0.2-0.7-0.1-0.9-0.3v-0.7c0.1,0,0.2-0.1,0.3-0.1c0.4-0.1,0.6,0,0.6,0.4
				c0,0.1,0,0.3,0.1,0.3v0.2C99.4,59.2,99.3,59.3,99.3,59.3z"/>
			<path id="_Path_147" class="st0" d="M122.7,38.7L122.7,38.7c-0.2-0.1-0.2-0.3-0.1-0.5c0.1-0.3,0.3-0.7,0.4-1
				c0.2-0.2,0.2-0.4,0.5-0.4c0,0,0.1,0.1,0.1,0.1c0,0.2,0,0.5-0.1,0.7c0,0.1,0,0.2,0,0.4l-0.1,0.2l-0.1,0.5c0,0.1,0,0.2-0.1,0.3
				c-0.1,0.1,0-0.2-0.2-0.2c-0.2,0.3,0.1,0.7-0.2,1c-0.2-0.1-0.1-0.3-0.1-0.5C122.7,38.9,122.8,38.8,122.7,38.7z"/>
			<path id="_Path_148" class="st0" d="M104.8,51.2c-0.1-0.1-0.2-0.1-0.4-0.1c-1.4,0-2.8,0-4.3,0c-0.3,0-0.4,0.2-0.6,0.3v-0.3
				C99.7,51,99.9,51,100,51h4.3c0.2,0,0.5-0.1,0.6,0.1C105.1,51.3,105,51.3,104.8,51.2z"/>
			<path id="_Path_149" class="st0" d="M133.2,59.8c-0.2-0.2,0.1-0.5-0.2-0.6c-0.2,0-0.4,0-0.6,0h-0.1v-0.8c0.2-0.1,0.4-0.1,0.6-0.1
				c0.2,0,0.4,0.2,0.4,0.4c0,0,0,0,0,0.1C133.1,59.1,133.2,59.5,133.2,59.8z"/>
			<path id="_Path_150" class="st0" d="M124.3,53.3c0.3-0.2,0.6-0.5,1.1-0.2c0.2,0.1,0.2-0.2,0.4-0.2l0.1,0.2c0,0.1-0.1,0.3-0.1,0.4
				c-0.1,0.2-0.2,0.3-0.4,0.2c-0.3-0.1-0.6-0.1-0.8,0.2C124.2,53.7,124.3,53.5,124.3,53.3z"/>
			<path id="_Path_151" class="st0" d="M120.6,42.6c-0.3,0-0.3-0.3-0.3-0.5c-0.1-0.5,0.2-0.9,0.7-1.1c0.2,0.1,0.1,0.4,0.2,0.6
				c0,0.2-0.1,0.3,0,0.5c0.1,0.2-0.2,0.3-0.4,0.5L120.6,42.6z"/>
			<path id="_Path_152" class="st0" d="M126.5,21.1l0.3-0.1c0.2,0,0.3,0.1,0.2,0.3c0,0.2,0.1,0.2,0.2,0.2l0,0c-0.1,0.5-0.5,0.9-1,1
				h-0.1C126,22,126.2,21.5,126.5,21.1z"/>
			<path id="_Path_153" class="st0" d="M108.2,55.7v0.6c-0.1,0.1-0.1,0.2-0.1,0.3c-0.1,0.1-0.2,0.2-0.4,0.1c-0.2,0-0.3-0.1-0.3-0.3
				c0-0.2,0-0.3-0.1-0.5c0-0.2,0-0.2,0.2-0.2L108.2,55.7z"/>
			<path id="_Path_154" class="st0" d="M126.5,21.1c-0.1,0.5,0,1-0.2,1.4c0,0.1-0.1,0.1-0.2,0.1s-0.2-0.1-0.2-0.2
				c0-0.4,0.1-0.8,0.2-1.1L126.5,21.1z"/>
			<path id="_Path_155" class="st0" d="M102.5,56.6c-0.2,0.1-0.5,0.2-0.7-0.1v-0.4c0-0.2,0-0.3,0.2-0.2c0.2,0.2,0.3-0.1,0.5-0.1
				V56.6z"/>
			<path id="_Path_156" class="st0" d="M128.7,55c0-0.1,0.2-0.2,0.3-0.1c0.6,0.1,1.1,0.1,1.7,0c0.1,0,0.2,0,0.3,0.1
				C130.2,55.1,129.4,55.1,128.7,55z"/>
			<path id="_Path_157" class="st0" d="M107.9,54.9c0.1-0.2,0.2-0.2,0.3-0.1c0.6,0.1,1.1,0.1,1.7,0c0.1,0,0.2,0,0.3,0.1
				c-0.3,0.1-0.6,0.2-0.9,0.1C108.9,55.1,108.4,55.1,107.9,54.9z"/>
			<path id="_Path_158" class="st0" d="M107.4,55.9c0.1,0.1,0.1,0.2,0.1,0.3c0.1,0.4,0.2,0.5,0.6,0.2l0.2-0.1c0,0.2,0.1,0.5-0.2,0.7
				c-0.3,0.2-0.4,0.2-0.5-0.2c0-0.1-0.1-0.1-0.1-0.2V55.9z"/>
			<path id="_Path_159" class="st0" d="M99.6,54.8c0.4,0,0.7,0,1.1,0c0.4,0,0.4-0.1,0.4-0.4c0-0.8,0-1.5,0-2.3c0-0.2,0-0.3,0.1-0.4
				c-0.1,1,0,1.9,0,2.9c0,0.3-0.1,0.4-0.3,0.3c-0.3,0-0.6,0-0.9,0C99.8,54.9,99.6,55,99.6,54.8z"/>
			<path id="_Path_160" class="st0" d="M132.8,52.7c-0.2,0-0.2-0.1-0.2-0.3s-0.1-0.3-0.3-0.3h-0.1c-0.9,0-0.9,0-0.9,0.8
				c0,0.1,0,0.3-0.1,0.3c0.1-0.3,0.1-0.7,0.1-1c0-0.3,0.1-0.4,0.4-0.4c0.3,0,0.5,0,0.8,0c0.3,0,0.4,0.1,0.4,0.4
				C132.7,52.5,132.8,52.6,132.8,52.7z"/>
			<path id="_Path_161" class="st0" d="M123.9,52.5c0.1,0,0.2,0.1,0.1,0.2l-0.1-0.1c-0.7-0.1-1.5,0-2.2,0c-0.2,0-0.1,0.2-0.2,0.3
				l-0.3,0.7c-0.1-0.4,0.1-0.7,0.4-1c0.1-0.1,0.2-0.1,0.4-0.1h1.6C123.7,52.5,123.8,52.5,123.9,52.5z"/>
			<path id="_Path_162" class="st0" d="M123.1,32.1c0.2,0,0.3,0.2,0.5,0.3c-0.3,0.2-0.1,0.4,0,0.6v0.1c0.1,0.1,0.1,0.3,0,0.3
				c0,0-0.1,0-0.1,0.1c-0.2,0.1-0.3-0.1-0.3-0.2c-0.1-0.1-0.1-0.2-0.1-0.3c0-0.2,0-0.5-0.1-0.7C123,32.2,123,32.1,123.1,32.1z"/>
			<path id="_Path_163" class="st0" d="M135.4,60c0,0.1,0,0.3-0.1,0.4c-0.4,0.5-1.1,0.5-1.6,0.1c0,0,0,0-0.1-0.1
				c0.2,0.1,0.4,0.1,0.6,0.2C134.7,60.8,135.2,60.5,135.4,60z"/>
			<path id="_Path_164" class="st0" d="M126.8,19.7h-0.2c-0.5-0.1-0.7-0.5-0.7-1v-0.1C126.3,18.9,126.6,19.3,126.8,19.7z"/>
			<path id="_Path_165" class="st0" d="M123.5,38c-0.2-0.1-0.1-0.3-0.1-0.5l0.1-0.5c0,0,0.1-0.1,0.2-0.1l0.1,0.1
				C123.6,37.3,123.6,37.7,123.5,38z"/>
			<path id="_Path_166" class="st0" d="M104.7,59.1v0.1c-0.5-0.1-1-0.5-1.3-0.9l0.3,0.1C104,58.7,104.3,59,104.7,59.1z"/>
			<path id="_Path_167" class="st0" d="M123.6,36.9l-0.2,0.1v-0.1c-0.2-0.1-0.1-0.3-0.1-0.5c0-0.2,0-0.4,0.2-0.5
				c0.1-0.1,0.1-0.2,0.2-0.1c0.1,0,0.1,0.2,0.1,0.3c0,0.1,0,0.2-0.1,0.2v0.4L123.6,36.9z"/>
			<path id="_Path_168" class="st0" d="M121.5,52.9c0-0.1,0-0.3,0.2-0.3c0.8-0.1,1.5-0.1,2.3,0h-2C121.7,52.6,121.5,52.7,121.5,52.9
				z"/>
			<path id="_Path_169" class="st0" d="M116.1,59.6c0.2,0.3,0.1,0.6,0.4,0.8v0.3c0,0,0,0,0,0.1c0,0,0,0,0,0c-0.2-0.3-0.4-0.6-0.4-1
				C116,59.8,116,59.7,116.1,59.6z"/>
			<path id="_Path_170" class="st0" d="M93.3,59.5c0.1,0,0.2,0,0.2,0.1c0.1,0.4,0.2,0.8,0.3,1.1C93.6,60.4,93.4,59.9,93.3,59.5z"/>
			<path id="_Path_171" class="st0" d="M139.7,52.1c-0.3-0.1-0.2-0.4-0.3-0.5c-0.1-0.2,0-0.2-0.1-0.3V51
				C139.4,51.3,139.6,51.7,139.7,52.1z"/>
			<path id="_Path_172" class="st0" d="M106.6,59.1h-0.1l-0.6-0.7C106.2,58.5,106.5,58.7,106.6,59.1z"/>
			<path id="_Path_173" class="st0" d="M116.5,60.8L116.5,60.8c0.3,0.1,0.5,0.4,0.7,0.6C116.8,61.4,116.7,61.1,116.5,60.8z"/>
			<path id="_Path_174" class="st0" d="M139.6,59.4C139.6,59.4,139.6,59.3,139.6,59.4c0.4-0.1,0.7-0.4,1.1-0.6
				C140.4,59.2,140,59.4,139.6,59.4z"/>
			<path id="_Path_175" class="st0" d="M136.5,60.3L136.5,60.3c0,0.3-0.1,0.7-0.3,0.9c-0.1,0.1-0.2,0.2-0.3,0.2
				C136.1,61.1,136.4,60.8,136.5,60.3C136.4,60.3,136.4,60.3,136.5,60.3z"/>
			<path id="_Path_176" class="st0" d="M95.6,37c0.3,0.3,0.1,0.7,0.1,1.1h-0.1C95.6,37.7,95.6,37.4,95.6,37z"/>
			<path id="_Path_177" class="st0" d="M126.4,54.9c-0.1-0.4-0.2-0.7-0.3-1.1C126.4,54.1,126.5,54.5,126.4,54.9z"/>
			<path id="_Path_178" class="st0" d="M109.4,34.3c0.2-0.1,0.6,0,0.8-0.1c0.1-0.1,0.2-0.2,0.4-0.1c0.1,0,0.2,0.1,0.1,0.3
				C110.8,34.3,109.4,34.3,109.4,34.3z"/>
			<path id="_Path_179" class="st0" d="M95.6,57c0,0.3,0,0.6-0.4,0.8C95.4,57.6,95.3,57.2,95.6,57z"/>
			<path id="_Path_180" class="st0" d="M121.3,48v0.1l-0.2,0.8c0,0-0.1-0.1-0.1-0.1C121.1,48.5,121.1,48.2,121.3,48z"/>
			<path id="_Path_181" class="st0" d="M116.5,56.6c-0.1,0.3-0.2,0.6-0.4,0.9C116.1,57.2,116.2,56.9,116.5,56.6z"/>
			<path id="_Path_182" class="st0" d="M104.8,51.2l0.1-0.1c0.1,0,0.2-0.2,0.3-0.2c-0.1,0.4-0.3,0.6-0.6,0.5
				C104.7,51.3,104.8,51.3,104.8,51.2z"/>
			<path id="_Path_183" class="st0" d="M110.8,54.9c0.3-0.1,0.6-0.3,0.9-0.5C111.6,54.8,111.2,54.8,110.8,54.9z"/>
			<path id="_Path_184" class="st0" d="M122.8,15.9V16c-0.2,0.1-0.4,0.4-0.7,0.4C122.2,16.1,122.6,16.1,122.8,15.9z"/>
			<path id="_Path_185" class="st0" d="M96.2,58.6c0-0.1,0.2-0.2,0.1-0.4c0.2,0.2,0.1,0.4,0.1,0.6h-0.1
				C96.3,58.8,96.3,58.6,96.2,58.6z"/>
			<path id="_Path_186" class="st0" d="M97.8,40c0,0.2-0.3,0.4-0.1,0.7l-0.3,0.1C97.5,40.4,97.6,40.2,97.8,40z"/>
			<path id="_Path_187" class="st0" d="M129.4,53.8c-0.3,0-0.7,0.1-0.9-0.3L129.4,53.8z"/>
			<path id="_Path_188" class="st0" d="M118.8,56.5l-0.3-0.1h0.9l-0.2,0.1H118.8z"/>
			<path id="_Path_189" class="st0" d="M93.8,48.8c-0.1,0.3,0,0.7-0.3,1C93.6,49.4,93.7,49.1,93.8,48.8z"/>
			<path id="_Path_190" class="st0" d="M126.1,61.1c-0.3-0.2-0.5-0.5-0.6-0.8C125.8,60.5,126,60.8,126.1,61.1z"/>
			<path id="_Path_191" class="st0" d="M121.6,47.1c0,0.3-0.1,0.6-0.3,0.9C121.3,47.7,121.4,47.4,121.6,47.1z"/>
			<path id="_Path_192" class="st0" d="M125.7,52.5c-0.2-0.2-0.3-0.5-0.3-0.8C125.5,52,125.6,52.2,125.7,52.5z"/>
			<path id="_Path_193" class="st0" d="M138.7,54.3l-0.1-0.5c0.2,0.3,0.3,0.6,0.1,0.8C138.6,54.6,138.7,54.4,138.7,54.3z"/>
			<path id="_Path_194" class="st0" d="M99.6,53.3v1.5C99.5,54.3,99.5,53.8,99.6,53.3z"/>
			<path id="_Path_195" class="st0" d="M132.6,53.8c0-0.2-0.1-0.6,0.2-0.8C132.8,53.3,132.8,53.6,132.6,53.8z"/>
			<path id="_Path_196" class="st0" d="M122.9,59.4c-0.1,0-0.1-0.1-0.1-0.1c0,0,0.4-0.2,0.5,0C123.2,59.4,123.1,59.3,122.9,59.4z"/>
			<path id="_Path_197" class="st0" d="M95.2,58.1c0.1,0.3-0.2,0.5-0.2,0.8h-0.1c0,0,0,0,0-0.1c0,0,0,0,0,0
				C95,58.6,94.9,58.3,95.2,58.1z"/>
			<path id="_Path_198" class="st0" d="M120.2,55.6c-0.2,0.1-0.5,0.1-0.7,0C119.8,55.5,120,55.5,120.2,55.6
				C120.2,55.5,120.3,55.5,120.2,55.6C120.3,55.6,120.3,55.6,120.2,55.6z"/>
			<path id="_Path_199" class="st0" d="M98.5,61l0.5,0.6C98.7,61.5,98.5,61.3,98.5,61z"/>
			<path id="_Path_200" class="st0" d="M124.3,53.3c0.1,0.1,0,0.3,0.2,0.4v0.3c-0.1-0.3-0.2-0.5-0.3-0.8L124.3,53.3z"/>
			<path id="_Path_201" class="st0" d="M120.7,42.5l0.4-0.4l0,0h0.1C121.1,42.3,120.9,42.5,120.7,42.5z"/>
			<path id="_Path_202" class="st0" d="M129.3,46.1l-1,0.1C128.6,45.9,129,46.1,129.3,46.1z"/>
			<path id="_Path_203" class="st0" d="M105.5,58.1h-0.1l-0.4-0.3C105.1,57.8,105.4,57.8,105.5,58.1z"/>
			<path id="_Path_204" class="st0" d="M94.8,58.8L94.8,58.8l-0.2,0.7C94.7,59.3,94.6,59,94.8,58.8z"/>
			<path id="_Path_205" class="st0" d="M126.9,53.9c0.2,0.1,0.3,0.3,0.3,0.5C127,54.3,126.9,54.1,126.9,53.9z"/>
			<path id="_Path_206" class="st0" d="M101.3,61.7l0.7-0.3C101.9,61.7,101.6,61.8,101.3,61.7C101.4,61.7,101.4,61.7,101.3,61.7z"/>
			<path id="_Path_207" class="st0" d="M119.3,53.8c0,0.3-0.1,0.5-0.2,0.7C119.1,54.2,119.2,54,119.3,53.8z"/>
			<path id="_Path_208" class="st0" d="M120.9,17.3c0.1,0.1,0.3,0.1,0.3,0.3c0,0.2-0.2,0.1-0.3,0.2c-0.2,0.1-0.4,0.1-0.6,0.1
				c-0.1,0-0.2,0-0.2,0.1c0,0.2-0.2,0.3-0.3,0.4c-0.1,0.1-0.3,0.4-0.6,0.3c0,0-0.1,0.1-0.2,0.1c-0.1,0.2-0.3,0.4-0.6,0.3
				c-0.2,0-0.3,0.2-0.3,0.4c0,0.1-0.1,0.3-0.2,0.3c-0.4,0.2-0.8,0.3-1.3,0.3c-0.3,0-0.7,0.1-1,0.2c0,0,0,0.1-0.1,0.1
				c-0.1,0.3,0.1,0.4,0.2,0.7c0,0.6,0,0.6-0.6,0.8c-0.4,0.2-0.9,0.4-1.2,0.8c-0.2,0.1-0.3,0.2-0.5,0.1c-0.3-0.3-0.5-0.7-0.8-1.1
				c0.3-0.4,0.6-0.8,1.1-1c0.6-0.3,1.1-0.7,1.6-1.1c0.5-0.5,1.2-0.8,1.9-1c-0.2,0-0.3,0-0.4-0.2c0.5-0.2,1-0.3,1.6-0.4
				C119.4,17.8,120.1,17.5,120.9,17.3z"/>
			<path id="_Path_209" class="st0" d="M117.1,18.4c0.3,0,0.6,0,0.8-0.1c-0.1,0.3-0.3,0.4-0.6,0.5c-0.4,0.1-0.8,0.4-1.2,0.6
				c-0.9,0.5-1.6,1.2-2.5,1.6c-0.2,0.1-0.3,0.2-0.4,0.4c-0.1,0.1-0.2,0.2-0.4,0.2c-0.6-0.4-0.9-1.5-0.4-1.9c0.5-0.5,1.1-0.8,1.8-0.8
				C115.1,18.8,116.1,18.6,117.1,18.4z"/>
			<path id="_Path_210" class="st0" d="M114.2,25.3c0,0.1,0.2,0.2,0,0.3h-6.9c-0.2,0-0.4,0.1-0.5-0.2s0.1-0.4,0.3-0.5
				c0.3-0.2,0.6-0.2,0.9-0.1c0.1,0.1,0.2,0.1,0.3,0c0.3-0.2,0.7-0.2,1-0.2c1.4,0,2.7,0,4.1,0c0.2,0,0.3,0.1,0.3,0.2
				S114,25.2,114.2,25.3z"/>
			<path id="_Path_211" class="st0" d="M113.1,23.9c-1.3,0-2.6,0-3.8,0c-0.2,0-0.4,0-0.5-0.1c-0.1-0.1,0.1-0.4,0.2-0.5
				c0.6-0.8,1.6-1.2,2.6-1.1h0.4c0.3,0,0.2,0.3,0.4,0.4c0.2,0.2,0.3,0.4,0.4,0.6C112.9,23.3,113.2,23.5,113.1,23.9z"/>
			<path id="_Path_212" class="st0" d="M113.5,22.7c0.3-0.1,0.6-0.3,0.8-0.6c0.2-0.2,0.5-0.4,0.8-0.4c0.4,0,0.5-0.3,0.5-0.6
				c0.1-0.1,0.2,0,0.2,0.1s0.2,0.2,0.2,0.3c0,0,0,0.1,0.1,0.1c0.1,0.2,0.2,0.5,0.3,0.7s0.2,0.1,0.4,0.1s0.3,0,0.3,0.2
				c0,0.2,0,0.4-0.2,0.5c-0.2,0.2-0.4,0.3-0.7,0.4c-0.6,0-1.1,0.4-1.3,1c-0.1,0.2-0.2,0.3-0.4,0.1c-0.1-0.4-0.5-0.5-0.6-1
				L113.5,22.7z"/>
			<path id="_Path_213" class="st0" d="M113.1,23.9c-0.1-0.3-0.4-0.4-0.5-0.7c0.1-0.1,0-0.3,0-0.4c0-0.1,0-0.5,0.2-0.7
				c0.4,0.4,0.5,0.9,0.5,1.4C113.3,23.7,113.3,23.8,113.1,23.9z"/>
			<path id="_Path_214" class="st0" d="M112.8,22.1c0,0.2,0,0.5,0,0.7c0,0.1-0.1,0.3-0.2,0.3l-0.4-0.6c0.1-0.2,0-0.3,0-0.5
				s0-0.5,0.2-0.6C112.5,21.6,112.7,21.8,112.8,22.1z"/>
			<path id="_Path_215" class="st0" d="M112.3,21.5c0.1,0.4,0,0.8-0.2,1.1l-0.2-0.5c0.1-0.2,0-0.4-0.1-0.6l0,0c0-0.2,0-0.4,0.1-0.6
				L112.3,21.5z"/>
			<path id="_Path_216" class="st0" d="M119,24.2c0,0.2,0,0.4,0.1,0.7c0.2,0.5,0.5,1,0.8,1.4l0.1,0.2c0.2,0.4,0.2,0.5-0.2,0.6
				c-0.6,0.3-1.2,0.7-1.7,1.1c-0.2,0.2-0.4,0.5-0.8,0.3c-0.5-0.9-1.1-1.8-1.7-2.7c-0.1-0.1-0.1-0.2-0.2-0.3c0.2-0.1,0.3,0,0.4,0.1
				c0.4,0.4,0.4,0.4,0.8,0.1c0.3-0.3,0.7-0.5,1.1-0.7c0.3-0.2,0.6-0.4,0.8-0.7C118.7,24.2,118.8,24,119,24.2z"/>
			<path id="_Path_217" class="st0" d="M115.8,33.5c-0.9,0.2-1.7,0.6-2.4,1.2c-0.5,0.4-1,0.9-1.3,1.4c-0.4,0.2-0.7,0.4-1,0.7
				c-0.1,0.1-0.3,0.2-0.4,0.2c-0.4,0.1-0.8,0.3-1.1,0.5c-0.2,0.2-0.3,0.1-0.3-0.1c0.1-0.6,0.4-1.1,0.7-1.6c0.3-0.1,0.6-0.3,0.9-0.3
				c0.4-0.1,0.5-0.4,0.9-0.5c0.3-0.1,0.6-0.3,0.8-0.5c0.3-0.3,0.8-0.3,1.1-0.6c0.7-0.5,1.4-0.9,2.2-1.3c0,0,0.1-0.1,0.1-0.1
				c0.3-0.2,0.6-0.3,0.9-0.4c1.1-0.4,2-1,3.1-1.4c0.2,0,0.3,0,0.3,0.2c0,0.1,0,0.3-0.2,0.3c-0.8,0.4-1.6,0.9-2.4,1.5
				c-0.1,0.1-0.3,0.1-0.4,0.2c-0.4,0-0.7,0.3-0.8,0.7C116.1,33.5,115.9,33.3,115.8,33.5z"/>
			<path id="_Path_218" class="st0" d="M116.4,28.9l0.1,0.1c0.5,0.1,0.6,0.5,0.4,0.9c-0.1,0-0.2,0.1-0.4,0.1h-3.2
				c-0.1,0-0.2,0-0.2,0h-4c-0.1-0.2,0.1-0.3,0.2-0.4c-0.1-0.1-0.3-0.1-0.4-0.2s-0.3-0.1-0.2-0.3h7.2C116.1,29,116.3,29.1,116.4,28.9
				z"/>
			<path id="_Path_219" class="st0" d="M110.8,34.3c-0.1-0.2-0.3-0.1-0.5-0.1h-8.1c-0.2,0-0.3,0-0.5-0.1V34h1.8
				c0.1-0.2,0.2-0.2,0.4-0.2c1.1,0,2.2,0,3.2,0c0.2,0,0.3,0.1,0.5,0.1c-0.1,0-0.3,0-0.3-0.2s0.2-0.2,0.3-0.3s0.4,0,0.6-0.1
				c-0.1,0-0.2,0-0.4,0c-1.2,0.1-2.4-0.1-3.6-0.1c-0.2,0-0.4,0.1-0.4-0.2h0.4c0.2-0.1,0.5-0.1,0.7-0.1c1.5,0,3.1,0,4.6,0
				c0.1,0,0.1,0,0.2,0h2.9c-0.1,0.2-0.3,0.1-0.5,0.1h-3.5v0h3.6C111.7,33.6,111.1,33.8,110.8,34.3z"/>
			<path id="_Path_220" class="st0" d="M125.5,24.7h4.9c0.3,0,0.7,0,1,0c0.2,0,0.3,0.1,0.4,0.2c-0.1,0.2-0.4,0-0.4,0.1
				c-0.1,0.1,0.2,0.2,0.2,0.3h-7.3c-0.2-0.3,0.1-0.4,0.2-0.4c0.2-0.1,0.4-0.1,0.7-0.1C125.3,24.8,125.4,24.8,125.5,24.7z"/>
			<path id="_Path_221" class="st0" d="M115.7,32.3c0.2,0.1,0.1,0.1,0,0.2c-0.3,0.3-0.7,0.5-1.1,0.6c-0.3,0.2-0.6,0.5-1,0.7
				c-0.8,0.4-1.5,0.8-2.2,1.3c-0.4,0.3-0.9,0.5-1.4,0.6c-0.1,0-0.2,0.1-0.2,0c0.3-0.6,0.8-1.1,1.4-1.5c0.5-0.4,1-0.7,1.7-0.9
				C113.8,33,114.8,32.6,115.7,32.3z"/>
			<path id="_Path_222" class="st0" d="M108.7,29c0.3,0.2,0.6,0.3,0.9,0.4c0.1,0,0.2,0,0.2,0.2s-0.1,0.2-0.3,0.2
				c-0.1,0-0.3,0-0.5,0.2h-5c-0.1-0.2,0.1-0.5-0.1-0.8c-0.1-0.1,0.1-0.1,0.2-0.1c0.6,0,1.1,0,1.7,0L108.7,29z"/>
			<path id="_Path_223" class="st0" d="M116.2,33.3c-0.1-0.6-0.1-0.7,0.5-0.8c0.5-0.2,1-0.5,1.5-0.8c0.5-0.3,0.9-0.6,1.5-0.9
				c0.3-0.1,0.3-0.2,0-0.4c0.4-0.3,0.8-0.6,1.2-0.8c0.1-0.1,0.3-0.1,0.3-0.2c0.3-0.3,0.5-0.1,0.6,0.1l0.1,0.2
				c0.1,0.2,0.1,0.4-0.1,0.6c0,0,0,0,0,0c-0.3,0.2-0.7,0.5-1.1,0.6c-0.7,0.4-1.3,0.7-1.9,1.1c-0.1,0.1-0.3,0.2-0.4,0.2
				c-0.7,0.3-1.3,0.6-1.9,1C116.4,33.5,116.3,33.5,116.2,33.3L116.2,33.3z"/>
			<path id="_Path_224" class="st0" d="M125.5,24.7c-0.1,0.4-0.5,0.3-0.8,0.4s-0.4,0.1-0.5,0.3H120c-0.3,0-0.6-0.1-0.7-0.4
				c0.1-0.2,0.3-0.4,0.5-0.5c0.1,0,0.3-0.1,0.3-0.2c0.1-0.3,0.2-0.7,0.2-1c0.3-0.1,0.4,0,0.4,0.2c0,0.3,0,0.5-0.1,0.8
				c-0.1,0.1,0,0.2,0.1,0.2c0.2,0.1,0.3,0.1,0.5,0.1L125.5,24.7z"/>
			<path id="_Path_225" class="st0" d="M109.1,37.3c0.1,0.2,0.2,0.1,0.2,0c0.2-0.2,0.5-0.3,0.8-0.4c0.4-0.1,0.8-0.3,1.1-0.6
				c0.2-0.2,0.5-0.3,0.8-0.2c-0.4,0.5-0.7,1-1,1.6c-0.2,0.3-0.6,0.5-0.9,0.6c-0.3,0.1-0.6,0.2-0.9,0.4c-0.1,0.1-0.3,0.1-0.4,0
				c0,0,0,0,0,0c-0.1-0.4,0.2-0.7,0.2-1.1C108.9,37.4,109,37.3,109.1,37.3z"/>
			<path id="_Path_226" class="st0" d="M119.9,24.8c-0.2,0-0.3,0.3-0.6,0.3l-0.2-0.4c-0.1-0.5,0.3-1.1,0.8-1.2
				c0.1-0.1,0.2-0.1,0.3,0c0,0,0,0,0,0c0.1,0.1,0.1,0.2,0,0.3C120.2,24.1,120.1,24.4,119.9,24.8z"/>
			<path id="_Path_227" class="st0" d="M116.9,29.8c0-0.3-0.3-0.5-0.4-0.8c0.1-0.3,0.1-0.6,0.4-0.8c0.1,0.2,0.2,0.3,0.3,0.5
				c0.1,0.3,0.2,0.5,0.2,0.8c0,0.2,0,0.5-0.3,0.4C117,29.9,116.9,29.9,116.9,29.8z"/>
			<path id="_Path_228" class="st0" d="M116.9,29.8c0.1,0,0.1,0.1,0.1,0.1h-3.5c-0.2,0-0.3,0-0.5-0.1h3.2
				C116.5,29.9,116.7,29.9,116.9,29.8z"/>
			<path id="_Path_229" class="st0" d="M115.3,27.1c0.1,0,0.2-0.1,0.2-0.3c0,0,0,0,0,0c0-0.1,0-0.2,0-0.2c0-0.1,0-0.3,0.1-0.3
				c0.1-0.1,0.2,0.1,0.3,0.2c-0.3,0.1-0.2,0.3-0.2,0.5c0,0.2,0.1,0.3-0.1,0.4C115.4,27.4,115.3,27.2,115.3,27.1z"/>
			<path id="_Path_230" class="st0" d="M122.7,38.7c0.2,0,0.1,0.1,0.1,0.2s0,0.5,0,0.7c-0.1,0.4-0.3,0.7-0.5,1
				c-0.3-0.2-0.1-0.5-0.1-0.8C122.3,39.5,122.5,39.1,122.7,38.7z"/>
			<path id="_Path_231" class="st0" d="M123.1,37.3c-0.1,0.5-0.4,0.9-0.5,1.4c-0.7,0.8-1.6,1.4-2.5,1.8c-1.3,0.7-2.5,1.4-3.7,2.2
				c-0.7,0.4-1.5,0.7-2.3,0.6c-0.3,0-0.5,0-0.8,0c-0.1-0.1-0.3-0.2-0.4-0.2c-0.2,0-0.4,0-0.5-0.1c-0.2-0.2-0.1-0.4,0.1-0.5
				c0.4-0.4,1-0.7,1.5-0.9c0.7-0.3,1.4-0.4,2.1-0.5c0.1,0,0.1,0,0.2-0.1c0.1,0,0.1,0,0.2-0.1c0.4-0.1,0.7-0.2,1-0.5
				c0.6-0.3,1.2-0.7,1.7-1.2c0.4-0.4,0.8-0.8,1.2-1.2c0,0,0,0,0.1,0c0.2-0.6,0.8-0.6,1.2-0.8c0.5-0.3,0.9-0.5,1.3-0.8
				c0.1-0.1,0.2-0.2,0.4-0.1c0.1,0.1,0.1,0.2,0.1,0.4C123.3,37,123.3,37.2,123.1,37.3z"/>
			<path id="_Path_232" class="st0" d="M100.3,40.6l0.4-0.3c0.2-0.1,0.4-0.2,0.4-0.4s0.3-0.2,0.5-0.2c0.2,0,0.4-0.1,0.5-0.3
				c0-0.1,0.1-0.1,0.2-0.2c0.7-0.1,1.3-0.7,2.1-0.5c0.3,0,0.7,0,1-0.1h2.3c0.5,0,0.6,0.1,0.6,0.6c0,0.2,0,0.4,0.1,0.5
				c-0.2,0.2,0.1,0.4-0.2,0.6c-0.3-0.2-0.2-0.6-0.3-0.9c-0.1,0-0.2,0.2-0.2,0.3c0,0,0,0,0,0c0.1,0.3,0,0.3-0.2,0.5
				c-0.6,0.3-1.2,0.4-1.8,0.3C104.1,40.6,102.2,40.6,100.3,40.6z"/>
			<path id="_Path_233" class="st0" d="M117.2,34.9h-0.4l-0.2-0.1c0.1-0.2,0.2-0.2,0.4-0.2c0.4-0.1,0.5-0.2,0.5-0.6
				c0-0.4,0.2-0.5,0.4-0.8c0,0,0,0,0.1,0c0.6,0.1,1.1-0.3,1.7-0.5c0.2,0,0.3-0.1,0.4-0.2c0.3-0.3,0.6-0.4,0.9-0.6
				c0.6-0.2,1.1-0.7,1.4-1.2c0,0,0.1-0.1,0.1-0.1c0.2,0.3,0.3,0.7,0.4,1.1c0,0.2,0.1,0.3,0.2,0.4v0.2c0.1,0.4,0.1,0.5-0.2,0.7
				c-0.4,0.2-0.9,0.5-1.3,0.8c-0.3,0.3-0.6,0.4-1,0.5c-0.2,0-0.2,0.2-0.3,0.2c-0.1,0.1-0.3,0.1-0.4,0c-0.2-0.2-0.4-0.3-0.6-0.4
				c-0.3-0.2-0.7-0.2-1-0.2c-0.2,0.1-0.1,0.2-0.1,0.4c0,0.6,0,0.6-0.6,0.6C117.3,34.9,117.2,34.9,117.2,34.9z"/>
			<path id="_Path_234" class="st0" d="M116.3,41.1c-0.2,0.2-0.5,0.2-0.8,0.3c-0.8,0.2-1.7,0.5-2.4,0.9c-0.4,0.1-0.7,0.4-0.8,0.8
				c-0.6-0.1-1.1-0.4-1.6-0.7c-0.2-0.1-0.2-0.3-0.2-0.4c0-0.2,0.2-0.2,0.3-0.3c0.2,0,0.3-0.1,0.4-0.3c0.1-0.1,0.2-0.2,0.4-0.3
				c0.2-0.1,0.6-0.2,0.3-0.6c0,0,0.1-0.1,0.1-0.1c0.5,0.4,1.1,0.6,1.7,0.7c0.1,0.1,0.2,0.1,0.4,0.1c0.4,0,0.8,0,1.3,0
				c0.2,0,0.4-0.1,0.6-0.1C116.1,41,116.2,40.9,116.3,41.1z"/>
			<path id="_Path_235" class="st0" d="M102.1,37.1h3.8c0.1,0,0.3-0.1,0.4,0.1c0.1,0.2-0.1,0.2-0.2,0.4s-0.5,0.2-0.7,0.4h-0.3
				c-0.1,0-0.3,0-0.4,0c-0.9,0-1.8,0.1-2.7,0.1h-2.6c0.3-0.2,0.7-0.1,1-0.1c0.2,0,0.4,0,0.7,0c0.2,0,0.3-0.1,0.4-0.2
				c0.1-0.2,0.3-0.3,0.5-0.4C102.2,37.3,102.2,37.2,102.1,37.1z"/>
			<path id="_Path_236" class="st0" d="M108.8,38.6c0.5-0.2,1-0.4,1.5-0.6c0.2-0.1,0.5-0.2,0.7-0.3c-0.1,0.5-0.2,1-0.2,1.5
				c0,0.1,0,0.2,0,0.2c0.3,0.4,0,0.3-0.2,0.3c-0.3,0.1-0.5,0.2-0.7,0.4c-0.2,0.2-0.3,0.4-0.6,0.2c-0.3-0.1-0.5-0.4-0.4-0.6
				C108.8,39.3,108.8,39,108.8,38.6z"/>
			<path id="_Path_237" class="st0" d="M117.9,33.3c-0.3,0.2-0.4,0.6-0.3,0.9c0,0.3-0.1,0.5-0.4,0.5c-0.4,0-0.4,0-0.7,0
				c-0.3-0.2-0.1-0.5-0.1-0.7s0-0.5-0.2-0.6c0,0,0.1-0.1,0.1-0.1c0.3,0,0.5-0.1,0.8-0.2C117.3,33.2,117.6,33.1,117.9,33.3z"/>
			<path id="_Path_238" class="st0" d="M110.4,42.4c-0.1,0.3,0,0.7-0.4,0.8c-0.5-0.1-0.6-0.6-0.6-1c0-0.2-0.1-0.6,0.1-0.7
				s0.3,0.2,0.5,0.4S110.3,42.2,110.4,42.4z"/>
			<path id="_Path_239" class="st0" d="M115.2,35.3c-0.4,0.1-0.7,0.3-1.1,0.5c-0.1,0-0.2-0.1-0.2-0.2c0-0.3-0.1-0.7,0.2-1
				c0,0,0.1-0.1,0.1-0.1s0.3-0.3,0.5-0.2c0.2,0.1,0.2,0.4,0.1,0.6C114.8,35.2,114.9,35.3,115.2,35.3z"/>
			<path id="_Path_240" class="st0" d="M113.5,36.1c-0.3,0.2-0.5,0.4-0.7,0.6c-0.3-0.6,0-1.4,0.6-1.7c0.3-0.1,0.4,0,0.4,0.3
				C113.7,35.6,113.6,35.9,113.5,36.1z"/>
			<path id="_Path_241" class="st0" d="M113.5,36.1c-0.1-0.2-0.1-0.5,0-0.7c0.1-0.2,0.1-0.4-0.2-0.4c0.2-0.2,0.5-0.4,0.7-0.4
				c0.1,0.2,0,0.5,0,0.8c0,0.1,0,0.3,0,0.4L113.5,36.1z"/>
			<path id="_Path_242" class="st0" d="M108.5,40.4c0.1-0.2-0.2-0.5,0.1-0.6c0.1,0.5,0.1,1,0.1,1.5C108.6,41,108.5,40.7,108.5,40.4z
				"/>
			<path id="_Path_243" class="st0" d="M111.8,37.8l-0.2,0.2c-0.1-0.4-0.1-0.8,0-1.2c0.1-0.1,0.2,0,0.2,0.1
				C111.9,37.2,111.9,37.5,111.8,37.8z"/>
			<path id="_Path_244" class="st0" d="M102,38.1c0.6-0.1,1.2-0.1,1.9-0.1c0.4,0,0.8,0,1.2,0c-0.1,0-0.2,0.1-0.2,0.1
				C103.9,38,103,38.2,102,38.1z"/>
			<path id="_Path_245" class="st0" d="M111.8,37.8c0-0.2,0-0.5,0-0.7s0-0.3-0.1-0.3c0.1-0.1,0.1-0.2,0.2-0.2c0.1,0,0.1,0.2,0.1,0.3
				c0,0.2,0,0.4,0.1,0.6L111.8,37.8z"/>
			<path id="_Path_246" class="st0" d="M111.3,38.5c0,0.3-0.2,0.7,0,1c-0.1-0.1-0.2-0.2-0.1-0.3c0-0.4,0-0.8,0-1.2
				C111.4,38.2,111.3,38.3,111.3,38.5z"/>
			<path id="_Path_247" class="st0" d="M116.2,33.5h-0.4c0-0.4,0.3-0.1,0.4-0.2l0,0C116.2,33.4,116.2,33.5,116.2,33.5z"/>
			<path id="_Path_248" class="st0" d="M108.3,32.5h-1.8c-0.2-0.2-0.2-0.3,0.1-0.5c0.2-0.1,0.5-0.2,0.7-0.3c0.2-0.1,0.4-0.2,0.6-0.4
				c-0.3-0.2-0.6-0.1-0.9-0.1c0.2-0.1,0.3-0.1,0.5-0.1c0.9-0.1,1.7-0.3,2.5-0.5c0.3-0.1,0.5-0.1,0.8-0.1c0.9,0,1.8,0,2.7,0
				c0,0.1,0,0.1,0,0.1c-0.7,0.1-1.2,0.4-1.7,0.9c-0.1,0.1-0.2,0.1-0.4,0.2c-0.3,0-0.5,0.2-0.7,0.4c-0.1,0.1-0.2,0.1-0.3,0.1
				c-0.6,0.1-1.1,0-1.7,0C108.6,32.4,108.4,32.4,108.3,32.5z"/>
			<path id="_Path_249" class="st0" d="M115.2,43.5c0.5,0,0.6,0,0.5,0.6c0,0.1,0,0.2,0,0.2c0,0.2-0.1,0.4-0.3,0.3
				c-0.1,0-0.2,0-0.3,0.1h-0.3c0.2-0.3,0.1-0.6,0.1-1C114.9,43.4,115,43.5,115.2,43.5z"/>
			<path id="_Path_250" class="st0" d="M121.1,42L121.1,42c-0.2-0.2-0.1-0.5-0.1-0.7c0-0.2,0-0.3,0-0.4s0.2-0.3,0.4-0.3
				c0.1,0.1,0.1,0.3,0.1,0.5C121.3,41.5,121.2,41.8,121.1,42z"/>
			<path id="_Path_251" class="st0" d="M124.8,33.2c1.8-0.1,3.7,0,5.5,0.1c0.5,0,1,0,1.5,0c0.1,0,0.3,0,0.3,0.1s-0.2,0.1-0.2,0.2
				c-0.6,0.4-1.3,0.5-2.1,0.4c-1.9,0-3.7,0-5.6,0c0,0-0.1,0-0.1,0c-0.2,0-0.3-0.1-0.3-0.3c0-0.2,0.2-0.3,0.3-0.3
				C124.3,33.3,124.6,33.4,124.8,33.2z"/>
			<path id="_Path_252" class="st0" d="M123.8,36.3v-0.5c-0.2,0.2-0.1,0.5-0.3,0.6c-0.2-0.1-0.2-0.2-0.1-0.4c0-0.2,0-0.5,0-0.7
				c0-0.3-0.1-0.3-0.3-0.2c-0.3,0.1-0.7,0.3-1,0.5c-0.3,0.1-0.5,0.3-0.7,0.5c-0.2,0.2-0.5,0.2-0.7,0.1c0-0.3-0.1-0.6-0.3-0.8
				c0-0.3-0.3-0.5-0.1-0.8c0.1-0.3,0.4-0.2,0.5,0c0.1,0.1,0.2,0.2,0.3,0.1c0,0,0.1-0.1,0.1-0.1c0,0,0.1-0.1,0.1-0.1
				c0.6-0.3,1.2-0.6,1.7-1c0.2-0.1,0.5-0.1,0.7,0c0.2,0.1,0.1,0.3,0.1,0.5c-0.1,0.1,0,0.3,0.1,0.4c0,0.3,0.1,0.4,0.4,0.4h0.4
				c-0.1,0.3,0,0.7-0.3,0.9C124,35.8,123.9,36,123.8,36.3z"/>
			<path id="_Path_253" class="st0" d="M123.8,34.5c-0.2-0.1-0.1-0.3-0.1-0.4c0-0.4-0.2-0.5-0.5-0.3c-0.3,0.1-0.5,0.3-0.8,0.5
				c-0.2,0.2-0.4,0.3-0.6,0.3c-0.3,0-0.5,0.2-0.5,0.5c-0.1,0.2-0.2,0.2-0.3,0c-0.1-0.2-0.3-0.5-0.6-0.5c-0.1,0-0.2,0-0.1-0.1
				c0-0.2,0.1-0.4,0.3-0.4c0.3,0,0.5-0.1,0.7-0.3c0.5-0.4,1-0.7,1.6-1c0.2-0.1,0.3-0.3,0.3-0.5c0.1,0.1,0.2,0.2,0.2,0.4
				c0,0.1,0,0.3,0,0.4c0,0.1,0,0.3,0.1,0.3c0.2,0,0.1-0.2,0.2-0.2h1.2c0,0.3-0.2,0.3-0.5,0.3s-0.3,0-0.4,0.1s0.1,0.2,0.2,0.4
				C123.8,34,123.7,34.2,123.8,34.5z"/>
			<path id="_Path_254" class="st0" d="M117.9,33.3h-1c-0.1,0.1-0.3,0.1-0.4,0c0.3-0.3,0.7-0.6,1.2-0.8c0.8-0.4,1.6-0.8,2.3-1.3
				c0.3-0.2,0.7-0.4,1.1-0.6c0.3-0.1,0.5-0.4,0.8-0.5c0.1,0,0.1-0.2,0.1-0.3c0.2,0.2,0.2,0.5,0.4,0.7l0.1,0.1c0,0.4-0.2,0.6-0.5,0.9
				c-0.6,0.5-1.3,0.6-1.8,1.2c-0.2,0.2-0.4,0.3-0.6,0.3c-0.2,0-0.4,0.1-0.5,0.3c0,0.1-0.1,0.1-0.2,0.1c0,0,0,0,0,0
				C118.5,33.3,118.2,33.3,117.9,33.3z"/>
			<path id="_Path_255" class="st0" d="M94.8,51.3h1.3c0.2,0.2,0.2-0.1,0.3-0.2l0.1,0c0,0.5,0,0.5-0.5,0.5c-0.5,0-0.7,0-1.1,0
				s-0.5-0.1-0.4-0.4C94.8,50.9,94.7,51.2,94.8,51.3z"/>
			<path id="_Path_256" class="st0" d="M96.4,51.1c0,0.2,0,0.4-0.3,0.2c0.3,0,0-0.2,0.1-0.3C96.3,51,96.4,51,96.4,51.1z"/>
			<path id="_Path_257" class="st0" d="M136.1,51.1c0,0.2,0.1,0.2,0.2,0.2c0.3,0,0.7,0,1,0c0.4,0,0.3-0.1,0.3-0.3
				c0.2-0.1,0.2,0.2,0.3,0.2c0,0.3-0.1,0.5-0.4,0.4c-0.3,0-0.7,0-1.1,0c-0.4,0-0.5,0-0.5-0.5C135.9,51,136,50.9,136.1,51.1z"/>
			<path id="_Path_258" class="st0" d="M135.8,51.1c-0.1,0-0.3,0-0.4,0c-0.5-0.1-0.9,0.1-1.1,0.6c0,0,0,0,0,0.1
				c0-0.6,0.1-0.7,0.8-0.7C135.4,51,135.6,51,135.8,51.1z"/>
			<path id="_Path_259" class="st0" d="M119,24.2c0,0-0.1,0-0.1,0.1c-0.5,0.6-1.1,1.1-1.8,1.5c-0.2,0.1-0.3,0.2-0.4,0.3
				c-0.4,0.3-0.4,0.3-0.8-0.1c-0.1-0.2-0.2-0.4-0.4-0.4l-0.7-1c0.3-0.1,0.3-0.4,0.5-0.7c0.2-0.3,0.5-0.6,0.8-0.6
				c0.2,0,0.5-0.1,0.7-0.2c0.1-0.1,0.3-0.1,0.1-0.3c-0.2-0.2,0.2,0,0.2-0.2s-0.1,0-0.2-0.1c0-0.3,0.2-0.2,0.4-0.3
				c0.5,0,1-0.1,1.5-0.3c1.4-0.3,2.8-0.8,4.2-1.4c0.4-0.2,0.7-0.4,1.2-0.6s0.3-0.2,0.1-0.5c-0.2-0.2-0.5-0.4-0.7-0.6
				c-0.1-0.1-0.2-0.3,0-0.4c0.6-0.2,1-0.5,1.3-1.1c0.3,0.3,0.6,0.7,0.8,1.1c0.1,0.1,0.1,0.3,0.3,0.3c0.2,0.3,0.4,0.7,0.7,1V20
				c0,0.1,0,0.3,0,0.4c0,0.2-0.2,0.4-0.4,0.3c-0.5-0.3-0.8,0.1-1.1,0.3c-0.5,0.3-1,0.7-1.5,1c-0.4,0.1-0.8,0.3-1.1,0.4
				c-0.1,0-0.1,0.1-0.2,0.1c-0.6,0.2-1.2,0.4-1.8,0.6c-0.5,0.1-0.9,0.4-1.2,0.7C119.1,23.9,119,24,119,24.2z"/>
			<path id="_Path_260" class="st1" d="M123.5,18.4c0.2,0.3,0.4,0.6,0.6,0.9c0.1,0.1,0.2,0.1,0.2,0.2c0.2,0.3,0.2,0.4-0.2,0.6
				c-1.2,0.6-2.4,1.1-3.7,1.5c-0.5,0.2-1.1,0.4-1.7,0.4c-0.1,0-0.2,0-0.2-0.1c0-0.3,0.2-0.3,0.4-0.3c1.1-0.3,2.2-0.7,3.2-1.1
				l0.3-0.1c0.5-0.2,0.5-0.2,0.5-0.8c0-0.4,0-0.7,0-1.1c0-0.1-0.1-0.1-0.2-0.1c-0.3,0-0.5,0.3-0.5,0.6c0,0.2,0,0.4-0.1,0.6
				c0,0.1-0.1,0.3-0.2,0.3c-0.5,0.3-1.1,0.5-1.7,0.7c-0.1,0-0.3,0-0.4,0c-0.3-0.2-0.2-0.5-0.2-0.7c0-0.3,0.1-0.3-0.1-0.4
				c-0.2-0.1-0.2,0.1-0.3,0.1c-0.2,0-0.3,0.1-0.5,0.1c-0.2,0.1-0.4,0.3-0.3,0.6c0,0.2,0,0.5-0.1,0.7c-0.3,0.3-0.7,0.5-1.2,0.4
				c-0.6-0.2-0.6-0.1-0.6-0.7c0-0.2-0.1-0.3-0.2-0.4c-0.1-0.1-0.2-0.1-0.2-0.2s0.1-0.1,0.2-0.1c0.1,0,0.2,0,0.2-0.1
				c0.5-0.1,1-0.2,1.5-0.4c0.5-0.1,1-0.2,1.5-0.4c1-0.3,2-0.7,3-1.1c0.2-0.1,0.4-0.1,0.6,0.1C123.3,18.2,123.4,18.3,123.5,18.4z"/>
			<path id="_Path_261" class="st0" d="M128.2,51.1v2.2c-0.1-0.3-0.1-0.7-0.1-1c0-0.2,0.1-0.3-0.1-0.5c-0.2,0.4-0.4,0.5-0.9,0.3
				c-0.1,0-0.2-0.1-0.2-0.2s0-0.5,0-0.7s0.1-0.2,0.3-0.2L128.2,51.1z"/>
			<path id="_Path_262" class="st0" d="M107.6,53.3c-0.1-0.3-0.1-0.7-0.1-1c0-0.2,0-0.4-0.1-0.6c0,0.1-0.1,0.1-0.1,0.1
				s0.1,0.4-0.1,0.4c-0.2,0.1-0.5,0.1-0.7,0c-0.2-0.1-0.2-0.2-0.2-0.3v-0.9l0,0c0.2-0.1,0.5,0,0.8-0.1c0.3-0.1,0.2,0.1,0.3-0.1v-0.1
				c0.1,0.3,0.1,0.7,0.1,1C107.6,52.4,107.6,52.9,107.6,53.3z"/>
			<path id="_Path_263" class="st0" d="M103.9,49.9c0-0.6,0-1.1,0-1.7c0-0.4-0.2-0.6-0.6-0.6c-0.4,0-1.1,0-1.6,0
				c-0.1,0-0.3,0.1-0.3-0.1h1.3c0.1,0,0.2,0,0.3,0c0.6-0.3,1,0.1,1.4,0.3c0.2,0.1,0.3,0.2,0.5,0.1c0.2-0.2,0.2,0.1,0.3,0.1
				c0,0.5,0,1,0,1.4c0,0.2-0.1,0.2-0.3,0.2c-0.5,0-0.8-0.3-0.7-0.8c0,0,0,0-0.1-0.1c0,0.3,0,0.5,0,0.8c0,0.2,0,0.3-0.1,0.5
				C104,50.2,103.9,50,103.9,49.9z"/>
			<path id="_Path_264" class="st0" d="M101.1,47.4v0.9c-0.2-0.2-0.1-0.4-0.1-0.7C100.9,47.5,100.8,47.4,101.1,47.4z"/>
			<path id="_Path_265" class="st0" d="M116.9,53.5c0.2-0.1,0.3-0.2,0.2-0.4c-0.1-0.5-0.1-1.1-0.1-1.7c0-0.1,0.1-0.2,0.1-0.3
				c0-0.1,0.1-0.2,0.2-0.1h0.9c0.1,0,0.3,0.1,0.3,0.2c0,0,0,0,0,0.1c0,0.8,0,1.6,0,2.4c0,0.1-0.1,0.2-0.2,0.3c0-0.4-0.2-0.5-0.7-0.4
				c-0.3,0.1-0.5,0-0.8,0.1C116.7,53.8,116.9,53.6,116.9,53.5z"/>
			<path id="_Path_266" class="st0" d="M114.2,53v0.6c0,0,0,0.1-0.1,0.1c0,0,0-0.2-0.1-0.3c-0.1-0.1-0.2-0.2-0.2-0.4
				c0-0.2-0.1-0.3-0.3-0.3c-0.2,0-0.4,0-0.5-0.1c0,0.7-0.2,1.4-0.2,2.2c-0.1-0.1-0.1-0.2-0.1-0.3v-5.2h0.1c0,0,0.1,0,0.1,0.1
				c0,0.1,0.1,0.2,0.1,0.3c0,0.4-0.1,0.8,0.1,1.2c0.1,0.2,0.3,0.3,0.5,0.2c0.4,0,0.5,0.1,0.5,0.5C114.2,52,114.1,52.5,114.2,53z"/>
			<path id="_Path_267" class="st0" d="M112.8,54.8v-2.7c0.3,0.6,0.4,0.6,1,0.4c0.2-0.1,0.2,0,0.2,0.2s0,0.6,0,0.8
				c-0.3,0.2-0.6,0.3-1,0.2c0,0-0.1,0-0.1,0c-0.1,0.3-0.1,0.6-0.1,0.8c0,0.2,0.2,0.2,0.3,0.2c0.1,0,0.1,0,0.1,0.1L112.8,54.8z"/>
			<path id="_Path_268" class="st0" d="M116.1,54.9h-1.3v-0.1C115.2,54.8,115.7,54.7,116.1,54.9z"/>
			<path id="_Path_269" class="st0" d="M112.8,49.2L112.8,49.2l-0.1-2.6c0.1,0.4,0.1,0.8,0.1,1.2c0.1,0.4,0.2,0.7,0.1,1.1
				C113,49,112.9,49.2,112.8,49.2z"/>
			<path id="_Path_270" class="st0" d="M105.5,49.7c-0.1-0.4-0.1-0.9,0-1.3C105.5,48.8,105.5,49.3,105.5,49.7z"/>
			<path id="_Path_271" class="st0" d="M105.5,49.7v-1.3C105.6,48.8,105.6,49.3,105.5,49.7z"/>
			<path id="_Path_272" class="st0" d="M125.1,51.1c0.2,0.3,0,0.7,0.2,1.1c0,0.1-0.1,0.2-0.2,0.2c-0.4-0.1-0.7,0.1-1.1,0
				c-0.1,0.1-0.2,0.1-0.3,0.1H122c-0.1,0-0.2,0-0.4-0.1c-0.3-0.1-0.7-0.1-1,0c-0.2,0.1-0.4,0-0.3-0.3s0.1-0.4,0.1-0.6
				c0-0.2,0.1-0.2,0.2-0.3c0.4-0.1,0.8-0.2,1.2,0c0,0,0.1,0.1,0.1,0.1c-0.2,0.4,0.2,0.3,0.3,0.3c0.4,0,0.9,0,1.3,0
				c0.1,0,0.2,0,0.3-0.1c0-0.1-0.2,0-0.2-0.2v-0.1C124,51,124.6,51,125.1,51.1z"/>
			<path id="_Path_273" class="st0" d="M125.1,51.1h-1.5c0-0.1,0.1-0.1,0.2-0.1C124.2,50.9,124.6,51,125.1,51.1z"/>
			<path id="_Path_274" class="st0" d="M122.7,48.7c0,0.2,0,0.5-0.2,0.6h-0.1c0-0.2,0.1-0.5,0.1-0.7c0-0.2,0.1-0.1,0.2-0.1
				C122.8,48.6,122.7,48.7,122.7,48.7z"/>
			<path id="_Path_275" class="st0" d="M108.9,53.8c0.4,0,0.7,0,1.1-0.1l0.1,0.1c-0.2,0.1-0.4,0.2-0.7,0.2c-0.4,0-0.8,0-1.1-0.1
				L108.9,53.8z"/>
			<path id="_Path_276" class="st0" d="M103.8,33c0.1,0.1,0.3,0.1,0.4,0.1c1.4,0,2.9,0.1,4.3,0.1c0.1,0,0.3,0,0.4,0.1
				c-0.3,0.2-0.6,0.3-1,0.3c-0.2,0-0.4,0-0.4,0.2c0,0.2,0.3,0.1,0.4,0.1s0.2,0,0.2,0.1h-4.7c-0.3-0.1-0.5-0.1-0.8-0.2
				c-0.1,0-0.2,0-0.1-0.1c0-0.1,0.1-0.1,0.1-0.1c0.2-0.1,0.3-0.1,0.5-0.1c0.2,0,0.5,0.1,0.5-0.2c0-0.2-0.3-0.1-0.5-0.2
				c-0.3,0-0.7,0-1,0V33L103.8,33z"/>
			<path id="_Path_277" class="st0" d="M109.7,32.8c-0.1,0-0.2,0.1-0.4,0.1c-1.7,0-3.4,0.1-5.2,0.1l0.3-0.1H109.7z"/>
			<path id="_Path_278" class="st0" d="M112,51.3c-0.2,0.1-0.1,0.3-0.2,0.5c0,0.2-0.1,0.5-0.4,0.5c-0.4,0-0.6-0.1-0.7-0.4
				c-0.1-0.5,0-0.7,0.5-0.7h0.7V51.3z"/>
			<path id="_Path_279" class="st0" d="M105.6,59.8c0.1,0,0.1,0.1,0.1,0.2c0,0.1,0,0.2-0.1,0.4C105.6,60.2,105.6,60,105.6,59.8z"/>
			<path id="_Path_280" class="st0" d="M122.8,57.4v0.1c0,0.6-0.2,0.8-0.8,0.7c-0.2,0-0.1-0.2-0.1-0.3c0-0.5,0-1,0-1.5
				c0.1,0.2,0.3,0.3,0.6,0.2c0.2,0,0.2,0.1,0.2,0.2C122.7,57.2,122.7,57.3,122.8,57.4z"/>
			<path id="_Path_281" class="st0" d="M122.9,56.5h0.7l0,0H122.9z"/>
			<path id="_Path_282" class="st0" d="M122.9,56.7v0.6C122.7,57.1,122.8,56.9,122.9,56.7z"/>
			<path id="_Path_283" class="st0" d="M138.5,58.4L138.5,58.4l0.5,0.1c-0.5,0.2-0.6,0.1-0.7-0.2L138.5,58.4z"/>
			<path id="_Path_284" class="st0" d="M136.5,60.3L136.5,60.3c-0.1-0.1-0.2-0.1-0.2,0.1s0.2,0.3-0.1,0.3c-0.2,0-0.4,0.2-0.6-0.1
				l-0.1-0.2c0.1-0.4,0.1-0.8,0.1-1.3c0.3-0.1,0.7-0.1,0.9,0.2L136.5,60.3z"/>
			<path id="_Path_285" class="st0" d="M123,58.1h0.8C123.5,58.3,123.2,58.3,123,58.1z"/>
			<path id="_Path_286" class="st0" d="M123.8,58.1c0.1-0.2,0.3-0.3,0.4-0.4c0,0.2-0.1,0.4-0.3,0.5L123.8,58.1z"/>
			<path id="_Path_287" class="st0" d="M138.2,61.6c-0.9,0-0.9,0.2-0.9-0.9c0-0.5,0-1,0-1.4c0.2,0,0.4,0.1,0.7,0.1
				c0.2,0,0.2,0,0.2,0.1C138.3,60.3,138.3,60.9,138.2,61.6z"/>
			<path id="_Path_288" class="st0" d="M118.2,46.8c0,0.1,0.1,0.3,0.2,0.4c0.2,0.2,0.1,0.4,0,0.5s-0.3,0.1-0.5,0.1
				c-0.4,0-0.7-0.2-1-0.4l0,0c-0.1-0.1-0.3-0.2-0.4-0.2h-1.9c-0.2,0-0.4,0.1-0.5,0.3c-0.1,0.2-0.4,0.3-0.6,0.2
				c-0.2,0-0.4-0.3-0.3-0.5c0,0,0,0,0,0v-0.3c0-0.3,0.1-0.4,0.4-0.4h4C117.6,46.5,117.8,46.7,118.2,46.8z"/>
			<path id="_Path_289" class="st0" d="M112.8,49.2v-1.4c0.1,0.1,0.2,0.2,0.2,0.4c0,0.2,0,0.4,0.3,0.4c0.2,0.1,0.5,0,0.6-0.2
				c0.1-0.1,0.1-0.3,0.2-0.4c0.1,0.3,0.1,0.7,0.1,1c-0.1,0.2-0.2,0.4-0.3,0.6c-0.2,0.2-0.5,0.2-0.7,0c0,0-0.1-0.1-0.1-0.1
				C113,49.4,112.9,49.3,112.8,49.2L112.8,49.2z"/>
			<path id="_Path_290" class="st0" d="M114.2,53c-0.1-0.5-0.1-1.1-0.1-1.6c-0.1-0.8-0.1-1.7,0-2.5c0-0.3,0-0.7,0-1
				c0-0.2,0-0.3,0.1-0.5v4.9C114.2,52.6,114.2,52.8,114.2,53z"/>
			<path id="_Path_291" class="st0" d="M114.1,47.9v3.5c-0.1-0.2-0.3-0.3-0.5-0.3c-0.2,0-0.6,0.1-0.8-0.1l0.1-0.1
				c0.1,0,0.3-0.1,0.4-0.1c0.6-0.1,0.6-0.1,0.6-0.7c0-0.4,0-0.8,0.2-1.1L114.1,47.9L114.1,47.9z"/>
			<path id="_Path_292" class="st0" d="M114.3,47.5L114.3,47.5c0-0.2,0.2-0.2,0.3-0.2h2.2c0,0,0.1,0.1,0,0.2c0,0,0,0,0,0
				C116,47.6,115.1,47.6,114.3,47.5z"/>
			<path id="_Path_293" class="st0" d="M107.5,51c-0.2,0.2-0.4,0.1-0.6,0.1c-0.2,0-0.3,0-0.5,0c0.1-0.2,0.4-0.1,0.6-0.2
				C107.2,50.9,107.3,51,107.5,51z"/>
			<path id="_Path_294" class="st0" d="M116.8,47.4v-0.1c0.4,0.1,0.7,0.2,1.1,0.3c0.4,0.1,0.4-0.2,0.4-0.4c0.1,0,0.2,0.1,0.2,0.2
				c-0.1,0.4,0,0.8-0.1,1.2c-0.1,0.6-0.3,0.7-0.8,0.6c-0.2,0-0.2,0.1-0.2,0.3c0,0.5,0,1,0,1.5c-0.2,0.1-0.1,0.3-0.3,0.4V51
				c0.1-0.1,0.1-0.3,0.1-0.4v-2.1c0-0.1,0-0.3-0.1-0.4c0-0.2,0-0.4-0.2-0.5C116.8,47.5,116.8,47.5,116.8,47.4z"/>
			<path id="_Path_295" class="st0" d="M127.2,21.5L127.2,21.5c0,0-0.1,0.5-0.3,0.4c-0.2-0.1-0.1-0.3-0.1-0.5c0-0.2,0.1-0.3,0-0.4
				l0.3-0.3c0.2,0,0.2,0.1,0.2,0.2C127.3,21,127.2,21.3,127.2,21.5z"/>
			<path id="_Path_296" class="st0" d="M127.2,20.5c0.3-0.1,0.6-0.1,0.9-0.1c0.6,0,1.3,0,1.9,0.1H127.2z"/>
			<path id="_Path_297" class="st0" d="M121.6,52.4h2.3v0.1h-2.3L121.6,52.4z"/>
			<path id="_Path_298" class="st0" d="M100.3,54.7c-0.5,0-0.7-0.3-0.5-0.8c0-0.1,0.1-0.2,0.2-0.2c0.2,0,0.4,0,0.7-0.1
				c0.1,0,0.1,0,0.2,0c0.1,0.2,0.1,0.5,0,0.8c-0.1,0.2-0.3,0.1-0.4,0.2L100.3,54.7z"/>
			<path id="_Path_299" class="st0" d="M109.9,59.4c-0.2,0.1-0.4,0.1-0.7,0.1c-0.1-0.1-0.3,0-0.4,0.2v-1c0-0.2,0.1-0.3,0.3-0.3
				c0.7,0,0.7,0,0.7,0.6V59.4z"/>
			<path id="_Path_300" class="st0" d="M122.2,22.5c0.2-0.3,0.5-0.4,0.8-0.4c0.2,0,0.3-0.1,0.5-0.2c0.6-0.5,1.3-1,2-1.5
				c0.2-0.1,0.3-0.2,0.5,0c0.2,0.2,0.3,0.1,0.3-0.1c0-0.1,0.1-0.3,0.2-0.4c0.2,0.2,0.4,0.3,0.4,0.6c-0.4,0.2-0.8,0.4-1.2,0.7
				c-0.9,0.5-1.8,0.8-2.8,1.1c-0.1,0-0.3,0.1-0.4,0.2c-0.1,0.1,0,0.1,0.1,0.1c-0.1,0.1-0.2,0.2-0.3,0.1
				C122.4,22.6,122.3,22.5,122.2,22.5z"/>
			<path id="_Path_301" class="st0" d="M122.5,22.7l-0.1,1.2h-0.3c-0.2,0-0.4,0.1-0.5-0.2c-0.1-0.3,0-0.6,0.2-0.8
				C122.1,22.7,122.3,22.7,122.5,22.7z"/>
			<path id="_Path_302" class="st0" d="M119.9,24.8c0-0.4,0-0.8,0.2-1.1c0.1-0.1-0.1-0.1-0.2-0.1c0.1-0.2,0.3-0.1,0.4-0.1
				s0.1,0.2,0.1,0.3c-0.1,0.2-0.1,0.5-0.1,0.7C120.4,24.7,120.1,24.6,119.9,24.8z"/>
			<path id="_Path_303" class="st0" d="M123.5,23.9c0.5,0,1,0,1.5-0.1c0,0.1-0.1,0.1-0.2,0.1C124.4,24,123.9,24,123.5,23.9z"/>
			<path id="_Path_304" class="st0" d="M136.4,59.3c-0.2-0.1-0.5-0.1-0.8-0.1c-0.2,0-0.1-0.1-0.2-0.2c0-0.2,0-0.4,0-0.5
				c0-0.3,0.4-0.2,0.6-0.3c0.2,0,0.4,0.1,0.3,0.3C136.4,58.8,136.5,59,136.4,59.3z"/>
			<path id="_Path_305" class="st0" d="M123.3,22.4c0.1,0,0.2,0.1,0.2,0.2c0,0.2,0,0.4,0,0.7c0,0.2-0.1,0.4-0.3,0.3
				c-0.2,0-0.2-0.2-0.2-0.4c0.1-0.2,0.1-0.4,0.1-0.7C123.1,22.5,123.2,22.4,123.3,22.4z"/>
			<path id="_Path_306" class="st0" d="M124.2,23.4c-0.1,0.2-0.3,0.2-0.5,0.1c-0.2-0.1-0.1-0.3-0.1-0.5c0-0.1,0-0.3,0.1-0.4
				c0-0.1-0.1-0.3-0.2-0.3c0,0,0,0,0,0c0.4-0.1,0.5-0.1,0.5,0.4c0,0.1,0,0.2,0,0.3C123.8,23.3,123.9,23.4,124.2,23.4z"/>
			<path id="_Path_307" class="st0" d="M139.8,57.8v-0.7C139.9,57.3,139.9,57.6,139.8,57.8z"/>
			<path id="_Path_308" class="st0" d="M101.6,34.1h7.1c0.2,0,0.4,0,0.5,0.1h-0.1c-0.1,0.1-0.2,0-0.3,0c-2.4,0-4.8,0-7.1,0
				c-0.1,0-0.2,0-0.3,0h-1v-0.1H101.6z"/>
			<path id="_Path_309" class="st0" d="M101.5,34.2h7.7c-0.1,0.1-0.3,0.1-0.5,0.1H102C101.8,34.3,101.6,34.2,101.5,34.2z"/>
			<path id="_Path_310" class="st0" d="M120.7,36.2c0.1-0.1,0.2-0.1,0.4-0.2c0.2,0,0.3-0.2,0.4-0.4s0.1-0.4,0.4-0.2
				c0.1,0.1,0.2,0,0.2-0.1c0.1-0.2,0.3-0.3,0.4-0.3c0.4,0,0.8-0.3,0.9-0.7c0.2,0.6,0.2,1.3,0.1,2v0.4c-0.2,0.1-0.1,0.4-0.4,0.4
				c0-0.1,0.1-0.2,0.1-0.3c0.1-0.2,0.1-0.4,0-0.5c-0.1-0.1-0.2,0.1-0.3,0.2c-0.7,0.4-1.4,0.8-2.1,1.2c-0.2,0.1-0.4,0.4-0.6,0.6
				c-0.3,0.4-0.6,0.7-1,1c-0.1-0.2,0-0.3,0.1-0.4c0.5-0.5,0.8-1,1.1-1.6c0.1-0.3,0.2-0.7,0.2-1C120.6,36.4,120.5,36.3,120.7,36.2z"
				/>
			<path id="_Path_311" class="st1" d="M116.6,20c0,0.1-0.2,0.1-0.3,0.2c0.5,0,0.5,0.4,0.4,0.7c0,0.3,0,0.5,0.3,0.5
				c-0.1,0.4-0.5,0.3-0.7,0.3c-0.1,0-0.2,0-0.2-0.1l0,0c0,0-0.1-0.1-0.1-0.1c0-0.2-0.1-0.4-0.1-0.6c0-0.3-0.2-0.3-0.4-0.2
				c-0.2,0.1-0.1-0.3-0.3-0.3C115.7,20.2,116.2,20.1,116.6,20z"/>
			<path id="_Path_312" class="st0" d="M115.3,20.4c0.2,0,0.2,0.2,0.3,0.3c0.1,0,0.1,0,0.2,0c0.2,0.2,0.3,0.5,0.3,0.8v0.1
				c-0.3-0.1-0.2-0.4-0.4-0.5C115.5,20.9,115.4,20.6,115.3,20.4z"/>
			<path id="_Path_313" class="st0" d="M116.1,21.6h0.2c0.1,0.1,0.2,0.1,0.3,0.2c0.2,0.4,0.2,0.4,0.8,0.2c0.3-0.1,0.5-0.1,0.8-0.2
				c0.3,0,0.3,0,0.4,0.1l0.2,0.1c-0.4,0.2-0.9,0.3-1.4,0.4c-0.2,0-0.4,0-0.5,0.1C116.5,22.5,116.2,22.2,116.1,21.6z"/>
			<path id="_Path_314" class="st0" d="M116.6,33.3h0.4c-0.2,0.3-0.5,0.1-0.7,0.2v-0.2H116.6z"/>
			<path id="_Path_315" class="st0" d="M120.2,34.5l0.1,0.1c0,0.2,0.1,0.5,0.2,0.7c0.1,0.4,0.1,0.9,0.1,1.3c0,0.1-0.1,0.2-0.2,0.2
				c0-0.6-0.4-0.9-0.8-1.2c-0.1-0.1-0.3-0.2-0.5-0.3c-0.2-0.1-0.3-0.3-0.2-0.5c0-0.1,0-0.3,0-0.4c-0.1-0.4,0-0.4,0.4-0.3
				S119.8,34.3,120.2,34.5z"/>
			<path id="_Path_316" class="st0" d="M120.4,36.7c0.2-0.2,0.2-0.5,0.2-0.8l-0.1-0.7c0.2,0.3,0.1,0.6,0.1,1c0,1.1-0.4,2.1-1.2,2.8
				c-0.1,0.1-0.3,0.3-0.4,0.5c-0.5,0.2-0.8,0.7-1.3,0.9c-0.2,0.1-0.3,0.2-0.5,0.2c-0.1,0.1-0.2,0.1-0.4,0c1-0.5,1.9-1.2,2.6-2
				C120.1,38.1,120.4,37.5,120.4,36.7z"/>
			<path id="_Path_317" class="st0" d="M119.3,33.9c-0.1,0-0.4-0.1-0.2,0.2c0.1,0.2,0.1,0.4,0,0.6c0,0.2,0,0.3,0,0.5l-0.8-0.3
				c-0.2-0.4-0.3-0.8-0.2-1.2C118.5,33.7,118.9,33.8,119.3,33.9z"/>
			<path id="_Path_318" class="st0" d="M118.2,33.7c0.1,0.4,0.2,0.8,0.2,1.2h-1.2c0.1,0,0.2,0,0.3-0.1c0.4,0,0.5-0.1,0.5-0.6
				C117.9,34.1,117.7,33.7,118.2,33.7z"/>
			<path id="_Path_319" class="st0" d="M115.3,41.2c-0.5,0.1-1,0.1-1.6,0.1c-0.1,0-0.1,0,0-0.1L115.3,41.2
				C115.4,41.2,115.4,41.2,115.3,41.2z"/>
			<path id="_Path_320" class="st0" d="M115.3,41.2L115.3,41.2l1.4-0.4c0.1,0.1,0.1,0.2-0.1,0.2c-0.1,0-0.2,0-0.2,0.1h-0.2
				C115.9,41,115.6,41.3,115.3,41.2z"/>
			<path id="_Path_321" class="st0" d="M116.4,41.1c0-0.2,0.3-0.1,0.3-0.4c0.1,0,0.2-0.1,0.3-0.2h0.4C117.2,41,116.7,41,116.4,41.1z
				"/>
			<path id="_Path_322" class="st1" d="M122.8,19.5l-1,0.3c0.3-0.2,0.1-0.5,0.2-0.8c0.1-0.6,0.2-0.7,0.8-0.8
				C123,18.6,123,19.1,122.8,19.5z"/>
			<path id="_Path_323" class="st1" d="M118.9,20.8c-0.2,0.1-0.5,0.2-0.8,0.2c0-0.3,0-0.5,0-0.8c-0.1-0.2,0.1-0.5,0.4-0.5
				c0.1,0,0.1,0,0.2,0c0.2,0,0.3,0.2,0.3,0.4C119,20.3,119,20.6,118.9,20.8z"/>
			<path id="_Path_324" class="st1" d="M119.8,20.5l-0.6,0.2c-0.2-0.1-0.2-0.3-0.2-0.5c0-0.2,0-0.5,0-0.7c0.2-0.2,0.4-0.2,0.6-0.2
				s0.2,0.1,0.2,0.3C119.7,19.9,119.7,20.3,119.8,20.5z"/>
			<path id="_Path_325" class="st1" d="M119.1,19.5c0.1,0,0.3,0.1,0.2,0.2c-0.1,0.3-0.1,0.6-0.1,0.9l-0.4,0.1
				c-0.1-0.2-0.1-0.4-0.1-0.6c0-0.2,0-0.3-0.1-0.5C118.8,19.6,119,19.5,119.1,19.5z"/>
			<path id="_Path_326" class="st1" d="M122.8,19.5v-1.3c0.1-0.1,0.2,0,0.2,0c0,0,0,0.1,0,0.1c0.1,0.4,0,0.8,0.1,1.1
				c0,0-0.1,0.1-0.1,0.1C123,19.6,122.9,19.5,122.8,19.5z"/>
			<path id="_Path_327" class="st1" d="M123.9,19.7c0-0.1,0-0.2,0.1-0.2c0.1,0,0.2,0.2,0.2,0.3c0,0.1,0,0.2-0.1,0.2c0,0,0,0,0,0
				C123.9,19.9,123.9,19.8,123.9,19.7z"/>
			<path id="_Path_328" class="st0" d="M117.1,48.1c0.1,0.1,0.2,0.3,0.1,0.4v2.1c0,0.1,0,0.3-0.1,0.4V48.1z"/>
			<path id="_Path_329" class="st0" d="M116.8,47.4c0.1,0,0.1,0.1,0.1,0.2h-2.3c-0.1,0-0.3,0-0.4-0.1L116.8,47.4z"/>
			<path id="_Path_330" class="st0" d="M117.9,51.1c0.2,0,0.6-0.1,0.6,0.4s-0.2,0.7-0.7,0.7c-0.5,0-0.4-0.1-0.4-0.6
				S117.4,51.1,117.9,51.1z"/>
			<path id="_Path_331" class="st0" d="M114.1,49c0,0.5,0,1.1,0,1.6c0,0.3-0.1,0.4-0.4,0.4c-0.3-0.1-0.5,0.1-0.8,0
				c0-0.4,0-0.7,0-1.1c0-0.1,0-0.3,0-0.4v-0.3c0.1,0,0.2,0,0.2,0.1c0.4,0.3,0.5,0.3,0.8-0.1C114,49.2,114,49.1,114.1,49z"/>
			<path id="_Path_332" class="st0" d="M112.8,49.5c0.1,0.5,0.1,1,0.1,1.5h-0.1V49.5z"/>
			<path id="_Path_333" class="st1" d="M116.1,21.5c-0.1-0.3-0.3-0.6-0.5-0.8c0-0.2,0.2-0.3,0.4-0.2c0.2,0,0.1,0.2,0.1,0.4
				c0,0.1,0,0.3,0,0.4C116.2,21.3,116.3,21.4,116.1,21.5z"/>
			<path id="_Path_334" class="st0" d="M116.5,21.9c0.2,0.2,0.6,0.4,0.9,0.3C116.8,22.5,116.6,22.4,116.5,21.9z"/>
		</g>
	</g>
</g>
</svg>
