<?xml version="1.0" encoding="utf-8"?>
<!-- Generator: Adobe Illustrator 22.1.0, SVG Export Plug-In . SVG Version: 6.00 Build 0)  -->
<svg version="1.1" id="Layer_1" xmlns="http://www.w3.org/2000/svg" xmlns:xlink="http://www.w3.org/1999/xlink" x="0px" y="0px"
	 viewBox="0 0 233 73" style="enable-background:new 0 0 233 73;" xml:space="preserve">
<style type="text/css">
	.st0{fill:#3D3D3D;}
	.st1{fill:#FFFFFF;}
</style>
<title>Asset 27</title>
<g id="Layer_2_1_">
	<g id="Layer_1-2">
		<g id="_Group_">
			<path id="_Compound_Path_" class="st0" d="M101.2,44l-1.2-3.2c-2.1-5.4-4.2-10.8-6.2-16.2C93.7,24.2,93.3,24,93,24
				c-1.4,0-2.8,0-4.2,0C88.4,24,88,24.2,88,24.6c-2.1,5.5-4.3,11-6.4,16.5L80.4,44h4.5c0.3,0,0.5-0.1,0.5-0.4
				c0.3-0.9,0.7-1.7,0.9-2.6c0.1-0.4,0.3-0.5,0.7-0.5c2.5,0,5,0,7.4,0c0.4-0.1,0.7,0.2,0.8,0.5c0,0,0,0,0,0c0.3,0.8,0.6,1.6,0.9,2.5
				c0.1,0.3,0.2,0.4,0.5,0.4C98.1,44,99.6,44,101.2,44z M126.9,28.7c0,0.3,0.1,0.5,0.2,0.8c1.8,4.5,3.6,9.1,5.5,13.6
				c0.4,0.8,0.3,1.7-0.2,2.5c-0.3,0.6-0.8,0.9-1.4,1c-0.5,0.1-1,0.1-1.5-0.1c-0.3-0.1-0.5,0-0.5,0.3c-0.1,0.6-0.2,1.2-0.3,1.8
				c-0.1,0.6-0.4,1.1-0.1,1.4c0.3,0.3,0.9,0.2,1.4,0.2c3.2,0.1,5.2-0.9,6.4-3.9c1.6-4.2,3.3-8.3,5-12.5c0.7-1.7,1.3-3.3,2-5.1
				c-1.3,0-2.6,0-3.9,0c-0.3,0-0.6,0.2-0.7,0.5c-0.6,1.7-1.3,3.4-1.9,5.1l-1.9,5c-0.1-0.3-0.2-0.5-0.3-0.8c-1.1-3.1-2.3-6.2-3.4-9.3
				c-0.1-0.2-0.1-0.5-0.5-0.5C129.5,28.7,128.2,28.7,126.9,28.7z M103.7,39.2c-0.5,0.8-1,1.6-1.5,2.4c-0.2,0.3-0.2,0.5,0.1,0.8
				c1.9,1.4,4.2,2.1,6.5,2c1.6,0.1,3.1-0.3,4.4-1.1c1.4-0.8,2.2-2.3,2.1-3.9c0-1.7-0.9-3.2-2.4-3.9c-0.9-0.4-1.8-0.7-2.8-0.9
				c-1-0.2-2-0.4-3-0.8c-0.4-0.2-0.7-0.4-0.7-0.9c0-0.4,0.2-0.8,0.6-1c0.7-0.4,1.5-0.6,2.3-0.5c1.5,0.1,2.9,0.7,4,1.8
				c0.5-0.8,0.9-1.6,1.4-2.3c0.2-0.4,0.1-0.5-0.2-0.8c-1.5-1-3.2-1.6-5-1.8c-1.9-0.2-3.8,0.2-5.4,1.4c-1.9,1.4-2.3,4.1-0.8,6
				c0.2,0.3,0.5,0.6,0.8,0.8c1,0.6,2,1,3.2,1.2c1.1,0.2,2.2,0.4,3.3,0.8c0.5,0.2,1,0.5,0.9,1.1c0,0.6-0.4,1.1-0.9,1.3
				c-0.6,0.2-1.2,0.3-1.8,0.3C106.9,41.1,105.1,40.4,103.7,39.2z M118.6,36.7v3.6c0,2.4,1.1,3.8,3.5,4.1c1.3,0.2,2.6,0,3.8-0.6
				c0.3-0.2,0.5-0.3,0.3-0.8c-0.2-0.7-0.4-1.3-0.6-2c-0.1-0.4-0.2-0.6-0.7-0.4c-0.7,0.4-1.6,0.2-2-0.4c-0.2-0.3-0.3-0.7-0.2-1
				c0-2.1,0-4.2,0-6.4c0-0.4,0.1-0.5,0.5-0.5c0.7,0,1.5,0,2.2,0c0.3,0,0.5-0.1,0.5-0.4c0-0.9,0-1.8,0-2.7c0-0.3-0.1-0.4-0.4-0.4
				c-0.7,0-1.4,0-2,0s-0.7-0.1-0.7-0.7c0.1-1,0-2,0-3c0-0.4-0.1-0.5-0.5-0.5c-1,0-2.1,0-3.1,0c-0.4,0-0.5,0.1-0.5,0.5
				c0,1.1,0,2.2,0,3.2c0,0.4-0.1,0.5-0.5,0.5c-0.4,0-1,0-1.5,0c-0.5,0-0.6,0.1-0.6,0.5c0,0.8,0,1.6,0,2.5c0,0.4,0.1,0.6,0.5,0.5
				s1,0,1.5,0s0.5,0.1,0.5,0.5C118.6,34.1,118.6,35.4,118.6,36.7z M149.2,34L149.2,34c0-3.1,0-6.3,0-9.4c0-0.4-0.1-0.6-0.5-0.6
				c-1,0-2,0-3,0c-0.4,0-0.5,0.1-0.5,0.5c0,6.3,0,12.7,0,19c0,0.4,0.1,0.5,0.5,0.5c1,0,2,0,3,0c0.5,0,0.6-0.1,0.6-0.6
				C149.2,40.3,149.2,37.2,149.2,34z M150.7,25c-0.1,1.2,0.9,2.2,2,2.2c0.1,0,0.1,0,0.2,0c1.2,0.1,2.2-0.9,2.3-2.1c0,0,0-0.1,0-0.1
				c0-1.2-1-2.2-2.2-2.2c0,0,0,0,0,0C151.7,22.9,150.8,23.8,150.7,25C150.7,25.1,150.7,25.1,150.7,25L150.7,25z M79.1,34l-1.2,0.9
				c-0.1,0.1-0.2,0.3-0.2,0.4c0,0.2,0.2,0.2,0.3,0.2h1.7c0.2,0,0.3-0.1,0.3-0.2c0-0.2-0.1-0.3-0.3-0.3h-0.8c0.3-0.3,0.6-0.7,1-0.9
				c0.1-0.1,0.2-0.3,0.1-0.4c0-0.2-0.2-0.1-0.4-0.1h-1.5c-0.2,0-0.4-0.1-0.4,0.3c0,0.3,0.2,0.2,0.4,0.2H79.1z M77.8,25
				c0.1,0.2-0.2,0.6,0.1,0.7c0.4,0.1,0.8,0.1,1.1,0c0.3-0.1,0-0.4,0-0.7c0-0.2,0-0.3,0.1-0.4c0.1-0.1,0.2-0.1,0.3,0
				c0.2,0.1,0.2,0.3,0.2,0.4c0,0.1-0.1,0.3-0.2,0.4c-0.1,0.1,0.1,0.2,0.1,0.2c0.1,0.1,0.2,0.1,0.2,0c0,0,0,0,0,0
				c0.3-0.4,0.3-0.9,0.1-1.3c-0.2-0.4-0.5-0.4-0.9-0.4c-0.4,0.1-0.5,0.4-0.5,0.8c0,0.1,0.1,0.4-0.2,0.4s-0.1-0.3-0.2-0.4
				c0-0.1,0.2-0.6-0.2-0.6c-0.4,0-0.2,0.4-0.3,0.6C77.7,24.9,77.7,25,77.8,25z M80,29.3c-0.6,0.2-1.2,0.5-1.9,0.7
				c-0.2,0.1-0.3,0.1-0.3,0.4c0,0.2,0,0.3,0.2,0.4c0.7,0.2,1.3,0.5,2,0.8c0.3-0.6-0.3-0.7-0.4-1.1C79.6,30,80.3,29.9,80,29.3z
				 M79,29.3c0.7,0,1.1-0.3,1.1-0.9c0-0.6-0.4-0.9-1.1-0.9s-1.2,0.4-1.2,0.9S78.2,29.3,79,29.3L79,29.3z M78.6,26.7
				c0.4,0,0.8,0,1.1,0c0.2,0,0.3,0,0.3-0.3s-0.2-0.2-0.3-0.2c-0.5,0-1,0-1.5,0c-0.2,0-0.4-0.1-0.5,0.1c0,0.2,0,0.3,0.2,0.5
				c0.1,0.1,0.2,0.2,0.3,0.3c0.1,0.1,0.2,0.4,0.5,0.2S78.6,26.9,78.6,26.7z M80.1,32.9c0-0.1-0.1-0.2-0.3-0.2c0,0,0,0,0,0
				c-0.1,0-0.3,0.1-0.3,0.3c0,0.1,0.1,0.3,0.3,0.3C79.9,33.2,80,33.1,80.1,32.9z"/>
			<path id="_Compound_Path_2" class="st0" d="M101.2,44c-1.6,0-3,0-4.5,0c-0.3,0-0.4-0.1-0.5-0.4c-0.3-0.8-0.6-1.6-0.9-2.5
				c-0.1-0.4-0.4-0.6-0.8-0.6c0,0,0,0,0,0c-2.5,0-5,0-7.4,0c-0.4,0-0.6,0.1-0.7,0.5c-0.3,0.9-0.6,1.7-0.9,2.6
				c-0.1,0.3-0.3,0.4-0.5,0.4h-4.5l1.1-2.9c2.1-5.5,4.3-11,6.4-16.5c0.1-0.4,0.4-0.6,0.8-0.6c0,0,0,0,0,0c1.4,0,2.8,0,4.2,0
				c0.4-0.1,0.7,0.2,0.8,0.5c2,5.4,4.1,10.8,6.2,16.2L101.2,44z M93.9,36.9c-1-2.8-2-5.6-3.1-8.5l-3,8.2c-0.1,0.3,0,0.3,0.3,0.3
				H93.9z"/>
			<path id="_Path_" class="st0" d="M126.9,28.7c1.3,0,2.6,0,3.9,0c0.4,0,0.4,0.3,0.5,0.5c1.2,3.1,2.3,6.2,3.5,9.2
				c0.1,0.2,0.2,0.4,0.3,0.8l1.9-5c0.6-1.7,1.3-3.4,1.9-5.1c0.1-0.3,0.4-0.5,0.7-0.5c1.3,0,2.5,0,3.9,0c-0.7,1.7-1.4,3.4-2,5.1
				c-1.7,4.2-3.4,8.3-5,12.5c-1.2,3-3.2,4-6.4,3.9c-0.5,0-1.1,0-1.4-0.2c-0.3-0.2,0-0.9,0.1-1.4c0.1-0.5,0.2-1.2,0.3-1.8
				c0.1-0.3,0.2-0.4,0.5-0.3c0.5,0.1,1,0.2,1.5,0.1c0.6-0.1,1.2-0.4,1.4-1c0.5-0.7,0.5-1.7,0.1-2.5c-1.9-4.5-3.6-9-5.5-13.6
				C127,29.2,126.9,29,126.9,28.7z"/>
			<path id="_Path_2" class="st0" d="M103.7,39.2c1.4,1.2,3.2,1.9,5.1,2c0.6,0.1,1.2,0,1.8-0.3c0.5-0.2,0.9-0.7,0.9-1.3
				c0-0.6-0.4-0.9-0.9-1.1c-1.1-0.3-2.2-0.6-3.3-0.8c-1.1-0.2-2.2-0.6-3.2-1.2c-1.9-1.4-2.3-4.1-0.8-6c0.2-0.3,0.5-0.6,0.8-0.8
				c1.6-1.1,3.5-1.6,5.4-1.4c1.8,0.1,3.5,0.7,5,1.8c0.3,0.2,0.4,0.4,0.2,0.8c-0.5,0.7-0.9,1.5-1.4,2.3c-1.1-1-2.5-1.6-4-1.8
				c-0.8-0.1-1.6,0-2.3,0.4c-0.4,0.2-0.6,0.6-0.6,1c0,0.5,0.3,0.7,0.7,0.9c1,0.3,2,0.6,3,0.8c1,0.2,1.9,0.5,2.8,0.9
				c1.5,0.7,2.5,2.2,2.4,3.8c0.1,1.6-0.7,3.1-2.1,3.9c-1.3,0.8-2.9,1.2-4.4,1.1c-2.3,0.1-4.6-0.6-6.5-2c-0.4-0.3-0.4-0.5-0.1-0.8
				C102.7,40.8,103.2,40,103.7,39.2z"/>
			<path id="_Path_3" class="st0" d="M118.6,36.7c0-1.3,0-2.6,0-3.9c0-0.4-0.1-0.6-0.5-0.5c-0.4,0-1,0-1.5,0s-0.5-0.1-0.5-0.5
				c0-0.8,0-1.7,0-2.5c0-0.5,0.2-0.6,0.6-0.5c0.4,0,1,0,1.5,0c0.5,0,0.5-0.1,0.5-0.5c0-1.1,0-2.2,0-3.2c0-0.4,0.1-0.5,0.5-0.5
				c1,0,2.1,0,3.1,0c0.4,0,0.5,0.1,0.5,0.5c0,1,0,2,0,3.1c0,0.6,0.2,0.7,0.7,0.7c0.5,0,1.4,0,2,0c0.3,0,0.4,0.1,0.4,0.4
				c0,0.9,0,1.9,0,2.8c0,0.3-0.1,0.4-0.4,0.4c-0.7,0-1.5,0-2.2,0c-0.4,0-0.5,0.1-0.5,0.5c0,2.1,0,4.2,0,6.4
				c-0.1,0.8,0.4,1.6,1.2,1.7c0.4,0.1,0.7,0,1-0.2c0.5-0.2,0.6-0.1,0.7,0.4c0.1,0.7,0.3,1.3,0.6,2c0.1,0.4,0,0.6-0.3,0.8
				c-1.2,0.6-2.5,0.8-3.8,0.6c-2.4-0.3-3.5-1.7-3.5-4.1L118.6,36.7z"/>
			<path id="_Path_4" class="st0" d="M149.2,34c0,3.1,0,6.2,0,9.4c0,0.5-0.1,0.6-0.6,0.6c-1,0-2,0-3,0c-0.4,0-0.5-0.1-0.5-0.5
				c0-6.3,0-12.7,0-19c0-0.4,0.1-0.5,0.5-0.5c1,0,2,0,3,0c0.5,0,0.5,0.2,0.5,0.6C149.2,27.8,149.2,30.9,149.2,34L149.2,34z"/>
			<path id="_Compound_Path_3" class="st0" d="M150.8,25.1c0-1.2,1-2.2,2.2-2.2c0,0,0,0,0,0c1.2,0,2.3,1,2.3,2.2c0,0,0,0,0,0
				c0,1.2-0.9,2.2-2.1,2.2c-0.1,0-0.1,0-0.2,0c-1.2,0-2.2-0.9-2.2-2.1C150.7,25.2,150.7,25.1,150.8,25.1z M151.4,25.1
				c-0.1,0.9,0.5,1.7,1.4,1.8c0.1,0,0.1,0,0.2,0c0.9,0,1.7-0.8,1.6-1.7c0,0,0,0,0-0.1c0-0.9-0.7-1.7-1.6-1.8
				C152.1,23.4,151.3,24.1,151.4,25.1C151.3,25,151.3,25.1,151.4,25.1L151.4,25.1z"/>
			<path id="_Path_5" class="st0" d="M79.1,34h-0.9c-0.2,0-0.4,0.1-0.4-0.2c0-0.3,0.2-0.3,0.4-0.3h1.5c0.1,0,0.3-0.1,0.4,0.1
				c0,0.2,0,0.3-0.2,0.5c-0.4,0.3-0.7,0.6-1,0.9h0.9c0.2,0,0.3,0,0.3,0.3c0,0.3-0.1,0.2-0.3,0.2h-1.7c-0.1,0-0.3,0-0.3-0.2
				c0-0.2,0-0.3,0.2-0.5L79.1,34z"/>
			<path id="_Path_6" class="st0" d="M77.8,25c0-0.1,0-0.1,0-0.2c0.1-0.2-0.2-0.6,0.3-0.6s0.1,0.4,0.2,0.6c0.1,0.2-0.1,0.4,0.2,0.4
				s0.2-0.2,0.2-0.4c0-0.4,0.1-0.7,0.5-0.8s0.7,0,0.9,0.4c0.2,0.4,0.1,0.9-0.1,1.2c-0.1,0.1-0.2,0.1-0.2,0c0,0,0,0,0,0
				c-0.1-0.1-0.2-0.1-0.1-0.2c0.1-0.1,0.1-0.3,0.2-0.4c0.1-0.2,0-0.3-0.2-0.4c-0.1-0.1-0.2-0.1-0.3,0C79,24.7,79,24.8,79,25
				c0,0.1,0.3,0.5,0,0.7c-0.4,0.1-0.8,0.1-1.1,0C77.6,25.6,77.8,25.2,77.8,25z"/>
			<path id="_Compound_Path_4" class="st0" d="M80,29.3c0.3,0.5-0.4,0.7-0.4,1.2c0,0.5,0.7,0.6,0.4,1.1c-0.7-0.3-1.3-0.5-2-0.8
				c-0.2-0.1-0.2-0.2-0.2-0.4s0.1-0.3,0.3-0.4C78.8,29.9,79.3,29.6,80,29.3z M78.5,30.5c0.2,0.1,0.4,0.4,0.7,0.2
				c0.1-0.1,0.1-0.2,0-0.4C78.9,30.1,78.8,30.4,78.5,30.5z"/>
			<path id="_Compound_Path_5" class="st0" d="M78.9,29.3c-0.7,0-1.2-0.4-1.2-0.9c0-0.6,0.5-1,1.2-0.9s1.1,0.4,1.1,0.9
				C80.1,28.9,79.6,29.3,78.9,29.3z M78.8,27.9c-0.2,0-0.6,0-0.6,0.4c0,0.4,0.4,0.4,0.7,0.4c0.3,0,0.7,0,0.7-0.4
				C79.6,28,79.2,27.9,78.8,27.9z"/>
			<path id="_Path_7" class="st0" d="M78.6,26.7c0,0.2,0.3,0.3,0.1,0.5c-0.2,0.2-0.3-0.1-0.5-0.2s-0.2-0.2-0.3-0.3
				c-0.2-0.1-0.2-0.3-0.2-0.5c0.1-0.2,0.3-0.1,0.4-0.1c0.5,0,1,0,1.5,0c0.2,0,0.3,0,0.3,0.2s-0.1,0.3-0.3,0.3
				C79.4,26.7,79,26.7,78.6,26.7z"/>
			<path id="_Path_8" class="st0" d="M80.1,32.9c0,0.2-0.1,0.3-0.3,0.3c-0.1,0-0.3-0.1-0.3-0.3s0.1-0.3,0.3-0.3
				C79.9,32.6,80,32.7,80.1,32.9C80.1,32.8,80.1,32.8,80.1,32.9z"/>
			<path id="_Path_9" class="st1" d="M93.9,36.9h-5.8c-0.2,0-0.4,0-0.3-0.3l3-8.2C91.9,31.2,92.9,34,93.9,36.9z"/>
			<path id="_Compound_Path_6" class="st1" d="M151.4,25.1c0-0.9,0.7-1.7,1.6-1.7c0,0,0,0,0.1,0c0.9,0,1.6,0.8,1.6,1.7
				c0.1,0.9-0.6,1.7-1.5,1.8c0,0-0.1,0-0.1,0c-0.9,0-1.6-0.7-1.6-1.6C151.3,25.2,151.3,25.2,151.4,25.1z M152.1,25.1L152.1,25.1
				c0,0.3,0,0.6,0,1c0,0.4,0,0.3,0.3,0.3c0.2,0,0.3-0.1,0.3-0.3s-0.1-0.6,0.1-0.7s0.3,0.4,0.5,0.6c0,0.1,0.1,0.1,0.1,0.2
				c0.1,0.2,0.3,0.4,0.5,0.2c0.2-0.1-0.1-0.4-0.1-0.5c-0.1-0.3-0.4-0.5,0.1-0.8c0.5-0.3,0.2-0.9-0.2-1.1c-0.4-0.2-0.9-0.2-1.4,0
				c-0.3,0.1-0.1,0.6-0.1,1C152.1,25,152.1,25,152.1,25.1L152.1,25.1z"/>
			<path id="_Path_10" class="st1" d="M78.5,30.5c0.2-0.1,0.4-0.4,0.7-0.2c0.1,0.1,0.1,0.2,0,0.4C78.9,30.9,78.8,30.5,78.5,30.5z"/>
			<path id="_Path_11" class="st1" d="M78.8,27.9c0.4,0,0.8,0,0.8,0.4c0,0.4-0.4,0.4-0.7,0.4c-0.3,0-0.7,0-0.7-0.4
				C78.3,27.9,78.6,28,78.8,27.9z"/>
			<path id="_Compound_Path_7" class="st0" d="M152.1,25.1c0-0.1,0-0.1,0-0.2c0-0.3-0.2-0.9,0.1-1c0.4-0.2,0.9-0.2,1.4,0
				c0.5,0.2,0.7,0.9,0.2,1.1c-0.4,0.2-0.2,0.5-0.1,0.8c0.1,0.1,0.4,0.3,0.1,0.5s-0.4,0-0.5-0.2c0-0.1-0.1-0.1-0.1-0.2
				c-0.2-0.2-0.2-0.6-0.5-0.6c-0.3,0.1-0.1,0.4-0.1,0.7s0,0.3-0.3,0.3c-0.3,0-0.3-0.1-0.3-0.3S152.1,25.4,152.1,25.1L152.1,25.1z
				 M153,24.9c0.2,0,0.5,0,0.5-0.3c0-0.3-0.3-0.3-0.5-0.3s-0.3,0.1-0.3,0.3S152.8,24.9,153,24.9z"/>
			<path id="_Path_12" class="st1" d="M153,24.9c-0.2,0-0.4,0-0.4-0.3c0-0.3,0.1-0.3,0.3-0.3s0.5,0,0.5,0.3
				C153.5,24.9,153.2,24.9,153,24.9z"/>
		</g>
	</g>
</g>
</svg>
