<?xml version="1.0" encoding="utf-8"?>
<!-- Generator: Adobe Illustrator 22.1.0, SVG Export Plug-In . SVG Version: 6.00 Build 0)  -->
<svg version="1.1" id="Layer_1" xmlns="http://www.w3.org/2000/svg" xmlns:xlink="http://www.w3.org/1999/xlink" x="0px" y="0px"
	 viewBox="0 0 233 73" style="enable-background:new 0 0 233 73;" xml:space="preserve">
<style type="text/css">
	.st0{fill:#3D3D3D;}
</style>
<title>Asset 43</title>
<g id="Layer_2_1_">
	<g id="Layer_1-2">
		<g id="_Group_">
			<g id="_Group_2">
				<path id="_Compound_Path_" class="st0" d="M106.7,43.7c-1.2,1-2.6,1.7-3.4,3.1c-0.4,0.8-0.4,1.7,0.2,2.4
					c0.1,0.2,0.3,0.2,0.5,0.1s0.5-0.2,0.8,0c0,0.1,0.1,0.1,0.2,0c0,0,0,0,0,0c0.2-0.2,0.4-0.1,0.6,0c0.2,0.1,0.4,0,0.4-0.2
					c0-0.2-0.1-0.5,0.1-0.6c0.2-0.1,0.2,0.3,0.3,0.4c0.1,0.1,0.3,0.2,0.4,0c0.3-0.4,0.3-0.9,0.1-1.4c-0.2-0.4-0.4-0.4-0.6,0
					c-0.2,0.4-0.4,0.5-0.9,0.2c-0.3-0.2-0.2-0.5-0.2-0.7s0.3-0.5,0.6-0.4c0.7,0.1,1.3,0.6,1.6,1.2c0.2,0.9-0.2,1.9-1,2.4
					c-0.8,0.6-1.8,0.7-2.7,0.3c-0.8-0.4-1.3-1.3-1.4-2.2c-0.2-1,0.1-2.1,0.7-2.9c-0.3,0-0.6,0.1-0.9,0.2c-1.9,0.3-3.9-0.1-5.5-1.1
					c-0.8-0.5-1.7-0.9-2.6-1.1c-0.8-0.2-1.6,0.1-2.2,0.7c-0.6,0.7-0.6,1.7,0.1,2.3c0.2,0.2,0.4,0.3,0.6,0.4c0.4,0.2,0.8,0.2,1.2,0.1
					c0.6-0.1,1-0.7,1-1.3c0-0.4-0.1-0.5-0.5-0.3c-0.2,0.1-0.4,0.1-0.6-0.1c-0.2-0.2-0.2-0.5,0-0.7c0.1-0.2,0.3-0.2,0.5-0.1
					c0,0,0,0,0,0c0.7,0.2,1.1,0.8,1,1.5c-0.1,0.3-0.3,0.6-0.6,0.8c-0.7,0.5-1.5,0.7-2.4,0.6c-1-0.2-1.7-1.3-1.4-2.3
					c0-0.1,0-0.2,0.1-0.2c0.1-0.3,0.3-0.6,0.4-1c-0.2,0-0.4,0.1-0.5,0.3c-0.1,0.2-0.2,0.4-0.4,0.5v-1c0.5-0.6,1.2-1,2-1.2
					c-0.2-0.1-0.4-0.3-0.4-0.6c-0.1-0.2-0.2-0.3-0.4-0.3c-0.1,0-0.3-0.1-0.3,0.1s0.1,0.2,0.2,0.2c0.1,0.1,0.2,0.1,0.1,0.3
					c-0.1,0.1-0.2,0.2-0.3,0.1c-0.3-0.1-0.5-0.4-0.4-0.6c0.1-0.4-0.1-0.5-0.4-0.6v-2.5c0.4,0.1,0.6,0.5,0.9,0.7
					c0.3,0.2,0.9,0.7,1.3,1.1c0.2,0.1,0.3,0.2,0.2,0.5c-0.1,0.3-0.1,0.5-0.5,0.5c-0.1,0-0.1,0,0,0.1c0.1,0.4,0.5,0.6,0.9,0.5
					c0.3,0,0.7,0.1,0.9,0.3c0.5,0.4,1,0.7,1.5,1c1.9,1.1,3.9,2.1,6.3,1.9c2.2-0.2,4.2-1.3,5.4-3.1c1.1-1.5,1.7-3.3,1.9-5.2
					c0.1-0.3,0.1-0.7,0.1-1c0-0.1,0-0.2,0-0.2c-0.4,0.8-1.3,1.2-2.2,1.1c-0.3,0-0.2,0.1-0.1,0.3c0.2,0.5,0.1,1-0.1,1.4
					c-0.6,0.8-1.5,1.1-2.4,0.9c-0.3-0.1-0.5-0.1-0.8-0.2l-0.1-0.1l0,0h0.1c0.1,0.4,0.4,0.5,0.7,0.6s0.4,0.3,0,0.5
					c-0.2,0.1-0.1,0.3,0,0.4l0.9,1c0.1,0.1,0.2,0.1,0.1,0.2c-0.1,0.1-0.2,0.1-0.3,0.1c-0.4-0.1-0.4,0.1-0.4,0.5
					c0.2,0.6-0.1,1.2-0.7,1.4c-0.1,0-0.2,0-0.3,0.1c-0.7,0.2-1.4,0.1-1.9-0.3c-0.3-0.2-0.4-0.5-0.3-0.8c0.1-0.4,0.3-0.7,0.7-0.9
					c0.3-0.1,0.6,0.1,0.7,0.4c0.1,0.3,0,0.6-0.2,0.9c-0.1,0.1-0.3,0.1-0.4-0.1c-0.1-0.1-0.1-0.3,0-0.4c0.1-0.1,0.3-0.2,0.2-0.4
					c-0.3,0-0.6,0.2-0.7,0.5c-0.1,0.3,0.1,0.5,0.3,0.7c0.5,0.4,1.3,0.4,1.8,0c0.4-0.3,0.4-0.7,0-1c-0.2-0.1-0.4-0.3-0.6-0.4
					c-0.2-0.2-0.4-0.4-0.6-0.3c-0.5,0.1-0.6-0.3-0.7-0.6c-0.1-0.6,0.2-1.2,0.6-1.7c0.1,0.6,0.3,1.1,0.6,1.6c-0.5-1-0.6-2.2-1-3.4
					c-0.2,0.7-0.5,1.4-1,2c-1.5,1.8-4.1,2-5.9,0.5c-0.1-0.1-0.2-0.2-0.3-0.2c-1.5-1.5-1.7-4-0.4-5.7c0.6-0.6,1.3-1,2.1-1.1
					c0.4-0.1,0.4-0.2,0.2-0.5c-2.1-3.4,0.6-7.3,3.6-8l0.3-0.1c-0.4-0.3-0.8-0.6-1.3-0.9c-0.4-0.2-0.5,0.1-0.7,0.4
					c0.2,0.1,0.3,0,0.4,0s0.3,0,0.3,0.2c0,0.1,0,0.3-0.2,0.3c-0.3,0.2-0.6,0.1-0.8-0.2c0,0,0-0.1,0-0.1c-0.1-0.3-0.2-0.6-0.2-0.9
					c0-0.2,0-0.3-0.3-0.2c-0.9,0.1-1.2-0.2-1.3-1.1c-0.1-0.6-0.1-1.2-0.2-1.8c0-0.6-0.4-1.1-0.9-1.2c-0.3-0.1-0.5,0-0.7,0.2
					c-0.2,0.2-0.3,0.5-0.2,0.8c0.1,0.3,0.3,0.2,0.5,0.1c0.2-0.1,0.3-0.3,0.6-0.1c0.1,0.1,0.2,0.3,0.1,0.4c-0.1,0.2-0.4,0.4-0.7,0.3
					c-0.6-0.2-1-0.8-1-1.4c0.1-0.5,0.6-0.9,1.1-0.9c0.5,0,1,0.2,1.3,0.6c0.4,0.4,0.7,0.8,1,1.2c0.6,0.7,1.5,1.1,2.4,1.1
					c0.4,0,0.7,0.2,0.8,0.6c0.1,0.4,0,0.9-0.2,1.2c-0.1,0.1-0.2,0.1-0.3,0s-0.1-0.1-0.1-0.1c-0.1-0.8-0.6-0.7-1.2-0.7
					c-0.7,0.1-1.4-0.1-1.8-0.6l0,0l0,0c0,0.5,0.2,0.7,0.8,0.7c0.4,0,0.8,0,1.2,0c0.2,0,0.3,0,0.4,0.2c0.3,1,1.1,1.3,2,1.5
					c0.4,0.1,0.8,0.2,1.2,0.2c-1.7-1.5-2.3-3.3-1-5.3c0.9-1.2,2.5-1.8,3.9-1.4c1.5,0.3,2.6,1.6,2.6,3.1l2.1-1.7l1.2-1
					c0.1-0.1,0.2-0.2,0.1-0.4c-0.6-0.7-1.3-1.2-2.1-1.7c-0.6-0.3-1.4-0.3-2,0c-0.3,0.1-0.5,0.9-0.4,1.4c0.1,0.5,0.5,0.8,0.9,0.7
					c0.3,0,0.4-0.1,0.2-0.4c-0.1-0.1-0.1-0.2-0.1-0.3c0-0.1,0-0.2,0.2-0.3c0.2-0.1,0.2,0,0.2,0.1c0.2,0.2,0.2,0.5,0.1,0.8
					c-0.1,0.2-0.3,0.4-0.5,0.4c-0.6,0-1.2-0.4-1.4-0.9c-0.2-0.6,0.1-1.3,0.6-1.7c0.4-0.2,0.7-0.4,1.1-0.5c-0.3,0-0.5,0-0.8,0
					c-0.3,0.1-0.6,0.2-0.4-0.3c0.1-0.2-0.2-0.2-0.3-0.2c-0.4,0-0.7-0.1-1.1-0.1c0.2-0.3,0.1-0.7-0.1-1c-0.3-0.4-0.3-1,0-1.5
					c0.3-0.4,0.8-0.7,1.3-0.6c0.4,0.1,0.8,0.5,0.8,0.9c0,0.2-0.2,0.4-0.3,0.4c-0.2,0.1-0.5,0.1-0.7-0.1c-0.1-0.1-0.2-0.3-0.1-0.5
					c0.1-0.2,0.2-0.2,0.4-0.1c0.2,0.2,0.2,0.3,0.3,0.4c0.1-0.3,0-0.6-0.3-0.7c-0.1,0-0.1,0-0.2,0c-0.6,0-1.2,0.4-1.3,1
					c0,0.3,0,0.5,0.4,0.5c0.5-0.1,1-0.1,1.4-0.1c0.9,0,1.3,0.4,1.3,1.2c0,0.3,0.2,0.6,0.5,0.8c0.2,0.1,0.3,0.3,0.5,0.3
					c0.1-0.2,0-0.3-0.1-0.5c-0.5-1.7,0.2-3.5,1.8-4.4c0.6-0.2,1.3-0.3,1.9-0.2c1.5-0.1,2.8,0.9,3,2.5c0.2,0.8,0,1.6-0.4,2.3h1.2
					c0.3,0,0.3-0.1,0.2-0.3c-0.9-1.5,0.1-3.6,1.4-4.3c0.2-0.1,0.5-0.2,0.7-0.2c0.4,0,0.9,0,1.3,0c0.9-0.1,1.8,0.4,2.2,1.2
					c0.7,1,0.9,2.3,0.7,3.5c0,0.1,0,0.1,0,0.3c0.3-0.2,0.6-0.4,0.8-0.6c0.1-0.1,0.1-0.2,0.1-0.3c-0.1-0.9,0.3-1.4,1.3-1.4
					c0.4,0,0.9,0.1,1.3,0.1c0.4,0,0.6-0.3,0.4-0.6c-0.2-0.4-0.6-0.7-1-0.8c-0.5,0-0.7,0.2-0.6,0.7c0.2-0.1,0.2-0.2,0.4-0.4
					c0.1-0.1,0.3-0.1,0.4,0.1c0.1,0.2,0,0.5-0.2,0.6c-0.3,0.1-0.6,0-0.8-0.2c-0.2-0.3,0-0.5,0.1-0.7c0.4-0.5,1.1-0.6,1.6-0.2
					c0.5,0.3,0.8,0.9,0.6,1.5c-0.1,0.2-0.2,0.4-0.3,0.6c-0.2,0.3-0.2,0.6,0,0.9c-0.2-0.1-0.5-0.1-0.8-0.1c-0.2,0-0.5,0.1-0.6,0.2
					c-0.2,0.5-0.5,0.3-0.9,0.3c-0.3,0-0.4-0.1-0.6,0.1c0.1,0.1,0.3,0.2,0.4,0.2c0.6-0.1,1.2,0.2,1.4,0.8c0.3,0.6,0.3,1.3-0.1,1.8
					c0,0-0.1,0.1-0.1,0.1l0,0c2-1,4-1,5.4,1s0.4,3.6-0.9,5.1c0.7-0.2,1.3-0.1,1.9-0.4c0.4-0.1,0.6-0.4,0.7-0.8
					c0.3-0.7,0.3-0.7,1-0.7c0.4,0,0.9,0,1.3-0.1c0.3-0.1,0.5-0.2,0.4-0.6c-0.3,0.6-0.8,0.6-1.3,0.6h-0.6c-0.8,0-0.7-0.1-1,0.7
					c-0.1,0.2-0.1,0.4-0.3,0.3s-0.2-0.2-0.2-0.4c-0.1-0.3-0.1-0.6-0.1-0.8c-0.1-0.4,0.2-0.8,0.6-0.8c0,0,0,0,0.1,0
					c0.4-0.1,0.8,0,1.2-0.1c0.4-0.1,0.8-0.4,1.2-0.7c0.6-0.5,0.9-1.1,1.4-1.6c0.3-0.3,0.6-0.4,1-0.4c0.7,0,1.1,0.2,1.2,0.8
					c0.1,0.6-0.2,1.3-0.8,1.6c-0.3,0.1-0.7-0.1-0.8-0.4c0-0.1,0-0.1,0-0.2c0-0.1,0.2-0.2,0.3-0.2c0,0,0,0,0,0c0.1,0,0.2,0.1,0.3,0.1
					c0.1,0.1,0.2,0.3,0.4,0.2c0.2-0.1,0.3-0.4,0.2-0.6c-0.1-0.3-0.2-0.6-0.6-0.7c-0.5,0-0.9,0.2-1.1,0.7c-0.3,0.7-0.4,1.4-0.4,2.2
					c0,0.3-0.1,0.6-0.2,0.8c-0.1,0.3-0.5,0.6-0.8,0.5c-0.3,0-0.5,0-0.4,0.4c0,0.3-0.1,0.6-0.4,0.8c-0.2,0.2-0.4,0.2-0.6,0.1
					c-0.1-0.1-0.2-0.2-0.1-0.4c0-0.2,0.2-0.1,0.3-0.1c0.1,0,0.3,0.1,0.3,0c0-0.2-0.1-0.3-0.3-0.3c-0.3-0.1-0.6-0.1-0.8,0.1
					c-0.4,0.3-0.8,0.6-1.3,0.8c0.4,0.1,0.8,0.1,1.2,0.2c1.5,0.4,2.7,1.5,3.3,3c0.6,1.5,0.6,3.2-0.2,4.7c-0.1,0.1-0.1,0.3-0.2,0.4
					c-0.1,0.1,0,0.2,0.1,0.2c0.4,0.1,0.8,0.2,1.2,0.4c1.7,0.7,2.5,2.5,2,4.3c-0.4,2.3-2.6,3.8-4.9,3.4c-0.1,0-0.2,0-0.3-0.1
					c-1.1-0.3-2-1-2.5-1.9c-0.3-0.4-0.5-0.9-0.8-1.3c-0.1,1-0.4,1.9-0.8,2.8c0,0.1-0.1,0.3-0.1,0.4c-0.1,0.1-0.1,0.2-0.1,0.3v0.1
					v-0.1c0.1-0.1,0.1-0.2,0.1-0.3c0.4-0.4,0.5-1,0.7-1.5c0.6,0.6,0.7,1.6,0.1,2.2c-0.1,0.1-0.2,0.2-0.4,0.3
					c-0.4,0.3-0.8,0.5-1.1,0.8c-0.4,0.3-0.4,0.5-0.2,0.8c0.2,0.3,0.6,0.5,1,0.4c0.5,0,1-0.3,1.2-0.8c0.1-0.3-0.2-0.6-0.7-0.7
					c0,0.2,0.1,0.2,0.2,0.4c0.1,0.1,0.2,0.3,0,0.5c-0.2,0.1-0.4,0.1-0.5-0.1c0,0,0,0,0,0c-0.2-0.4-0.1-0.8,0.3-1
					c0.3-0.2,0.6-0.1,0.8,0.2c0.4,0.4,0.4,0.9,0,1.3c-0.1,0.1-0.1,0.1-0.2,0.2c-0.7,0.4-1.6,0.4-2.3,0c-0.5-0.2-0.7-0.8-0.6-1.3
					c0.1-0.3,0-0.4-0.3-0.5c-0.2,0-0.3,0-0.4-0.2c0-0.2,0.2-0.2,0.3-0.2c0.4-0.3,0.6-0.7,1-1c0.1-0.1-0.1-0.2-0.2-0.3
					c-0.1-0.1-0.2-0.1-0.2-0.2s0.2-0.1,0.3-0.2c0.5-0.2,0.9-0.6,1.1-1.1c-0.4,0.4-0.8,0.6-1.3,0.8c-1.2,0.2-2.3-0.6-2.5-1.7
					c0-0.2,0-0.4,0-0.7c0-0.1,0.1-0.3-0.1-0.3c-0.8,0.1-1.6-0.3-2.1-1c0-0.1-0.1-0.1-0.2-0.1c0,0.8,0.1,1.6,0.3,2.3
					c0.3,1.6,1,3,1.9,4.3c2.1,2.8,5.8,3.7,9,2.2c1.4-0.6,2.7-1.4,3.9-2.2c0.5-0.3,1-0.3,1.5-0.6c0.2-0.1,0.4-0.2,0.2-0.5
					c-0.1-0.1-0.1-0.2-0.2-0.4c-0.3-0.7-0.1-1.1,0.6-1.2c0.1,0,0.2,0,0.3,0v1.8c-0.3,0.3-0.5,0.7-1.1,0.8c0.4,0,0.7,0.1,1.1,0.1v1.5
					c-0.2,0.1-0.3-0.1-0.4-0.2c-0.8-0.5-1.9-0.6-2.8-0.1c-0.9,0.4-1.8,0.9-2.7,1.3c-1.6,0.7-3.4,0.9-5.1,0.5c-0.1,0-0.3,0-0.4,0
					c0.4,0.4,0.7,0.9,0.9,1.5c0.5,1.6-0.4,3.3-1.9,3.8c0,0,0,0-0.1,0c-1.4,0.3-2.8-0.6-3.1-2.1c-0.1-0.3-0.1-0.6,0-0.9
					c0.3-0.7,1-1.2,1.7-1.3c0.2,0,0.3,0.2,0.4,0.4c0.1,0.2,0.1,0.5-0.1,0.7c-0.2,0.2-0.6,0.3-0.8,0c-0.1-0.1-0.1-0.2-0.2-0.3
					c-0.1-0.1-0.1-0.2-0.2-0.2c-0.1,0-0.2,0.1-0.3,0.2c-0.3,0.6-0.2,1.3,0.3,1.8c0.1-0.2,0.2-0.4,0.3-0.6c0-0.1,0.1-0.1,0.2-0.1
					c0.1,0,0.1,0.1,0.1,0.2V49c0,0.5,0.1,0.5,0.5,0.3c0.1,0,0.1-0.1,0.2-0.1c0.4,0.2,0.8-0.2,1.3,0c0.3,0.1,0.5,0,0.7-0.3
					c0.6-0.9,0.5-2.1-0.3-2.9c-0.4-0.4-0.8-0.8-1.3-1.1c-0.8-0.5-1.6-1.1-2.3-1.8L127,43l0,0l0.1,0.1c0.3,0.5,0.6,0.9,1.1,1.3
					c0.2,0.2,0.3,0.4,0,0.7c-0.6,0.7-1.2,1.3-2,1.8c-0.1,0.1-0.2,0.1-0.2,0.2c0,1-0.8,1.2-1.6,1.4c0.3,0.2,0.5,0.1,0.8,0
					c0.2-0.1,0.4-0.1,0.4,0.2c0,0.3,0.2,0.2,0.4,0.2c0.8,0,0.8,0,0.9,0.8c0.1,0.5,0.1,0.9,0,1.4c-0.3,0.5-1,0.7-1.5,0.4
					c-0.1-0.1,0-0.2-0.1-0.3c0.3,0.2,0.8,0.2,1.1,0c0.1-0.1,0.2-0.2,0.3-0.2c0.2-0.2,0.2-0.5,0.1-0.8c-0.1-0.2-0.4-0.1-0.6-0.1
					c-0.2,0.1-0.4,0.1-0.6,0.2c0.2,0.1,0.4,0.2,0.5,0.3c0.1,0.2,0,0.4-0.1,0.5c-0.2,0.1-0.3,0-0.4-0.1c-0.4-0.3-0.8-0.7-1.1-1.2
					c-0.2-0.2-0.2-0.4-0.1-0.7c0-0.1,0.1-0.2,0-0.2c-0.3-0.2-0.5-0.5-0.9-0.7c0.1,0.6,0.2,1.3,0.1,1.9c-0.1,0.7-0.5,1.3-1,1.8
					c-0.4,0.4-0.9,0.6-1.4,0.6c-0.8,0-1.6-0.1-2.4-0.5c-0.4-0.2-0.5-0.6-0.6-0.9c-0.2-0.3-0.2-0.5-0.3-0.7c-0.1-0.2-0.2-0.3-0.4-0.3
					c-0.2,0-0.2,0.2-0.3,0.3c-0.2,0.6-0.6,1.1-1,1.5c-0.3,0.4-0.8,0.6-1.3,0.5h-0.8c-1.3,0-2.4-0.9-2.7-2.1c-0.1-0.7-0.1-1.3,0-2
					c-0.3,0-0.5,0.2-0.7,0.4c-0.1,0.1-0.2,0.2-0.1,0.4c0.2,0.2,0,0.4-0.1,0.5c-0.1,0.1-0.3,0.3-0.5,0.4c-0.3,0.2-0.5,0.6-0.3,0.9
					c0.1,0.3-0.1,0.5-0.4,0.5c-0.2,0-0.5,0-0.7,0c-0.4,0-0.7-0.3-0.7-0.7c0,0,0,0,0,0c-0.1-0.6,0.1-1.2,0.1-1.8
					c0-0.1,0.1-0.2,0.2-0.2c0.1,0,0.5-0.1,0.7-0.1c0.2,0,0.4,0,0.4-0.3c0-0.3,0.1-0.2,0.3-0.2c0.2,0.2,0.5,0.2,0.8,0
					c-0.1-0.2-0.2-0.1-0.3-0.1c-0.6,0-1.1-0.5-1.2-1.1c0-0.2-0.1-0.4-0.3-0.4c-0.9-0.5-1.6-1.2-2.2-2c-0.1-0.2-0.1-0.3,0-0.4
					C106.1,44.4,106.6,44.1,106.7,43.7c0.3,0,0.5-0.3,0.7-0.6c0.8-1,1.4-2,1.9-3.2c0.5-1.3,0.9-2.7,1-4.2c0-1,0-2-0.2-3
					c0-0.1,0-0.1,0-0.2c-0.5-2.4-1.4-4.6-2.7-6.7c-0.6-1-1.2-1.9-1.9-2.8c-0.2-0.3-0.5-0.7-0.8-1.1c0.5,0.2,1.1,0.1,1.5-0.3
					c0.2-0.1,0.4-0.2,0.6-0.1c0.5,0.1,1,0,1.4-0.3c0.1,0,0.2-0.1,0.1-0.2c-0.1-0.5-0.3-1-0.5-1.4c-0.2-0.2-0.2-0.1-0.3,0.1
					c-0.1,0.2-0.2,0.5-0.4,0.6c-0.1,0.1-0.1,0.1-0.2,0.1c-0.1-0.1,0-0.2,0-0.2c0.1-0.3,0.1-0.7-0.2-1c-0.2-0.2-0.3-0.3-0.4,0.1
					c-0.1,0.4-0.3,0.3-0.5,0.2s-0.4-0.4-0.6-0.4c0,0.5,0,0.6-0.4,0.5c-1-0.3-1.3-0.1-1.6,0.9c0,0,0,0.1-0.1,0.2
					c-0.2,1.6,0.4,3.2,1.6,4.3c0.1,0.1,0.1,0.1,0.2,0.1c1.7,0.7,3,2,3.8,3.6c0.6,1.4,1,2.9,1.1,4.4c0.1,1.6,0.1,3.3-0.3,4.8
					c-0.3,1.6-0.9,3.1-1.8,4.5C107.4,42.9,107,43.2,106.7,43.7z M126.3,42.1L126.3,42.1L126.3,42.1L126.3,42.1c0-0.1,0-0.1-0.1-0.2
					c0-0.1,0-0.1-0.1-0.2c0-0.1,0-0.1-0.1-0.2l0,0c0-0.1,0-0.3-0.1-0.4c-0.4-0.9-0.7-1.8-0.9-2.8c-0.6-2.6-0.5-5.4,0.3-8
					c0.5-1.8,1.6-3.4,3.2-4.5c0.5-0.2,1-0.5,1.4-0.8c1.2-1,1.8-2.6,1.6-4.1c-0.3-1.2-0.5-1.4-1.6-1.1h-0.1c-0.1,0-0.2,0.1-0.3,0
					c-0.1-0.1-0.1-0.3,0-0.4c0-0.1,0.2-0.1,0.1-0.2c-0.3,0-0.4,0.3-0.6,0.4s-0.6,0.2-0.8-0.1c0-0.1,0-0.2-0.2-0.2
					c-0.1,0-0.2,0.1-0.3,0.2c-0.1,0.4-0.2,0.8-0.1,1.1c-0.2,0-0.3-0.1-0.4-0.3c-0.1-0.2-0.2-0.6-0.5-0.5c-0.3,0.1-0.3,0.4-0.4,0.6
					c-0.3,0.8,0,1.2,0.8,1.2c0.2,0,0.3,0,0.5-0.1c0.1,0,0.3-0.1,0.4,0c0.4,0.4,1.1,0.6,1.7,0.4c0,0.2-0.1,0.2-0.1,0.3
					c-1.4,1.8-2.7,3.7-3.7,5.7c-1,2-1.6,4.2-1.7,6.5c-0.1,1.6,0.1,3.1,0.6,4.6c0.2,0.9,0.6,1.7,1.1,2.4l0.1,0.1c0,0.1,0,0.1,0.1,0.2
					c0,0.1,0,0.1,0.1,0.2L126.3,42.1z M101.4,25.7c-2.6,0-5.2,3-4.3,5c1-1.5,2.5-1.1,3.7-0.4c0.1-0.1,0-0.2-0.1-0.3
					c-0.5-1-0.5-2.2,0-3.2C100.9,26.4,101.2,26.1,101.4,25.7l0.1,0v-0.1L101.4,25.7z M132.4,34.7l-0.2-0.5v1.1
					C132.4,35.1,132,34.8,132.4,34.7c0,0.4,0,0.7,0.1,1.1c0.1,1.9,1.5,3.4,3.4,3.7c0.3,0.1,0.6-0.1,0.8-0.3c0.3-0.3,0.4-0.8,0.7-1.2
					l0.1,0.1c0.2,0.2,0.1,0.6,0.4,0.5c0.3-0.1,0.1-0.4,0.1-0.7c0-0.7,0.1-0.7,0.8-0.6c0.3,0.1,0.3-0.1,0.3-0.3
					c0-0.2-0.1-0.3-0.2-0.5l-0.5-0.5c-0.1-0.1-0.2-0.1-0.1-0.3c0.1-0.1,0.2-0.1,0.3-0.1c0.3,0,0.6,0.1,0.8,0.2
					c0.2,0.1,0.3,0,0.3-0.2c-0.1-0.5-0.3-0.9-0.6-1.3c-0.4-0.6-1-0.8-1.7-0.7c-0.3,0.1-0.4,0.2-0.2,0.4c0.2,0.3,0.2,0.8,0,1.1
					c-0.2,0.4-0.6,0.3-1,0.3c-0.3,0-0.6-0.3-0.7-0.5c-0.1-0.2-0.1-0.2-0.4-0.1c-0.4,0.2-0.8,0.3-1.3,0.3
					C133.3,35.1,132.9,35,132.4,34.7L132.4,34.7z M128.2,22.9c-0.6,0.4-1.5,0.2-1.9-0.4c0-0.1-0.1-0.1-0.1-0.2
					c-0.3-0.4-0.7-0.7-1.1-0.9l-0.5-0.3c-0.9-0.7-1.7-1.5-2.5-2.4c-0.7-0.8-1.5-1.5-2.4-2.1c-1-0.7-2.2-0.9-3.4-0.7
					c-1.2,0.3-2.3,0.9-3.1,1.7c-0.7,0.6-1.2,1.3-1.9,2c-0.7,0.8-1.6,1.5-2.6,2c-0.3,0.1-0.5,0.3-0.6,0.6c-0.4,0.7-1.2,1-1.9,0.6
					c0,0-0.1,0-0.1,0c-0.1,0-0.2-0.1-0.3,0c-0.1,0.1,0.1,0.2,0.2,0.3c1.1,1.1,2,2.3,2.6,3.7c0.4,0.8,0.8,1.7,1,2.6
					c0.5,1.6,0.8,3.3,0.8,5.1c0.1,1.9-0.2,3.8-0.7,5.5c-0.5,1.8-1.6,3.4-3,4.6c-0.2,0.2-0.1,0.2,0.1,0.3c0.5,0.3,1,0.8,1.4,1.2
					c1.6,1.3,3.5,2,5.5,2.1c1.1,0,2.3,0.3,3.3,0.9c0.1,0.1,0.3,0.1,0.4,0c0,0,0,0,0,0c0.8-0.6,1.7-0.9,2.6-0.9c1.4,0,2.9-0.4,4.2-1
					c1.1-0.5,2.2-1.3,3.1-2.1c0.3-0.3,0.3-0.5,0-0.8c-0.4-0.3-0.8-0.7-1.2-1.1c-1.4-1.9-2.2-4.1-2.4-6.4c-0.2-1.5-0.1-3.1,0.2-4.6
					c0.4-2.8,1.5-5.4,3-7.8C127.4,24,127.8,23.5,128.2,22.9z M108.1,32.3c0,0.5-0.1,1.1-0.2,1.6c0,0.2-0.1,0.3-0.3,0.3
					c-0.4-0.1-0.9-0.1-1.3,0.1c-0.7,0.2-0.8,0.3-0.5,1c0,0.1,0.1,0.2,0.2,0.3c0.1,0.1,0,0.2,0.2,0.2c0.2-0.1,0.1-0.1,0.1-0.2
					c0-0.6,0.5-1,1.1-1c0.5-0.1,0.9,0.2,1,0.6c0,0.1,0,0.3,0,0.4c-0.1,0.2-0.3,0.2-0.5,0.3c-0.1,0-0.2-0.1-0.2-0.2c0,0,0,0,0,0
					c0-0.2,0.2-0.2,0.3-0.2c0.1,0,0.2-0.1,0.2-0.2c-0.1-0.3-0.4-0.5-0.7-0.5c-0.3,0-0.7,0.1-0.8,0.4c0,0.4,0.1,0.8,0.5,1
					c0.3,0.2,0.7,0.2,0.9,0c0.8-0.6,1.3-1.4,1.3-2.4c0-1-0.1-2-0.5-2.9c-0.5-1.7-1.5-3.2-2.9-4.3c-1.1-1.1-2.8-1.1-4-0.1
					c-1,0.7-1.3,2.2-0.5,3.2c0.1,0.1,0.2,0.2,0.3,0.3c0.6,0.5,0.8,0.6,1.3,0c0.6-0.7,1.4-1.1,2.3-1.1c0.3,0,0.3-0.1,0.2-0.4
					s-0.1-0.2-0.2-0.4c-0.1-0.4-0.3-0.4-0.5-0.1c-0.1,0.2-0.4,0.3-0.6,0.2c-0.3-0.1-0.4-0.4-0.4-0.7c0-0.3,0.2-0.5,0.5-0.6
					c0.5-0.1,0.9,0.1,1.2,0.5c0.2,0.3,0.3,0.7,0.3,1.1c0,0.2,0.2,0.4,0.4,0.5c0.3,0.1,0.6,0.3,0.8,0.5
					C107.8,30.4,108.1,31.4,108.1,32.3z M128.3,35.7c0.3-0.3,0.4-0.6,0.5-1c0.1-0.2,0-0.3-0.2-0.4c0,0,0,0-0.1,0
					c-0.5-0.2-1.1-0.3-1.7-0.2c-0.3,0.1-0.4,0-0.4-0.3c-0.1-0.9,0-1.8,0.1-2.7c0.1-0.9,0.7-1.6,1.5-1.9c0.3-0.1,0.6-0.3,0.6-0.7
					c0-0.5,0.2-1,0.7-1.3c0.6-0.4,1.1-0.2,1.3,0.4c0.1,0.2,0,0.5-0.3,0.6c-0.2,0.2-0.5,0.1-0.7-0.1c-0.4-0.4-0.4-0.4-0.6,0.1
					l-0.1,0.1c-0.1,0.3-0.1,0.5,0.3,0.5c0.6,0,1.2,0.2,1.6,0.6l0.9,0.8c0.1,0.1,0.2,0.2,0.4,0.1c0.6-0.2,1-0.7,1.2-1.3
					c0.3-0.9,0-1.9-0.7-2.5c-0.7-0.7-1.7-1-2.6-0.8c-1.4,0.4-2.6,1.4-3.3,2.7c-0.8,1.1-1.3,2.3-1.6,3.6c-0.2,0.8-0.2,1.6,0,2.4
					c0.2,0.7,0.6,1.3,1.2,1.6c-0.3-0.7-0.2-1.2,0.3-1.4C127.3,34.5,128.1,34.9,128.3,35.7C128.3,35.7,128.3,35.7,128.3,35.7z
					 M96.3,35.8c-0.1,0.2-0.3,0.4-0.5,0.6c-0.1,0.1-0.2,0.3-0.3,0.4c-0.1,0.2-0.2,0.4-0.1,0.6s0.3,0,0.5,0c0.3,0,0.5,0,0.5,0.4
					c0,0.3,0,0.5,0.1,0.7c0,0.1,0,0.2,0.1,0.2c0.1,0,0.2-0.1,0.2-0.2c0-0.1,0-0.1,0.1-0.2s0.1-0.2,0.2-0.2c0.2,0,0.1,0.1,0.2,0.2
					s0.1,0.3,0.2,0.4c0.3,0.7,1.1,1,1.7,0.8c0,0,0.1,0,0.1,0c0.4-0.2,0.9-0.5,1.2-0.8c0.5-0.6,1-1.2,1.3-1.9
					c0.5-0.8,0.6-1.8,0.5-2.8c-0.1,0.7-0.7,1.3-1.4,1.3c-0.5,0.1-1,0-1.5-0.2c-0.3-0.1-0.5-0.3-0.6,0.2c0,0.2-0.2,0.3-0.4,0.4
					c-0.5,0.2-1-0.1-1.2-0.6c-0.1-0.3,0-0.7,0.2-0.9c0.2-0.2,0.1-0.3-0.1-0.4c-0.3-0.1-0.6-0.1-0.9,0c-0.8,0.3-1.4,1.1-1.5,2
					c0,0.2,0.2,0.2,0.3,0.2C95.5,35.8,95.9,35.7,96.3,35.8L96.3,35.8z M106.8,30.5c0.2,1.3-0.6,2-1.9,1.7c-0.4-0.1-0.7-0.3-0.8-0.7
					c-0.1-0.2-0.1-0.4-0.3-0.4s-0.7-0.1-0.8,0.3c-0.2,0.5-0.4,1-0.5,1.5c-0.1,1-0.1,2,0.1,3c0.1,1,0.5,2,1.2,2.8
					c0.6,0.7,1.6,0.8,2.3,0.2c0.1-0.1,0.2-0.1,0.2-0.2c0.4-0.5,0.4-1.3,0-1.8c-0.1-0.2-0.3-0.3-0.5-0.2c-0.2,0-0.2,0.2-0.2,0.4
					s-0.1,0.4-0.3,0.4c-0.2,0-0.3-0.2-0.5-0.4c-0.1-0.2,0-0.3,0.1-0.5s0.5-0.2,0.7-0.2c0.2-0.1,0.3-0.1,0.1-0.3
					c-0.2-0.3-0.4-0.7-0.5-1.1c-0.1-0.5-0.3-1.1-0.6-1.5c-0.2-0.2-0.1-0.4,0.1-0.6c0.1-0.2,0.4-0.3,0.7-0.2c0.3,0,0.3,0.2,0.3,0.4
					c0,0.2,0,0.2,0.1,0.3c0.4-0.3,0.9-0.4,1.3-0.4c0.2,0,0.4-0.1,0.5-0.3C107.9,31.8,107.5,30.9,106.8,30.5L106.8,30.5z M127.4,30.6
					c-0.6,0.6-0.8,1.4-0.6,2.2c0.1,0.1,0.1,0.3,0.2,0.3c0.5-0.1,1.1,0.1,1.5,0.4c0-0.1,0-0.1,0-0.2c0-0.3,0.2-0.6,0.5-0.6
					c0.3-0.1,0.5,0.1,0.6,0.3c0.2,0.3,0.2,0.5-0.1,0.7c-0.1,0.1-0.2,0.2-0.2,0.4c-0.3,0.7-0.4,1.5-0.8,2.1c-0.1,0.2,0.1,0.2,0.2,0.2
					c0.3,0,0.5,0.2,0.7,0.4c0.1,0.1,0.1,0.3,0,0.4c-0.1,0.1-0.3,0.3-0.5,0.2s-0.2-0.2-0.2-0.4c0-0.4-0.2-0.5-0.6-0.3
					c-0.4,0.2-0.6,0.7-0.4,1.1c0.1,0.6,0.4,1.1,1,1.3c1,0.2,2-0.3,2.4-1.2c0.7-1.6,0.9-3.4,0.6-5.2c-0.1-0.5-0.2-1-0.4-1.5
					c-0.2-0.4-0.6-0.1-0.8-0.2c-0.3-0.1-0.3,0.1-0.3,0.3c-0.1,0.5-0.6,0.9-1.1,0.8C128.2,32.2,127.6,31.7,127.4,30.6L127.4,30.6z
					 M120.8,12.7c-0.1-0.2,0.2-0.4,0-0.6c-0.2-0.1-0.2,0.2-0.4,0.3c-0.1,0.1,0,0.1-0.1,0.1c-0.3,0.3-0.6,0.3-0.8-0.1
					c0-0.1-0.1-0.2-0.2-0.2c-0.1,0-0.2,0.1-0.2,0.2c0,0.3,0,0.7,0,1c0,0.1,0,0.3-0.1,0.3c-0.2,0-0.3-0.1-0.4-0.2
					c-0.1-0.3-0.2-0.5-0.4-0.7c-0.2,0.4-0.4,0.8-0.4,1.2c0,0.5,0,1,0.5,1.3c0.2,0.2,0.5,0.3,0.6-0.2c0-0.3,0.3-0.5,0.6-0.6
					c0.3,0,0.6,0.1,0.8,0.4c0.2,0.3,0.1,0.6-0.1,0.9c-0.1,0.1-0.2,0.2-0.3,0.3c-0.1,0.1-0.1,0.2,0,0.2c0.6,0.4,1.2,0.8,1.7,1.3
					c0.2,0.2,0.4,0.1,0.5-0.1c0.3-0.4,0.5-0.9,0.7-1.3c0.4-1,0.4-2.1,0-3.1c-0.2-0.6-0.8-0.9-1.3-0.7c0,0-0.1,0-0.1,0.1
					C121.2,12.5,121.1,12.7,120.8,12.7z M115.1,13.7c0.1-0.4,0.1-0.8,0-1.2c0-0.1,0-0.2-0.2-0.2s-0.1,0.1-0.2,0.2
					c-0.2,0.4-0.4,0.4-0.8,0.1c-0.1-0.1-0.2-0.4-0.5-0.4c0,0.6,0,0.6-0.6,0.3c-0.4-0.2-0.9-0.1-1.2,0.2c-0.3,0.4-0.5,0.8-0.6,1.3
					c0.1,1.1,0.4,2.2,0.9,3.1c0.2,0.5,0.4,0.6,0.9,0.2c0.5-0.4,0.8-0.7,1.2-1.1c0.2-0.1,0.2-0.2,0-0.4c-0.3-0.2-0.4-0.7-0.2-1
					c0.1-0.1,0.2-0.2,0.4-0.3c0.5-0.2,0.9,0,1,0.6c0.1,0.3,0.2,0.3,0.4,0.2c0.7-0.5,0.9-1.5,0.3-2.3c-0.1-0.1-0.2-0.2-0.3-0.3
					C115.8,13.4,115.6,13.6,115.1,13.7z M126.7,18.4c-0.2-0.1-0.3,0-0.5,0c-0.2,0-0.3,0-0.5,0c-0.5-0.1-0.7-0.5-0.4-0.9
					c0.1-0.1,0.2-0.4,0.3-0.2s0.1,0.3,0,0.5s-0.2,0.3-0.1,0.4c0.2,0.1,0.4,0.2,0.5,0.1c0.4-0.1,0.6-0.4,0.7-0.7
					c0.2-0.4,0-0.9-0.3-1.2c-0.7-0.5-1.6-0.5-2.3-0.1c-0.6,0.4-1.2,0.9-1.7,1.5c-0.3,0.3-0.2,0.5,0.1,0.7c0.5,0.4,1.1,0.8,1.6,1.2
					c0.5,0.4,1,0.8,1.5,1.3c0-0.5,0.1-0.9,0.3-1.4C126.2,19.2,126.5,18.8,126.7,18.4z M137.4,30.8c0.2-1.4-0.3-2.8-1.3-3.7
					c-1-0.9-2.6-1.5-3.2-1.2c1.4,1.2,1.4,2.7,0.6,4.4C134.9,29.5,136.2,29.3,137.4,30.8z M101.8,32.8c-0.3-0.9-0.9-1.7-1.7-2.2
					c-0.7-0.5-1.7-0.3-2.2,0.4c0,0-0.1,0.1-0.1,0.1c-0.3,0.4-0.4,0.9-0.1,1.4c0.2,0.3,0.5,0.5,0.8,0.6c0.2,0,0.4,0,0.3-0.3
					s0-0.4,0.2-0.5c0.2-0.1,0.4-0.1,0.6,0.1c0.1,0.2,0.1,0.4,0,0.5c-0.1,0.2-0.3,0.3-0.4,0.4c-0.2,0.1-0.5,0.1-0.5,0.3
					c0,0.2,0.4,0.3,0.6,0.4c0.1,0,0.2,0,0.3,0c0.5,0,0.5,0,0.4-0.5c-0.2-0.7,0.1-1,0.7-1C101,32.4,101.4,32.5,101.8,32.8z
					 M135.9,33.4c-0.5-0.1-0.9-0.2-1-0.7c0-0.1-0.2-0.3,0-0.4c0.2-0.1,0.4-0.1,0.6,0c0.2,0.1,0.2,0.2,0.1,0.4c0,0.4,0,0.5,0.4,0.4
					c0.4-0.1,0.7-0.4,0.8-0.8c0.2-0.9-0.4-1.7-1.3-1.9c-0.3-0.1-0.6,0-0.9,0.1c-0.7,0.3-1.3,0.9-1.7,1.6c-0.1,0.1-0.2,0.3-0.1,0.4
					c0.1,0.1,0.3,0,0.5,0c1-0.3,1.5,0.2,1.3,1.2c0,0.1-0.1,0.3,0.2,0.3C135.1,34,135.6,33.8,135.9,33.4z M114.1,51.4
					c0.2-0.3,0.4-0.5,0.8-0.4s0.5,0.2,0.5-0.3c0-0.1,0-0.2,0-0.3c0-0.1-0.1-0.3,0.1-0.3c0.2-0.1,0.3,0.1,0.3,0.2
					c0,0.1,0.1,0.1,0.1,0.2c0.1,0.1,0.1,0.2,0.2,0.2c0.1,0,0.1-0.2,0.1-0.2c0-0.1,0.1-0.1,0.1-0.2c0.2-0.5,0.1-0.6-0.4-0.8
					c-1.2-0.4-2.5-0.7-3.8-0.8c-0.3,0-0.3,0-0.3,0.3c0,0.5,0.1,1.1,0.3,1.5c0.4,0.8,0.6,0.9,1.4,0.6
					C113.9,50.9,114.2,50.8,114.1,51.4L114.1,51.4z M120.3,51.4c0-0.5,0.2-0.5,0.5-0.4c0.3,0.1,0.7,0.4,1.1,0
					c0.5-0.6,0.7-1.3,0.7-2.1c0-0.2-0.1-0.3-0.3-0.3c-0.2,0-0.6,0.1-0.9,0.1c-1,0.1-2.1,0.4-3.1,0.7c-0.2,0-0.3,0.2-0.2,0.3
					c0,0,0,0,0,0c0,0.2,0.1,0.5,0.3,0.6c0.2,0.1,0.2-0.1,0.3-0.3c0.1-0.1,0.1-0.1,0.2-0.1c0.1-0.1,0.2-0.1,0.3-0.1
					c0.1,0.1,0,0.2,0,0.2c-0.1,0.2-0.1,0.5,0,0.7c0,0.1,0.1,0.2,0.2,0.1C119.6,50.9,119.9,51,120.3,51.4L120.3,51.4z M105.3,32
					c0.5,0,0.9-0.4,1-0.8c0.2-0.3,0.1-0.8-0.2-1c-0.2-0.2-0.4-0.3-0.6,0c-0.2,0.3-0.5,0.5-0.7,0.8c-0.2,0.3-0.4,0.2-0.3,0.5
					C104.7,31.8,105,31.9,105.3,32L105.3,32z M129.3,32c0.3,0,0.6-0.3,0.7-0.6c0-0.1,0.1-0.2-0.1-0.3c-0.4-0.1-0.5-0.4-0.8-0.7
					s-0.3-0.4-0.6-0.4c-0.2,0.1-0.4,0.2-0.5,0.5C128,31.2,128.5,31.8,129.3,32C129.2,31.9,129.2,31.9,129.3,32L129.3,32z
					 M126.4,36.2c0.2,0.3,0.7,0.3,1,0.1c0,0,0.1-0.1,0.1-0.1c0.3-0.3,0.4-0.7,0.1-1.1c-0.3-0.3-0.8-0.3-1.2-0.1
					c-0.2,0.2-0.3,0.3,0,0.4c0.2,0,0.3,0.2,0.3,0.4C126.8,36.1,126.5,36.1,126.4,36.2L126.4,36.2z M109,50.5
					c-0.2-0.1-0.5-0.2-0.7-0.2c-0.2-0.1-0.4,0-0.4,0.1c0,0,0,0,0,0c-0.1,0.4,0.1,0.8,0.4,1.1c0.3,0.1,0.7,0.1,0.9-0.2
					c0.1-0.1,0.1-0.2,0-0.4c-0.1,0.2-0.2,0.4-0.5,0.4c-0.1,0-0.1-0.1-0.1-0.2C108.4,50.7,108.7,50.7,109,50.5z M106.2,34.1
					c0.4,0,0.7-0.2,1-0.5c0.1-0.2,0-0.2-0.2-0.2c-0.4,0-0.8,0.2-1,0.6C105.9,34.1,106,34.1,106.2,34.1z M132.2,32.3
					c0.2-0.6,0.4-1.1,0.8-1.5l-0.8,0.2c-0.1,0-0.2,0-0.2,0.1C132.1,31.5,131.9,32,132.2,32.3L132.2,32.3z M127.6,33.3
					c-0.2,0-0.4,0-0.3,0.3c0.2,0.3,0.6,0.5,1,0.5c0.1,0,0.2-0.1,0.1-0.2C128.2,33.6,127.9,33.4,127.6,33.3L127.6,33.3z M130.6,30.5
					c-0.4-0.5-0.8-0.9-1.3-0.6C129.6,30.4,130.1,30.7,130.6,30.5L130.6,30.5z M103.8,30.6c0.8-0.1,1.1-0.3,1.4-0.7
					C104.6,29.8,104,30.1,103.8,30.6L103.8,30.6z M102.3,32.1c0.1-0.4,0.2-0.8,0.1-1s-0.5-0.2-0.9-0.2
					C101.9,31.3,102.1,31.7,102.3,32.1z M125.3,47.6c-0.4,0.1-0.8,0.3-1.2,0.6C124.6,48.2,125.1,48,125.3,47.6L125.3,47.6z
					 M109,47.5c0.4,0.5,0.7,0.7,1.1,0.5C109.7,48.1,109.5,47.6,109,47.5z M92.3,41.2c-0.1-0.3-0.1-0.3-0.3-0.4L92.3,41.2z
					 M126.8,42.8L126.8,42.8L126.8,42.8L126.8,42.8C126.8,42.8,126.8,42.8,126.8,42.8z M128.3,22.8L128.3,22.8L128.3,22.8z"/>
				<path id="_Path_" class="st0" d="M142.5,46.9c-0.4,0.3-1,0.5-1.5,0.6c-0.8,0.1-1.5-0.3-1.7-1.1c-0.1-0.4-0.2-0.8-0.1-1.3
					c0.2-0.4,0.6-0.7,1.1-0.6c0.3,0.1,0.4,0.4,0.4,0.6c0,0,0,0,0,0c0,0.3-0.3,0.4-0.5,0.4c-0.1,0-0.1,0-0.2-0.1
					c-0.4-0.2-0.5-0.1-0.5,0.3c0,0.7,0.6,1.3,1.3,1.3c0.1,0,0.2,0,0.2,0c0.5-0.1,0.9-0.3,1.3-0.6c0.1-0.1,0.1-0.1,0.2-0.1V46.9z"/>
				<path id="_Path_2" class="st0" d="M90.5,46.6c0.2,0.1,0.2,0.3,0.3,0.5c0.2,0.4,0.6,0.8,1,1.1c-0.6,0-0.9-0.4-1.3-0.5L90.5,46.6z
					"/>
				<path id="_Path_3" class="st0" d="M131,41.3L131,41.3L131,41.3L131,41.3z"/>
				<path id="_Path_4" class="st0" d="M101.4,25.7L101.4,25.7L101.4,25.7L101.4,25.7L101.4,25.7z"/>
				<path id="_Path_5" class="st0" d="M103.7,39.4h-0.1l0,0H103.7L103.7,39.4z"/>
				<path id="_Path_6" class="st0" d="M126.3,42.1L126.3,42.1L126.3,42.1L126.3,42.1L126.3,42.1z"/>
				<polygon id="_Path_7" class="st0" points="128.3,22.9 128.3,22.8 128.3,22.8 				"/>
				<polygon id="_Path_8" class="st0" points="97.6,21.8 97.6,21.8 97.6,21.8 				"/>
				<path id="_Path_9" class="st0" d="M125.9,41.5L125.9,41.5L125.9,41.5L125.9,41.5L125.9,41.5z"/>
				<path id="_Compound_Path_2" class="st0" d="M111.2,28.9c-0.1-0.5-0.1-0.6,0.4-0.8c0.1,0,0.2-0.1,0.2-0.2c-0.2-0.5-0.5-0.8-1-1
					c-0.3-0.1-0.7,0-0.9,0.3c-0.2,0.3-0.2,0.8,0.1,1c0,0,0,0,0,0c-0.5,0-0.8-0.4-0.8-0.8c-0.1-0.6,0.3-1,1.3-1.3
					c-0.3-0.3-0.7-0.6-1-0.9c-0.4-0.4-0.7-0.9-0.8-1.4c0-0.5,0.1-0.9,0.4-1.2c0.2-0.3,0.5-0.4,0.8-0.2c0.1,0.1,0.2,0.2,0.3,0.4
					c-0.6-0.1-0.8,0.1-0.7,0.8c0.3,0.8,0.8,1.4,1.5,1.9c0.4,0.4,0.9,0.7,1.3,1.1c0.7,0.7,1,1.8,0.7,2.8c-0.2-0.3-0.1-0.6-0.2-0.9
					c0-0.1,0-0.3-0.2-0.3s-0.1,0.2,0,0.3c0.1,0.8,0.1,1.5,0,2.3c0,0.2,0,0.4-0.1,0.6c0.2,0,0.4,0,0.5,0c0.2,0,0.4-0.1,0.4-0.5
					c0-2,0-4,0-6c0-0.5-0.2-0.8-0.7-0.9c-0.2,0-0.3-0.2-0.3-0.4c0-0.2,0.2-0.2,0.3-0.2c1.4,0,2.8,0,4.3,0c1.1,0,2.1,0.7,2.6,1.7
					c0.5,0.9,0.5,2.1-0.1,3c-0.2,0.4-0.6,0.7-1,0.8c0.5,0.2,0.9,0.5,1.3,0.8c0.1,0.1,0.2,0,0.3-0.1l0.8-0.9c0.7-0.7,1.5-1.2,2.3-1.5
					c0.5-0.1,0.9-0.3,1.3-0.6c0.1,0.3-0.1,0.5-0.2,0.6c-0.1,0.2-0.4,0.4-0.6,0.6c-0.3,0.3-0.4,0.7-0.3,1.1c-0.1-0.1-0.2-0.1-0.3-0.1
					c-0.3-0.5-0.6-0.2-0.9,0c-0.5,0.4-1,0.9-1.5,1.4c-0.2,0.2-0.1,0.3,0,0.5c0.5,0.9,0.6,1.9,0.4,2.8c-0.2,1-1.1,1.8-2.2,2
					c-0.3,0-0.5,0.3-0.5,0.6c-0.4,2-0.5,4-0.7,6.1c0,0.4,0.3,0.6,0.4,1h-1.8c-0.1-0.1,0-0.2,0.1-0.2c0.2-0.3,0.3-0.7,0.3-1.1
					c-0.1-1.9-0.4-3.9-0.8-5.8c-0.1-0.3-0.2-0.4-0.5-0.4c-1.1,0.1-2.1-0.1-3.1-0.5c-1.1-0.4-1.7-1.7-1.2-2.9c0-0.1,0.1-0.2,0.2-0.3
					c0.5-0.8,0.7-1.6,0.8-2.5c0-0.2,0-0.4-0.1-0.6c-0.1-0.2-0.1-0.5-0.4-0.5S111.3,28.8,111.2,28.9z M114.9,28.2
					c0.8,0.6,2,0.7,2.9,0.1c0.4-0.2,0.7-0.6,0.8-1c0.3-0.8,0.2-1.8-0.3-2.6c-0.2-0.4-0.6-0.6-1-0.6c-0.9,0-1.8,0-2.6,0
					c-0.2,0-0.3,0.1-0.3,0.3c0,0.2,0,0.5,0,0.7c0,1.2,0,2.5,0.1,3.7c0,0.6,0,1.2-0.1,1.9c-0.1,0.3,0.1,0.6,0.4,0.8
					c0.3,0.2,0.6,0.5,0.8,0.9c0.4,0.7,0.7,1.5,0.9,2.3c0.2,0.6,0.6,0.3,0.9,0.4c0.3,0.1,0.4-0.2,0.4-0.4c0.2-1.4,0.7-2.8,1.4-4
					c0.1-0.2,0-0.3-0.1-0.5c-0.4-0.3-0.8-0.5-1.2-0.6c-0.6-0.1-1.2-0.2-1.8-0.2C115.5,29.3,114.8,29,114.9,28.2z M114.5,32.4
					c-0.2,0.7,0,1.4,0.4,1.9h-2c0.4-0.6,0.6-1.3,0.5-2c0-0.2-0.1-0.3-0.3-0.2c-0.6,0-1.1,0.4-1.3,0.9c-0.1,0.6,0.2,1.2,0.8,1.5
					c0.9,0.5,1.9,0.6,2.8,0.6c0.2,0,0.2-0.1,0.2-0.2C115.4,34,115,33.1,114.5,32.4z M120,31.6c-0.6,1-0.9,2.1-1.1,3.2
					C119.9,34.5,120.3,32.9,120,31.6L120,31.6z M117.2,37.5c0.1,0,0.1-0.1,0.2-0.2c0.1-0.4,0.1-0.8,0.2-1.2c0-0.1,0.1-0.2,0-0.3
					c-0.2,0-0.4,0-0.6,0c-0.1,0,0,0.2,0,0.3C117,36.6,117.1,37.1,117.2,37.5z"/>
			</g>
			<g id="_Group_3">
				<path id="_Compound_Path_3" class="st0" d="M114.9,44.4v0.4h0.5v-0.4h0.1v1h-0.1v-0.5h-0.5v0.5h-0.1v-1H114.9z"/>
				<path id="_Compound_Path_4" class="st0" d="M116.1,45.4L116.1,45.4L116.1,45.4c0,0-0.1,0-0.2,0c-0.1,0-0.2-0.1-0.2-0.2
					c0,0,0,0,0,0c0-0.2,0.1-0.3,0.4-0.3l0,0c0-0.1,0-0.2-0.2-0.2c-0.1,0-0.1,0-0.2,0v-0.1c0.1,0,0.1-0.1,0.2-0.1
					c0.2,0,0.3,0.2,0.3,0.3v0.3c0,0.1,0,0.1,0,0.2L116.1,45.4z M116.1,45c-0.1,0-0.3,0-0.3,0.2c0,0.1,0,0.1,0.1,0.1c0,0,0,0,0,0
					c0.1,0,0.1,0,0.2-0.1l0,0L116.1,45z"/>
				<path id="_Compound_Path_5" class="st0" d="M116.5,44.5C116.5,44.5,116.5,44.5,116.5,44.5c-0.1,0.1-0.2,0-0.2,0c0,0,0,0,0,0
					C116.4,44.4,116.4,44.4,116.5,44.5L116.5,44.5C116.5,44.4,116.5,44.4,116.5,44.5z M116.4,45.4v-0.7h0.1v0.7H116.4z"/>
				<path id="_Compound_Path_6" class="st0" d="M116.7,44.9c0-0.1,0-0.1,0-0.2h0.1v0.1l0,0c0-0.1,0.1-0.2,0.2-0.2l0,0v0.1l0,0
					c-0.1,0-0.2,0.1-0.2,0.2v0.4h-0.1L116.7,44.9z"/>
				<path id="_Compound_Path_7" class="st0" d="M117.2,45.2c0.1,0,0.1,0,0.2,0c0.1,0,0.1,0,0.1-0.1s0-0.1-0.1-0.1
					c-0.1,0-0.2-0.1-0.2-0.2c0-0.1,0.1-0.2,0.2-0.2c0,0,0,0,0,0c0.1,0,0.1,0,0.2,0v0.1c0,0-0.1,0-0.1,0c-0.1,0-0.1,0-0.1,0.1
					c0,0.1,0.1,0.1,0.1,0.1c0.1,0,0.2,0.1,0.2,0.2s-0.1,0.2-0.3,0.2C117.3,45.3,117.3,45.3,117.2,45.2L117.2,45.2z"/>
				<path id="_Compound_Path_8" class="st0" d="M117.9,44.5v0.2h0.2v0.1h-0.2v0.4c0,0.1,0,0.1,0.1,0.1h0.1v0.1H118
					c-0.1,0-0.1,0-0.1-0.1c0-0.1,0-0.1,0-0.2v-0.4h-0.1v-0.1h0.1L117.9,44.5L117.9,44.5z"/>
				<path id="_Compound_Path_9" class="st0" d="M118.3,44.7l0.2,0.4c0,0,0,0.1,0,0.2l0,0c0,0,0-0.1,0-0.2l0.1-0.4h0.1l-0.2,0.5
					c0,0.2-0.1,0.3-0.2,0.4c0,0-0.1,0.1-0.2,0.1v-0.1l0.1-0.1c0,0,0.1-0.1,0.1-0.1l0,0l0,0l-0.3-0.6L118.3,44.7z"/>
				<path id="_Compound_Path_10" class="st0" d="M118.9,44.3h0.1v1h-0.1V44.3z"/>
				<path id="_Compound_Path_11" class="st0" d="M119.3,45c0,0.1,0.1,0.2,0.2,0.2c0,0,0,0,0,0c0.1,0,0.1,0,0.2,0v0.1
					c-0.1,0-0.2,0-0.2,0c-0.2,0-0.3-0.1-0.3-0.3c0,0,0,0,0,0c0-0.2,0.1-0.4,0.3-0.4c0,0,0,0,0,0c0.2,0,0.3,0.1,0.3,0.3c0,0,0,0,0,0
					c0,0,0,0.1,0,0.1L119.3,45z M119.7,44.9c0-0.1-0.1-0.2-0.2-0.2c0,0,0,0,0,0c-0.1,0-0.2,0.1-0.2,0.2H119.7z"/>
				<path id="_Compound_Path_12" class="st0" d="M114.6,46.7L114.6,46.7c-0.2,0-0.3,0-0.4,0c-0.2,0-0.3-0.1-0.3-0.3c0,0,0,0,0,0
					c0-0.1,0.1-0.2,0.2-0.3l0,0c0-0.1-0.1-0.1-0.1-0.2c0-0.1,0.1-0.2,0.2-0.2c0,0,0,0,0,0c0.1,0,0.2,0.1,0.2,0.2c0,0,0,0,0,0
					c0,0.1-0.1,0.2-0.2,0.3l0,0l0.2,0.3c0.1-0.1,0.1-0.2,0.1-0.3h0.1c0,0.1-0.1,0.3-0.1,0.4l0.2,0.2L114.6,46.7z M114.5,46.5
					c-0.1-0.1-0.2-0.2-0.3-0.3c-0.1,0-0.1,0.1-0.1,0.2c0,0.1,0.1,0.2,0.2,0.2c0,0,0,0,0,0C114.4,46.6,114.5,46.6,114.5,46.5z
					 M114.2,45.9c0,0.1,0,0.1,0.1,0.2c0.1-0.1,0.2-0.1,0.2-0.2c0-0.1,0-0.1-0.1-0.1c0,0,0,0,0,0C114.3,45.8,114.2,45.8,114.2,45.9
					C114.2,45.9,114.2,45.9,114.2,45.9L114.2,45.9z"/>
				<path id="_Compound_Path_13" class="st0" d="M115.5,46.2V46h0.1v0.1l0,0c0-0.1,0.1-0.1,0.2-0.1c0.1,0,0.2,0.1,0.2,0.1l0,0
					c0,0,0-0.1,0.1-0.1c0,0,0.1-0.1,0.1-0.1c0.1,0,0.2,0.1,0.2,0.3v0.4h-0.1v-0.4c0-0.1-0.1-0.2-0.2-0.2c-0.1,0-0.1,0.1-0.2,0.1
					c0,0,0,0,0,0.1v0.4H116v-0.4c0-0.1,0-0.2-0.2-0.2c-0.1,0-0.1,0.1-0.1,0.1c0,0,0,0,0,0.1v0.4h-0.1V46.2z"/>
				<path id="_Compound_Path_14" class="st0" d="M117.1,46.7L117.1,46.7L117.1,46.7c-0.1,0-0.1,0-0.2,0c-0.1,0-0.2-0.1-0.2-0.2
					c0,0,0,0,0,0c0-0.2,0.2-0.3,0.4-0.3l0,0c0-0.1,0-0.2-0.1-0.2c0,0,0,0,0,0c-0.1,0-0.1,0-0.2,0.1v-0.1c0.1,0,0.1-0.1,0.2-0.1
					c0.2,0,0.3,0.2,0.3,0.3v0.2c0,0.1,0,0.1,0,0.2L117.1,46.7z M117.1,46.4c-0.1,0-0.3,0-0.3,0.2c0,0.1,0,0.1,0.1,0.1c0,0,0,0,0,0
					c0.1,0,0.1,0,0.2-0.1V46.4z"/>
				<path id="_Compound_Path_15" class="st0" d="M117.5,46.3L117.5,46.3L117.5,46.3l0.3-0.3h0.2l-0.3,0.3l0.3,0.4h-0.2L117.5,46.3
					v0.1v0.3h-0.1v-1h0.1V46.3z"/>
				<path id="_Compound_Path_16" class="st0" d="M118.2,46.4c0,0.1,0.1,0.2,0.2,0.2c0,0,0,0,0,0c0.1,0,0.1,0,0.2,0v0.1
					c-0.1,0-0.2,0-0.2,0c-0.2,0-0.3-0.1-0.3-0.3c0,0,0,0,0-0.1c0-0.2,0.1-0.4,0.3-0.4c0,0,0,0,0,0c0.2,0,0.3,0.1,0.3,0.3
					c0,0,0,0,0,0v0.1H118.2z M118.5,46.3c0-0.1,0-0.2-0.2-0.2c-0.1,0-0.2,0.1-0.2,0.2H118.5z"/>
				<path id="_Compound_Path_17" class="st0" d="M119.7,46.5c0,0.1,0,0.1,0,0.2h-0.1v-0.1l0,0c0,0.1-0.1,0.1-0.2,0.1
					c-0.1,0-0.2-0.1-0.2-0.3V46h0.1v0.4c0,0.1,0,0.2,0.2,0.2c0.1,0,0.1,0,0.1-0.1c0,0,0,0,0-0.1V46h0.1L119.7,46.5z"/>
				<path id="_Compound_Path_18" class="st0" d="M119.9,46.2V46h0.1v0.1l0,0c0-0.1,0.1-0.1,0.2-0.1c0.2,0,0.3,0.1,0.3,0.4
					s-0.2,0.4-0.3,0.4c-0.1,0-0.2,0-0.2-0.1l0,0V47h-0.1L119.9,46.2z M120,46.4v0.1c0,0.1,0.1,0.1,0.2,0.2c0.1,0,0.2-0.1,0.2-0.3
					c0-0.1-0.1-0.2-0.2-0.3c0,0,0,0,0,0c-0.1,0-0.2,0.1-0.2,0.2C120,46.3,120,46.3,120,46.4L120,46.4z"/>
			</g>
			<g id="_Group_4">
				<path id="_Compound_Path_19" class="st0" d="M105,58.5c0,0.1,0,0.3,0,0.4c0,0.1,0,0.2-0.1,0.2l0,0l0,0C105,59,105,58.8,105,58.5
					c0-0.2-0.1-0.4-0.3-0.6c-0.2-0.2-0.4-0.3-0.7-0.3c-0.4,0-0.8,0.1-1.2,0.4c0.3,0.2,0.5,0.5,0.5,0.8c0,0.5-0.3,0.8-1,0.9
					c0.5,0.1,0.8,0.6,0.8,1.1c0,0.4-0.2,0.8-0.5,1c-0.3,0.3-0.7,0.4-1.2,0.4c-0.2,0-0.4,0-0.5-0.2c-0.1-0.1-0.2-0.3-0.2-0.5
					c0-0.3,0.2-0.6,0.4-0.8c0.2-0.2,0.5-0.4,0.8-0.4c0.1,0,0.3,0,0.4,0.1c0.1,0.1,0.1,0.2,0.1,0.4c0,0.1,0,0.2-0.1,0.3
					c0,0.1-0.1,0.2-0.1,0.2s0,0,0,0l0,0c0.1-0.2,0.1-0.4,0.1-0.6c0-0.1,0-0.2-0.1-0.3c-0.1-0.1-0.2-0.1-0.3-0.1
					c-0.3,0-0.6,0.2-0.8,0.4c-0.2,0.2-0.3,0.5-0.4,0.8c0,0.1,0.1,0.3,0.2,0.4c0.1,0.1,0.2,0.2,0.4,0.2c0.4,0,0.7-0.2,0.9-0.5
					c0.3-0.3,0.4-0.7,0.4-1.1c0-0.4-0.2-0.7-0.5-0.8h-0.2h-0.2c-0.2,0-0.3,0-0.3-0.1s0.1-0.1,0.2-0.1c0.1,0,0.3,0,0.4,0.1
					c0.2-0.1,0.4-0.2,0.6-0.4c0.1-0.2,0.2-0.4,0.2-0.6c0-0.2-0.1-0.5-0.3-0.6c-0.6,0.5-1.1,1.2-1.4,1.9c-0.2,0.4-0.4,0.8-0.7,1.2
					c-0.3,0.3-0.6,0.5-0.9,0.7c-0.4,0.2-0.8,0.3-1.3,0.3c-0.3,0-0.5-0.1-0.8-0.2c-0.2-0.1-0.3-0.3-0.3-0.5c0-0.1,0-0.2,0.1-0.3
					c0.1-0.1,0.1-0.1,0.2-0.1c0.1,0,0.2,0.1,0.2,0.2c0,0.1,0,0.1-0.1,0.2c0,0.1-0.1,0.1-0.2,0.1c-0.1,0-0.2,0-0.2-0.2s0-0.1,0-0.1
					s-0.1,0.1-0.1,0.2c0,0.2,0.1,0.4,0.3,0.5c0.2,0.1,0.4,0.2,0.7,0.2c0.5,0,1-0.2,1.4-0.6c0.2-0.1,0.3-0.3,0.4-0.5
					c0.1-0.2,0.4-0.6,0.9-1.3c0.2-0.4,0.5-0.7,0.8-1c0.2-0.3,0.5-0.5,0.8-0.7c-0.4-0.3-1-0.5-1.5-0.4c-0.9,0-1.8,0.3-2.5,1
					c-0.5,0.4-0.8,1-0.9,1.6c0,0.2,0.1,0.5,0.2,0.6c0.2,0.1,0.4,0.2,0.7,0.2c0.5,0,1-0.3,1.4-0.7c0.4-0.3,0.7-0.8,0.7-1.3
					c0-0.2-0.1-0.5-0.4-0.5c0,0-0.1,0-0.1,0c-0.4,0-0.8,0.2-1.1,0.6c-0.3,0.3-0.5,0.6-0.6,1c0,0.1,0,0.2,0.1,0.2
					c0,0.1,0.1,0.1,0.2,0.1H99c0,0,0,0-0.1,0c-0.1,0-0.2-0.1-0.3-0.1c-0.1-0.1-0.1-0.2-0.1-0.4c0-0.4,0.2-0.8,0.6-1
					c0.3-0.3,0.7-0.4,1.2-0.4c0.4,0,0.6,0.2,0.6,0.5c0,0.5-0.3,1-0.8,1.3c-0.4,0.4-0.9,0.6-1.5,0.7c-0.6,0-1-0.4-1-1
					c0-0.7,0.5-1.4,1.1-1.7c0.7-0.5,1.5-0.8,2.4-0.8c0.6,0,1.2,0.1,1.7,0.4c0.4-0.2,0.8-0.4,1.2-0.4c0.3,0,0.5,0.1,0.7,0.3
					C104.9,58,105,58.3,105,58.5z"/>
				<path id="_Compound_Path_20" class="st0" d="M105.4,61L105.4,61l-0.2,0.3c-0.5,0.6-0.9,0.9-1.2,0.9c-0.2,0-0.3-0.1-0.4-0.2
					c-0.1-0.1-0.2-0.3-0.2-0.4c0-0.4,0.3-0.8,0.9-1.1c0.2-0.1,0.5-0.2,0.7-0.2c0.1,0,0.1,0,0.2,0.1c0.1,0,0.1,0.1,0.1,0.2
					c0,0.2-0.1,0.3-0.3,0.4c-0.3,0.2-0.7,0.3-1.1,0.3c-0.1,0.2-0.2,0.4-0.2,0.6c0,0.2,0.1,0.3,0.3,0.3S104.8,61.7,105.4,61
					C105.3,61,105.4,61,105.4,61L105.4,61z M105.1,60.4c0-0.1,0-0.1-0.1-0.1c-0.2,0-0.3,0.1-0.5,0.3c-0.2,0.2-0.4,0.4-0.6,0.6
					c0.3-0.1,0.6-0.2,0.8-0.3C105,60.6,105.1,60.5,105.1,60.4z"/>
				<path id="_Compound_Path_21" class="st0" d="M108.1,61c-0.1,0.2-0.3,0.5-0.5,0.7c-0.3,0.3-0.5,0.5-0.6,0.5c-0.1,0-0.2,0-0.2-0.1
					c-0.1-0.1-0.1-0.2-0.1-0.3c0-0.1,0-0.2,0.1-0.3c0.1-0.1,0.2-0.3,0.3-0.5c0.1-0.2,0.2-0.3,0.3-0.5c0-0.1,0-0.1-0.1-0.1
					c-0.3,0-0.8,0.6-1.5,1.8h-0.4l0.5-0.8c0.2-0.3,0.4-0.6,0.5-0.9c0-0.1,0-0.1-0.1-0.1s-0.3,0.2-0.7,0.7c0,0,0,0-0.1,0c0,0,0,0,0,0
					l0,0l0.1-0.1c0.3-0.5,0.6-0.7,0.7-0.7c0.1,0,0.2,0,0.2,0.1c0.1,0.1,0.1,0.2,0.1,0.2c0,0.2-0.1,0.4-0.2,0.6
					c0.2-0.3,0.4-0.5,0.6-0.8c0.1-0.1,0.2-0.2,0.4-0.2c0.1,0,0.2,0,0.2,0.1c0.1,0.1,0.1,0.2,0.1,0.3c0,0.3-0.1,0.5-0.3,0.7
					c-0.1,0.2-0.3,0.4-0.3,0.6c0,0.1,0,0.1,0.1,0.1c0,0,0,0,0,0C107.2,62.1,107.6,61.7,108.1,61L108.1,61C108,61,108.1,61,108.1,61z
					"/>
				<path id="_Compound_Path_22" class="st0" d="M111.2,58.6c-0.8,1.3-1.4,2.2-1.6,2.6c-0.2,0.2-0.3,0.5-0.3,0.7
					c0,0.1,0.1,0.2,0.1,0.2c0.1,0,0.6-0.4,1-1.1l0,0l0,0v0.1l-0.1,0.2c-0.4,0.6-0.7,0.9-0.9,0.9c-0.1,0-0.2,0-0.3-0.1
					c-0.1-0.1-0.1-0.2-0.1-0.3c0-0.2,0-0.3,0.1-0.4c-0.4,0.6-0.7,0.8-0.9,0.8c-0.1,0-0.2-0.1-0.3-0.2c-0.1-0.1-0.1-0.3-0.1-0.4
					c0-0.5,0.3-0.9,0.8-1.1c0.3-0.2,0.5-0.3,0.9-0.4c0.1,0,0.2,0,0.2,0.1c0,0,0,0,0,0.1c0,0.1,0,0.1,0,0.2l1.2-2c0.1,0,0.1,0,0.2,0
					L111.2,58.6z M109.5,60.4c0-0.1-0.1-0.2-0.2-0.2s-0.5,0.2-0.8,0.6c-0.3,0.3-0.4,0.6-0.5,1c0,0.2,0.1,0.2,0.2,0.2
					c0.1,0,0.5-0.3,0.9-0.9C109.4,60.9,109.5,60.7,109.5,60.4z"/>
				<path id="_Compound_Path_23" class="st0" d="M111.6,61L111.6,61l-0.1,0.3c-0.4,0.6-0.8,0.9-1,0.9c-0.1,0-0.2,0-0.3-0.1
					c-0.1-0.1-0.1-0.2-0.1-0.3c0-0.2,0.1-0.4,0.2-0.6l0.5-0.9h0.2h0.3l-0.8,1.3c-0.1,0.1-0.1,0.3-0.2,0.4c0,0.1,0.1,0.2,0.2,0.2
					S111.1,61.7,111.6,61L111.6,61C111.6,61,111.6,61,111.6,61z M111.6,59.6c0,0.1,0,0.2-0.1,0.2c-0.1,0.1-0.1,0.1-0.2,0.1
					c-0.1,0-0.1,0-0.1-0.1c0,0,0,0,0,0c0-0.2,0.1-0.3,0.3-0.3C111.6,59.4,111.6,59.5,111.6,59.6C111.6,59.6,111.6,59.6,111.6,59.6
					L111.6,59.6z"/>
				<path id="_Compound_Path_24" class="st0" d="M112.9,60.2L112.9,60.2h-0.5l-0.8,1.3c-0.1,0.1-0.1,0.2-0.1,0.4
					c0,0.1,0,0.1,0.1,0.2c0,0,0,0,0,0c0.2,0,0.6-0.4,1-1.1l0,0l0,0V61l-0.1,0.2c-0.4,0.6-0.8,0.9-1,0.9c-0.1,0-0.2,0-0.3-0.1
					c-0.1-0.1-0.1-0.2-0.1-0.3c0-0.2,0.1-0.4,0.2-0.5l0.6-1h-0.3l0,0h0.3l0.4-0.7h0.2c0.1,0,0.1,0,0.2,0l-0.4,0.7H112.9z"/>
				<path id="_Compound_Path_25" class="st0" d="M115.2,61c-0.1,0.2-0.3,0.5-0.5,0.7c-0.3,0.3-0.5,0.5-0.6,0.5c-0.1,0-0.2,0-0.3-0.1
					c-0.1-0.1-0.1-0.2-0.1-0.3c0-0.1,0-0.3,0.1-0.4c-0.2,0.2-0.3,0.4-0.5,0.6c-0.1,0.1-0.2,0.2-0.3,0.2c-0.1,0-0.2-0.1-0.3-0.2
					c-0.1-0.1-0.1-0.3-0.1-0.4c0-0.4,0.3-0.8,0.9-1.2c0.2-0.1,0.4-0.2,0.7-0.2c0.1,0,0.2,0,0.2,0.1c0,0,0,0,0,0.1c0,0,0,0.1,0,0.2
					l0.2-0.3h0.2h0.2l-0.6,1c-0.1,0.2-0.3,0.4-0.3,0.7c0,0.1,0,0.2,0.1,0.2s0.2-0.1,0.4-0.3C114.8,61.5,115,61.3,115.2,61L115.2,61
					L115.2,61z M114.2,60.4c0-0.1,0-0.2-0.1-0.2c-0.1,0-0.5,0.2-0.8,0.6c-0.3,0.3-0.5,0.6-0.5,1c0,0.2,0.1,0.2,0.2,0.2
					c0.1,0,0.4-0.3,0.8-0.8C114,61.1,114.2,60.7,114.2,60.4z"/>
				<path id="_Compound_Path_26" class="st0" d="M126.2,57.2c0,0.1,0,0.1-0.1,0.1l0,0h-0.3c-0.7,0.1-1.5,0.3-2.1,0.8
					c-0.4,0.2-0.7,0.5-1,0.8c-0.2,0.2-0.7,0.8-1.4,1.6c-0.6,0.7-1.2,1.3-1.9,1.9c-0.1,0.1-0.2,0.2-0.4,0.2l0,0l0.1-0.1
					c0.4-0.6,0.8-1.2,1-1.8c0.2-0.6,0.4-1.2,0.4-1.8c0-0.8-0.3-1.2-0.9-1.2c-0.3,0-0.6,0.1-0.8,0.2c-0.3,0.2-0.6,0.4-0.9,0.7
					c-0.3,0.3-0.5,0.6-0.7,1c-0.2,0.3-0.2,0.7-0.2,1c0,0.2,0.1,0.5,0.2,0.7c0.2,0.2,0.4,0.3,0.6,0.2c0.6-0.1,1.2-0.5,1.5-1
					c0.3-0.3,0.5-0.8,0.5-1.2c0-0.1,0-0.3-0.1-0.4c-0.1-0.1-0.2-0.1-0.3-0.1c-0.1,0-0.2,0-0.2,0c-0.1,0-0.1,0.1-0.1,0.1s0,0,0,0h0.1
					c0.1,0,0.1,0.1,0.1,0.2c0,0.1,0,0.1-0.1,0.2c-0.1,0-0.1,0.1-0.2,0.1c-0.1,0-0.2-0.1-0.2-0.2c0,0,0,0,0,0c0-0.1,0.1-0.2,0.2-0.3
					c0.1-0.1,0.2-0.1,0.4-0.1c0.1,0,0.3,0.1,0.4,0.2c0.1,0.1,0.1,0.3,0.1,0.4c0,0.5-0.3,1.1-0.7,1.5c-0.3,0.5-0.8,0.8-1.4,0.8
					c-0.3,0-0.5-0.1-0.7-0.3c-0.2-0.2-0.3-0.5-0.3-0.8c0-0.7,0.4-1.4,0.9-1.9c0.5-0.5,1.2-0.8,2-0.9c0.4,0,0.7,0.1,0.9,0.4
					c0.2,0.3,0.4,0.6,0.4,1c0,0.5-0.2,1-0.4,1.5c-0.3,0.6-0.8,1.2-1.3,1.8l0,0l0,0c0.2-0.1,0.3-0.2,0.4-0.3c0.2-0.2,0.4-0.4,0.6-0.6
					c0.2-0.2,0.7-0.7,1.4-1.6c0.4-0.4,0.8-0.8,1.2-1.2c0.4-0.3,0.8-0.6,1.2-0.8c0.6-0.4,1.2-0.6,1.8-0.6
					C126.1,57.1,126.2,57.2,126.2,57.2z"/>
				<path id="_Compound_Path_27" class="st0" d="M124,61c-0.1,0.2-0.3,0.5-0.5,0.7c-0.3,0.3-0.5,0.5-0.6,0.5c-0.1,0-0.2,0-0.2-0.1
					c-0.1-0.1-0.1-0.2-0.1-0.3c0-0.1,0-0.3,0.1-0.4c-0.2,0.2-0.3,0.4-0.5,0.6c-0.1,0.1-0.2,0.2-0.3,0.2c-0.1,0-0.2-0.1-0.3-0.2
					c-0.1-0.1-0.1-0.3-0.1-0.4c0-0.4,0.3-0.8,0.9-1.2c0.2-0.1,0.4-0.2,0.7-0.2c0.1,0,0.2,0,0.2,0.1c0,0,0,0,0,0.1c0,0,0,0.1,0,0.2
					l0.2-0.3h0.2h0.2l-0.6,1c-0.1,0.2-0.3,0.4-0.3,0.7c0,0.1,0,0.2,0.1,0.2c0.1,0,0.2-0.1,0.4-0.3C123.6,61.5,123.8,61.3,124,61
					L124,61L124,61z M123,60.4c0-0.1,0-0.2-0.2-0.2c-0.1,0-0.5,0.2-0.8,0.6c-0.3,0.3-0.5,0.6-0.5,1c0,0.2,0.1,0.2,0.2,0.2
					s0.4-0.3,0.8-0.8C122.8,61.1,123,60.8,123,60.4z"/>
				<path id="_Compound_Path_28" class="st0" d="M126.7,61c-0.1,0.2-0.3,0.5-0.5,0.7c-0.3,0.3-0.5,0.5-0.6,0.5c-0.1,0-0.2,0-0.3-0.1
					c-0.1-0.1-0.1-0.2-0.1-0.3c0-0.1,0-0.2,0.1-0.3c0.1-0.2,0.2-0.4,0.3-0.5c0.1-0.2,0.2-0.3,0.3-0.5c0-0.1,0-0.1-0.1-0.1
					c0,0,0,0,0,0c-0.3,0-0.8,0.6-1.5,1.8h-0.4l0.5-0.8c0.2-0.3,0.4-0.6,0.4-0.9c0-0.1,0-0.1-0.1-0.1s-0.3,0.2-0.7,0.7l0,0l0,0l0,0
					l0.1-0.1c0.3-0.5,0.6-0.7,0.7-0.7c0.1,0,0.2,0,0.2,0.1c0.1,0.1,0.1,0.2,0.1,0.2c0,0.2-0.1,0.4-0.3,0.6c0.2-0.3,0.4-0.5,0.6-0.8
					c0.1-0.1,0.2-0.2,0.4-0.2c0.1,0,0.2,0,0.2,0.1c0.1,0.1,0.1,0.2,0.1,0.3c0,0.3-0.2,0.5-0.3,0.7c-0.1,0.2-0.3,0.4-0.3,0.6
					c0,0.1,0,0.1,0.1,0.1c0,0,0,0,0,0C125.8,62.1,126.2,61.7,126.7,61L126.7,61L126.7,61z"/>
				<path id="_Compound_Path_29" class="st0" d="M127.8,61L127.8,61l-0.1,0.3c-0.4,0.6-0.8,0.9-1,0.9c-0.1,0-0.2,0-0.3-0.1
					c-0.1-0.1-0.1-0.2-0.1-0.3c0-0.2,0.1-0.4,0.2-0.6l0.5-0.9h0.2h0.3l-0.8,1.3c-0.1,0.1-0.1,0.3-0.2,0.4c0,0.1,0.1,0.1,0.1,0.2
					c0,0,0,0,0,0C126.9,62.1,127.3,61.7,127.8,61L127.8,61L127.8,61z M127.8,59.6c0,0.1,0,0.2-0.1,0.2c-0.1,0.1-0.1,0.1-0.2,0.1
					c-0.1,0-0.1,0-0.2-0.1c0,0,0,0,0,0c0-0.1,0-0.2,0.1-0.2c0.1-0.1,0.1-0.1,0.2-0.1C127.7,59.4,127.8,59.5,127.8,59.6
					C127.8,59.6,127.8,59.6,127.8,59.6z"/>
				<path id="_Compound_Path_30" class="st0" d="M130.9,58.6c-0.8,1.3-1.4,2.2-1.6,2.6c-0.2,0.2-0.3,0.5-0.3,0.7
					c0,0.1,0,0.2,0.1,0.2s0.6-0.4,1-1.1l0,0l0,0v0.1l-0.1,0.2c-0.4,0.6-0.7,0.9-0.9,0.9c-0.1,0-0.2,0-0.3-0.1
					c-0.1-0.1-0.1-0.2-0.1-0.3c0-0.2,0-0.3,0.1-0.4c-0.4,0.6-0.7,0.8-0.9,0.8c-0.1,0-0.2-0.1-0.3-0.2c-0.1-0.1-0.1-0.3-0.1-0.4
					c0-0.4,0.3-0.8,0.7-1c0.2-0.2,0.5-0.3,0.9-0.4c0.1,0,0.2,0,0.2,0.1c0,0,0,0,0,0.1c0,0.1,0,0.1,0,0.2l1.2-2c0.1,0,0.1,0,0.2,0
					L130.9,58.6z M129.3,60.4c0-0.1,0-0.2-0.2-0.2s-0.5,0.2-0.8,0.6c-0.3,0.3-0.4,0.6-0.5,1c0,0.2,0.1,0.2,0.2,0.2
					c0.1,0,0.5-0.3,0.9-0.9C129.1,60.9,129.2,60.7,129.3,60.4z"/>
				<path id="_Compound_Path_31" class="st0" d="M132.6,61c-0.1,0.2-0.3,0.5-0.5,0.7c-0.3,0.3-0.5,0.5-0.6,0.5c-0.1,0-0.2,0-0.2-0.1
					c-0.1-0.1-0.1-0.2-0.1-0.3c0-0.1,0-0.3,0.1-0.4c-0.2,0.2-0.3,0.4-0.5,0.6c-0.1,0.1-0.2,0.2-0.4,0.2c-0.1,0-0.2-0.1-0.3-0.2
					c-0.1-0.1-0.1-0.3-0.1-0.4c0-0.4,0.3-0.8,0.9-1.2c0.2-0.1,0.4-0.2,0.6-0.2c0.1,0,0.2,0,0.2,0.1c0,0,0,0,0,0.1c0,0,0,0.1,0,0.2
					l0.2-0.3h0.2h0.2l-0.6,1c-0.1,0.2-0.3,0.4-0.3,0.7c0,0.1,0,0.2,0.1,0.2s0.2-0.1,0.4-0.3C132.2,61.5,132.4,61.3,132.6,61
					L132.6,61C132.6,61,132.6,61,132.6,61z M131.7,60.4c0-0.1,0-0.2-0.2-0.2c-0.1,0-0.5,0.2-0.8,0.6c-0.3,0.3-0.4,0.6-0.5,1
					c0,0.2,0.1,0.2,0.2,0.2s0.4-0.3,0.8-0.8C131.4,61.1,131.6,60.8,131.7,60.4z"/>
				<path id="_Compound_Path_32" class="st0" d="M135.7,58.6c-0.8,1.3-1.4,2.2-1.6,2.6c-0.2,0.2-0.3,0.5-0.3,0.7
					c0,0.1,0,0.2,0.1,0.2c0.1,0,0.6-0.4,1-1.1l0,0l0,0c0,0,0,0,0,0.1l-0.1,0.2c-0.4,0.6-0.7,0.9-1,0.9c-0.1,0-0.2,0-0.2-0.1
					c-0.1-0.1-0.1-0.2-0.1-0.3c0-0.2,0-0.3,0.1-0.4c-0.4,0.6-0.7,0.8-0.9,0.8c-0.1,0-0.2-0.1-0.3-0.2c-0.1-0.1-0.1-0.3-0.1-0.4
					c0-0.4,0.3-0.8,0.7-1c0.2-0.2,0.5-0.3,0.9-0.4c0.1,0,0.2,0,0.2,0.1c0,0,0,0,0,0.1c0,0.1,0,0.1-0.1,0.2l1.2-2c0.1,0,0.1,0,0.2,0
					L135.7,58.6z M134.1,60.4c0-0.1,0-0.2-0.2-0.2c-0.1,0-0.5,0.2-0.8,0.6c-0.3,0.3-0.4,0.6-0.5,1c0,0.2,0.1,0.2,0.2,0.2
					c0.1,0,0.5-0.3,0.9-0.9C133.9,60.9,134,60.7,134.1,60.4z"/>
			</g>
		</g>
	</g>
</g>
</svg>
