<?xml version="1.0" encoding="utf-8"?>
<!-- Generator: Adobe Illustrator 22.1.0, SVG Export Plug-In . SVG Version: 6.00 Build 0)  -->
<svg version="1.1" id="Layer_1" xmlns="http://www.w3.org/2000/svg" xmlns:xlink="http://www.w3.org/1999/xlink" x="0px" y="0px"
	 viewBox="0 0 233 73" style="enable-background:new 0 0 233 73;" xml:space="preserve">
<style type="text/css">
	.st0{fill:#3D3D3D;}
	.st1{fill:#7D7D7D;}
</style>
<title>Asset 37</title>
<g id="Layer_2_1_">
	<g id="Layer_1-2">
		<g id="_Group_">
			<path id="_Compound_Path_" class="st0" d="M70.3,36.3c2,1.2,2.7,3.8,1.5,5.8c0,0.1-0.1,0.1-0.1,0.2c-0.7,1.2-1.9,1.9-3.3,2
				c-1.1,0.1-2.2,0.1-3.3,0.1c-1.3,0-2.5,0-3.8,0c-0.3,0-0.4-0.1-0.4-0.4c0-5,0-9.9,0-14.9c0-0.3,0.1-0.5,0.4-0.5
				c2.3,0.1,4.6-0.1,6.8,0.1c2.3,0.1,4.2,2.1,4.1,4.4c0,0.3-0.1,0.6-0.2,1C71.7,35,71.1,35.8,70.3,36.3z M64,39.7L64,39.7v1.6
				c0,0.2,0,0.3,0.2,0.3c1.2,0,2.3,0,3.4-0.1c1-0.1,1.7-1,1.6-2c0,0,0-0.1,0-0.1c0-1-0.8-1.7-1.8-1.7c0,0,0,0,0,0c-1,0-2,0-3.1,0
				c-0.3,0-0.4,0.1-0.4,0.4C64,38.7,64,39.2,64,39.7z M65.9,35L65.9,35c0.5,0,1,0,1.5,0c0.9,0,1.7-0.8,1.7-1.7c0,0,0,0,0,0
				c0.1-0.9-0.6-1.8-1.5-1.9c0,0-0.1,0-0.1,0c-1.1-0.1-2.1-0.1-3.2-0.1c-0.3,0-0.3,0.1-0.3,0.4c0,1,0,2,0,2.9c0,0.3,0.1,0.4,0.4,0.4
				C64.9,35,65.3,35,65.9,35z"/>
			<path id="_Compound_Path_2" class="st0" d="M156,44.4h-3.3c-0.3,0-0.3-0.2-0.4-0.4c-0.9-1.8-1.8-3.6-2.6-5.4
				c-0.1-0.3-0.4-0.5-0.8-0.5c-0.4,0-0.8,0-1.2,0c-0.4,0-0.5,0.1-0.5,0.5c0,1.7,0,3.5,0,5.2c0,0.5-0.1,0.6-0.6,0.6c-0.7,0-1.3,0-2,0
				c-0.5,0-0.5-0.1-0.5-0.5c0-4.9,0-9.8,0-14.7c0-0.1,0-0.1,0-0.2c0-0.2,0.1-0.3,0.3-0.3c2.3,0.1,4.6-0.1,6.9,0.1
				c2.6,0.3,4.5,2.6,4.2,5.2c-0.1,0.7-0.3,1.5-0.7,2.1c-0.4,0.6-1,1.1-1.7,1.4c-0.4,0.2-0.3,0.3-0.2,0.6c1,1.9,2,3.9,3,5.8
				C155.9,44,156,44.2,156,44.4z M147.2,33.4c0,0.6,0,1.2,0,1.8c0,0.3,0.1,0.4,0.4,0.4c0.9,0,1.9,0,2.8,0c1.1,0,2-0.9,2-1.9
				c0.1-1.1-0.7-2-1.8-2.1c-1-0.1-2-0.1-3.1-0.1c-0.3,0-0.3,0.2-0.3,0.4L147.2,33.4z"/>
			<path id="_Compound_Path_3" class="st0" d="M160.5,36.5c0-2.4,0-4.9,0-7.3c0-0.4,0.1-0.6,0.6-0.6c2,0.1,4-0.1,5.9,0.1
				c2.6,0.1,4.7,2.1,4.9,4.7c0.2,2.1,0.2,4.2,0,6.2c-0.2,2.8-2.5,4.9-5.3,4.8c-1.9,0-3.8,0-5.7,0c-0.4,0-0.4-0.2-0.4-0.5L160.5,36.5
				z M163.6,36.5v4.7c0,0.2-0.1,0.5,0.3,0.4c0.9,0,1.8,0,2.6-0.1c1.2-0.1,2.1-1,2.2-2.2c0.2-1.9,0.2-3.9,0-5.9
				c-0.1-1.2-1.1-2.1-2.3-2.2c-0.8-0.1-1.6,0-2.4-0.1c-0.4,0-0.5,0.1-0.5,0.5C163.6,33.4,163.6,34.9,163.6,36.5L163.6,36.5z"/>
			<path id="_Compound_Path_4" class="st0" d="M138.5,44.4c-0.4,0-1.1,0.2-1.4-0.1s-0.4-0.9-0.6-1.4c-0.4-1.3-0.4-1.3-1.8-1.3
				s-2.5,0-3.8,0c-0.3-0.1-0.6,0.2-0.7,0.5c0,0,0,0,0,0c-0.2,0.6-0.4,1.2-0.6,1.9c-0.1,0.3-0.2,0.4-0.6,0.4c-0.8,0-1.5,0-2.3,0
				c-0.4,0-0.5-0.1-0.3-0.5c1.2-3.4,2.4-6.8,3.7-10.2c0.6-1.6,1.2-3.1,1.7-4.7c0.1-0.3,0.3-0.5,0.7-0.5c0,0,0,0,0,0
				c0.5,0,1.1,0,1.6,0c0.2,0,0.4,0.1,0.5,0.3c1.8,5,3.7,10,5.5,15.1c0.1,0.3,0.1,0.5-0.3,0.4S139,44.4,138.5,44.4z M133.3,33.3
				l-1.9,5.4c0,0.1-0.1,0.3,0.1,0.3h3.7L133.3,33.3z"/>
			<path id="_Path_" class="st0" d="M102.7,44.5c-2,0.1-4-0.5-5.5-1.7c-0.3-0.3-0.3-0.4,0-0.7c0.5-0.4,0.9-0.9,1.4-1.3
				c0.2-0.2,0.3-0.2,0.6,0c1.4,1.1,3.2,1.4,4.9,0.9c0.9-0.1,1.6-1,1.5-1.9c0-0.9-0.7-1.6-1.6-1.7c-1.1-0.2-2.3-0.3-3.4-0.6
				c-2.4-0.7-3.3-2.7-3-4.9c0.2-1.8,1.5-3.2,3.2-3.6c2.2-0.8,4.7-0.4,6.7,0.9c0.1,0.1,0.2,0.1,0.2,0.2c0.5,0.4,0.5,0.4,0,0.9
				c-0.5,0.5-0.8,0.8-1.2,1.2c-0.2,0.2-0.3,0.2-0.5,0c-1.1-0.8-2.4-1.1-3.8-0.8c-0.7,0.1-1.3,0.5-1.5,1.1c-0.4,0.8-0.1,1.8,0.7,2.2
				c0,0,0.1,0,0.1,0.1c0.9,0.3,1.8,0.5,2.8,0.5c0.7,0.1,1.3,0.2,1.9,0.5c1.2,0.5,2.1,1.5,2.3,2.8c0.7,2.5-0.8,5-3.3,5.7
				c-0.2,0-0.3,0.1-0.5,0.1C104,44.4,103.3,44.5,102.7,44.5z"/>
			<path id="_Path_2" class="st0" d="M117.7,44.5c-2,0.1-3.9-0.5-5.4-1.7c-0.3-0.3-0.3-0.5,0-0.8s0.9-0.9,1.3-1.3
				c0.2-0.2,0.3-0.3,0.6,0c1.4,1,3.2,1.4,4.9,0.9c0.9-0.1,1.5-1,1.4-1.9c0-0.9-0.7-1.6-1.6-1.7c-0.9-0.2-1.9-0.3-2.8-0.5
				c-2.3-0.3-3.9-2.4-3.7-4.7c0-0.2,0.1-0.4,0.1-0.6c0.2-1.5,1.3-2.8,2.8-3.3c2.5-1,5.3-0.6,7.4,1c0.3,0.3,0.4,0.4,0,0.7
				s-0.8,0.8-1.2,1.2c-0.2,0.2-0.4,0.3-0.7,0.1c-1.1-0.8-2.5-1.1-3.8-0.7c-0.9,0.1-1.6,1-1.6,1.9c0,0.9,0.7,1.6,1.6,1.6
				c1,0.1,1.9,0.2,2.9,0.4c1.5,0.1,2.7,1,3.3,2.4c1,3-0.1,5.7-3.5,6.6c-0.4,0.1-0.8,0.2-1.1,0.2C118.2,44.5,117.9,44.5,117.7,44.5z"
				/>
			<path id="_Path_3" class="st0" d="M90.4,42.9c-3.2,2.7-8,2.6-11.1-0.2c-3.1-2.8-3.7-7.4-1.3-10.9c0.7,0.6,1.4,1.2,2.1,1.8
				c0.3,0.2,0.1,0.4,0,0.6c-0.9,2-0.6,4.3,0.9,5.9c1.7,1.9,4.5,2.4,6.8,1.1c0.3-0.2,0.7-0.2,1,0.1c0,0,0,0,0,0
				C89.2,41.9,89.8,42.4,90.4,42.9z"/>
			<path id="_Path_4" class="st0" d="M91.2,30.9c2.7,3,2.9,7.4,0.5,10.6c-0.7-0.6-1.3-1.2-2-1.8c-0.2-0.2-0.1-0.3,0-0.5
				c1.1-1.8,1-4.2-0.2-5.9c-0.1-0.2-0.1-0.4,0-0.5c0,0,0,0,0,0C90.1,32.2,90.7,31.6,91.2,30.9z"/>
			<path id="_Path_5" class="st1" d="M85,28.1c1.5,0,3.1,0.4,4.4,1.2c0.4,0.2,0.4,0.4,0.1,0.8c-0.5,0.5-0.9,1-1.3,1.5
				c-0.2,0.2-0.5,0.3-0.7,0.1c-1.8-1-4.1-0.8-5.8,0.5c-0.2,0.2-0.5,0.2-0.7,0c0,0,0,0,0,0c-0.5-0.4-0.9-0.9-1.4-1.2
				c-0.5-0.4-0.5-0.5,0-0.9C81.1,28.7,83,28,85,28.1z"/>
		</g>
	</g>
</g>
</svg>
