<?xml version="1.0" encoding="utf-8"?>
<!-- Generator: Adobe Illustrator 22.1.0, SVG Export Plug-In . SVG Version: 6.00 Build 0)  -->
<svg version="1.1" id="Layer_1" xmlns="http://www.w3.org/2000/svg" xmlns:xlink="http://www.w3.org/1999/xlink" x="0px" y="0px"
	 viewBox="0 0 233 73" style="enable-background:new 0 0 233 73;" xml:space="preserve">
<style type="text/css">
	.st0{fill:#3D3D3D;}
	.st1{fill:#098453;}
	.st2{fill:#FFFFFF;}
</style>
<title>Asset 30</title>
<g id="Layer_2_1_">
	<g id="Layer_1-2">
		<g id="_Group_">
			<path id="_Compound_Path_" class="st0" d="M125.9,44.4c-1.3,0.1-1.2,0.1-1-1.1c0.5-2.5,1-5,1.5-7.4c0.1-0.6,0.1-0.9-0.7-0.9
				c-2.2,0-4.5,0-6.7,0c-0.5,0-0.7,0.2-0.8,0.7c-0.6,2.7-1.3,5.5-1.9,8.2c-0.1,0.6-0.4,0.7-0.9,0.7c-1.7,0-3.4-0.1-5.1-0.1
				c-0.6,0-0.7-0.2-0.5-0.8c0.4-1.7,0.7-3.3,1-5.1c-0.5,0-0.6,0.4-0.8,0.6c-3.2,4.5-8.9,6.5-14.2,5c-3.9-1-6.7-4.6-6.9-8.6
				c-0.3-6.4,2-11.5,7.8-14.7c3.7-2.2,8.3-2.2,11.9,0.1c1.9,1.2,3.2,3,3.9,5.1c0.1,0.4,0.3,0.8,0.6,1.1c0.3-1.6,0.7-3.1,1-4.7
				c0.2-0.8,0.4-1.6,0.5-2.4c0.1-0.4,0.2-0.5,0.5-0.5h0.8c9.5,0,19,0,28.4,0c0.8,0,1.2,0.1,0.9,1.1c-0.4,1.3-0.7,2.6-0.9,3.9
				c-0.1,0.7-0.4,0.9-1.1,0.9c-2.4,0-4.8,0-7.1,0c-0.8,0-1,0.3-1.1,0.9c0,0.6-0.1,1.1-0.3,1.7c-0.3,0.8,0.1,0.7,0.7,0.7
				c2.3,0,4.6,0,7,0c0.8,0,1,0.1,0.8,1c-0.3,1.4-0.5,2.9-0.7,4.4c-0.1,0.5-0.3,0.6-0.8,0.6c-2.5,0-5,0-7.4,0c-0.8,0-1.1,0.3-1.2,0.9
				c-0.1,0.6-0.2,1.1-0.3,1.6c-0.3,0.9,0.1,1,0.9,1c2.3,0,4.7,0,7.1,0c0.6,0,0.8,0.2,0.6,0.8c-0.4,1.5-0.7,3-1,4.5
				c-0.1,0.8-0.5,0.7-1,0.6c-0.2-0.3-0.5-0.2-0.8-0.2h-11.9C126.4,44.2,126.1,44.2,125.9,44.4z M108.2,35.3h2.8
				c0.4,0,0.6-0.1,0.7-0.6c0.2-1.4,0.5-2.8,0.8-4.2c0.2-0.6-0.1-0.8-0.6-0.7c-1.2,0-2.4,0-3.6,0c-0.7,0-0.9-0.1-1.1-0.8
				c-0.3-1.7-1.6-3-3.2-3.5c-2.4-0.7-4.9,0.1-6.6,1.9c-1.9,2-2.8,4.6-2.5,7.3c0.1,2.2,1.9,4,4.1,4.2c2.1,0.3,4.2-0.4,5.5-2
				C105.2,35.7,106.7,35,108.2,35.3z M109.9,29.1h2.2c0.4,0,0.5-0.1,0.4-0.5c-0.8-4.4-3.5-7.8-8.3-8.4C99,19.5,95,21.8,92.1,26
				c-2.2,3.1-3,6.9-2.3,10.7c0.8,4.2,4.4,7.3,8.7,7.3c5.7,0.3,9.9-2.5,12.4-7.2c0.4-0.7,0.2-0.9-0.6-0.9c-1.1,0.1-2.3,0-3.4,0
				c-0.5,0-0.9,0.2-1.2,0.6c-1,1.4-2.4,2.4-4.1,2.9c-3.6,1.1-6.7-0.7-7.4-4.4c-0.1-1-0.1-2,0.1-3c0.4-3.2,3.2-6.6,6.2-7.3
				c3-0.6,5.5,0.2,6.6,2.6C107.8,28.9,108.6,29.5,109.9,29.1L109.9,29.1z M137.4,20.6L137.4,20.6c-2.1,0-4.2,0-6.3,0
				c-0.7,0-0.9,0.2-1,0.9c-0.7,3.4-1.4,6.9-2.1,10.3c-0.8,3.7-1.5,7.4-2.3,11c-0.2,0.7,0,1,0.8,1c4,0,8,0,12.1,0c0.8,0,1-0.4,1.1-1
				c0.1-0.9,0.3-1.8,0.6-2.7c0.3-0.8,0-0.9-0.8-0.9c-2.4,0-4.8,0-7.1,0c-0.6,0-0.8-0.1-0.6-0.8c0.3-1,0.5-2.1,0.7-3.1
				c0.1-0.9,0.5-1,1.3-1c2.3,0,4.6,0,7,0c0.8,0,1-0.2,1.1-0.9c0.1-0.9,0.2-1.9,0.4-2.8c0.2-0.7,0.1-0.9-0.7-0.9c-2.3,0-4.6,0-7,0
				c-0.9,0-1-0.3-0.8-1c0.2-1,0.5-2,0.6-3c0.1-0.6,0.4-0.8,1-0.8c2.4,0,4.9,0,7.3,0c0.5,0,0.8-0.1,0.9-0.7c0.1-0.9,0.4-1.8,0.6-2.7
				c0.2-0.6,0.1-0.9-0.7-0.9C141.6,20.6,139.5,20.6,137.4,20.6z M124.1,25h3.7c0.5,0,0.8-0.1,0.9-0.7c0.2-0.9,0.4-1.9,0.7-2.8
				c0.2-0.7,0-1-0.8-1c-4.1,0-8.3,0-12.5,0c-0.7,0-1,0.3-1.1,0.9c-0.4,1.8-0.7,3.7-1.1,5.5c-1.1,5.3-2.2,10.7-3.3,16
				c-0.1,0.5,0,0.8,0.6,0.8c1.2,0,2.5,0,3.7,0.1c0.6,0,0.7-0.3,0.8-0.7c0.6-2.7,1.2-5.3,1.8-8c0.1-0.6,0.4-0.8,1-0.8
				c2.4,0,4.9,0,7.3,0c0.7,0,0.9-0.3,1-0.9c0.1-1,0.3-2,0.5-2.9c0.1-0.6,0-0.9-0.7-0.9c-2.4,0-4.7,0-7.1,0c-0.8,0-0.9-0.3-0.7-1
				c0.2-1,0.5-2.1,0.7-3.2c0.1-0.6,0.3-0.6,0.8-0.6L124.1,25z M124.4,25.7h-1.8c-2.6,0-2.6,0-2.9,2.6c0,0,0,0.1,0,0.1
				c-0.1,0.4,0,0.6,0.5,0.6h7c0.4,0,0.6-0.1,0.6-0.5c0.1-0.7,0.3-1.4,0.4-2.1c0.1-0.5,0-0.8-0.6-0.8
				C126.6,25.7,125.5,25.7,124.4,25.7z M140,44.1c0,0,0-0.1-0.1-0.1s-0.1,0-0.1,0l0.1,0.2L140,44.1z"/>
			<path id="_Compound_Path_2" class="st0" d="M114.4,50.1c0.6-0.7,1.5-1,2.4-0.8c0.4,0,0.8,0.4,0.7,0.9c0,0,0,0.1,0,0.1
				c-0.2,0.9-0.4,1.8-0.7,2.7c-0.1,0.2-0.1,0.5-0.3,0.5c-0.7-0.1-1.3,0-2,0.1c-0.4,0-0.6-0.3-0.7-0.7c-0.1-0.6,0.3-1.2,0.8-1.5
				c0.4-0.2,0.9-0.3,1.3-0.5s0.6-0.4,0.4-0.7c-0.2-0.2-0.6-0.2-0.8,0c0,0,0,0,0,0c-0.4,0.5-0.7,0.6-1.4,0.2
				c-0.6-0.2-1.2,0.1-1.4,0.7c0,0,0,0.1,0,0.1c-0.1,0.6-0.4,1.2-0.4,1.9s-0.3,0.5-0.7,0.5c-0.6,0-0.3-0.4-0.3-0.7
				c0.2-1,0.5-2.1,0.7-3.1c0.1-0.3,0.1-0.4,0.4-0.4c0.5,0,1,0.3,1.5,0C114.4,49.2,114.1,49.9,114.4,50.1z M116.1,51.9
				c0-0.2,0-0.5-0.3-0.4c-0.5,0.1-0.8,0.5-0.9,0.9c0,0.3,0.1,0.5,0.4,0.5C115.9,52.8,116,52.4,116.1,51.9L116.1,51.9z"/>
			<path id="_Path_" class="st0" d="M74.3,49.4c0.9-0.6,1.9,0.3,3-0.2c0.7-0.3,1.3,0.3,1.1,1.1s-0.5,1.7-0.6,2.6
				c-0.1,0.6-0.4,0.6-0.8,0.6c-0.6-0.1-0.2-0.6-0.2-0.8c0.1-0.7,0.3-1.4,0.4-2.1c0-0.2,0.2-0.6-0.2-0.7c-0.3-0.1-0.6,0.1-0.7,0.4
				c0,0,0,0,0,0.1c-0.2,0.8-0.4,1.5-0.6,2.2c0,0.2-0.1,0.5-0.2,0.7c-0.2,0.3-0.5,0.2-0.8,0.2s-0.2-0.4-0.1-0.6
				c0.2-0.7,0.3-1.4,0.5-2.2c0.1-0.3,0.2-0.7-0.3-0.8c-0.5-0.1-0.7,0.2-0.8,0.6c-0.2,0.8-0.4,1.5-0.5,2.3c-0.1,0.6-0.4,0.7-0.8,0.6
				c-0.7-0.1-0.2-0.5-0.1-0.8c0.2-0.9,0.4-1.7,0.6-2.6C73.3,49.6,73.5,49.2,74.3,49.4z"/>
			<path id="_Path_2" class="st0" d="M64.4,52.2c0.1-1.1,0.4-2.3,0.9-3.3c0.6-1,1.8-1.5,2.9-1c0.4,0.2,0.7,0.7,0.6,1.1
				c0,0.3-0.1,0.5-0.5,0.5s-0.5,0-0.6-0.4c-0.2-0.7-0.8-0.8-1.2-0.2c-0.6,1-0.8,2.2-0.8,3.4c0,0.2,0.2,0.4,0.4,0.5
				c0.2,0.1,0.5,0,0.7-0.2c0.1-0.2,0.2-0.5,0.4-0.7c0.2-0.3,0.6-0.4,0.9-0.2c0.4,0.1,0.1,0.5,0,0.7c-0.4,1.1-1.7,1.7-2.8,1.3
				C64.6,53.4,64.2,52.8,64.4,52.2C64.4,52.2,64.4,52.2,64.4,52.2z"/>
			<path id="_Compound_Path_3" class="st0" d="M105.9,53.5c-0.4-0.2-0.8,0-1.3,0.1c-0.4,0.1-0.8-0.1-0.9-0.5c0-0.1,0-0.2,0-0.4
				c0.1-1,0.3-1.9,0.7-2.8c0.2-0.6,0.9-0.9,1.5-0.7c0.6,0.2,0.7,0,0.8-0.5c0-0.2,0.1-0.4,0.1-0.5c0.1-0.5,0.4-0.4,0.7-0.4
				c0.5,0,0.3,0.3,0.3,0.6c-0.3,1.5-0.7,3-1.1,4.6C106.5,53.5,106.3,53.6,105.9,53.5z M106.2,50.5c0-0.3-0.1-0.5-0.4-0.5
				c-0.3-0.1-0.5,0.1-0.6,0.3c0,0,0,0,0,0c-0.2,0.6-0.3,1.2-0.5,1.9c-0.1,0.2,0,0.5,0.3,0.6c0.2,0.1,0.5,0,0.6-0.3
				C105.8,51.9,106,51.2,106.2,50.5L106.2,50.5z"/>
			<path id="_Compound_Path_4" class="st0" d="M164.5,52.4c0.1-0.8,0.3-1.6,0.6-2.3c0.2-0.6,0.8-1,1.4-0.9c0,0,0.1,0,0.1,0
				c0.6,0.2,0.6,0,0.7-0.4c0-0.2,0.1-0.3,0.1-0.5c0.1-0.5,0.5-0.4,0.8-0.4c0.5,0.1,0.2,0.4,0.2,0.6c-0.3,1.5-0.7,3-1,4.5
				c0,0.1,0,0.2-0.1,0.3c-0.7,0.5-1.6,0.2-2.4,0.2C164.4,53.6,164.5,52.9,164.5,52.4z M167,50.7c0-0.3,0.1-0.6-0.3-0.6
				c-0.3-0.1-0.5,0-0.6,0.3c0,0,0,0,0,0.1c-0.2,0.6-0.3,1.2-0.5,1.9c-0.1,0.3,0,0.6,0.3,0.7s0.5-0.2,0.6-0.4
				C166.7,51.9,166.8,51.2,167,50.7z"/>
			<path id="_Compound_Path_5" class="st0" d="M121.7,52.7c0.1-0.9,0.3-1.7,0.6-2.6c0.2-0.6,0.8-1.1,1.4-0.9
				c0.9,0.3,0.8-0.2,0.9-0.7s0.1-0.6,0.5-0.6c0.4,0,0.7,0,0.6,0.6c-0.4,1.5-0.7,3.1-1.1,4.7c0,0.3-0.2,0.4-0.5,0.4
				c-0.1,0-0.1,0-0.2-0.1c-0.7-0.4-1.8,0.8-2.2-0.5C121.7,52.9,121.7,52.8,121.7,52.7z M122.8,52.3c0,0.2,0,0.5,0.3,0.6
				c0.3,0,0.5-0.1,0.6-0.4c0.2-0.6,0.4-1.2,0.5-1.9c0.1-0.3,0.1-0.6-0.2-0.7c-0.3-0.1-0.6,0.1-0.7,0.3c0,0,0,0.1,0,0.1
				C123.1,51.1,122.9,51.7,122.8,52.3z"/>
			<path id="_Compound_Path_6" class="st0" d="M158.6,53.5c-0.3-0.2-0.6,0-0.9,0.1c-0.8,0.1-1.2-0.2-1-1c0.1-0.9,0.3-1.7,0.6-2.5
				c0.2-0.6,0.9-1,1.6-0.8c0.5,0.1,0.6,0,0.7-0.4c0-0.2,0.1-0.5,0.2-0.7c0.2-0.3,0.5-0.3,0.7-0.2s0.2,0.3,0.2,0.5
				c-0.4,1.5-0.7,3-1.1,4.6C159.5,53.7,159,53.5,158.6,53.5z M159.1,50.7c0-0.3,0.1-0.6-0.2-0.6c-0.2-0.1-0.5,0-0.6,0.3
				c0,0,0,0.1,0,0.1c-0.2,0.6-0.3,1.2-0.5,1.9c0,0.2-0.1,0.6,0.3,0.7s0.6-0.2,0.7-0.5C158.9,51.8,159,51.2,159.1,50.7z"/>
			<path id="_Path_3" class="st0" d="M132.8,53.5c-1.6,0-1.6,0-1.2-1.6c0.3-1.2,0.6-2.3,0.8-3.5c0.1-0.4,0.2-0.6,0.7-0.6
				c0.7,0,1.4,0,2,0c0.2,0,0.5,0,0.5,0.4c0,0.4-0.2,0.4-0.5,0.4c-0.3,0-0.8,0-1.2,0c-0.3,0-0.5,0.1-0.6,0.4c0,0,0,0,0,0
				c-0.3,1-0.3,1,0.9,1.1c0.2,0,0.7-0.2,0.7,0.3c0,0.6-0.4,0.4-0.7,0.4h-0.8c-0.2,0-0.5,0-0.5,0.3c-0.1,0.4-0.4,0.9-0.2,1.3
				c0.2,0.4,0.7,0.1,1,0.2c0.3,0.1,0.8-0.2,0.8,0.3c0,0.5-0.5,0.5-0.9,0.5L132.8,53.5z"/>
			<path id="_Compound_Path_7" class="st0" d="M127,53.6c-1.1,0-1.5-0.4-1.3-1.5c0.1-0.5,0.2-1,0.3-1.4c0.2-0.8,0.8-1.4,1.6-1.4
				c0.5-0.2,1.1,0,1.4,0.4c0.3,0.5,0.3,1.2-0.1,1.7c-0.2,0.6-0.9,0.3-1.3,0.3c-0.5,0-1,0-1,0.7c0,0.2-0.1,0.5,0.3,0.6
				c0.2,0.1,0.5,0,0.7-0.2c0.1-0.2,0.2-0.4,0.3-0.5c0.2-0.2,0.5-0.2,0.8-0.1c0.3,0.2,0,0.5-0.1,0.7C128.3,53.3,127.7,53.7,127,53.6z
				 M128.2,50.4c0-0.4-0.2-0.4-0.5-0.4c-0.5,0-0.6,0.3-0.6,0.7s0.3,0.3,0.5,0.3C128,50.9,128.2,50.8,128.2,50.4z"/>
			<path id="_Compound_Path_8" class="st0" d="M137.3,52.2c0.1-0.7,0.3-1.4,0.6-2.1c0.5-0.9,1.7-1.3,2.7-0.8
				c0.7,0.5,0.3,1.2,0.2,1.8s-0.5,0.4-0.9,0.5h-1c-0.5,0-0.5,0.4-0.6,0.7c-0.1,0.2,0,0.5,0.3,0.5c0.3,0.1,0.6,0,0.7-0.3
				c0,0,0-0.1,0-0.1c0.1-0.3,0.4-0.6,0.8-0.5c0.1,0,0.1,0.1,0.2,0.1c0.5,0.3,0,0.7-0.2,0.9c-0.7,0.6-1.7,0.7-2.5,0.3
				C137.2,53.1,137.3,52.7,137.3,52.2z M139.8,50.4c0-0.3-0.1-0.5-0.4-0.5c-0.3,0-0.6,0.2-0.6,0.5c0,0,0,0.1,0,0.1
				c0,0.4,0.3,0.3,0.5,0.3S139.9,50.8,139.8,50.4z"/>
			<path id="_Compound_Path_9" class="st0" d="M101.1,53.7c-1.1,0-1.5-0.6-1.3-1.6c0.1-0.5,0.3-1,0.4-1.5c0.2-0.8,0.9-1.3,1.7-1.3
				c0.5,0,1.1,0,1.4,0.5s0,1.1-0.2,1.7c-0.1,0.2-0.4,0.2-0.6,0.2c-0.4,0-0.7,0-1.1,0c-0.4,0-0.5,0.2-0.6,0.6s-0.1,0.6,0.3,0.7
				c0.3,0.1,0.6-0.1,0.7-0.3c0.1-0.2,0.2-0.4,0.4-0.5c0.2-0.1,0.4,0,0.6,0.1c0.2,0.2,0,0.3-0.1,0.5
				C102.5,53.3,101.8,53.7,101.1,53.7z M101.8,50.9c0.3,0.1,0.5-0.1,0.5-0.5s-0.1-0.4-0.4-0.5c-0.3,0-0.6,0.2-0.7,0.5c0,0,0,0,0,0.1
				C101.2,50.9,101.5,50.9,101.8,50.9z"/>
			<path id="_Compound_Path_10" class="st0" d="M111.2,50.3c-0.1,1.2-0.2,1.3-1.4,1.3c-0.5,0-1.1-0.2-1.1,0.7c0,0.2-0.1,0.5,0.2,0.6
				c0.2,0.1,0.5,0,0.6-0.2c0.1-0.1,0.1-0.3,0.2-0.4c0.2-0.2,0.6-0.3,0.9-0.1c0.3,0.2,0,0.5,0,0.7c-0.5,0.7-1.5,1-2.3,0.7
				c-0.8-0.3-0.7-1-0.6-1.6c0.1-0.4,0.2-0.9,0.3-1.3c0.3-1.1,1.4-1.7,2.5-1.4c0.1,0,0.2,0,0.2,0.1C111.1,49.5,111.2,49.8,111.2,50.3
				z M110.2,50.3c0-0.3-0.2-0.4-0.5-0.4s-0.6,0.2-0.6,0.6c0,0.4,0.3,0.3,0.6,0.3C109.9,50.9,110.2,50.7,110.2,50.3L110.2,50.3z"/>
			<path id="_Path_4" class="st0" d="M91.8,49.4c0.2,0.1,0.5,0.1,0.7,0c1.1-0.3,1.5,0.2,1.3,1.2s-0.4,1.7-0.6,2.6
				c-0.1,0.4-0.4,0.5-0.7,0.5c-0.4-0.1-0.3-0.5-0.3-0.7c0.1-0.7,0.3-1.4,0.5-2.2c0.1-0.2,0.1-0.5-0.2-0.6c-0.3-0.1-0.5,0.1-0.6,0.3
				c0,0,0,0,0,0.1c-0.3,0.8-0.5,1.7-0.7,2.6c-0.1,0.6-0.4,0.6-0.8,0.5c-0.4-0.1-0.2-0.5-0.1-0.7c0.2-0.9,0.4-1.7,0.6-2.6
				C90.8,49.6,91,49.1,91.8,49.4z"/>
			<path id="_Compound_Path_11" class="st0" d="M162.7,49.2c1.2,0,1.6,0.4,1.3,1.5c-0.2,0.8-0.4,1.6-0.6,2.4c0,0.2-0.1,0.5-0.3,0.4
				c-0.6-0.1-1.2-0.1-1.8,0.1c-0.6,0-0.9-0.3-0.8-1c0.1-0.6,0.5-1.2,1.1-1.4c0.3-0.1,0.7-0.2,1-0.4s0.6-0.4,0.4-0.7
				c-0.2-0.2-0.5-0.3-0.7-0.1c0,0-0.1,0-0.1,0.1c-0.3,0.3-0.6,0.6-1,0.4c-0.1,0-0.2-0.2-0.1-0.3c0.1-0.4,0.5-0.7,0.9-0.8
				C162.3,49.3,162.6,49.2,162.7,49.2z M162.7,51.5c-0.4,0.1-0.7,0.2-0.9,0.5c-0.2,0.2-0.3,0.6,0,0.8c0.2,0.2,0.6,0.1,0.7-0.1
				c0,0,0-0.1,0.1-0.1C162.6,52.3,162.9,51.9,162.7,51.5z"/>
			<path id="_Path_5" class="st0" d="M98.6,47.9h0.9c0.3,0,0.7-0.1,0.7,0.4s-0.4,0.4-0.7,0.4c-0.2,0-0.5,0-0.7,0
				c-0.6-0.1-0.8,0.2-1,0.7c-0.2,0.5,0,0.8,0.6,0.7c0.2,0,0.4,0,0.6,0c0.2,0,0.6-0.1,0.6,0.3c0,0.4-0.2,0.5-0.5,0.5
				c-0.5,0.1-1.2-0.3-1.6,0.2c-0.2,0.5-0.4,1-0.4,1.5c0,0.2,0,0.3-0.1,0.5c-0.1,0.6-0.6,0.4-0.9,0.4c-0.3,0-0.3-0.4-0.2-0.7
				c0.3-1.2,0.6-2.3,0.8-3.5C97.2,47.6,96.9,47.9,98.6,47.9z"/>
			<path id="_Compound_Path_12" class="st0" d="M89.9,50.8c-0.1,0.7-0.3,1.4-0.6,2c-0.2,0.4-0.5,0.7-0.9,0.8
				c-1.4,0.3-2.4-0.1-1.9-1.8c0.5-1.9,0.8-2.5,2-2.6C89.4,49.1,89.9,49.5,89.9,50.8z M87.3,52.2c0,0.4,0,0.7,0.3,0.7
				c0.3,0.1,0.6,0,0.7-0.3c0,0,0,0,0-0.1c0.2-0.6,0.3-1.2,0.5-1.8c0.1-0.3,0.2-0.6-0.2-0.8c-0.3-0.1-0.7,0.1-0.8,0.4c0,0,0,0,0,0.1
				C87.6,51.1,87.5,51.7,87.3,52.2z"/>
			<path id="_Compound_Path_13" class="st0" d="M69.9,53.6c-1.1,0-1.5-0.5-1.2-1.5c0.1-0.5,0.3-1.1,0.5-1.6c0.2-0.8,0.9-1.3,1.7-1.3
				c1.1-0.1,1.6,0.4,1.4,1.5c-0.1,0.5-0.2,1-0.4,1.5C71.7,53.2,70.9,53.8,69.9,53.6z M71.3,50.5c0-0.2-0.1-0.4-0.3-0.5
				c-0.3-0.1-0.7,0-0.8,0.4c0,0,0,0.1,0,0.1c-0.2,0.5-0.3,1.1-0.4,1.7c-0.1,0.4-0.1,0.7,0.3,0.8c0.4,0.1,0.7-0.2,0.8-0.5
				C71,51.8,71.1,51.2,71.3,50.5z"/>
			<path id="_Path_6" class="st0" d="M81.8,53.7c-0.4-0.1-1,0-1.2-0.6c-0.1-0.3-0.2-0.7,0.1-0.8c0.4-0.1,0.8-0.3,0.9,0.3
				c0,0.2,0.2,0.4,0.4,0.4c0.2,0,0.4-0.2,0.5-0.4c0.1-0.2,0-0.4-0.2-0.6c-0.3-0.2-0.6-0.4-0.8-0.6c-0.5-0.4-0.5-1.1-0.2-1.5
				c0,0,0.1-0.1,0.1-0.1c0.6-0.6,1.6-0.7,2.3-0.3c0.3,0.2,0.4,0.5,0.4,0.8c0,0.2-0.1,0.4-0.3,0.4c-0.2,0-0.7,0.1-0.8-0.3
				c0-0.2-0.3-0.4-0.5-0.3c-0.1,0-0.2,0.1-0.2,0.1c-0.3,0.3-0.1,0.5,0.2,0.8c0.1,0.1,0.2,0.1,0.3,0.2c0.5,0.4,1.1,0.7,0.8,1.5
				C83.4,53.3,82.7,53.6,81.8,53.7z"/>
			<path id="_Path_7" class="st0" d="M151.1,52.5c0.2-0.8,0.4-1.6,0.6-2.3c0.3-0.8,1.3-1.2,2.1-0.9c0.4,0.1,0.7,0.4,0.7,0.9
				c0,0.3-0.1,0.5-0.4,0.5c-0.3,0.1-0.7,0.1-0.8-0.5c0-0.3-0.5-0.2-0.6,0c-0.3,0.7-0.5,1.5-0.5,2.3c0,0.2,0.1,0.3,0.2,0.3
				c0,0,0,0,0,0c0.2,0,0.3-0.1,0.3-0.2c0.1-0.2,0.2-0.4,0.3-0.6c0.2-0.2,0.5-0.3,0.8-0.1c0.3,0.1,0.2,0.4,0.1,0.6
				c-0.4,0.9-1.5,1.3-2.5,0.9C151.2,53.3,151.2,52.9,151.1,52.5z"/>
			<path id="_Path_8" class="st0" d="M142.3,53.7c-0.9,0-1.3-0.5-1.1-1.4c0.1-0.6,0.3-1.2,0.4-1.8c0.3-0.9,1.3-1.5,2.2-1.2
				c0.1,0,0.2,0.1,0.2,0.1c0.3,0.2,0.5,0.6,0.4,0.9c0,0.3-0.1,0.4-0.4,0.4c-0.3,0-0.6,0.1-0.6-0.3c0-0.3-0.1-0.4-0.4-0.4
				c-0.2,0-0.4,0.2-0.4,0.4c-0.2,0.7-0.3,1.3-0.4,2c0,0.2,0,0.4,0.2,0.5s0.4-0.1,0.5-0.3c0.1-0.1,0.1-0.3,0.2-0.4
				c0.2-0.4,0.5-0.3,0.8-0.2c0.3,0.1,0.2,0.4,0.1,0.6C143.7,53.3,143.1,53.6,142.3,53.7z"/>
			<path id="_Path_9" class="st0" d="M146.6,48.8c0.5,1.2-0.9,2-0.8,3.2c0,0.2-0.3,0.5,0,0.8c0.2,0.1,0.2,0.4,0.1,0.6
				c0,0-0.1,0.1-0.1,0.1c-0.3,0.2-0.7,0.2-1,0c-0.3-0.1-0.4-0.4-0.3-0.7c0,0,0,0,0,0c0.2-0.7,0.3-1.4,0.5-2.1
				c0.1-0.3,0.2-0.5-0.1-0.7c-0.1-0.1-0.2-0.3-0.1-0.4c0,0,0-0.1,0.1-0.1c0.3-0.2,0.5-0.5,0.5-0.9c0.1-0.3,0.4-0.5,0.7-0.5
				c0,0,0.1,0,0.1,0C146.8,48.2,146.7,48.5,146.6,48.8z"/>
			<path id="_Path_10" class="st0" d="M137.4,48.3c-0.4,1.7-0.7,3.3-1.1,4.8c-0.1,0.5-0.5,0.5-0.9,0.4s-0.2-0.4-0.1-0.6
				c0.4-1.5,0.7-3.1,1-4.6c0.1-0.5,0.4-0.4,0.8-0.4C137.4,47.9,137.4,48.2,137.4,48.3z"/>
			<path id="_Path_11" class="st0" d="M120,48.4c-0.4,1.6-0.7,3.1-1.1,4.6c0,0.3-0.3,0.6-0.7,0.6c-0.1,0-0.1,0-0.1,0
				c-0.5-0.1-0.2-0.5-0.2-0.7c0.3-1.4,0.7-2.9,1-4.3c0.1-0.4,0.2-0.6,0.7-0.6C120.1,48,120,48.3,120,48.4z"/>
			<path id="_Path_12" class="st0" d="M149.4,49.6c-0.1,0.3,0,0.7-0.4,0.7c-0.8,0.1-1,0.7-1.1,1.4c-0.1,0.5-0.2,0.9-0.3,1.4
				c-0.1,0.5-0.5,0.5-0.8,0.5c-0.4-0.1-0.2-0.4-0.1-0.7c0.2-1,0.4-1.9,0.7-2.9c0.1-0.3,0.1-0.7,0.6-0.6c0.5,0.1,0.9,0.4,1.3,0
				C149.3,49.3,149.5,49.4,149.4,49.6z"/>
			<path id="_Path_13" class="st0" d="M154.7,53l0.8-3.2c0.1-0.5,0.5-0.5,0.9-0.4c0.5,0.1,0.2,0.4,0.1,0.6c-0.2,1-0.5,2.1-0.7,3.1
				c-0.1,0.5-0.4,0.4-0.8,0.4C154.6,53.5,154.6,53.2,154.7,53z"/>
			<path id="_Path_14" class="st0" d="M79.2,53.5c-0.4,0-0.6-0.1-0.5-0.5c0.3-1.1,0.5-2.2,0.8-3.3c0.1-0.5,0.5-0.4,0.8-0.4
				c0.3,0,0.3,0.3,0.2,0.6c-0.3,1.1-0.5,2.2-0.8,3.2C79.7,53.5,79.5,53.6,79.2,53.5z"/>
			<path id="_Path_15" class="st0" d="M149.2,53c0.2-1.1,0.5-2.2,0.8-3.3c0.1-0.5,0.5-0.4,0.8-0.3c0.3,0,0.2,0.3,0.1,0.5
				c-0.2,1.1-0.5,2.2-0.7,3.2c-0.1,0.4-0.4,0.4-0.7,0.4C149.2,53.5,149.1,53.3,149.2,53z"/>
			<path id="_Path_16" class="st0" d="M84.3,53c0.2-1.1,0.5-2.2,0.7-3.3c0.1-0.5,0.5-0.5,0.9-0.4c0.5,0.1,0.1,0.4,0.1,0.6
				c-0.2,1-0.5,2.1-0.7,3.1c-0.1,0.4-0.4,0.4-0.7,0.4C84.2,53.5,84.2,53.2,84.3,53z"/>
			<path id="_Path_17" class="st1" d="M125.9,44.4c0.2-0.3,0.5-0.2,0.8-0.2h11.8c0.3,0,0.6-0.1,0.8,0.2H125.9z"/>
			<path id="_Path_18" class="st0" d="M88.2,48.8c0.4-0.8,0.9-1.2,1.8-1C89.6,48.4,89,48.8,88.2,48.8z"/>
			<path id="_Path_19" class="st0" d="M80.9,48.4c0,0.3-0.3,0.4-0.7,0.4s-0.5,0-0.4-0.3c0-0.3,0.3-0.6,0.6-0.6c0,0,0.1,0,0.1,0
				C80.8,47.9,81,48,80.9,48.4z"/>
			<path id="_Path_20" class="st0" d="M86.4,48.3c0,0.4-0.2,0.5-0.6,0.5c-0.2,0-0.6,0.1-0.5-0.3s0.2-0.6,0.6-0.6
				C86.3,47.9,86.4,47.9,86.4,48.3z"/>
			<path id="_Path_21" class="st0" d="M151.4,48.2c-0.1,0.3-0.2,0.6-0.6,0.6c-0.2,0-0.6,0.1-0.5-0.3c0-0.3,0.2-0.6,0.5-0.6
				c0,0,0.1,0,0.1,0C151.1,47.9,151.3,47.9,151.4,48.2z"/>
			<path id="_Path_22" class="st0" d="M156.3,47.9c0.3,0,0.5,0,0.5,0.4c0,0.4-0.2,0.5-0.6,0.5s-0.6,0.1-0.5-0.3
				C155.8,48.2,155.8,47.8,156.3,47.9z"/>
			<path id="_Compound_Path_14" class="st2" d="M109.9,29.1c-1.3,0.4-2.1-0.2-2.8-1.7c-1.1-2.4-3.7-3.2-6.6-2.6
				c-2.9,0.6-5.8,4.1-6.2,7.3c-0.2,1-0.2,2-0.1,3c0.6,3.6,3.8,5.4,7.4,4.4c1.7-0.5,3.1-1.5,4.1-2.9c0.3-0.4,0.7-0.6,1.2-0.6
				c1.1,0,2.3,0.1,3.4,0c0.8,0,0.9,0.2,0.6,0.9c-2.5,4.7-6.7,7.5-12.4,7.2c-4.3-0.1-7.9-3.1-8.7-7.3C89,33,89.9,29.1,92.1,26
				c2.9-4.2,6.9-6.5,12.2-5.9c4.8,0.6,7.4,4,8.3,8.4c0.1,0.4-0.1,0.5-0.4,0.5L109.9,29.1z M98.5,43.4c5.2,0,8.5-2,10.9-5.7
				c0.1-0.2,0.4-0.5,0.3-0.7c-0.1-0.2-0.5-0.1-0.7-0.1c-0.5,0-0.9,0-1.4,0c-0.7-0.1-1.4,0.2-1.9,0.8c-1.2,1.4-2.8,2.4-4.6,2.7
				c-3,0.5-5.7-0.5-7-3.1c-0.9-2-1-4.2-0.3-6.2c1-3.5,3.1-6.2,6.9-7.1c2.8-0.7,5.9,0.4,7,2.8c0.4,1.3,1.7,2,3,1.7h0.4
				c0.5,0,0.6-0.2,0.5-0.6c-0.4-1.9-1.4-3.6-2.9-4.8c-3.2-2.5-7.7-2.8-11.2-0.8c-4.2,2.3-6.4,6.1-7,10.8
				C89.6,38.2,93,43.6,98.5,43.4z"/>
			<path id="_Compound_Path_15" class="st2" d="M137.4,20.6c2.1,0,4.2,0,6.3,0c0.7,0,0.8,0.2,0.7,0.9c-0.3,0.9-0.5,1.8-0.6,2.8
				c-0.1,0.6-0.4,0.7-0.9,0.7c-2.4,0-4.9,0-7.3,0c-0.6,0-0.9,0.1-1,0.8c-0.1,1-0.4,2-0.6,3c-0.2,0.7,0,1,0.8,1c2.3-0.1,4.6,0,7,0
				c0.8,0,0.9,0.2,0.7,0.9c-0.2,0.9-0.4,1.9-0.5,2.8c-0.1,0.7-0.4,1-1.1,0.9c-2.3-0.1-4.6,0-7,0c-0.8,0-1.2,0.1-1.3,1
				c-0.1,1.1-0.4,2.1-0.7,3.2c-0.2,0.7,0,0.8,0.6,0.8c2.4,0,4.8,0,7.2,0c0.7,0,1,0.1,0.8,0.9c-0.3,0.9-0.4,1.8-0.6,2.7
				c-0.1,0.6-0.3,1-1.1,1c-4,0-8,0-12.1,0c-0.8,0-1-0.3-0.8-1c0.8-3.7,1.5-7.3,2.3-11c0.7-3.7,1.4-7.1,2.1-10.5
				c0.1-0.7,0.3-0.9,1-0.9C133.2,20.6,135.3,20.6,137.4,20.6L137.4,20.6z M132.6,43h4c2.2,0,2.2,0,2.8-2.2c0.2-0.8-0.1-0.9-0.7-0.9
				c-2.5,0-5,0-7.4,0c-0.6,0-0.8-0.2-0.6-0.7c0.4-1.7,0.8-3.4,1.1-5.1c0.1-0.7,0.5-0.8,1.1-0.8c2,0,3.9,0,5.8,0
				c0.7,0,1.7,0.2,2.2-0.1s0.3-1.4,0.5-2.1s-0.1-0.8-0.7-0.8c-2.4,0-4.9,0-7.3,0c-0.4,0-0.8,0.1-0.7-0.6c0.4-1.6,0.8-3.2,1.1-4.8
				c0.1-0.8,0.5-1,1.2-0.9c1.9,0,3.8,0,5.8,0c2.1,0,2.1,0,2.6-2c0.2-0.7,0.1-0.9-0.7-0.9c-3.6,0-7.1,0-10.7,0
				c-0.8,0-1.1,0.3-1.3,1.1c-0.7,3.4-1.4,6.8-2.1,10.2c-0.7,3.2-1.3,6.4-2,9.6c-0.2,0.7,0,0.9,0.7,0.8C129,43,130.8,43,132.6,43z"/>
			<path id="_Compound_Path_16" class="st2" d="M124.1,25h-3.8c-0.5,0-0.7,0.1-0.8,0.6c-0.2,1.1-0.4,2.1-0.7,3.2c-0.2,0.7,0,1,0.7,1
				c2.3,0,4.7,0,7.1,0c0.7,0,0.8,0.2,0.7,0.9c-0.2,1-0.4,1.9-0.5,2.9c-0.1,0.6-0.3,0.9-1,0.9c-2.5,0-4.9,0-7.3,0
				c-0.6,0-0.9,0.2-1,0.8c-0.6,2.7-1.2,5.4-1.8,8c-0.1,0.4-0.2,0.7-0.8,0.7c-1.2-0.1-2.5-0.1-3.7-0.1c-0.6,0-0.8-0.2-0.6-0.8
				c1.1-5.3,2.2-10.7,3.3-16c0.4-1.9,0.8-3.8,1.1-5.6c0.1-0.6,0.3-0.9,1.1-0.9c4.2,0,8.3,0,12.4,0c0.8,0,1,0.2,0.8,1
				c-0.3,0.9-0.5,1.8-0.6,2.8c-0.1,0.6-0.4,0.7-0.9,0.7H124.1z M117.6,30.5c0.4-1.9,0.8-3.7,1.1-5.6c0.1-0.6,0.4-0.7,0.9-0.7
				c2,0,4,0,6,0c2.2,0,2.2,0,2.7-2.2c0.1-0.6,0-0.7-0.6-0.7c-3.7,0-7.4,0-11.2,0c-0.5,0-0.7,0.1-0.8,0.6c-0.6,3.4-1.4,6.8-2.1,10.2
				c-0.7,3.4-1.4,6.9-2.2,10.3c-0.1,0.6,0,0.6,0.5,0.6c0.7,0,1.3,0,2,0c0.6,0,0.9-0.2,1-0.8c0.6-2.7,1.2-5.4,1.8-8
				c0.1-0.6,0.4-0.8,1-0.8c2,0,4,0,6,0s2.1,0,2.6-2c0.2-0.7,0.1-1-0.8-1C123,30.5,120.4,30.5,117.6,30.5z"/>
			<path id="_Path_23" class="st1" d="M140,44.1l-0.1,0.1l-0.1-0.2c0,0,0.1-0.1,0.1,0S140,44,140,44.1z"/>
			<path id="_Path_24" class="st0" d="M98.5,43.4c-5.5,0.2-8.9-5.2-8.2-10.5c0.7-4.7,2.8-8.5,7.1-10.8c3.5-2,8-1.7,11.2,0.8
				c1.5,1.2,2.5,2.9,2.9,4.8c0.1,0.4,0,0.7-0.5,0.6h-0.4c-1.3,0.3-2.6-0.4-3-1.7c-1-2.4-4.2-3.5-7-2.8c-3.8,0.9-5.8,3.6-6.9,7.1
				c-0.7,2-0.6,4.3,0.3,6.2c1.3,2.6,4,3.6,7,3.1c1.8-0.3,3.5-1.3,4.6-2.7c0.4-0.6,1.1-0.9,1.8-0.8c0.5,0,0.9,0,1.4,0
				c0.3,0,0.6-0.1,0.7,0.1s-0.2,0.5-0.3,0.7C107.1,41.3,103.7,43.3,98.5,43.4z"/>
			<path id="_Path_25" class="st0" d="M132.6,43c-1.8,0-3.6,0-5.4,0c-0.7,0-0.9-0.2-0.7-0.9c0.7-3.2,1.3-6.4,2-9.6
				c0.7-3.4,1.5-6.8,2.1-10.2c0.2-0.8,0.5-1.1,1.3-1.1c3.6,0,7.1,0,10.7,0c0.8,0,0.9,0.2,0.7,0.9c-0.6,2-0.5,2-2.6,2
				c-1.9,0-3.8,0-5.8,0c-0.7,0-1.1,0.1-1.2,0.9c-0.3,1.6-0.6,3.1-1,4.8c-0.2,0.7,0.3,0.6,0.7,0.6c2.4,0,4.9,0,7.3,0
				c0.6,0,0.9,0.1,0.7,0.8c-0.2,0.7,0,1.7-0.5,2.1c-0.5,0.3-1.4,0.1-2.2,0.1c-1.9,0-3.9,0-5.8,0c-0.6,0-0.9,0.1-1.1,0.8
				c-0.3,1.7-0.7,3.4-1.1,5.1c-0.1,0.6,0,0.8,0.6,0.7c2.5,0,5,0,7.4,0c0.6,0,0.9,0,0.7,0.9c-0.6,2.2-0.6,2.2-2.8,2.2L132.6,43z"/>
			<path id="_Path_26" class="st0" d="M117.6,30.5c2.8,0,5.4,0,8,0c0.8,0,0.9,0.3,0.8,1c-0.5,2-0.5,2-2.6,2s-4,0-6,0
				c-0.6,0-0.9,0.1-1,0.8c-0.5,2.7-1.2,5.4-1.8,8.1c-0.1,0.6-0.4,0.8-1,0.8c-0.7,0-1.3,0-2,0c-0.5,0-0.6,0-0.5-0.6
				c0.8-3.4,1.4-6.9,2.2-10.3c0.7-3.4,1.4-6.8,2.1-10.2c0.1-0.5,0.3-0.6,0.8-0.6c3.7,0,7.4,0,11.1,0c0.5,0,0.7,0.1,0.6,0.7
				c-0.5,2.2-0.4,2.2-2.7,2.2c-2,0-4,0-6,0c-0.6,0-0.8,0.1-0.9,0.7C118.3,26.8,118,28.6,117.6,30.5z"/>
		</g>
	</g>
</g>
</svg>
