<?xml version="1.0" encoding="utf-8"?>
<!-- Generator: Adobe Illustrator 22.1.0, SVG Export Plug-In . SVG Version: 6.00 Build 0)  -->
<svg version="1.1" id="Layer_1" xmlns="http://www.w3.org/2000/svg" xmlns:xlink="http://www.w3.org/1999/xlink" x="0px" y="0px"
	 viewBox="0 0 233 73" style="enable-background:new 0 0 233 73;" xml:space="preserve">
<style type="text/css">
	.st0{fill:#3D3D3D;}
	.st1{fill:#FFFFFF;}
</style>
<title>Asset 39</title>
<g id="Layer_2_1_">
	<g id="Layer_1-2">
		<g id="_Group_">
			<path id="_Compound_Path_" class="st0" d="M161.7,44.3c-0.7-0.1-1.1-0.1-1.5,0.6c-0.3,0.5-0.6,1-1,1.5c-0.8,1.3-1.9,2.4-3.2,3.2
				c-0.2,0.1-0.4,0-0.6,0.1c0-0.2-0.1-0.4,0-0.6c0.3-0.7,0.6-1.3,0.9-1.9c1.9-3.4,3.9-6.8,5.8-10.2c0.1-0.1,0.1-0.3,0.2-0.5
				c-0.8,0-1.5,0-2.2,0s-1.3,0-1.6,0.8h-0.1c-0.1-0.2-0.3-0.3-0.4-0.5c-0.3-0.4-0.9-0.7-1.4-0.7c-0.7,0-1.3,0.2-1.9,0.5
				c-0.7,0.4-1.4,0.9-2,1.5c-1.8,1.6-3.4,3.5-4.7,5.6c-1.1,1.6-2.1,3.2-3.2,4.7c-0.4,0.5-0.9,1-1.4,1.4c-0.3,0.3-0.7,0.3-1,0
				c-0.1-0.1-0.2-0.3-0.2-0.5c-0.1-0.3-0.1-0.7,0-1c0.3-1.7,0.9-3.3,1.6-4.8c0.2-0.6,0.7-1.2,1.2-1.5c4.2-3.1,8-6.8,11.1-10.9
				c0.4-0.6,0.9-1.2,1.3-1.8c-0.6-0.1-1.2,0.1-1.6,0.6c-0.9,1.2-1.9,2.4-3,3.6c-2,2.3-4.2,4.4-6.5,6.3c-0.3,0.2-0.6,0.4-0.9,0.7
				l-0.1-0.1c0.1-0.2,0.2-0.4,0.2-0.5c1.9-3.7,4.1-7.2,6.5-10.6c1.6-2.3,3.5-4.5,5.6-6.4c0.6-0.5,1.2-0.9,1.8-1.3
				c0.4-0.2,0.7-0.1,0.6,0.4c-0.1,0.5-0.3,1-0.5,1.5c-0.2,0.4-0.4,0.8-0.6,1.2l0.1,0.1c0.4-0.1,0.9-0.1,1-0.4c0.7-1,1.1-2.2,0.9-3.4
				c-0.1-0.5-0.4-0.8-0.9-0.9c-0.6-0.1-1.3,0-1.8,0.3c-0.8,0.4-1.6,0.9-2.4,1.5c-3.6,2.9-6.7,6.3-9.3,10.1c-2.3,3.3-4.3,6.7-6,10.3
				c-0.1,0.2-0.2,0.4-0.3,0.4c-0.5,0.2-1.1,0.3-1.6,0.5l-0.1-0.1c0-0.2,0.1-0.3,0.2-0.4c0.3-0.7,0.6-1.3,0.8-2c0.4-1,0.5-2,0.3-3
				c-0.1-0.9-0.9-1.6-1.8-1.5c-0.5,0-1.1,0.1-1.6,0.3c-0.9,0.4-1.7,0.9-2.5,1.5c-2.8,2.4-5,5.4-6.3,8.9c-0.5,1.2-0.8,2.6-0.7,3.9
				c0,1.2,0.9,2.1,2,2.2c0.3,0,0.6,0,0.9-0.1c0.3-0.1,0.7-0.2,1-0.4c1.2-0.7,2.3-1.6,3.2-2.6c1.4-1.6,2.7-3.4,3.8-5.3
				c0.1-0.1,0.2-0.3,0.3-0.4c0.6-0.1,1.1-0.1,1.7-0.2c-0.2,0.6-0.4,1.2-0.6,1.8s-0.4,1.2-0.6,1.8c-0.3,1-0.4,2-0.4,3.1
				c-0.1,1.2,0.8,2.2,2,2.2c0.5,0,0.9-0.1,1.3-0.3c0.2-0.1,0.3-0.2,0.5-0.2c1-0.7,1.8-1.4,2.6-2.4l0.4-0.4c0,0.6,0,1,0,1.5
				c0,1,0.8,1.9,1.8,1.9c0.2,0,0.4,0,0.6-0.1c0.4-0.1,0.7-0.2,1-0.4c0.8-0.6,1.6-1.2,2.3-1.8c0.1-0.1,0.2-0.2,0.3-0.3
				c0,0.4,0,0.8,0,1.2c0,0.8,0.6,1.4,1.4,1.5c0.1,0,0.3,0,0.4,0c0.3-0.1,0.7-0.2,1-0.3c1.4-0.7,2.7-1.8,3.7-3
				C159.3,47.9,160.6,46.2,161.7,44.3z M109.6,28.9l-0.2-0.2c-0.6-0.8-1.7-1.1-2.6-0.7c-1,0.4-1.9,0.9-2.7,1.7c-2,1.8-3.7,3.8-5.1,6
				c-1.3,1.9-2.7,3.6-4.4,5.1c-0.6,0.6-1.4,1.1-2.3,1.4c-0.7,0.2-1.5-0.2-1.7-0.9c0-0.1,0-0.1-0.1-0.2c-0.1-0.8-0.1-1.6,0.2-2.3
				c1.2-3.3,3.2-6.3,5.8-8.6c0.3-0.2,0.7-0.4,1.1-0.6c0.3-0.1,0.6-0.1,0.9-0.1c0.4,0.1,0.5,0.4,0.5,0.8s-0.3,0.4-0.6,0.5
				c-1.1,0.3-1.9,1.3-1.9,2.5c0,0.5,0.4,0.8,0.9,0.8c0.1,0,0.2,0,0.2,0c0.3-0.1,0.5-0.2,0.8-0.5c0.9-0.8,1.4-1.8,1.6-3
				c0.3-1.2-0.4-2.3-1.6-2.6c-0.3-0.1-0.5-0.1-0.8,0c-0.8,0-1.5,0.2-2.2,0.6c-1.2,0.7-2.3,1.6-3.2,2.6c-1,1.1-2.1,2-3.3,2.7
				c-0.4,0.2-0.7,0.3-1.1,0.5l-0.1-0.1l0.3-0.8c0.4-1,0.7-2.1,0.7-3.2c0.1-1.1-0.7-2.2-1.9-2.3c-0.2,0-0.4,0-0.6,0
				c-1,0.1-1.9,0.4-2.7,1c-3.4,2.3-6,5.5-7.4,9.3c-0.6,1.3-0.8,2.8-0.7,4.2c0,1.2,1,2.2,2.2,2.3c0.3,0,0.6-0.1,0.9-0.2
				c0.5-0.2,1-0.4,1.4-0.7c1.6-1,2.9-2.3,4-3.8c1.1-1.4,1.9-2.9,2.9-4.3c0.1-0.1,0.2-0.3,0.3-0.3c0.5-0.1,1-0.2,1.5-0.3
				c-0.1,0.2-0.1,0.3-0.2,0.4c-0.3,0.6-0.6,1.2-0.9,1.8c-0.8,1.4-1.1,3-1,4.6c0.1,1.7,1.6,2.9,3.2,2.8c0.2,0,0.3,0,0.5-0.1
				c1.1-0.2,2.1-0.6,3-1.3c1-0.8,2-1.7,2.9-2.6l0.4-0.3c-0.1,0.7-0.3,1.4-0.3,2c-0.3,1,0.4,2.1,1.4,2.3c0.4,0.1,0.8,0.1,1.2-0.1
				c1-0.3,1.8-0.9,2.6-1.6l0.8-0.8c0,0.4,0,0.7,0,1c0,0.8,0.7,1.5,1.5,1.4c0.1,0,0.2,0,0.3,0c0.9-0.2,1.7-0.6,2.3-1.2
				c2.3-2,4.4-4.3,6-6.9c0,0,0-0.1,0-0.1c-0.6-0.2-1.2,0.1-1.5,0.6c-0.9,1.2-1.9,2.3-2.9,3.4c-0.4,0.4-0.8,0.7-1.3,0.9
				c-0.1,0.1-0.3,0.1-0.5,0c-0.1-0.1-0.2-0.3-0.1-0.5c0.1-0.3,0.2-0.5,0.3-0.7c2.2-3.7,4.3-7.5,6.5-11.2c0.1-0.2,0.2-0.3,0.3-0.5
				c-0.9,0-1.6,0-2.4,0C110.3,28.3,109.8,28.2,109.6,28.9z M152.6,24.2l-5.4-3c-2.6-1.6-5.8-1.9-8.6-0.8c-0.4,0.2-0.8,0.3-1.2-0.1
				c-0.2-0.2-0.5-0.3-0.8-0.4c-0.8-0.3-1.7-0.3-2.6-0.1c-2.1,0.5-4,1.4-5.8,2.6c-3.5,2.3-6.5,5.2-9,8.6c-2.9,3.6-5.1,7.7-6.5,12.1
				c-0.7,2-0.7,4.2-0.1,6.2c0.6,2.3,2.8,3.8,5.2,3.5c1.3-0.2,2.6-0.7,3.7-1.5c3.2-2.2,5.6-5.3,7-8.9c0.5-1.3,0.8-2.7,0.7-4.1
				c-0.1-1.8-1.2-2.6-3-2.2c-0.8,0.2-1.5,0.6-2.2,1c-1.8,1.3-3.2,3.2-3.8,5.4c-0.4,1.2-0.7,2.5-0.9,3.8c0.1-0.1,0.1-0.1,0.2-0.1
				c1.1-1.2,2.4-2.2,3.9-3c0.2-0.1,0.3-0.3,0.3-0.5c0.3-1.5,1-2.9,2.1-4.1c0.4-0.4,0.8-0.7,1.3-0.9c0.4-0.2,0.9-0.1,1.1,0.3
				c0.1,0.1,0.1,0.3,0.1,0.4c0.1,0.7,0,1.4-0.1,2.1c-0.8,2.9-2.4,5.5-4.6,7.6c-0.8,0.9-1.8,1.5-2.9,1.9c-1.4,0.6-2.9-0.1-3.5-1.4
				c0-0.1-0.1-0.2-0.1-0.3c-0.2-0.7-0.3-1.4-0.3-2.1c0.2-2.2,0.8-4.3,1.7-6.3c1.6-3.6,3.6-6.9,6.1-9.9c2-2.7,4.3-5,7-7
				c1.1-0.7,2.2-1.3,3.3-1.9c0.7-0.3,1.4-0.4,2.1-0.1l-0.7,0.4c-3,1.9-5.3,4.7-6.6,8c-0.3,0.7-0.4,1.4-0.2,2.2
				c0.1,0.9,0.9,1.5,1.8,1.4c0.1,0,0.3-0.1,0.4-0.1c0.4-0.1,0.9-0.3,1.3-0.5c1.2-0.7,2.2-1.7,2.9-2.8c1.8-2.2,2.7-4.9,2.8-7.7
				c0-0.2,0.1-0.3,0.3-0.3c0.4-0.1,0.9-0.1,1.3-0.1c1.5,0.3,2.9,0.8,4.2,1.7c1.4,0.8,2.7,1.7,4,2.6c0.5,0.3,0.9,0.6,1.4,0.8
				c0.1,0.1,0.3,0.1,0.4,0C151,25.9,151.8,25.1,152.6,24.2L152.6,24.2z M109.3,53.4c-0.1-0.2-0.3-0.3-0.4-0.5
				c-1-0.8-1.9-1.7-2.9-2.5c-2.8-2.2-6.3-3.4-9.9-3.2c-2.6,0.1-5.1,0.5-7.6,1.1c-3.5,0.8-6.9,1.7-10.4,2.4c-1.5,0.4-3.2,0.4-4.7,0
				c-2-0.5-3.7-1.6-4.2-3.8C69.1,46.4,69,45.7,69,45c0-2.4,0.6-4.8,1.6-7c2.2-5.2,5.5-9.8,9.6-13.7c1.2-1.2,2.7-2.2,4.3-2.8
				c0.5-0.2,1.1-0.3,1.7-0.3c0.6,0,1,0.4,1,1c0,0.1,0,0.2,0,0.3c0,0.2-0.2,0.4-0.4,0.4c-1.2,0-2.4,1.6-2.2,2.8
				c0,0.4,0.4,0.7,0.8,0.7c0.5,0,1.1-0.2,1.4-0.7c0.7-0.8,1.2-1.7,1.4-2.8c0.4-1.4-0.4-2.8-1.7-3.2c-0.1,0-0.2-0.1-0.3-0.1
				c-0.7-0.1-1.4-0.1-2.1,0.1c-2.2,0.4-4.2,1.3-6,2.6c-5.2,3.5-9.4,8.5-11.9,14.3c-1.4,2.9-2,6-1.7,9.2c0.1,1.8,0.8,3.4,2,4.7
				c1.9,2,4.7,2.8,7.5,2.3c2.7-0.4,5.4-1.1,8.1-1.7c3-0.7,5.9-1.5,9-1.2c2.6,0.2,4.8,1.2,6.2,3.5c0,0,0,0,0.1,0
				c1.1-1.3,1.9-2,3.2-2.1c1.1-0.1,2.2-0.1,3.4,0C105.8,51.6,107.7,52.3,109.3,53.4z M153.7,28.3l0.3,0.1c1.3,0.3,2.7,0.3,4-0.1
				c3.4-0.8,6.4-2.7,8.5-5.4c0.8-0.9,1.4-1.9,2.1-2.9l-0.1-0.1l-0.1,0.1c-1,0.8-1.9,1.7-2.9,2.5c-2.6,2.1-5.9,3.1-9.2,3
				c-0.2,0-0.3,0.1-0.4,0.2c-0.4,0.5-0.8,0.9-1.2,1.4C154.2,27.5,154,27.8,153.7,28.3z M118.7,28.3c-1,0-2,0-2.9,0
				c-0.1,0-0.3,0.2-0.3,0.3c-0.4,0.6-0.8,1.2-1.2,1.9l-0.4,0.7h2.8c0.1,0,0.2-0.1,0.3-0.1C117.6,30.1,118.1,29.2,118.7,28.3
				L118.7,28.3z"/>
			<path id="_Compound_Path_2" class="st0" d="M161.7,44.3c-1.1,1.9-2.4,3.6-3.8,5.2c-1,1.2-2.3,2.3-3.7,3c-0.3,0.2-0.7,0.3-1,0.3
				c-0.8,0.2-1.5-0.2-1.8-1c0-0.2-0.1-0.3,0-0.5c0-0.4,0-0.8,0-1.2c-0.1,0.1-0.2,0.2-0.4,0.3c-0.8,0.6-1.5,1.3-2.3,1.8
				c-0.3,0.2-0.6,0.4-1,0.4c-1,0.3-2-0.3-2.2-1.3c0-0.2-0.1-0.4-0.1-0.5c0-0.4,0-0.9,0-1.5L145,50c-0.7,0.9-1.6,1.7-2.6,2.3
				c-0.2,0.1-0.3,0.2-0.5,0.2c-1,0.6-2.3,0.3-2.9-0.7c-0.2-0.4-0.3-0.8-0.3-1.2c0-1,0.1-2.1,0.4-3.1c0.2-0.6,0.4-1.2,0.6-1.8
				s0.4-1.2,0.6-1.8c-0.6,0.1-1.2,0.1-1.7,0.2c-0.1,0-0.2,0.2-0.3,0.4c-1.1,1.9-2.3,3.7-3.8,5.3c-0.9,1-2,1.9-3.2,2.6
				c-0.3,0.2-0.7,0.3-1,0.4c-1.1,0.4-2.3-0.1-2.7-1.2c-0.1-0.3-0.2-0.6-0.1-0.9c-0.1-1.4,0.2-2.7,0.7-3.9c1.3-3.4,3.5-6.5,6.3-8.9
				c0.8-0.6,1.6-1.1,2.5-1.5c0.5-0.2,1-0.3,1.5-0.3c0.9-0.1,1.8,0.6,1.9,1.6c0.2,1,0.1,2-0.3,3c-0.2,0.7-0.5,1.3-0.8,2
				c-0.1,0.1-0.1,0.3-0.2,0.4l0.1,0.1c0.5-0.2,1.1-0.3,1.6-0.5c0.1,0,0.2-0.3,0.3-0.4c1.7-3.6,3.7-7,6-10.3
				c2.6-3.8,5.7-7.3,9.3-10.2c0.8-0.6,1.5-1.1,2.4-1.5c0.6-0.3,1.2-0.4,1.8-0.3c0.5,0,0.9,0.4,0.9,0.9c0.1,1.2-0.2,2.4-0.9,3.4
				c-0.2,0.2-0.7,0.3-1,0.4l-0.1-0.1c0.2-0.4,0.4-0.8,0.6-1.2c0.2-0.5,0.3-1,0.4-1.5c0.1-0.5-0.2-0.7-0.6-0.5
				c-0.6,0.4-1.2,0.8-1.8,1.3c-2.1,1.9-4,4.1-5.6,6.4c-2.4,3.4-4.6,6.9-6.6,10.6c-0.1,0.2-0.2,0.4-0.2,0.5l0.1,0.1
				c0.3-0.2,0.6-0.4,0.9-0.7c2.3-1.9,4.5-4,6.5-6.3c1-1.2,2-2.3,3-3.6c0.4-0.5,1-0.8,1.6-0.6c-0.5,0.6-0.9,1.2-1.3,1.8
				c-3.2,4.2-6.9,7.9-11.1,11c-0.5,0.4-1,0.9-1.2,1.5c-0.7,1.5-1.2,3.2-1.6,4.8c-0.1,0.3-0.1,0.7,0,1.1c0,0.4,0.3,0.7,0.7,0.7
				c0.2,0,0.4-0.1,0.5-0.2c0.5-0.4,1-0.8,1.4-1.4c1.1-1.5,2.1-3.1,3.2-4.7c1.3-2.1,2.9-4,4.7-5.6c0.6-0.5,1.3-1,2-1.5
				c0.6-0.4,1.2-0.6,1.9-0.5c0.6,0,1.1,0.2,1.4,0.7c0.1,0.2,0.3,0.3,0.4,0.5h0.1c0.3-0.8,0.9-0.8,1.6-0.8c0.7,0,1.4,0,2.2,0
				c-0.1,0.2-0.2,0.3-0.2,0.5c-1.9,3.4-3.9,6.8-5.8,10.2c-0.3,0.6-0.7,1.3-0.9,1.9c-0.1,0.2,0,0.4,0,0.6c0.2,0,0.5,0,0.6-0.1
				c1.3-0.9,2.4-2,3.2-3.2c0.4-0.5,0.7-0.9,1-1.5C160.6,44.3,161,44.2,161.7,44.3z M149.5,48.9c0,0.7,0.4,1,1.1,0.7
				c0.2-0.1,0.3-0.2,0.5-0.3c0.7-0.7,1.3-1.5,1.9-2.3c1.7-2.7,3.3-5.5,4.9-8.2c0.1-0.2,0.1-0.4,0-0.6c-0.2-0.2-0.4-0.2-0.6-0.2
				c-0.2,0-0.5,0.1-0.7,0.3c-0.4,0.3-0.8,0.6-1.2,1c-2,2-3.6,4.4-4.9,6.9C149.9,46.8,149.5,47.8,149.5,48.9z M134.6,41.4
				c-1.4,1.8-2.5,3.8-3.3,6c-0.1,0.4-0.1,0.8-0.1,1.3c0,0.6,0.4,1,1,1c0.1,0,0.3,0,0.4-0.1c0.3-0.1,0.6-0.3,0.8-0.5
				c0.5-0.4,0.9-0.8,1.3-1.3c1-1.2,1.9-2.5,2.6-3.9C136.2,43.4,135.2,42.5,134.6,41.4z M135.7,40.4c0,1.2,0.8,2.2,1.9,2.5
				c0.2,0,0.3-0.1,0.4-0.2c0.4-0.9,0.8-1.8,1.1-2.8c0.1-0.5,0.1-1,0-1.6c-0.1-0.7-0.5-0.9-1.1-0.8C136.8,37.9,135.9,39,135.7,40.4
				L135.7,40.4z"/>
			<path id="_Compound_Path_3" class="st0" d="M109.6,28.9c0.2-0.7,0.7-0.6,1.2-0.6c0.8,0,1.6,0,2.4,0c-0.1,0.2-0.2,0.4-0.3,0.6
				c-2.2,3.7-4.3,7.5-6.5,11.2c-0.1,0.2-0.2,0.5-0.3,0.7c0,0.2,0,0.4,0.1,0.5c0.1,0.1,0.3,0.1,0.5,0c0.5-0.2,0.9-0.6,1.3-0.9
				c1-1.1,2-2.2,2.9-3.4c0.3-0.5,0.9-0.7,1.5-0.5c0,0,0,0.1,0,0.1c-1.6,2.6-3.7,4.9-6,6.9c-0.7,0.6-1.5,1-2.3,1.2
				c-0.8,0.2-1.6-0.3-1.8-1.1c0-0.1,0-0.3,0-0.4c0-0.3,0-0.6,0-1l-0.8,0.8c-0.7,0.8-1.6,1.3-2.6,1.7c-1,0.4-2.1,0-2.5-1
				c-0.2-0.4-0.2-0.8-0.1-1.2c0.1-0.6,0.2-1.3,0.3-2l-0.4,0.3c-1,0.9-1.9,1.8-2.9,2.6c-0.9,0.7-1.9,1.2-3,1.3
				c-1.6,0.4-3.2-0.7-3.6-2.3c0-0.1-0.1-0.3-0.1-0.4c-0.2-1.6,0.2-3.2,1-4.6c0.3-0.6,0.6-1.2,0.9-1.8c0.1-0.1,0.1-0.2,0.2-0.4
				c-0.6,0.1-1,0.2-1.5,0.3c-0.1,0-0.2,0.2-0.3,0.3c-1,1.4-1.8,3-2.9,4.3c-1.1,1.5-2.4,2.8-4,3.8c-0.4,0.3-0.9,0.5-1.4,0.7
				c-1.1,0.5-2.5,0-3-1.2c-0.1-0.3-0.2-0.6-0.2-0.9c-0.1-1.4,0.1-2.9,0.7-4.2c1.5-3.8,4.1-7.1,7.4-9.4c0.8-0.6,1.7-0.9,2.7-1.1
				c1.1-0.2,2.2,0.5,2.5,1.6c0,0.2,0.1,0.4,0,0.6c0,1.1-0.3,2.2-0.7,3.2l-0.3,0.8l0.1,0.1c0.4-0.1,0.8-0.3,1.1-0.5
				c1.2-0.7,2.4-1.7,3.3-2.7c0.9-1,2-1.9,3.2-2.6c0.7-0.4,1.4-0.6,2.2-0.6c1.2-0.1,2.3,0.7,2.4,1.9c0,0.3,0,0.5,0,0.8
				c-0.2,1.2-0.7,2.2-1.6,3c-0.2,0.2-0.5,0.4-0.8,0.5c-0.4,0.1-0.9-0.1-1-0.5c0-0.1,0-0.2,0-0.2c0-1.2,0.8-2.2,1.9-2.5
				c0.3-0.1,0.6-0.1,0.6-0.5c0-0.4-0.1-0.7-0.5-0.8c-0.3-0.1-0.6,0-0.9,0.1c-0.4,0.2-0.8,0.4-1.1,0.6c-2.6,2.3-4.6,5.3-5.8,8.6
				c-0.3,0.7-0.4,1.5-0.2,2.3c0.1,0.7,0.8,1.2,1.5,1.1c0.1,0,0.1,0,0.2-0.1c0.9-0.2,1.7-0.7,2.3-1.4c1.6-1.5,3.1-3.3,4.4-5.1
				c1.5-2.2,3.2-4.2,5.1-6c0.8-0.7,1.7-1.3,2.7-1.7c0.9-0.4,2-0.1,2.6,0.7L109.6,28.9z M100.2,40.8c0.1,0.2,0.2,0.5,0.4,0.6
				c0.2,0.1,0.5,0.1,0.7,0c0.9-0.5,1.6-1.2,2-2c1.8-3.1,3.6-6.1,5.5-9.2c0.1-0.2,0.1-0.4,0-0.5c0,0-0.1-0.1-0.1-0.1
				c-0.2-0.1-0.4-0.1-0.6,0c-0.6,0.3-1.1,0.6-1.6,1c-0.8,0.8-1.4,1.7-2.1,2.5c-1.5,1.8-2.7,3.8-3.6,5.9
				C100.6,39.6,100.4,40.1,100.2,40.8z M82.9,33c-1.2,1.6-2.3,3.4-3,5.3c-0.2,0.6-0.4,1.3-0.4,2c-0.1,0.5,0.3,1,0.8,1.1
				c0.2,0,0.4,0,0.5-0.1c0.5-0.2,0.9-0.4,1.3-0.8c1.5-1.4,2.8-3.1,3.7-5c0-0.1,0-0.2,0.1-0.2C84,34.5,84,34.5,82.9,33z M87.6,30.7
				c0-0.1,0-0.2,0-0.3c-0.1-0.9-0.6-1.3-1.5-1c-0.6,0.2-1.1,0.6-1.5,1.2c-0.8,0.8-0.8,2.1,0,2.9c0.3,0.3,0.7,0.5,1.1,0.6
				c0.2,0.1,0.4,0.1,0.6,0.1c0.1,0,0.2,0,0.3-0.1C87.2,33.1,87.5,31.9,87.6,30.7z"/>
			<path id="_Compound_Path_4" class="st0" d="M152.6,24.2c-0.8,0.9-1.6,1.8-2.4,2.6c-0.1,0.1-0.3,0.1-0.4,0c-0.5-0.3-1-0.5-1.4-0.9
				c-1.3-0.9-2.7-1.7-4-2.6c-1.3-0.8-2.7-1.4-4.3-1.7c-0.4,0-0.9,0-1.3,0.1c-0.1,0.1-0.3,0.2-0.3,0.3c0,2.8-1,5.5-2.8,7.7
				c-0.8,1.1-1.8,2.1-2.9,2.8c-0.4,0.2-0.8,0.4-1.3,0.5c-0.8,0.3-1.8-0.1-2.1-0.9c-0.1-0.1-0.1-0.3-0.1-0.4
				c-0.1-0.7-0.1-1.5,0.2-2.2c1.3-3.3,3.6-6.1,6.6-8l0.6-0.4c-0.7-0.3-1.5-0.3-2.1,0.1c-1.1,0.6-2.2,1.2-3.3,1.9c-2.7,2-5,4.3-7,7
				c-2.4,3-4.4,6.3-6,9.9c-0.9,2-1.5,4.1-1.7,6.3c0,0.7,0,1.4,0.3,2.1c0.4,1.4,1.9,2.2,3.3,1.8c0.1,0,0.2-0.1,0.3-0.1
				c1.1-0.4,2-1.1,2.8-1.9c2.2-2,3.8-4.7,4.6-7.6c0.2-0.7,0.2-1.4,0.2-2.1c0-0.4-0.3-0.8-0.8-0.8c-0.2,0-0.3,0-0.4,0.1
				c-0.5,0.2-0.9,0.5-1.3,0.9c-1,1.2-1.8,2.6-2.1,4.1c0,0.2-0.1,0.4-0.3,0.5c-1.5,0.8-2.8,1.8-3.9,3c0,0-0.1,0-0.2,0.1
				c0.1-1.3,0.4-2.6,0.9-3.8c0.7-2.2,2.1-4.1,3.9-5.4c0.7-0.4,1.4-0.8,2.2-1c1.7-0.5,2.8,0.4,3,2.2c0.1,1.4-0.2,2.8-0.7,4.1
				c-1.4,3.6-3.8,6.8-7,9c-1.1,0.8-2.3,1.3-3.7,1.5c-2.4,0.3-4.6-1.2-5.2-3.5c-0.6-2-0.6-4.2,0.1-6.2c1.4-4.4,3.5-8.6,6.4-12.2
				c2.5-3.4,5.5-6.3,9-8.6c1.8-1.2,3.7-2.1,5.8-2.6c0.9-0.2,1.8-0.2,2.6,0.1c0.3,0.1,0.6,0.2,0.8,0.4c0.4,0.4,0.7,0.3,1.2,0.1
				c2.8-1.2,6.1-0.9,8.7,0.7L152.6,24.2z M137.6,22.2c-0.1,0-0.2,0-0.3,0.1l-0.4,0.2c-2.8,1.7-4.9,4.2-6.2,7.1
				c-0.2,0.5-0.3,1.1-0.4,1.6c0,0.5,0.3,0.9,0.8,0.9c0.1,0,0.3,0,0.4-0.1c0.4-0.1,0.7-0.3,1.1-0.6c2.6-1.9,4.4-4.8,4.9-8
				C137.5,23.1,137.5,22.7,137.6,22.2z"/>
			<path id="_Path_" class="st0" d="M109.3,53.4c-1.7-1.1-3.6-1.8-5.5-2.1c-1.1-0.1-2.2-0.1-3.4,0c-1.2,0.1-2.1,0.8-3.2,2.1
				c0,0-0.1,0-0.1,0c-1.4-2.3-3.6-3.2-6.2-3.5c-3.1-0.3-6.1,0.4-9,1.2c-2.7,0.6-5.4,1.3-8.1,1.7c-2.7,0.6-5.5-0.3-7.5-2.3
				c-1.2-1.3-1.9-3-2-4.7c-0.3-3.2,0.3-6.4,1.7-9.2c2.5-5.8,6.7-10.7,11.9-14.3c1.8-1.3,3.8-2.2,6-2.6c0.7-0.1,1.4-0.2,2.1-0.1
				c1.4,0.2,2.3,1.6,2.1,3c0,0.1,0,0.2-0.1,0.3c-0.2,1-0.7,2-1.4,2.8c-0.3,0.4-0.9,0.7-1.4,0.7c-0.4,0-0.8-0.3-0.8-0.8
				c-0.2-1.2,1-2.9,2.1-2.8c0.3,0,0.4-0.1,0.4-0.4c0.2-0.5-0.1-1.1-0.7-1.2c-0.1,0-0.2,0-0.3,0c-0.6,0-1.2,0.1-1.7,0.3
				c-1.6,0.6-3.1,1.6-4.3,2.9c-4.1,3.8-7.4,8.4-9.6,13.6c-1,2.2-1.6,4.6-1.6,7c0,0.7,0.1,1.4,0.3,2.1c0.6,2.2,2.2,3.2,4.2,3.8
				c1.5,0.4,3.2,0.4,4.7,0c3.5-0.8,6.9-1.6,10.4-2.4c2.5-0.6,5-1,7.6-1.1c3.6-0.2,7.1,1,9.9,3.2c1,0.8,2,1.6,2.9,2.5
				C109.1,53.1,109.2,53.2,109.3,53.4z"/>
			<path id="_Path_2" class="st0" d="M153.7,28.3c0.3-0.4,0.6-0.8,0.9-1.2c0.3-0.4,0.8-0.9,1.2-1.4c0.1-0.1,0.3-0.2,0.4-0.2
				c3.3,0.1,6.6-0.9,9.2-3c1-0.7,1.9-1.6,2.9-2.5l0.1-0.1l0.1,0.1c-0.7,1-1.3,2-2.1,2.9c-2.2,2.7-5.2,4.6-8.5,5.4
				c-1.3,0.3-2.7,0.3-4,0.1L153.7,28.3z"/>
			<path id="_Path_3" class="st0" d="M118.7,28.3c-0.6,1-1.1,1.8-1.7,2.7c-0.1,0.1-0.2,0.1-0.3,0.1h-2.9l0.4-0.7
				c0.4-0.6,0.8-1.2,1.1-1.9c0.1-0.1,0.2-0.3,0.3-0.3C116.7,28.3,117.7,28.3,118.7,28.3z"/>
			<path id="_Path_4" class="st1" d="M149.5,48.9c0.1-1,0.4-2,1-2.9c1.3-2.5,2.9-4.8,4.8-6.9c0.4-0.4,0.8-0.7,1.2-1
				c0.2-0.2,0.4-0.3,0.7-0.3c0.2,0,0.5,0.1,0.6,0.2c0.1,0.2,0.1,0.4,0,0.6c-1.6,2.8-3.2,5.5-4.9,8.2c-0.6,0.8-1.2,1.6-1.9,2.3
				c-0.1,0.1-0.3,0.2-0.5,0.3C149.9,49.9,149.4,49.6,149.5,48.9z"/>
			<path id="_Path_5" class="st1" d="M134.6,41.4c0.6,1.1,1.6,2,2.8,2.5c-0.7,1.4-1.5,2.7-2.6,3.9c-0.4,0.5-0.9,0.9-1.4,1.3
				c-0.3,0.2-0.5,0.4-0.8,0.5c-0.5,0.2-1.1,0-1.3-0.5c-0.1-0.1-0.1-0.3-0.1-0.4c0-0.4,0-0.8,0.1-1.3
				C132.1,45.2,133.2,43.2,134.6,41.4z"/>
			<path id="_Path_6" class="st1" d="M135.7,40.3c0.1-1.3,1.1-2.4,2.3-2.7c0.7-0.1,1,0.1,1.1,0.8c0.1,0.5,0.1,1,0,1.6
				c-0.3,0.9-0.7,1.9-1.1,2.8c-0.1,0.1-0.2,0.2-0.4,0.2C136.6,42.6,135.8,41.5,135.7,40.3z"/>
			<path id="_Path_7" class="st1" d="M100.2,40.8c0.2-0.6,0.4-1.2,0.6-1.8c0.9-2.1,2.1-4.1,3.6-5.9c0.7-0.9,1.3-1.8,2.1-2.5
				c0.5-0.4,1-0.8,1.6-1.1c0.2-0.1,0.4-0.1,0.6,0c0.2,0.1,0.3,0.3,0.3,0.5c0,0.1,0,0.1-0.1,0.1c-1.8,3.1-3.6,6.1-5.5,9.2
				c-0.5,0.8-1.2,1.5-2,2c-0.2,0.1-0.5,0.1-0.7,0C100.4,41.3,100.3,41,100.2,40.8z"/>
			<path id="_Path_8" class="st1" d="M82.9,33c1.1,1.5,1.1,1.5,3,2.3c0,0.1,0,0.2-0.1,0.2c-0.9,1.9-2.2,3.6-3.7,5
				c-0.4,0.3-0.8,0.6-1.3,0.8c-0.5,0.2-1,0-1.2-0.5c-0.1-0.2-0.1-0.4-0.1-0.5c0-0.7,0.1-1.4,0.4-2C80.6,36.4,81.6,34.6,82.9,33z"/>
			<path id="_Path_9" class="st1" d="M87.6,30.7c-0.1,1.2-0.4,2.3-1,3.4c-0.1,0.1-0.2,0.1-0.3,0.1c-0.2,0-0.4-0.1-0.6-0.1
				c-1.1-0.2-1.8-1.3-1.6-2.5c0.1-0.4,0.3-0.7,0.5-1c0.3-0.5,0.9-1,1.5-1.2c0.9-0.3,1.4,0.1,1.5,1C87.6,30.5,87.6,30.6,87.6,30.7z"
				/>
			<path id="_Path_10" class="st1" d="M137.6,22.2c0,0.5,0,0.9-0.1,1.3c-0.5,3.2-2.2,6.1-4.9,8c-0.3,0.2-0.7,0.4-1.1,0.6
				c-0.4,0.2-0.9,0-1.1-0.4c-0.1-0.1-0.1-0.3-0.1-0.4c0-0.6,0.1-1.1,0.4-1.7c1.3-3,3.5-5.5,6.2-7.2l0.4-0.2
				C137.4,22.2,137.5,22.2,137.6,22.2z"/>
		</g>
	</g>
</g>
</svg>
