<?xml version="1.0" encoding="utf-8"?>
<!-- Generator: Adobe Illustrator 22.1.0, SVG Export Plug-In . SVG Version: 6.00 Build 0)  -->
<svg version="1.1" id="Layer_1" xmlns="http://www.w3.org/2000/svg" xmlns:xlink="http://www.w3.org/1999/xlink" x="0px" y="0px"
	 viewBox="0 0 233 73" style="enable-background:new 0 0 233 73;" xml:space="preserve">
<style type="text/css">
	.st0{fill:#3D3D3D;}
	.st1{fill:#FFFFFF;}
	.st2{font-family:'TrebuchetMS';}
	.st3{font-size:3.76px;}
	.st4{letter-spacing:1;}
	.st5{clip-path:url(#SVGID_2_);}
</style>
<title>Asset 52</title>
<g id="Layer_2_1_">
	<g id="Layer_1-2">
		<g id="_Group_2">
			<circle id="_Path_2" class="st0" cx="116" cy="31.5" r="17.3"/>
			<path id="_Path_3" class="st1" d="M112.2,25.1v2.4c0,0-4.8-2.4-6.9,0.2c-1,1.2-1,3.1,0,4.3c1,1.1,2.9,2,6.9,0.1v2.5
				c0,0-6.8,3.4-9.7-1.4c-1.3-2.1-1.2-4.8,0.2-6.9C104,24.5,106.7,23,112.2,25.1"/>
			<path id="_Compound_Path_" class="st1" d="M118.9,24c-3.4-0.1-6.2,2.5-6.3,5.9c0.1,3.4,3,6,6.4,5.9c3.4,0.1,6.2-2.5,6.3-5.9
				C125.2,26.6,122.3,23.9,118.9,24 M118.9,33.4c-1.9,0-3.5-1.6-3.5-3.5c0-1.9,1.6-3.5,3.5-3.5c1.9,0,3.5,1.6,3.5,3.5
				C122.5,31.9,120.9,33.4,118.9,33.4C118.9,33.4,118.9,33.4,118.9,33.4"/>
			<rect id="_Path_4" x="126" y="24.1" class="st1" width="2.7" height="11.7"/>
			<text transform="matrix(1 0 0 1 92.585 53.375)" class="st0 st2 st3 st4">Centro Oncológico</text>
			<text transform="matrix(1 0 0 1 98.915 57.885)" class="st0 st2 st3">Internacional</text>
			<g id="_Clip_Group_">
				<path id="_Clipping_Path_2" class="st1" d="M116.9,38.6h-0.2c-1.9,0-7,0.9-7.2,4.1c0,0-0.5,3.4,4.8,6.1h0.3l1.3,0
					c0,0,1.3,0,1-0.2c-0.9-0.5-3.8-2.6-4-4.4c0-0.7,0.4-1.4,1.1-1.6c0.9-0.3,2.5-0.6,5.5-0.2h0.1c0.3,0,1,0,0.8-0.7c0,0,0,0-0.1,0
					c-1.8-0.5-3.7-0.6-5.5-0.4c-0.1,0-0.1,0-0.1-0.1c0,0,0-0.1,0.1-0.1c1-0.5,3.4-1.2,8.5-0.3c0,0,1.1,0.3,1.4-0.5l0,0
					C124.6,40.3,124.3,38.7,116.9,38.6L116.9,38.6"/>
				<g>
					<defs>
						<path id="SVGID_1_" d="M116.9,38.6h-0.2c-1.9,0-7,0.9-7.2,4.1c0,0-0.5,3.4,4.8,6.1h0.3l1.3,0c0,0,1.3,0,1-0.2
							c-0.9-0.5-3.8-2.6-4-4.4c0-0.7,0.4-1.4,1.1-1.6c0.9-0.3,2.5-0.6,5.5-0.2h0.1c0.3,0,1,0,0.8-0.7c0,0,0,0-0.1,0
							c-1.8-0.5-3.7-0.6-5.5-0.4c-0.1,0-0.1,0-0.1-0.1c0,0,0-0.1,0.1-0.1c1-0.5,3.4-1.2,8.5-0.3c0,0,1.1,0.3,1.4-0.5l0,0
							C124.6,40.3,124.3,38.7,116.9,38.6L116.9,38.6"/>
					</defs>
					<clipPath id="SVGID_2_">
						<use xlink:href="#SVGID_1_"  style="overflow:visible;"/>
					</clipPath>
					<g class="st5">
						<g>
							
								<rect id="_Path_5" x="108.9" y="34.5" transform="matrix(0.4226 -0.9063 0.9063 0.4226 27.7781 131.146)" class="st1" width="15.9" height="18.5"/>
						</g>
					</g>
				</g>
			</g>
		</g>
	</g>
</g>
</svg>
