<?xml version="1.0" encoding="utf-8"?>
<!-- Generator: Adobe Illustrator 22.1.0, SVG Export Plug-In . SVG Version: 6.00 Build 0)  -->
<svg version="1.1" id="Layer_1" xmlns="http://www.w3.org/2000/svg" xmlns:xlink="http://www.w3.org/1999/xlink" x="0px" y="0px"
	 viewBox="0 0 233 73" style="enable-background:new 0 0 233 73;" xml:space="preserve">
<style type="text/css">
	.st0{fill:#3D3D3D;}
</style>
<title>Asset 45</title>
<g id="Layer_2_1_">
	<g id="Layer_1-2">
		<g id="_Group_">
			<path id="_Path_" class="st0" d="M141.1,42.5v-3.9c0-0.2,0-0.5,0-0.8c0.2-1.1,1.2-1.8,2.3-1.7c0.3,0,0.5,0.1,0.7,0.3
				c0.2,0.1,0.5,0.2,0.8,0.1c1.7-0.6,3.5-0.4,5,0.5c0.3,0.2,0.6,0.2,0.9,0c0.7-0.4,1.5-0.7,2.3-0.7c1-0.1,1.9,0,2.9,0.2
				c1.8,0.4,3.2,1.9,3.5,3.8c0.1,0.5,0.1,1,0.1,1.5c0,1.6,0,3.2,0,4.8c0,0.3,0,0.7-0.1,1c0,1.1-1,2-2.1,1.9c-1.1,0-2-1-1.9-2.1
				c0-0.3-0.1-0.6-0.1-0.9c0-1.3,0-2.6,0-3.9c0-0.2,0-0.5,0-0.8c0-0.9-0.7-1.5-1.6-1.5c-0.1,0-0.2,0-0.4,0c-0.7,0.1-1.2,0.7-1.2,1.4
				c0,0.8,0,1.6,0,2.4v2.2c0,0.3,0,0.7-0.1,1c-0.1,0.9-0.9,1.6-1.9,1.6c-1,0.1-1.9-0.5-2.1-1.5c-0.1-0.3-0.1-0.7-0.1-1
				c0-1.5,0-3.1,0-4.6c0.1-0.8-0.4-1.5-1.2-1.6c-0.8-0.3-1.6,0.1-1.8,0.9c-0.1,0.2-0.1,0.4-0.1,0.6c0,0.9,0,1.8,0,2.7s0,1.6,0,2.4
				c0,0.7-0.3,1.3-0.8,1.8c-0.9,0.7-2.1,0.6-2.8-0.3c-0.2-0.3-0.4-0.6-0.4-0.9c-0.1-0.3-0.1-0.7-0.1-1c0-1.3,0-2.6,0-3.9L141.1,42.5
				z"/>
			<path id="_Path_2" class="st0" d="M175.4,39.5c0.1,0.5,0.1,1.1,0,1.6c-0.1,0.5-0.2,1-0.4,1.4c-0.2,0.3-0.1,0.7-0.3,1
				c-0.3,0.6-0.7,1.1-1.1,1.6c-0.5,0.6-1,1.1-1.6,1.5c-0.6,0.4-1.2,0.8-1.9,1c-0.4,0.1-0.7,0.2-1,0.4c0,0-0.1,0-0.1,0
				c-0.8-0.1-1.6,0.4-2.4,0.3c-0.3,0-0.6-0.3-1-0.2c-0.3,0.1-0.7,0-0.9-0.2c-0.8-0.2-1.6-0.5-2.3-0.9c-0.2-0.1-0.3-0.1-0.5-0.1
				c-0.1,0-0.2,0.1-0.2,0.2c0,0.5-0.4,0.9-0.2,1.4c-0.3,1.2-1.1,2.3-2.2,2.8h-0.1c-0.8,0-1.6,0.5-2.4,0.2c-0.9-0.1-1.7-0.5-2.4-1.2
				c-0.2-0.3-0.7-0.4-1-0.2c-0.1,0.1-0.1,0.1-0.2,0.2c-0.4,0.4-0.9,0.7-1.4,0.9c-0.1,0-0.2,0.1-0.3,0.1c-0.2,0-0.5,0.1-0.7,0.1
				c-0.4,0.2-0.9,0.2-1.3,0c-0.2-0.1-0.3-0.1-0.5-0.1c-0.5,0-0.9-0.2-1.2-0.5c-0.2-0.3-0.5-0.5-0.8-0.6c-0.4-0.2-0.9-0.1-1.1,0.3
				c-0.4,0.5-1,0.8-1.6,0.9c-0.6,0.1-1.1,0.2-1.7,0.2c-0.2,0-0.5,0-0.7-0.2c-0.1-0.1-0.2-0.1-0.4-0.1c-0.1,0-0.3,0-0.4-0.1
				c-0.4-0.3-1-0.2-1.3,0.2c-0.6,0.6-1.4,1.1-2.3,1.4c-0.6,0.1-1.1,0.1-1.7,0c-0.3-0.1-0.6-0.2-0.9-0.3c-0.8-0.4-1.5-1-2-1.8
				c-0.4-0.5-0.7-0.6-1.2-0.3c-0.5,0.4-1.2,0.5-1.8,0.5c-0.7,0-1.5,0-2.2,0c-0.7,0-1.4-0.2-1.9-0.5c-0.3-0.2-0.6-0.3-0.9-0.5
				c-0.2-0.2-0.4-0.3-0.6-0.5c-0.2-0.2-0.3-0.6-0.7-0.6c-0.5-0.1-1,0.1-1.4,0.3c-0.5,0.3-1,0.5-1.6,0.5c-0.6,0-1.2,0-1.8,0
				c-0.6,0.1-1.3,0-1.8-0.3c-0.7-0.2-1.4-0.6-2-1.1c-0.2-0.2-0.5-0.3-0.7-0.5c0,0-0.1,0-0.2,0c-0.3,0.3-0.7,0.1-1,0.4
				c-0.1,0.1-0.3,0.1-0.4,0.1h-1.2c-0.7,0-1.4-0.3-1.9-0.7c-0.6-0.5-1-1.1-1.4-1.8c-0.1-0.2-0.1-0.3-0.1-0.5c0-0.4,0-0.9,0-1.3
				c0-0.3-0.1-0.6-0.2-0.8c-0.1-0.2-0.4-0.2-0.6-0.1c0,0-0.1,0.1-0.1,0.1c-0.5,0.6-1.1,1.1-1.9,1.3c-0.6,0.2-1.2,0.3-1.8,0.2
				c-1.2,0-2.2-0.6-2.9-1.5c-0.4-0.5-0.6-1-0.6-1.6c0-0.2,0-0.4-0.2-0.5c-0.1-0.1-0.1-0.2-0.2-0.3c0-0.1,0-0.3-0.2-0.4
				c-0.2,0-0.3,0-0.5,0.1c-0.4,0.3-0.9,0.5-1.3,0.7c-0.8,0.5-1.7,0.7-2.6,0.7c-0.2,0-0.4,0-0.6,0.1C94.1,42,93.8,42,93.5,42
				c-0.7-0.2-1.4-0.2-2.1-0.3c-0.7-0.2-1.4-0.5-2-0.9c-0.5-0.3-1-0.6-1.5-1c-0.3-0.3-0.6-0.3-0.8,0c-0.3,0.3-0.8,0.6-1.2,1
				c-0.1,0.1-0.2,0.1-0.2,0.1c-0.8,0.3-1.7,0.5-2.6,0.3c-0.7,0-1.4-0.4-1.9-0.9c-0.9-0.4-1.1-1.3-1.4-2.1c-0.1-0.3-0.3-0.4-0.5-0.6
				s-0.2,0-0.4,0.1c-0.4,0.3-0.9,0.6-1.3,0.9c-0.3,0.2-0.6,0.3-0.9,0.3c-0.1,0-0.2,0-0.3,0.1c-0.4,0.4-0.9,0.3-1.4,0.3
				c-0.8,0-1.7,0-2.5,0c-0.7,0-1.4-0.2-2-0.5c-0.6-0.3-1.2-0.6-1.8-0.9c-0.2-0.1-0.3-0.2-0.4-0.4c-0.3-0.3-0.7-0.5-1.1-0.4
				c-0.3,0-0.6,0.2-0.6,0.5c-0.1,0.3-0.3,0.6-0.6,0.7c-0.8,0.6-1.6,1.1-2.5,1.5c-0.5,0.2-0.9,0.3-1.4,0.4c-1,0.2-2.1,0.3-3.2,0.2
				c-0.2,0-0.4,0-0.6-0.1c-0.1-0.1-0.2-0.1-0.3-0.1c-0.5,0-1-0.1-1.5-0.4c-0.2-0.1-0.4,0-0.6-0.2c-0.8-0.6-1.5-1.2-2.2-1.8
				c-0.7-0.8-1.3-1.6-1.7-2.6c-0.1-0.4-0.2-0.8-0.3-1.3c-0.2-1-0.3-2.1-0.2-3.1c0-0.2,0-0.5,0.1-0.7c0.1-0.4,0.1-0.8,0.3-1.2
				c0.3-0.8,0.8-1.6,1.3-2.4c0,0,0.1,0,0.1,0s0,0.2-0.1,0.3c-0.7,1-1.1,2.1-1.2,3.3c-0.2,1.4-0.1,2.8,0.4,4.1c1,2.6,3.4,4.5,6.1,5
				c2.4,0.5,4.9-0.1,6.7-1.7c0.7-0.6,1.3-1.2,1.8-2c0.2-0.3,0.3-0.4,0.5,0c1.8,2.1,4.6,3.2,7.4,2.8c1.4-0.2,2.6-0.7,3.7-1.5
				c0.3-0.3,0.7-0.6,1-0.9c0.1-0.1,0.2-0.3,0.5-0.4c0.1,0.2,0.1,0.4,0.1,0.6c0,0.5,0,1.1,0.2,1.6c0.5,1.4,1.7,2.3,3.2,2.4
				c0.9,0.1,1.8-0.2,2.6-0.7c0.5-0.4,0.8-0.8,1.1-1.4c0.1-0.1,0.1-0.3,0.2-0.4c1.5,1.9,3.8,3.1,6.3,3.1c2.4,0.1,4.8-0.9,6.3-2.8
				c0.2,0.1,0.2,0.2,0.2,0.4c0,0.5,0,1,0,1.5c0,1.9,1.4,3.4,3.3,3.6c1.8,0.2,3.6-1,4-2.8c0.1-0.4,0.1-0.8,0.1-1.1v-4.5
				c0-0.5,0-0.5,0.5-0.6c0.5-0.1,0.4,0,0.6,0.3c0.4,0.5,0.4,1.1,0,1.6c-0.2,0.4-0.4,0.9-0.3,1.3c0,0.9-0.1,1.7-0.1,2.6
				c-0.1,1.2-0.1,2.3,0.1,3.5c0.2,1.8,1.7,3.1,3.5,3.1c1,0.1,2-0.2,2.8-0.9c1,1.4,2.6,2.3,4.3,2.4c1.7,0.2,3.5-0.3,4.7-1.5
				c0.2,0.1,0.2,0.2,0.2,0.3c0.6,1.1,1.6,2,2.9,2.3c1.4,0.5,2.9,0.5,4.3,0c0.7-0.3,1.4-0.7,2-1.2c0.1,1.9,1.7,3.4,3.6,3.4
				c0.8,0.1,1.6-0.2,2.2-0.6c0.7-0.4,1.2-1.1,1.4-1.8c0.9,1,2.3,1.4,3.7,1.1c1.4-0.3,2.5-1.3,2.8-2.7c0.4,1.6,1.9,2.8,3.5,2.7
				c1.7,0.1,3.2-1,3.6-2.6c0.2,0.1,0.2,0.3,0.3,0.5c0.9,1.9,3.1,2.7,5,1.8c0.1,0,0.1-0.1,0.2-0.1c1.1-0.5,1.8-1.6,1.9-2.7
				c0.1-0.7,0.1-1.4,0.1-2.1c0-0.1-0.1-0.3,0.1-0.5c2.3,2.2,5.7,2.9,8.7,1.7C173.3,45.4,174.9,42.8,175.4,39.5z"/>
			<path id="_Compound_Path_" class="st0" d="M167.2,32.5c3.6,0,6.4,2.9,6.4,6.4c0,0,0,0,0,0c0,3.6-2.9,6.5-6.5,6.5
				c-3.6,0-6.5-2.9-6.5-6.5c0-3.6,2.9-6.5,6.4-6.5C167.2,32.5,167.2,32.5,167.2,32.5z M167.2,41.3c1.3,0,2.3-1,2.3-2.3
				c0-1.3-1-2.3-2.3-2.3c-1.3,0-2.3,1-2.3,2.3c0,0,0,0,0,0C164.8,40.2,165.9,41.3,167.2,41.3C167.1,41.3,167.2,41.3,167.2,41.3z"/>
			<path id="_Compound_Path_2" class="st0" d="M73.7,23.7c3.5-0.1,6.5,2.8,6.5,6.3c0,0,0,0.1,0,0.1c0.1,3.6-2.8,6.6-6.4,6.6
				s-6.6-2.8-6.6-6.4c-0.1-3.5,2.6-6.5,6.2-6.7C73.5,23.7,73.6,23.7,73.7,23.7z M76.1,30.2c0-1.3-1.1-2.4-2.4-2.4
				c-1.2,0-2.3,0.9-2.3,2.2c-0.1,1.3,0.8,2.4,2.1,2.5c0.1,0,0.1,0,0.2,0C75,32.6,76.1,31.5,76.1,30.2z"/>
			<path id="_Compound_Path_3" class="st0" d="M93.9,26c3.6,0.2,6.3,3.3,6.1,6.9c-0.2,3.3-2.8,6-6.1,6.1c-3.6-0.2-6.3-3.3-6.1-6.9
				C87.9,28.8,90.5,26.2,93.9,26z M91.5,32.5c0,1.3,1,2.4,2.3,2.4c0,0,0,0,0,0c1.3,0,2.4-1,2.4-2.4c0-1.3-1-2.4-2.3-2.4
				C92.6,30.2,91.5,31.2,91.5,32.5z"/>
			<path id="_Path_3" class="st0" d="M60,37.8c-3.6,0-6.5-2.9-6.5-6.5c0-3.2,2.3-5.9,5.5-6.4c2.4-0.4,4.7,0.6,6.2,2.5
				c0.4,0.4,0.5,0.9,0.6,1.4c0.1,1-0.7,1.8-1.7,1.9c-0.2,0-0.4,0-0.5,0c-0.5-0.1-0.9-0.4-1.3-0.7c-0.2-0.2-0.5-0.4-0.8-0.6
				c-0.9-0.6-2.1-0.5-2.9,0.2c-0.8,0.7-1,1.9-0.6,2.8c0.4,1,1.5,1.5,2.5,1.3c0.5-0.1,1-0.4,1.3-0.8c0.3-0.3,0.5-0.6,0.8-0.9
				c0.8-0.7,1.9-0.7,2.8-0.1c0.7,0.6,0.9,1.6,0.5,2.5c-0.4,0.9-1.1,1.6-1.9,2.2c-0.4,0.3-0.7,0.5-1.1,0.7C61.9,37.6,61,37.8,60,37.8
				z"/>
			<path id="_Path_4" class="st0" d="M119.8,47c-1,0-1.9-0.2-2.8-0.7c-1-0.6-1.5-1.8-1.2-3c0.2-0.8,1-1.4,1.8-1.2
				c0.3,0.1,0.5,0.2,0.7,0.3c0.2,0.1,0.4,0.3,0.6,0.5c0.2,0.2,0.2,0.2,0.3,0.2c0.3,0.2,0.7,0.2,0.8,0s0-0.6-0.3-0.8
				c-0.2-0.1-0.3-0.2-0.5-0.2c-0.8-0.3-1.6-0.8-2.2-1.4c-1.4-1.6-1.4-3.9-0.1-5.5c1.2-1.2,2.9-1.6,4.5-1c0.7,0.2,1.3,0.6,1.8,1.2
				c0.5,0.6,0.8,1.4,0.6,2.1c-0.1,0.6-0.5,1-1,1.2c-0.6,0.2-1.3,0.1-1.8-0.3c-0.2-0.2-0.4-0.5-0.6-0.7c-0.2-0.2-0.5-0.2-0.7,0
				c0,0,0,0,0,0c-0.2,0.2-0.1,0.5,0,0.6c0,0,0,0,0,0c0.1,0.1,0.2,0.2,0.3,0.2l0.8,0.4c0.5,0.2,0.9,0.5,1.3,0.8
				c0.8,0.6,1.3,1.5,1.4,2.5c0.2,0.8,0.1,1.7-0.3,2.5C122.6,46.1,121.3,47,119.8,47z"/>
			<path id="_Path_5" class="st0" d="M128.9,48.7c-0.8,0-1.6-0.2-2.3-0.5c-1.1-0.5-1.7-1.8-1.4-3c0.1-0.8,0.9-1.3,1.7-1.2
				c0.3,0,0.5,0.2,0.7,0.3l0.8,0.6c0.1,0,0.1,0.1,0.1,0.1c0.3,0.1,0.5,0.1,0.8-0.1c0.1-0.3,0-0.6-0.3-0.8c0,0,0,0,0,0
				c-0.2-0.1-0.4-0.2-0.6-0.2c-1.1-0.4-2.1-1.1-2.8-2c-0.5-0.8-0.7-1.8-0.5-2.7c0.3-3.3,3.7-4,5.9-2.9c0.5,0.2,0.9,0.6,1.2,1
				c0.5,0.6,0.7,1.5,0.4,2.2c-0.3,0.8-1.2,1.3-2.1,1c-0.2-0.1-0.4-0.2-0.6-0.4c-0.2-0.2-0.4-0.5-0.6-0.7c-0.2-0.2-0.4-0.2-0.6,0
				c-0.1,0.2-0.1,0.5,0.1,0.6c0.1,0.1,0.2,0.2,0.3,0.2l0.8,0.4c0.5,0.3,1,0.6,1.5,0.9c0.7,0.6,1.2,1.4,1.4,2.3
				c0.2,0.9,0.1,1.8-0.3,2.7C131.9,48,130.4,48.8,128.9,48.7z"/>
			<path id="_Path_6" class="st0" d="M101.7,35.3v-4c0-0.4,0-0.7,0.1-1.1c0.4-1,1.6-1.5,2.6-1.1c0.1,0,0.2,0.1,0.3,0.1
				c0.3,0.2,0.6,0.2,0.9,0c0.6-0.2,1.3-0.3,1.9-0.3c1.1,0.1,2,1.1,1.9,2.3c0,0.1,0,0.1,0,0.2c-0.2,0.8-0.9,1.4-1.7,1.6
				c-0.2,0-0.5,0.1-0.7,0.1c-0.7,0.2-1.2,0.8-1.2,1.6c0,1.5,0,3.1,0,4.7c0,0.3,0,0.7-0.1,1c-0.3,0.9-1.1,1.5-2.1,1.4
				c-0.9,0-1.7-0.7-1.8-1.6c-0.1-0.2-0.1-0.5-0.1-0.7C101.7,38.1,101.7,36.7,101.7,35.3L101.7,35.3z"/>
			<path id="_Path_7" class="st0" d="M81.8,31.5c0-1.5,0-3.1,0-4.7c0-0.3,0-0.7,0.1-1c0.3-0.9,1.1-1.5,2-1.5c0.9,0,1.7,0.6,1.9,1.5
				c0.1,0.3,0.1,0.6,0.1,0.9v9.3c0,0.3,0,0.7-0.1,1c-0.2,0.8-1,1.4-1.9,1.4c-0.9,0.1-1.7-0.5-2-1.4c-0.1-0.3-0.1-0.6-0.1-0.9
				L81.8,31.5L81.8,31.5z"/>
			<path id="_Path_8" class="st0" d="M177.6,34.1c-1.8,0-3.2-1.5-3.2-3.2c-0.1-1.8,1.3-3.3,3.1-3.4s3.3,1.3,3.4,3.1
				c0,0.1,0,0.2,0,0.4c0,1.8-1.4,3.2-3.2,3.3C177.6,34.1,177.6,34.1,177.6,34.1z"/>
			<path id="_Path_9" class="st0" d="M114.1,38.9V43c0,0.4,0,0.8-0.1,1.1c-0.3,1.1-1.5,1.6-2.5,1.3c-0.6-0.2-1.1-0.7-1.3-1.3
				c-0.1-0.3-0.1-0.7-0.1-1c0-1.8,0-3.5,0-5.3c0.2,0,0.4,0.1,0.6,0.1L114.1,38.9z"/>
			<path id="_Path_10" class="st0" d="M138.9,43.2c0,1.5,0,3,0,4.5c0,0.3,0,0.6-0.1,0.9c-0.2,1.1-1.3,1.8-2.4,1.6
				c-0.7-0.2-1.3-0.7-1.5-1.4c-0.1-0.2-0.1-0.4-0.1-0.7c0-1.7,0-3.5,0-5.2h0.2C136.3,43.1,137.6,43.2,138.9,43.2z"/>
			<path id="_Path_11" class="st0" d="M176.2,25.4c-1.5,0-2.7-1.2-2.7-2.7s1.2-2.7,2.7-2.7c1.5,0,2.7,1.2,2.7,2.7c0,0,0,0,0,0
				C178.9,24.1,177.7,25.3,176.2,25.4C176.2,25.4,176.2,25.4,176.2,25.4z"/>
			<path id="_Path_12" class="st0" d="M134.8,38.2c0-1.1,0.9-2.1,2.1-2.1c0,0,0,0,0,0c1.2,0.1,2,1.1,1.9,2.2c-0.1,1-0.9,1.9-1.9,1.9
				C135.7,40.3,134.8,39.4,134.8,38.2C134.8,38.2,134.8,38.2,134.8,38.2z"/>
			<path id="_Path_13" class="st0" d="M112.1,31.4c1.2,0,2.1,0.9,2.1,2.1c0,0,0,0,0,0c0,1.1-1,2.1-2.1,2.1c-1.2-0.1-2.1-1-2.1-2.2
				C109.9,32.5,111,31.3,112.1,31.4z"/>
			<path id="_Path_14" class="st0" d="M170.5,29.2c-1.1,0-2-0.9-2-2c0-1.1,0.9-2,2-2c1.1,0,2,0.9,2,1.9
				C172.6,28.2,171.7,29.1,170.5,29.2C170.6,29.2,170.5,29.2,170.5,29.2z"/>
			<path id="_Path_15" class="st0" d="M181.6,31.9c0.1,0.2,0.1,0.4,0,0.6c-0.2,0.4-0.3,0.8-0.4,1.3c0,0,0,0.1,0,0.1
				c-0.5,0.2-0.6,0.7-1,1c-0.4,0.3-0.8,0.5-1.2,0.7c-0.8,0.2-1.7,0.3-2.6,0.2c-0.3,0-0.6-0.1-0.9-0.3c-0.2-0.1-0.4-0.2-0.6-0.1
				c-0.2,0.1-0.3,0-0.4-0.2c-0.3-0.5-0.6-1-1-1.5c-0.1-0.1-0.2-0.3-0.1-0.4c0-0.9,0-1.9,0-2.8c0-0.1,0-0.2,0.1-0.3
				c0.1,0.5,0.1,1.1,0.2,1.7c0.1,0.6,0.4,1.1,0.7,1.5c0.3,0.5,0.7,0.8,1.2,1.1c0.5,0.3,1,0.5,1.6,0.5
				C179.1,35.2,181,33.9,181.6,31.9z"/>
			<path id="_Path_16" class="st0" d="M179.8,23.1c0.1,0.2,0.1,0.2,0.1,0.3c-0.3,0.9-0.3,1.9-1.1,2.5c0,0-0.1,0.1-0.1,0.1
				c-0.4,0.6-1,0.9-1.7,0.8c-0.4,0-0.8,0.2-1.2,0.3c-0.2,0.1-0.5,0.1-0.7,0c-0.4-0.3-0.9-0.5-1.5-0.5c-0.2,0-0.3-0.1-0.4-0.3
				c-0.1-0.5-0.4-0.9-0.8-1.2c-0.1-0.1-0.2-0.3-0.2-0.5c0-0.4,0.1-0.9-0.2-1.3c0.3-0.4,0.1-0.9,0.3-1.3c0-0.1,0.1-0.1,0.2-0.2
				c0,0.3,0,0.6,0,0.8c0,1.9,1.5,3.6,3.5,3.6c1.4,0,2.8-0.8,3.3-2.2C179.6,23.8,179.7,23.5,179.8,23.1z"/>
			<path id="_Path_17" class="st0" d="M138.9,43.2c-1.3-0.1-2.6-0.2-3.8-0.3h-0.2c0-1.1,0.8-2,1.9-2.1c0.2,0,0.4,0,0.7,0.1
				c0.6,0.1,1.2,0.6,1.3,1.2C138.8,42.4,138.9,42.8,138.9,43.2z"/>
			<path id="_Path_18" class="st0" d="M114.1,38.9l-3.5-1c-0.2-0.1-0.4-0.1-0.6-0.1c-0.1-0.9,1-1.7,1.8-1.7c1.1-0.1,2.1,0.7,2.2,1.8
				C114.2,38.1,114.2,38.5,114.1,38.9z"/>
			<path id="_Path_19" class="st0" d="M167.6,26.7c-0.1,1.3,0.6,2.5,1.8,3c1.6,0.7,2.9,0.1,3.9-1.4c0.1,0.3,0.1,0.7-0.1,1
				c-0.4,0.5-0.9,0.8-1.2,1.2c-0.1,0.1-0.4,0.1-0.5,0.2c-0.4,0.2-0.8,0.3-1.2,0.3c-0.4,0.1-0.9-0.1-1.2-0.4
				c-0.5-0.4-0.9-0.8-1.2-1.3c-0.4-0.7-0.5-1.6-0.4-2.4C167.3,26.9,167.4,26.8,167.6,26.7z"/>
		</g>
	</g>
</g>
</svg>
