<?xml version="1.0" encoding="utf-8"?>
<!-- Generator: Adobe Illustrator 22.1.0, SVG Export Plug-In . SVG Version: 6.00 Build 0)  -->
<svg version="1.1" id="Layer_1" xmlns="http://www.w3.org/2000/svg" xmlns:xlink="http://www.w3.org/1999/xlink" x="0px" y="0px"
	 viewBox="0 0 233 73" style="enable-background:new 0 0 233 73;" xml:space="preserve">
<style type="text/css">
	.st0{fill:#3D3D3D;}
	.st1{fill:#FFFFFF;}
</style>
<title>Asset 35</title>
<g id="Layer_2_1_">
	<g id="Layer_1-2">
		<g id="_Group_">
			<path id="_Compound_Path_" class="st0" d="M122.7,47.3c-0.2-0.5,0-1.1-0.2-1.7c-0.1,0.6-0.1,1.1,0,1.7c0.3,0.7,0.9,0.8,1.5,0.4
				c0.4,0.2,0.4,0.2,0.4-0.3s0-0.8,0-1.2c0-0.2,0.1-0.4-0.1-0.6c0,0.4,0,0.7,0,1.1c0,0.3-0.1,0.6-0.3,0.8
				C123.3,47.9,123.1,47.8,122.7,47.3z M142.8,47.8c0.3-0.1,0.1-0.3,0.1-0.5c0-0.5,0-1,0-1.6c-0.2,0.1-0.1,0.3-0.3,0.3
				c-0.3-0.5-0.9-0.6-1.4-0.3c-0.1,0-0.1,0.1-0.2,0.1c-0.5,0.4-0.6,1.2-0.2,1.7c0,0,0,0.1,0.1,0.1c0.4,0.4,1.1,0.5,1.5,0.1
				c0.1,0,0.1-0.1,0.1-0.2c0.1,0,0.1,0,0.1,0.1C142.7,47.7,142.6,47.8,142.8,47.8z M119.1,46.2c0.2-0.2,0.5-0.4,0.8-0.5
				c-0.3-0.1-0.7,0.1-0.9,0.4c-0.1,0-0.1,0.3-0.2,0c0-0.1,0.1-0.3-0.2-0.4c0,0.7,0,1.5,0.1,2.2C118.9,47.3,118.6,46.6,119.1,46.2z
				 M106.1,47.2c-0.4,0.6-0.6,0.7-1.1,0.6c-0.3-0.1-0.6-0.4-0.5-0.8c0-0.4,0-0.9-0.2-1.3c-0.1,0.4-0.1,0.8-0.1,1.2
				c-0.1,0.5,0.3,1,0.9,1.1C105.6,48,106.1,47.7,106.1,47.2l0.1-1.5H106L106.1,47.2z M115.6,47.1l-0.1,0.2c-0.1,0.4-0.5,0.6-0.9,0.5
				c-0.4,0-0.7-0.4-0.6-0.8c0,0,0,0,0,0c0-0.3,0-0.5,0-0.8c0-0.2,0.1-0.4-0.2-0.5v1.3c-0.2,0.5,0.1,1.1,0.6,1.3
				c0.5,0.2,1.1-0.1,1.3-0.6c0.1-0.2,0.1-0.3,0-0.5v-1.4h-0.1L115.6,47.1z M136.2,46c-0.3,0.1-0.1-0.3-0.3-0.3v3.2
				c0.1-0.3,0.2-0.7,0.1-1c0-0.1-0.1-0.3,0.1-0.3c0.4,0.5,1.1,0.5,1.5,0.1c0,0,0,0,0,0c0.5-0.5,0.5-1.2,0.1-1.7
				c-0.4-0.5-1.1-0.5-1.6-0.1C136.2,45.9,136.2,45.9,136.2,46L136.2,46z M92.6,52.8c0.5-0.3,0.9-0.6,1.3-1c2.6-2.3,3.8-5.8,3.4-9.2
				c-0.3-2.4-0.9-4.9-1.6-7.2c-0.4-1.3-0.6-2.6-0.7-4c0-2.3,0.5-4.6,1.6-6.7c0.2-0.4,0.4-0.8,0.6-1.2c-0.2,0-0.2,0.1-0.3,0.2
				c-1.1,1.2-2,2.6-2.8,4c-1.1,1.9-1.6,4.1-1.5,6.3c0.1,1.6,0.4,3.3,1,4.8c0.6,1.5,1,3,1.3,4.6C95.4,46.8,94.3,49.8,92.6,52.8z
				 M93.6,43.2c0.2-0.2,0-0.4-0.1-0.6c-0.5-1-0.9-2.1-1.2-3.1c-0.8-2.6-1.6-5.3-1.1-8.1c0.3-2.1,1.1-4.1,2.2-5.9
				c1.2-1.9,2.7-3.5,4.4-5c0.1-0.1,0.2-0.2,0.2-0.3c-0.1-0.1-0.1-0.1-0.2,0c-2.3,1.3-4.3,3.1-6,5.2c-1.5,1.7-2.4,3.9-2.6,6.2
				C89,35.9,90.6,40.1,93.6,43.2L93.6,43.2z M143.7,29.2v-0.4c-0.1-2.8-2.5-5-5.2-4.8c-0.2,0-0.4,0-0.6,0.1c-2.4,0.5-4.1,2.6-4.2,5
				c-0.1,2.2,1.2,4.2,3.3,5c2.6,1,5.5-0.4,6.4-3C143.6,30.5,143.7,29.9,143.7,29.2L143.7,29.2z M113.6,24c-2.8,0-5,2.4-5,5.2
				c0,0,0,0,0,0c0,2.8,2.2,5,5,5c2.8,0,5-2.2,5-5C118.6,26.4,116.4,24.1,113.6,24z M125.2,34.4l-1.9-3.3c-0.1-0.2-0.2-0.4,0.2-0.5
				c0.5-0.2,0.9-0.5,1.3-0.9c1.2-1.3,1.1-3.4-0.2-4.6c-0.4-0.3-0.9-0.6-1.4-0.7c-1-0.1-2-0.2-3-0.1c-0.4,0-0.5,0.1-0.5,0.4
				c0,3.1,0,6.2,0,9.4c0,0.2,0,0.4,0.3,0.4c0.3,0,0.4-0.1,0.4-0.4c0-0.9,0-1.8,0-2.7c0-0.3,0.1-0.4,0.4-0.4c0.4,0,0.9,0,1.3,0
				c0.2,0,0.4,0.1,0.5,0.3c0.5,0.9,1,1.7,1.5,2.6C124.2,34.4,124.6,34.6,125.2,34.4z M99.7,29.3c0-0.3,0-0.6,0-0.9
				c0.4-2.4,2.8-4.1,5.2-3.6c0.7,0.1,1.4,0.4,2,0.9c0.4,0.3,0.5,0,0.7-0.2c0.2-0.2-0.1-0.3-0.2-0.4c-1.5-1.3-3.7-1.5-5.4-0.7
				c-1.9,0.8-3.1,2.6-3,4.7c-0.1,2.9,2.2,5.2,5.1,5.3c0.1,0,0.2,0,0.3,0c1.2,0,2.3-0.4,3.2-1.2c0.1-0.1,0.2-0.1,0.2-0.3
				c-0.1-0.2-0.4-0.4-0.6-0.3c0,0-0.1,0-0.1,0.1c-1.3,1.1-3.2,1.3-4.7,0.5C100.7,32.5,99.7,31,99.7,29.3z M126.9,29.4
				c0,1.6,0,3.1,0,4.6c0,0.2,0,0.4,0.3,0.4s0.4-0.2,0.4-0.4c0-0.9,0-1.8,0-2.7c0-0.2,0-0.4,0.3-0.3c0.4,0,0.9,0,1.3,0
				c0.9,0,1.7-0.3,2.3-0.8c1.1-0.9,1.5-2.4,1.1-3.7c-0.5-1.4-1.8-2.3-3.2-2.2c-0.7,0-1.3,0-2,0c-0.4,0-0.5,0.1-0.5,0.5
				C126.9,26.3,126.9,27.9,126.9,29.4z M142.5,36.3c-0.1,0-0.1,0-0.2-0.1c-0.9-1.6-3.9-1.5-5,0.2c-0.9,1.7-0.9,3.8,0.2,5.4
				c1.1,1.3,3.1,1.5,4.4,0.4c0.1-0.1,0.2-0.2,0.3-0.3c0.1-0.1,0.1-0.2,0.2-0.2c0,0.3,0,0.6,0,1s0.2,0.3,0.4,0.3s0.3-0.1,0.3-0.3
				c0-2.3,0-4.6,0-6.9c0-0.3,0-0.4-0.4-0.4c-0.4,0-0.3,0.2-0.3,0.4C142.6,36,142.6,36.2,142.5,36.3z M102.2,43
				c0.7,0,1.3-0.1,1.9-0.5c0.7-0.4,1-1.2,0.9-1.9c-0.1-0.6-0.5-1.2-1.1-1.4c-0.4-0.2-0.8-0.3-1.2-0.4c-0.7-0.1-1.3-0.4-1.9-0.8
				c-0.5-0.3-0.7-0.9-0.4-1.4c0.1-0.2,0.3-0.4,0.5-0.5c0.9-0.7,2.1-0.5,2.8,0.4c0.2,0.3,0.3,0.6,0.4,1c0.1,0.3,0.3,0.2,0.5,0.2
				s0.2-0.1,0.2-0.3c0-0.9-0.6-1.6-1.3-2c-0.9-0.4-2-0.4-2.9,0.1c-0.9,0.4-1.3,1.5-0.8,2.4c0.2,0.4,0.6,0.7,1,0.9
				c0.2,0.1,0.4,0.1,0.6,0.2c0.7,0.3,1.6,0.4,2.3,0.7c0.6,0.3,0.9,1,0.6,1.6c-0.1,0.2-0.2,0.3-0.3,0.4c-1,0.9-2.5,0.8-3.3-0.2
				c-0.2-0.2-0.3-0.4-0.4-0.7c-0.1-0.4-0.4-0.3-0.6-0.3c-0.2,0-0.1,0.3-0.1,0.4c0,0.2,0.1,0.3,0.2,0.5
				C100.1,42.6,101.1,43.1,102.2,43z M130.7,42.1c0,0.2,0,0.4,0,0.6c0,0.3,0.2,0.3,0.4,0.4s0.4,0,0.4-0.4c0-2.3,0-4.6,0-6.9
				c0-0.3-0.1-0.4-0.4-0.4c-0.3,0-0.4,0.1-0.4,0.4c0,1.5,0,3.1,0,4.6c0,0.4-0.1,0.9-0.4,1.2c-0.7,0.6-1.6,0.9-2.5,0.6
				c-0.9-0.2-1.1-0.9-1.2-1.6c0-0.1,0-0.3,0-0.4c0-1.5,0-2.9,0-4.4c0-0.2,0-0.4-0.3-0.3c-0.3,0.1-0.5-0.2-0.5,0.3c0,1.7,0,3.4,0,5.1
				c0,0.9,0.5,1.7,1.4,2C128.4,43.3,129.8,43,130.7,42.1z M106.1,39.1c0,0.2,0,0.4,0,0.6c0,1.8,1.4,3.3,3.2,3.3c0.2,0,0.5,0,0.7-0.1
				c1.1-0.1,2-0.8,2.3-1.9c0.1-0.4-0.2-0.4-0.4-0.5c-0.2-0.1-0.2,0-0.3,0.2c-0.2,0.9-1,1.5-1.9,1.6c-0.9,0.2-1.8-0.2-2.3-1
				c-0.8-1.3-0.8-3-0.1-4.4c0.4-0.8,1.3-1.3,2.2-1.2c0.9,0,1.7,0.5,2,1.3c0.1,0.2,0.2,0.2,0.4,0.1c0.3-0.2,0.4-0.4,0.2-0.7
				c-1-1.4-3-1.8-4.5-0.8c-0.2,0.1-0.4,0.3-0.5,0.5C106.3,37,106,38,106.1,39.1L106.1,39.1z M118.4,42c0,0.3,0,0.5,0,0.7
				s0.1,0.3,0.3,0.3c0.3,0,0.3-0.1,0.3-0.3c0-2.3,0-4.6,0-6.9c0-0.2,0-0.4-0.3-0.4s-0.3,0.2-0.3,0.4c0,1.5,0,3,0,4.5
				c0,0.6-0.3,1.2-0.8,1.6c-0.6,0.4-1.3,0.5-1.9,0.4c-0.6,0-1.1-0.4-1.3-1c-0.2-0.5-0.3-1-0.2-1.5c0-1.4,0-2.8,0-4.1
				c0-0.3-0.1-0.4-0.4-0.4c-0.3,0-0.3,0.2-0.3,0.4v5c-0.1,1.2,0.9,2.3,2.1,2.4C116.6,43.2,117.7,42.8,118.4,42L118.4,42z M133.9,36
				c0-0.1,0-0.2,0-0.2c0.1-0.3,0-0.4-0.3-0.4c-0.3,0-0.3,0.2-0.3,0.4c0,2.2,0,4.5,0,6.8c0,0.3,0.1,0.4,0.4,0.4
				c0.3,0,0.3-0.2,0.3-0.4c0-1.6,0-3.2,0-4.8c0.1-0.9,0.8-1.6,1.7-1.7c0.7,0,0.8-0.1,0.9-0.8C135.6,35.2,134.7,35.5,133.9,36
				L133.9,36z M123.1,39.2c0,1.1,0,2.3,0,3.4c0,0.3,0.1,0.4,0.4,0.4c0.3,0,0.3-0.1,0.3-0.4c0-1.3,0-2.6,0-3.9c0-0.7,0-0.7,0.7-0.7
				c0.3,0,0.2-0.2,0.2-0.4s0.2-0.4-0.2-0.5s-0.5,0.1-0.7-0.1c-0.1-0.2-0.1-0.5,0-0.7c0-0.2,0-0.4,0-0.6c0-0.3,0-0.4-0.4-0.4
				c-0.4,0-0.3,0.1-0.3,0.4C123.1,37,123.1,38.1,123.1,39.2z M121.6,39.3L121.6,39.3v-3.4c0-0.2,0-0.5-0.4-0.5s-0.4,0.1-0.4,0.5
				c0,2.3,0,4.5,0,6.8c0,0.3,0.1,0.4,0.4,0.4s0.4,0,0.4-0.4C121.6,41.6,121.6,40.4,121.6,39.3z M130.6,47.4c0.3,0.4,0.9,0.7,1.4,0.6
				c0.6-0.1,1-0.5,1-0.9c0-0.4-0.4-0.8-1.1-0.9c-0.3,0-0.6-0.1-0.9-0.3c-0.2-0.1-0.3-0.4-0.2-0.7c0-0.1,0.1-0.2,0.2-0.2
				c0.4-0.3,0.9-0.3,1.3-0.1c0.1,0.1,0.3,0.2,0.5,0.1c-0.4-0.4-1-0.6-1.5-0.4c-0.4,0.1-0.7,0.4-0.7,0.8c0,0.4,0.3,0.6,0.6,0.7
				c0.1,0,0.2,0.1,0.3,0.1c0.3,0.1,0.6,0.2,0.9,0.3c0.3,0.1,0.5,0.4,0.4,0.7c0,0.1-0.1,0.3-0.2,0.3c-0.3,0.2-0.6,0.3-1,0.3
				C131.3,47.7,130.9,47.6,130.6,47.4z M109.2,45.6l-0.1,0.1c0.2,0.2,0.3,0.5,0.5,0.7c0.2,0.2,0.2,0.4,0,0.7
				c-0.2,0.2-0.4,0.5-0.4,0.8l0.8-1l0.8,1c0-0.4-0.2-0.6-0.4-0.8c-0.2-0.2-0.2-0.5-0.1-0.7c0,0,0,0,0.1-0.1c0.2-0.2,0.4-0.4,0.4-0.8
				l-0.8,1L109.2,45.6z M101.6,48v-0.2c-0.4,0-0.8,0-1.2,0s-0.6-0.1-0.5-0.5c0-0.8,0-1.5,0-2.3c0-0.1,0.1-0.2-0.2-0.3
				c0,1.1,0,2.1,0,3.1c0,0.1,0.1,0.2,0.2,0.2c0,0,0,0,0,0C100.5,48,101.1,48,101.6,48z"/>
			<path id="_Path_" class="st0" d="M92.6,52.8c1.7-3,2.7-6,2.2-9.4c-0.3-1.6-0.7-3.1-1.3-4.6c-0.6-1.6-0.9-3.2-1-4.8
				c-0.1-2.2,0.5-4.4,1.5-6.4c0.8-1.4,1.7-2.8,2.8-4c0.1-0.1,0.1-0.2,0.3-0.2c-0.2,0.4-0.4,0.8-0.6,1.2c-1,2.1-1.6,4.4-1.6,6.7
				c0.1,1.4,0.3,2.7,0.7,4c0.7,2.4,1.2,4.8,1.6,7.2c0.4,3.4-0.8,6.8-3.4,9.2C93.6,52.2,93.1,52.6,92.6,52.8z"/>
			<path id="_Path_2" class="st0" d="M93.6,43.2c-3-3.1-4.6-7.3-4.3-11.6c0.2-2.3,1.1-4.4,2.6-6.2c1.7-2.1,3.7-3.9,6-5.2
				c0.1-0.1,0.1-0.1,0.2,0c0,0.1-0.1,0.2-0.2,0.3c-1.7,1.5-3.2,3.1-4.4,5c-1.1,1.8-1.9,3.8-2.3,5.9c-0.5,2.8,0.2,5.5,1.1,8.1
				c0.4,1.1,0.8,2.1,1.2,3.1C93.6,42.8,93.8,43,93.6,43.2z"/>
			<path id="_Compound_Path_2" class="st0" d="M143.7,29.2c0.1,2.8-2,5.1-4.8,5.2c-0.7,0-1.3-0.1-1.9-0.3c-2-0.8-3.4-2.8-3.3-5
				c0-2.4,1.8-4.5,4.2-5c2.8-0.4,5.3,1.4,5.8,4.2c0,0.2,0.1,0.4,0.1,0.6V29.2z M138.6,24.8c-2.4,0.1-4.3,2.1-4.2,4.5
				c0,2.4,1.9,4.4,4.3,4.4c0,0,0.1,0,0.1,0c2.5-0.2,4.3-2.4,4.1-4.9C142.7,26.6,140.9,24.8,138.6,24.8z"/>
			<path id="_Compound_Path_3" class="st0" d="M113.6,24c2.8,0.1,5.1,2.4,5,5.2c0,0,0,0,0,0c0,2.8-2.2,5-5,5c-2.8,0-5-2.2-5-5
				C108.5,26.4,110.7,24.1,113.6,24C113.5,24,113.6,24,113.6,24z M117.8,29.2c0.1-2.4-1.7-4.4-4.1-4.5c-2.4-0.1-4.4,1.7-4.5,4.1
				c0,0.1,0,0.3,0,0.4c-0.1,2.4,1.9,4.5,4.3,4.5c0,0,0,0,0,0C116,33.6,117.9,31.6,117.8,29.2z"/>
			<path id="_Compound_Path_4" class="st0" d="M125.2,34.4c-0.6,0.2-1,0-1.2-0.5c-0.5-0.9-1-1.7-1.5-2.6c-0.1-0.2-0.3-0.3-0.5-0.3
				c-0.4,0-0.9,0-1.3,0c-0.3,0-0.4,0.1-0.4,0.4c0,0.9,0,1.8,0,2.7c0,0.3,0,0.4-0.4,0.4c-0.4,0-0.3-0.1-0.3-0.4c0-3.1,0-6.2,0-9.4
				c0-0.4,0.1-0.5,0.5-0.4c1-0.1,2,0,3,0.1c1.7,0.5,2.8,2.2,2.3,4c-0.1,0.5-0.4,1-0.7,1.4c-0.3,0.4-0.8,0.7-1.3,0.9
				c-0.3,0.1-0.3,0.2-0.2,0.5L125.2,34.4z M120.3,27.7c0,0.8,0,1.6,0,2.3c0,0.2,0,0.4,0.3,0.3c0.4,0,0.9,0,1.3,0
				c0.7,0,1.4-0.3,2-0.8c0.8-0.7,1.1-1.8,0.8-2.8c-0.2-0.9-1-1.6-2-1.7c-0.7-0.1-1.4,0-2.1,0c-0.3,0-0.2,0.2-0.2,0.3
				C120.3,26.2,120.3,26.9,120.3,27.7z"/>
			<path id="_Path_3" class="st0" d="M99.7,29.3c0,1.7,1,3.2,2.5,3.9c1.5,0.8,3.4,0.6,4.7-0.5c0.2-0.2,0.5-0.1,0.7,0.1
				c0,0,0,0.1,0.1,0.1c0.1,0.2-0.1,0.2-0.2,0.3c-0.9,0.8-2,1.2-3.2,1.2c-2.9,0.1-5.3-2.1-5.4-5c0-0.1,0-0.2,0-0.3c0-2,1.2-3.8,3-4.6
				c1.8-0.9,3.9-0.7,5.5,0.6c0.1,0.1,0.4,0.2,0.2,0.4c-0.2,0.2-0.3,0.5-0.7,0.2c-1.9-1.5-4.8-1.2-6.3,0.8c-0.5,0.6-0.8,1.3-0.9,2
				C99.7,28.8,99.7,29,99.7,29.3z"/>
			<path id="_Compound_Path_5" class="st0" d="M126.9,29.4c0-1.5,0-3.1,0-4.6c0-0.4,0.1-0.5,0.5-0.5c0.7,0,1.4,0,2,0
				c1.4-0.1,2.7,0.8,3.2,2.2c0.4,1.3,0,2.8-1.1,3.7c-0.6,0.6-1.5,0.9-2.3,0.8c-0.4,0-0.9,0-1.3,0c-0.3,0-0.3,0.1-0.3,0.3
				c0,0.9,0,1.8,0,2.7c0,0.3,0,0.4-0.4,0.4s-0.3-0.2-0.3-0.4C126.9,32.5,126.9,31,126.9,29.4z M127.6,27.6c0,0.8,0,1.6,0,2.4
				c0,0.2,0,0.3,0.3,0.3c0.5,0,1,0,1.5,0c0.8,0,1.6-0.4,2-1.1c0.6-0.7,0.8-1.8,0.4-2.7c-0.4-0.9-1.3-1.5-2.3-1.5c-0.6,0-1.1,0-1.7,0
				c-0.3,0-0.3,0.1-0.3,0.3C127.6,26.2,127.6,26.9,127.6,27.6z"/>
			<path id="_Compound_Path_6" class="st0" d="M142.5,36.3c0-0.2,0-0.3,0-0.5c0-0.2-0.1-0.4,0.3-0.4s0.4,0.1,0.4,0.4
				c0,2.3,0,4.6,0,6.9c0,0.2,0,0.3-0.3,0.3c-0.3,0-0.4,0-0.4-0.3c0-0.3,0-0.6,0-1c-0.2-0.1-0.2,0.1-0.2,0.2
				c-1.2,1.3-3.2,1.4-4.5,0.2c-0.1-0.1-0.2-0.2-0.3-0.3c-1-1.7-1.1-3.7-0.2-5.5c1.1-1.7,4-1.7,5-0.2
				C142.4,36.3,142.4,36.3,142.5,36.3z M137.5,39.1c0,0.5,0.1,1,0.2,1.5c0.3,1,1.2,1.7,2.3,1.7c1,0.1,2-0.5,2.4-1.5
				c0.5-1.2,0.5-2.6-0.1-3.8c-0.6-1.2-2.1-1.7-3.3-1c-0.3,0.2-0.6,0.4-0.8,0.7C137.7,37.4,137.5,38.3,137.5,39.1L137.5,39.1z"/>
			<path id="_Path_4" class="st0" d="M102.2,43c-1.1,0.1-2.1-0.5-2.6-1.5c-0.1-0.2-0.1-0.3-0.2-0.5c0-0.1-0.2-0.4,0.1-0.4
				s0.5-0.1,0.6,0.3c0.5,1.2,1.9,1.8,3.1,1.3c0.2-0.1,0.5-0.2,0.7-0.4c0.5-0.4,0.6-1.2,0.1-1.7c-0.1-0.1-0.3-0.3-0.4-0.3
				c-0.7-0.4-1.5-0.4-2.3-0.7c-0.2-0.1-0.4-0.1-0.6-0.2c-0.9-0.4-1.4-1.4-1-2.4c0.2-0.4,0.5-0.8,0.9-1c0.9-0.5,2-0.5,2.9-0.1
				c0.8,0.4,1.3,1.1,1.3,2c0,0.2,0,0.3-0.2,0.3s-0.4,0.1-0.5-0.2c-0.1-1.1-1.1-1.9-2.2-1.8c-0.4,0-0.7,0.2-1,0.4
				c-0.5,0.2-0.8,0.8-0.6,1.3c0.1,0.2,0.2,0.4,0.5,0.5c0.6,0.4,1.2,0.6,1.9,0.8c0.4,0.1,0.8,0.2,1.2,0.4c0.6,0.2,1,0.8,1.1,1.5
				c0.1,0.8-0.2,1.6-0.9,2C103.5,42.8,102.8,43,102.2,43z"/>
			<path id="_Path_5" class="st0" d="M130.7,42.1c-0.9,0.9-2.3,1.2-3.5,0.7c-0.9-0.3-1.4-1.1-1.4-2c-0.1-1.7,0-3.4,0-5.1
				c0-0.4,0.3-0.2,0.5-0.3c0.2,0,0.3,0.1,0.3,0.3c0,1.5,0,2.9,0,4.4c0,0.1,0,0.3,0,0.4c0.1,0.7,0.4,1.5,1.2,1.6
				c0.9,0.3,1.8,0,2.4-0.6c0.3-0.3,0.4-0.7,0.4-1.2c0-1.5,0-3.1,0-4.6c0-0.3,0.1-0.4,0.4-0.4c0.3,0,0.4,0.1,0.4,0.4
				c0,2.3,0,4.6,0,6.9c0,0.3-0.1,0.4-0.4,0.4s-0.5,0-0.4-0.4C130.7,42.5,130.7,42.3,130.7,42.1z"/>
			<path id="_Path_6" class="st0" d="M106.1,39.1c-0.1-1.1,0.2-2.2,0.9-3c1.2-1.3,3.2-1.4,4.5-0.2c0.2,0.2,0.3,0.3,0.5,0.5
				c0.2,0.3,0.1,0.5-0.2,0.7c-0.2,0.1-0.3,0.1-0.4-0.1c-0.3-0.8-1.1-1.3-2-1.3c-0.9-0.1-1.8,0.4-2.2,1.2c-0.8,1.4-0.7,3.1,0.1,4.4
				c0.5,0.8,1.4,1.2,2.3,1c0.9,0,1.7-0.7,1.9-1.6c0-0.1,0.1-0.3,0.3-0.2c0.2,0.1,0.5,0.1,0.4,0.5c-0.3,1-1.2,1.8-2.3,1.9
				c-1.8,0.3-3.4-0.8-3.8-2.6c0-0.2-0.1-0.5-0.1-0.7C106,39.5,106.1,39.3,106.1,39.1z"/>
			<path id="_Path_7" class="st0" d="M118.4,42c-0.8,0.8-1.9,1.1-2.9,0.9c-1.2-0.1-2.2-1.1-2.1-2.4v-5c0-0.2-0.1-0.4,0.3-0.4
				c0.3,0,0.4,0,0.4,0.4c0,1.4,0,2.8,0,4.1c0,0.5,0,1,0.2,1.5c0.2,0.6,0.7,1,1.3,1c0.7,0.1,1.4,0,1.9-0.4c0.5-0.3,0.9-1,0.8-1.6
				c0-1.5,0-3,0-4.5c0-0.2,0-0.4,0.3-0.4s0.3,0.2,0.3,0.4c0,2.3,0,4.6,0,6.9c0,0.2,0,0.4-0.3,0.3c-0.3,0-0.3-0.1-0.3-0.3
				C118.4,42.5,118.4,42.3,118.4,42z"/>
			<path id="_Path_8" class="st0" d="M133.9,36.1c0.8-0.6,1.7-0.8,2.7-0.7c-0.1,0.7-0.3,0.8-0.9,0.8c-1,0-1.7,0.8-1.8,1.8
				c0,1.6,0,3.2,0,4.8c0,0.2,0.1,0.4-0.3,0.4c-0.3,0-0.4-0.1-0.4-0.4c0-2.3,0-4.5,0-6.8c0-0.2,0-0.4,0.3-0.4c0.3,0,0.4,0.2,0.3,0.4
				C133.9,35.9,133.9,36,133.9,36.1z"/>
			<path id="_Path_9" class="st0" d="M123.1,39.2c0-1.1,0-2.3,0-3.4c0-0.2,0-0.4,0.3-0.4c0.3,0,0.4,0.1,0.4,0.4s0,0.4,0,0.6
				c-0.1,0.2-0.1,0.5,0,0.7c0.1,0.2,0.4,0.1,0.7,0.1s0.2,0.3,0.2,0.5s0.1,0.3-0.2,0.3c-0.7,0-0.7,0.1-0.7,0.7c0,1.3,0,2.6,0,3.9
				c0,0.2,0,0.4-0.3,0.4s-0.4-0.1-0.4-0.4C123.2,41.5,123.1,40.4,123.1,39.2z"/>
			<path id="_Path_10" class="st0" d="M121.6,39.3c0,1.1,0,2.3,0,3.4c0,0.3-0.1,0.4-0.4,0.4s-0.4,0-0.4-0.4c0-2.3,0-4.5,0-6.8
				c0-0.3,0-0.4,0.4-0.5c0.4,0,0.4,0.2,0.4,0.5L121.6,39.3L121.6,39.3z"/>
			<path id="_Path_11" class="st0" d="M130.6,47.4c0.3,0.2,0.6,0.3,1,0.4c0.4,0.1,0.7,0,1-0.3c0.3-0.2,0.3-0.5,0.2-0.8
				c-0.1-0.1-0.2-0.2-0.3-0.2c-0.3-0.1-0.6-0.2-0.9-0.3c-0.1,0-0.2,0-0.3-0.1c-0.3-0.1-0.6-0.3-0.6-0.7c0-0.4,0.3-0.7,0.7-0.8
				c0.5-0.2,1.1,0,1.5,0.4c-0.2,0.1-0.3-0.1-0.5-0.1c-0.4-0.2-0.9-0.2-1.3,0.1c-0.2,0.1-0.3,0.4-0.2,0.7c0,0.1,0.1,0.2,0.2,0.2
				c0.3,0.2,0.6,0.3,0.9,0.3c0.6,0.1,1.1,0.5,1.1,0.9s-0.4,0.8-1,0.9C131.5,48,131,47.8,130.6,47.4z"/>
			<path id="_Path_12" class="st0" d="M136.1,46c0.4-0.5,1.1-0.5,1.6-0.1c0,0,0,0,0,0c0.5,0.5,0.4,1.3-0.1,1.7
				c-0.4,0.4-1.1,0.4-1.5-0.1c0,0,0,0,0,0v-0.2l0.2,0.1c0.4,0.3,0.9,0.3,1.3,0c0.4-0.4,0.4-1,0-1.4c-0.4-0.5-0.9-0.4-1.5,0.1
				L136.1,46z"/>
			<path id="_Path_13" class="st0" d="M109.2,45.6l0.8,1l0.8-1c0,0.4-0.2,0.6-0.4,0.8c-0.2,0.2-0.2,0.5-0.1,0.7c0,0,0.1,0.1,0.1,0.1
				c0.2,0.2,0.5,0.4,0.4,0.8l-0.8-1l-0.8,1c0-0.3,0.2-0.6,0.4-0.8c0.2-0.3,0.2-0.5,0-0.7c-0.2-0.2-0.4-0.5-0.5-0.7L109.2,45.6z"/>
			<path id="_Path_14" class="st0" d="M142.6,47.5c-0.3,0.5-1,0.6-1.5,0.2c-0.1,0-0.1-0.1-0.2-0.1c-0.5-0.5-0.5-1.2,0-1.7
				c0,0,0,0,0.1-0.1c0.4-0.4,1-0.4,1.4,0c0,0,0.1,0.1,0.1,0.2v0.1h-0.1c-0.5-0.5-1-0.5-1.4,0c-0.4,0.4-0.4,1,0,1.4
				c0.4,0.5,0.8,0.5,1.4,0L142.6,47.5L142.6,47.5z"/>
			<path id="_Path_15" class="st0" d="M101.6,48c-0.6,0-1.1,0-1.7,0c-0.1,0-0.2-0.1-0.2-0.2c0,0,0,0,0,0c0-1,0-2.1,0-3.1
				c0.2,0.1,0.2,0.2,0.2,0.3c0,0.8,0,1.5,0,2.3c0,0.5,0.1,0.5,0.5,0.5c0.4,0,0.8,0,1.2,0V48z"/>
			<path id="_Path_16" class="st0" d="M136.2,47.4v0.2c-0.2,0-0.1,0.2-0.2,0.3c0,0.3,0,0.7-0.1,1v-3.1c0.2,0,0,0.4,0.3,0.3v0.2
				C135.9,46.5,135.9,47,136.2,47.4z"/>
			<path id="_Path_17" class="st0" d="M115.7,47.1c0.1,0.5-0.3,1.1-0.8,1.1s-1.1-0.3-1.1-0.8c0-0.2,0-0.3,0-0.5v-1.3
				c0.3,0.2,0.2,0.4,0.2,0.5c0,0.3,0,0.5,0,0.8c-0.1,0.4,0.2,0.8,0.6,0.9c0,0,0,0,0,0c0.4,0.1,0.8-0.1,0.9-0.5l0.1-0.2L115.7,47.1z"
				/>
			<path id="_Path_18" class="st0" d="M106.2,47.2c-0.1,0.5-0.5,0.9-1.1,0.8c-0.5-0.1-0.9-0.6-0.9-1.1c0-0.4,0-0.8,0.1-1.2
				c0.1,0.4,0.1,0.9,0.1,1.3c0,0.3,0.2,0.7,0.5,0.8c0.4,0.2,0.7,0,1.1-0.6L106.2,47.2z"/>
			<path id="_Path_19" class="st0" d="M123.9,47.6c0.2-0.2,0.3-0.5,0.3-0.8c0-0.4,0-0.7,0-1.1c0.2,0.2,0.1,0.4,0.1,0.6
				c0,0.4,0,0.8,0,1.2S124.3,47.9,123.9,47.6L123.9,47.6z"/>
			<path id="_Path_20" class="st0" d="M119.1,46.2c-0.5,0.5-0.2,1.2-0.4,1.7c-0.1-0.7-0.1-1.5-0.1-2.2c0.2,0.1,0.2,0.2,0.2,0.4
				c0.1,0.3,0.1,0,0.2,0L119.1,46.2z"/>
			<path id="_Path_21" class="st0" d="M142.6,47.5v-0.2c0.2-0.4,0.2-0.8,0-1.2v-0.1c0.2,0,0.1-0.2,0.3-0.3c0,0.5,0,1.1,0,1.6
				c0,0.2,0.2,0.4-0.1,0.5c0-0.1,0-0.2,0-0.2S142.6,47.5,142.6,47.5z"/>
			<path id="_Path_22" class="st0" d="M122.7,48.5c1,0.1,1.2-0.1,1.6-1.2c0.1,0.4,0,0.9-0.4,1.2C123.5,49,123.1,49,122.7,48.5z"/>
			<path id="_Path_23" class="st0" d="M123.9,47.6l0.1,0.1c-0.5,0.5-1.1,0.3-1.5-0.4h0.1C123.1,47.8,123.3,47.9,123.9,47.6z"/>
			<path id="_Path_24" class="st0" d="M122.7,47.3h-0.1c-0.1-0.6-0.1-1.1,0-1.7C122.7,46.2,122.5,46.8,122.7,47.3z"/>
			<path id="_Path_25" class="st0" d="M106.2,47.2H106v-1.5h0.1V47.2z"/>
			<path id="_Path_26" class="st0" d="M115.7,47.1h-0.1v-1.4h0.1V47.1z"/>
			<path id="_Path_27" class="st0" d="M119.1,46.2L119,46c0.2-0.3,0.5-0.4,0.9-0.4C119.6,45.8,119.3,46,119.1,46.2z"/>
			<path id="_Path_28" class="st0" d="M142.7,47.6c0.1,0.1,0,0.1,0,0.2S142.7,47.7,142.7,47.6z"/>
			<path id="_Path_29" class="st1" d="M138.6,24.8c2.5,0.1,4.4,2.2,4.3,4.6c-0.1,2.3-1.8,4.1-4.1,4.3c-2.4,0-4.4-1.9-4.4-4.3
				c0,0,0-0.1,0-0.1C134.3,26.9,136.2,24.8,138.6,24.8z"/>
			<path id="_Path_30" class="st1" d="M118.3,29.2c0.1,2.4-1.7,4.4-4.1,4.5s-4.4-1.7-4.5-4.1c0-0.1,0-0.3,0-0.4
				c-0.1-2.4,1.7-4.4,4.1-4.5c2.4-0.1,4.4,1.7,4.5,4.1C118.3,28.9,118.3,29,118.3,29.2z"/>
			<path id="_Path_31" class="st1" d="M120.9,27.7v-2.3c0-0.1-0.1-0.3,0.2-0.3c0.7,0,1.4,0,2.1,0c1,0.1,1.8,0.8,2,1.7
				c0.3,1,0,2.1-0.8,2.8c-0.5,0.5-1.2,0.8-1.9,0.8c-0.4,0-0.9,0-1.3,0c-0.3,0-0.3-0.1-0.3-0.3C120.9,29.2,120.9,28.5,120.9,27.7z"/>
			<path id="_Path_32" class="st1" d="M128.1,27.6c0-0.8,0-1.5,0-2.2c0-0.2,0-0.4,0.3-0.3c0.6,0,1.1,0,1.6,0c1,0,1.9,0.6,2.3,1.5
				c0.4,0.9,0.3,2-0.4,2.7c-0.5,0.7-1.2,1-2,1.1c-0.5,0-1,0-1.5,0c-0.3,0-0.3-0.1-0.3-0.3C128.1,29.2,128.1,28.4,128.1,27.6z"/>
			<path id="_Path_33" class="st1" d="M137.5,39.2c0-0.9,0.2-1.7,0.7-2.4c0.8-1.1,2.4-1.3,3.4-0.5c0.3,0.2,0.5,0.5,0.7,0.8
				c0.6,1.2,0.6,2.6,0.1,3.8c-0.4,1-1.3,1.6-2.4,1.5c-1.1,0-2-0.7-2.3-1.7C137.6,40.1,137.5,39.7,137.5,39.2z"/>
			<path id="_Path_34" class="st1" d="M136.2,47.4c-0.2-0.4-0.2-0.8,0-1.2c0.6-0.5,1.1-0.5,1.5-0.1c0.4,0.4,0.4,1,0,1.4
				c-0.4,0.3-0.9,0.3-1.3,0L136.2,47.4z"/>
			<path id="_Path_35" class="st1" d="M142.5,46.2c0.2,0.4,0.2,0.8,0,1.1l-0.1,0.1c-0.5,0.5-0.9,0.5-1.3,0c-0.4-0.4-0.4-1,0-1.4
				c0.4-0.4,0.9-0.4,1.4,0L142.5,46.2z"/>
		</g>
	</g>
</g>
</svg>
