<?xml version="1.0" encoding="utf-8"?>
<!-- Generator: Adobe Illustrator 22.1.0, SVG Export Plug-In . SVG Version: 6.00 Build 0)  -->
<svg version="1.1" id="Layer_1" xmlns="http://www.w3.org/2000/svg" xmlns:xlink="http://www.w3.org/1999/xlink" x="0px" y="0px"
	 viewBox="0 0 233 73" style="enable-background:new 0 0 233 73;" xml:space="preserve">
<style type="text/css">
	.st0{fill:#3D3D3D;}
</style>
<title>Asset 44</title>
<g id="Layer_2_1_">
	<g id="Layer_1-2">
		<g id="_Group_">
			<path id="_Path_" class="st0" d="M147,32h0.3c1.6-0.1,3.2-0.4,4.7-0.8c-0.4,0.5-1,0.4-1.4,0.8c-2.2,0.9-4.5,1.2-6.9,0.9
				c-2.9-0.6-5.8-1.8-8.3-3.4c-2.5-1.7-5.1-3.2-7.8-4.6c-2.3-1.2-4.9-1.9-7.6-2c-2.2,0.1-4.4,0.6-6.4,1.6c-1,0.4-2.1,0.9-3.1,1.4
				c-0.2,0-0.3-0.1-0.2-0.3c4.4-3.9,10.6-4.8,15.9-2.4c3.1,1.3,6,2.9,8.8,4.8c2.7,1.9,5.8,3.2,9,3.9C145,32,146,32.1,147,32L147,32z
				"/>
			<path id="_Path_2" class="st0" d="M84.1,28.2L84.1,28c-0.1-1.1,0-2.2-0.1-3.3c-0.1-1.1-0.4-1.4-1.5-1.6c-0.2,0-0.3-0.1-0.3-0.3
				c-0.1-0.2-0.1-0.3-0.3-0.3c-0.5,0-0.8-0.6-1.3-0.5c-0.2,0-0.3-0.3-0.3-0.5c0-0.2,0-0.4-0.2-0.6l-0.1-0.1c-0.7-0.2-1,0.3-1.5,0.5
				l-0.1,0.1c0,0-0.1,0-0.1,0l-0.1,0c-0.2,0-0.3,0-0.4,0.2l-0.1,0c-0.2,0-0.5,0.1-0.6,0.2h-0.2v-0.2L79,20c0.7-0.5,1.4-0.4,1.7,0.4
				c0.3,0.6,0.8,1.1,1.4,1.2c0.6,0.2,1.1,0.6,1.7,0.9c0.6,0.4,1,1.2,1,2c0.1,0.9,0.2,1.8,0.1,2.7c-0.1,0.7,0.4,0.9,0.9,1.2
				c0.5,0.3,0.8,0,1.1-0.2c1-0.7,1.8-1.8,2.1-3c0.7-2.5,3.2-4,5.7-3.4c1.6,0.3,3.1,0.7,4.6,1.4c1.8,0.7,3.8,1.2,5.6,1.9
				c1.5,0.6,3.1,1.2,4.6,1.9c0,0.1,0.2,0.1,0.2,0.2c-0.1,0.1-0.2,0-0.3,0c-0.7-0.2-1.4-0.5-2.1-0.7c-1.7-0.5-3.3-1.1-5-1.5
				c-2-0.5-3.9-1.4-5.9-2c-1.3-0.5-2.8-0.6-4.2-0.2c-1.2,0.4-2,1.4-2.3,2.6c-0.2,0.7-0.2,1.5-0.8,2c-0.4,0.3-0.7,0.6-1,0.9
				c-1.3,1.1-2,1.4-3.4,0.2C84.4,28.5,84.3,28.3,84.1,28.2z"/>
			<path id="_Path_3" class="st0" d="M80,20.9c0.2,0.2,0.2,0.4,0.2,0.6c0,0.2,0.1,0.5,0.3,0.5c0.5-0.1,0.8,0.5,1.3,0.5
				c0.2,0,0.3,0.1,0.3,0.3c0,0.2,0.2,0.3,0.3,0.3c1,0.2,1.3,0.6,1.5,1.6c0.1,1,0.1,2.2,0.1,3.3c-0.2,0-0.5-0.1-0.5-0.4
				c-0.1-0.5-0.5-1-1-1.3c0.5-0.1,0.8,0.3,1.1,0.8c0.1-1,0.1-1.9-0.1-2.9c-0.1-0.2,0-0.5-0.3-0.5S83,24,82.9,24.1
				c-0.2,0.2-0.3,0.4-0.5,0.7c-0.4,0.4-0.5,1-1.1,1.1c0.4-0.6,0.8-1.2,1.2-1.7c0.4-0.6,0.4-0.7-0.2-1c-0.4-0.2-0.7-0.7-1.1-0.8
				c-0.1,0-0.2-0.2-0.4-0.2C79.9,22,79.9,21.9,80,20.9z"/>
			<path id="_Path_4" class="st0" d="M81.3,25.9c0.6-0.1,0.7-0.8,1.1-1.1c0.2-0.2,0.3-0.4,0.5-0.7c0.1-0.1,0.2-0.4,0.4-0.4
				c0.3,0.1,0.2,0.3,0.3,0.5c0.1,1,0.2,1.9,0.1,2.9c-0.3-0.5-0.6-0.9-1.1-0.8h-0.4c-0.4-0.1-0.7,0.1-1,0.1l0,0v-0.4L81.3,25.9z"/>
			<path id="_Path_5" class="st0" d="M84.1,28.2c0.2,0.1,0.3,0.3,0.5,0.4c1.4,1.1,2.1,0.8,3.4-0.2c0.3-0.3,0.6-0.6,1-0.9
				c-0.6,1.1-1.6,1.9-2.8,2.1C85.5,29.8,84.4,29,84.1,28.2z"/>
			<path id="_Path_6" class="st0" d="M81.1,26.5c0.4,0,0.7-0.2,1-0.1c-0.9,0.4-1.9,0.9-2.7,1.5c0.5-0.7,1-1.3,1.7-1.7L81.1,26.5
				C81.1,26.5,81.1,26.6,81.1,26.5L81.1,26.5z"/>
			<path id="_Path_7" class="st0" d="M78.3,21.3c0.5-0.2,0.9-0.7,1.5-0.5C79.4,21,78.9,21.4,78.3,21.3z"/>
			<path id="_Path_8" class="st0" d="M77.7,21.6c0.1-0.1,0.3-0.1,0.4-0.2C78,21.6,77.8,21.6,77.7,21.6z"/>
			<path id="_Path_9" class="st0" d="M78.2,21.4c0,0,0.1-0.1,0.1-0.1C78.3,21.4,78.2,21.4,78.2,21.4z"/>
			<path id="_Path_10" class="st0" d="M81.1,26.5L81.1,26.5C81.1,26.5,81.1,26.5,81.1,26.5L81.1,26.5z"/>
			<path id="_Compound_Path_" class="st0" d="M130.9,37.6c1,1.9,1.8,3.9,2.7,5.9c0.2,0.4,0.4,0.8,0.6,1.3c0.1,0.3,0.3,0.6-0.1,0.7
				c-0.4,0.2-0.6-0.1-0.7-0.4c-0.1-0.2-0.2-0.3-0.2-0.5c-0.2-1.1-0.9-1.3-1.8-1.2c-0.3,0-0.6,0-0.9,0c-1.3-0.2-2.1,0.2-2.4,1.5
				c-0.1,0.4-0.4,0.6-0.8,0.6c-1.4,0-2.8,0-4.2,0c-0.5,0-0.8-0.2-0.8-0.7c0-2.1,0-4.3,0-6.4c0-0.3-0.1-0.7,0.4-0.8s0.5,0.4,0.5,0.8
				c0,1.8,0,3.6,0,5.3c0,0.8,0.2,1.1,1,1.1c0.9-0.1,1.8-0.1,2.6,0.1c0.3,0.1,0.3-0.2,0.4-0.4c0.5-1.1,0.9-2.1,1.4-3.2
				s1.1-2.4,1.7-3.6L130.9,37.6z M130.7,39.1h-0.2c-0.4,1-0.9,2-1.3,3.1c-0.2,0.4,0,0.6,0.4,0.6h2c0.4,0,0.5-0.1,0.4-0.5
				C131.6,41.2,131.2,40.2,130.7,39.1L130.7,39.1z"/>
			<path id="_Path_11" class="st0" d="M97.7,39.4c0,1.8,0,3.6,0,5.4c0,0.3,0.1,0.7-0.4,0.8s-0.5-0.4-0.5-0.8c0-2.1,0-4.1,0-6.2
				c0-0.3-0.1-0.8,0.4-0.8s0.9,0,1.1,0.5c0.7,1.8,1.4,3.5,2.2,5.2c0.1,0.1,0.2,0.3,0.3,0.4c0.7-1.8,1.4-3.4,2.1-5.1
				c0.1-0.3,0.2-0.5,0.4-0.8c0.2-0.4,0.6-0.3,0.9-0.3c0.3,0,0.4,0.3,0.4,0.6c0,2.2,0,4.4,0,6.6c0,0.3,0,0.6-0.4,0.6
				s-0.5-0.3-0.5-0.6c0-1.3,0-2.6,0-3.9c0-0.5,0-1-0.2-1.5c-0.7,1.5-1.3,3.1-2,4.6c-0.2,0.5-0.2,1.4-0.9,1.4s-0.6-0.9-0.9-1.4
				c-0.7-1.6-1.3-3.1-2-4.7L97.7,39.4z"/>
			<path id="_Compound_Path_2" class="st0" d="M106.2,41.6c-0.1-2.3,1.6-4.2,3.9-4.3c2.3-0.1,4.2,1.6,4.3,3.9c0,0.1,0,0.3,0,0.4
				c0.1,2.3-1.6,4.2-3.9,4.3s-4.2-1.6-4.3-3.9C106.2,41.9,106.2,41.8,106.2,41.6z M113.5,41.6c0.1-1.8-1.2-3.3-3-3.4
				c-1.8-0.1-3.3,1.2-3.4,3c0,0.1,0,0.2,0,0.4c-0.1,1.8,1.2,3.3,3,3.4c1.8,0.1,3.3-1.2,3.4-3C113.5,41.9,113.5,41.8,113.5,41.6z"/>
			<path id="_Compound_Path_3" class="st0" d="M90.3,41.6c0-1,0-2,0-3c0-0.6,0.2-0.9,0.8-0.8s1.5,0,2.3,0c1,0,1.8,0.7,1.9,1.6
				c0.2,1-0.3,2-1.3,2.3c-0.6,0.3-0.5,0.6-0.2,0.9c0.4,0.7,0.9,1.5,1.3,2.2c0.1,0.2,0.4,0.5,0.1,0.7c-0.3,0.2-0.6,0.1-0.8-0.2
				c0,0,0,0,0-0.1L93,43.1c-0.2-0.2-0.3-0.5-0.5-0.8c-0.3-0.4-0.8-0.3-1.1-0.2s-0.3,0.5-0.3,0.7c0,0.6,0,1.1,0,1.7
				c0,0.4,0.2,1.1-0.4,1s-0.4-0.7-0.4-1.1C90.3,43.5,90.3,42.6,90.3,41.6L90.3,41.6z M92.3,38.6c-0.4,0.1-1.1-0.3-1.1,0.5
				c0,0.6,0,1.1,0,1.7c0,0.2,0.1,0.4,0.4,0.4c0,0,0,0,0.1,0c0.7,0.1,1.4,0,2-0.2c0.6-0.2,0.9-0.8,0.7-1.4c0,0,0,0,0,0
				C94.1,38.8,93.6,38.5,92.3,38.6L92.3,38.6z"/>
			<path id="_Compound_Path_4" class="st0" d="M75.4,41.6c0-1,0-2.1,0-3.1c0-0.4,0-0.8,0.5-0.8c1.2-0.1,2.4,0,3.6,0.2
				c1.8,0.5,2.9,2.3,2.6,4.1c-0.2,1.8-1.5,3.2-3.3,3.4c-0.9,0.1-1.9,0.1-2.8,0.1c-0.6,0-0.6-0.4-0.6-0.8
				C75.4,43.8,75.4,42.6,75.4,41.6z M76.2,41.6L76.2,41.6c0,0.4,0,0.9,0,1.3c0,2-0.5,2,2.1,1.9c1.5-0.1,2.8-1.3,2.9-2.8
				c0.2-1.5-0.7-3-2.2-3.3c-0.7-0.2-1.5-0.2-2.3-0.1c-0.5,0-0.5,0.4-0.5,0.8C76.2,40.1,76.2,40.8,76.2,41.6z"/>
			<path id="_Path_12" class="st0" d="M137.2,45.8c-0.7,0-1.3-0.2-1.8-0.6c-0.2-0.2-0.5-0.4-0.2-0.7c0.3-0.3,0.5-0.2,0.8,0
				c0.5,0.5,1.2,0.7,1.9,0.5c0.6,0,1.1-0.5,1.2-1.1c0.1-0.6-0.3-1.3-0.9-1.4c-0.6-0.2-1.3-0.5-1.9-0.7c-0.8-0.3-1.3-1.1-1.2-1.9
				c0-0.9,0.5-1.6,1.3-1.9c0.9-0.4,2-0.4,2.9,0.2c0.2,0.1,0.6,0.3,0.3,0.7c-0.2,0.2-0.5,0.3-0.7,0.1c0,0,0,0-0.1-0.1
				c-0.5-0.4-1.3-0.5-1.9-0.3c-0.5,0.1-0.9,0.6-0.9,1.1c-0.1,0.5,0.2,1,0.6,1.2c0.4,0.2,0.9,0.4,1.4,0.6c1.6,0.5,2.2,1.3,1.9,2.6
				C139.6,45.1,138.5,45.9,137.2,45.8z"/>
			<path id="_Path_13" class="st0" d="M151.8,41.9c-0.1,1-0.1,1.9-0.1,2.9c0,0.3,0.1,0.8-0.4,0.8s-0.4-0.5-0.4-0.8
				c0-2.1,0-4.2,0-6.3c0-0.3-0.1-0.7,0.4-0.7c0.5,0,0.4,0.4,0.4,0.7c0,0.5,0,1.1,0,1.6c0,0.2-0.1,0.5,0.2,0.7
				c0.2,0.1,0.4-0.2,0.6-0.3l2.3-2.1c0.2-0.1,0.3-0.3,0.5-0.4c0.3-0.2,0.8-0.5,1-0.1c0.2,0.4-0.3,0.5-0.5,0.7
				c-0.8,0.8-1.6,1.5-2.5,2.3c-0.4,0.4-0.4,0.6,0,1c1,1,1.9,1.9,2.8,2.9c0.2,0.2,0.7,0.5,0.4,0.8c-0.3,0.3-0.7,0.2-1-0.2
				c-0.9-0.9-1.8-1.8-2.6-2.7c-0.3-0.3-0.5-0.6-0.7-0.9L151.8,41.9z"/>
			<path id="_Path_14" class="st0" d="M88.8,45.6c-1.4,0-2.8,0-4.3,0c-0.6,0-0.8-0.2-0.8-0.8c0-2.1,0-4.2,0-6.3
				c0-0.5,0.1-0.8,0.7-0.8H88c0.3,0,0.6,0,0.6,0.4s-0.3,0.4-0.6,0.4h-2.8c-0.5,0-0.7,0.2-0.7,0.7c0,2.3-0.3,1.9,1.8,1.9h1.5
				c0.2,0,0.4,0.1,0.5,0.3c0,0.3-0.2,0.4-0.5,0.4c-0.8,0-1.6,0-2.4,0c-0.8,0-1,0.3-0.9,1c0.1,2,0,2,2,2c0.5,0,1,0,1.5,0
				S88.8,45,88.8,45.6L88.8,45.6z"/>
			<path id="_Compound_Path_5" class="st0" d="M115.9,41.5c0-1,0-2,0-3c0-0.6,0.2-0.8,0.8-0.8c0.8,0,1.5,0,2.3,0.1
				c1,0,1.8,0.8,1.8,1.8c0.1,1.1-0.6,2-1.7,2.3c-0.6,0.1-1.1,0.1-1.7,0.1c-0.5,0-0.7,0.2-0.7,0.7c0,0.7,0,1.4,0,2
				c0,0.3,0.2,0.9-0.5,0.9s-0.4-0.5-0.4-0.8C115.9,43.7,115.9,42.6,115.9,41.5L115.9,41.5z M117.8,38.5c-0.3,0.1-0.9-0.2-1,0.3
				s-0.3,1.6,0.1,2.1s1.3,0.2,1.9,0.1h0.2c0.5-0.1,0.9-0.5,0.8-1c0,0,0,0,0-0.1C119.8,38.9,119.3,38.5,117.8,38.5L117.8,38.5z"/>
			<path id="_Path_15" class="st0" d="M143.3,42.1V40c0-1.5,0-1.5-1.5-1.5c-0.2,0-0.4,0-0.6,0s-0.5-0.1-0.4-0.4s0.2-0.3,0.5-0.3h5
				c0.2,0,0.5,0.1,0.5,0.4c0,0.3-0.3,0.3-0.5,0.4h-0.3c-1.8,0-1.8,0-1.8,1.8c0,1.4,0,2.8,0,4.2c0,0.3,0,0.5-0.1,0.8
				c-0.1,0.2-0.2,0.5-0.6,0.4c-0.4-0.1-0.3-0.3-0.3-0.6C143.2,44.1,143.2,43.1,143.3,42.1L143.3,42.1z"/>
			<path id="_Path_16" class="st0" d="M148,41.6c0-1.1,0-2.2,0-3.3c0-0.3,0-0.6,0.5-0.6s0.4,0.3,0.4,0.6c0,2.2,0,4.4,0,6.6
				c0,0.3,0,0.6-0.4,0.6c-0.4,0-0.5-0.3-0.5-0.6C147.9,43.9,147.9,42.8,148,41.6L148,41.6z"/>
			<path id="_Path_17" class="st0" d="M147.6,37.8L147.6,37.8l-0.1-0.1l0,0C147.6,37.7,147.6,37.8,147.6,37.8z"/>
			<path id="_Path_18" class="st0" d="M98.8,37.4l-0.1,0.2l-0.1-0.1L98.8,37.4L98.8,37.4z"/>
			<path id="_Path_19" class="st0" d="M131.9,37.9C131.9,37.9,131.9,37.9,131.9,37.9C132.1,37.9,132,37.9,131.9,37.9L131.9,37.9
				L131.9,37.9z"/>
			<path id="_Path_20" class="st0" d="M110.6,26.7L110.6,26.7C110.7,26.7,110.7,26.8,110.6,26.7L110.6,26.7
				C110.6,26.8,110.6,26.7,110.6,26.7z"/>
			<polygon id="_Path_21" class="st0" points="83.3,29.4 83.3,29.4 83.3,29.4 			"/>
			<polygon id="_Path_22" class="st0" points="148.8,34.1 148.8,34 148.8,34 			"/>
			<path id="_Path_23" class="st0" d="M142.7,50.2c0.2-0.4,0.5-0.2,0.8-0.2c2.9,0,5.8,0,8.7,0c0.4,0,0.4,0,0.6-0.5
				c0.1-0.1,0.2-0.2,0.4,0c0.3,0.3,0.5-0.1,0.7-0.2c0.2-0.1,0.1-0.4,0-0.7c-0.2-0.4-0.3-0.8-0.4-1.2c0.3,0.4,0.5,0.8,0.8,1.2
				c0.2,0.2,0.2,0.6,0.6,0.5s0.2-0.4,0.3-0.6c0.1-0.4,0.2-0.8,0.4-1.1c0.2,0.5-0.1,1-0.1,1.4c0,0.4,0.2,0.7,0.6,0.4s0.8-0.6,1.2-0.9
				c0.1,0.1,0.1,0.3,0,0.3c-0.9,0.4-0.9,1.3-1.3,2.1c-0.1,0.3,0,0.4,0.2,0.6c0.4,0.3,0.8,0.7,1.3,1.2c-0.6,0-0.8-0.4-1.1-0.5
				c-0.3-0.1-0.5-0.5-0.8-0.3c-0.4,0.2-0.1,0.5-0.2,0.8c0,0.3,0,0.7-0.1,1c-0.2-0.5-0.3-1-0.4-1.5c0-0.5-0.3-0.5-0.6-0.2
				s-0.5,0.9-1,1.2c0.1-0.6,0.4-1.2,0.8-1.7c0.1-0.3,0-0.3-0.2-0.4c0.2-0.2,0.3,0,0.5,0.1c0.4,0.2,0.9,0.1,1.2-0.2
				c0.3-0.4,0-0.6-0.2-0.8c-0.6-0.6-1.2,0.4-1.8,0c0,0,0,0,0,0.1c0.4,0.5-0.2,0.3-0.3,0.3C149.8,50.2,146.2,50.2,142.7,50.2z"/>
			<path id="_Path_24" class="st0" d="M152.6,50.5c-2.6,0-5.3,0-7.9,0c-8.6,0-17.2,0-25.8-0.1c-1,0-42.2-0.2-43.3-0.3h40.8
				c5.9,0,11.9,0,17.8,0c0.3,0,0.7-0.1,0.9,0.2c0.2,0,0.5,0,0.7,0l15.7,0.1C152,50.4,152.3,50.3,152.6,50.5z"/>
			<path id="_Path_25" class="st0" d="M152.6,50.5c-0.3-0.2-0.6-0.1-0.9-0.1c-5.2,0-11.5,0.1-16.6-0.1c-0.3,0.1,0.1-0.2-0.2-0.2
				c1.6,0,3.4,0,5,0h1.2c0.4,0,1.4-0.1,1.9-0.1c3.5,0,6.8,0.3,10.3,0.3c0.1,0,0.7,0.2,0.3-0.3c0,0,0,0,0-0.1c0.6,0.4,1.2-0.6,1.8,0
				c0.2,0.2,0.6,0.4,0.2,0.8c-0.3,0.3-0.7,0.4-1.1,0.3c-0.2-0.1-0.3-0.2-0.5-0.1l-1.6,0.3c0.3-0.2,0.7-0.2,0.7-0.5
				C153.1,50.3,152.8,50.5,152.6,50.5z"/>
		</g>
	</g>
</g>
</svg>
