<?xml version="1.0" encoding="utf-8"?>
<!-- Generator: Adobe Illustrator 22.1.0, SVG Export Plug-In . SVG Version: 6.00 Build 0)  -->
<svg version="1.1" id="Layer_1" xmlns="http://www.w3.org/2000/svg" xmlns:xlink="http://www.w3.org/1999/xlink" x="0px" y="0px"
	 viewBox="0 0 233 73" style="enable-background:new 0 0 233 73;" xml:space="preserve">
<style type="text/css">
	.st0{fill:#3D3D3D;}
	.st1{fill:#E5E5E5;}
	.st2{fill:#FFFFFF;}
	.st3{fill:#4C4C4C;}
	.st4{fill:#B8B8B8;}
	.st5{fill:#595959;}
	.st6{fill:#212121;}
	.st7{fill:#252525;}
	.st8{fill:#2B2B2B;}
	.st9{fill:#7E7E7E;}
	.st10{fill:#DADADA;}
	.st11{fill:#B6B6B6;}
	.st12{fill:#424242;}
	.st13{fill:#919191;}
	.st14{fill:#393939;}
	.st15{fill:#676767;}
	.st16{fill:#D2D2D2;}
	.st17{fill:#A1A1A1;}
	.st18{fill:#414141;}
	.st19{fill:#313131;}
	.st20{fill:#222222;}
	.st21{fill:#353535;}
	.st22{fill:#2E2E2E;}
	.st23{fill:#454545;}
	.st24{fill:#343434;}
	.st25{fill:#E0E0E0;}
	.st26{fill:#434343;}
	.st27{fill:#303030;}
	.st28{fill:#242424;}
	.st29{fill:#4D4D4D;}
	.st30{fill:#262626;}
	.st31{fill:#4B4B4B;}
	.st32{fill:#5B5B5B;}
	.st33{fill:#575757;}
	.st34{fill:#A6A6A6;}
	.st35{fill:#666666;}
	.st36{fill:#383838;}
	.st37{fill:#6F6F6F;}
	.st38{fill:#6D6D6D;}
	.st39{fill:#545454;}
	.st40{fill:#3E3E3E;}
	.st41{fill:#4E4E4E;}
	.st42{fill:#3B3B3B;}
	.st43{fill:#2D2D2D;}
	.st44{fill:#4A4A4A;}
	.st45{fill:#656565;}
	.st46{fill:#585858;}
	.st47{fill:#C8C8C8;}
	.st48{fill:#737373;}
	.st49{fill:#3F3F3F;}
	.st50{fill:#282828;}
	.st51{fill:#E4E4E4;}
	.st52{fill:#696969;}
	.st53{fill:#464646;}
	.st54{fill:#323232;}
	.st55{fill:#CECECE;}
	.st56{fill:#A5A5A5;}
	.st57{fill:#D5D5D5;}
	.st58{fill:#C7C7C7;}
	.st59{fill:#292929;}
	.st60{fill:#646464;}
	.st61{fill:#9D9D9D;}
	.st62{fill:#2A2A2A;}
	.st63{fill:#686868;}
	.st64{fill:#909090;}
	.st65{fill:#C4C4C4;}
	.st66{fill:#E9E9E9;}
	.st67{fill:#C1C1C1;}
	.st68{fill:#A0A0A0;}
	.st69{fill:#CACACA;}
	.st70{fill:#272727;}
	.st71{fill:#AEAEAE;}
	.st72{fill:#1D1D1D;}
	.st73{fill:#1E1E1E;}
	.st74{fill:#C0C0C0;}
	.st75{fill:#515151;}
	.st76{fill:#373737;}
	.st77{fill:#E2E2E2;}
	.st78{fill:#E8E8E8;}
	.st79{fill:#979797;}
	.st80{fill:#8B8B8B;}
	.st81{fill:#5A5A5A;}
	.st82{fill:#8D8D8D;}
	.st83{fill:#2F2F2F;}
	.st84{fill:#EEEEEE;}
	.st85{fill:#EBEBEB;}
	.st86{fill:#B3B3B3;}
	.st87{fill:#404040;}
	.st88{fill:#CFCFCF;}
	.st89{fill:#747474;}
	.st90{fill:#A9A9A9;}
	.st91{fill:#838383;}
	.st92{fill:#181818;}
	.st93{fill:#858585;}
	.st94{fill:#C5C5C5;}
	.st95{fill:#868686;}
	.st96{fill:#333333;}
	.st97{fill:#636363;}
</style>
<title>Asset 15</title>
<g id="Layer_2_1_">
	<g id="Layer_1-2">
		<g id="_Group_">
			<path id="_Path_" class="st0" d="M116.5,14.9c11.9,0,21.6,9.7,21.6,21.6s-9.7,21.6-21.6,21.6c-11.9,0-21.6-9.7-21.6-21.6
				C94.9,24.6,104.6,14.9,116.5,14.9z"/>
			<path id="_Path_2" class="st1" d="M95.8,36.5c0-11.4,9.2-20.7,20.6-20.8s20.7,9.2,20.8,20.6c0,11.4-9.2,20.7-20.6,20.8
				C105.2,57.2,95.9,48,95.8,36.5C95.8,36.6,95.8,36.6,95.8,36.5z"/>
			<path id="_Path_3" class="st0" d="M96.2,36.5c0-11.2,9.1-20.4,20.3-20.4s20.4,9.1,20.4,20.3c0,11.2-9.1,20.4-20.3,20.4
				c-0.1,0-0.2,0-0.3,0C105.1,56.7,96.2,47.7,96.2,36.5z"/>
			<path id="_Path_4" class="st2" d="M136.3,36.5c0,11-8.9,19.8-19.8,19.8s-19.8-8.9-19.8-19.8c0-11,8.9-19.8,19.8-19.8c0,0,0,0,0,0
				C127.5,16.7,136.3,25.6,136.3,36.5z"/>
			<path id="_Path_5" class="st2" d="M108.5,32.7c0.4,0,0.7-0.1,1.1,0.2c0.2,0.2,0.2,0,0.3-0.1c0.2-0.4,0.7-0.5,1.1-0.3
				c0.4,0.1,0.8,0.1,1.2,0.4c0.2,0.1,0.4,0.1,0.6-0.1c0.4-0.5,1.1-0.2,1.6-0.3c0.3,0,0.9-0.1,1.2,0.3c0.1,0.1,0.2,0,0.3-0.1
				c0.2-0.3,0.5-0.4,0.8-0.4c0.8-0.1,1.6,0,2.3,0.4c0.1,0.1,0.2,0.1,0.3,0c0,0,0,0,0,0c0.5-0.4,1.3-0.5,1.9-0.3
				c0.4,0.1,0.8,0.1,1.2,0.1c0.2,0,0.4,0.1,0.5,0.3c0.1,0.2,0.2,0.3,0.4,0.3c0.2,0,0.4,0.2,0.4,0.4c0,0.3,0.3,0.5,0.7,0.5
				c0.1,0,0.1,0,0.2,0c0.6-0.1,1.2,0,1.8,0.1c0.2,0,0.5,0.2,0.5,0.4c0,0.3,0.2,0.4,0.5,0.5c-0.3,0.1-0.5,0.1-0.8,0
				c-0.2,0-0.4,0-0.6,0c-0.7-0.1-1.4-0.2-2.1-0.1c-0.3,0-0.6-0.1-0.8-0.4c-0.3-0.4-0.6-0.7-1.1-0.9c0.4,0.2,0.8,0.5,1.1,0.9
				c0.2,0.3,0.5,0.4,0.8,0.4c0.6,0,1.3,0,1.9,0.1c0.8,0.2,1.7,0.2,2.6,0.3c0.3,0.1,0.7,0.2,1,0.2c0.2,0,0.3,0.1,0.3,0.3
				c0,0.2-0.2,0.2-0.3,0.3c-0.2,0.1-0.4,0-0.6,0c-0.2,0-0.6-0.2-0.9-0.1c-0.3-0.1-0.6-0.1-0.9-0.1c-0.6-0.1-1.2-0.1-1.8-0.1
				c-0.6,0-1,0-1.5,0c-0.1,0-0.3,0-0.4,0.1c-0.4,0.2-0.6,0.1-0.8-0.2c0-0.2-0.1-0.5-0.2-0.7c-0.4-0.7-1.4-1.1-2.2-0.7
				c-0.3,0.3-0.4,0.7-0.5,1.1c0,0.1-0.1,0.2,0,0.3c0.4,0.1,0.9,0.2,1.4,0.2c0.1,0.2,0.3,0.2,0.5,0.1c0.2,0,0.2,0.2,0.3,0.2
				c0.1,0.1,0.4,0,0.5,0.2l0.1,0.1c0.4,0.4,0.8,0.1,1.2,0.1c0,0,0.1,0,0.2,0c0.1,0.1,0.1,0.2,0.3,0.1c0.8-0.1,1.6-0.1,2.4,0
				c0.1,0,0.2,0,0.2,0c0.8-0.3,1.6-0.3,2.4,0c0.2,0.1,0.5,0.1,0.7-0.1c0.3-0.2,0.4,0,0.4,0.3c0,0.8,0.1,1.6,0.2,2.4
				c0,0.1,0,0.1,0,0.2c-0.4,0.4-1.1,0.3-1.6,0.5c-0.6,0.1-1.2,0.2-1.8,0.4c-0.7,0.1-1.5,0.2-2.2,0.4c-0.4,0-0.8-0.1-1.2,0.1
				c-0.1,0-0.2,0-0.2,0.1c-0.6,0.7-1.4,1.2-2.2,1.5c-0.2,0.1-0.5,0.1-0.7,0c-0.9-0.7-1.5-1.6-1.8-2.7c-0.2-0.9-0.3-1.9-0.2-2.8
				c0-0.2,0-0.4,0-0.6c0-0.3,0-0.6,0-0.8c0-0.1,0-0.2,0-0.2c0.2-0.1,0.4-0.4,0.5-0.6c0.2-0.5,0.5-0.9,0.8-1.2
				c-0.3,0.4-0.6,0.9-0.8,1.4c-0.1,0.1-0.1,0.2-0.2,0.2c-0.2,0-0.2-0.1-0.3-0.2c-0.1-0.3-0.3-0.6-0.4-0.9c-0.1-0.3-0.4-0.6-0.8-0.6
				c-0.4-0.1-0.8-0.1-1.2-0.1h-4.3c-0.5,0-1.1,0.1-1.5,0.5c-0.3,0.3-0.4,0.8-0.8,1.1c-0.4-0.1-0.4-0.5-0.6-0.7
				c-0.1-0.3-0.4-0.6-0.7-0.7c-0.3-0.1-0.6-0.1-0.9-0.1c-0.2,0-0.4,0-0.5-0.2c0-0.5,0.2-0.7,0.7-0.7
				C107.9,32.6,108.2,32.6,108.5,32.7z"/>
			<path id="_Path_6" class="st2" d="M120.5,42.3h0.5c0.9-0.1,1.7-0.5,2.1-1.3c0.1-0.2,0.4-0.3,0.6-0.3c0.4,0,0.8,0.2,1.2-0.1
				c1.4-0.1,2.7-0.4,4-0.8c1-0.4,2-0.1,3-0.4c0.7,0.1,0.9-0.2,1-0.9c0.1-0.8,0.1-1.6-0.1-2.4c-0.2-0.7-0.3-0.7-1-0.5
				c-0.3,0-0.6,0-0.9-0.1c-0.5-0.1-1,0.2-1.5,0c-0.3-0.1-0.6-0.2-0.9-0.2c-0.4-0.2-1,0-1.4-0.4c1.4-0.5,2.8-0.3,4.3-0.3
				c0.5-0.1,1.1-0.1,1.6,0.1c0.3,0.1,0.5,0.3,0.5,0.6c0.1,0.6,0.2,1.1,0.4,1.7c0.2,0.5,0.2,1-0.1,1.4c-0.2,0.2-0.2,0.4-0.1,0.7
				c0,0.1,0,0.2,0,0.4c0,1-0.3,1.3-1.3,1.1c-0.6-0.1-1.3,0-1.9,0c-1.4-0.2-2.7,0.5-4.1,0.6c-0.5,0-1.1-0.1-1.6-0.2
				c-0.4-0.1-0.6-0.1-0.7,0.4c-0.2,0.6-0.7,1-1.2,1.2c-0.3,0.1-0.6,0.2-0.9,0.4c-0.8,0.4-1.7,0.3-2.4-0.1c-0.2-0.1-0.3-0.2-0.5-0.3
				c-0.1-0.2-0.4-0.2-0.6-0.1c0,0-0.1,0-0.1,0.1c-0.6,0.5-1.3,0.7-2,0.6c-0.6,0-1.1-0.2-1.6,0.2c-0.1,0-0.1,0-0.2,0
				c-0.7-0.3-1.5,0-2.2-0.3c-0.1,0-0.2,0-0.3,0c-0.9,0.4-2,0-2.4-0.8c0,0-0.1,0-0.1,0c-0.4,1.1-0.4,1.1-1.6,1c-0.3,0-0.6,0-0.9,0
				c-1.2,0.1-2.4,0-3.5-0.2c-0.3-0.1-0.6,0.1-0.9,0.2c-1.3,0.5-1.4,0-2.2-0.9c-0.1-0.1-0.1-0.3-0.3-0.4c-0.6-0.1-0.6-0.6-0.6-1
				s0.1-0.9-0.5-1.2c-0.3-0.2-0.3-0.7-0.2-1c0.1-0.7,0.1-1.4,0-2.1c-0.1-0.5,0.1-0.9,0.5-1.2c0.3-0.2,0.2-0.5,0.3-0.8
				c0.1-0.3,0.1-0.5,0.4-0.5c0.1,0,0.3-0.1,0.3-0.2c0.7-1.2,1.2-1.5,2.6-1.2c0.5,0.1,1.1,0.1,1.6,0c0.4,0,0.7,0,1.1,0.1
				c0.5,0.1,1,0.1,1.4-0.1c0.4-0.2,0.9-0.1,1.3,0.2c-0.2,0-0.4,0-0.5,0c-0.4-0.2-0.8,0-1,0.4c0,0,0,0.1,0,0.1
				c-0.4,0.3-1,0.1-1.4,0.2h-3c-0.2,0-0.4,0-0.6,0.1c0,0-0.1,0.1-0.2,0.1c-0.4,0-0.5,0.3-0.7,0.5l-0.3,0.5c-0.4,0.7-0.6,1.4-0.7,2.2
				c-0.1,0.8,0,1.5,0.1,2.3c0.1,0.9,0.5,1.8,1,2.6c0.1,0.3,0.4,0.5,0.7,0.5c0.6,0.1,1.3,0.2,1.9,0.1c0.2,0,0.4,0,0.6,0
				c1,0,2.1,0,3.1,0c0.2,0,0.4,0,0.6-0.1c0.5-0.2,0.9-0.6,1.1-1.1c0.1-0.2,0.2-0.5,0.5-0.5c0.2,0.1,0.3,0.2,0.4,0.3
				c0.2,0.6,0.7,1,1.2,1.2c0.7,0.2,1.3,0.2,2,0.1c1.2,0,2.3-0.1,3.5-0.1c0.2,0,0.3,0,0.5-0.1c0.6-0.1,0.8-0.6,1.1-1
				c0.1-0.2,0.1-0.4,0.3-0.5s0.4,0.2,0.5,0.3C119.6,41.5,119.9,42.1,120.5,42.3z"/>
			<path id="_Path_7" class="st0" d="M110.9,22c0.2,0.6,0.3,1.1,0.5,1.7c0.1,0.3,0.1,0.5-0.2,0.6c-0.4,0.1-0.4-0.1-0.5-0.4
				c-0.4-1.4-0.7-2.7-1-4.1l2.3,2c0.5,0.4,0.5,0.4,0.7-0.2l1-2.9c0.2,0.1,0.2,0.3,0.2,0.4c0.3,1.2,0.7,2.4,1,3.6
				c0.1,0.2,0.2,0.4-0.2,0.5s-0.4-0.1-0.5-0.3c-0.1-0.6-0.3-1.2-0.6-1.7c-0.2,0.6-0.4,1.2-0.6,1.8c-0.2,0.6-0.3,0.4-0.6,0.1
				c-0.3-0.3-0.9-0.8-1.4-1.2L110.9,22z"/>
			<path id="_Path_8" class="st0" d="M106.9,26.4c-1.3,0-2.3-1-2.3-2.3s1-2.3,2.3-2.3c0,0,0,0,0,0c1.3,0,2.3,1,2.3,2.3
				C109.2,25.4,108.1,26.4,106.9,26.4C106.9,26.4,106.9,26.4,106.9,26.4z"/>
			<path id="_Path_9" class="st0" d="M105.1,28.2c-0.1,0.9-0.4,1.7-1,2.3c-0.1,0.2-0.2,0-0.4,0c-1.1-0.8-2.2-1.5-3.2-2.2
				c-0.2-0.2-0.3-0.3-0.1-0.5c0.2-0.2,0.4-0.6,0.7-0.9c0.6-0.7,1.5-1,2.3-0.6C104.3,26.5,104.9,27.2,105.1,28.2z"/>
			<path id="_Path_10" class="st0" d="M116,20.9c0-0.6,0.1-1.3,0.1-2c0-0.3,0.1-0.4,0.4-0.4c0.7,0,1.4,0.1,2,0.1
				c0.2,0,0.4,0,0.4,0.3c0,0.3-0.2,0.4-0.4,0.3c-0.4,0-0.8,0-1.3,0c-0.6,0-0.4,0.4-0.4,0.7c-0.1,0.3,0,0.5,0.4,0.5
				c0.4,0,0.6,0,0.9,0c0.3,0,0.4,0.1,0.4,0.4s-0.2,0.3-0.4,0.3c-0.2,0-0.6,0-1,0s-0.4,0.1-0.4,0.3c-0.1,1.1-0.1,1.1,1,1.1h0.8
				c0.2,0,0.3,0.1,0.3,0.3c0,0.2-0.1,0.3-0.3,0.3l-2.1-0.1c-0.3,0-0.4-0.1-0.3-0.4C115.9,22.2,115.9,21.5,116,20.9L116,20.9z"/>
			<path id="_Path_11" class="st0" d="M129.9,29.8c-0.6,0.6-0.8,0.6-1.3,0.1c-0.7-0.6-1-1.6-0.7-2.4c0.3-0.9,1-1.5,1.9-1.5
				c0.9-0.2,1.8,0.2,2.2,1c0.4,0.7,0.4,0.8-0.3,1.2c0-0.6-0.4-1.1-0.9-1.4c-0.3-0.2-0.7-0.2-1-0.1c-0.7,0.1-1.2,0.6-1.3,1.2
				C128.4,28.7,128.7,29.2,129.9,29.8z"/>
			<path id="_Path_12" class="st0" d="M121,23.9c-0.5,0-1-0.3-1.2-0.7c-0.1-0.1-0.3-0.3,0-0.4c0.3-0.1,0.4-0.3,0.6,0
				c0.1,0.2,0.3,0.3,0.4,0.4c0.2,0.1,0.5,0.1,0.7-0.1c0.2-0.2,0.1-0.4,0-0.6c-0.2-0.4-0.5-0.9-0.7-1.4c-0.3-0.5-0.2-1.1,0.2-1.5
				c0,0,0.1,0,0.1-0.1c0.6-0.3,1.3-0.1,1.6,0.4c0.1,0.1,0.3,0.3,0.1,0.4c-0.2,0.1-0.4,0.3-0.6,0.1c-0.1-0.1-0.2-0.2-0.3-0.2
				c-0.1-0.1-0.4-0.1-0.5,0c-0.1,0.1-0.2,0.3-0.1,0.5c0.3,0.5,0.6,1,0.8,1.5c0.3,0.6,0.1,1.3-0.5,1.6
				C121.4,23.8,121.2,23.9,121,23.9z"/>
			<path id="_Path_13" class="st0" d="M126.2,22.1c-0.2,0-0.2,0.2-0.3,0.3c-0.5,0.9-1.1,1.8-1.6,2.7c-0.1,0.2-0.2,0.4-0.5,0.2
				c-0.3-0.2-0.3-0.3-0.1-0.6c0.5-0.9,1-1.8,1.6-2.6c0.2-0.3,0.2-0.5-0.2-0.7c-0.1-0.1-0.3-0.2-0.4-0.2s-0.2-0.3-0.1-0.5
				c0.1-0.2,0.2-0.2,0.4-0.1c0.8,0.5,1.5,0.9,2.3,1.4c0.2,0.1,0.2,0.2,0.1,0.4c-0.1,0.2-0.2,0.3-0.5,0.1S126.4,22.2,126.2,22.1z"/>
			<path id="_Path_14" class="st0" d="M125.7,26.6c0.1-0.1,0.1-0.2,0.2-0.3l2.6-2.9c0.2-0.2,0.3-0.3,0.5-0.1c0.2,0.2,0.2,0.3,0,0.6
				c-0.8,0.9-1.7,1.9-2.6,2.9c-0.1,0.1-0.2,0.3-0.3,0.2C126,26.9,125.8,26.8,125.7,26.6z"/>
			<path id="_Path_15" class="st0" d="M125.2,47.7c0.5,0.3,0.9,0.7,1.2,1.2c0,0.3-0.9,1.2-1.2,1.1c-0.1,0-0.2-0.1-0.3-0.2
				c-0.2-0.2-0.3-0.5-0.5-0.7c-0.1-0.2-0.4-0.4-0.3-0.7C124.4,48,124.8,47.8,125.2,47.7z"/>
			<path id="_Path_16" class="st0" d="M112.5,50.5c-0.2-0.3-0.5-0.5-0.9-0.6c-0.2,0-0.4,0-0.5,0.2s0.1,0.3,0.3,0.4s0.4,0.2,0.7,0.3
				c0.2,0.1,0.3,0.3,0.3,0.5c0,0.2-0.2,0.4-0.5,0.5c-0.5,0.1-1-0.1-1.3-0.5c-0.1-0.1-0.2-0.3,0-0.4c0.2-0.1,0.2,0.1,0.2,0.2
				c0.2,0.3,0.5,0.4,0.9,0.4c0.2,0,0.3,0,0.4-0.2c0.1-0.2-0.1-0.3-0.2-0.4s-0.5-0.2-0.7-0.4c-0.2-0.1-0.4-0.3-0.3-0.6
				c0.1-0.3,0.3-0.4,0.5-0.4C111.9,49.5,112.4,49.9,112.5,50.5C112.5,50.4,112.5,50.4,112.5,50.5z"/>
			<path id="_Path_17" class="st0" d="M114.7,52.4c-0.1-0.6-0.1-1.2,0-1.8c0-0.1,0-0.1,0.1-0.1c0.5-0.1,1,0,1.4,0.2
				c0.3,0.3,0.2,0.7-0.2,1c-0.2,0.1-0.1,0.2,0,0.3c0.1,0.1,0.3,0.2,0.2,0.5c-0.2,0.1-0.3-0.1-0.3-0.2
				C115.3,51.5,115.1,51.5,114.7,52.4z"/>
			<path id="_Path_18" class="st0" d="M107.4,48.5c0.3,0.3,0.8,0.2,0.7,0.8c-0.1,0.4-0.5,0.5-0.8,0.4c-0.1,0-0.1,0-0.2-0.1
				c-0.4-0.2-0.7-0.6-0.6-1.1c0-0.5,0.4-0.9,0.9-0.9c0.5-0.1,0.9,0.1,1.1,0.5c0.1,0.1,0.2,0.3,0,0.4c-0.2,0.1-0.2-0.1-0.2-0.2
				c-0.2-0.4-0.7-0.5-1.1-0.3c0,0,0,0-0.1,0c-0.4,0.2-0.5,0.7-0.2,1.1c0.1,0.2,0.4,0.4,0.7,0.4c0.1,0,0.3-0.1,0.3-0.2
				c0.1-0.2,0-0.2-0.1-0.3C107.5,48.8,107.4,48.7,107.4,48.5z"/>
			<path id="_Path_19" class="st0" d="M117.9,50.3c0.6,0.1,1,0.6,1,1.2c0,0.5-0.5,0.9-1,1c-0.6,0-1.1-0.5-1.1-1.1c0,0,0,0,0,0
				c0-0.6,0.4-1,0.9-1.1C117.8,50.3,117.8,50.3,117.9,50.3z"/>
			<path id="_Path_20" class="st0" d="M123.9,50.1c-0.1-0.4-0.3-0.7-0.4-1.1c0-0.1-0.2-0.2,0-0.3s0.2,0.1,0.2,0.2
				c0.1,0.3,0.3,0.5,0.4,0.8c0.2,0.5,0,1-0.5,1.2c0,0,0,0,0,0c-0.4,0.2-1,0.1-1.2-0.3c-0.2-0.3-0.3-0.7-0.5-1c0-0.1-0.1-0.2,0-0.2
				c0.1-0.1,0.2,0,0.2,0.1c0.2,0.3,0.3,0.6,0.4,0.9c0.1,0.3,0.5,0.4,0.8,0.3C123.7,50.6,123.9,50.4,123.9,50.1z"/>
			<path id="_Path_21" class="st0" d="M108.8,50c-0.3-0.1-0.4,0.3-0.8,0.2l1.8-1.3c0.1-0.1,0.3,0,0.3,0.1c0,0.7,0,1.4,0,2.2
				c-0.4-0.2-0.1-0.6-0.4-0.8s0-0.4-0.2-0.6c-0.2-0.1-0.3,0.1-0.4,0.2C108.9,50.1,108.8,50.1,108.8,50z"/>
			<path id="_Path_22" class="st0" d="M121.5,49.9c0.5,0.5,0.5,1-0.1,1.3s-0.6,0.3-0.6,0.8c-0.2-0.1-0.2-0.3-0.3-0.5
				c-0.1-0.4-0.2-0.7-0.3-1.1c0-0.2-0.2-0.4,0.2-0.5c0.1,0,0.2,0,0.3,0c0.2,0.2,0,0.7,0.4,0.6s0.1-0.5,0.3-0.7
				C121.3,49.8,121.4,49.8,121.5,49.9C121.5,49.9,121.5,49.9,121.5,49.9z"/>
			<path id="_Path_23" class="st0" d="M113.2,52.3c-0.1-0.4-0.1-0.8,0.1-1.2c0.1-0.4,0.2-0.8-0.5-0.8c-0.1,0-0.1-0.1-0.1-0.3
				l1.8,0.3c0,0.1-0.1,0.1-0.1,0.2c-0.8,0-0.7,0-0.9,0.8C113.5,51.7,113.4,52,113.2,52.3z"/>
			<path id="_Path_24" class="st0" d="M128.1,47.1c0.1,0.4-0.1,0.4-0.4,0.4s-0.4-0.1-0.4-0.4s0.2-0.4,0.5-0.4
				C128,46.7,128.2,46.9,128.1,47.1z"/>
			<path id="_Path_25" class="st3" d="M127.3,35.1l1.4,0.3c-0.1,0.3-0.3,0.1-0.4,0.1l-2.4-0.4c-0.1,0-0.1-0.1-0.1-0.1
				c-0.1,0,0-0.1,0.1-0.1L127.3,35.1C127.2,35.1,127.3,35.1,127.3,35.1z"/>
			<path id="_Path_26" class="st0" d="M105.7,47.1c0,0.3,0,0.4-0.4,0.4s-0.4-0.1-0.4-0.4s0.1-0.4,0.4-0.4
				C105.6,46.7,105.8,46.8,105.7,47.1z"/>
			<path id="_Path_27" class="st0" d="M109.6,49.3c0.3,0.2,0.3,0.7,0,1.2l-0.9-0.4l0.2-0.1C109.3,49.8,109.7,49.7,109.6,49.3z"/>
			<path id="_Path_28" class="st0" d="M121.5,49.9l-0.2,0.1c-0.2,0.3-0.4,0.4-0.7,0.1l-0.2-0.1C120.6,49.9,121,49.6,121.5,49.9z"/>
			<path id="_Path_29" class="st1" d="M118.8,40.7l-0.2,0.5c-0.3,0.5-0.6,1-1.3,1c-0.1,0-0.1,0-0.1-0.1c-0.6-0.6-1-1.3-1.2-2.1
				c-0.2-0.6-0.3-1.2-0.4-1.8c-0.1-0.5-0.1-0.9,0-1.4c-0.1-0.6,0.2-1,0.3-1.6c0.2-0.8,0.6-1.5,1.2-2c0.2-0.1,0.5,0,0.7,0.2
				c0.4,0.5,0.7,1.2,0.8,1.8v0.2c-0.1,0.3-0.3,0.2-0.4,0c-0.1-0.1-0.2-0.3-0.3-0.4c-0.1-0.3-0.2-0.6-0.4-0.8c-0.1-0.1-0.2-0.1-0.3,0
				c-0.1,0.1-0.1,0.3-0.1,0.4c-0.1,0.2-0.1,0.4,0,0.5c0.1,0.2,0.1,0.4,0.1,0.7c-0.1,0.2-0.1,0.4,0.1,0.5c0,0,0,0,0.1,0
				c0.2,0.1,0.3,0.3,0.4,0.4c0.3,0.3,0.1,0.7,0.1,1.1c0,0.5-0.1,1.1-0.3,1.5c0,0.2-0.1,0.4-0.1,0.5c0,0.4-0.3,0.6-0.2,1
				c0,0.1,0.1,0.3,0.2,0.3c0.5,0.1,0.5-0.3,0.6-0.6c0.1-0.3,0.2-0.6,0.4-0.9c0.2,0,0.2,0.1,0.3,0.2C119,40.3,119,40.6,118.8,40.7z"
				/>
			<path id="_Path_30" class="st1" d="M130.2,39.5v-0.1c-0.1-0.8-0.1-1.7-0.2-2.5c-0.1-0.1-0.1-0.2-0.2,0c-0.1,0.1-0.2,0.2-0.4,0.2
				c-0.6-0.2-1.3-0.1-1.9-0.3c-0.1,0-0.1-0.1-0.2,0c-0.9,0.4-1.8,0.4-2.7,0.2c-0.3,0-0.7,0.2-1-0.2c0-0.7,0.5-0.5,0.8-0.6
				c0.9-0.3,1.8-0.3,2.7-0.1c0.5,0.1,1.1,0,1.6,0c0.1-0.1,0.4,0.4,0.4-0.1l0.3-0.1c0.3-0.2,0.6,0,0.8,0.1c0.1,0.1,0.3,0.3,0.4,0.4
				c0.1,0.1,0.2,0.2,0.4,0.2c0.3,0,0.6,0.2,0.6,0.6c0,0.1,0,0.1,0,0.2c0,0.3,0,0.6,0.1,0.9c0,0.2,0.1,0.4,0.1,0.5s0,0.1,0,0.2
				c0,0.1,0,0.3,0,0.4c0,0.1-0.1,0.2-0.1,0.2c-0.3,0.1-0.7,0.2-1,0.2C130.6,39.8,130.3,39.8,130.2,39.5z"/>
			<path id="_Path_31" class="st0" d="M120,34.1c0.1-0.3,0.4-0.5,0.7-0.5c0.1,0,0.1,0,0.2,0.1c0.6,0.2,1.3,0.4,1.6,1.1
				c0.1,0.3-0.1,0.4-0.3,0.4c-0.3-0.1-0.4,0-0.6,0c-0.1,0-0.2,0-0.3-0.1c-0.2-0.1-0.3-0.2-0.5-0.3c-0.2,0-0.4-0.1-0.5-0.3
				C120,34.5,119.9,34.3,120,34.1z"/>
			<path id="_Path_32" class="st4" d="M120,41.5c-0.2-0.1-0.4-0.3-0.3-0.5c0.2-0.2,0.4-0.3,0.7-0.3c0.4,0.1,0.6-0.1,0.8-0.3
				s0.5-0.3,0.8-0.5c0.1-0.1,0.3-0.1,0.4,0c0.1,0.9-0.7,1.7-1.6,1.8c0,0,0,0,0,0C120.4,41.7,120.2,41.4,120,41.5z"/>
			<path id="_Path_33" class="st5" d="M128.9,36.2c0,0.1-0.1,0.3-0.2,0.2c-0.6-0.3-1.2,0-1.8-0.2c0,0-0.1,0-0.1,0
				c-0.3,0.4-0.6-0.1-0.9,0c-0.4,0.1-0.8,0.1-1.1,0c0,0-0.1-0.1-0.1-0.1c0-0.4,0.5-0.2,0.6-0.4c0.6-0.1,1.3,0,1.9,0.1
				c0.2,0.2,0.5,0.1,0.8,0.1l0.8,0.1C128.8,36,128.9,36,128.9,36.2z"/>
			<path id="_Path_34" class="st6" d="M120,41.5c0.2-0.2,0.5,0,0.7,0c0.7-0.1,1.3-0.7,1.4-1.4c0-0.2,0.1-0.1,0.2-0.2
				c0.3,0.5,0.2,1.1-0.2,1.5c-0.1,0-0.1,0.1-0.2,0.1c-0.4,0.2-0.8,0.3-1.2,0.4C120.3,41.9,120.2,41.7,120,41.5z"/>
			<path id="_Path_35" class="st7" d="M118.8,40.2l-0.2-0.2c-0.1,0.1-0.2,0.4-0.5,0.2c0,0-0.1-0.1-0.1-0.1c0-0.3,0.3-0.6,0-0.9
				c-0.3-0.5-0.3-1.1,0-1.6c0.2-0.4,0-0.9,0.1-1.3l0,0c0.1-0.1,0.2-0.4,0.4-0.3c0.2,0.1,0.1,0.3,0.1,0.5c-0.1,1.1-0.1,2.3,0.2,3.4
				C118.8,40,118.9,40.1,118.8,40.2z"/>
			<path id="_Path_36" class="st8" d="M118.7,35.4c-0.2-0.4-0.4-0.9-0.6-1.3c-0.2-0.4-0.4-0.7-0.8-0.6c-0.2,0-0.2-0.1-0.1-0.2
				c0.1,0,0.3,0,0.5,0c0.7,0.4,0.8,1.2,1.2,1.8c1.3-2,1.3-2,2-1.8c-1,0.2-1.3,1-1.6,1.8C119,35.2,119,35.4,118.7,35.4z"/>
			<path id="_Path_37" class="st9" d="M117.5,33.3l-0.4,0c-0.1,0.1-0.1,0.2-0.2,0.2c-0.9,0.1-1.9,0-2.8,0c-0.8-0.1-1.6-0.1-2.4,0
				c-0.2,0-0.4,0.1-0.7,0.1c-0.3,0-0.4,0.4-0.7,0.3c-0.1,0-0.1-0.1-0.1-0.2c0.2-0.4,0.6-0.6,1.1-0.6c2,0,4,0,6.1,0
				C117.4,33.2,117.5,33.2,117.5,33.3z"/>
			<path id="_Path_38" class="st10" d="M122.7,39.3c0-0.1,0.1-0.3,0.2-0.3c0.6-0.2,1.1-0.2,1.7,0c0.2,0.1,0.3,0.1,0.4,0
				c0.3-0.2,0.2,0.1,0.3,0.2s0.1,0.5-0.2,0.6c-0.1,0-0.2,0-0.3,0c-0.3-0.3-0.7-0.3-1-0.2c0,0-0.1,0-0.2,0
				C123.3,39.6,123,39.4,122.7,39.3z"/>
			<path id="_Path_39" class="st11" d="M125.7,39.2c0.3,0,0.5-0.1,0.7-0.3c0.2,0.2,0.5,0,0.7,0.1c0.9,0.1,1.7-0.1,2.6,0
				c-0.2,0.5-0.7,0.4-1.1,0.4c-0.3,0-0.6,0.1-0.8,0.2c-0.4,0.1-0.9,0.1-1.3,0.1h-0.2c-0.1,0-0.3,0-0.4,0c-0.2,0-0.3-0.1-0.3-0.3
				C125.6,39.3,125.7,39.3,125.7,39.2z"/>
			<path id="_Path_40" class="st12" d="M125.7,35L125.7,35c-0.8,0.1-1.6,0.1-2.4,0.1c-0.1,0-0.2-0.1-0.3-0.1
				c-0.4-0.7-1.1-1.3-1.9-1.5c0.1-0.2,0.2-0.2,0.3-0.1c0.6,0.2,1.2,0.6,1.6,1.2c0.1,0.2,0.4,0.4,0.7,0.3
				C124.4,34.7,125.1,34.8,125.7,35z"/>
			<path id="_Path_41" class="st8" d="M125.1,35.6c0,0.4-0.4,0.3-0.5,0.4c-0.6,0.2-1.2,0.3-1.9,0.3c-0.6-0.4-0.7-0.5-0.4-0.9
				c0.1,0,0.2,0,0.3,0.1c0.2,0.2,0.3,0.3,0.7,0.2C123.9,35.4,124.5,35.6,125.1,35.6z"/>
			<path id="_Path_42" class="st13" d="M122.3,35.5c-0.1,0.4,0.2,0.5,0.5,0.7c0,0,0.1,0.1,0.1,0.2c-0.1,0.2-0.3,0.3-0.4,0.2
				c-0.1,0-0.1,0-0.1-0.1c0,0,0,0,0-0.1c0-0.2-0.2-0.2-0.3-0.1s-0.2,0.1-0.3,0l-0.2-0.3c-0.5-0.3-0.6-0.8-0.2-1.1l0.2,0.1
				C121.7,35.3,122.2,35.1,122.3,35.5z"/>
			<path id="_Path_43" class="st14" d="M129,40c-1.3,0.4-2.6,0.7-4,0.7c-0.1,0-0.1,0-0.2,0c0-0.1,0.1-0.2,0.2-0.2
				c1.2-0.2,2.5-0.4,3.7-0.7C128.8,39.9,129,39.7,129,40z"/>
			<path id="_Path_44" class="st15" d="M101.6,33.4c0.3-0.1,0.6-0.1,0.8-0.1h2.6c0.5,0.1,1,0,1.5,0c0.3,0,0.5,0.1,0.8,0
				c0.3-0.1,0.7,0,1,0.1c0,0,0,0.1,0,0.1c-0.1,0.1-0.3,0.1-0.4,0.2c-0.1,0-0.2,0-0.4,0c-1.3-0.1-2.6-0.1-3.9,0
				C103,33.8,102.3,33.7,101.6,33.4z"/>
			<path id="_Path_45" class="st16" d="M120.9,36c-0.6,0.1-1.1,0.1-1.7,0c0.2-0.6,0.8-1,1.4-0.9c0,0,0.1,0,0.2,0
				c0.2,0.1,0.3,0.3,0.4,0.5C121.3,35.8,121.2,36,120.9,36z"/>
			<path id="_Path_46" class="st17" d="M122.7,36.4v-0.1c0.1,0,0.3,0,0.4-0.1c0.5-0.4,1-0.2,1.4-0.1v0.1c-0.2,0.2-0.6,0.3-0.9,0.5
				h-0.1C123.2,36.8,122.9,36.9,122.7,36.4z"/>
			<path id="_Path_47" class="st18" d="M129,40l-0.4-0.1l1.5-0.4c0.6,0.4,1.1,0.1,1.7,0c0.1,0,0.2,0.1,0.1,0.2
				c-0.6,0.2-1.2,0.2-1.8,0.2C129.9,39.7,129.4,39.9,129,40z"/>
			<path id="_Path_48" class="st19" d="M127.7,39.3c0.7-0.1,1.3-0.2,2-0.4c0.3,0.2,0.1,0.4-0.1,0.4l-1.7,0.3
				C127.8,39.6,127.7,39.5,127.7,39.3z"/>
			<path id="_Path_49" class="st20" d="M118.8,40.2l0.1-0.3c0.3,1,0.9,1.8,1.7,2.4c-0.2,0.2-0.3,0-0.4-0.1c-0.4-0.3-0.7-0.7-0.9-1.1
				c-0.1-0.2-0.1-0.4-0.4-0.4C118.6,40.6,118.9,40.4,118.8,40.2z"/>
			<path id="_Path_50" class="st21" d="M123.7,40.9c-0.3,0-0.4,0.2-0.6,0.5c-0.4,0.6-1.1,1-1.8,1.1c-0.2,0-0.2,0-0.3-0.1
				c0.1-0.1,0.2-0.1,0.3-0.2c0.7-0.1,1.4-0.6,1.8-1.2c0.1-0.1,0.2-0.2,0.3-0.3C123.5,40.7,123.6,40.6,123.7,40.9z"/>
			<path id="_Path_51" class="st17" d="M120.6,35.2c0,0.2,0.1,0.4-0.1,0.5c-0.2,0.1-0.1-0.2-0.2-0.3c-0.2-0.1-0.5,0-0.6,0.2
				c-0.2,0.1-0.3,0.3-0.4,0.4c0-0.2,0-0.5,0.2-0.6c0.2-0.2,0.2-0.5,0.5-0.7c0.2,0,0.3,0.1,0.5,0.1C120.7,34.9,120.8,35,120.6,35.2z"
				/>
			<path id="_Path_52" class="st22" d="M127.7,39.3c0.1,0.1,0.3,0.2,0.2,0.4c-0.6,0.2-1.3,0.3-1.9,0.3c0-0.4,0.4-0.2,0.5-0.4
				C126.9,39.4,127.3,39.4,127.7,39.3z"/>
			<path id="_Path_53" class="st18" d="M122.3,35.5c-0.3-0.1-0.7,0.1-0.8-0.5c0.2,0,0.5-0.7,0.8,0c0,0.1,0.1-0.1,0.2-0.2
				c0.2,0.2,0.3,0.4,0.2,0.6L122.3,35.5z"/>
			<path id="_Path_54" class="st23" d="M130,36.8c0-0.1,0.1-0.2,0.2-0.2c0.1,0,0.1,0.1,0.1,0.2c-0.1,0.8-0.1,1.6,0.1,2.4
				c0,0.1,0,0.2-0.1,0.2C130,38.5,129.9,37.7,130,36.8z"/>
			<path id="_Path_55" class="st0" d="M123.7,39.6c0.4-0.5,0.7-0.1,1.1,0.1c0.1,0.2,0,0.3-0.1,0.4c-0.5,0.1-1,0-1.4-0.2
				C123.3,39.7,123.5,39.6,123.7,39.6z"/>
			<path id="_Path_56" class="st24" d="M118.7,36.4c0-0.1,0-0.3-0.1-0.3c-0.1,0-0.2,0.2-0.2,0.3c0,0-0.1,0-0.1,0
				c-0.3-0.4-0.5-0.8-0.4-1.3c0.1-0.1,0.3-0.1,0.4,0c0.1,0.2,0.2,0.4,0.3,0.5c0.1,0.2,0.2,0,0.2,0C118.9,35.9,118.8,36.2,118.7,36.4
				z"/>
			<path id="_Path_57" class="st17" d="M120.9,36c0.1-0.1,0.3-0.2,0-0.4c-0.1-0.1-0.2-0.2-0.2-0.3c-0.1-0.2,0-0.4,0.1-0.5
				c0.2,0,0.3,0.2,0.4,0.3c-0.2,0.4,0,0.8,0.2,1.1C121.2,36.2,121,36.2,120.9,36z"/>
			<path id="_Path_58" class="st25" d="M122.7,36.4c0.3,0,0.5,0.3,0.8,0.3c-0.6,0.4-1.1,0.3-1.4-0.1L122.7,36.4z"/>
			<path id="_Path_59" class="st26" d="M130.3,36.1c-0.1,0.1-0.1,0.2-0.2,0.1c-0.1-0.3-0.4-0.3-0.6-0.3l-0.3-0.1
				c0-0.3,0.2-0.1,0.3-0.1c0.5,0.2,1-0.3,1.4-0.1c0,0.4-0.3,0.2-0.4,0.4C130.5,35.9,130.4,36,130.3,36.1z"/>
			<path id="_Path_60" class="st27" d="M120,34.8c-0.1,0.2-0.2,0.5-0.5,0.5c0.1-0.4,0.3-0.8,0.5-1.2l0.3,0.3
				C120.4,34.8,120.2,34.8,120,34.8z"/>
			<path id="_Path_61" class="st5" d="M128.9,36.2l-0.1-0.2h0.5c0.1,0.1,0.3,0.2,0.5,0.2c0.1,0,0.3,0,0.2,0.2c0,0.1-0.2,0.2-0.3,0.2
				c0,0,0,0,0,0C129.4,36.4,129,36.5,128.9,36.2z"/>
			<path id="_Path_62" class="st0" d="M124.6,40.1l-0.6-0.2c0.2-0.3,0.5,0,0.7-0.2h0.4c0.1,0.1,0.2,0,0.2,0.2c0,0.1,0,0.2-0.1,0.2
				C125.1,40.2,124.9,40.1,124.6,40.1z"/>
			<path id="_Path_63" class="st28" d="M125.3,40v-0.2c0-0.1,0.1-0.2,0.3-0.2c0,0,0,0,0,0c0.3,0.3,0.5-0.2,0.8,0h0.2
				c0,0.3-0.3,0.3-0.5,0.4L125.3,40z"/>
			<path id="_Path_64" class="st29" d="M109.1,34.1l0.4,0.7c0.1,0,0.2,0,0.2,0.1c0.1,0.3,0.1,0.6-0.4,0.7h-0.1
				c-0.2-0.5-0.3-0.9-0.4-1.4C108.9,34.2,109,34.1,109.1,34.1z"/>
			<path id="_Path_65" class="st30" d="M123.7,39.6c0.2,0.6-0.3,0.2-0.5,0.3c-0.2,0-0.4-0.1-0.4-0.3c0-0.2,0.1-0.3,0.2-0.2
				S123.5,39.5,123.7,39.6z"/>
			<path id="_Path_66" class="st31" d="M123.7,40.9l-0.4-0.1c0.5-0.1,1-0.1,1.4,0c0.1-0.1,0.2,0,0.2,0
				C124.6,40.9,124.1,40.9,123.7,40.9z"/>
			<path id="_Path_67" class="st0" d="M123.7,39.6c-0.3,0.3-0.6-0.2-0.9,0l-0.1-0.3C123.1,39.4,123.5,39.2,123.7,39.6z"/>
			<path id="_Path_68" class="st32" d="M107.4,33.3c-0.3,0.1-0.5,0.1-0.8,0.1c-0.4-0.1-0.8,0.1-1.1-0.1c0.5-0.1,1-0.1,1.5-0.1
				L107.4,33.3z"/>
			<path id="_Path_69" class="st33" d="M109.6,35l-0.1-0.1c0.3-0.3,0.4-0.8,0.7-1l0.1,0.1C110.3,34.4,110,34.8,109.6,35z"/>
			<path id="_Path_70" class="st34" d="M125.6,39.6l-0.3,0.1c-0.1,0-0.2-0.1-0.2-0.2s0.1-0.3,0.2-0.4h0.4v0.1
				C125.6,39.4,125.7,39.6,125.6,39.6z"/>
			<path id="_Path_71" class="st35" d="M129.6,35.6l-0.3,0.1c-0.3,0-0.7-0.1-1-0.2l0.4-0.1C129,35.4,129.3,35.5,129.6,35.6z"/>
			<path id="_Path_72" class="st36" d="M127.9,35.9c-0.2,0.1-0.5,0.2-0.8,0.1c-0.2,0-0.3-0.1-0.1-0.3
				C127.3,35.8,127.6,35.8,127.9,35.9z"/>
			<path id="_Path_73" class="st25" d="M121.7,36.4c0.1-0.1,0.1-0.4,0.4-0.2c0.2,0.1,0.3,0.1,0.2,0.3
				C122,36.4,121.8,36.7,121.7,36.4z"/>
			<path id="_Path_74" class="st32" d="M109.1,34.1l-0.1,0.1c-0.4-0.1-0.6-0.4-0.6-0.8c0,0,0,0,0-0.1
				C108.9,33.4,108.9,33.8,109.1,34.1z"/>
			<path id="_Path_75" class="st37" d="M117.5,42.4c-0.6,0.1-1.1,0.1-1.7,0.1c-1.4,0.1-2.9,0.1-4.3,0.1c-0.1,0-0.3,0-0.4-0.1
				c0-0.1,0.1-0.2,0.2-0.2c0.4-0.1,0.8-0.2,1.2-0.1c1.5,0,3,0,4.6-0.1c0.1,0,0.2,0,0.3,0.1l0,0C117.4,42.2,117.5,42.2,117.5,42.4z"
				/>
			<path id="_Path_76" class="st38" d="M108.4,42.5c-1,0.1-2,0.2-3.1,0.1c-0.3,0-0.6,0-0.9,0s-0.6,0-0.8-0.1c0-0.4,0.3-0.3,0.5-0.3
				h2.8c0.4,0,0.5-0.2,0.2-0.5c-0.3-0.5-0.5-1.1-0.8-1.7c-0.1-0.1-0.1-0.3-0.1-0.5c0-0.1,0.1-0.3,0.2-0.4c0.3-0.1,0.4,0.1,0.4,0.3
				c0.1,0.2,0.2,0.5,0.2,0.7c0.1,0.7,0.5,1.4,1,1.9C108.2,42.2,108.4,42.3,108.4,42.5z"/>
			<path id="_Path_77" class="st14" d="M132,39.7l-0.1-0.2v-0.2c0.1-0.2,0.5,0.1,0.6-0.2c0,0,0-0.1,0-0.1c0.1-0.3,0-0.6,0.2-0.8
				c0.2-0.4,0.3-0.8,0.2-1.2c0-0.2-0.1-0.5,0-0.7c0,0,0.1,0,0.2,0c0.3,1,0.3,2.1,0,3.1C132.9,39.9,132.5,39.9,132,39.7z"/>
			<path id="_Path_78" class="st39" d="M101.6,42.5c-0.9-0.8-1.5-2-1.7-3.2c0.1-0.1,0-0.2,0.2-0.2c0.2,0,0.3,0.3,0.3,0.5
				c0.1,0.8,0.5,1.6,0.9,2.2c0.1,0.2,0.5,0.3,0.4,0.6C101.8,42.4,101.7,42.5,101.6,42.5C101.6,42.5,101.6,42.5,101.6,42.5z"/>
			<path id="_Path_79" class="st40" d="M99.9,36.8c0.1-0.8,0.3-1.6,0.7-2.2c0.1,0,0.2,0,0.2,0.1c0,0.6-0.4,1-0.5,1.6
				c0,0.4,0,0.7,0,1.1c0,0.3,0.2,0.8-0.2,1c-0.3-0.2-0.2-0.5-0.2-0.7C99.9,37.4,99.9,37.1,99.9,36.8z"/>
			<path id="_Path_80" class="st41" d="M108.4,42.5c-0.1-0.1-0.3,0-0.3-0.2c0.6-0.3,1-0.9,1.2-1.5c0-0.1,0.1-0.2,0.2-0.2
				c0.2,0,0.4,0,0.3,0.3c-0.3,0.2-0.3,0.4-0.5,0.7C109.2,41.7,108.9,42.3,108.4,42.5z"/>
			<path id="_Path_81" class="st35" d="M101.6,42.5l0.1-0.1c0.6-0.3,1.2-0.2,1.8,0.1c0.3,0,0.6,0,0.9,0.1
				C103.5,42.6,102.5,42.6,101.6,42.5z"/>
			<path id="_Path_82" class="st42" d="M133,36.2h-0.1c-0.1,0.1-0.2,0.1-0.4,0c-0.2-0.1-0.4,0-0.5,0c-0.1,0-0.2-0.2-0.2-0.3
				c0-0.1,0.1-0.2,0.2-0.2C132.5,35.2,132.8,35.4,133,36.2z"/>
			<path id="_Path_83" class="st43" d="M99.9,36.8c0.2,0.5,0,1.1,0.2,1.6c0.2,0.1,0.2,0.3,0.1,0.5c0,0-0.1,0.1-0.1,0.1l-0.1,0.2
				C99.7,38.4,99.7,37.6,99.9,36.8z"/>
			<path id="_Path_84" class="st26" d="M111.2,42.3l-0.1,0.1c-0.5-0.3-0.9-0.7-1.1-1.3c0-0.1,0.1-0.1,0.1-0.2c0.4,0,0.4,0.4,0.5,0.6
				S111.2,42,111.2,42.3z"/>
			<path id="_Path_85" class="st44" d="M117.5,42.4c-0.1,0-0.2-0.1-0.2-0.2c0.4,0.1,0.6-0.1,0.8-0.4c0.2-0.3,0.2-0.4,0.4-0.5
				C118.5,41.8,118.1,42.2,117.5,42.4z"/>
			<path id="_Path_86" class="st45" d="M100.7,34.7l-0.1-0.1c0.2-0.5,0.6-0.9,1-1.2c0.1,0,0.1,0.1,0.2,0.2
				C101.6,34.1,101.2,34.5,100.7,34.7z"/>
			<path id="_Path_87" class="st46" d="M132,35.7l-0.1,0.2c-0.5,0.2-1,0.1-1.5-0.1l0.6-0.2L132,35.7z"/>
			<path id="_Path_88" class="st7" d="M110.1,41l-0.1,0.1l-0.2-0.3c0-0.2-0.2-0.1-0.2-0.2c-0.1-0.1-0.1-0.2-0.1-0.3
				c0-0.1,0.1-0.1,0.2-0.2C110.2,40.3,110.3,40.5,110.1,41z"/>
			<path id="_Path_89" class="st18" d="M101.7,33.5l-0.1-0.1c0,0,0.1,0,0.1,0c0.7,0,1.3,0,2,0.1c-0.2,0.3-0.6,0.2-0.9,0.2
				C102.5,33.7,102,33.9,101.7,33.5z"/>
			<path id="_Path_90" class="st36" d="M105.5,33.3c0.4,0.1,0.8,0,1.1,0.1c-0.5,0-1,0-1.5-0.1L105.5,33.3z"/>
			<path id="_Path_91" class="st1" d="M106.8,22.5c0.9,0,1.6,0.7,1.6,1.6c0,0.9-0.7,1.6-1.6,1.6c-0.9,0-1.6-0.7-1.6-1.6
				C105.2,23.2,105.9,22.5,106.8,22.5C106.8,22.5,106.8,22.5,106.8,22.5z"/>
			<path id="_Path_92" class="st1" d="M102.7,26.8c0.6,0.1,1.2,0.4,1.5,1c0.2,0.5,0.2,1.1-0.2,1.5c-0.2,0.2-0.3,0.2-0.5,0.1
				c-0.7-0.5-1.3-0.9-2-1.4c-0.3-0.2-0.3-0.3-0.1-0.5C101.7,27,102.2,26.8,102.7,26.8z"/>
			<path id="_Path_93" class="st1" d="M125.3,49.7c-0.2-0.1-0.3-0.3-0.4-0.4c-0.1-0.1,0-0.2,0.1-0.3c0.2-0.1,0.4-0.3,0.6-0.4
				c0.1-0.1,0.3,0,0.4,0.1c0.1,0.1,0.1,0.3,0,0.4C125.8,49.4,125.5,49.6,125.3,49.7z"/>
			<path id="_Path_94" class="st1" d="M125.5,48.2c-0.1,0.3-0.4,0.6-0.8,0.7c-0.2,0.1-0.4-0.2-0.3-0.4c0.1-0.3,0.4-0.5,0.8-0.6
				C125.5,47.9,125.5,48,125.5,48.2z"/>
			<path id="_Path_95" class="st1" d="M115.4,50.6c0.4,0,0.8,0.1,0.8,0.5c0,0.4-0.3,0.5-0.6,0.4c-0.3,0-0.6,0.1-0.6-0.4
				S115.1,50.6,115.4,50.6z"/>
			<path id="_Path_96" class="st1" d="M117.9,50.6c0.4,0,0.8,0.4,0.8,0.8l0,0c0,0.4-0.3,0.8-0.7,0.8c0,0-0.1,0-0.1,0
				c-0.4,0-0.8-0.3-0.8-0.7c0,0,0,0,0-0.1c-0.1-0.4,0.2-0.8,0.6-0.8C117.8,50.6,117.8,50.6,117.9,50.6z"/>
			<path id="_Path_97" class="st1" d="M109.6,49.3c0.2,0.2,0.1,0.5,0.1,0.8c0,0.3-0.1,0.1-0.2,0.1l-0.5-0.2
				c-0.2-0.2,0.1-0.2,0.1-0.3C109.2,49.5,109.5,49.4,109.6,49.3z"/>
			<path id="_Path_98" class="st1" d="M120.5,50.1l0.7-0.1c0.2,0.2,0.4,0.4,0.3,0.7s-0.5,0.4-0.8,0.4
				C120.4,51.1,120.3,50.4,120.5,50.1z"/>
			<path id="_Path_99" class="st47" d="M118.4,37.8c-0.1,0.2-0.3,0.3-0.1,0.5c0.1,0.1,0.1,0.3,0,0.4c0,0,0,0-0.1,0.1
				c-0.2,0.2,0.1,0.1,0.2,0.2c-0.1,0.4,0,0.8-0.2,1.2l0,0c-0.3,0.4-0.4-0.1-0.7-0.1c0-0.3-0.2-0.3-0.4-0.4c0.2-0.2,0.4-0.4,0.5-0.7
				c0-0.1,0.1-0.2,0-0.3c-0.4-0.3-0.1-0.7,0-0.9c0.2-0.3,0-0.5,0-0.8c-0.1-0.2-0.1-0.3-0.1-0.5c0-0.1,0-0.1,0.1-0.1
				c0.5-0.2,0.7,0.1,0.7,0.7C118.2,37.3,118.2,37.5,118.4,37.8z"/>
			<path id="_Path_100" class="st48" d="M118.4,37.8c-0.5-0.1-0.4-0.5-0.4-0.8c0-0.4,0.1-0.5-0.3-0.5c-0.3-0.6-0.5-1.2-0.7-1.8
				c0-0.1-0.2-0.3,0-0.4c0.5-0.2,0.9,0.1,1,0.9c-0.1,0.5,0.3,0.8,0.4,1.3C118.5,36.8,118.5,37.3,118.4,37.8z"/>
			<path id="_Path_101" class="st49" d="M117.3,42.1h-0.2c-0.2,0-0.3-0.1-0.4-0.2c-0.7-1-1.2-2.2-1.2-3.4c0.1-0.1,0.2-0.3,0.4-0.3
				C115.9,39.7,116.4,41,117.3,42.1z"/>
			<path id="_Path_102" class="st47" d="M117,34.7c0.4,0.3,0.4,0.9,0.8,1.2c0.1,0-0.1,0.4-0.2,0.6l0,0c-0.5,0.1-0.4-0.3-0.5-0.6
				c-0.1-0.2,0-0.4-0.2-0.6S117,34.9,117,34.7z"/>
			<path id="_Path_103" class="st47" d="M117.1,41.2c-0.1-0.4,0-0.8,0.2-1.1c0.1,0,0.2-0.1,0.3-0.1c0.4,0,0.4,0.3,0.3,0.6
				S117.6,41.4,117.1,41.2z"/>
			<path id="_Path_104" class="st50" d="M118,35.1c-0.3-0.4-0.4-0.8-1-0.9c0.4-0.5,0.5-0.5,0.8,0c0.2,0.2,0.3,0.5,0.4,0.8
				C118.1,35.1,118,35.1,118,35.1z"/>
			<path id="_Path_105" class="st51" d="M117.1,35.9c0.4,0,0.3,0.4,0.5,0.6c0,0.2,0,0.3,0,0.5c-0.2-0.4-0.5,0.1-0.8-0.1
				c0.2-0.1,0.4-0.3,0.1-0.5C116.7,36.1,117,36.1,117.1,35.9z"/>
			<path id="_Path_106" class="st44" d="M117.7,40.5c0.1-0.2,0-0.4-0.2-0.5c-0.2-0.1-0.1-0.1,0-0.2c0.2-0.1,0.4,0.2,0.6,0.2
				c0.2,0.1,0.3,0,0.4-0.1c0,0.4-0.1,0.7-0.3,1c-0.2,0-0.3-0.2-0.4-0.2C117.7,40.7,117.8,40.6,117.7,40.5z"/>
			<path id="_Path_107" class="st52" d="M117.7,40.5l0.2,0.1c0.2,0.3,0.1,0.8-0.2,1c-0.1,0.1-0.3,0.1-0.4,0.1
				c-0.2-0.1-0.3-0.3-0.2-0.5c0,0,0,0,0-0.1C117.4,41.1,117.6,40.8,117.7,40.5z"/>
			<path id="_Path_108" class="st0" d="M117.3,41.7c0.4-0.2,0.6-0.6,0.7-1.1c0.3,0,0.3,0.2,0.3,0.4c-0.1,0.3-0.2,0.5-0.4,0.7
				c-0.1,0.2-0.3,0.2-0.5,0.1C117.4,41.8,117.3,41.7,117.3,41.7z"/>
			<path id="_Path_109" class="st41" d="M117,33.4l0.1-0.1l0.1,0.2c-0.5,0.5-0.8,1.2-1,1.8c-0.1,0-0.2-0.1-0.3-0.2
				c0.1-0.6,0.4-1.2,0.8-1.5C116.8,33.5,116.9,33.5,117,33.4z"/>
			<path id="_Path_110" class="st53" d="M115.9,38.3l-0.1,0.4c-0.1,0-0.2-0.1-0.3-0.2c-0.2-0.7-0.2-1.4,0.1-2c0,0,0.1-0.1,0.1-0.1
				c0.3,0.1,0,0.4,0.2,0.5C115.8,37.4,115.8,37.8,115.9,38.3z"/>
			<path id="_Path_111" class="st54" d="M115.8,36.9c-0.1-0.2-0.1-0.4-0.1-0.6c-0.3-0.3-0.2-0.8,0.1-1.1c0.1-0.1,0.2-0.1,0.2-0.1
				l0.1,0.2C116,35.8,115.8,36.4,115.8,36.9z"/>
			<path id="_Path_112" class="st55" d="M117.5,39.9V40c-0.1,0.1-0.2,0.1-0.2,0c0-0.2,0-0.4-0.2-0.5
				C117.3,39.6,117.6,39.5,117.5,39.9z"/>
			<path id="_Path_113" class="st56" d="M131.7,38.3c-0.1-0.2-0.1-0.4-0.1-0.7c0.1-0.5,0-0.8-0.5-0.9c0-0.1,0-0.2,0.1-0.3
				c0.2-0.1,0.3-0.3,0.5-0.4c0.2-0.1,0.2,0.2,0.3,0.3c0.1,0.1,0.1,0.3,0.1,0.4c0.1,0.7,0.1,1.3,0.1,2c-0.1,0.2-0.2,0.3-0.5,0.2
				c0,0,0-0.1,0-0.1c0-0.5-0.1-0.9,0-1.4C131.7,37.7,131.9,38,131.7,38.3z"/>
			<path id="_Path_114" class="st57" d="M131.9,36.4l-0.3-0.3c-0.1,0.2-0.3,0.2-0.5,0.1c-0.4-0.2-0.5,0-0.6,0.3c0,0-0.1,0.1-0.1,0.1
				c-0.1-0.1-0.1-0.4-0.2-0.5l0.1-0.3c0.5,0,1,0,1.4,0.1l0.2,0.2C132.2,36.3,132.1,36.4,131.9,36.4z"/>
			<path id="_Path_115" class="st58" d="M131.8,38.9l0.3-0.2c0.3,0,0.3,0.5,0.7,0.5c-0.1,0.5-0.3,0.5-0.6,0.3
				c-0.1-0.1-0.1-0.2-0.3-0.2L131.8,38.9z"/>
			<path id="_Path_116" class="st59" d="M131.7,38.3c0-0.5,0-0.9,0.1-1.4c0.1,0.6,0.1,1.3,0,1.9L131.7,38.3z"/>
			<path id="_Path_117" class="st60" d="M130.5,36.6v-0.1c0.1-0.2,0.2-0.4,0.5-0.3c0.2,0,0.3,0.2,0.3,0.4c0,0,0,0.1,0,0.1l-0.2,0.1
				L130.5,36.6z"/>
			<path id="_Path_118" class="st52" d="M120,34.8c0.1-0.2,0.3-0.1,0.3-0.3c0.1,0.2,0.3,0.3,0.5,0.2c0,0.2,0,0.4-0.1,0.5h-0.1
				c0-0.2,0-0.4-0.3-0.2C120.1,35.1,120.1,34.9,120,34.8z"/>
			<path id="_Path_119" class="st44" d="M118.1,40.1c0.1-0.4-0.3-0.9,0.2-1.2C118.5,39.3,118.4,39.8,118.1,40.1z"/>
			<path id="_Path_120" class="st1" d="M116,35.1c-0.3,0.4-0.4,0.8-0.3,1.2c-0.2,0.8-0.2,1.6,0,2.3c0.1,1.3,0.6,2.5,1.4,3.5
				c-0.7,0.1-1.4,0.1-2.1,0.1c-1.3,0.1-2.5-0.1-3.8,0.1c-0.5-0.3-0.9-0.8-1.1-1.3c-0.1-0.3-0.1-0.6-0.4-0.8
				c-0.2-0.2-0.3-0.5-0.3-0.8c0-0.3-0.1-0.7-0.2-1c-0.1-0.7-0.1-1.3-0.1-2c0-0.3,0-0.5,0.2-0.8h0.1c0.3-0.1,0.2-0.4,0.3-0.6l0.6-1.1
				c0.2-0.2,0.3-0.4,0.6-0.5c0.9-0.1,1.8-0.1,2.7-0.1c0.1,0,0.3,0,0.4,0.1c0,0.1,0,0.2-0.1,0.3c-0.5,0.1-1,0.1-1.5,0.1
				c-0.4,0-0.7,0.1-1.1,0.2c-0.1,0-0.2,0.1-0.3,0.2c-0.2,0-0.4,0.2-0.5,0.3c-0.1,0.1-0.1,0.3-0.1,0.4c0.1,0.2,0,0.5,0.3,0.5
				c0.4-0.1,0.9,0,1.2,0.1c0.5,0.1,0.9,0,1.4-0.1c0.5-0.2,1.1,0,1.6-0.1c0.4-0.2,0.5-0.7,0.7-1l0.2-0.3c0-0.2-0.1-0.4,0-0.5
				c0.4-0.1,0.7-0.2,1,0.1C116.4,34,116.2,34.6,116,35.1z"/>
			<path id="_Path_121" class="st1" d="M116.9,33.6c-0.3-0.1-0.7-0.2-1,0.1c-0.1,0.2-0.2,0.2-0.4,0.3c-0.4,0-0.8,0-1.3,0
				c-0.2,0-0.3-0.2-0.3-0.3c-0.4-0.1-0.9-0.2-1.4-0.1c-0.5,0-1.1,0-1.7,0c0.2-0.1,0.4-0.1,0.7-0.1c0.8-0.1,1.6-0.1,2.4,0h3
				L116.9,33.6z"/>
			<path id="_Path_122" class="st32" d="M114,33.4h-2.4C112.4,33.2,113.2,33.2,114,33.4z"/>
			<path id="_Path_123" class="st0" d="M125.6,39.6l0.1-0.3c0,0.2,0.1,0.2,0.3,0.1c0.1-0.1,0.3-0.1,0.4,0c0,0,0,0,0,0.1
				C126.1,39.7,125.9,39.8,125.6,39.6z"/>
			<path id="_Path_124" class="st1" d="M101.7,33.5c0.7,0,1.3,0,2,0h3.3c0.2,0,0.5-0.1,0.7,0.1c-0.2,0.5-0.5,1.1-0.8,1.5
				c-0.2,0.3-0.2,0.6-0.3,0.9c-0.2,1.2-0.2,2.3-0.2,3.5c0.2,1,0.6,1.9,1.3,2.6c-0.2,0.2-0.4,0.1-0.6,0.1c-1.2,0.1-2.4-0.1-3.6,0.1
				l-1.8-0.1c-0.8-0.7-1.4-1.7-1.6-2.8c0-0.2-0.1-0.3-0.1-0.5v-0.6c-0.1-1.3,0.1-2.6,0.7-3.7C101,34.3,101.3,33.9,101.7,33.5z"/>
			<path id="_Path_125" class="st1" d="M108.4,33.5l0.6,0.8c0.2,0.5,0.5,0.9,0.3,1.4l0,0c-0.4,0.1-0.4-0.3-0.5-0.5
				c0-0.2-0.1-0.5-0.3-0.7c0-0.1-0.2-0.2-0.3-0.2c-0.1,0-0.3,0-0.3,0.2c-0.1,0.1,0,0.2-0.1,0.3c0,0.1,0,0.2,0,0.3
				c0,0.2-0.1,0.4-0.3,0.4c-0.2,0-0.4-0.1-0.4-0.3c0-0.1-0.1-0.2-0.1-0.3c0.2-0.5,0.5-1,0.9-1.3L108.4,33.5z"/>
			<path id="_Path_126" class="st32" d="M107.9,33.5c-0.2,0.5-0.7,0.8-0.8,1.3s0,1.1-0.5,1.4c-0.2,0-0.1-0.2-0.2-0.2
				c0.2-0.9,0.6-1.7,1.2-2.3L107.9,33.5z"/>
			<path id="_Path_127" class="st1" d="M106.6,36.2c0.1-0.5,0.3-1,0.5-1.4c0.1,0.1,0.2,0.4,0.4,0.4c0.2-0.1,0-0.4,0.2-0.5
				c0.2-0.1,0.3,0,0.4,0.2c0,0,0,0.1,0,0.1c0,0.5,0.6,0.8,0.5,1.4c0,0.1,0,0.1,0.1,0.2c0.1,0.1,0,0.3,0.1,0.5c0,0,0,0.1,0,0.1
				c-0.1,0.3-0.2,0.7-0.2,1c0,0.1,0,0.2,0,0.3c-0.1,0.3-0.2,0.7-0.2,1.1c-0.2,0.2-0.6,0.3-0.5,0.8c0.2,0.5-0.2,0.7,0.1,1
				c0.2,0.3,0.4,0.2,0.6,0s0.2-0.5,0.4-0.8c0.2-0.2,0.1-0.4,0.3-0.6c0.4-0.1,0.3,0.1,0.3,0.3v0.3c-0.2,0.4-0.4,0.8-0.7,1.2
				c-0.2,0.2-0.4,0.5-0.8,0.3c-0.8-0.8-1.3-1.9-1.5-3C106.3,38.2,106.2,37.2,106.6,36.2z"/>
			<path id="_Path_128" class="st41" d="M106.6,36.2c-0.1,1-0.1,2,0,3l-0.1,0.3c-0.3-1.2-0.3-2.4,0-3.6L106.6,36.2z"/>
			<path id="_Path_129" class="st61" d="M133,38.3c-0.3,0.2-0.1,0.5-0.2,0.8c-0.6,0.3-0.5-0.2-0.6-0.5c-0.1-0.3,0.1-0.2,0.2-0.3
				c0.2-0.4,0.2-0.9,0-1.3c0-0.2,0-0.4,0-0.6c0-0.1,0.1-0.2,0.2-0.2c0.4,0.1,0.4,0.4,0.4,0.7c0,0.3,0,0.6,0.1,0.8
				C133.1,37.9,133,38.1,133,38.3z"/>
			<path id="_Path_130" class="st62" d="M132.2,38.4c0,0.3,0.1,0.6,0.5,0.6v0.1c-0.2,0.3-0.3,0.3-0.5,0c-0.1-0.1-0.1-0.3-0.2-0.5
				c-0.1-0.7-0.2-1.3-0.1-2c0.2,0,0.2,0.2,0.2,0.3c0,0.3,0,0.7,0.1,1C132.4,38.2,132.3,38.3,132.2,38.4z"/>
			<path id="_Path_131" class="st63" d="M133,37.6c-0.3-0.2-0.2-0.5-0.2-0.7c0.1-0.3,0-0.6-0.3-0.7c0-0.1,0-0.2,0.1-0.2l0.3,0.2
				c0,0.3,0.1,0.5,0.1,0.8C133.1,37.2,133.1,37.4,133,37.6z"/>
			<path id="_Path_132" class="st64" d="M133,37.6c0-0.2,0-0.5,0.1-0.7v1.3c0,0,0,0,0,0.1H133L133,37.6z"/>
			<path id="_Path_133" class="st23" d="M132.6,36c0,0.1-0.1,0.1-0.1,0.2l-0.1,0.3c-0.2,0.1,0,0.5-0.3,0.5l-0.1-0.3l-0.1-0.3
				c0.1-0.1,0.2-0.2,0.2-0.3C132.3,35.9,132.4,35.5,132.6,36z"/>
			<path id="_Path_134" class="st0" d="M109.5,40.3c-0.1-0.1,0.1-0.4-0.2-0.2c-0.5-0.1-0.4-0.5-0.4-0.8c0.1-0.3-0.1-0.6,0.1-0.9
				c0.1-0.1,0.2-0.1,0.3,0c0.2,0.6,0.3,1.2,0.3,1.8L109.5,40.3z"/>
			<path id="_Path_135" class="st0" d="M131.3,36.6c-0.2-0.5-0.5-0.2-0.8-0.1c-0.1-0.4,0.1-0.6,0.5-0.5l0.7,0.1
				C131.7,36.4,131.6,36.6,131.3,36.6z"/>
			<path id="_Path_136" class="st65" d="M110.9,40.8l0.2-0.1c0.3-0.1,0.6,0,0.9-0.1c0.6-0.2,1.3-0.2,1.9,0.1
				c0.3,0.2,0.6-0.3,0.9-0.2c0.2,0.3-0.1,0.5-0.2,0.7c-0.1,0.2-0.6,0.3-0.9,0.4c-0.7-0.1-1.5,0.1-2.2-0.1c-0.2-0.1-0.3-0.1-0.5-0.2
				C110.7,41.4,110.5,41.2,110.9,40.8z"/>
			<path id="_Path_137" class="st43" d="M111.7,41.4c0.7,0.1,1.3,0,2,0.1c0.3,0.1,0.7,0,0.9-0.2c0,0,0.1,0,0.1,0
				c0.1,0.1,0.2,0.2,0.4,0.2c0.2,0,0.5,0,0.7,0c0.2,0,0.3,0.2,0.4,0.3c0,0.3-0.2,0.1-0.4,0.2c-1,0-2.1,0-3.1,0c-0.2,0-0.4-0.1-0.5,0
				c-0.5,0.1-1,0-1.4-0.3c-0.1-0.1-0.2-0.3,0.1-0.3C111.2,41.4,111.4,41.3,111.7,41.4z"/>
			<path id="_Path_138" class="st66" d="M115.1,35.6c-0.1,0.1-0.2,0.5-0.4,0.1c-0.1-0.1-0.1,0-0.2,0.1c-0.1,0.1-0.4,0.3-0.5,0
				c0-0.1-0.1-0.1-0.1,0c-0.2,0.4-0.3,0-0.5-0.1c0,0.6-0.4,0.3-0.7,0.3c-0.3,0-0.5,0-0.7-0.2c-0.4-0.5,0.2-0.6,0.4-0.9
				s0.3-0.1,0.5,0c0.3,0.3,0.4,0,0.5-0.2c0.1-0.1,0.2-0.1,0.3-0.1c0.2,0.1,0.5,0.2,0.7,0.1c0.2,0.1,0.2,0.3,0.4,0.2s0.3,0,0.4,0.1
				C115.2,35.2,115.2,35.5,115.1,35.6C115.1,35.6,115.1,35.6,115.1,35.6z"/>
			<path id="_Path_139" class="st67" d="M113.4,34.9c-0.1,0.2,0.1,0.5-0.3,0.5c-0.4,0.1-0.5-0.1-0.7-0.4c0.1,0.5-0.6,0.3-0.5,0.8
				c-0.2,0-0.4-0.4-0.6,0c-0.1-0.1-0.3-0.2-0.5-0.2c-0.3,0-0.2-0.2-0.2-0.4c0.2-0.7,0.3-0.7,1-0.5c0.2,0.1,0.5,0.2,0.8,0
				s0.3-0.3,0.6-0.3C112.9,34.5,113.3,34.6,113.4,34.9z"/>
			<path id="_Path_140" class="st68" d="M112.3,34.9c-0.2,0.3-0.7,0.1-0.9,0.4c-0.1,0.1-0.2,0-0.2-0.1c-0.2-0.6-0.5-0.4-0.7,0
				c-0.2,0.1-0.3-0.2-0.5-0.2c0.1-0.2,0.2-0.4,0.3-0.5c0.2,0,0.3-0.1,0.5-0.1c0.3-0.2,0.7-0.2,1.1,0
				C112.1,34.4,112.4,34.5,112.3,34.9z"/>
			<path id="_Path_141" class="st69" d="M114.7,41.4L114.7,41.4c-0.3,0-0.3-0.1-0.2-0.2l0.3-0.6c0.1-0.1,0.1-0.3,0.4-0.2
				c0.3,0.1,0.6,0.3,0.8,0.6c0,0.5-0.4,0.4-0.7,0.5C115.1,41.5,114.9,41.5,114.7,41.4z"/>
			<path id="_Path_142" class="st36" d="M115.3,41.5c0.3,0,0.6-0.1,0.7-0.4c0,0,0,0,0,0.1c0.1,0.3,0.5,0.5,0.4,0.8
				c-0.1,0.3-0.6,0.1-0.9,0.1c-1.1,0-2.2,0-3.2,0c0.3-0.1,0.6-0.2,0.9-0.1h3c-0.5-0.5-0.9,0-1.3-0.2C115,41.5,115.1,41.4,115.3,41.5
				z"/>
			<path id="_Path_143" class="st6" d="M113.9,33.6l0.3,0.1c0.3,0.1,0.8,0,0.7,0.6c-0.2,0.3-0.4,0.2-0.7,0.2
				c-0.2-0.1-0.3-0.2-0.5-0.1c-0.2,0.1-0.5,0-0.6-0.2c0-0.5,0.4-0.3,0.6-0.4L113.9,33.6z"/>
			<path id="_Path_144" class="st70" d="M111.9,34.5c-0.4-0.1-0.7-0.1-1.1,0.1c-0.3-0.2-0.1-0.4,0-0.6l0.2-0.1
				c0.2-0.1,0.4-0.1,0.6,0c0.2,0.1,0.3,0.2,0.4,0.4C112,34.3,111.9,34.4,111.9,34.5z"/>
			<path id="_Path_145" class="st34" d="M115.1,35.6l-0.1-0.5c-0.2-0.1-0.2-0.3-0.1-0.5c0,0,0.1-0.1,0.1-0.1c0.3,0,0.6-0.1,0.8,0
				C115.6,34.9,115.6,35.4,115.1,35.6z"/>
			<path id="_Path_146" class="st14" d="M111.6,33.9c-0.2-0.1-0.4-0.1-0.6-0.1c0.7-0.1,1.4-0.2,2-0.1c0.2,0,0.5,0,0.7,0
				c-0.2,0.1-0.5,0.1-0.5,0.4c-0.2,0.1-0.4,0.1-0.6,0.1c-0.2-0.2-0.4-0.3-0.7-0.2C111.9,34,111.7,34.1,111.6,33.9z"/>
			<path id="_Path_147" class="st27" d="M109.3,38.4h-0.2c-0.1,0-0.2,0-0.2-0.1c-0.2-0.7-0.2-1.3,0-2c0.1-0.1,0.2-0.1,0.3,0
				C109.1,37,109.2,37.7,109.3,38.4z"/>
			<path id="_Path_148" class="st71" d="M111.7,41.4c-0.2,0.1-0.5,0.2-0.7,0.1c-0.2-0.1-0.2,0.1-0.2,0.2c-0.2-0.2-0.3-0.4-0.3-0.6
				c0-0.2,0-0.3,0.3-0.2c0,0.3,0,0.5,0.4,0.4C111.4,41.2,111.5,41.3,111.7,41.4z"/>
			<path id="_Path_149" class="st72" d="M109.2,36.4l-0.2-0.1l-0.1,0c-0.1-0.2-0.2-0.5-0.4-0.7c0-0.1,0-0.1,0-0.2
				c0.1-0.6,0.1-0.6,0.5-0.4c0.1,0.2,0.1,0.5,0.3,0.6L109.2,36.4z"/>
			<path id="_Path_150" class="st73" d="M115.5,33.7h0.4c0.4,0.1,0.2,0.3,0.1,0.6c-0.2,0-0.4,0.3-0.6,0.1S115.1,33.9,115.5,33.7z"/>
			<path id="_Path_151" class="st74" d="M110,35c0.3-0.1,0.4,0.1,0.5,0.2c0,0.2,0,0.4,0.1,0.5c-0.1,0.1-0.2,0.1-0.4,0
				c0,0-0.1-0.1-0.1-0.1C110.3,35.4,110,35.2,110,35z"/>
			<path id="_Path_152" class="st75" d="M115.5,34.2h0.5l-0.2,0.2c-0.2,0.3-0.4,0.5-0.8,0.1C115,34.3,115.2,34.2,115.5,34.2z"/>
			<path id="_Path_153" class="st42" d="M110.9,33.9v0.6c-0.2,0.2-0.4,0.4-0.4-0.1L110.9,33.9z"/>
			<path id="_Path_154" class="st76" d="M115.5,34.2c-0.2,0.1-0.3,0.2-0.4,0.3c-0.1,0.1-0.1,0.3-0.1,0.5c0,0.2-0.2,0.4-0.4,0.2
				c0-0.2-0.1-0.4-0.1-0.5c0-0.2,0.4-0.2,0.5-0.4c-0.1-0.3-0.3-0.6-0.6-0.7h1.3C115.3,33.9,115.4,34.1,115.5,34.2z"/>
			<path id="_Path_155" class="st77" d="M106.2,35.6c0,0.1-0.1,0.3-0.2,0.3c-0.4-0.1-0.2,0.5-0.4,0.4c-0.2-0.2-0.4-0.1-0.7-0.1
				c-0.2,0-0.6-0.1-0.8,0.1c-0.1,0.1-0.2,0-0.2-0.1c0-0.1-0.1-0.4-0.3-0.2c-0.2,0.1,0,0.3,0,0.4c0,0.1,0.1,0.1,0,0.2
				c-0.3,0.1-0.3-0.6-0.7-0.3c-0.2,0-0.3-0.1-0.3-0.3c0-0.2,0.1-0.4,0.1-0.5c0.2-0.2,0.4-0.3,0.6-0.5c0.1-0.2,0.2-0.1,0.4-0.1
				c0.2,0.1,0.5,0.3,0.8,0.4c0.3,0.1,0.7,0.2,1-0.2c0.1-0.2,0.3-0.1,0.4,0.1C105.9,35.2,106.1,35.4,106.2,35.6z"/>
			<path id="_Path_156" class="st0" d="M101.4,34.4c0.5-0.4,1.1-0.6,1.7-0.5c0.5,0,0.9-0.2,1.4-0.1h0.1c0.2,0.4-0.2,0.6-0.5,0.8
				c-0.2,0.2-0.4,0.2-0.7,0.1c-0.2-0.1-0.5,0-0.6,0.1c-0.1,0.1-0.3,0.2-0.4,0.1c-0.3,0-0.6-0.1-0.9-0.2
				C101.4,34.6,101.4,34.5,101.4,34.4z"/>
			<path id="_Path_157" class="st78" d="M102.2,36.3c-0.2,0.3-0.4,0.7-0.9,0.5c-0.1,0-0.2,0-0.2,0.1c0,0,0,0,0,0
				c-0.1,0.1,0,0.4-0.3,0.3c-0.2-0.1-0.4-0.3-0.4-0.5c0-0.2,0-0.5,0.2-0.7c0.4,0.1,0.8,0,1.1-0.3c0.2-0.3,0.5-0.4,0.8-0.2
				c0.2,0.1,0.4,0.2,0.3,0.4C102.6,36.2,102.5,36.4,102.2,36.3z"/>
			<path id="_Path_158" class="st79" d="M106.2,35.6c-0.3,0-0.6,0-0.6-0.5c0,0.5-0.5,0.3-0.6,0.6c-0.1-0.3-0.4-0.1-0.5-0.3
				c-0.3-0.2-0.4-0.4-0.4-0.8c0.4-0.5,0.9-0.3,1.4-0.1s0.9,0.3,0.8,0.9L106.2,35.6z"/>
			<path id="_Path_159" class="st71" d="M101.3,40.6c0.7,0.3,1.5,0.5,2.2,0.4c0.1,0,0.2,0,0.3,0.1c0,0.3-0.3,0.3-0.5,0.4
				c-0.2,0-0.4,0-0.6,0.1c-0.6,0.1-1.2-0.1-1.7-0.5l-0.2-0.3C100.9,40.5,101.1,40.5,101.3,40.6z"/>
			<path id="_Path_160" class="st32" d="M101.1,41.2c0.3,0.1,0.7,0.1,1,0.1c0.2,0,0.5,0,0.7,0.2c0.4,0,0.2,0.3,0.2,0.6
				C102.2,42.2,101.5,41.8,101.1,41.2z"/>
			<path id="_Path_161" class="st80" d="M104.1,41.2l1.5-0.1c0.2,0,0.4,0,0.5,0.1c0.2,0.3,0,0.4-0.3,0.5c-0.2,0-0.4,0-0.6,0.1
				c-0.2,0.1-0.5,0.1-0.8,0.1c-0.1,0-0.2,0-0.2-0.1C104,41.6,103.9,41.4,104.1,41.2z"/>
			<path id="_Path_162" class="st40" d="M106.2,35.4c-0.2-0.4-0.5-0.6-0.9-0.8c0,0-0.1-0.1-0.1-0.1c0.1-0.7,0.7-0.3,1-0.5
				c0.3-0.2,0.3,0.1,0.4,0.4v0.1C106.4,34.7,106.5,35.1,106.2,35.4z"/>
			<path id="_Path_163" class="st68" d="M101.7,35.9c0,0.1,0,0.3-0.2,0.3c-0.3,0-0.6,0.2-0.9,0.4c-0.2-0.1,0-0.3-0.1-0.5l0.2-0.5
				c0.3-0.1,0.5-0.5,0.8-0.1C101.6,35.6,101.7,35.7,101.7,35.9z"/>
			<path id="_Path_164" class="st19" d="M104.4,41.8l0.8-0.2c0.3,0,0.6-0.1,0.9-0.1c0.3-0.1,0.4,0.1,0.5,0.3c0,0.1,0,0.2-0.1,0.2
				c-0.7,0-1.3,0-2,0C104.4,42,104.4,41.9,104.4,41.8C104.4,41.8,104.4,41.8,104.4,41.8z"/>
			<path id="_Path_165" class="st81" d="M106.4,41.8c-0.3-0.3-0.6-0.1-1-0.1c-0.3,0.1-0.2,0-0.3-0.1c-0.1-0.1,0.3-0.2,0.5-0.2
				c0.2,0,0.3,0,0.4-0.3l0.1,0c0.3-0.1,0.4,0.2,0.7,0.2l0.1,0.1C106.9,41.7,106.8,41.9,106.4,41.8z"/>
			<path id="_Path_166" class="st42" d="M101.4,34.4l0.1,0.3c0.1,0.1,0.3,0.3,0.2,0.5c-0.4-0.1-0.6,0.4-1,0.2
				C100.8,35,101.1,34.6,101.4,34.4z"/>
			<path id="_Path_167" class="st81" d="M104.1,41.2c0.1,0.2,0.2,0.3,0.2,0.5c-0.2,0.4-0.5,0.2-0.8,0.1c-0.3,0-0.3-0.2-0.2-0.4
				l0.5-0.3L104.1,41.2z"/>
			<path id="_Path_168" class="st82" d="M100.7,35.4c0.2,0,0.3-0.1,0.4-0.2c0.2-0.2,0.3-0.1,0.5,0c0.2,0.1,0.2,0.2,0.2,0.3
				s-0.3,0.2-0.4,0s-0.2,0.1-0.3,0.2C100.8,35.9,100.7,35.6,100.7,35.4L100.7,35.4z"/>
			<path id="_Path_169" class="st40" d="M104.5,33.8c0.6-0.1,1.2-0.1,1.7-0.1c0.2,0,0.5-0.1,0.6,0.1c0.1,0.2,0,0.5-0.2,0.6v-0.1
				c0-0.2-0.2-0.4-0.4-0.4c0,0-0.1,0-0.1,0c-0.5,0-0.9,0-1.4-0.1C104.7,34,104.6,33.9,104.5,33.8L104.5,33.8z"/>
			<path id="_Path_170" class="st83" d="M106.4,41.8c0.2-0.1,0.3-0.2,0.4-0.4l0.1,0.2c0.1,0.1,0.3,0.2,0.2,0.4
				c-0.1,0.2-0.3,0.1-0.5,0.1l-0.2-0.1L106.4,41.8z"/>
			<path id="_Path_171" class="st84" d="M101.3,40.6l-0.5,0.3c-0.1-0.2-0.2-0.4,0-0.6c0.1-0.1,0.2-0.1,0.3-0.1
				C101.3,40.3,101.4,40.5,101.3,40.6z"/>
			<path id="_Path_172" class="st78" d="M106,41c0.1-0.2-0.2-0.5,0.1-0.5c0.4,0,0.4,0.4,0.5,0.7c-0.2,0.2-0.4-0.1-0.6,0
				C106,41.1,106,41.1,106,41C106,41,106,41,106,41z"/>
			<path id="_Path_173" class="st19" d="M103.3,41.4l0.2,0.3c0,0.4-0.4,0.1-0.4,0.3H103c-0.2-0.1-0.1-0.4-0.2-0.5
				C102.9,41.1,103.2,41.4,103.3,41.4z"/>
			<path id="_Path_174" class="st0" d="M103.1,42c0-0.3,0.3-0.2,0.4-0.3c0.2,0,0.5,0.2,0.8,0l0.1,0.1V42L103.1,42z"/>
			<path id="_Path_175" class="st85" d="M102.2,36.3c0.1-0.1,0.2-0.3,0.4-0.3c0,0,0.1,0,0.1,0l0.2,0.3
				C102.7,36.4,102.4,36.6,102.2,36.3z"/>
			<path id="_Path_176" class="st78" d="M106,41.2c-0.1,0-0.3,0.1-0.4-0.1s-0.1-0.3,0-0.6L106,41l0,0C106.1,41,106.1,41.1,106,41.2
				L106,41.2z"/>
			<path id="_Path_177" class="st82" d="M106,41.2C106,41.1,106,41.1,106,41.2c0.2-0.1,0.4-0.2,0.6,0l0.1,0.1
				C106.4,41.7,106.3,41.2,106,41.2z"/>
			<path id="_Path_178" class="st65" d="M108.8,35.4C108.8,35.5,108.8,35.5,108.8,35.4c0.1,0.4,0.2,0.7,0,0.9
				c-0.1,0.1-0.2,0.1-0.3,0c-0.2-0.1-0.2-0.3,0-0.6c-0.4,0.3-0.4,0.2-0.5-0.1c-0.1-0.3,0.1-0.7-0.2-0.9c-0.5-0.2-0.2-0.3,0-0.4
				C108.4,34.4,108.6,34.9,108.8,35.4z"/>
			<path id="_Path_179" class="st27" d="M108.8,35.4c-0.3-0.4-0.7-0.8-1.1-1.2c0.2-0.1,0.3-0.8,0.8-0.2c0,0.2,0,0.3,0.2,0.3
				c0.2,0.2,0.3,0.4,0.3,0.7C108.5,34.9,108.9,35.3,108.8,35.4z"/>
			<path id="_Path_180" class="st0" d="M108.7,34.3c-0.1,0.1-0.2,0.2-0.4,0.1c-0.1,0-0.1-0.1-0.1-0.1c-0.1-0.2,0.2-0.2,0.3-0.3
				L108.7,34.3z"/>
			<path id="_Path_181" class="st86" d="M108.4,36.4l0.3-0.1c0.1,0,0.2-0.1,0.3,0l0,0c-0.1,0.7,0,1.4,0.1,2.1v0.9
				c-0.1,0.3,0,0.6-0.4,0.8c-0.2,0-0.3,0-0.5-0.1c-0.2-0.3,0.2-0.4,0.2-0.6c0.1-0.3,0.1-0.7,0-1l-0.1-0.2c0.3-0.3,0.1-0.7,0.2-1.1
				l0,0c0.1-0.2,0.2-0.4-0.1-0.5L108.4,36.4z"/>
			<path id="_Path_182" class="st87" d="M109.1,40.7c-0.1,0.3-0.2,0.6-0.4,0.9c-0.3,0.5-0.4,0.5-0.8,0.1l-0.2-0.2
				c-0.1-0.2,0.1-0.4,0.2-0.6c0.1-0.2,0.4-0.2,0.5-0.4s0.2-0.5,0.5-0.5C109.2,40,109.1,40.4,109.1,40.7z"/>
			<path id="_Path_183" class="st66" d="M108.6,40.6l-0.9,0.8c-0.1-0.2-0.2-0.4-0.3-0.5c-0.1-0.2-0.3-0.3,0.1-0.3
				c0.2,0,0.1-0.2,0.1-0.4c0.1-0.1,0.1-0.6,0.6-0.4l0.4,0.1c0,0,0,0.1,0,0.1C108.6,40.3,108.5,40.5,108.6,40.6z"/>
			<path id="_Path_184" class="st1" d="M108.5,38.4c0.3,0.2,0.4,0.7,0.2,1.1c-0.2,0.1-0.3,0.1-0.4,0c0-0.4-0.2-0.2-0.6-0.2
				c0.4-0.3,0.8-0.5,0.3-0.9C108.2,38.2,108.3,38.5,108.5,38.4z"/>
			<path id="_Path_185" class="st85" d="M108.2,39.5h0.4c-0.1,0.2-0.3,0.3-0.4,0.4s-0.3,0.4-0.6,0.4
				C107.6,39.9,107.7,39.5,108.2,39.5z"/>
			<path id="_Path_186" class="st88" d="M108.6,37.1c0,0.1,0,0.2,0,0.2c0.4,0.1,0.3,0.4,0.1,0.6c0,0.1,0,0.2,0,0.3
				c-0.1,0-0.2-0.2-0.4-0.1C108.3,37.8,108.4,37.4,108.6,37.1z"/>
			<path id="_Path_187" class="st18" d="M108.7,40.1V40c0.1-0.2,0.3-0.5,0.4-0.7c0,0.3,0,0.6,0.2,0.8c0,0.2-0.1,0.4-0.2,0.6
				c-0.1-0.2-0.1-0.4-0.3-0.6C108.8,40.1,108.7,40.1,108.7,40.1C108.7,40.1,108.7,40.1,108.7,40.1z"/>
			<path id="_Path_188" class="st88" d="M108.5,36.6c0.1,0,0.3,0,0.3,0.2s-0.1,0.3-0.2,0.4C108.3,37,108.5,36.8,108.5,36.6z"/>
			<path id="_Path_189" class="st10" d="M132.1,37c0.1-0.2,0-0.5,0.3-0.5v0.4c0.2,0.5,0.2,1.1,0,1.7l-0.2-0.2
				C132.1,37.9,132.1,37.5,132.1,37z"/>
			<path id="_Path_190" class="st83" d="M132.4,38.6c0.1-0.6-0.1-1.1,0-1.7c0.4,0.6,0.2,1.2,0.1,1.8L132.4,38.6z"/>
			<path id="_Path_191" class="st89" d="M114.5,41.2l0.1,0.2c-0.3,0.4-0.6,0.2-1,0.1C114,41.4,114.3,41.3,114.5,41.2z"/>
			<path id="_Path_192" class="st48" d="M115.3,41.5l-0.3,0.2c-0.2,0-0.2-0.2-0.2-0.3l0.1-0.3c0-0.1,0-0.1,0.1-0.1s0.1,0.1,0.1,0.1
				C114.9,41.4,115.3,41.3,115.3,41.5z"/>
			<path id="_Path_193" class="st90" d="M114.2,34.9c-0.1,0-0.1,0.1-0.1,0.1c-0.1,0.1,0,0.5-0.3,0.4c-0.3-0.1-0.2-0.4-0.1-0.6
				c0,0,0-0.1,0-0.1c0,0-0.1-0.1-0.1-0.1c0.1-0.1,0.1-0.2,0.3-0.3c0.3-0.1,0.5,0.1,0.5,0.4C114.3,34.8,114.3,34.9,114.2,34.9z"/>
			<path id="_Path_194" class="st91" d="M113.6,34.7L113.6,34.7l-0.2,0.2c-0.3,0-0.6-0.1-0.7-0.4c0-0.1,0-0.1,0-0.2
				C113.3,34.1,113.5,34.2,113.6,34.7z"/>
			<path id="_Path_195" class="st90" d="M114.5,34.8c0.3,0.2,0.2,0.3,0,0.5c-0.2-0.1-0.3-0.2-0.3-0.4v0
				C114.3,34.7,114.4,34.7,114.5,34.8z"/>
			<path id="_Path_196" class="st32" d="M112.7,34.4v0.1c-0.2,0-0.2,0.4-0.4,0.4c-0.1-0.2-0.4-0.2-0.5-0.4v-0.2
				c0-0.4,0.2-0.4,0.5-0.3c0.1,0.1,0.2,0.2,0.3,0.3C112.7,34.3,112.7,34.3,112.7,34.4z"/>
			<path id="_Path_197" class="st45" d="M114.5,34.8l-0.3,0.1c-0.2-0.1-0.2-0.4-0.4-0.4c-0.2-0.1-0.2,0.1-0.2,0s0.2-0.2,0.2-0.3
				c0.4,0,0.7,0.1,1.1,0.2c0.1,0,0.2,0,0.1,0.1L114.5,34.8z"/>
			<path id="_Path_198" class="st33" d="M113.8,34.1c0,0.1-0.2,0.2,0,0.3c0,0.1-0.1,0.2-0.2,0.2c-0.2-0.3-0.5-0.4-0.8-0.3l0,0
				c0-0.1,0-0.1,0-0.2c0.2-0.1,0.4-0.1,0.5,0L113.8,34.1z"/>
			<path id="_Path_199" class="st92" d="M112.7,34.1v0.2c-0.2,0-0.3,0-0.5-0.2c-0.2-0.3-0.2,0-0.4,0.1c-0.2-0.1-0.3-0.2-0.4-0.4
				C112,33.9,112.4,33.5,112.7,34.1z"/>
			<path id="_Path_200" class="st93" d="M109,36.3c-0.1,0.1-0.2,0.1-0.3,0l0.1-0.8C109.1,35.7,109,36,109,36.3z"/>
			<path id="_Path_201" class="st13" d="M104.1,34.7c0.3,0.1,0.4,0.4,0.3,0.7c-0.1,0.2-0.2,0.2-0.4,0.1c-0.1-0.1-0.4-0.3-0.5-0.5
				c-0.2,0.1,0,0.2,0,0.3s0.1,0.4-0.1,0.4c-0.2,0.1-0.1-0.2-0.2-0.2s-0.2,0-0.3,0c-0.4,0.2-0.6,0-0.7-0.3c-0.1-0.3,0-0.4,0.3-0.4
				c0.4-0.3,0.7-0.5,1.2-0.2c0.2,0.1,0.2-0.3,0.4-0.1C104.1,34.5,104,34.6,104.1,34.7z"/>
			<path id="_Path_202" class="st94" d="M102.4,35.2c0,0.3,0.4,0.1,0.4,0.3c0.1,0.1,0.1,0.3-0.1,0.4c0,0,0,0,0,0h-0.1
				c-0.1-0.2-0.2-0.1-0.3-0.1C102.2,35.6,101.9,35.3,102.4,35.2z"/>
			<path id="_Path_203" class="st95" d="M102.4,35.2c-0.2,0.2-0.1,0.4-0.1,0.6c-0.2-0.1-0.4-0.2-0.6,0c-0.2-0.1-0.3-0.2-0.3-0.3
				c0.2,0,0.5,0,0.3-0.3c0-0.2-0.1-0.3-0.1-0.5c0.3,0.1,0.6-0.2,0.8,0.1C102.3,34.9,102.3,35.1,102.4,35.2z"/>
			<path id="_Path_204" class="st96" d="M104.1,34.7l-0.1-0.2c0.3-0.1,0.4-0.3,0.5-0.6h0.2c0,0.1,0.1,0.1,0.2,0.1
				c0.5,0,0.5,0.2,0.4,0.6v0.1l-0.2,0.4C105.1,34.5,104.7,34.4,104.1,34.7z"/>
			<path id="_Path_205" class="st0" d="M105.4,34.5c0-0.2-0.1-0.4-0.4-0.3c-0.3,0.1-0.3-0.2-0.2-0.4h1.2c0.4,0,0.6,0.2,0.6,0.6
				c0,0-0.1-0.1-0.1-0.1C106.1,34.3,105.7,34.4,105.4,34.5z"/>
			<path id="_Path_206" class="st97" d="M108.7,40.1h0.2c-0.1,0.2,0,0.4-0.2,0.5c-0.2,0.2-0.4,0-0.4-0.2
				C108.2,40.3,108.6,40.3,108.7,40.1z"/>
		</g>
	</g>
</g>
</svg>
