<?xml version="1.0" encoding="utf-8"?>
<!-- Generator: Adobe Illustrator 22.1.0, SVG Export Plug-In . SVG Version: 6.00 Build 0)  -->
<svg version="1.1" id="Layer_1" xmlns="http://www.w3.org/2000/svg" xmlns:xlink="http://www.w3.org/1999/xlink" x="0px" y="0px"
	 viewBox="0 0 233 73" style="enable-background:new 0 0 233 73;" xml:space="preserve">
<style type="text/css">
	.st0{fill:#3D3D3D;}
	.st1{fill:#FFFFFF;}
</style>
<title>Asset 18</title>
<g id="Layer_2_1_">
	<g id="Layer_1-2">
		<g id="_Group_">
			<path id="_Compound_Path_" class="st0" d="M98.3,27l0.6-0.5l-7.4-8.2l0.5-0.3l0.4,0.4c2.8,2.7,5.7,5.5,8.5,8.2
				c0.3,0.2,0.4,0.6,0.2,0.9c-0.4,0.8-0.8,1.6-1.3,2.4l1.3,1.2c0.6,0.6,1.2,1.2,1.9,1.8c0.1,0.1,0.3,0.2,0.5,0.2
				c0.8,0,1.7-0.1,2.5-0.2c1.8-0.3,3.6,0.8,4.2,2.5c0.1,0.3,0.2,0.5,0.3,0.8c0,0,0,0,0.1,0.1c0.4-1.1,0.2-2.3,1.1-3.3
				c-1-0.2-2-0.3-3-0.4c-0.8,0-1.5-0.5-1.7-1.3c-0.2-0.6-0.7-1.1-1.4-1c-1-0.1-1.9-0.3-2.8-0.4c-0.6,0-1-0.5-1-1.1c0,0,0-0.1,0-0.1
				c0-1.2,0-2.4,0-3.7c0-0.4,0.2-0.8,0.5-1.1c0.6-0.4,1.2-0.9,1.7-1.4c0.3-0.7,0.5-1.4,0.7-2.1c0.9-2.6,2.8-4.7,5.2-5.9
				c0.4-0.2,0.7-0.6,0.8-1c0.5-0.9,1.4-1.5,2.4-1.6c2.5-0.5,5.1-0.4,7.5,0.2c0.4,0.1,0.8,0.4,1,0.8c0.1,0.1,0.2,0.2,0.2,0.4
				c0.4,0.7,0.9,1.2,1.6,1.6c2.4,1.3,4.2,3.6,4.8,6.3c0.2,0.9,0.7,1.7,1.5,2.2c0.8,0.4,1.2,1.3,1.1,2.2c-0.1,1,0,1.9,0,2.9
				c0.1,0.6-0.3,1.2-0.9,1.2c0,0-0.1,0-0.1,0c-1.1,0.2-2.3,0.3-3.4,0.5c-0.2,0-0.3,0.2-0.5,0.3c-0.1,0.1-0.1,0.2-0.1,0.3
				c-0.2,0.9-1,1.6-2,1.6c0,0-0.1,0.1-0.2,0.2c1.5-0.1,2.7,0.1,3,2c0.1-0.3,0.2-0.4,0.2-0.5c0.2-0.6,0.8-1.1,1.5-1.2
				c0.3-0.1,0.5-0.2,0.7-0.4c1.2-1.1,2.4-2.3,3.6-3.4c-0.4-0.6-0.7-1-1-1.4c-0.4-0.5-0.4-1.3,0.2-1.7c0,0,0.1,0,0.1-0.1l8.1-8.6
				c0.1-0.1,0.2-0.1,0.3-0.3l5.2,4.8l-0.6,0.7l-7.8,8.6c-0.2,0.3-0.6,0.4-0.9,0.3c-0.7-0.2-1.3-0.5-2.1-0.9l-2.3,2.6
				c0.2,0,0.4,0,0.6,0.1c0.2,0,0.5,0.1,0.7,0.2c0.5,0.3,1.1,0.4,1.7,0.3c0.6-0.1,1.3-0.1,1.9,0c1.6,0.2,3.1,0.4,4.7,0.7
				c2.1,0.3,3.5,2.2,3.4,4.3c0,3.7,0,7.4,0,11.1c0,1.1-0.4,2.3-1,3.2c-0.8,1.2-2.3,1.8-3.8,1.5c-1.6-0.2-3.1-0.4-4.7-0.7
				c-0.6-0.2-1.2-0.4-1.8-0.6c-0.2,0-0.3,0-0.5,0c-0.4,0.1-0.9,0.2-1.3,0.2c-1.1-0.1-2.2-0.2-3.3-0.3c-0.6-0.1-1.2-0.4-1.5-1
				c-0.2-0.3-0.5-0.4-0.8-0.2c-0.1,0-0.1,0.1-0.2,0.2c-0.4,0.5-1.1,0.8-1.7,0.8c-2.6-0.1-5.2-0.1-7.8-0.2c-0.6-0.1-1.1-0.2-1.6-0.5
				c-0.6,0.4-1.2,0.6-1.9,0.5c-2.4,0.1-4.8,0.2-7.2,0.3l0,0c-1.9-0.2-3.7,0.4-5.5,0.5c-0.7,0.1-1.3-0.1-1.9-0.6
				c-0.7,1-1.7,1-2.8,1.1c-0.8,0.1-1.5,0.2-2.3,0.3c-0.8,0.2-1.7-0.2-2.1-1c-0.3-0.6-0.5-1.3-0.6-2c-0.1-2.8-0.1-5.6-0.1-8.5v-0.6
				c-1.8-0.3-2-1.3-2.3-3c-0.1-0.9-0.1-1.9,0-2.8c-0.1-0.9,0.6-1.7,1.5-1.9c2.8-0.4,5.7-0.8,8.5-1.2c1-0.1,1.9-0.2,3-0.3l-2.3-2.8
				c-0.1,0.1-0.3,0.2-0.4,0.3c-0.5,0.3-1,0.6-1.5,0.8c-0.9,0.4-1,0.3-1.6-0.4l-7.7-8.9c-0.1-0.1-0.1-0.2-0.2-0.3l0.4-0.4l7.7,7.8
				l0.6-0.5l-7.4-8.1l0.3-0.3l7.9,7.6l0.5-0.4l-7.4-8.2l0.4-0.4L98.3,27z M102.9,28.8c1.3,0.2,2.5,0.4,3.7,0.5
				c0.5,0.1,0.9,0.2,1,0.7c0.1,0.3,0.2,0.6,0.4,0.9c0.1,0.3,0.4,0.5,0.7,0.5c1.1,0.1,2.3,0.3,3.4,0.4c1.3,0.2,2.7,0.3,4,0.3
				c2.5-0.1,4.9-0.5,7.4-0.7c0.5,0,1-0.3,1.1-0.8c0.5-1.3,0.5-1.3,1.9-1.4c1-0.1,2-0.3,3.1-0.5c0-1.3,0-2.5,0-3.8
				c0-0.1-0.2-0.3-0.3-0.5c-0.1,0.1-0.1,0.2-0.1,0.2c0,1,0,1.9,0.1,2.9c0,0.3-0.1,0.5-0.4,0.5s-0.9,0.1-1.3,0.2l-1.5,0.1
				c0.2-0.2,0.4-0.3,0.7-0.4c1.1-0.7,1.8-1.9,2-3.1c0.2-0.5-0.1-1-0.6-1.2c0,0,0,0,0,0c-0.5-0.2-0.6-0.6-0.7-1.1
				c-0.4-2-1.3-3.8-2.7-5.2c-0.8-0.9-1.8-1.5-2.9-1.9c-1.7,2.4-1.8,5.2-2.1,7.9c-0.1-0.2-0.1-0.5-0.1-0.7c0-2.1,0-4.1,0.1-6.2
				c0.1-0.8,0.3-1.7,0.5-2.5c0-0.1,0.2-0.2,0.4-0.4c-0.2-0.1-0.4-0.2-0.6-0.3c-0.5-0.1-0.9-0.2-1.4-0.3c-2.1-0.3-4.2-0.2-6.3,0.3
				c-0.2,0-0.3,0.1-0.4,0.3c-0.6,1-1.4,1.9-2.5,2.5c-2.6,1.5-3.8,4-4.4,6.8c-0.1,0.3-0.2,0.5-0.4,0.6c-0.5,0.4-1,0.8-1.5,1.2
				c-0.1,0.1-0.2,0.2-0.2,0.4C102.9,26.3,102.9,27.5,102.9,28.8z M114.8,50.8c0.1,0.1,0.2,0.2,0.3,0.3c0.4,0.5,1.1,0.8,1.8,0.8
				c1.2-0.1,2.3-0.1,3.5,0c1.2,0.1,2.4,0.1,3.7,0.2c0.3,0,0.8,0,0.9-0.2c0.4-0.9,1.2-0.8,2-0.8c0.3,0,0.5,0,0.6,0.3
				c0.2,0.6,0.7,1,1.4,1c0.9,0.1,1.8,0.1,2.8,0.2c0.5,0.1,0.9-0.1,1.3-0.4c0.1-0.1,0.2-0.2,0.4-0.2c0.9,0.7,1.9,1.1,3,1.1
				c1.2,0.1,2.3,0.3,3.5,0.5c0.5,0.1,1.1,0.1,1.7,0c1.4-0.2,2.4-2.1,2.4-3.4c0-3.8,0-7.7,0-11.6c0.1-1.4-0.8-2.6-2.1-3
				c-1.3-0.3-2.7-0.6-4.1-0.7c-1.4-0.2-2.8-0.5-4.1,0.4c-0.1-0.2-0.3-0.4-0.4-0.5c-0.2-0.2-0.5-0.4-0.8-0.5
				c-1.2-0.1-2.4-0.2-3.6-0.3c-0.5-0.1-1,0.2-1.1,0.7c0,0,0,0,0,0c-0.2,0.5-0.3,1.1-0.5,1.6c-0.2,0.5-0.3,1.1-0.5,1.6
				c-0.4-1-0.7-2-0.9-3c-0.3-1.1-0.4-1.2-1.6-1.3c-2.1-0.1-4.3-0.1-6.4-0.1c-1.6,0-3.1,0-4.7,0c-0.5,0-1,0.3-1,0.9c0,0,0,0,0,0
				c-0.1,0.5-0.2,1-0.3,1.5c-0.3,1.5-0.6,3-0.9,4.5c-0.1-0.2-0.2-0.3-0.2-0.5c-0.4-1.4-0.8-2.9-1.3-4.3c-0.2-0.8-0.9-1.4-1.7-1.6
				c-0.5-0.1-1-0.2-1.5-0.1c-2.7,0.2-5.3,0.4-7.9,0.7c-2.6,0.3-5.4,0.7-8,1.1c-0.7,0.1-0.9,0.4-0.9,1c0.1,1.2-0.2,2.5,0.3,3.8
				c0.2,0.6,0.5,1,1.2,1.1c0.3,0,0.5,0,0.9,0v9.5c-0.1,0.6,0,1.2,0.2,1.8c0.2,0.6,0.8,1,1.4,0.9l3.3-0.5c0.4,0,0.8-0.3,1-0.7
				c0.2-0.3,0.4-0.6,0.5-0.9c0.2,0.2,0.4,0.4,0.6,0.6c0.4,0.5,1,0.7,1.5,0.6c0.9-0.1,1.9-0.2,2.8-0.3c0.4-0.1,0.8-0.4,1.2-0.5
				c0.4,0,0.9,0.3,1.3,0.3c2.2-0.1,4.4-0.2,6.6-0.3C113.2,51.9,114.2,52,114.8,50.8L114.8,50.8z M133.3,25.8L133.3,25.8
				c-0.3,0.2-0.6,0.4-0.9,0.7c-0.2,0.1-0.3,0.4-0.2,0.6c0,0,0,0,0,0.1c0.4,0.6,0.7,1.2,1.1,1.9l-2,2.1l0.8,0.7l2-2.1
				c0.7,0.3,1.3,0.6,1.9,0.9c0.1,0,0.4,0.1,0.4,0c0.3-0.3,0.6-0.7,0.9-1.1l-0.1-0.1l-0.8,0.6l-1.4-1.3l4.3-5.2l-0.1-0.1l-4.9,4.7
				l-1.5-1.4L133.3,25.8z M140.2,18.3l-5,5.3l0.1,0.1l6.8-3.7L140.2,18.3z M99.8,26.9l-3.9,3.7c0.1,0.3,0.4,0.4,0.7,0.4
				c0,0,0.1,0,0.1-0.1c1.7-0.6,3-1.9,3.7-3.5c0.1-0.1,0.1-0.3,0-0.4c-0.7-0.7-1.4-1.3-2.1-2L98.2,25L99.8,26.9z"/>
			<path id="_Path_" class="st0" d="M110.4,54.2c0.4-0.2,0.6,0,0.7,0.3c0.2,0.6,0.4,1.1,0.7,1.6v-2l0.6-0.1v0.7c0,0.9,0,1.8,0,2.8
				c0,0.2-0.1,0.4-0.2,0.5c-0.3,0.1-0.4-0.2-0.4-0.4c-0.2-0.6-0.4-1.1-0.7-1.6v2h-0.6L110.4,54.2z"/>
			<path id="_Compound_Path_2" class="st0" d="M124.5,58.2v-4c0.6,0.1,1.3-0.1,1.7,0.5c0.3,0.5,0.2,1-0.1,1.4
				c0.4,0.5,0.4,1.2,0.1,1.7C125.7,58.5,125.1,58.2,124.5,58.2z M125.1,56.3v1.4c0.2-0.1,0.5-0.1,0.6-0.2c0.1-0.3,0.1-0.6,0-0.9
				C125.6,56.5,125.3,56.5,125.1,56.3z M125.1,55.9c0.4,0.1,0.7,0,0.7-0.4c0-0.4-0.2-0.6-0.7-0.6V55.9z"/>
			<path id="_Compound_Path_3" class="st0" d="M101.9,58.7v-4c0.6,0,1.2-0.4,1.7,0.3c0.3,0.5,0.2,1.1-0.1,1.4
				c0.4,0.5,0.4,1.1,0.1,1.6C103.3,58.8,102.6,58.6,101.9,58.7z M102.5,58.1c0.3-0.1,0.6-0.2,0.6-0.3c0.1-0.3,0.1-0.6,0-0.8
				c0-0.1-0.3-0.2-0.4-0.2c-0.1,0-0.2,0.2-0.2,0.3C102.5,57.4,102.6,57.7,102.5,58.1L102.5,58.1z M102.5,56.4
				c0.3-0.2,0.5-0.2,0.6-0.4c0.1-0.2,0-0.5-0.1-0.7c-0.1-0.1-0.3-0.1-0.6-0.2V56.4z"/>
			<path id="_Compound_Path_4" class="st0" d="M131.1,58.6c-0.5,0.1-0.7-0.1-0.8-0.5c-0.1-0.3-0.2-0.7-0.3-1
				c-0.1-0.1-0.2-0.2-0.3-0.3l-0.1,0.1v1.6h-0.6c0-0.1,0-0.2,0-0.4v-3.6c0.3,0,0.6,0,0.9,0.1c0.4,0,0.8,0.2,0.9,0.6
				c0.2,0.5,0.2,1-0.1,1.4c-0.2,0.2-0.2,0.4-0.1,0.6C130.8,57.7,130.9,58.2,131.1,58.6z M129.6,56.3c0.4,0.1,0.7,0.1,0.7-0.4
				c0-0.5-0.1-0.7-0.7-0.7V56.3z"/>
			<path id="_Compound_Path_5" class="st0" d="M115.6,58H115V54c0.4,0,0.7,0,1.1,0c0.6,0.2,1,0.9,0.8,1.5c0,0.1-0.1,0.2-0.2,0.4
				c-0.2,0.2-0.3,0.5-0.1,0.8c0.2,0.4,0.3,0.8,0.4,1.3c-0.4,0.1-0.6,0.1-0.7-0.3c-0.1-0.4-0.2-0.7-0.3-1.1c0-0.1-0.2-0.1-0.3-0.2
				c-0.1,0.1-0.1,0.2-0.1,0.3C115.6,57.1,115.6,57.5,115.6,58z M115.6,55.9c0.3-0.1,0.6-0.2,0.6-0.3c0.1-0.3,0.1-0.6,0-0.8
				c0-0.1-0.4-0.1-0.6-0.2L115.6,55.9z"/>
			<path id="_Compound_Path_6" class="st0" d="M106.2,56.3c0,0.4,0,0.8,0,1.1c0,0.6-0.4,1-1,1c-0.5,0-0.8-0.4-0.9-1c0-0.6,0-1.3,0-2
				c0-0.5,0.3-0.9,0.8-1c0.5-0.1,0.9,0.1,1.1,0.6c0,0.1,0,0.1,0,0.2C106.2,55.6,106.2,56,106.2,56.3L106.2,56.3z M104.8,56.5
				c0,0.3,0,0.6,0,0.9c0,0.2,0.2,0.3,0.3,0.5c0.1-0.2,0.4-0.3,0.4-0.4c0-0.7,0-1.3,0-2c0-0.2-0.2-0.3-0.4-0.5
				c-0.1,0.2-0.3,0.3-0.4,0.5C104.8,55.8,104.8,56.1,104.8,56.5z"/>
			<path id="_Compound_Path_7" class="st0" d="M119.2,56c0,0.4,0,0.8,0,1.1c-0.1,0.5-0.5,0.9-1,0.8c-0.4,0-0.8-0.4-0.8-0.8
				c0-0.8,0-1.5,0-2.3c0-0.5,0.4-0.9,0.9-0.9c0,0,0,0,0.1,0c0.5,0,0.9,0.4,0.9,0.9c0,0,0,0,0,0C119.2,55.3,119.2,55.7,119.2,56z
				 M117.9,56c0,0.3,0,0.7,0,1c0,0.2,0.2,0.3,0.4,0.4c0.1-0.1,0.4-0.3,0.4-0.4c0-0.7,0-1.3,0-2c0-0.1-0.2-0.3-0.4-0.4
				c-0.1,0.1-0.3,0.3-0.3,0.4C117.8,55.4,117.9,55.7,117.9,56L117.9,56z"/>
			<path id="_Compound_Path_8" class="st0" d="M122.9,58.2l-0.7-0.3c-0.6,0.3-1,0.3-1.3-0.1c-0.3-0.4-0.3-1,0.1-1.4
				c0.1-0.2,0.1-0.3,0.1-0.5c0-0.2-0.2-0.4-0.2-0.6c0-0.2,0.2-0.7,0.4-0.8c0.3-0.1,0.6,0,0.9,0.1c0.2,0.2,0.1,0.5,0.2,0.8
				c0,0.1,0,0.2-0.1,0.2c-0.6,0.4-0.2,0.8,0.1,1.3l0.2-0.4l0.4,0.3l-0.4,0.5l0.3,0.6L122.9,58.2z M121.5,56.6
				c-0.3,0.3-0.4,0.6-0.1,0.9c0.1,0.1,0.4,0,0.6,0.1l0.1-0.2L121.5,56.6z M121.5,55.7h0.3c0-0.2,0.1-0.5,0.1-0.7
				c-0.1,0-0.2-0.1-0.3-0.1L121.5,55.7z"/>
			<path id="_Compound_Path_9" class="st0" d="M126.6,58.3c0.3-1.2,0.5-2.4,0.8-3.6c0-0.1,0.2-0.3,0.2-0.3c0.1,0,0.3,0.1,0.3,0.2
				c0.3,1.2,0.6,2.5,0.9,3.8h-0.6c-0.3-0.9-0.3-0.9-0.9-0.9C127.1,57.8,127.4,58.6,126.6,58.3z M127.9,57l-0.2-1.1h-0.1l-0.2,1.1
				H127.9z"/>
			<path id="_Compound_Path_10" class="st0" d="M110.1,58.1c-0.5,0.1-0.5,0.1-0.8-0.7c-0.4,0-0.8-0.1-0.8,0.5c0,0.4-0.1,0.4-0.6,0.3
				c0.3-1.2,0.6-2.5,0.8-3.7c0-0.1,0.3-0.2,0.5-0.3L110.1,58.1z M109.3,56.8l-0.2-1.1H109l-0.2,1.1L109.3,56.8z"/>
			<path id="_Path_2" class="st0" d="M112.9,54.1h1.6v0.5l-1.1,0.1v1.1h0.9v0.5l-0.9,0.1v1.1h1.1v0.6h-1.6V54.1z"/>
			<path id="_Path_3" class="st0" d="M115.2,60l1.4-1.3l1.3,1.3l-1.4,1.3L115.2,60z"/>
			<path id="_Path_4" class="st0" d="M114.8,59.6l-0.3,0.4l0.3,0.4l-8.6-0.4V60L114.8,59.6z"/>
			<path id="_Path_5" class="st0" d="M118.2,60.4l0.3-0.4l-0.3-0.4l8.5,0.4V60L118.2,60.4z"/>
			<path id="_Path_6" class="st0" d="M107,54.9h-0.7v-0.5l1.8-0.1v0.5l-0.6,0.1v3.4l-0.6,0.1L107,54.9z"/>
			<path id="_Path_7" class="st0" d="M102.8,31c1,0.1,1.9,0.3,2.9,0.4c0.1,0,0.2,0.2,0.4,0.4c-0.8,0.1-1.5,0.2-2.3,0.1
				c-0.4-0.1-0.8-0.5-1.2-0.8L102.8,31z"/>
			<path id="_Path_8" class="st0" d="M128.9,31.2c-0.3,0.4-0.6,0.8-1.1,0.8c-0.3,0.1-0.6,0.2-0.9,0.4c-0.1,0.1-0.3,0.1-0.4,0
				c0-0.1,0-0.2,0-0.3c0.1-0.4,0.4-0.7,0.8-0.6C127.8,31.3,128.3,31.2,128.9,31.2z"/>
			<path id="_Path_9" class="st0" d="M133.9,32.6l0.5-0.5l1.2,0.5l-1.7,0.2L133.9,32.6z"/>
			<path id="_Compound_Path_11" class="st1" d="M102.9,28.8c0-1.3,0-2.5,0-3.8c0-0.1,0.1-0.3,0.2-0.4c0.5-0.4,1-0.8,1.5-1.2
				c0.2-0.2,0.3-0.4,0.4-0.6c0.6-2.8,1.8-5.3,4.4-6.8c1-0.6,1.9-1.4,2.5-2.5c0.1-0.1,0.2-0.2,0.4-0.3c2.1-0.5,4.2-0.6,6.3-0.3
				c0.5,0.1,0.9,0.2,1.4,0.3c0.2,0.1,0.4,0.2,0.6,0.3c-0.2,0.2-0.3,0.3-0.4,0.4c-0.2,0.8-0.4,1.6-0.5,2.5c-0.1,2.1-0.1,4.1-0.1,6.2
				c0,0.2,0,0.5,0.1,0.7c0.2-2.8,0.3-5.5,2.1-7.9c1.1,0.4,2.1,1,2.9,1.9c1.4,1.5,2.3,3.3,2.7,5.2c0.1,0.5,0.2,0.9,0.7,1.1
				c0.5,0.2,0.7,0.7,0.6,1.2c0,0,0,0,0,0c-0.2,1.3-0.9,2.5-2,3.1c-0.2,0.1-0.5,0.2-0.7,0.4l1.5-0.1c0.4,0,0.9-0.1,1.3-0.2
				s0.4-0.2,0.4-0.5c0-1,0-2-0.1-2.9c0,0,0-0.1,0.1-0.2c0.1,0.2,0.3,0.3,0.3,0.5c0,1.2,0,2.5,0,3.7c-1.1,0.2-2.1,0.3-3.1,0.5
				c-1.3,0.2-1.4,0.1-1.9,1.4c-0.1,0.5-0.6,0.8-1.1,0.8c-2.5,0.2-4.9,0.6-7.4,0.7c-1.3,0-2.7-0.1-4-0.3c-1.1-0.1-2.3-0.3-3.4-0.4
				c-0.3,0-0.6-0.2-0.7-0.5c-0.1-0.3-0.3-0.6-0.4-0.9c-0.1-0.6-0.5-0.7-1-0.7C105.4,29.2,104.2,29,102.9,28.8z M112.9,23.8
				c0,2.1,0,4,0,6c0,0.1,0.3,0.2,0.4,0.2c0.9,0,1.7,0,2.6,0s2,0,3,0c0.2,0,0.4-0.1,0.4-0.2c0.2-0.7,0.3-1.4,0.5-2.2l-1.2-0.1
				c0-1.1,0-2.2,0-3.3c0-0.3-0.1-0.4-0.4-0.4H112.9z"/>
			<path id="_Compound_Path_12" class="st1" d="M114.8,50.8c-0.6,1.2-1.7,1.1-2.7,1.1c-2.2,0.1-4.4,0.2-6.6,0.3
				c-0.4,0-0.9-0.3-1.3-0.3c-0.4,0-0.8,0.4-1.2,0.5c-0.9,0.1-1.9,0.2-2.8,0.3c-0.6,0.1-1.2-0.1-1.5-0.5c-0.2-0.2-0.4-0.4-0.6-0.6
				c-0.2,0.3-0.4,0.6-0.5,0.9c-0.2,0.4-0.6,0.6-1,0.7l-3.3,0.5c-0.6,0.1-1.2-0.3-1.4-0.9c-0.2-0.6-0.3-1.2-0.3-1.8v-9.4
				c-0.3,0-0.6,0-0.9,0c-0.7,0-1-0.4-1.2-1.1c-0.5-1.2-0.2-2.5-0.3-3.8c0-0.6,0.3-1,0.9-1c2.7-0.4,5.3-0.8,8-1.1
				c2.7-0.3,5.3-0.5,7.9-0.7c0.5,0,1,0,1.5,0.1c0.8,0.2,1.5,0.8,1.7,1.6c0.5,1.4,0.9,2.8,1.3,4.3c0,0.2,0.1,0.4,0.2,0.5
				c0.3-1.5,0.6-3,0.9-4.5c0.1-0.5,0.2-1,0.3-1.5c0-0.5,0.5-0.9,1-0.9c0,0,0,0,0,0c1.6,0,3.2,0,4.7,0c2.2,0,4.3,0,6.4,0.1
				c1.2,0,1.2,0.1,1.6,1.3c0.3,1,0.6,2,0.9,2.9c0.2-0.5,0.3-1,0.5-1.6c0.2-0.5,0.3-1.1,0.5-1.6c0.1-0.5,0.6-0.8,1.1-0.8c0,0,0,0,0,0
				c1.2,0.1,2.4,0.2,3.6,0.3c0.3,0.1,0.6,0.3,0.8,0.5c0.2,0.2,0.3,0.4,0.4,0.6c1.3-1,2.7-0.7,4.1-0.4c1.4,0.2,2.7,0.4,4.1,0.7
				c1.3,0.4,2.2,1.6,2.1,3c0,3.9,0,7.7,0,11.6c0,1.3-1,3.3-2.4,3.4c-0.5,0.1-1.1,0.1-1.6,0c-1.2-0.1-2.4-0.3-3.5-0.5
				c-1.1-0.1-2.1-0.5-3-1.1c-0.1,0.1-0.3,0.2-0.4,0.2c-0.3,0.3-0.8,0.4-1.3,0.4c-0.9-0.1-1.8-0.2-2.8-0.2c-0.6,0-1.2-0.4-1.4-1
				c-0.1-0.3-0.3-0.3-0.6-0.3c-0.8,0-1.5-0.1-2,0.8c-0.1,0.2-0.6,0.2-0.9,0.2c-1.2,0-2.4-0.2-3.7-0.2s-2.3,0-3.5,0
				c-0.7,0.1-1.3-0.2-1.8-0.8C115,51,114.9,50.9,114.8,50.8z M113.8,49.7c-0.1,0.7-0.6,0.8-1.2,0.8c-0.9,0-1.7,0-2.6,0.1
				c-0.1,0-0.2,0.2-0.4,0.2c0.1,0.1,0.3,0.3,0.4,0.3c0.8,0,1.5,0,2.3-0.1C113.6,51,113.6,51,113.8,49.7L113.8,49.7
				c0-0.5,0.2-0.7,0.7-0.6s0.9,0,1.4,0l-0.1-0.6h-0.8C113.7,48.5,113.7,48.5,113.8,49.7L113.8,49.7z M126.6,49.1L126.6,49.1l2.2-5.6
				h0.1v7l3.4,0.3V35.2c-1.1-0.1-2.2-0.2-3.3-0.3c-0.4,0-0.5,0-0.6,0.4c-0.4,1.4-0.8,2.8-1.2,4.2c-0.2,0.6-0.3,1.1-0.5,1.8l-0.1-0.3
				c-0.4-1.5-0.9-3.1-1.3-4.6c-0.2-0.5-0.2-1.3-0.6-1.6c-0.4-0.3-1-0.1-1.6-0.2c-0.6,0-1.3,0-2.1,0v15.6h3.4v-7h0.1L126.6,49.1z
				 M99.4,35.3V51l3.5-0.3v-4.9c0.3-0.2,0.5,0,0.6,0.3c0.5,1.4,1,2.8,1.4,4.1c0,0.2,0.3,0.4,0.5,0.4c0,0,0,0,0.1,0
				c0.8-0.1,1.7-0.1,2.5-0.2l0.8-0.1l-1.8-4.8c1.3-0.4,1.6-0.7,1.6-2v-6.6c0-1.5-0.7-2.2-2.2-2.1C104,34.9,101.7,35.1,99.4,35.3z
				 M143,44.4v-5.6c0.1-1.2-0.7-2.3-1.9-2.4c-1.8-0.3-3.5-0.6-5.3-0.7c-1.4-0.1-2,0.5-2,1.9c0,3.6,0,7.3,0,10.9
				c-0.2,1.3,0.7,2.6,2,2.8c0.1,0,0.3,0,0.4,0c1.5,0.2,3,0.4,4.4,0.6s2.3-0.5,2.3-2C143,48,143,46.2,143,44.4z M120,50.1l-3.3-15.7
				c-1.1,0-2.1,0-3.2,0c-0.6,0-0.8,0.2-0.8,0.7c0,0,0,0.1,0,0.1c-0.8,3.9-1.6,7.8-2.4,11.7c-0.2,1.1-0.4,2.1-0.6,3.2h3.6
				c0.1-0.6,0.2-1.1,0.3-1.6c0-0.2,0.1-0.4,0.4-0.4c0.6,0,1.1,0,1.7,0c0.3,0,0.4,0.1,0.5,0.4c0.1,0.5,0.2,1,0.3,1.5L120,50.1z
				 M92.4,51.9l3.6-0.5v-0.7c0-3.8,0-7.7,0-11.6c0-0.4,0.1-0.5,0.5-0.5c0.6,0,1.2-0.1,1.9-0.2v-3L90,36.6v2.9l2.3-0.3L92.4,51.9z
				 M142.2,52.2c-0.7,0-1.3,0-2,0c-1.3-0.1-2.6-0.3-3.9-0.5c-2-0.3-2.8-1.2-2.8-3.2v-11h-0.1c-0.1,0.3-0.1,0.6-0.1,0.9
				c0,3.7,0,7.4,0,11.1c-0.1,1.4,0.9,2.6,2.3,2.7c0.6,0.1,1.2,0.2,1.8,0.2c1.1,0.2,2.2,0.3,3.4,0.4
				C141.3,52.8,141.8,52.6,142.2,52.2z M92.7,52.2c-0.1,0.4,0,0.6,0.4,0.5c1-0.2,2-0.3,3-0.4c0.4,0,0.6-0.2,0.6-0.6
				c0-3.8,0-7.6,0-11.4v-0.5l1.9-0.2c0.3,0,0.5-0.1,0.5-0.4c0-0.9,0-1.7,0-2.5c0-0.1-0.1-0.3-0.1-0.4h-0.1c0,0.7,0,1.3,0,2
				c0,0.4-0.2,0.5-0.5,0.6c-0.4,0-0.9,0.1-1.4,0.1c-0.4,0-0.5,0.2-0.5,0.6c0,3.9,0,7.7,0,11.6c0,0.6,0,0.7-0.7,0.8L92.7,52.2z
				 M128.6,45.3h-0.2v2.3c0,1.1,0,2.2,0,3.4c0,0.2,0,0.5,0.4,0.5c1,0.1,2,0.2,3.1,0.3c0.4,0,0.5-0.1,0.4-0.5
				c-0.7-0.1-1.4-0.1-2.1-0.2c-1.7-0.2-1.5,0.2-1.5-1.6C128.6,48,128.6,46.6,128.6,45.3z M99.4,51.3c-0.1,0.4,0.1,0.5,0.4,0.5
				c1-0.1,2-0.2,3-0.3c0.4,0,0.5-0.2,0.5-0.6c0-1.3,0-2.7,0-4c0-0.2,0-0.3-0.1-0.5c-0.1,1.3-0.1,2.6-0.1,3.9c0,0.5-0.2,0.6-0.6,0.6
				C101.6,51.1,100.6,51.2,99.4,51.3L99.4,51.3z M104.9,50.8c0.1,0.3,0.1,0.5,0.5,0.5l3.2-0.2c0.5,0,0.5-0.1,0.2-0.6L104.9,50.8z
				 M115.9,50.4c0.2,0.2,0.3,0.5,0.5,0.5c1.1,0,2.2,0,3.3,0c0.1,0,0.2-0.2,0.3-0.3c-0.1-0.1-0.2-0.2-0.3-0.2c-0.1,0-0.2,0-0.3,0
				L115.9,50.4z M124.4,50.6l-3.8-0.2c0,0.3,0,0.6,0.4,0.6c1,0,2,0.1,3,0.1C124.4,51.1,124.6,51,124.4,50.6L124.4,50.6z M126.7,49.8
				c-0.2-0.2-0.4-0.4-0.5-0.7c-0.2-0.4-0.3-0.8-0.4-1.2l-1-2.8h-0.1c0,0.3,0.1,0.6,0.1,0.9c0.4,1.2,0.8,2.4,1.3,3.6
				c0.1,0.2,0.2,0.3,0.3,0.5L126.7,49.8z M90.3,39.8c-0.1,0.7,0,0.8,0.3,0.8c0.5,0,0.9-0.1,1.4-0.2v-0.8L90.3,39.8z M107.6,46.2
				c0.9-0.2,1.4-1.1,1.2-1.9c0,0,0,0,0-0.1c-0.2,0.7-0.7,1.3-1.4,1.5L107.6,46.2z"/>
			<path id="_Path_10" class="st1" d="M133.3,25.8l-0.5,0.8l1.5,1.4l4.9-4.7l0.1,0.1l-4.3,5.3l1.5,1.3l0.8-0.6l0.1,0.1
				c-0.3,0.4-0.6,0.7-0.9,1.1c-0.1,0.1-0.3,0-0.4,0c-0.6-0.3-1.2-0.6-1.9-0.9l-2,2.1l-0.8-0.7l2-2.1c-0.4-0.6-0.7-1.2-1.1-1.9
				c-0.2-0.2-0.1-0.5,0.1-0.6c0,0,0,0,0.1,0C132.8,26.3,133,26,133.3,25.8L133.3,25.8z"/>
			<path id="_Path_11" class="st1" d="M140.2,18.3L142,20l-6.8,3.7l-0.1-0.1L140.2,18.3z"/>
			<path id="_Path_12" class="st1" d="M99.8,26.9l-1.6-1.9l0.1-0.1c0.7,0.7,1.4,1.3,2.1,2c0.1,0.1,0.1,0.3,0,0.4
				c-0.7,1.7-2,2.9-3.7,3.5c-0.3,0.1-0.6,0.1-0.7-0.2c0,0,0-0.1-0.1-0.1L99.8,26.9z"/>
			<path id="_Compound_Path_13" class="st0" d="M113,23.8h5.2c0.3,0,0.4,0.1,0.4,0.4c0,1.1,0,2.2,0,3.3l1.3,0.1
				c-0.2,0.8-0.3,1.5-0.5,2.2c0,0.1-0.3,0.2-0.4,0.2c-1,0-2,0-3,0s-1.7,0-2.6,0c-0.1,0-0.4-0.2-0.4-0.2C113,27.8,113,25.8,113,23.8z
				 M115.9,25.5l0.2-0.1c-0.2-0.3-0.3-0.7-0.5-0.8c-0.6-0.1-1.2-0.1-1.8,0v4.6h0.1h1.1c0.8,0,0.8,0,0.9-0.9h-1.1v-0.5
				c0-0.1,0-0.3,0-0.4c0.9-0.1,1-0.2,0.8-0.9h-0.8v-1L115.9,25.5z M116.8,29.2c0.1,0,0.1,0.1,0.1,0.1h1.2c0.8,0,0.8,0,0.8-0.9l-1,0
				v-3.7h-1.1L116.8,29.2z"/>
			<path id="_Path_13" class="st0" d="M126.6,49.1l-2-5.9h-0.1v7H121V34.5c0.7,0,1.4,0,2,0c0.7,0,1.3-0.1,1.6,0.2
				c0.3,0.3,0.4,1,0.6,1.6c0.4,1.5,0.9,3.1,1.3,4.6l0.1,0.3c0.2-0.7,0.4-1.2,0.6-1.8c0.4-1.4,0.8-2.8,1.2-4.2
				c0.1-0.4,0.2-0.4,0.6-0.4c1.1,0.1,2.2,0.2,3.3,0.3v15.7l-3.4-0.3v-7h-0.1l-2.1,5.6L126.6,49.1z"/>
			<path id="_Compound_Path_14" class="st0" d="M99.4,35.3c2.3-0.2,4.6-0.4,6.9-0.5c1.5-0.1,2.2,0.6,2.2,2.1v6.5
				c0,1.3-0.2,1.6-1.6,2l1.8,4.8l-0.8,0.1c-0.8,0-1.7,0.1-2.5,0.2c-0.2,0.1-0.5-0.1-0.5-0.3c0,0,0,0,0-0.1c-0.5-1.4-1-2.8-1.4-4.1
				c-0.1-0.3-0.2-0.4-0.6-0.3v4.9l-3.5,0.3V35.3z M102.9,37.7v5.4c0.6,0,1.2-0.1,1.7-0.1c0.2-0.1,0.3-0.2,0.3-0.4c0-1.6,0-3.1,0-4.7
				c0-0.2-0.2-0.3-0.3-0.3C104.1,37.6,103.6,37.7,102.9,37.7z"/>
			<path id="_Compound_Path_15" class="st0" d="M143,44.4c0,1.8,0,3.7,0,5.5c0,1.6-0.8,2.2-2.3,2s-3-0.4-4.4-0.6
				c-1.3,0-2.4-1.1-2.4-2.4c0-0.1,0-0.3,0-0.4c0-3.6,0-7.3,0-10.9c0-1.4,0.6-2.1,2-1.9c1.8,0.2,3.6,0.4,5.3,0.7
				c1.2,0.2,2,1.2,1.9,2.4L143,44.4z M139.4,43.9c0-1.3,0-2.5,0-3.8c0-1.5,0.3-1.3-1.4-1.5c-0.6-0.1-0.6-0.1-0.6,0.6v8
				c0,1.5,0,1.5,1.5,1.7c0.4,0.1,0.6,0,0.5-0.5C139.4,46.9,139.4,45.4,139.4,43.9z"/>
			<path id="_Compound_Path_16" class="st0" d="M119.9,50.1h-3.6c-0.1-0.5-0.2-1-0.3-1.5c0-0.3-0.1-0.4-0.5-0.4c-0.6,0-1.1,0-1.7,0
				c-0.3,0-0.4,0.1-0.4,0.4c-0.1,0.5-0.2,1-0.3,1.6h-3.6c0.2-1,0.4-2.1,0.6-3.2c0.8-3.9,1.6-7.8,2.4-11.7c0,0,0-0.1,0-0.2
				c0-0.5,0.2-0.7,0.8-0.7c1,0.1,2.1,0,3.2,0L119.9,50.1z M115.6,45.6l-0.8-5.2h-0.1l-0.8,5.2H115.6z"/>
			<path id="_Path_14" class="st0" d="M92.4,51.9V39.2L90,39.5v-3l8.3-1.2v3c-0.6,0.1-1.2,0.2-1.9,0.2c-0.4,0-0.5,0.2-0.5,0.5
				c0,3.9,0,7.7,0,11.6v0.7L92.4,51.9z"/>
			<path id="_Path_15" class="st0" d="M142.2,52.2c-0.4,0.4-0.9,0.6-1.5,0.6c-1.1-0.1-2.3-0.3-3.4-0.4c-0.6-0.1-1.2-0.2-1.8-0.2
				c-1.4-0.1-2.4-1.3-2.3-2.7c0-3.7,0-7.4,0-11.1c0-0.3,0.1-0.6,0.1-0.9h0.1v11c0,2,0.8,3,2.8,3.2c1.3,0.2,2.6,0.4,3.9,0.5
				C140.9,52.2,141.5,52.2,142.2,52.2z"/>
			<path id="_Path_16" class="st0" d="M92.7,52.2l3-0.4c0.6-0.1,0.7-0.1,0.7-0.8c0-3.8,0-7.7,0-11.6c0-0.4,0.1-0.6,0.5-0.6
				c0.4,0,0.9-0.1,1.4-0.2c0.4,0,0.5-0.2,0.5-0.6c0-0.7,0-1.3,0-2h0.1c0.1,0.1,0.1,0.2,0.1,0.4c0,0.9,0,1.7,0,2.5
				c0,0.3-0.2,0.4-0.5,0.4l-1.9,0.2v0.6c0,3.8,0,7.6,0,11.4c0,0.4-0.1,0.6-0.6,0.6c-1,0.1-2,0.3-3,0.4
				C92.7,52.7,92.6,52.6,92.7,52.2z"/>
			<path id="_Path_17" class="st0" d="M128.6,45.3c0,1.4,0,2.7,0,4.1c0,1.8-0.2,1.4,1.5,1.6c0.7,0.1,1.4,0.1,2.1,0.2
				c0.1,0.4,0,0.5-0.4,0.5c-1-0.1-2-0.2-3.1-0.3c-0.4,0-0.4-0.2-0.4-0.5c0-1.1,0-2.2,0-3.4v-2.3L128.6,45.3z"/>
			<path id="_Path_18" class="st0" d="M99.5,51.3c1.1-0.1,2.1-0.2,3.1-0.3c0.4,0,0.6-0.2,0.6-0.6c0-1.3,0-2.6,0.1-3.9
				c0,0.2,0.1,0.3,0.1,0.5c0,1.3,0,2.7,0,4c0,0.4-0.1,0.5-0.5,0.5c-1,0.1-2,0.2-3,0.3C99.6,51.8,99.4,51.7,99.5,51.3z"/>
			<path id="_Path_19" class="st0" d="M113.8,49.7L113.8,49.7c-0.2,1.2-0.2,1.2-1.4,1.2c-0.8,0-1.5,0.1-2.3,0.1
				c-0.1,0-0.3-0.2-0.4-0.3c0.1-0.1,0.2-0.2,0.4-0.2c0.9-0.1,1.7-0.1,2.6-0.1C113.2,50.4,113.7,50.4,113.8,49.7L113.8,49.7z"/>
			<path id="_Path_20" class="st0" d="M105,50.8l4-0.2c0.3,0.4,0.2,0.5-0.2,0.5l-3.2,0.2C105.1,51.3,105,51.1,105,50.8z"/>
			<path id="_Path_21" class="st0" d="M115.9,50.4h3.5c0.1,0,0.2,0,0.3,0c0.1,0.1,0.2,0.2,0.3,0.2c-0.1,0.1-0.2,0.3-0.3,0.3
				c-1.1,0-2.2,0-3.3,0C116.3,50.9,116.1,50.6,115.9,50.4z"/>
			<path id="_Path_22" class="st0" d="M124.4,50.6c0.1,0.4,0,0.5-0.4,0.5c-1,0-2-0.1-3-0.1c-0.5,0-0.5-0.3-0.4-0.6L124.4,50.6z"/>
			<path id="_Path_23" class="st0" d="M126.7,49.8l-0.3,0.3c-0.1-0.1-0.3-0.3-0.3-0.5c-0.4-1.2-0.9-2.4-1.3-3.6
				c-0.1-0.3-0.1-0.6-0.1-0.9h0.1l1,2.8c0.2,0.4,0.3,0.8,0.4,1.2C126.4,49.4,126.6,49.6,126.7,49.8z"/>
			<path id="_Path_24" class="st0" d="M90.3,39.8l1.7-0.3v0.8c-0.4,0.1-0.9,0.2-1.4,0.2C90.3,40.6,90.3,40.5,90.3,39.8z"/>
			<path id="_Path_25" class="st0" d="M113.8,49.7c-0.1-1.2,0-1.2,1.1-1.2h0.8l0.1,0.6c-0.5,0-0.9,0-1.4,0S113.7,49.2,113.8,49.7z"
				/>
			<path id="_Path_26" class="st0" d="M107.6,46.2l-0.2-0.5c0.7-0.2,1.3-0.7,1.5-1.5C109,45.1,108.5,46,107.6,46.2
				C107.6,46.2,107.6,46.2,107.6,46.2z"/>
			<path id="_Path_27" class="st1" d="M115.9,25.5h-1v1h0.8c0.2,0.7,0.2,0.7-0.8,0.9c0,0.1,0,0.3,0,0.4v0.5h1.1
				c-0.1,0.9-0.1,0.9-0.9,0.9h-1.2h-0.1v-4.6c0.6-0.1,1.2-0.1,1.8,0c0.2,0,0.3,0.5,0.5,0.8L115.9,25.5z"/>
			<path id="_Path_28" class="st1" d="M116.8,29.2v-4.6h1.1v3.7l1,0c0,0.8,0,0.9-0.8,0.9h-1.1C116.9,29.2,116.8,29.2,116.8,29.2z"/>
			<path id="_Compound_Path_17" class="st1" d="M102.9,37.7c0.6,0,1.1-0.1,1.7-0.1c0.2,0,0.3,0.2,0.3,0.3c0,1.6,0,3.1,0,4.7
				c0,0.2-0.2,0.3-0.3,0.4c-0.5,0.1-1.1,0.1-1.7,0.1L102.9,37.7z M104.6,37.9l-1.3,0.1v4.7h0.1v-3.9l1.2-0.1V37.9z"/>
			<path id="_Compound_Path_18" class="st1" d="M139.4,43.9c0,1.5,0,3,0,4.5c0,0.4-0.1,0.5-0.6,0.5c-1.5-0.2-1.5-0.2-1.5-1.7v-8
				c0-0.6,0-0.7,0.7-0.6c1.6,0.2,1.3,0,1.4,1.5C139.4,41.4,139.4,42.6,139.4,43.9z M137.7,38.9c0,0.4-0.2,0.9,0.4,0.9
				c0.5,0,0.6,0.2,0.6,0.7c0,2.5,0,5.1,0,7.6c0,0.1,0,0.3,0,0.4c0,0.1,0.1,0.1,0.2,0.1c0.1,0,0.1-0.1,0.1-0.1c0-0.1,0-0.2,0-0.3
				v-8.5c0-0.2,0-0.3,0-0.5L137.7,38.9z"/>
			<path id="_Path_29" class="st1" d="M115.6,45.6H114l0.8-5.2h0.1L115.6,45.6z"/>
			<path id="_Path_30" class="st0" d="M104.6,37.9v0.8l-1.2,0.1v3.9h-0.1V38L104.6,37.9z"/>
			<path id="_Path_31" class="st0" d="M137.7,38.9l1.3,0.2c0,0.2,0,0.3,0,0.5v8.5c0,0.1,0,0.2,0,0.3c0,0.1-0.1,0.1-0.1,0.1
				c-0.1,0-0.1-0.1-0.2-0.1c0-0.1,0-0.3,0-0.4c0-2.5,0-5.1,0-7.6c0-0.4-0.1-0.7-0.6-0.7C137.6,39.8,137.8,39.3,137.7,38.9z"/>
		</g>
	</g>
</g>
</svg>
