<?xml version="1.0" encoding="utf-8"?>
<!-- Generator: Adobe Illustrator 22.1.0, SVG Export Plug-In . SVG Version: 6.00 Build 0)  -->
<svg version="1.1" id="Layer_1" xmlns="http://www.w3.org/2000/svg" xmlns:xlink="http://www.w3.org/1999/xlink" x="0px" y="0px"
	 viewBox="0 0 233 73" style="enable-background:new 0 0 233 73;" xml:space="preserve">
<style type="text/css">
	.st0{fill:#3D3D3D;}
	.st1{fill:#3D3D3D;stroke:#3D3D3D;stroke-width:0.25;stroke-miterlimit:10;}
</style>
<title>Asset 1</title>
<g id="Layer_2_1_">
	<g id="Layer_1-2">
		<g id="_Group_">
			<path id="_Compound_Path_" class="st0" d="M115.3,46.9l0.6,0.6c0.4,1.2,0.3,2.6-0.3,3.7c-0.2,0.4-0.5,0.8,0,1.2
				c1.1,1.1,1.6,1.1,2.8,0l0.5-0.1c1.8-0.5,3.6,0.4,5.5,0l0.8,0.3c0.2,0.4,0.4,0.4,0.8,0.3c2.1-0.7,4.4-0.8,6.6-0.4
				c0.7,0.2,1.4,0.3,1.8-0.6c0.4-0.7,1-1.4,1.6-2c1.2-0.3,2.8-0.6,3.4,0.6c0.8,1.7,1.9,1.8,3.5,1.8c1.5-0.1,3.5,1,4.9-0.8
				c0.3-0.3,0.7-0.4,1.1-0.4c1.8-0.1,2.4,0.3,3.5,2.6c0.9-1.2,2.5-1.6,3.8-1c0.6,0.2,1.3,0.2,1.9,0c1.1-0.5,2.4-0.3,3.3,0.5
				c0.9,0.8,1.1,2.1,0.6,3.2c-0.4,1.1-0.9,2.1-1.3,3.2c-0.2,0.4-0.4,0.8,0.2,1.2c0.9,0.6,1.3,1.9,0.9,2.9c-0.3,1.2-1.4,2.1-2.6,2.1
				c-0.6,0-1.2,0.3-1.4,0.9c-0.3,0.5-0.6,1-0.9,1.5c-1.3,1.8-3.6,2.7-5.8,2.2c-2.1-0.4-3.7-2.1-4-4.2c-0.2-1,0.3-1.8,0.3-2.8
				c-3.1-0.3-6.2-0.2-9.2-0.2c-2.4,0-4.8,0-7.1,0.2c-1,0.2-2.1-0.1-2.9-0.8c-0.2-0.2-0.3-0.4-0.6-0.1c-1.2,1.3-2.7,0.9-4.1,0.9
				c-3.1,0-6.2,0-9.3,0c-0.7,0.1-1.4,0-2-0.4c-0.8-0.6-1.3-0.8-2,0c-0.4,0.5-1.1,0.6-1.7,0.5c-1.3-0.5-2.6-0.1-3.9-0.2
				c-0.8-0.1-1.6,0.4-1.7,1.2c-0.5,1.5-1.1,2.9-1.9,4.3c-0.8,1.3-2.4,1.8-3.8,1.1c-1.3-0.6-1.8-2.1-1.3-3.4c0.3-1,0.7-2,1.1-3
				c-0.7-0.2-1.3-0.3-2-0.4c-1,0-2-0.1-2.5,1.2c-0.3,0.8-1.1,1.4-2,1.5c-2,0.3-3.9,0.4-5.9,0.2c-0.8-0.1-1.5,0.3-1.8,1
				c-1.1,2.1-3.1,3.6-5.4,3.9c-3,0.6-5.9-1.2-6.6-4.2c-0.7-2.9,1.1-5.7,4-6.4c0.1,0,0.2,0,0.3-0.1c0.9-0.2,1.7-0.3,2.6-0.2
				c2,0,2.9-1.4,2.1-3.2c-0.6-1.5-0.2-3.3,1.2-3.8c1.2-0.5,2.1-1.5,2.3-2.8c0.4-1,0.9-1.9,1.3-2.9l0.7-0.5c1.1-0.3,2.2-0.4,3.3-0.4
				c2.2-0.2,4.5,0.3,6.7,0.1c1.4-0.1,2.6,1.1,2.7,2.5c0,0.1,0,0.2,0,0.2c0,1-0.6,1.9-0.8,3c1.2-0.1,2.3,0.2,3.4,0.7
				c0.3,0.3,0.6,0.8,1,0.2l0.7-0.5c1.8,0.2,3.7-0.7,5.4,0c1.1,0.5,1.4,0.1,1.5-0.9c0-0.1,0.1-0.2,0.1-0.2c0.2-0.1,0.3-0.4,0.3-0.7
				l0.5-1c0.4-0.6,0.6-1.2,0.8-1.8c0-0.1,0-0.1,0-0.2C111.8,46.3,113.8,46,115.3,46.9z M152.3,55.8l-0.5-0.3
				c-0.3-0.6-0.4-1.2-0.4-1.9c0-0.8-0.5-1.5-1.2-1.7c-0.8-0.4-1.8-0.1-2.4,0.6c-0.4,0.4-0.7,1-0.8,1.6l-0.8-0.6
				c-1.8-0.6-3.7-0.7-5.5-0.3c-0.8,0.1-1.2,0.2-1.2-0.8c0.1-0.9-0.5-1.7-1.4-1.8c-1-0.4-2.1,0-2.6,1c-0.4,1-1.3,1.8-2.3,2.1h-0.6
				c-2-1.2-4.1-0.3-6.2-0.2c-0.2,0-0.3,0.3-0.5,0.5l-0.6,0.3c-0.3-0.7-1-1.2-1.8-1.1c-0.9,0.1-1.7,0.1-2.6-0.1
				c-0.6-0.1-1.2-0.1-1.8,0.2c-1.4,1-2.8,1.2-4.1-0.1c0,0-0.1,0-0.1,0c-0.7-0.1-0.7-0.5-0.5-1c0.3-0.8,0.7-1.6,0.9-2.5
				c0.3-1-0.2-2-1.1-2.3c-0.1,0-0.2-0.1-0.3-0.1c-1.1-0.3-2.3,0.3-2.7,1.4c-0.7,1.5-1.3,3-1.9,4.6c-0.3,0.7-0.7,0.9-1.3,0.5
				c-1.6-1-5-0.8-6.4,0.4c-0.3,0.2-0.4,0.4-0.8,0.1c-1.4-1.3-2.9-1.3-4.6-1c-0.3-0.1-0.4-0.3-0.4-0.6c0.3-0.9,0.7-1.7,1-2.6
				c0.4-1-0.1-2.2-1.1-2.6c-0.4-0.2-0.8-0.2-1.2-0.1c-0.4,0.1-0.8,0.2-1.2,0.2c-2.2-0.4-4.3-0.1-6.5-0.2c-1.1-0.1-2.1,0.6-2.5,1.6
				c-0.4,1.1-0.9,2.1-1.3,3.2c-0.2,0.7-0.7,1.2-1.4,1.3c-1.3,0.3-2.2,1.8-1.6,2.8c1,1.4,0.2,2.5-0.2,3.7c-0.1,0.6-0.7,1-1.4,0.9
				c-1.2-0.1-2.4,0-3.6,0.2c-2.5,0.4-4.1,2.7-3.7,5.2c0,0.1,0,0.2,0.1,0.3c0.5,2.5,2.9,4.1,5.4,3.7c3.1-0.4,4.8-2.3,6-4.9
				c2.2-0.3,4.5,0,6.7-0.1c1.7-0.1,2.4-0.8,2.5-2.4l0,0c0.7-0.3,1.5-0.1,2.2-0.6h0.5c0.7,0.3,1.4,0.5,2.1,0.5c1,0,1,0.4,0.7,1.2
				s-0.6,1.5-0.9,2.3c-0.5,1.5-0.3,2.5,0.8,3c1.2,0.5,2.5,0.1,3.1-1.1c0-0.1,0.1-0.1,0.1-0.2c0.5-0.9,0.9-1.9,1.2-2.9
				c0.5-1.5,1-3,3.1-2.4c0.5,0,0.9-0.1,1.3-0.3c0.3-0.1,0.7-0.1,1.1,0c1.8,0.7,2.5,0.4,3.5-1.3l0.5,0c0.9,2,2.7,1.6,4.3,1.5
				c2.3-0.2,4.5,0,6.8,0c1.9,0,4,0.7,5.3-1.7c0.3,1,1.3,1.7,2.4,1.8c2.1,0.1,4.3,0.4,6.2-0.1c2.2-0.5,4.3,0.3,6.4,0
				c1.9-0.2,3.7-0.2,5.6,0.1l0.2,0.3c-0.8,1-1.1,2.4-0.7,3.6c0.3,1.6,1.6,2.8,3.3,3c2,0.6,4.2-0.3,5.2-2.1c0.8-1.4,1.6-2.5,3.3-2.6
				c0.8,0,1.2-0.8,1.3-1.6s0.1-1.6-0.8-2s-0.8-0.9-0.5-1.5c0.5-1.2,1-2.4,1.4-3.6c0.3-1,0.4-2.1-0.8-2.8s-2.1-0.2-2.9,0.9l-0.6,0.2
				c-1.1-1.8-3-1.8-4.1,0C152.8,54.9,152.6,55.3,152.3,55.8L152.3,55.8z"/>
			<path id="_Compound_Path_2" class="st0" d="M151.6,56.7l0.2,0.3l0.4,1.8l-0.3,1c0,0.5-0.4,0.7-0.6,1.1c-0.5,0.4-1.1,0.7-1.7,0.7
				c-0.3-0.3-0.7-0.3-1,0c0,0,0,0-0.1,0.1l-5.3-0.1l-0.3-0.2l0,0c0-0.2,0-0.5-0.3-0.4c-0.1,0-0.2,0.2-0.3,0.3
				c-1.3,0.3-2.7,0.9-3.9-0.4c-0.1-0.2-0.3-0.5-0.4-0.7c-0.4,0.2-0.1,0.6-0.2,0.8c-0.7,0.8-1.6,0.6-2.4,0.5c-1.7-0.2-3.4,0-5.1,0
				c-0.8,0.1-1.5-0.4-1.6-1.1l0.3-1.4c0.3-0.3,0.6-0.8,0.7-1.3c0.2-0.5,0.8-1.1,0.1-1.6c-0.7-0.4-1.2,0.2-1.6,0.8
				c-0.2,0.3-0.3,0.7-0.4,1c-0.1,0.3-0.4,0.5-0.3,0.8l-0.3,0.8c-1,1.9-3.3,2.6-5.3,1.8c-0.5-0.2-1-0.4-1.5,0
				c-0.3,0.2-0.7,0.2-1.1,0.1c-1.6-0.5-3.3,0-4.9,0c-2.2,0-2.7-0.6-1.9-2.7c0.1-0.2,0.1-0.4,0.1-0.7c0.1-0.3,0.2-0.5,0.3-0.8
				c0.4-0.4,0.5-0.9,0.1-1.2s-0.9-0.1-1.2,0.4l-0.3,0.2c-0.3,0.2-0.5,0.5-0.5,0.9l-0.3,0.8c-0.2,0.1-0.3,0.4-0.2,0.6l-0.3,0.8
				l-0.6,0.9c-0.3,0.6-0.9,0.9-1.5,0.8c-0.7-0.1-0.8-0.7-0.8-1.4c-1.1,1.4-3.1,1.8-4.7,1c-0.7-0.3-0.7,0.2-0.8,0.6
				c-0.6,1.5-1.2,3.1-1.9,4.6c-0.2,0.4-0.4,0.8-0.6,1.2c-0.3,0.6-0.9,0.8-1.5,0.6c-0.7-0.2-0.6-0.9-0.4-1.4c0.5-1.4,1-2.8,1.6-4.1
				c0.4-1,0.1-1.2-0.8-1.1c-1.3,0.2-2.6,0.1-3.7-0.5c-0.1,0-0.3-0.1-0.4,0c-1.2,1-2.6,0.5-3.8,0.6c-0.8-0.3-1.1-1.2-0.8-1.9
				c0-0.1,0.1-0.2,0.1-0.3c0.2-0.5,0.4-1.1,0.6-1.7c0.9-2.4,2.1-4.7,2.8-7.2c0-0.3,0.1-0.5,0.4-0.6c0.1-0.6,0.5-1.1,1-1.5
				c0.4-0.3,0.9-0.3,1.3,0c0.3,0.3,0.5,0.7,0.3,1.1c-0.4,0.9-0.8,1.9-1,2.8l-0.8,1.9c-0.7,1.3-1.3,2.7-1.8,4.2
				c-0.1,0.3-0.4,0.7,0.2,0.8c0.4,0,1,0.1,0.9-0.6c0-1.5,0.6-3,1.7-4.1l1.1-0.6c0.5,0,0.9-0.1,1.4-0.1c1.8,0,2.8,0.8,2.8,2.3
				s-1.1,2.4-2.7,2.5c-0.6-0.1-1.3,0-1.9,0.1c2.6,1.6,5.1,0.3,5.7-3.1l0,0c0.4-0.2,0.4-0.6,0.6-0.9c0.1-0.3,0.4-0.5,0.6-0.7
				c0.9-0.5,4.4,0.1,5.1,0.7l0,0c0.3,0.6,0.1,1.4,0.6,2c0.1,0.5-0.8,0.6-0.4,1.2c0.5-0.2,0.8-0.7,0.7-1.2l0.3-1.6
				c0.6-0.1,0.6-0.6,0.8-1c0.7-1.7,1.4-3.4,2.1-5.1c0.3-0.7,0.8-1.3,1.7-1s0.7,1.2,0.4,1.9c-0.5,1.3-1.1,2.6-1.6,4
				c3.7,0,4.1,0.6,2.8,4.1c-0.1,0.3-0.5,0.7-0.2,1.1c0.1,0.2,0.5,0.1,0.8,0.1c0.6-0.1,0.4-0.7,0.4-1c0.1-1.5,0.9-2.8,2.1-3.7
				c1-0.9,2.5-0.9,3.6-0.2c0.1,0.2,0.3,0.2,0.4,0c0.6-0.4,1.4-0.4,2,0c0.5,0.9-0.3,1.7-0.4,2.5c-0.5,0.7-0.8,1.5-1,2.4
				c1.8,0.3,1.8,0.3,2.4-2.1l0.3-0.8c0.2-0.1,0.3-0.3,0.2-0.6c0.1-0.3,0.2-0.6,0.3-0.8c0.6-0.7,1.3-1.2,2.2-0.5
				c0.4,0.3,0.6,0,0.9-0.1c2.2-0.9,3.3-0.2,3.4,2.3l-0.3,0.8c-0.4,0.5-0.7,1.2-0.8,1.8c1.8,0.2,1.8,0.2,2.5-2.1
				c0.2-0.4,0.4-0.8-0.2-1c-0.4-0.2-0.7-0.7-0.5-1.2c0-0.6,0.4-1,1-1c0,0,0,0,0,0c0.8,0,1.1-0.4,1.3-1.1c0.1-0.4,0.3-0.8,0.6-1.1
				c0.3-0.5,0.9-0.7,1.5-0.4c0.5,0.2,0.7,0.8,0.5,1.2c-0.1,0.3-0.2,0.6-0.3,0.9c-0.2,0.1-0.3,0.2,0,0.3c1,0.5,2.1,0.5,3.1,0
				c0.3-0.2,0.6-0.2,0.9-0.1c1.1,0.8,2.3,0.1,3.4,0.2c0.3,0.4,0.5,0.9,0.4,1.4c-0.1,0.2-0.2,0.4-0.3,0.6c-1.4,3.3-1.4,3.3,2.2,3.3
				c0.6,0,1.3,0.1,1.7-0.6c0.3-0.8-0.1-1.2-0.6-1.8c-0.3,0.7-0.9,1.2-1.7,1.3l-0.8-0.7l0.4-1.7l0.7-1.4c0.1-0.2,0.2-0.3,0.3-0.4
				c0.3-0.6,0.6-1.3,1.4-1.2s0.8,0.9,0.8,1.6C150.5,55.3,150.9,56.1,151.6,56.7z M119.4,56.9c-0.5,0.2-0.5,0.7-0.7,1.1
				s-0.2,1.1,0.4,1.3s1.2,0.4,1.5-0.4l0.2-0.6c0.4-0.7,1.2-1.4,0.4-2.1C120.6,55.7,119.8,56.1,119.4,56.9z M140.2,58.4
				c0,0.6,0.1,1.1,0.9,1.1s1.8-1.3,1.8-2.6c0-0.5-0.2-0.8-0.7-0.8C141.3,56,140.3,57.2,140.2,58.4z M137.9,59.5
				c0-0.8,0.1-1.5,0.3-2.3c0.1-0.3,0.3-0.7-0.2-0.8s-0.8-0.1-1,0.3s-0.3,0.6-0.4,0.9C135.9,59.4,135.9,59.4,137.9,59.5z M106.1,57
				c0.1-0.5-0.3-1-0.8-1.1c-0.1,0-0.1,0-0.2,0c-0.8,0-1.9,1.7-1.9,2.7c0,0.7,0.5,0.8,1,0.8C105.2,59.4,106.1,58.2,106.1,57z
				 M96.5,57c0.8-0.2,1.4,0.2,1.9-0.4c0.1-0.1,0.1-0.3-0.1-0.4c0,0-0.1,0-0.1,0C97.5,55.9,97,56.1,96.5,57L96.5,57z M107.9,59.6
				c0-0.1,0.1-0.2,0.1-0.2s-0.1-0.1-0.1-0.2c0,0.1-0.1,0.1-0.1,0.2C107.8,59.4,107.9,59.4,107.9,59.6L107.9,59.6z"/>
			<path id="_Compound_Path_3" class="st0" d="M93.5,50c-0.3,0.1-0.4,0.3-0.4,0.6c-1,0-2,0-3,0c-2.4,0-2.4,0-3.3,2.2
				c-0.4,1-0.4,1.5,0.9,1.5c0.5,0,1,0.1,1.1,0.8c0.1,0.6-0.3,1.1-0.8,1.3c-0.6,0.2-1.2,0.3-1.8,0.2c-0.4,0-0.8,0-1,0.5
				c-0.6,1.6-1.2,3.1-1.9,4.8h7c0.6,0.1,1.2,0.4,1,1.2c-0.1,0.7-0.7,1.3-1.5,1.2c0,0-0.1,0-0.1,0c-2.2,0-4.4,0.1-6.6,0.1
				c-0.6,0-1,0.1-1.1,0.7c-1.1,2.2-2.5,4-5.1,4.3c-2,0.3-3.9-0.9-4.4-2.9c-0.4-1.9,0.8-3.8,2.8-4.2c0,0,0,0,0,0
				c1.4-0.3,2.7-0.3,4.1-0.2c0.7,0.1,1.3-0.3,1.4-1c0.3-0.9,0.7-1.7,1-2.6s1.1-1.6-0.4-2.2c-0.6-0.3-0.2-1.7,0.7-1.8
				c1.3-0.2,1.7-0.9,2.1-2c2.1-5.2,0.8-4.1,6.2-4.2c0.5,0,0.9,0,1.4,0C93.1,48.2,93.6,48.7,93.5,50z M77.7,64.2L77.7,64.2
				c-0.5,0-0.9,0.1-1.4,0.1c-0.9,0.2-1.4,0.7-1.2,1.7c0.2,0.7,0.9,1.1,1.6,0.9c0.1,0,0.1,0,0.2,0c1-0.3,1.9-1,2.3-2
				c0.2-0.4,0.1-0.6-0.4-0.6L77.7,64.2z"/>
			<path id="_Path_" class="st0" d="M92.1,62.9l-0.1-0.2L92.1,62.9L92.1,62.9z"/>
			<path id="_Path_2" class="st0" d="M148.5,61.6c0.2-0.3,0.7-0.4,1-0.1c0,0,0,0,0.1,0.1c-0.2,0.6-0.7,0.3-1,0.3
				C148.5,61.8,148.5,61.7,148.5,61.6z"/>
			<path id="_Path_3" class="st0" d="M138,61.1c0.1-0.3-0.2-0.6,0.2-0.8c0.1,0.2,0.3,0.5,0.4,0.7L138,61.1z"/>
			<path id="_Path_4" class="st0" d="M142.4,61.3c0.1-0.1,0.2-0.3,0.3-0.3c0.3,0,0.3,0.2,0.3,0.4L142.4,61.3z"/>
			<path id="_Path_5" class="st0" d="M143,61.4l0.3,0.2C143.1,61.6,143,61.5,143,61.4z"/>
			<path id="_Path_6" class="st0" d="M122.6,54.5c-0.1,0.2-0.3,0.2-0.4,0H122.6z"/>
			<path id="_Compound_Path_4" class="st0" d="M151.9,59.8l0.3-1c0.4-0.6,0.6-1.2,0.8-1.8c0.2-0.6,0.5-1.2,0.8-1.7
				c0.6-1.2,1.3-1.3,2.4-0.5c0.1,1.4-0.9,2.5-1.2,3.8c-0.3,1.3,0.5,0.8,1,0.7c1.2-0.6,1.2-1.8,1.6-2.9l0.6-1.4
				c0.2-0.2,0.4-0.4,0.6-0.6c0.4-0.4,1-0.4,1.4-0.1c0.5,0.3,0.6,0.9,0.3,1.3c-0.7,1.7-1.3,3.4-2.1,5.1c-0.3,0.8-0.3,1.2,0.7,1.1
				c0.6,0,1.1,0.2,1.1,0.9c0,0.6-0.5,1.2-1.1,1.2c-0.3,0-0.6,0-0.8,0c-1-0.2-1.4,0.3-1.7,1.2c-0.2,0.5-0.4,0.9-0.7,1.3
				c-1.2,2.1-3.4,2.8-5.2,1.8s-2.2-2.7-1-5.1c0.6-0.5,1.4-0.9,2.2-1.1c1.2-0.2,2.5,0,3.7-0.5c-1.1,0.2-2.3,0-3.2-0.7l0,0
				C152.3,60.4,152.2,60,151.9,59.8z M154.6,64.2c-0.9-0.1-1.7,0-2.6,0.2c-0.6,0.1-1,0.7-0.8,1.3c0,0.1,0.1,0.2,0.1,0.3
				c0.3,0.7,1,0.7,1.7,0.3C153.8,65.8,154.4,65.1,154.6,64.2z"/>
			<path id="_Path_7" class="st0" d="M138.3,54.1c-0.3-0.1-0.2-0.2,0-0.3C138.3,53.9,138.3,54,138.3,54.1z"/>
			<path id="_Path_8" class="st0" d="M108.6,57h0.3c0.1,0.5-0.2,1-0.7,1.2C107.9,57.6,108.8,57.5,108.6,57z"/>
			<path id="_Path_9" class="st0" d="M107.9,59.5c0-0.1-0.1-0.2-0.1-0.2c0-0.1,0.1-0.1,0.1-0.2c0,0.1,0.1,0.1,0.1,0.2
				S108,59.4,107.9,59.5z"/>
		</g>
		<g id="_Group_2">
			<path id="_Compound_Path_5" class="st1" d="M130.8,45c-0.5,0-1,0-1.5,0c-1.2,0.1-2.1-0.3-2.3-1.7c-0.1-0.8-0.4-1.5-1.3-1.5
				s-1.3,0.6-1.5,1.3c-0.3,1.3-1.5,2.1-2.8,1.9c-1.2,0-2.4,0-3.6,0c-2.4,0-3.5-1-3.6-3.5c0-1.8,0.1-3.7,0.1-5.5s-1.1-3-2.8-3.5
				c-2.4-0.7-4.6-1.9-6.4-3.7c-2.6-2.3-3.1-6.1-1.3-9.1c0.6-1.1,1.4-2.2,2.1-3.2c0.9-1,1.5-2.2,1.9-3.5c0.2-1.1,1.1-1.8,2.2-1.7
				c1.1,0.1,0.9,1.2,1,2c0.1,1.8-0.4,3.5-1.4,4.9c-0.3,0.4-0.6,0.8-0.8,1.3s-0.8,1.1-0.2,1.7c0.7,0.5,1-0.1,1.5-0.4
				c2.8-2,5.7-3.1,9.2-2.1c1,0.2,2.1,0,3-0.4c4.4-1.3,9.1,0.7,11.2,4.7c0.2,0.4,0.5,0.9,0.4,1.2c-0.4,2.2,1,3.6,2,5.1s1.7,1.7,3,0.4
				c0.4-0.3,0.6-1.2,1.3-0.7s-0.1,1-0.4,1.4c-0.3,0.4-0.5,0.7-0.8,0.8c-1.9,0.6-2,1.9-1.9,3.6c0.1,1.9,0,3.8-0.5,5.7
				C135.5,44.5,135,45,130.8,45z M104.8,26.6v0.1l0.1,0.1c0.5,1.2,1.5,2.2,2.8,2.7c0.1,0.1,0.2,0.1,0.3,0.1c0.2,0.4,0.6,0.7,1.1,0.6
				l0.6,0.3c0.3,0.5,0.8,0.5,1.2,0.5l0.3,0.1c0.5,0.5,1.2,0.8,1.9,0.7c0.2,0.1,0.4,0.4,0.7,0.3l1.1,1.4c0,0.5,0.2,1,0.5,1.4v4.4
				c-0.5,0.8-0.5,1.8,0.1,2.5v0.5c-0.2,0.4,0,0.7,0.4,0.8l0.8,0.5c1.3,0.7,2.7,0.2,4,0.4c1.3,0.1,2.5-0.3,2.7-2
				c0.1-0.7,0.7-0.9,1.1-1.4h2c0.1,0.3,0.4,0.4,0.7,0.3l0.3,0.3c0,0.3,0,0.6,0.3,0.7l0.1,1c-0.2,0.8,0.4,1,1,1c1.2,0,2.4,0,3.5,0
				c1.3,0,2.5-0.9,2.8-2.2c0.9-3,1.3-6.2,1-9.3c-0.2-1.9-1.4-3.4-2.5-4.9c-0.7-1-1.4,0.4-2.1-0.2c-0.1-0.1-0.1-0.2-0.2-0.3
				c0.6-0.3,1-0.8,1.4-1.3c1-1.1,0.3-2.1-0.3-3c-2.1-3.6-6.6-5.1-10.5-3.6c-1,0.4-2.1,0.5-3.1,0.2c-2.6-0.7-5.4-0.2-7.5,1.5
				c-0.6,0.4-1.2,0.8-1.9,1.2c-0.6,0.4-1.3,0.6-1.9,0c-0.5-0.5-0.6-1.2-0.3-1.9c0.3-1,0.8-1.8,1.4-2.7c0.9-1.3,1.3-2.9,1.2-4.5
				c0-0.3,0-0.7-0.5-0.8c-0.4,0-0.7,0.2-0.7,0.6c-0.5,2.1-2,3.6-3.2,5.3c-0.6,1-1.5,1.8-1.6,3.1c-0.4,0.4-0.2,0.9-0.3,1.4
				c-0.4,0.2-0.4,0.4,0,0.7c-0.1,0.8,0.1,1.7,0.6,2.4L104.8,26.6z"/>
			<path id="_Compound_Path_6" class="st1" d="M108.5,10.2c-2.4,0-3.7-1.3-5.4-1.5c-0.6-0.1-0.5-1-0.1-1.4c0.4-0.6,0.7-1.4,0.9-2.1
				c0.9-2.9,4-4.1,6.4-2.1c0.9,0.7,2.9,0.3,2.6,2c-0.4,1.1-0.9,2.2-1.6,3.2C110.8,9.3,109.7,10.1,108.5,10.2z M104.7,6.2
				c0.1,1.1,0.4,1.9,1.8,1.4c1.3-0.5,2.4-0.9,3.6-1.4c0.9-0.3,0.8-0.9,0.5-1.6c-0.6-1.3-2.1-1.9-3.4-1.5
				C105.8,3.4,104.8,4.7,104.7,6.2L104.7,6.2z M110.7,6.9l-4.6,1.7C108.4,9.8,110,9.1,110.7,6.9L110.7,6.9z"/>
			<path id="_Path_10" class="st0" d="M130.3,28.6c0.7-0.1,0.8,0.2,0.5,0.8c-1.4,1.9-2.1,4.2-3.5,6.1c-2.4,3.5-6.6,3.5-9,0
				c-0.9-1.3-1.7-2.8-1.2-4.5h0.3c0.2,1.7,0.9,3.4,2,4.7c1.6,1.8,3.7,2.2,5.5,1c0.9-0.4,1.5-1.1,1.9-2c0.7-1.3,1.4-2.7,2.1-4.1
				C129.5,30.1,130,29.4,130.3,28.6z"/>
			<path id="_Path_11" class="st0" d="M112.4,31.3L112,31L112.4,31.3z"/>
			<path id="_Path_12" class="st0" d="M112.5,22.5c0.6,0,0.9,0.3,0.9,0.8c0,0.4-0.3,0.8-0.7,0.8c0,0-0.1,0-0.1,0
				c-0.5,0-0.8-0.4-0.8-0.9C111.8,22.9,112.1,22.6,112.5,22.5z"/>
		</g>
	</g>
</g>
</svg>
