<?xml version="1.0" encoding="utf-8"?>
<!-- Generator: Adobe Illustrator 22.1.0, SVG Export Plug-In . SVG Version: 6.00 Build 0)  -->
<svg version="1.1" id="Layer_1" xmlns="http://www.w3.org/2000/svg" xmlns:xlink="http://www.w3.org/1999/xlink" x="0px" y="0px"
	 viewBox="0 0 233 73" style="enable-background:new 0 0 233 73;" xml:space="preserve">
<style type="text/css">
	.st0{fill:#3D3D3D;}
</style>
<title>Asset 20</title>
<g id="Layer_2_1_">
	<g id="Layer_1-2">
		<g id="_Group_">
			<g id="_Group_2">
				<path id="_Path_" class="st0" d="M108.1,52.2c0.3-0.6-0.3-1-0.5-1.5c-0.3-0.9,0-1.7,0.9-1.6c0.7,0.1,0.5-0.8,1.2-0.6
					c0.2,0.1,0.4,0,0.6,0c1.2,0.2,0.2,1.6,1.1,1.9c-0.2,0.4-0.1,1-0.8,1h-0.2c-0.6,0.1-1.5,0.2-1.6,0.9c-0.1,0.5,0.9,0.4,1.3,0.7
					c0.5,0.9,1,1.1,1.5,0.4c0.2,0,0.5,0,0.7,0.2c0,0.1,0,0.1,0,0.2c-0.3,0.2-1,0.3-0.8,0.8c0.2,0.5,0.6,0.5,1.1,0.5
					c0.9-0.1,1.2,0.8,1.9,1c-0.7,0.8-1.8,1.2-1.8,2.3h-0.4c-0.4-0.3-0.6-1-1.3-0.3c-0.3,0.3-1.3-0.7-1.2-1.2c0.1-0.7,0-0.8-0.7-0.6
					c-0.7,0.3-1.5,0.1-1.9-0.5c-0.2-0.4-0.3-0.1-0.5,0c-0.6,0.5-1,0.2-1.3-0.3c-0.2-0.3-0.4-0.6-0.8-0.8c-0.4-0.3-0.5-1-0.2-1.4
					c0.1-0.1,0.2-0.2,0.3-0.3c0.5-0.1,1-0.4,1.4-0.9c0.2-0.3,0.3,0.1,0.4,0.2c0.4,0.3,0.7,0.7,1.2,0.3
					C108.3,52.9,108,52.4,108.1,52.2z"/>
				<path id="_Path_2" class="st0" d="M77.8,30.5c0.2-0.5,0.6-0.3,0.9-0.3c1.4,0,2.8,0,4.3,0c0.4,0.1,0.8,0,1.2-0.3
					c0.1,0.4,0.1,0.8,0.1,1.3c-1.6-0.2-3.2-0.2-4.7-0.1c-0.8,0-0.5,0.6-0.5,1c0,0.4-0.2,0.9,0.5,0.9c1.1,0.1,2.2,0,3.3-0.1
					c0.2,0.3,0.1,0.8,0.1,1.2c-1.1-0.2-2.3-0.3-3.4-0.2c-0.7,0-0.5,0.6-0.4,0.9c0,0.3-0.4,1.1,0.4,1.2c1.7,0.1,3.3,0.1,5-0.1v1.1
					c-2.3-0.1-4.5-0.1-6.7,0v-0.3c0.6-0.5,0.3-1.2,0.3-1.8C78,33.4,78.3,31.9,77.8,30.5z"/>
				<path id="_Path_3" class="st0" d="M155.3,35.6c-1.2,1.6-2.8,1.4-4.4,1.2c-0.7-0.1-1.4-0.3-2.1-0.6l0.5-1.1
					c1.2,0.9,2.7,1.3,4.2,0.9c0.5-0.1,0.9-0.3,1-0.9s-0.5-0.8-1-0.9c-0.8-0.1-1.7-0.2-2.5-0.3s-1.8-0.4-1.9-1.6
					c-0.1-1,0.6-1.7,1.8-2c0.9-0.2,1.9-0.2,2.8,0.1c0.4,0.1,0.8,0.2,1.2,0.2c0,0.4-0.2,0.9-0.4,1.3c-1-0.7-2.2-1-3.4-0.8
					c-0.5,0.1-1,0.4-1,1s0.5,0.7,1,0.8c0.6,0.1,1.2,0.2,1.9,0.2c0.9,0,1.8,0.3,2.5,0.9L155.3,35.6z"/>
				<path id="_Path_4" class="st0" d="M117.4,51.1c0,1,0.3,1.9,0.8,2.7c-1.2-0.4-2.5-0.7-3.8-0.7c-0.5,0-0.9-0.4-0.4-0.7
					c0.3-0.1,0.4-0.5,0.3-0.7c-0.1-0.1-0.2-0.2-0.3-0.3c-0.7-0.4-0.4-0.8-0.4-1.4c0-0.6,0.2-0.7,0.7-0.7c0.5,0,1-0.1,0.6-0.9
					c-0.4-0.8-0.8-1.6-0.2-2c0.4-0.3,1.4,0,2,0.6c0.1,0.2,0.3,0.1,0.4,0c1.1-0.5,1.1,0.3,1.1,1c-0.1,0.6-0.1,1.2,0,1.8
					c0.1,0.2,0,0.6,0.4,0.5c0.2,0,0.5-0.2,0.5-0.5c-0.1-0.7,0.6-1.3,0.8-1.2c0.5,0.2,0.7,0.8,1.1,1.3c0.6,0.9,0.1,2.3,1.3,2.9
					c-0.1,0.2-0.4,0.4-0.4,0.7c-0.3-0.3-0.7-0.2-1.1-0.4c-0.9-0.4-1.8-0.7-1.8-1.9c-0.1-0.9-0.8-0.6-1.3-0.4
					C117.4,50.9,117.4,51,117.4,51.1z"/>
				<path id="_Path_5" class="st0" d="M128.7,32.2c-0.1,1.2-0.1,2.5,0,3.7c0.2,1.3-0.4,1-1,1c0.2-2.2,0.2-4.4,0-6.5c0,0,0,0,0.1,0
					c0.8-0.1,1.4-0.2,1.7,1c0.5,1.3,1.1,2.5,1.9,3.6c0.8-1.2,1.5-2.5,2-3.8c0.2-0.9,0.6-0.7,1.2-0.8h0.5c0,1.9-0.1,3.7,0,5.5
					c0.1,1.1-0.3,1.3-1.2,1c0.2-1.6,0.1-3.2-0.1-4.7l-2.5,4.4l-2.5-4.4L128.7,32.2z"/>
				<path id="_Path_6" class="st0" d="M145.6,29.9v1.3c-1.5-0.1-3.1-0.2-4.6-0.1c-0.7,0-0.6,0.5-0.6,0.9c0,0.4-0.3,1,0.5,1
					c1.1,0.1,2.2,0,3.3-0.1c0.1,0.4,0.1,0.8,0,1.2c-1.1-0.2-2.2-0.2-3.3-0.1c-0.8,0-0.5,0.6-0.5,1S140,36,140.8,36
					c1.6,0.1,3.3,0,4.9-0.2c0.1,0.4,0.1,0.8,0,1.1c-2.2-0.2-4.3,0-6.4-0.1c0-2.1,0.1-4.1,0-6.2c0-0.7,0.4-0.4,0.6-0.4
					c1.5,0,2.9,0,4.4,0C144.7,30.3,145.2,30.2,145.6,29.9z"/>
				<path id="_Path_7" class="st0" d="M117.8,30.2c2-0.1,4.1,0.1,6.2-0.1c0.1,0.4,0.1,0.7,0,1.1c-1.6-0.2-3.1-0.1-4.7-0.1
					c-0.6,0-0.6,0.4-0.5,0.8s-0.3,1,0.3,1.1c1.1,0.1,2.3,0.1,3.4-0.1c0.2,0.3,0,0.7,0.1,1.2c-1.1-0.2-2.3-0.3-3.4-0.2
					c-0.6,0-0.4,0.6-0.4,0.9s-0.3,1.1,0.4,1.1c1.6,0.1,3.2,0,5,0c0.1,0.2-0.1,0.6,0,1h-6.6C117.9,34.6,117.8,32.5,117.8,30.2z"/>
				<path id="_Compound_Path_" class="st0" d="M112.3,33.9l1.8,2.8c-0.8,0-1.3,0.2-1.6-0.7c-0.3-0.6-0.6-1.2-1.1-1.8
					c-0.6-0.9-1.5-0.5-2.3-0.4s-0.3,0.8-0.3,1.2c-0.1,0.6-0.1,1.2,0.2,1.7h-1.3c0.2-2.2,0.2-4.3,0.1-6.5c1.5,0,3.2,0,4.8,0
					c0.9,0,1.2,0.7,1.3,1.5c0.2,0.7-0.2,1.5-0.8,1.9C112.9,33.7,112.6,33.8,112.3,33.9z M110.7,32.9c0.4,0,0.7,0,1.1,0
					c0.6,0,1.2-0.1,1.2-0.9s-0.5-1-1.2-1s-1.5,0-2.2,0s-0.8,0.2-0.8,0.8c0,0.9,0.1,1.4,1.2,1.2C110.2,32.9,110.4,32.9,110.7,32.9
					L110.7,32.9z"/>
				<path id="_Path_8" class="st0" d="M93.5,35v-4.7c1-0.2,1-0.2,1,0.9c0,1.8-0.1,3.7,0.1,5.6c0,0-0.1,0.1-0.2,0.1
					c-0.6,0.1-1.3-0.2-1.6-0.8c-1.2-1.6-2.6-3.2-4-4.6c-0.1,1.8,0,3.6,0.2,5.4h-1.2c0.2-2.2,0.2-4.3,0-6.5c0.1,0,0.2-0.1,0.3-0.1
					c0.7,0,1.2-0.1,1.7,0.8c1,1.3,2,2.6,3.2,3.7c0.1,0.1,0.2,0.3,0.3,0.5L93.5,35z"/>
				<path id="_Path_9" class="st0" d="M104.6,30.1v1.1c-0.2,0.2-0.3,0-0.5-0.1c-2.2-0.4-2.4-0.2-2.3,1.9c-0.1,1.2,0,2.5,0.1,3.7
					h-1.3c0.1-1.7,0.2-3.5,0.1-5.2c0-0.2-0.1-0.5-0.4-0.5c-0.8-0.1-1.6,0-2.4,0.2c-0.2-0.2-0.1-0.6-0.1-0.9c0-0.3,0.1-0.3,0.5-0.3
					C100.4,30.3,102.5,30.3,104.6,30.1z"/>
				<path id="_Path_10" class="st0" d="M104.9,51.5c-0.7,0.2-1.4,0.6-1.9,1.1c-0.3,0.2-0.7,0.5-1,0.2s-0.7-0.7-0.5-1.1
					c0.3-0.6-0.1-0.7-0.4-0.8c-0.6-0.2-0.9-0.8-0.8-1.4c0-0.1,0-0.1,0.1-0.2c0.3-0.5,0.8-1.4,1.8-0.8c0.2,0.1,0.4,0.1,0.6,0
					c0.6-0.3,0.9,0.1,1,0.6C104,50,104.4,50.8,104.9,51.5z"/>
				<path id="_Path_11" class="st0" d="M127.2,53.9c0.8,0.2,0.8-0.5,1.1-0.8l0.2,0.2l-0.1,0.3c-0.1,0.1-0.3,0.3-0.1,0.4
					c0.1,0.2,0.3,0,0.4-0.1c0.9-0.1,1.7-0.5,2.4-1.2c0.2,0.1,0.5,0.5,0.8,0.1c0.6,0,1.2-0.3,1.9,0c-0.7,0.7-1.9,0.1-2.3,1.1
					c-0.7,0.1-1.4,0-1.5,1c-1,0.1-2,0.3-3,0.3c-0.8,0.1-1.6,0.5-2.2,1.1c-0.3,0.3-0.5,0.6-0.9,1c-0.1-0.9,0.8-1.1,0.8-1.8l-1.1-0.1
					c-0.2-0.3-0.4-0.2-0.7-0.2l-0.5-0.1c0-0.3,0.3-0.1,0.4-0.2c0.2-0.2,1.6,0.7,0.7-0.7c-0.2-0.3,1-0.8,1.6-0.6
					c-0.1,0.2-0.3,0.4-0.3,0.6s0.3,0.1,0.5,0h0.4c0.4,0,0.8,0,1.2,0C127.7,54.4,127.1,54.1,127.2,53.9z"/>
				<path id="_Path_12" class="st0" d="M116.6,54.4c0.6-0.2,1.2,0,1.8-0.6c0.3-0.3,0.8-0.3,1.1,0c0.1,0.1,0.1,0.2,0.2,0.3
					c0.3,0.5,0.8,0.8,1.4,0.7c0.1,0.3-0.9,0.2-0.2,0.7c0.3,0.4,0.7,0,1.1,0.3c-1.1,0.2-2.1,0.7-2.8,1.6c-0.2,0.3-0.3,0.2-0.6,0
					c-0.6-0.4-0.8-1.3-1.7-1.3c0.3-0.5-0.4-0.8-0.3-1.3C116.8,54.8,116.7,54.6,116.6,54.4z"/>
				<path id="_Path_13" class="st0" d="M132.4,17c0.3-0.7,0-1.4,0.3-2.2c0.3,0.9,0.4,1.9,0.2,2.9c0,0.6-0.4,0.3-0.6,0
					c-0.5-0.6-1.1-1.2-1.7-1.9l-0.1,2.2H130c-0.1-0.9-0.1-1.8,0-2.8c0-0.3,0.5-0.2,0.8,0.1C131.3,15.8,131.8,16.3,132.4,17z"/>
				<path id="_Compound_Path_2" class="st0" d="M103.3,16.5c0,0.8-0.7,1.5-1.6,1.5c0,0-0.1,0-0.1,0c-0.9,0.1-1.6-0.6-1.7-1.4
					c0,0,0,0,0-0.1c0-0.8,0.7-1.5,1.5-1.5c0.1,0,0.1,0,0.2,0c0.8-0.1,1.6,0.6,1.6,1.4C103.3,16.4,103.3,16.4,103.3,16.5z
					 M101.6,17.5c0.7-0.1,1.1-0.4,1.1-1.1s-0.5-1.1-1.2-1c-0.6,0-1,0.4-1,1c0,0.1,0,0.1,0,0.1C100.5,17.3,101,17.5,101.6,17.5z"/>
				<path id="_Compound_Path_3" class="st0" d="M104.6,18.1c-0.2-0.9-0.2-1.9-0.2-2.8c0-0.3,0.2-0.4,0.4-0.4c0.5,0,1.1,0,1.6,0.1
					c0.6,0.1,0.9,0.7,0.6,1c-0.7,0.7-0.3,1.2,0,1.7c-0.6,0.3-0.7-0.2-0.8-0.5c-0.2-0.4-0.5-0.7-1-0.6c-0.7,0.1-0.2,0.6-0.4,0.9
					L104.6,18.1z M105.6,16.3c0.4-0.1,1,0.2,1-0.4c0-0.6-0.5-0.4-0.8-0.4s-0.9-0.3-0.9,0.4C104.8,16.4,105.2,16.2,105.6,16.3
					L105.6,16.3z"/>
				<path id="_Path_14" class="st0" d="M123.1,16.1c0,1.5-0.4,2-1.7,1.8c-0.5-0.1-1-0.2-1.1-0.7c-0.2-0.7-0.2-1.4,0-2.2
					c0,0,0.2-0.1,0.3-0.1s0.2,0.2,0.2,0.3c0,0.4,0,0.9,0,1.3c0,0.6,0.3,0.9,0.8,0.9s1-0.2,0.9-0.9c0-0.1,0-0.2,0-0.3
					c0.1-0.4-0.3-1.2,0.2-1.2C123.4,15,122.9,15.8,123.1,16.1z"/>
				<path id="_Compound_Path_4" class="st0" d="M141.2,17.9c-1-0.1-0.8-1.2-1.6-1.3c-1.2-0.1-0.3,1-1.1,1.5c0-1.1-0.3-2.1,0.1-2.9
					c0.4-0.8,1.4-0.3,2.1-0.2c0.5,0.1,0.8,0.7,0.5,1C140.4,16.7,140.8,17.2,141.2,17.9z M139.7,15.4c-0.3,0.1-0.8-0.2-0.8,0.5
					c0,0.6,0.5,0.4,0.8,0.4c0.3,0,0.9,0.1,0.9-0.4C140.6,15.2,140,15.5,139.7,15.4z"/>
				<path id="_Compound_Path_5" class="st0" d="M91.6,17.8c-1.1-0.9-2-1.2-3,0.2c0.2-1,0.6-1.9,1.1-2.8c0.1-0.3,0.5-0.3,0.7,0
					C90.8,16.1,91.2,16.9,91.6,17.8z M90,15.8c-0.1,0.3-0.5,0.5-0.3,0.8c0.2,0.1,0.4,0.1,0.6,0C90.7,16.3,90.2,16.1,90,15.8L90,15.8
					z"/>
				<path id="_Compound_Path_6" class="st0" d="M110.1,18.1c0.3-1,0.7-2.1,1.2-3c0.1-0.3,0.5-0.2,0.7,0.1c0.4,0.8,0.7,1.5,1.1,2.3
					c0.1,0.1,0.2,0.3,0,0.4s-0.3,0.1-0.3,0C111.9,16.5,111.1,17.1,110.1,18.1z M112,16.6c0-0.4-0.2-0.7-0.5-0.9
					c-0.2,0.3-0.4,0.6-0.3,0.9S111.8,16.7,112,16.6z"/>
				<path id="_Compound_Path_7" class="st0" d="M144.1,17.8c0.4-0.9,0.7-1.8,1.1-2.6c0.1-0.2,0.3-0.3,0.5-0.2c0.1,0,0.2,0.1,0.2,0.2
					c0.4,0.8,0.8,1.6,1.1,2.3c0.1,0.1,0.1,0.3-0.1,0.4c-0.1,0-0.2,0-0.3-0.1C145.7,16.8,145.2,16.9,144.1,17.8z M145.5,15.6
					c-0.1,0.4-0.4,0.7-0.3,1c0.2,0.3,0.5,0.2,0.8,0C146,16.2,145.8,15.9,145.5,15.6z"/>
				<path id="_Path_15" class="st0" d="M88.4,15.2c-0.5,0.2-1,0.3-1.6,0.2c-0.3,0-0.6-0.1-0.7,0.4c0,0.5,0.3,0.4,0.6,0.4
					c0.3,0,0.6-0.2,0.8,0.1c0,0.4-0.3,0.3-0.5,0.2c-0.6,0-1,0-0.9,0.8c0,0.2,0.1,0.5-0.2,0.5s-0.3-0.3-0.3-0.5c0-0.2,0-0.3,0-0.4
					C85.6,14.8,85.9,14.6,88.4,15.2z"/>
				<path id="_Path_16" class="st0" d="M118.6,15.6l-0.2-0.1c-0.6-0.3-1.4-0.1-1.7,0.5c-0.2,0.4-0.2,0.8,0.2,1.1
					c0.5,0.5,1.2,0.6,1.8,0.2c0.2-0.1,0.4-0.3,0.5,0c0.2,0.3-0.1,0.4-0.3,0.5c-0.8,0.4-1.8,0.3-2.4-0.4c-0.5-0.5-0.5-1.2-0.1-1.7
					c0.5-0.8,1.5-0.9,2.6-0.3L118.6,15.6z"/>
				<path id="_Path_17" class="st0" d="M124.4,16.3c0.2-0.4-0.3-1.2,0.2-1.2c0.7,0,0.4,0.9,0.3,1.3c-0.2,1.3,0.7,1.1,1.5,1.1
					c0.2,0,0.6-0.2,0.6,0.2c0,0.4-0.4,0.2-0.6,0.2c-0.2,0-0.3,0-0.4,0C124.4,17.9,124.4,17.9,124.4,16.3z"/>
				<path id="_Path_18" class="st0" d="M96.2,15.3c1-0.3,2.1-0.4,3.1-0.1c-1.6,0.1-1.2,1.2-1.2,2.1c0,0.3,0.2,0.7-0.3,0.7
					c-0.4,0-0.2-0.4-0.3-0.7c0-0.1,0-0.3,0-0.4C97.4,16,97.8,15,96.2,15.3z"/>
				<path id="_Path_19" class="st0" d="M93.1,15.6c-0.3,0.5-0.5,1,0,1.5c0.4,0.5,1.2,0.5,1.7,0.2c0.2-0.1,0.4-0.4,0.6,0
					c0.2,0.5-0.2,0.4-0.4,0.5c-0.8,0.5-1.8,0.3-2.4-0.4c-0.5-0.5-0.5-1.3,0-1.8c0.1-0.1,0.2-0.1,0.3-0.2L93.1,15.6z"/>
				<path id="_Path_20" class="st0" d="M141.6,29.3c0.8-0.7,0.9-2.2,2.6-1.9C143.3,28.2,142.8,29.3,141.6,29.3z"/>
				<path id="_Path_21" class="st0" d="M109,16.4c0,0.3,0,0.7,0,1s0.1,0.6-0.3,0.6c-0.4,0-0.3-0.3-0.3-0.5c0-0.8,0-1.6,0-2.4
					c0-0.3,0.2-0.4,0.4-0.4c0.2,0,0.2,0.3,0.2,0.4C109,15.5,109,16,109,16.4L109,16.4z"/>
				<path id="_Path_22" class="st0" d="M130.1,55c0.1-1,0.8-0.9,1.5-1c0.1,0.8-0.6,0.5-1,0.6c0.8,0.5,1.6,0.1,2.3,0.5
					C132,55.4,131,55.3,130.1,55z"/>
				<path id="_Path_23" class="st0" d="M143,16.4c-0.3,0.5,0.4,1.4-0.4,1.4c-0.5,0-0.2-0.9-0.2-1.4s-0.3-1.4,0.3-1.4
					C143.3,15.1,142.8,15.9,143,16.4z"/>
				<path id="_Path_24" class="st0" d="M131.4,51.8c-1.3-0.6-1.8,0.6-2.6,1.2l-0.2-0.2c0.4-0.7,1-1.2,1.7-1.5
					c0.4-0.2,0.9-0.3,1.2,0.3L131.4,51.8z"/>
				<path id="_Path_25" class="st0" d="M128.2,17.8c-0.1-0.9-0.1-1.9,0-2.8h0.3v2.8H128.2z"/>
				<path id="_Path_26" class="st0" d="M93.1,15.6l-0.3-0.3c0.6-0.4,1.4-0.5,2.1-0.2c0.2,0.1,0.4,0.1,0.3,0.3s-0.3,0.2-0.5,0.1
					C94.2,15.3,93.6,15.3,93.1,15.6z"/>
				<path id="_Path_27" class="st0" d="M127.2,53.9c-0.2,0.1,0.5,0.5-0.1,0.5c-0.4,0-0.8,0-1.2,0C126.3,53.3,126.3,53.3,127.2,53.9z
					"/>
				<path id="_Path_28" class="st0" d="M111.7,53.3c-0.5,0.6-1,0.5-1.5-0.4L111.7,53.3z"/>
				<path id="_Path_29" class="st0" d="M121.9,53.6c0-0.3,0.2-0.5,0.4-0.7c0.2,0,0.4,0.1,0.4,0.4c0,0,0,0,0,0.1l0,0
					C122.4,53.5,122.3,54,121.9,53.6z"/>
				<path id="_Path_30" class="st0" d="M122.7,53.3c0.3,0,0.6,0.1,0.9,0.3c0,0-0.1,0.3-0.2,0.4C122.7,54.2,122.8,53.6,122.7,53.3
					L122.7,53.3z"/>
				<path id="_Path_31" class="st0" d="M114.8,53.9c-0.3,0.3-0.8,0.3-1.1,0.1C113.9,53.7,114.4,53.7,114.8,53.9z"/>
				<path id="_Path_32" class="st0" d="M123.1,55.3c0.2,0,0.5-0.1,0.7,0.2c0,0.3-0.2,0.5-0.5,0.4C122.9,55.8,123.1,55.5,123.1,55.3z
					"/>
				<path id="_Path_33" class="st0" d="M132,52.9c-0.3,0.3-0.5,0-0.8-0.1C131.6,51.8,131.7,52.8,132,52.9z"/>
				<path id="_Path_34" class="st0" d="M125.5,54.4c-0.2,0.1-0.5,0.1-0.5,0s0.2-0.4,0.3-0.6C125.5,53.9,125.5,54.1,125.5,54.4z"/>
				<path id="_Path_35" class="st0" d="M120.9,55.5c-0.6-0.5,0.3-0.4,0.2-0.7C121.5,55.1,121.5,55.1,120.9,55.5z"/>
				<path id="_Path_36" class="st0" d="M108.1,52.2c-0.1,0.2,0.2,0.7-0.4,0.5C107.7,52.5,107.8,52.2,108.1,52.2z"/>
				<path id="_Path_37" class="st0" d="M116.6,54.4c0,0.2,0.2,0.4-0.1,0.5c-0.1-0.1-0.3-0.2-0.3-0.3
					C116.2,54.3,116.5,54.4,116.6,54.4z"/>
				<path id="_Path_38" class="st0" d="M112.3,53.7c0-0.1,0-0.1,0-0.2c0.3,0,0.7-0.1,0.9,0.2l0,0C112.9,53.8,112.6,53.8,112.3,53.7z
					"/>
				<path id="_Path_39" class="st0" d="M128.6,53.3l-0.2-0.2l0.2-0.4l0.2,0.2L128.6,53.3z"/>
				<path id="_Path_40" class="st0" d="M131.4,51.8l0.1-0.2c0.1,0,0.3,0,0.3,0.3C131.6,51.8,131.5,51.8,131.4,51.8z"/>
				<path id="_Path_41" class="st0" d="M128.8,54c-0.1,0.1-0.3,0.3-0.4,0.1c-0.1-0.2,0-0.3,0.1-0.4L128.8,54z"/>
				<path id="_Path_42" class="st0" d="M115.2,54.4L115.2,54.4L115.2,54.4L115.2,54.4L115.2,54.4z"/>
				<path id="_Path_43" class="st0" d="M118.9,15.3c0,0.1,0,0.2,0,0.3c0,0.1-0.2,0-0.4,0L118.9,15.3z"/>
				<path id="_Path_44" class="st0" d="M113.2,53.7L113.2,53.7z"/>
				<path id="_Path_45" class="st0" d="M117.4,51.1c0-0.2,0-0.2,0.2-0.2L117.4,51.1z"/>
				<path id="_Compound_Path_8" class="st0" d="M134.2,17.8c0.4-0.9,0.7-1.8,1.1-2.6c0.1-0.2,0.3-0.3,0.5-0.2c0.1,0,0.2,0.1,0.2,0.2
					c0.4,0.8,0.8,1.6,1.1,2.3c0.1,0.1,0.1,0.3-0.1,0.4c-0.1,0-0.3,0-0.4-0.1C135.8,16.9,135.3,16.9,134.2,17.8z M135.6,15.6
					c-0.1,0.4-0.5,0.7-0.3,1c0.2,0.3,0.5,0.2,0.8,0C136.1,16.2,135.9,15.9,135.6,15.6z"/>
			</g>
		</g>
	</g>
</g>
</svg>
