<?xml version="1.0" encoding="utf-8"?>
<!-- Generator: Adobe Illustrator 22.1.0, SVG Export Plug-In . SVG Version: 6.00 Build 0)  -->
<svg version="1.1" id="Layer_1" xmlns="http://www.w3.org/2000/svg" xmlns:xlink="http://www.w3.org/1999/xlink" x="0px" y="0px"
	 viewBox="0 0 233 73" style="enable-background:new 0 0 233 73;" xml:space="preserve">
<style type="text/css">
	.st0{fill:#FFFFFF;}
	.st1{fill:#3D3D3D;}
	.st2{fill:#FBFEFF;}
	.st3{fill:#FAFDFF;}
	.st4{fill:#FDFBFD;}
</style>
<title>Asset 11</title>
<g id="Layer_2_1_">
	<g id="Layer_1-2">
		<g id="_Group_">
			<path id="_Compound_Path_" class="st0" d="M122.1,33.8h-1c-0.6,0-1.1,0.3-1.4,0.8c-0.3,0.6-0.2,1.3,0.3,1.8
				c0.4,0.4,0.7,0.8,1,1.1c0.2,0.2,0.3,0.5,0.2,0.8c-0.2,0.7-0.4,1.4-0.6,2.1c-0.2,0.6,0,1.2,0.4,1.6c0.5,0.4,1.2,0.4,1.8,0.1
				c0.7-0.4,1.5-0.9,2.2-1.4c0.3-0.3,0.7-0.2,1,0c0,0,0,0,0,0c0.8,0.7,1.6,1.2,2.5,1.6c0.7,0.3,1.5,0,1.9-0.7
				c0.1-0.2,0.2-0.5,0.1-0.7c-0.1-1-0.3-1.9-0.6-2.8c-0.2-0.3-0.1-0.7,0.2-0.8c0.3-0.2,0.6-0.5,0.8-0.8c0.7-1.1,0.7-2-0.6-2.4
				c-0.4-0.1-0.8-0.2-1.2-0.2c-0.6,0.1-0.8-0.1-1-0.6c-0.2-0.5-0.5-1-0.9-1.5c-0.5-0.8-1.4-1-2.2-0.5c-0.3,0.2-0.5,0.4-0.6,0.7
				c-0.1,0.2-0.2,0.4-0.3,0.6C123.8,33.5,123.2,34.1,122.1,33.8z M91.1,33.8h-0.9c-0.6,0-1.2,0.4-1.4,0.9c-0.2,0.6-0.1,1.2,0.3,1.7
				l1,1c0.3,0.3,0.4,0.7,0.2,1c-0.2,0.7-0.4,1.3-0.5,2c-0.2,0.6,0,1.3,0.5,1.6c0.5,0.4,1.2,0.4,1.7,0c0.8-0.5,1.5-1,2.3-1.4
				c0.2-0.2,0.4-0.2,0.6,0c0.7,0.6,1.5,1.1,2.4,1.6c0.5,0.3,1.2,0.3,1.7,0c0.5-0.4,0.8-1.1,0.6-1.8c-0.1-0.8-0.4-1.6-0.6-2.4
				c-0.1-0.4-0.1-0.6,0.2-0.8c0.4-0.2,0.8-0.6,1-1c0.6-1.2,0.4-2-0.9-2.3c-0.4-0.1-0.8-0.1-1.2-0.1c-0.4,0.1-0.6-0.1-0.8-0.5
				c-0.3-0.7-0.7-1.4-1.3-1.9c-0.6-0.6-1.5-0.6-2.1,0c0,0,0,0,0,0c-0.3,0.3-0.5,0.6-0.6,1C92.8,33.4,92.3,34.2,91.1,33.8L91.1,33.8z
				 M139,39.1c-0.9,0.5-2,0.7-3,0.5c-0.5-0.2-1-0.2-1.5-0.1c-0.6,0.2-1,0.8-0.9,1.4c0,0.7,0.5,1.3,1.2,1.5c1,0.3,2,0.3,3,0.2
				c1.3-0.2,2.5-0.6,3.5-1.3c1.2-0.7,1.6-2.3,0.9-3.5c-0.3-0.5-0.7-0.8-1.2-1.1c-0.7-0.3-1.4-0.5-2.1-0.6c-1-0.1-2.1-0.3-3.1-0.5
				c-0.1,0-0.3-0.1-0.4-0.2c0-0.1,0.1-0.2,0.2-0.3c1.1-0.7,2.6-0.7,3.7,0.1c0.4,0.4,1.1,0.5,1.6,0.3c0.5-0.2,0.9-0.8,0.9-1.3
				c0-0.8-0.5-1.6-1.2-1.9c-1.9-0.9-4.2-0.9-6.1,0.1c-1.1,0.5-1.9,1.5-2.2,2.7c-0.3,0.8,0,1.8,0.6,2.4c0.8,0.7,1.9,1.1,3,1.1
				C136.9,38.6,137.9,38.8,139,39.1z M107.7,37.3c-0.5-0.4-0.9-0.8-1.2-1.3c-0.7-0.9-1.5-1.6-2.5-2.3c-0.8-0.5-1.9-0.3-2.4,0.5
				c-0.1,0.2-0.2,0.3-0.2,0.5c-0.2,0.5-0.3,1.1-0.3,1.7c0,1.6,0,3.1,0,4.7c0,0.7,0.5,1.3,1.3,1.3c0.1,0,0.1,0,0.2,0
				c0.7,0.1,1.3-0.5,1.4-1.2c0,0,0-0.1,0-0.1c0-1,0-2,0-3c0-0.1-0.1-0.3,0.1-0.4c0.2-0.1,0.2,0.1,0.3,0.2c0.4,0.4,0.8,0.9,1.1,1.3
				c0.7,0.9,1.4,1.7,2.2,2.4c1.4,1.1,2.5,0.5,3-0.8c0.1-0.3,0.2-0.7,0.2-1c0-1.7,0-3.3-0.3-5c0-0.7-0.2-1.4-0.6-2.1
				c-0.3-0.7-1-1-1.7-0.7c-0.2,0.1-0.4,0.2-0.5,0.4c-0.3,0.3-0.5,0.8-0.5,1.3C107.4,34.9,107.5,36.1,107.7,37.3z M110,49l0.2-0.1
				c0.7,0.8,1.4,1.6,2.1,2.4c0.5,0.7,1.1,1.3,1.9,1.7c0.7,0.5,1.7,0.3,2.1-0.4c0.1-0.1,0.1-0.2,0.2-0.3c0.2-0.4,0.2-0.8,0.2-1.1
				c0.1-1.5,0-3-0.2-4.4c0-0.8-0.2-1.7-0.6-2.4c-0.3-0.6-1-0.9-1.6-0.6c-0.2,0.1-0.3,0.2-0.4,0.3c-0.3,0.3-0.5,0.7-0.5,1.2
				c0,1,0.1,2,0.2,2.9c0,0.1,0.1,0.4,0,0.4s-0.3-0.1-0.4-0.3c-0.7-1-1.6-1.9-2.6-2.7c-1.5-1.1-2.9-0.6-3.2,1.3
				c-0.2,1.9-0.2,3.7-0.1,5.6c0,0.3,0.2,0.6,0.5,0.8c0.4,0.3,1,0.4,1.5,0.2c0.5-0.2,0.8-0.7,0.8-1.3C110,51,110,50,110,49z
				 M122,53.4c1.3-0.1,2.5-0.6,3.5-1.4c0.6-0.5,0.7-1.3,0.3-1.9c-0.5-0.6-1.3-0.7-1.9-0.3c-0.6,0.4-1.3,0.7-1.9,0.9
				c-0.5,0.2-1.1,0-1.4-0.4c-0.8-1-0.7-2.5,0.3-3.4c0,0,0.1-0.1,0.1-0.1c0.7-0.5,1.7-0.4,2.3,0.2c0.2,0.2,0.4,0.4,0.7,0.5
				c0.5,0.2,1.2,0.2,1.6-0.2c0.4-0.4,0.5-0.9,0.3-1.4c-0.4-1.1-1.4-1.9-2.5-2.1c-2.7-0.6-5.4,1.2-6,3.9c-0.1,0.7-0.1,1.4,0,2.1
				C117.7,52,119.7,53.6,122,53.4z M145.2,41.3L145.2,41.3c0,0.2,0,0.3,0,0.5c0,0.7,0.5,1.4,1.2,1.5c0.8,0.1,1.5-0.4,1.6-1.1
				c0-0.1,0-0.1,0-0.2c0.1-0.8,0.1-1.7,0.2-2.5c0-0.8,0.3-1.5,0.8-2.1c1.1-1.1,2.1-2.2,3-3.5c0.5-0.5,0.6-1.4,0-1.9
				c-0.2-0.3-0.6-0.4-0.9-0.4c-0.5-0.1-1,0.1-1.3,0.6c-0.7,0.8-1.4,1.6-2.1,2.4c-0.5,0.6-0.6,0.5-1-0.1c-0.1-0.2-0.2-0.3-0.3-0.5
				c-0.2-0.5-0.5-0.9-0.9-1.2c-0.5-0.6-1.5-0.6-2-0.1c-0.2,0.2-0.4,0.5-0.4,0.8c-0.1,0.5,0.1,0.9,0.4,1.3c0.6,1,1.3,1.9,2,2.8
				c0.1,0.1,0.2,0.3,0.2,0.5C145.5,39.1,145.3,40.2,145.2,41.3z M80.5,37.5c0,1,0.1,2.1,0.3,3.1c0,0.6,0.2,1.2,0.5,1.7
				c0.4,0.7,1,0.6,1.6,0.6c0.5,0,0.9-0.4,1-0.9c0.1-0.5,0.1-1.1-0.1-1.6c-0.1-0.4,0-0.5,0.4-0.6c0.6,0,1.3-0.1,1.9-0.3
				c0.6-0.2,0.9-0.8,0.9-1.4c-0.1-0.7-0.7-1.3-1.4-1.3c-0.6,0-1.1,0.1-1.6,0.1c-0.2,0-0.4,0-0.4-0.3c-0.1-0.6,0.3-1.1,0.9-1.2
				c0,0,0.1,0,0.1,0c0.5,0,1.1,0,1.6,0.2c1,0.2,1.5,0.1,1.8-0.6c0.6-1.1,0.1-2-1.2-2.3c-0.9-0.2-1.9-0.3-2.8-0.2
				c-1.5,0.1-2.8,1.1-3.2,2.5C80.5,35.9,80.4,36.7,80.5,37.5z M97.9,25.9c0,2.4,1.9,4.3,4.3,4.3c2.4,0,4.3-1.9,4.3-4.3
				c0-2.4-1.9-4.3-4.3-4.3C99.8,21.6,97.9,23.5,97.9,25.9z M113.9,38c0,0.8,0,1.6,0,2.4c-0.1,0.8,0.5,1.6,1.4,1.7c0.1,0,0.1,0,0.2,0
				c0.9-0.1,1.5-0.8,1.5-1.7c-0.1-1.6,0-3.1,0-4.7c0-0.6,0.1-0.8,0.8-0.8c0.7,0.1,1.3-0.5,1.4-1.2c0,0,0-0.1,0-0.1
				c0.1-0.7-0.4-1.4-1.2-1.5c-1.8-0.4-3.8-0.2-5.5,0.6c-0.7,0.2-1.1,1-0.9,1.7c0,0.1,0,0.1,0.1,0.2c0.3,0.7,1.1,1.1,1.8,0.9
				c0,0,0.1,0,0.1,0c0.3-0.1,0.4,0,0.4,0.2C113.9,36.4,113.9,37.2,113.9,38L113.9,38z M103.7,49.3c0,0.8,0,1.6,0.1,2.4
				c0,0.7,0.6,1.2,1.3,1.1c0.1,0,0.2,0,0.3-0.1c0.7-0.1,1.1-0.7,1.1-1.4c0-1.8,0-3.6,0.1-5.4c0.1-0.9-0.4-1.4-1.3-1.5
				c-0.7-0.1-1.3,0.3-1.4,1c0,0,0,0,0,0.1C103.7,46.8,103.7,48,103.7,49.3z M96.4,25.9c-0.1-2.6,1.6-4.9,4.1-5.6
				c2-0.7,4.2-0.2,5.7,1.2c0.2,0.2,0.4,0.4,0.6,0.2c0.2-0.2-0.1-0.4-0.2-0.6c-1.5-1.4-3.6-1.9-5.6-1.5c-3.5,0.7-5.7,4-5,7.5
				c0,0,0,0.1,0,0.1c0.8,3.5,4.2,5.7,7.6,4.9c0.8-0.2,1.5-0.5,2.2-0.9c0.3-0.2,0.6-0.4,0.9-0.7c0.1-0.1,0.2-0.3,0.1-0.4c0,0,0,0,0,0
				c-0.1-0.2-0.3-0.1-0.4,0l-0.3,0.3c-0.9,0.8-2,1.3-3.2,1.4c-3.2,0.3-6-2-6.4-5.2C96.4,26.3,96.4,26.1,96.4,25.9z M93.3,25.9
				c0-1.2-0.9-2.1-2-2.1c0,0-0.1,0-0.1,0c-1.2,0-2.1,0.9-2.2,2.1c0,0,0,0,0,0c0,1.2,1,2.1,2.1,2.1C92.3,28.1,93.3,27.1,93.3,25.9
				C93.3,25.9,93.3,25.9,93.3,25.9L93.3,25.9z M131.1,27.7h-11.3c-0.3,0-0.8-0.2-0.8,0.3s0.5,0.2,0.7,0.2h23.1c0.2,0,0.3,0,0.3-0.3
				c0-0.3-0.2-0.2-0.3-0.2L131.1,27.7L131.1,27.7z M127.6,53.3c0,0,0.1,0,0.2,0c0.4-0.4,1.1-0.4,1.6-0.1c0.6,0.3,0.9,0,0.8-0.6
				c-0.1-0.4,0-0.9,0.2-1.2c0.3-0.4,0.1-0.9-0.4-0.9c-0.3,0-0.5-0.2-0.6-0.4c-0.4-0.6-0.8-0.6-1.2-0.1c-0.2,0.3-0.5,0.4-0.8,0.5
				c-0.6,0.1-0.8,0.4-0.4,0.9c0.3,0.3,0.3,0.7,0.2,1.1c-0.1,0.3,0,0.6,0.2,0.7C127.3,53.3,127.4,53.3,127.6,53.3z M122.4,25.9h-6.1
				c-0.2,0-0.5-0.1-0.5,0.3s0.3,0.3,0.6,0.3h12.1c0.2,0,0.6,0.1,0.5-0.3c0-0.4-0.3-0.3-0.5-0.3H122.4z M142.2,25.8
				c0.5,0.1,1.1-0.2,1.2-0.7c0.1-0.5-0.2-1.1-0.7-1.2c-0.2,0-0.4,0-0.5,0c-0.5-0.1-1.1,0.2-1.2,0.7s0.2,1.1,0.7,1.2
				C141.8,25.8,142,25.8,142.2,25.8z M137.7,25.8c0.6,0,1-0.4,1-1c0-0.6-0.4-1-1-1s-1,0.4-1,1C136.7,25.3,137.2,25.8,137.7,25.8z
				 M86.1,24.9c-0.6,0-1,0.4-1,1c0,0.6,0.4,1,1,1c0.6,0,1-0.4,1-1C87.1,25.4,86.7,24.9,86.1,24.9z M147.5,24.8
				c0.2-0.5-0.1-1.1-0.7-1.2c-0.5-0.2-1.1,0.1-1.2,0.7c-0.1,0.2-0.1,0.4,0,0.6c0,0.6,0.4,1,1,1C147.1,25.8,147.5,25.4,147.5,24.8
				C147.5,24.8,147.5,24.8,147.5,24.8z M111.9,26.4c0,0.9,0,1.8,0,2.6c0,0.2-0.1,0.4,0.2,0.4c0.3,0,0.2-0.3,0.2-0.4
				c0-1.7,0-3.5,0-5.2c0-0.2,0.1-0.4-0.2-0.4c-0.3,0-0.2,0.3-0.2,0.4C111.9,24.7,111.9,25.5,111.9,26.4z M113.7,29
				c0.3-0.1,0.6-0.4,0.5-0.7c0-1.2,0-2.4,0-3.6c0-0.3-0.2-0.6-0.5-0.7V29z M111.5,26.5c0-0.9,0-1.7,0-2.5c0-0.1,0.1-0.3-0.2-0.4
				c-0.3,0-0.3,0.2-0.3,0.4c0,0.5,0,1,0,1.5c0,1.1,0,2.2,0,3.4c0,0.2,0,0.5,0.3,0.5c0.3,0,0.2-0.3,0.2-0.4
				C111.5,28.1,111.5,27.3,111.5,26.5z M112.9,26.5c0,0.8,0,1.7,0,2.5c0,0.1-0.1,0.4,0.2,0.4c0.3,0,0.3-0.1,0.3-0.3v-5.1
				c0-0.2-0.1-0.3-0.3-0.4c-0.2,0-0.2,0.2-0.2,0.4C112.8,24.8,112.8,25.6,112.9,26.5L112.9,26.5z M110.5,29v-5
				c-0.3,0.1-0.5,0.4-0.5,0.7c0,1.2,0,2.4,0,3.6C109.9,28.6,110.1,28.9,110.5,29z M109.5,28v-3C108.9,25.9,108.9,27.1,109.5,28
				L109.5,28z M114.6,28c0.7-0.9,0.7-2.2,0-3.1V28z"/>
			<path id="_Compound_Path_2" class="st1" d="M122.1,33.8c1.2,0.3,1.7-0.3,2.1-1.2c0.1-0.2,0.2-0.4,0.3-0.6
				c0.4-0.8,1.3-1.1,2.1-0.7c0.3,0.1,0.5,0.3,0.7,0.6c0.4,0.4,0.7,0.9,0.9,1.5c0.2,0.5,0.5,0.8,1,0.7c0.4,0,0.9,0,1.3,0.2
				c1.3,0.3,1.3,1.3,0.6,2.4c-0.2,0.3-0.5,0.6-0.8,0.8c-0.3,0.2-0.4,0.5-0.2,0.8c0.4,0.9,0.6,1.9,0.6,2.8c0.1,0.8-0.5,1.5-1.3,1.5
				c-0.3,0-0.5,0-0.7-0.1c-0.9-0.4-1.8-0.9-2.5-1.6c-0.3-0.3-0.7-0.3-1-0.1c0,0,0,0,0,0c-0.7,0.5-1.5,0.9-2.2,1.4
				c-0.5,0.4-1.2,0.3-1.8-0.1c-0.4-0.4-0.6-1-0.4-1.6c0.2-0.7,0.3-1.4,0.6-2.1c0.1-0.3,0.1-0.6-0.2-0.8c-0.4-0.4-0.7-0.8-1-1.1
				c-0.5-0.5-0.6-1.2-0.3-1.8c0.2-0.5,0.8-0.9,1.4-0.8H122.1z M124.5,35.7c-0.4,0-0.8,0-0.9,0.3c-0.2,0.3,0.1,0.6,0.3,0.8
				s0.2,0.7,0.1,1s-0.2,0.6,0.1,0.8c0.3,0.1,0.6,0.1,0.8-0.1c0.4-0.3,0.9-0.5,1.3,0c0.1,0.1,0.3,0.2,0.5,0.2c0.4,0.2,0.6,0,0.6-0.4
				c0-0.2,0-0.4-0.1-0.6c-0.2-0.3-0.1-0.7,0.2-1c0,0,0,0,0.1,0c0.2-0.1,0.3-0.4,0.2-0.6c-0.1-0.2-0.3-0.3-0.5-0.2
				c-0.4,0.1-0.6-0.2-0.8-0.5c-0.4-0.8-0.8-0.8-1.3,0C124.9,35.5,124.7,35.8,124.5,35.7z"/>
			<path id="_Compound_Path_3" class="st1" d="M91.1,33.8c1.2,0.4,1.7-0.4,2.1-1.3c0.1-0.4,0.4-0.7,0.6-1c0.6-0.6,1.5-0.6,2.1,0
				c0,0,0,0,0,0c0.5,0.5,1,1.2,1.3,1.9c0.2,0.4,0.4,0.6,0.8,0.5c0.4,0,0.8,0,1.2,0.1c1.4,0.3,1.5,1.1,0.9,2.3c-0.2,0.4-0.6,0.8-1,1
				c-0.3,0.2-0.3,0.4-0.2,0.8c0.3,0.8,0.5,1.6,0.6,2.4c0.2,0.7-0.1,1.4-0.6,1.8c-0.5,0.3-1.2,0.3-1.7,0c-0.9-0.4-1.7-1-2.4-1.6
				c-0.2-0.2-0.4-0.2-0.6,0c-0.8,0.5-1.5,1-2.3,1.4c-0.5,0.4-1.2,0.4-1.7,0c-0.5-0.3-0.8-1-0.5-1.6c0.2-0.7,0.3-1.4,0.5-2
				c0.1-0.3,0.1-0.7-0.2-1l-1-1c-0.4-0.5-0.5-1.1-0.3-1.7c0.2-0.5,0.8-0.9,1.4-0.9L91.1,33.8z M93.5,35.7c-0.8,0-1.2,0.4-0.8,0.8
				c0.4,0.4,0.5,1,0.3,1.6c-0.1,0.5,0.2,0.7,0.7,0.5c0.7-0.1,1.3-0.1,2,0c0.5,0.2,0.8,0,0.8-0.5c0-0.2-0.1-0.3-0.1-0.5
				c-0.2-0.3-0.1-0.6,0.1-0.8c0,0,0,0,0.1,0c0.2-0.2,0.3-0.5,0.2-0.7c-0.1-0.2-0.3-0.3-0.5-0.2c-0.4,0.1-0.5-0.2-0.7-0.5
				c-0.4-0.8-0.9-0.8-1.3,0C93.9,35.5,93.8,35.8,93.5,35.7z"/>
			<path id="_Path_" class="st1" d="M139,39.1c-1-0.3-2.1-0.5-3.1-0.6c-1.1,0-2.2-0.4-3-1.1c-0.7-0.6-0.9-1.5-0.6-2.3
				c0.3-1.2,1.1-2.2,2.2-2.7c1.9-1,4.1-1.1,6.1-0.1c0.8,0.3,1.3,1,1.3,1.9c0,0.6-0.3,1.1-0.8,1.3c-0.6,0.2-1.2,0.1-1.6-0.3
				c-1.1-0.8-2.5-0.8-3.7-0.1c-0.1,0.1-0.3,0.2-0.2,0.3c0,0.1,0.2,0.2,0.3,0.2c1,0.2,2.1,0.3,3.1,0.5c0.7,0.1,1.5,0.3,2.1,0.6
				c1.3,0.6,1.9,2.1,1.3,3.4c-0.2,0.5-0.6,0.9-1.1,1.2c-1.1,0.7-2.3,1.1-3.6,1.3c-1,0.2-2,0.1-3-0.1c-0.7-0.2-1.2-0.8-1.2-1.5
				c0-0.6,0.3-1.2,0.9-1.4c0.5-0.1,1,0,1.5,0.1C137,39.8,138,39.6,139,39.1z"/>
			<path id="_Path_2" class="st1" d="M107.7,37.3c-0.2-1.2-0.4-2.4-0.4-3.6c0-0.5,0.2-0.9,0.5-1.3c0.5-0.6,1.3-0.6,1.8-0.2
				c0.2,0.1,0.3,0.3,0.4,0.5c0.3,0.6,0.5,1.3,0.6,2.1c0.2,1.7,0.3,3.3,0.3,5c0,0.3-0.1,0.7-0.2,1c-0.5,1.3-1.5,1.8-3,0.8
				c-0.8-0.7-1.6-1.5-2.2-2.4c-0.4-0.4-0.8-0.9-1.1-1.3c-0.1-0.1-0.2-0.2-0.3-0.2s-0.1,0.2-0.1,0.4c0,1,0,2,0,3
				c0,0.7-0.6,1.3-1.3,1.3c0,0-0.1,0-0.1,0c-0.7,0.1-1.4-0.4-1.4-1.2c0-0.1,0-0.1,0-0.2c0-1.6,0-3.1,0-4.7c0-0.6,0.1-1.1,0.3-1.7
				c0.3-0.9,1.2-1.5,2.2-1.2c0.2,0.1,0.4,0.1,0.5,0.2c0.9,0.6,1.8,1.4,2.5,2.3C106.9,36.5,107.3,36.9,107.7,37.3z"/>
			<path id="_Path_3" class="st1" d="M110,49c0,1,0,2,0,3c0.1,0.5-0.3,1.1-0.8,1.3c-0.5,0.2-1.1,0.2-1.5-0.2
				c-0.3-0.2-0.4-0.5-0.5-0.8c-0.1-1.9,0-3.7,0.1-5.6c0.3-1.9,1.7-2.4,3.2-1.3c1,0.8,1.8,1.7,2.6,2.7c0.1,0.1,0.2,0.4,0.4,0.3
				s0-0.3,0-0.4c-0.2-1-0.3-2-0.2-2.9c0-0.4,0.2-0.9,0.5-1.1c0.5-0.5,1.2-0.5,1.7-0.1c0.1,0.1,0.2,0.3,0.3,0.4
				c0.4,0.8,0.7,1.6,0.7,2.5c0.2,1.5,0.2,3,0.2,4.4c0,0.4-0.1,0.8-0.2,1.1c-0.3,0.8-1.1,1.2-1.9,0.9c-0.1,0-0.2-0.1-0.3-0.2
				c-0.7-0.4-1.4-1-1.9-1.7c-0.7-0.8-1.4-1.6-2.1-2.4L110,49z"/>
			<path id="_Path_4" class="st1" d="M122,53.4c-2.3,0.2-4.3-1.4-4.7-3.7c-0.6-2.7,1.2-5.4,3.9-6c0.7-0.1,1.4-0.1,2.1,0
				c1.1,0.3,2.1,1.1,2.5,2.1c0.2,0.5,0.1,1.1-0.3,1.4c-0.4,0.4-1.1,0.5-1.6,0.2c-0.2-0.1-0.5-0.3-0.6-0.5c-0.6-0.7-1.6-0.8-2.3-0.2
				c-1.1,0.8-1.3,2.3-0.6,3.4c0,0,0.1,0.1,0.1,0.1c0.3,0.4,0.9,0.6,1.4,0.4c0.7-0.2,1.3-0.5,1.9-0.9c0.6-0.4,1.4-0.3,1.9,0.3
				c0.4,0.6,0.3,1.5-0.3,1.9C124.5,52.8,123.3,53.3,122,53.4z"/>
			<path id="_Path_5" class="st1" d="M145.2,41.3c0.1-1.1,0.2-2.2,0.4-3.2c0-0.2,0-0.4-0.1-0.5c-0.7-0.9-1.4-1.8-2-2.8
				c-0.3-0.3-0.4-0.8-0.4-1.2c0.1-0.8,0.8-1.3,1.6-1.2c0.3,0,0.6,0.2,0.8,0.4c0.4,0.4,0.7,0.8,0.9,1.2c0.1,0.2,0.2,0.4,0.3,0.5
				c0.4,0.6,0.5,0.6,1,0.1c0.7-0.8,1.4-1.6,2.1-2.4c0.3-0.4,0.8-0.7,1.3-0.7c0.8,0,1.4,0.6,1.3,1.4c0,0.3-0.1,0.7-0.4,0.9
				c-0.9,1.2-1.9,2.4-3,3.5c-0.5,0.6-0.8,1.3-0.8,2.1c-0.1,0.8-0.1,1.7-0.2,2.5c0,0.8-0.6,1.4-1.4,1.4c-0.1,0-0.2,0-0.3,0
				c-0.7-0.1-1.2-0.8-1.2-1.5C145.2,41.6,145.2,41.4,145.2,41.3L145.2,41.3z"/>
			<path id="_Path_6" class="st1" d="M80.5,37.5c0-0.8,0-1.7,0.2-2.5c0.5-1.4,1.8-2.4,3.2-2.5c0.9-0.1,1.9-0.1,2.8,0.1
				C88,33,88.4,34,87.9,35c-0.3,0.7-0.9,0.8-1.8,0.6c-0.5-0.1-1.1-0.2-1.6-0.2c-0.6,0-1.1,0.5-1.1,1.1c0,0.1,0,0.1,0,0.2
				c0,0.3,0.2,0.3,0.4,0.3c0.6,0,1.1-0.1,1.6-0.1c0.8,0,1.4,0.6,1.4,1.4c0,0.6-0.3,1.1-0.9,1.3c-0.6,0.2-1.2,0.3-1.8,0.3
				c-0.4,0-0.5,0.2-0.4,0.6c0.2,0.5,0.2,1,0.1,1.6c-0.1,0.5-0.5,0.8-1,0.9c-0.6,0-1.2,0.1-1.6-0.6c-0.3-0.5-0.4-1.1-0.5-1.7
				C80.5,39.6,80.4,38.6,80.5,37.5z"/>
			<path id="_Compound_Path_4" class="st1" d="M97.9,25.9c0-2.4,1.9-4.3,4.3-4.3s4.3,1.9,4.3,4.3s-1.9,4.3-4.3,4.3c0,0,0,0,0,0
				C99.8,30.2,97.9,28.3,97.9,25.9z M102.2,27.8c1.1,0,1.9-0.9,1.9-1.9c0-1.1-0.9-1.9-2-1.9c-1.1,0-1.9,0.9-1.9,2
				C100.3,27,101.2,27.8,102.2,27.8z"/>
			<path id="_Path_7" class="st1" d="M113.9,38c0-0.8,0-1.6,0-2.4c0-0.3-0.1-0.4-0.4-0.2c-0.7,0.3-1.5,0-1.9-0.7c0,0,0-0.1,0-0.1
				c-0.3-0.7,0-1.5,0.7-1.8c0,0,0.1,0,0.1,0c1.7-0.8,3.7-1,5.5-0.6c0.7,0.1,1.2,0.7,1.1,1.4c0,0.7-0.6,1.3-1.3,1.3
				c-0.1,0-0.1,0-0.2,0c-0.6,0-0.8,0.2-0.8,0.8c0,1.6,0,3.1,0,4.7c0.1,0.9-0.5,1.6-1.4,1.8c-0.8,0-1.5-0.7-1.5-1.5c0,0,0-0.1,0-0.1
				C113.9,39.6,113.9,38.8,113.9,38z"/>
			<path id="_Path_8" class="st1" d="M103.7,49.3c0-1.2,0-2.5,0.2-3.7c0.1-0.7,0.6-1.2,1.3-1.1c0,0,0,0,0.1,0c1,0.1,1.4,0.6,1.3,1.5
				c-0.2,1.8-0.1,3.6-0.1,5.4c0.1,0.7-0.4,1.3-1.1,1.5c-0.6,0.2-1.3-0.1-1.5-0.8c0-0.1,0-0.2-0.1-0.3
				C103.7,50.9,103.7,50.1,103.7,49.3z"/>
			<path id="_Path_9" class="st1" d="M96.4,25.9c0,3.2,2.5,5.8,5.7,5.9c0.2,0,0.4,0,0.7,0c1.2-0.1,2.3-0.6,3.2-1.4l0.3-0.3
				c0.1-0.1,0.3-0.2,0.4,0c0.1,0.1,0.1,0.3,0,0.4c0,0,0,0,0,0c-0.3,0.2-0.6,0.5-0.9,0.7c-3,2-6.9,1.2-8.9-1.8
				c-0.4-0.7-0.7-1.4-0.9-2.1c-0.7-3.4,1.5-6.8,4.9-7.6c0,0,0.1,0,0.1,0c2-0.4,4,0.1,5.5,1.5c0.2,0.2,0.4,0.3,0.2,0.6
				c-0.2,0.2-0.4,0-0.6-0.2c-1.5-1.4-3.7-1.9-5.6-1.2C98,21,96.3,23.3,96.4,25.9L96.4,25.9z"/>
			<path id="_Path_10" class="st1" d="M93.3,25.9c0,1.2-1,2.1-2.1,2.1c0,0,0,0,0,0c-1.2,0-2.1-1-2.1-2.1c0-1.2,1-2.1,2.1-2.1
				c0,0,0,0,0,0C92.3,23.8,93.3,24.7,93.3,25.9C93.3,25.9,93.3,25.9,93.3,25.9z"/>
			<path id="_Path_11" class="st1" d="M131.1,27.7h11.8c0.2,0,0.3,0,0.3,0.2s-0.2,0.2-0.3,0.3h-23.1c-0.3,0-0.7,0.1-0.7-0.2
				c0-0.4,0.5-0.3,0.8-0.3L131.1,27.7z"/>
			<path id="_Path_12" class="st1" d="M127.6,53.3c-0.3,0.1-0.6-0.1-0.6-0.4c0-0.1,0-0.2,0.1-0.3c0.2-0.4,0.1-0.8-0.2-1.1
				c-0.4-0.5-0.2-0.9,0.4-0.9c0.3,0,0.6-0.2,0.8-0.5c0.4-0.5,0.9-0.5,1.2,0.1c0.1,0.2,0.3,0.4,0.6,0.4c0.5,0.1,0.8,0.5,0.4,0.9
				c-0.3,0.3-0.4,0.7-0.2,1.2c0.1,0.6-0.2,0.9-0.8,0.6c-0.5-0.3-1.1-0.3-1.6,0.1C127.7,53.3,127.6,53.3,127.6,53.3z"/>
			<path id="_Path_13" class="st1" d="M122.4,25.9h6.1c0.2,0,0.5-0.1,0.6,0.3c0,0.4-0.3,0.3-0.6,0.3h-12.1c-0.2,0-0.5,0.1-0.6-0.3
				c0-0.3,0.3-0.3,0.5-0.3L122.4,25.9z"/>
			<path id="_Path_14" class="st1" d="M142.2,25.8c-0.6,0-1-0.4-1-1c0-0.6,0.4-1,1-1c0.6,0,1,0.4,1,1
				C143.2,25.3,142.7,25.8,142.2,25.8z"/>
			<path id="_Path_15" class="st1" d="M137.7,25.8c-0.6,0-1-0.4-1-1c0-0.6,0.4-1,1-1s1,0.4,1,1C138.7,25.3,138.3,25.8,137.7,25.8z"
				/>
			<path id="_Path_16" class="st1" d="M86.1,24.9c0.5,0,1,0.5,1,1c0,0.6-0.4,1-1,1c-0.6,0-1-0.4-1-1C85.1,25.4,85.6,24.9,86.1,24.9z
				"/>
			<path id="_Path_17" class="st1" d="M147.5,24.8c0,0.5-0.4,1-0.9,1c0,0-0.1,0-0.1,0c-0.6,0-1-0.4-1-1c-0.2-0.5,0.1-1.1,0.7-1.2
				c0.5-0.2,1.1,0.1,1.2,0.7C147.5,24.4,147.5,24.6,147.5,24.8L147.5,24.8z"/>
			<path id="_Path_18" class="st1" d="M111.9,26.4c0-0.9,0-1.7,0-2.5c0-0.2-0.1-0.4,0.2-0.4c0.3,0,0.2,0.3,0.2,0.4
				c0,1.7,0,3.5,0,5.2c0,0.2,0.1,0.4-0.2,0.4c-0.3,0-0.2-0.3-0.2-0.4C111.9,28.2,111.9,27.3,111.9,26.4z"/>
			<path id="_Path_19" class="st1" d="M113.7,29v-5c0.3,0.1,0.6,0.4,0.5,0.7c0,1.2,0,2.4,0,3.6C114.3,28.6,114,28.9,113.7,29z"/>
			<path id="_Path_20" class="st1" d="M111.5,26.5c0,0.8,0,1.6,0,2.4c0,0.1,0.2,0.4-0.2,0.4c-0.3,0-0.3-0.3-0.3-0.5
				c0-1.1,0-2.2,0-3.4c0-0.5,0-1,0-1.5c0-0.2,0.1-0.4,0.3-0.4c0.3,0,0.2,0.2,0.2,0.4C111.5,24.8,111.5,25.7,111.5,26.5z"/>
			<path id="_Path_21" class="st1" d="M112.8,26.5c0-0.9,0-1.7,0-2.5c0-0.1-0.1-0.4,0.2-0.4c0.3,0,0.3,0.1,0.3,0.4V29
				c0,0.2-0.1,0.3-0.3,0.3s-0.2-0.2-0.2-0.4C112.8,28.2,112.8,27.3,112.8,26.5z"/>
			<path id="_Path_22" class="st1" d="M110.5,29c-0.3-0.1-0.5-0.4-0.5-0.7c0-1.2,0-2.4,0-3.6c0-0.3,0.2-0.6,0.5-0.7V29L110.5,29z"/>
			<path id="_Path_23" class="st1" d="M109.6,28c-0.7-0.9-0.7-2.1,0-3V28z"/>
			<path id="_Path_24" class="st1" d="M114.6,28.1V25C115.3,25.9,115.3,27.2,114.6,28.1z"/>
			<path id="_Path_25" class="st2" d="M124.5,35.7c0.3,0.1,0.4-0.1,0.6-0.4c0.5-0.8,0.9-0.8,1.3,0c0.2,0.3,0.3,0.6,0.8,0.5
				c0.2,0,0.4,0.1,0.5,0.2c0.1,0.2,0,0.5-0.2,0.6c-0.3,0.2-0.5,0.6-0.3,0.9c0,0,0,0,0,0.1c0.1,0.2,0.1,0.4,0.1,0.6
				c0,0.4-0.2,0.6-0.6,0.4c-0.2-0.1-0.3-0.1-0.5-0.2c-0.4-0.5-0.9-0.3-1.3,0c-0.2,0.2-0.5,0.3-0.8,0.2c-0.3-0.2-0.2-0.5-0.1-0.8
				c0.1-0.3,0.3-0.7-0.1-1s-0.5-0.4-0.3-0.8C123.7,35.6,124,35.7,124.5,35.7z"/>
			<path id="_Path_26" class="st3" d="M93.5,35.7c0.3,0.1,0.5-0.1,0.7-0.4c0.4-0.8,0.9-0.8,1.3,0c0.2,0.3,0.3,0.5,0.7,0.5
				c0.2-0.1,0.4,0,0.5,0.2c0.1,0.2,0,0.5-0.2,0.7c-0.3,0.2-0.4,0.5-0.2,0.8c0,0,0,0,0,0.1c0.1,0.2,0.1,0.3,0.1,0.5
				c0,0.5-0.3,0.8-0.8,0.5c-0.7-0.1-1.3-0.1-2,0c-0.4,0.2-0.8-0.1-0.7-0.5c0.2-0.5,0.1-1.2-0.3-1.6C92.2,36.1,92.7,35.7,93.5,35.7z"
				/>
			<path id="_Path_27" class="st4" d="M102.2,27.8c-1,0-1.9-0.9-1.9-1.9c0-1.1,0.9-1.9,1.9-2c1.1,0,2,0.8,2,1.9
				C104.2,27,103.3,27.8,102.2,27.8z"/>
		</g>
	</g>
</g>
</svg>
