<?xml version="1.0" encoding="utf-8"?>
<!-- Generator: Adobe Illustrator 22.1.0, SVG Export Plug-In . SVG Version: 6.00 Build 0)  -->
<svg version="1.1" id="Layer_1" xmlns="http://www.w3.org/2000/svg" xmlns:xlink="http://www.w3.org/1999/xlink" x="0px" y="0px"
	 viewBox="0 0 233 73" style="enable-background:new 0 0 233 73;" xml:space="preserve">
<style type="text/css">
	.st0{fill:#3D3D3D;}
	.st1{fill:#A1A1A0;}
</style>
<title>Asset 41</title>
<g id="Layer_2_1_">
	<g id="Layer_1-2">
		<g id="_Group_">
			<path id="_Compound_Path_" class="st0" d="M62.9,40.8c0.1-0.1,0.2,0,0.3,0c0.2,0,0.5,0,0.7,0c0.2-0.1,0.3-0.4,0.5-0.5l9.4-10.2
				c0.1-0.1,0.2-0.2,0.3,0c0.1,0.2,0.1,0,0.2,0l1.6-1.7c1.2-1.2,2.3-2.5,3.5-3.7c0.5-0.6,1.2-0.9,2-1c0,0,0.1,0,0.1,0h0.1
				c0,0.1,0.1,0,0.2,0c1.2,0,2.4,0,3.5,0H89c0.1,0.1,0,0.1,0,0.2c0,0.3,0,0.5,0,0.8c-0.1,0.7-0.1,1.3-0.1,2c0,0.1,0,0.2,0.2,0.2
				s0.2,0,0.2,0.2L89,28.3c0,0.1-0.1,0.2-0.2,0.2s-0.1,0-0.1,0.1s0.1,0.1,0.1,0.1h6.6c0.1,0,0.2,0,0.2,0.2c0,0.4,0,0.9,0,1.3
				c0,0.1,0,0.2-0.2,0.2h-0.3c-3.8,0-7.7,0-11.5,0c-0.5,0-0.9,0.3-0.9,0.8c0,0,0,0.1,0,0.1c0,0.4,0,0.7,0,1.1c0,0.1,0,0.1,0.2,0.1
				h12.6c0.2,0,0.2,0,0.2,0.2c0,0.4,0,0.8,0,1.2c0,0.1,0,0.2-0.2,0.2H83c-0.1,0-0.2,0-0.2,0.2c0,0.3,0,0.6,0,0.9
				c0,0.4,0.3,0.8,0.8,0.8h11.9c0.2,0,0.2,0,0.2,0.2c0,0.4,0,0.8,0,1.2c0,0.2,0,0.2-0.2,0.2H83.7c-1.3,0-2.3-0.9-2.5-2.2
				c0-0.1,0-0.2,0-0.4v-4c0-1.1,0.8-2.1,1.9-2.4c0.2,0,0.4,0,0.5,0h4.7c0,0,0.1,0,0.2-0.1c0-0.1-0.1-0.1-0.1-0.1
				c-0.1,0-0.1,0-0.1-0.1L88,26.9c0-0.1,0.1-0.1,0.1-0.1c0.1,0,0.2,0,0.2-0.2c0-0.5,0-1.1,0-1.6c0-0.1,0-0.2-0.1-0.2H82
				c-0.7,0-1.3,0.3-1.8,0.7c-0.1,0.1-0.2,0.2-0.3,0.3l-4.6,4.8c-0.1,0.1-0.1,0.1,0,0.2c0.2,0.1,0,0.1,0,0.1l-1.3,1.5l-0.1,0.1
				c0.1,0,0.1,0,0.2,0h4.9c0.2,0,0.2,0.1,0.2,0.2c0,0.4,0,0.8,0,1.2c0,0.1,0,0.2-0.2,0.2h-6.4c-0.1,0-0.2,0-0.3,0.1
				c-0.7,0.8-1.5,1.6-2.2,2.3l-0.1,0.1c0.2,0.1,0.3,0.3,0.4,0.5c0.1,0.1,0,0.3-0.1,0.4c0,0,0,0,0,0c-0.1,0-0.1,0.1-0.2,0.2
				c-0.1,0.2-0.2,0.5-0.3,0.8c0,0.1,0,0.1,0,0.2c0.1,0,0.1,0.1,0.2,0.2c0,0.2,0.1,0.2,0.3,0.2c0.4-0.1,0.7,0.1,0.8,0.5
				c0.2,0.6,0.5,1.2,0.8,1.8c0,0.1,0,0.2,0,0.3c-0.2,0.4-0.4,0.9-0.5,1.3c0,0.1-0.1,0.1-0.2,0.1h-0.6c-0.1,0-0.1,0-0.1,0.1
				c0,0.3,0,0.3-0.3,0.3h-3c-0.2,0-0.2,0-0.2-0.2c0-0.2,0-0.2-0.2-0.2h-3.4c-0.1,0-0.1,0-0.2,0c0,0,0-0.1,0-0.2
				C62.9,42.3,62.9,41.6,62.9,40.8z M75.2,31c-0.2-0.1-0.1-0.2,0-0.3c1.2-1.2,2.3-2.5,3.5-3.7c0.5-0.5,0.9-1,1.5-1.5
				c0.5-0.4,1.1-0.7,1.8-0.7c2.1,0,4.2,0,6.3,0c0.1,0,0.2,0,0.2,0.2c0,0.6,0,1.2,0,1.8c0,0.1,0,0.2-0.2,0.2s-0.1,0-0.1,0.1
				c0.1,0.4,0.2,0.7,0.3,1.1c0,0.1,0,0.1,0.1,0.1c0.2,0,0.1,0.2,0.2,0.3c0,0.1-0.1,0.1-0.2,0.1h-4.8c-0.2,0-0.4,0-0.6,0.1
				c-1,0.3-1.6,1.1-1.7,2.1c0,0.6,0,1.3,0,1.9c0,0.4,0,0.7,0,1.1c0,0.5,0,1.1,0.1,1.6c0.2,1.1,1.1,1.8,2.2,1.9c4,0,8,0,11.9,0
				c0.1,0,0.2,0,0.1-0.2V36c0-0.1,0-0.2-0.2-0.2H83.7c-0.5,0-1-0.4-1-0.9v-1c0-0.3,0-0.2,0.2-0.2h12.5c0.1,0,0.2,0,0.2-0.2
				c0-0.3,0-0.7,0-1c0-0.2,0-0.2-0.2-0.2H83c-0.2,0-0.2,0-0.2-0.2c0-0.4,0-0.8,0-1.3c0-0.4,0.4-0.8,0.8-0.8h11.8
				c0.2,0,0.2,0,0.2-0.2c0-0.3,0-0.7,0-1c0-0.2,0-0.2-0.2-0.2h-6.5c-0.1,0-0.2,0-0.2-0.1c0-0.2,0-0.2,0.2-0.2c0.2,0,0.1,0,0.2-0.1
				c0.1-0.4,0.1-0.7,0.2-1c0-0.1,0-0.2-0.1-0.1s-0.2,0-0.2-0.2c0-0.7,0-1.3,0.1-2c0-0.2,0-0.5,0-0.7c0-0.2,0-0.2-0.2-0.2
				c-2.3,0-4.7,0-7,0c-0.9,0-1.8,0.3-2.4,1c-1,1-1.9,2-2.9,3l-2.2,2.3c0,0-0.1,0.1-0.2,0s-0.2-0.1-0.3,0l-2.5,2.7L68,36.6
				c-1.3,1.4-2.6,2.8-3.9,4.2c0,0.1-0.1,0.1-0.2,0.1h-0.8c-0.1,0-0.1,0-0.1,0.1v1.9c0,0.1,0,0.2,0.2,0.2h3.6c0.1,0,0.1,0,0.1,0.1
				c0,0.1,0,0.1,0,0.2s0,0.2,0.2,0.2h2.9c0.3,0,0.3,0,0.3-0.3c0-0.1,0-0.1,0.1-0.1s0.4,0,0.6,0c0.2,0,0.1,0,0.2-0.1
				c0.2-0.4,0.4-0.8,0.5-1.3c0-0.1,0-0.1,0-0.2c-0.3-0.7-0.7-1.5-1-2.2c0-0.1-0.1-0.1-0.2-0.1h-0.6c-0.1,0-0.1,0-0.1-0.1
				c0-0.2-0.1-0.3-0.2-0.4c-0.1-0.1-0.1-0.1,0-0.2c0.1-0.3,0.3-0.6,0.4-0.9c0-0.1,0.1-0.1,0.2-0.1c0.1,0,0.2-0.1,0.1-0.2
				c-0.1-0.2-0.2-0.3-0.3-0.4c-0.1-0.1-0.1-0.1,0-0.2c0.7-0.8,1.5-1.6,2.2-2.4c0.1-0.1,0.2-0.2,0.4-0.2h6.3c0.2,0,0.2,0,0.2-0.2
				c0-0.3,0-0.6,0-0.9c0-0.2,0-0.2-0.2-0.2h-5c-0.1,0-0.1,0-0.2,0s0.1-0.1,0.1-0.1L75.2,31z"/>
			<path id="_Path_" class="st0" d="M89.1,23.6h-3.8c-1.2,0-2.4,0-3.5,0c-0.1,0-0.1,0-0.2,0H89.1z"/>
			<path id="_Path_2" class="st1" d="M62.9,40.8c0,0.7,0,1.4,0,2.1c0,0.1,0,0.1,0,0.2l0,0V40.8L62.9,40.8z"/>
			<path id="_Path_3" class="st0" d="M170.1,47.8L170.1,47.8v1.6l0,0V47.8z"/>
			<path id="_Path_4" class="st0" d="M81.6,23.6c0,0.1-0.1,0-0.1,0c0,0,0,0,0,0H81.6z"/>
			<path id="_Compound_Path_2" class="st0" d="M121.1,44.2h6.2c0.2,0,0.2,0,0.2,0.2c0,0.4,0,0.8,0,1.2c0,0.2,0,0.2-0.2,0.2h-12.4
				c-0.3,0-0.3,0-0.3,0.3v0.8c0,0.5,0.4,0.9,0.9,0.9c0,0,0,0,0.1,0h11.7c0.2,0,0.2,0,0.2,0.2c0,0.4,0,0.8,0,1.2c0,0.1,0,0.2-0.2,0.2
				h-11.8c-1.2,0-2.3-0.9-2.5-2.1c0-0.1,0-0.3,0-0.4V43c0-1.3,0.9-2.4,2.2-2.5c0.1,0,0.2,0,0.4,0h11.7c0.2,0,0.2,0,0.2,0.2
				c0,0.4,0,0.8,0,1.2c0,0.2,0,0.2-0.2,0.2h-11.8c-0.4,0-0.8,0.3-0.8,0.7c0,0,0,0.1,0,0.1c0,0.4,0,0.7,0,1.1c0,0.1,0,0.2,0.2,0.2
				L121.1,44.2L121.1,44.2z M121,45.7h4.2c0.7,0,1.4,0,2,0c0.1,0,0.2,0,0.2-0.2c0-0.3,0-0.7,0-1c0-0.2,0-0.2-0.2-0.2h-12.4
				c-0.2,0-0.2,0-0.2-0.2c0-0.4,0-0.8,0-1.1c0-0.1,0-0.2,0-0.3c0.1-0.4,0.5-0.7,0.9-0.7h11.8c0.1,0,0.1,0,0.1-0.1v-1
				c0-0.2,0-0.2-0.2-0.2h-11.7c-0.1,0-0.3,0-0.4,0c-1.1,0.2-2,1.2-2,2.3c0,1.3,0,2.7,0,4c0,1,0.6,1.8,1.5,2.2
				c0.4,0.2,0.9,0.2,1.3,0.2h11.4c0.1,0,0.1,0,0.1-0.1v-1c0-0.3,0-0.3-0.3-0.3h-11.6c-0.5,0-0.9-0.3-1-0.8c0-0.4,0-0.8,0-1.2
				c0-0.2,0-0.2,0.2-0.2L121,45.7z"/>
			<path id="_Compound_Path_3" class="st0" d="M134.4,49.4h-5.6c-0.2,0-0.2,0-0.2-0.2c0-0.4,0-0.8,0-1.2c0-0.2,0-0.2,0.2-0.2h10.8
				c0.2,0,0.5-0.1,0.7-0.2c0.4-0.3,0.5-1,0.2-1.4c-0.2-0.2-0.4-0.4-0.7-0.4h-8.8c-1.3,0-2.4-0.9-2.6-2.2c-0.2-1.4,0.8-2.8,2.2-3
				c0.1,0,0.3,0,0.4,0h11c0.3,0,0.2,0,0.2,0.2V42c0,0.1,0,0.2-0.1,0.2h-11.2c-0.4,0-0.7,0.2-0.8,0.6c-0.2,0.4-0.1,0.8,0.1,1.1
				c0.2,0.2,0.5,0.3,0.8,0.3c3,0,6.1,0,9.2,0c0.6,0,1.1,0.3,1.5,0.7c0.7,0.7,1,1.7,0.7,2.7c-0.3,1-1.1,1.7-2.1,1.9L134.4,49.4
				L134.4,49.4z M134.4,49.3h5.5c0.1,0,0.2,0,0.3,0c1.4-0.3,2.3-1.6,2.1-3c-0.1-0.4-0.2-0.7-0.4-1c-0.4-0.7-1.2-1.1-2.1-1.1
				c-2.9,0-5.9,0-8.8,0c-0.6,0-1.1-0.5-1.2-1.1c0,0,0-0.1,0-0.1c0.1-0.5,0.5-0.9,1-1h11c0.1,0,0.2,0,0.2-0.1c0-0.4,0-0.7,0-1.1
				c0-0.2,0-0.2-0.2-0.2h-11c-0.2,0-0.4,0-0.6,0.1c-1.4,0.2-2.3,1.5-2.1,2.9c0.2,1.3,1.4,2.3,2.7,2.1c2.9,0,5.8,0,8.7,0
				c0.6,0,1.1,0.5,1.1,1.1s-0.5,1.1-1.1,1.1h-10.7c-0.2,0-0.2,0.1-0.2,0.2c0,0.3,0,0.7,0,1c0,0.2,0,0.2,0.2,0.2L134.4,49.3z"/>
			<path id="_Compound_Path_4" class="st0" d="M138.6,28.5h6c0.1,0,0.2,0,0.2,0.1c0,0.4,0,0.9,0,1.3c0,0.1-0.1,0.2-0.2,0.2h-7
				c-1.6,0-3.2,0-4.8,0c-0.4,0-0.8,0.3-0.8,0.7c0,0,0,0.1,0,0.1c0,1.3,0,2.7,0,4c0,0.4,0.3,0.8,0.8,0.8h11.9c0.3,0,0.2,0,0.2,0.2
				c0,0.2,0,0.8,0,1.2c0,0.2,0,0.2-0.2,0.2h-11.7c-1.2,0-2.2-0.8-2.5-2c-0.1-0.2-0.1-0.5-0.1-0.7c0-1.3,0-2.6,0-3.8
				c0-0.8,0.4-1.5,1-2c0.4-0.3,0.9-0.5,1.4-0.5L138.6,28.5L138.6,28.5z M144.4,30c0.2,0,0.2,0,0.2-0.2c0-0.3,0-0.7,0-1.1
				c0-0.2,0-0.2-0.2-0.2h-11.8c-0.6,0-1.2,0.2-1.6,0.6c-0.5,0.4-0.7,1.1-0.7,1.7c0,1.3,0,2.5,0,3.8c0,0.2,0,0.4,0,0.5
				c0.2,1.2,1.2,2,2.4,2c3.9,0,7.8,0,11.6,0c0.2,0,0.2,0,0.2-0.2c0-0.3,0-0.7,0-1c0-0.2,0-0.2-0.2-0.2h-11.7c-0.6,0-1-0.4-1-1
				c0-1.3,0-2.6,0-3.9c-0.1-0.5,0.3-0.9,0.7-1c0.1,0,0.1,0,0.2,0h11.8V30z"/>
			<path id="_Compound_Path_5" class="st0" d="M152.9,34.7h-5.2c-0.1,0-0.2,0-0.2,0.2c0,0.8,0,1.5,0,2.3c0,0.1,0,0.2-0.2,0.2H146
				c-0.2,0-0.2,0-0.2-0.2c0-0.6,0-1.2,0-1.8c0-1.4,0-2.8,0-4.3c0-0.6,0.2-1.2,0.6-1.7c0.5-0.5,1.1-0.8,1.8-0.8h9.5
				c1.1,0,2,0.8,2.2,1.8c0,0.2,0,0.4,0,0.6v6.2c0,0.2,0,0.2-0.2,0.2h-1.2c-0.1,0-0.2,0-0.2-0.2v-2.3c0-0.1,0-0.2-0.2-0.2L152.9,34.7
				z M152.9,34.6h5.3c0.3,0,0.2,0,0.2,0.2c0,0.7,0,1.5,0,2.2c0,0.1,0,0.2,0.2,0.2h1.1c0.2,0,0.2,0,0.2-0.2c0-2.1,0-4.1,0-6.2
				c0-0.2,0-0.4,0-0.6c-0.2-1-1.1-1.6-2.1-1.7h-9.6c-0.3,0-0.7,0.1-1,0.2c-0.9,0.4-1.4,1.3-1.3,2.2c0,2,0,4,0,6c0,0.1,0,0.1,0.1,0.1
				h1.2c0.1,0,0.2,0,0.2-0.2c0-0.8,0-1.5,0-2.3c0-0.2,0-0.2,0.2-0.2L152.9,34.6z"/>
			<path id="_Compound_Path_6" class="st0" d="M109.2,34.4c0.6,0.7,1.2,1.3,1.8,1.9c0.1,0.1,0.1,0.2,0,0.3c-0.3,0.3-0.6,0.5-0.9,0.8
				c-0.1,0.1-0.2,0.1-0.3,0l-2.6-2.7c-0.1-0.1-0.2-0.2-0.3-0.1h-8.3c-0.2,0-0.2,0-0.2,0.2c0,0.8,0,1.6,0,2.4c0,0.1,0,0.2-0.2,0.2
				c-0.4,0-0.9,0-1.3,0c-0.1,0-0.2,0-0.2-0.2c0-2.4,0-4.7,0-7.1c0.1-0.8,0.6-1.4,1.4-1.6c0.2,0,0.4,0,0.6,0c3.1,0,6.2,0,9.2,0
				c1.7,0,3.1,1.3,3.1,3c0,1.3-0.7,2.4-1.9,2.9L109.2,34.4z M103.3,28.6h-4.6c-0.2,0-0.4,0-0.6,0c-0.8,0.2-1.3,0.9-1.3,1.6
				c0,0.4,0,0.8,0,1.3c0,1.9,0,3.7,0,5.6c0,0.1,0,0.2,0.2,0.2h1.1c0.2,0,0.2,0,0.2-0.2c0-0.8,0-1.6,0-2.4c0-0.2,0-0.2,0.2-0.2h8.5
				c0.1,0,0.2,0,0.3,0.1c0.8,0.9,1.7,1.8,2.5,2.7c0.1,0.1,0.1,0.1,0.2,0c0.3-0.3,0.6-0.6,0.9-0.8c0.1-0.1,0.1-0.1,0-0.2l-1.7-1.9
				c-0.1-0.2-0.1-0.2,0.1-0.2c1.5-0.8,2-2.6,1.2-4.1c-0.5-0.9-1.3-1.5-2.3-1.6H103.3z"/>
			<path id="_Compound_Path_7" class="st0" d="M124.6,34.4L126,36c0.1,0.1,0.2,0.3,0.4,0.4c0.1,0.1,0.1,0.1,0,0.2
				c-0.3,0.3-0.7,0.6-1,0.9c-0.1,0.1-0.2,0.1-0.2,0c-0.8-0.9-1.7-1.8-2.5-2.7c-0.1-0.1-0.3-0.2-0.5-0.2H114c-0.2,0-0.2,0-0.2,0.2
				c0,0.8,0,1.6,0,2.4c0,0.2,0,0.2-0.2,0.2c-0.4,0-0.8,0-1.3,0c-0.1,0-0.2,0-0.2-0.2v-7.1c0.1-0.8,0.6-1.4,1.4-1.6
				c0.2,0,0.4,0,0.6,0c3.1,0,6.2,0,9.2,0c1.5,0,2.7,1,3.1,2.4C126.8,32.3,126,33.8,124.6,34.4L124.6,34.4z M118.7,28.6h-4.8
				c-0.2,0-0.4,0-0.6,0.1c-0.6,0.2-1,0.7-1.1,1.4v7.1c0,0.1,0,0.1,0.1,0.1h1.2c0.1,0,0.2,0,0.2-0.2c0-0.8,0-1.6,0-2.4
				c0-0.1,0-0.2,0.2-0.2h8.5c0.1,0,0.2,0,0.3,0.1l2.5,2.7c0.1,0.1,0.1,0.1,0.2,0l0.8-0.7c0.1-0.1,0.1-0.1,0-0.2l-1.7-1.8
				c-0.2-0.2-0.2-0.2,0-0.2c1.3-0.5,2.1-1.8,1.9-3.2c-0.2-1.4-1.5-2.5-2.9-2.5H118.7z"/>
			<path id="_Compound_Path_8" class="st0" d="M150.2,46.8h-5.3c-0.1,0-0.2,0-0.2,0.2c0,0.8,0,1.5,0,2.3c0,0.1,0,0.2-0.2,0.2h-1.3
				c-0.1,0-0.2,0-0.2-0.2c0-2.1,0-4.1,0-6.2c0-1.2,0.8-2.2,2-2.4c0.1,0,0.2,0,0.2,0h10c0.6,0,1.1,0.3,1.4,0.7c0.4,0.4,0.6,1,0.6,1.6
				v6.3c0,0.1,0,0.2-0.2,0.2h-1.3c-0.1,0-0.2,0-0.2-0.2c0-0.8,0-1.5,0-2.2c0-0.2-0.1-0.2-0.2-0.2L150.2,46.8z M150.2,46.7h5.4
				c0.2,0,0.2,0,0.2,0.2c0,0.8,0,1.5,0,2.3c0,0.1,0,0.1,0.1,0.1c0.4,0,0.7,0,1.1,0c0.2,0,0.2,0,0.2-0.2c0-2.1,0-4.1,0-6.2
				c0-0.6-0.2-1.1-0.6-1.5c-0.3-0.4-0.8-0.6-1.4-0.6h-9.9c-0.1,0-0.3,0-0.4,0.1c-1,0.3-1.8,1.2-1.7,2.3c0,2,0,4.1,0,6.1
				c0,0.1,0,0.1,0.1,0.1h1.1c0.2,0,0.2,0,0.2-0.2c0-0.8,0-1.5,0-2.2c0-0.1,0-0.2,0.2-0.2H150.2z"/>
			<path id="_Compound_Path_9" class="st0" d="M170.1,47.8v1.6c-0.1,0-0.1,0-0.2,0c-3.1,0-6.1,0-9.2,0c-1.2,0-2.2-0.9-2.3-2.1
				c0-0.3,0-0.5,0-0.8c0-1.9,0-3.8,0-5.8c0-0.2,0-0.2,0.2-0.2h1.2c0.2,0,0.2,0,0.2,0.2c0,2,0,4,0,6c0,0.6,0.4,1,1,1c3,0,5.9,0,8.9,0
				C169.9,47.8,170,47.8,170.1,47.8z M165.3,49.3h4.6c0.1,0,0.2,0,0.2-0.2c0-0.4,0-0.7,0-1c0-0.2,0-0.2-0.2-0.2c-3,0-5.9,0-8.9,0
				c-0.6,0-1-0.4-1-1c0-2,0-4,0-6c0-0.1,0-0.2-0.2-0.2h-1.1c-0.1,0-0.2,0-0.2,0.2c0,2,0,4.1,0,6.1c0,0.2,0,0.3,0,0.5
				c0.2,1.1,1.2,2,2.3,1.9L165.3,49.3z"/>
			<path id="_Compound_Path_10" class="st0" d="M127.6,33v-4.2c0-0.2,0-0.2,0.2-0.2h1.3c0.1,0,0.2,0,0.2,0.2v8.6
				c0,0.1-0.1,0.1-0.2,0.1h-1.4c-0.2,0-0.2,0-0.2-0.2V33z M129.2,33v-4.1c0-0.1,0-0.2-0.2-0.2c-0.4,0-0.7,0-1.1,0
				c-0.1,0-0.2,0-0.2,0.2c0,1.9,0,3.8,0,5.8c0,0.8,0,1.7,0,2.5c0,0.1,0,0.2,0.2,0.2h1.1c0.1,0,0.2,0,0.2-0.2V33z"/>
			<path id="_Compound_Path_11" class="st0" d="M75.2,31l-1.5,1.7c0,0-0.1,0.1-0.1,0.1s0.1,0,0.2,0h5c0.2,0,0.2,0.1,0.2,0.2
				s0,0.6,0,0.9c0,0.1,0,0.2-0.2,0.2h-6.3c-0.2,0-0.3,0.1-0.4,0.2c-0.7,0.8-1.5,1.6-2.2,2.4c-0.1,0.1-0.1,0.1,0,0.2
				c0.2,0.1,0.3,0.2,0.3,0.4c0,0.1,0,0.2-0.1,0.2c-0.1,0-0.1,0.1-0.2,0.2c-0.1,0.3-0.3,0.6-0.4,0.9c0,0.1,0,0.1,0.1,0.2
				c0.1,0.1,0.2,0.2,0.2,0.4c0,0.1,0,0.1,0.1,0.1h0.6c0.1,0,0.1,0,0.2,0.1c0.3,0.7,0.7,1.5,1,2.2c0,0.1,0,0.1,0,0.2
				c-0.2,0.4-0.4,0.8-0.6,1.3c0,0.1-0.1,0.1-0.2,0.1c-0.1,0-0.4,0-0.6,0s-0.1,0-0.1,0.1c0,0.3,0,0.3-0.3,0.3H67
				c-0.1,0-0.2,0-0.2-0.2c0-0.2,0-0.1,0-0.2c0-0.1,0-0.1-0.1-0.1h-3.6c-0.1,0-0.2,0-0.2-0.2V41c0-0.1,0-0.1,0.1-0.1h0.8
				c0.1,0,0.2,0,0.2-0.1c1.3-1.4,2.6-2.8,3.9-4.2l3.5-3.7l2.5-2.7c0.1-0.1,0.2-0.2,0.3,0c0.1,0.2,0.1,0,0.2,0l2.2-2.4
				c1-1,1.9-2,2.9-3c0.6-0.7,1.5-1.1,2.4-1.1c2.3,0,4.7,0,7,0c0.1,0,0.2,0,0.2,0.2c0,0.2,0,0.5,0,0.7C89,25.3,89,26,89,26.7
				c0,0.2,0,0.2,0.2,0.2s0.2,0,0.1,0.1c-0.1,0.4-0.2,0.7-0.2,1c0,0.1-0.1,0.2-0.2,0.1s-0.1,0.1-0.2,0.2c0,0.1,0,0.1,0.2,0.1h6.5
				c0.2,0,0.2,0,0.2,0.2c0,0.3,0,0.7,0,1c0,0.2-0.1,0.2-0.2,0.2H83.5c-0.4,0.1-0.7,0.4-0.8,0.8c0,0.4,0,0.8,0,1.3
				c0,0.2,0,0.2,0.2,0.2h12.4c0.2,0,0.2,0,0.2,0.2c0,0.3,0,0.7,0,1c0,0.1,0,0.2-0.2,0.2H83c-0.2,0-0.2,0-0.2,0.2v1
				c0,0.5,0.5,0.9,1,0.9h11.7c0.2,0,0.2,0,0.2,0.2v1.1c0,0.1,0,0.2-0.1,0.2c-4,0-7.9,0-11.9,0c-1.1,0-2-0.8-2.2-1.9
				c-0.1-0.5-0.1-1.1-0.1-1.6c0-0.4,0-0.7,0-1.1c0-0.6,0-1.3,0-1.9c0.1-1,0.8-1.8,1.7-2.1c0.2-0.1,0.4-0.1,0.6-0.1h4.8
				c0.1,0,0.2,0.1,0.2-0.1c0-0.1,0.1-0.3-0.1-0.3c-0.1,0-0.1,0-0.1-0.1c-0.1-0.4-0.2-0.8-0.3-1.1c0-0.1,0-0.1,0.1-0.1s0.2,0,0.2-0.2
				c0-0.6,0-1.2,0-1.8c0-0.1,0-0.2-0.2-0.2c-2.1,0-4.2,0-6.3,0c-0.7,0-1.3,0.3-1.8,0.7c-0.5,0.5-1,1-1.5,1.5
				c-1.2,1.2-2.3,2.5-3.5,3.7C75.1,30.8,75,30.9,75.2,31z M66.9,40.9c0.2,0,0.5,0,0.7,0c0.2,0,0.2,0,0.2-0.2c0-0.4,0-0.9,0-1.3
				c0-0.1,0-0.1,0.1-0.1h0.7c0.1,0,0.2,0,0.2-0.1c0-0.2,0.2-0.4,0.4-0.4c0.1,0,0.1,0,0.1-0.1c0.1-0.3,0.2-0.5,0.4-0.8
				s0.1-0.3-0.1-0.5h-0.1c-0.1-0.1-0.1,0-0.2,0c-0.3,0.4-0.7,0.7-1,1.1l-2.2,2.4c0,0-0.1,0.1-0.1,0.1c0,0.1,0.1,0,0.1,0L66.9,40.9z
				 M70.2,41.5H71c0.1,0,0.1,0,0.1-0.1c-0.2-0.5-0.4-0.9-0.7-1.4c0-0.1-0.1-0.1-0.2-0.1h-0.8c-0.1,0-0.1,0-0.1,0.1
				c0,0.5,0,0.9,0,1.4c0,0.1,0,0.1,0.1,0.1L70.2,41.5z M68.1,40.7c0,0.2,0,0.5,0,0.7c0,0.2,0,0.1,0.1,0.1H69c0.1,0,0.1,0,0.1-0.1
				c0-0.5,0-0.9,0-1.4c0-0.1,0-0.1-0.2-0.1h-0.7c-0.1,0-0.1,0-0.1,0.1S68.1,40.5,68.1,40.7z"/>
			<path id="_Path_5" class="st0" d="M121,45.7h-6.2c-0.2,0-0.2,0-0.2,0.2c0,0.4,0,0.8,0,1.2c0.1,0.5,0.5,0.8,1,0.8h11.6
				c0.3,0,0.3,0,0.3,0.3v1c0,0.1,0,0.1-0.1,0.1h-11.4c-0.5,0-0.9,0-1.3-0.2c-0.9-0.4-1.5-1.2-1.5-2.2c0-1.3,0-2.7,0-4
				c0-1.2,0.9-2.1,2-2.3c0.1,0,0.3,0,0.4,0h11.7c0.2,0,0.2,0,0.2,0.2v1c0,0.1,0,0.1-0.1,0.1h-11.8c-0.4,0-0.8,0.3-0.9,0.7
				c0,0.1,0,0.2,0,0.3c0,0.4,0,0.8,0,1.1c0,0.2,0,0.2,0.2,0.2h12.5c0.2,0,0.2,0,0.2,0.2c0,0.3,0,0.7,0,1c0,0.1,0,0.2-0.2,0.2
				c-0.7,0-1.4,0-2,0L121,45.7z"/>
			<path id="_Path_6" class="st0" d="M134.4,49.3h-5.5c-0.2,0-0.2,0-0.2-0.2c0-0.3,0-0.7,0-1c0-0.2,0-0.2,0.2-0.2h10.7
				c0.6,0,1.1-0.5,1.1-1.1c0-0.6-0.5-1.1-1.1-1.1c-2.9,0-5.8,0-8.7,0c-1.4,0.1-2.6-0.9-2.8-2.3c-0.1-1.3,0.8-2.5,2.1-2.7
				c0.2,0,0.4-0.1,0.6-0.1h10.9c0.2,0,0.2,0,0.2,0.2c0,0.4,0,0.7,0,1.1c0,0.1,0,0.1-0.1,0.1h-10.9c-0.5,0.1-0.9,0.5-1,1
				c0,0.6,0.4,1.2,1,1.2c0,0,0.1,0,0.1,0c2.9,0,5.9,0,8.8,0c0.8,0,1.6,0.4,2,1.1c0.8,1.2,0.5,2.8-0.7,3.6c-0.3,0.2-0.6,0.3-1,0.4
				c-0.1,0-0.2,0-0.3,0L134.4,49.3z"/>
			<path id="_Compound_Path_12" class="st0" d="M141.3,30h-8.6c-0.5,0-0.9,0.3-0.9,0.8c0,0.1,0,0.1,0,0.2c0,1.3,0,2.6,0,3.9
				c0,0.6,0.4,1,1,1h11.7c0.2,0,0.2,0,0.2,0.2c0,0.3,0,0.7,0,1c0,0.2,0,0.2-0.2,0.2c-3.9,0-7.8,0-11.6,0c-1.2,0-2.2-0.8-2.4-2
				c0-0.2,0-0.4,0-0.5c0-1.3,0-2.5,0-3.8c0-0.6,0.2-1.2,0.7-1.7c0.4-0.4,0.9-0.7,1.5-0.8h11.8c0.1,0,0.2,0,0.2,0.2
				c0,0.3,0,0.7,0,1.1c0,0.2-0.1,0.2-0.2,0.2v-0.1c0,0,0,0,0-0.1v-1.1c0-0.1,0-0.1-0.1-0.1h-3c-0.1,0-0.1,0-0.1,0.1
				c0,0.3,0,0.6,0,0.9c0,0.1,0,0.1,0,0.2L141.3,30z M142.9,35.9h-1.5c-0.1,0-0.1,0-0.1,0.1c0,0.3,0,0.7,0,1c0,0.1,0,0.1,0.1,0.1h2.9
				c0.1,0,0.1,0,0.1-0.1c0-0.3,0-0.6,0-1c0-0.1,0-0.2-0.2-0.2L142.9,35.9z"/>
			<path id="_Path_7" class="st0" d="M144.4,29.9L144.4,29.9l-3.1,0.1v-0.1H144.4z"/>
			<path id="_Compound_Path_13" class="st0" d="M152.9,34.6h-5.3c-0.2,0-0.2,0-0.2,0.2c0,0.8,0,1.5,0,2.3c0,0.1,0,0.2-0.2,0.2h-1.1
				c-0.1,0-0.2,0-0.2-0.1c0-2,0-4,0-6c-0.1-0.9,0.5-1.8,1.3-2.2c0.3-0.2,0.7-0.2,1-0.2h9.5c1,0,1.9,0.7,2.1,1.7c0,0.2,0,0.4,0,0.6
				c0,2.1,0,4.1,0,6.2c0,0.1,0,0.2-0.2,0.2h-1.1c-0.1,0-0.2,0-0.2-0.2c0-0.7,0-1.5,0-2.2c0-0.2,0-0.2-0.2-0.2L152.9,34.6z
				 M152.9,33.2h5.4c0.1,0,0.2,0,0.2-0.1c0-0.7,0-1.5,0-2.2c0-0.4-0.4-0.8-0.8-0.8h-9.4c-0.4,0-0.8,0.3-0.8,0.7c0,0,0,0,0,0.1
				c0,0.7,0,1.4,0,2.1c0,0.2,0,0.2,0.2,0.2H152.9z"/>
			<path id="_Compound_Path_14" class="st0" d="M103.3,28.6h4.8c1.7,0.1,2.9,1.6,2.8,3.2c-0.1,1.1-0.7,2-1.7,2.5
				c-0.2,0.1-0.2,0.1,0,0.2l1.8,1.9c0.1,0.1,0.1,0.1,0,0.2c-0.3,0.3-0.6,0.5-0.9,0.8c-0.1,0.1-0.1,0-0.2,0c-0.8-0.9-1.7-1.8-2.5-2.7
				c-0.1-0.1-0.2-0.1-0.3-0.1h-8.5c-0.2,0-0.2,0-0.2,0.2c0,0.8,0,1.6,0,2.4c0,0.2,0,0.2-0.2,0.2H97c-0.1,0-0.2,0-0.2-0.2
				c0-1.9,0-3.7,0-5.6c0-0.4,0-0.8,0-1.3c0-0.8,0.5-1.5,1.3-1.7c0.2,0,0.4,0,0.6,0H103.3z M103.2,33.1h4.5c0.1,0,0.3,0,0.4,0
				c0.8-0.1,1.4-0.9,1.3-1.7c0-0.1,0-0.2-0.1-0.4c-0.3-0.6-0.8-1-1.5-1c-2.4,0-4.7,0-7.1,0h-2.1c-0.2,0-0.4,0.1-0.4,0.3
				c0,0,0,0.1,0,0.1c0,0.8,0,1.7,0,2.5c0,0.2,0,0.2,0.2,0.2L103.2,33.1z"/>
			<path id="_Compound_Path_15" class="st0" d="M118.7,28.6h4.8c1.5,0,2.7,1.1,2.9,2.5c0.2,1.3-0.6,2.6-1.8,3.2
				c-0.2,0.1-0.2,0.1,0,0.2l1.7,1.8c0.1,0.1,0.1,0.2,0,0.2l-0.8,0.7c-0.1,0.1-0.1,0.1-0.2,0l-2.6-2.8c-0.1-0.1-0.2-0.1-0.3-0.1h-8.5
				c-0.1,0-0.2,0-0.2,0.2c0,0.8,0,1.6,0,2.4c0,0.1,0,0.2-0.2,0.2h-1.2c-0.1,0-0.2,0-0.2-0.1v-7c0.1-0.6,0.5-1.1,1.1-1.4
				c0.2-0.1,0.4-0.1,0.6-0.1H118.7z M118.6,33.1h4.5c0.2,0,0.3,0,0.5,0c0.8-0.1,1.4-0.9,1.3-1.7c0-0.1,0-0.3-0.1-0.4
				c-0.2-0.6-0.8-1-1.5-1c-2.1,0-4.1,0-6.2,0h-3c-0.3,0-0.4,0.1-0.4,0.4c0,0.8,0,1.6,0,2.5c0,0.2,0,0.2,0.2,0.2L118.6,33.1z"/>
			<path id="_Compound_Path_16" class="st0" d="M150.2,46.7h-5.3c-0.2,0-0.2,0-0.2,0.2c0,0.8,0,1.5,0,2.2c0,0.1,0,0.2-0.2,0.2h-1.1
				c-0.1,0-0.2,0-0.2-0.1c0-2,0-4.1,0-6.1c0-1.1,0.7-2,1.7-2.3c0.1,0,0.3-0.1,0.4-0.1h9.9c0.5,0,1,0.3,1.4,0.6
				c0.4,0.4,0.6,1,0.6,1.5c0,2.1,0,4.1,0,6.2c0,0.2,0,0.2-0.2,0.2c-0.4,0-0.7,0-1.1,0c-0.1,0-0.2,0-0.2-0.2c0-0.8,0-1.5,0-2.3
				c0-0.2,0-0.2-0.2-0.2H150.2z M150.2,45.2h5.4c0.1,0,0.2,0,0.2-0.1c0-0.7,0-1.4,0-2.1c0-0.5-0.4-0.9-0.9-0.9c-3.1,0-6.2,0-9.2,0
				c-0.5,0-0.9,0.4-0.9,0.8c0,0,0,0.1,0,0.1c0,0.7,0,1.3,0,2c0,0.2,0,0.2,0.2,0.2H150.2z"/>
			<path id="_Path_8" class="st0" d="M165.3,49.3h-4.4c-1.1,0-2.1-0.8-2.3-1.9c0-0.2,0-0.3,0-0.5c0-2,0-4.1,0-6.1
				c0-0.1,0-0.2,0.2-0.2h1.1c0.1,0,0.2,0,0.2,0.2c0,2,0,4,0,6c0,0.6,0.4,1,1,1c3,0,5.9,0,8.9,0c0.2,0,0.2,0,0.2,0.2c0,0.3,0,0.7,0,1
				c0,0.1,0,0.2-0.2,0.2L165.3,49.3z"/>
			<path id="_Path_9" class="st0" d="M129.2,33v4.1c0,0.1,0,0.2-0.2,0.2h-1.1c-0.1,0-0.2,0-0.2-0.2c0-0.8,0-1.7,0-2.5
				c0-1.9,0-3.8,0-5.8c0-0.1,0-0.2,0.2-0.2c0.4,0,0.7,0,1.1,0c0.2,0,0.2,0.1,0.2,0.2L129.2,33z"/>
			<path id="_Compound_Path_17" class="st0" d="M66.9,40.9h-0.7c0,0-0.1,0-0.1,0c0,0,0-0.1,0.1-0.1l2.2-2.3c0.3-0.4,0.7-0.7,1-1.1
				c0.1-0.1,0.1-0.1,0.2,0h0.1c0.3,0.2,0.3,0.2,0.1,0.5c-0.1,0.3-0.2,0.5-0.4,0.8c0,0-0.1,0.1-0.1,0.1c-0.2,0-0.4,0.2-0.4,0.4
				c0,0.1-0.1,0.1-0.2,0.1H68c-0.1,0-0.1,0-0.1,0.1c0,0.4,0,0.9,0,1.3c0,0.1,0,0.2-0.2,0.2S67.2,40.9,66.9,40.9z M67.8,39.2h0.8
				c0.1,0,0.1,0,0.1-0.1c0-0.2,0.1-0.3,0.3-0.4c0.2-0.1,0.3-0.2,0.4-0.4c0.1-0.2,0.2-0.4,0.3-0.6c0.1-0.2,0.1-0.1,0-0.2
				c-0.1,0-0.2-0.1-0.3,0l-1.2,1.3L67.8,39.2z M66.3,40.8c0.5,0,0.9,0,1.4,0c0.1,0,0.1-0.1,0.1-0.1v-1.4L66.3,40.8z"/>
			<path id="_Compound_Path_18" class="st0" d="M70.2,41.6h-0.8c-0.1,0-0.1,0-0.1-0.1c0-0.5,0-0.9,0-1.4c0-0.1,0-0.1,0.1-0.1h0.8
				c0.1,0,0.1,0,0.2,0.1c0.2,0.5,0.4,1,0.7,1.4c0,0.1,0,0.1-0.1,0.1L70.2,41.6z M70.2,41.5h0.6c0.1,0,0.2,0,0.1-0.1
				c-0.2-0.4-0.4-0.8-0.6-1.2c0-0.1-0.1-0.1-0.1-0.1c-0.2,0-0.4,0-0.7,0s-0.1,0-0.1,0.1v1.2c0,0.1,0,0.1,0.1,0.1H70.2z"/>
			<path id="_Compound_Path_19" class="st0" d="M68.1,40.7c0-0.2,0-0.5,0-0.7s0-0.1,0.1-0.1H69c0.1,0,0.2,0,0.2,0.1
				c0,0.5,0,0.9,0,1.4c0,0.1,0,0.1-0.1,0.1h-0.8c-0.1,0-0.1,0-0.1-0.1C68.1,41.3,68.1,40.9,68.1,40.7z M68.2,40.7c0,0.2,0,0.4,0,0.6
				s0,0.1,0.1,0.1h0.6c0.1,0,0.1,0,0.1-0.1v-1.2c0-0.1,0-0.1-0.1-0.1c-0.1,0-0.4,0-0.6,0s-0.1,0-0.1,0.1S68.2,40.5,68.2,40.7z"/>
			<path id="_Compound_Path_20" class="st0" d="M142.9,35.9h1.4c0.1,0,0.2,0,0.2,0.2c0,0.3,0,0.6,0,1c0,0.1,0,0.1-0.1,0.1h-3
				c-0.1,0-0.1,0-0.1-0.1c0-0.3,0-0.7,0-1c0-0.1,0-0.1,0.1-0.1L142.9,35.9z M142.9,37.1h1.4c0.1,0,0.1,0,0.1-0.1c0-0.3,0-0.5,0-0.8
				c0-0.1,0-0.1-0.1-0.1h-2.8c-0.1,0-0.1,0-0.1,0.1c0,0.3,0,0.5,0,0.8c0,0.1,0,0.2,0.1,0.2L142.9,37.1z"/>
			<path id="_Compound_Path_21" class="st0" d="M144.4,29.9h-3.1c-0.1,0,0-0.1,0-0.2c0-0.3,0-0.6,0-0.9c0-0.1,0-0.2,0.1-0.2h3
				c0.1,0,0.1,0,0.1,0.1v1.1C144.6,29.8,144.5,29.9,144.4,29.9z M142.9,29.8h1.4c0.1,0,0.1,0,0.1-0.1c0-0.1,0-0.5,0-0.8
				c0-0.1,0-0.1-0.1-0.1h-2.8c-0.1,0-0.1,0-0.1,0.1c0,0.3,0,0.5,0,0.8c0,0.3,0,0.2,0.1,0.2H142.9z"/>
			<path id="_Compound_Path_22" class="st0" d="M152.9,33.2h-5.3c-0.2,0-0.2,0-0.2-0.2c0-0.7,0-1.4,0-2.1c0-0.4,0.3-0.8,0.7-0.8
				c0,0,0,0,0.1,0h9.4c0.4,0,0.8,0.3,0.8,0.8c0,0.7,0,1.5,0,2.2c0,0.1-0.1,0.1-0.2,0.1H152.9z M152.9,33.1h5.3c0.1,0,0.2,0,0.2-0.1
				c0-0.7,0-1.4,0-2.1c0-0.4-0.3-0.7-0.8-0.7c0,0,0,0,0,0h-9.4c-0.4,0-0.7,0.2-0.7,0.6c0,0,0,0.1,0,0.1c0,0.7,0,1.4,0,2
				c0,0.2,0,0.2,0.2,0.2L152.9,33.1z"/>
			<path id="_Compound_Path_23" class="st0" d="M103.2,33.1h-4.7c-0.2,0-0.2,0-0.2-0.2c0-0.8,0-1.6,0-2.5c0-0.2,0.1-0.4,0.3-0.4
				c0,0,0.1,0,0.1,0h2.1c2.4,0,4.7,0,7.1,0c0.7,0,1.2,0.4,1.5,1c0.3,0.8-0.1,1.7-0.9,2c-0.1,0-0.2,0.1-0.4,0.1c-0.1,0-0.3,0-0.4,0
				L103.2,33.1z M103.3,33h4.7c0.8,0,1.4-0.7,1.4-1.5c0-0.1,0-0.2,0-0.3c-0.1-0.7-0.8-1.2-1.5-1.1h-9.1c-0.3,0-0.4,0.1-0.4,0.4v2.3
				c0,0.1,0,0.2,0.2,0.2L103.3,33z"/>
			<path id="_Compound_Path_24" class="st0" d="M118.6,33.1h-4.7c-0.2,0-0.2,0-0.2-0.2c0-0.8,0-1.6,0-2.5c0-0.3,0.2-0.4,0.4-0.4h3
				c2.1,0,4.1,0,6.2,0c0.7,0,1.3,0.4,1.5,1c0.3,0.8-0.1,1.7-0.9,2c-0.1,0-0.2,0.1-0.3,0.1c-0.2,0-0.3,0-0.5,0L118.6,33.1z M118.7,33
				h4.5c0.2,0,0.4,0,0.6,0c0.7-0.2,1.2-0.9,1.1-1.6c-0.1-0.7-0.7-1.2-1.4-1.2h-9.2c-0.3,0-0.4,0.1-0.4,0.4c0,0.8,0,1.5,0,2.3
				c0,0.2,0,0.2,0.2,0.2H118.7z"/>
			<path id="_Compound_Path_25" class="st0" d="M150.2,45.2h-5.3c-0.2,0-0.2,0-0.2-0.2c0-0.7,0-1.3,0-2c0-0.5,0.3-0.9,0.8-0.9
				c0,0,0.1,0,0.1,0c3.1,0,6.2,0,9.2,0c0.5,0,0.9,0.4,0.9,0.9c0,0.7,0,1.4,0,2.1c0,0.2-0.1,0.1-0.2,0.1H150.2z M150.2,45.1h5.3
				c0.1,0,0.2,0,0.2-0.2c0-0.6,0-1.3,0-1.9c0-0.5-0.4-0.9-0.8-0.9c0,0,0,0,0,0c-3,0-6.1,0-9.2,0h-0.2c-0.4,0-0.7,0.3-0.7,0.7
				c0,0,0,0,0,0.1c0,0.7,0,1.4,0,2c0,0.1,0,0.2,0.2,0.2L150.2,45.1z"/>
			<path id="_Path_10" class="st0" d="M142.9,37.1h-1.4c-0.1,0-0.1,0-0.1-0.1c0-0.3,0-0.5,0-0.8c0-0.1,0-0.1,0.1-0.1h2.8
				c0.1,0,0.1,0,0.1,0.1c0,0.3,0,0.6,0,0.8c0,0.1,0,0.1-0.1,0.1L142.9,37.1z"/>
			<path id="_Path_11" class="st0" d="M142.9,29.8h-1.4c-0.1,0-0.1,0-0.1-0.2c0-0.1,0-0.5,0-0.8c0-0.1,0-0.1,0.1-0.1h2.8
				c0.1,0,0.1,0,0.1,0.1c0,0.3,0,0.5,0,0.8s0,0.1-0.1,0.1L142.9,29.8z"/>
		</g>
	</g>
</g>
</svg>
