<?xml version="1.0" encoding="utf-8"?>
<!-- Generator: Adobe Illustrator 22.1.0, SVG Export Plug-In . SVG Version: 6.00 Build 0)  -->
<svg version="1.1" id="Layer_1" xmlns="http://www.w3.org/2000/svg" xmlns:xlink="http://www.w3.org/1999/xlink" x="0px" y="0px"
	 viewBox="0 0 233 73" style="enable-background:new 0 0 233 73;" xml:space="preserve">
<style type="text/css">
	.st0{fill:#3D3D3D;}
	.st1{fill:#FFFFFF;}
	.st2{fill:#E5E5E5;}
</style>
<title>Asset 31</title>
<g id="Layer_2_1_">
	<g id="Layer_1-2">
		<g id="_Group_">
			<path id="_Compound_Path_" class="st0" d="M121.1,44.8c0.1,0.1,0.2,0.3,0.3,0.1C121.5,44.7,121.3,44.7,121.1,44.8l-0.3-0.4
				c0.2,0,0.4,0,0.5-0.2c0.7-0.3,0.8-0.6,0.5-1.3l-0.6,0.4c-0.4,0.3-0.6,0.2-0.8-0.3c-0.1-0.4-0.3-0.7-0.7-0.8
				c-0.3-0.2-0.5-0.1-0.5,0.3c0,0.6,0.3,1.1,0.7,1.5c-0.1,0.3,0.1,0.4,0.4,0.4c0,0.3-0.6,0.1-0.4,0.5s0.5,0.2,0.8,0
				C120.8,44.8,120.9,44.8,121.1,44.8z M122.5,36.4c0,0.1-0.1,0.2-0.1,0.2c0,1.2-0.5,2.4-1.4,3.2c-0.2,0.2,0,0.4,0.2,0.4
				c0.2,0,0.4-0.2,0.5-0.4l1.2-3.1c0.2-0.4,0.3-0.7,0.5-1.1c0.6-1.2,1.1-2.4,1.7-3.7c0.1-0.2,0.3-0.5,0-0.5s-0.7,0-0.9,0.4
				C123.7,33.4,123,34.8,122.5,36.4z M137.8,31.8c0-1.3,0-2.5,0-3.7c0-1-0.1-2.1-0.5-3.1c-0.3-0.8-1.2-1.3-2-1.1
				c-0.6,0.1-1.2,0.4-1.7,0.9c-0.7,0.7-1.3,1.6-1.8,2.5c-0.1,0.2-0.1,0.4-0.4,0.4c-0.6,0.1-1.1,0.6-1.3,1.1
				c-1.4,2.8-2.8,5.6-3.9,8.5c-0.6,1.1-0.9,2.2-1,3.4c0,0.6,0.1,1,0.7,1.2c0.6,0.2,1.2,0,1.5-0.5c0.3-0.4,0.6-0.9,0.8-1.4
				c0.3-1.5,1.6-2.6,3.1-2.8c0.1,0,0.2-0.1,0.3-0.1l3.7-1.6c0,0.4,0,0.7-0.1,1c-0.1,0.7-0.2,1.5-0.3,2.2c-0.1,0.7,0.3,1.4,0.9,1.6
				c0.5,0.1,1.1-0.3,1.3-1.1c0.1-0.3,0.1-0.5,0.1-0.8c0.1-1.2,0.3-2.3,0.4-3.5c0-0.3,0.2-0.7,0.5-0.8c0.9-0.4,1.7-1,2.3-1.7
				c0.4-0.4,0.5-1,0.1-1.4c0,0-0.1-0.1-0.1-0.1c-0.4-0.5-0.8-0.4-1.3-0.1C138.7,31.2,138.3,31.4,137.8,31.8z M96.4,30.3
				c0-0.2,0-0.4,0.1-0.6c0.2-0.7,0.4-1.4,0.5-2.1c0.2-0.6-0.2-1.3-0.9-1.5c0,0-0.1,0-0.1,0c-0.6-0.2-1.2,0.2-1.4,0.7
				c0,0.1,0,0.2,0,0.3c-0.6,3-1.4,6-2.5,8.9c-0.4,1.1-0.8,2.3-1.1,3.5c-0.2,0.5,0.1,1,0.5,1.2c0.4,0.3,1,0.3,1.4-0.1
				c0.3-0.2,0.5-0.5,0.7-0.8c0.7-1.1,1.5-2.2,2.2-3.4c0.3-0.5,0.5-0.4,0.9-0.1c1.1,1,2.4,1.8,3.8,2.3c1.2,0.5,2.5,0.6,3.8,0.2
				c0.7-0.3,1-1.1,0.8-1.8c-0.2-0.7-0.6-0.8-1.5-0.5c-0.6,0.2-1.2,0.2-1.9,0c-1.2-0.3-2.3-1-3.2-1.8c0.5-0.3,1-0.5,1.5-0.8
				c1.7-0.8,3.1-2.1,4-3.7c0.5-1,0.2-2.3-0.7-3c-0.8-0.7-2-0.8-2.9-0.2c-0.4,0.2-0.7,0.5-1,0.7c-0.8,0.8-1.6,1.6-2.3,2.5
				C96.8,30.2,96.6,30.3,96.4,30.3z M94.4,22.6c-0.2,0-0.2,0-0.3,0c-3.4,0.3-6.8,1.2-9.9,2.6c-0.7,0.3-1.2,1-1.2,1.8
				c-0.2,1.8-0.5,3.6-0.8,5.4c-0.1,0.5-0.2,0.7-0.7,0.7c-0.6,0-1.1,0.4-1.2,0.9c-0.1,0.6,0.2,1.2,0.8,1.4c0.5,0.2,0.4,0.4,0.4,0.8
				c-0.3,1.4-0.7,2.8-1.4,4.1c-0.3,0.4-0.2,1.1,0.2,1.4c0.1,0.1,0.2,0.1,0.4,0.2c0.7,0.3,1.3,0,1.7-0.9c0.7-1.4,1.2-3,1.5-4.5
				c0-0.5,0.4-0.8,0.8-0.9c2.2-0.6,4.3-1.4,6.5-1.8c0.7-0.1,0.9-0.5,0.9-1.2c0-0.7-0.3-1-1.1-1c-0.4,0-0.8,0-1.2,0.1
				c-1.6,0.3-3.2,0.7-4.7,1.4c-0.5,0.2-0.6,0.1-0.6-0.4l0.7-4.8c0-0.3,0.2-0.5,0.4-0.6c2-0.7,3.9-1.3,5.9-1.9
				c1.2-0.2,2.4-0.3,3.6-0.3c0.3,0,0.6-0.1,0.7-0.4c0.2-1.1,0.5-1.7-1.1-1.9L94.4,22.6z M119.8,28.9c-0.1,0.4-0.2,0.6-0.3,0.9
				c-0.5,1.4-1.1,2.8-1.6,4.2c-0.4,0.9-0.7,1.9-0.8,2.9c-0.1,0.6,0.3,1.1,0.9,1.2c0.1,0,0.2,0,0.2,0c0.6,0.1,1.2-0.4,1.3-1
				c0,0,0-0.1,0-0.1c0-0.4,0.1-0.8,0.2-1.1c0.8-2.5,1.9-4.9,2.9-7.3c0.1-0.2,0.3-0.4,0.5-0.4c1-0.2,2.1-0.5,3.1-0.6
				c1.3-0.4,2.7-0.5,4-0.3c0.6,0.2,1-0.4,1.2-0.9c0.2-0.5,0-1-0.5-1.3c-0.4-0.2-0.8-0.3-1.3-0.3c-1.7,0-3.5,0.2-5.1,0.6
				c-0.3,0.1-0.5,0.2-0.7-0.2c-0.2-0.6-0.8-0.9-1.4-0.7c-0.3,0.1-0.5,0.2-0.6,0.5c-0.2,0.3-0.4,0.6-0.6,0.9
				c-0.1,0.2-0.3,0.4-0.6,0.4c-1.4,0.4-2.9,0.7-4.3,0.9c-0.8,0-1.1,0.5-1.1,1.5c0,0.6,0.4,0.9,1.1,0.9c0.2,0,0.5,0,0.7-0.1
				L119.8,28.9z M113.2,24.1v0.2c-0.2,0.1-0.5,0.2-0.7,0.2c-1,0.2-1.9,0.3-2.9,0.6c-1.6,0.3-3,1.3-4,2.6c-0.4,0.6-0.7,1.3-0.8,2
				c-0.1,0.5,0.3,1,0.9,1.1c0,0,0.1,0,0.1,0c0.7,0,1.3-0.3,1.7-0.8c1-1,2.3-1.8,3.6-2.2c0.9-0.2,1.8-0.5,2.7-0.8
				c0.8-0.2,1.4-1,1.2-1.8c0-0.2-0.1-0.4-0.2-0.6c-0.4-0.5-0.9-0.8-1.5-0.9c-0.4-0.1-0.6-0.2-0.3-0.6c0.4-0.6,0.2-1.1-0.4-1.6
				c-0.4-0.3-0.8-0.5-1.3-0.8c-0.6-0.3-0.9-0.6-0.6-1.3c0.2-0.4,0-0.5-0.4-0.5c-0.9,0.1-1.8,0.6-2.4,1.3c-0.2,0.3-0.5,0.6-0.4,1
				c0.2,0.4,0.6,0.6,1,0.6c0.3,0,0.7,0,1,0s0.7,0,0.7,0.3c0,0.3-0.4,0.2-0.6,0.3l-0.7,0.1c-0.5,0-1.1,0.1-1.5,0.4
				c-0.6,0.2-0.9,0.8-0.8,1.4c0.2,0.6,0.7,1,1.3,1c0.3,0,0.5,0,0.5-0.4c0-0.4,0.2-0.5,0.5-0.6c0.3-0.1,0.6-0.2,0.9-0.2
				C110.9,24,112.1,23.9,113.2,24.1z M128.7,50.9c-0.1,0.5-0.7,0.8-1.2,0.7c0,0,0,0,0,0c-0.3-0.1-0.7-0.2-1-0.3
				c-0.8-0.3-1.3-0.1-1.6,0.5c-0.3,0.6,0,1.3,0.6,1.6c0.1,0,0.1,0,0.2,0.1c0.7,0.3,1.5,0.5,2.3,0.5c1.6,0.1,3-1.1,3.3-2.7
				c0.2-1.9,0.3-3.9,0.2-5.8c0-0.1,0-0.2-0.1-0.3c-0.3-0.8-0.8-1-1.5-0.5c-0.4,0.3-0.8,0.5-1.2,0c-0.2-0.2-0.4-0.2-0.7-0.2
				c-1.8-0.2-3.3,1.1-3.5,2.9c0,0.2,0,0.5,0,0.7c0,1.8,1.5,3.2,3.2,3.1C128,51.1,128.4,51,128.7,50.9z M143.4,39.1
				c1.9-0.1,3.8-0.4,5.6-0.8c0.8-0.2,1.6-0.4,2.4-0.7c0.5-0.1,0.9-0.6,0.8-1.2c0,0,0,0,0-0.1c-0.1-0.6-0.5-0.8-1.2-0.7
				c-0.2,0-0.4,0.1-0.6,0.1c-2,0.4-4,1-6.1,1.2c-1,0.1-1.1-0.1-0.9-1c0.4-1.4,0.9-2.7,1.6-4.1c0.6-1.5,1.2-2.9,1.8-4.4
				c0.2-0.5,0.3-1-0.3-1.3c-0.5-0.3-1.1-0.2-1.4,0.3c0,0,0,0,0,0c-0.2,0.3-0.4,0.5-0.5,0.8c-1,1.9-1.9,3.8-2.7,5.7
				c-0.5,1-0.9,2.1-1.1,3.2C140.4,38.5,140.9,39.1,143.4,39.1z M108,30.5c-0.3,0-0.4,0.2-0.5,0.3c-0.4,0.4-1,0.6-1.5,0.5
				c-0.5-0.1-0.6,0.2-0.6,0.6c0,2.1,0.4,4.1,1.2,6c0.5,1.3,1.9,1.9,3.1,1.5c1-0.3,1.8-0.9,2.4-1.7c0.8-1.1,1.4-2.3,1.6-3.7
				c0.5-2,0.8-4,0.9-6c0-0.9,0-0.8-0.7-0.5c-0.4,0.2-0.8,0.3-1.2,0.4c-0.4,0.1-0.5,0.2-0.6,0.7c-0.2,2-0.5,3.9-0.9,5.8
				c-0.2,1.1-0.8,2-1.7,2.5c-0.7,0.3-0.8,0.3-1.1-0.4c-0.1-0.3-0.2-0.7-0.3-1C107.7,33.8,107.6,32.1,108,30.5z M112.5,48.7
				c0,0.4,0,0.7,0,1.1c0,0.7,0.6,1.3,1.3,1.2c0,0,0.1,0,0.1,0c0.7,0,1.3-0.5,1.3-1.2c0,0,0-0.1,0-0.1c0-0.7,0-1.4,0-2.1
				c0-0.5,0.2-1,0.5-1.3c0.6-0.6,1.1-1.2,1.6-1.8c0.5-0.4,0.6-1.2,0.2-1.7c-0.1-0.1-0.2-0.2-0.3-0.3c-0.5-0.5-1.4-0.5-1.9,0.1
				c0,0,0,0,0,0c-0.4,0.5-0.8,0.9-1.2,1.4c-0.2,0.3-0.4,0.3-0.7,0c-0.4-0.5-0.8-1-1.3-1.5c-0.5-0.5-1.3-0.5-1.8,0c0,0,0,0,0,0
				c-0.6,0.5-0.6,1.4-0.1,1.9c0.3,0.4,0.6,0.8,1,1.1C112.2,46.3,112.7,47.5,112.5,48.7z M132.1,47.1v1.2c0,1.1,0.6,2.1,1.6,2.5
				c0.8,0.3,1.7,0.4,2.6,0.3c1.4,0,2.6-1.3,2.5-2.7c0,0,0,0,0,0c0-0.9,0-1.8,0-2.7c0.1-0.7-0.5-1.3-1.2-1.4c-0.1,0-0.2,0-0.2,0
				c-0.7,0-1.3,0.6-1.3,1.3c0,0,0,0.1,0,0.1c0,0.7,0,1.4,0,2.2c0,0.4,0,0.8-0.5,0.8c-0.5,0-0.7-0.3-0.7-0.7c0-0.8,0-1.5,0-2.3
				c0-0.7-0.5-1.3-1.2-1.3c0,0-0.1,0-0.1,0c-0.7,0-1.4,0.6-1.4,1.3c0,0,0,0,0,0C132.1,46.2,132.1,46.6,132.1,47.1z M147.3,42.5
				c-0.7-0.1-1.3,0.4-1.3,1c0,0.1,0,0.2,0,0.2c0,0.4-0.1,0.6-0.6,0.8c-0.5,0.1-0.8,0.6-0.7,1.1c0,0.5,0.2,0.9,0.7,1s0.5,0.4,0.5,0.7
				c0,0.8,0,1.7,0,2.5c0,0.7,0.6,1.2,1.3,1.2c0,0,0.1,0,0.1,0c0.7,0,1.3-0.6,1.3-1.3c0,0,0-0.1,0-0.1c0-0.8,0-1.6,0-2.4
				c0-0.4,0.1-0.6,0.5-0.7c0.5-0.1,0.8-0.5,0.8-1c0.1-0.5-0.3-1-0.8-1.1c-0.5-0.1-0.5-0.3-0.6-0.8c0-0.7-0.5-1.2-1.1-1.2
				C147.4,42.5,147.4,42.5,147.3,42.5z M139.3,47.6v1c0,0.4,0,0.7,0,1.1c0,0.7,0.7,1.3,1.4,1.2c0.7,0,1.3-0.7,1.2-1.4c0,0,0,0,0-0.1
				c-0.1-1.4,0.2-2.4,1.7-2.8c0.6-0.2,0.9-0.8,0.7-1.5c0-0.1-0.1-0.2-0.2-0.3c-0.3-0.6-1.1-0.7-1.6-0.4c-0.1,0-0.1,0.1-0.2,0.2
				c-0.5,0.5-0.8,0.3-1.2,0c-0.3-0.3-0.8-0.4-1.2-0.2c-0.4,0.2-0.7,0.7-0.6,1.1V47.6z M118.7,44.9c-0.3,0-0.6,0.1-0.8,0.4
				c-1.2,1.1-1.4,2.9-0.5,4.3c1,1.4,2.7,1.9,4.3,1.3c1.7-0.6,2.7-2.5,2-4.3c-0.1-0.3-0.3-0.7-0.5-0.9c-0.1-0.1-0.2-0.3-0.4-0.2
				c-0.2,0.1,0,0.3,0,0.4c0,0.2,0,0.5,0,0.7c-0.3,1.4-0.9,2.6-1.7,3.8c-0.3,0.5-0.7,0.5-1.1,0.1c-0.7-0.6-1.2-1.3-1.6-2.1
				C117.7,47.2,117.8,45.8,118.7,44.9z M139.9,35.2c-0.7,1.2-1,2.7-0.9,4.1c0.1,0.6,0.5,1.1,1.2,1.2c0.4,0.1,0.8,0.1,1.2,0.1
				c1,0,2-0.1,3-0.3c1.8-0.2,3.6-0.7,5.3-1.3c0.1-0.1,0.3-0.1,0.4-0.2c0.1-0.1,0.3-0.2,0.2-0.4c-0.1-0.2-0.2-0.1-0.4-0.1
				c-0.4,0-0.7,0.4-1.2,0.4c-0.5,0-1,0-1.5,0.2c-1.6,0.4-3.2,0.5-4.9,0.4c-1.1,0.1-2.1-0.7-2.2-1.8c0-0.1,0-0.3,0-0.4
				c0-0.5,0-0.9,0-1.4C140.2,35.7,140.2,35.4,139.9,35.2z M104.3,30.4c-0.3,0.6-0.5,1.2-0.6,1.9c0,0.7,0,1.4,0,2
				c-0.1,0.7,0.4,1.4,1.1,1.6c0.3,0.1,0.4,0.3,0.5,0.5c0.3,0.8,0.2,1.7-0.4,2.3c-0.1,0.2-0.1,0.4,0,0.6c0.5,1.6,2.4,1.9,3.5,1.4
				c0.4-0.1,0.8-0.4,1-0.8h-0.6c-1.3,0.2-2.4-0.7-2.7-1.9c-0.8-1.9-1.2-3.9-1.2-6C105,31.4,104.9,30.8,104.3,30.4z M115.6,38.2
				c0,1.1,0.8,1.8,1.6,1.4c0.4-0.1,0.6-0.5,0.4-0.9c0-0.1-0.1-0.3-0.3-0.3c-0.7-0.5-0.9-1.3-0.7-2.1c0.6-2,1.4-3.9,2.1-5.8
				c0.1-0.2,0.2-0.4,0.2-0.6c0-0.2-0.1-0.3-0.2-0.3c-0.2,0-0.2,0.1-0.2,0.3c0,0.2-0.2,0.2-0.3,0.1c-0.3-0.2-0.8-0.2-1.1-0.1
				c-0.7,0.2-1.3,0.1-1.9-0.3c-0.1-0.1-0.3-0.2-0.4-0.1c-0.2,0.4-0.3,0.8-0.2,1.3c0.1,0.4,0.4,0.3,0.7,0.3c0.7-0.1,1.4-0.2,2-0.3
				c0.5-0.1,0.6,0.1,0.5,0.5c-0.4,1-0.8,2-1.2,2.9C116.2,35.4,115.8,36.8,115.6,38.2z M118.4,46.8c0.2,1.2,0.8,2.2,1.7,3
				c0.5,0.5,0.7,0.5,1-0.1c0.5-1,1-2,1.3-3.1c0.1-0.3,0.1-0.6,0-0.8c-0.1-0.3-0.3-0.7-0.6-0.6s-0.4,0-0.6,0c-0.6,0.2-1.3,0.2-1.9,0
				c-0.2-0.1-0.3,0.1-0.4,0.2C118.5,45.8,118.4,46.3,118.4,46.8z M101,40.4c0.6,0,1.1-0.1,1.6-0.4c0.1-0.1,0.3-0.2,0.2-0.4
				s-0.3-0.1-0.4-0.2c-1-0.1-2-0.3-3-0.7c-1.1-0.5-2.1-1.1-3-1.9c-0.2-0.2-0.5-0.3-0.7,0.1c-0.1,0.2-0.2,0.4-0.4,0.5
				c-0.2,0.2-0.2,0.6,0.1,0.8c0,0,0.1,0,0.1,0.1C97.1,39.6,99,40.3,101,40.4z M79.5,43.6c0.7,0,0.8-0.6,1-1s-0.3-0.2-0.5-0.4
				c-0.1-0.1-0.2-0.2-0.3-0.4c-0.4-0.8-0.3-1.8,0.3-2.5c0.7-1.1,0.6-2.3,0.9-3.4c0-0.1,0-0.2-0.1-0.2c-0.4-0.2-0.8-0.5-1.1-0.8
				c-0.2-0.1-0.3,0-0.5,0.1c-0.5,0.3-0.7,1-0.3,1.6c0.1,0.2,0.3,0.3,0.5,0.4c0.4,0.2,0.6,0.6,0.5,1c0,0,0,0,0,0
				c-0.3,1.4-0.7,2.7-1.3,4c-0.3,0.5-0.2,1.1,0.2,1.4C78.9,43.6,79.2,43.7,79.5,43.6z M134.7,37c-0.1-0.2,0.2-0.7-0.3-0.6
				c-0.3,0.1-0.6,0.2-0.9,0.3c-1.2,0.6-2.4,1.1-3.7,1.5c-0.3,0.1-0.5,0.2-0.3,0.5c0.1,0.3,0.3,0.1,0.5,0c1-0.5,2.1-0.9,3.1-1.4
				c0.5-0.2,0.6-0.1,0.6,0.4c-0.1,0.5-0.2,1-0.2,1.5c-0.1,0.7-0.3,1.4,0.1,2.1c0.2,0.3,0.6,0.5,1,0.4c0.4-0.1,0.7-0.4,0.7-0.7
				c0.1-0.4-0.2-0.6-0.5-0.8c-0.3-0.1-0.3-0.4-0.4-0.7C134.4,38.7,134.5,37.8,134.7,37z M90.5,42.3c0.1,0,0.1,0,0.2,0
				c0.4-0.1,0.7-0.4,0.8-0.8c0.1-0.4-0.3-0.4-0.4-0.5c-0.6-0.4-0.8-1.1-0.6-1.8c0.4-1.6,1.1-3.1,1.5-4.7c0.1-0.2,0.3-0.4,0.1-0.5
				c-0.2-0.1-0.5,0.1-0.6,0.3c-0.2,0.4-0.3,0.7-0.4,1.2c-0.2,0.9-0.9,1.6-0.9,2.5c0,1-0.3,1.9-0.7,2.8c-0.2,0.6,0.2,1.3,0.8,1.5
				C90.3,42.2,90.4,42.3,90.5,42.3z M127.3,28.7c0.2,0,0.3,0,0.5,0c0.4,0,0.7,0.2,1.2,0.1c0.4-0.2,0.7-0.6,0.7-1
				c0-0.5-0.5-0.3-0.8-0.3c-0.6,0-1.1,0.1-1.7,0.3c-1.3,0.2-2.5,0.7-3.8,0.8c-0.3,0-0.5,0.3-0.5,0.6c0,0.4,0.4,0.2,0.6,0.2
				c0.3,0,0.5,0,0.8-0.1C125.3,28.9,126.3,28.8,127.3,28.7z M94.3,25.8c-0.2-0.4-0.5-0.4-0.8-0.3c-0.9,0.1-1.9,0.3-2.8,0.5
				c-0.6,0.1-1.2,0.3-1.8,0.6c-0.9,0.4-1.8,0.7-2.7,0.9c-0.2,0.1-0.6,0.1-0.5,0.4s0.4,0.1,0.6,0.1c1.3-0.5,2.7-0.7,4.1-1.1
				c1-0.2,2-0.3,3-0.2C94.1,26.6,94.1,26.1,94.3,25.8L94.3,25.8z M111.5,29.2c0-0.3,0-0.7-0.4-0.7s-0.5,0.2-0.5,0.5
				c-0.4,2.1-0.5,4.3-1,6.4c-0.1,0.2-0.2,0.4,0,0.6s0.4-0.2,0.5-0.4s0.1-0.2,0.1-0.3C111.2,33.3,111.2,31.2,111.5,29.2L111.5,29.2z
				 M124.7,39.7c-0.6,0.8-1,1.8-0.9,2.8c0,0.5,0.3,0.9,0.7,1.1c0.4,0.2,1,0,1.2-0.4c0.2-0.3,0.3-0.6-0.1-0.8
				c-0.5-0.3-0.8-0.8-0.8-1.3C124.8,40.5,124.8,40.1,124.7,39.7z M82.4,27.9c-0.2-0.2,0-0.7-0.4-0.7c-0.4,0-0.4,0.4-0.5,0.7
				c0,0.1,0,0.3,0,0.4c0,0.3-0.1,0.6-0.2,0.9c-0.1,1-0.3,2-0.5,2.9c0,0.2,0.2,0.3,0.3,0.4s0.3,0.1,0.3-0.1c0-0.4,0.4-0.5,0.5-0.9
				C82,30.3,82.2,29.1,82.4,27.9z M92.7,32.4c0.5-1.4,0.9-2.8,1.2-4.3c0.1-0.3-0.1-0.4-0.3-0.4c-0.3,0-0.5,0.2-0.6,0.5
				c-0.3,0.8-0.3,1.7-0.6,2.5C92.2,31.3,92.3,31.9,92.7,32.4z M90.4,34.6c0-0.1-0.1-0.2-0.2-0.2c0,0-0.1,0-0.1,0
				c-0.5,0.2-0.9,0.3-1.4,0.4c-1.3,0.4-2.5,0.9-3.9,1.2c-0.2,0-0.4,0.1-0.4,0.4c0.1,0.3,0.3,0.2,0.5,0.2c1.6-0.5,3.1-0.9,4.8-1.2
				C90.1,35.3,90.3,35,90.4,34.6z"/>
			<path id="_Path_" class="st0" d="M154.5,38.4c0-0.1,0-0.2,0.1-0.3C154.8,38.3,154.6,38.3,154.5,38.4z"/>
			<path id="_Compound_Path_2" class="st0" d="M137.8,31.8c0.5-0.4,0.9-0.7,1.3-0.9c0.4-0.3,0.9-0.4,1.3,0.1c0.4,0.4,0.5,1,0.1,1.4
				c0,0-0.1,0.1-0.1,0.1c-0.7,0.7-1.5,1.3-2.4,1.7c-0.3,0.1-0.5,0.4-0.5,0.8c-0.1,1.2-0.2,2.3-0.4,3.5c0,0.3-0.1,0.5-0.1,0.8
				c-0.2,0.8-0.7,1.3-1.3,1.1c-0.6-0.3-1-1-0.9-1.6c0.1-0.7,0.2-1.4,0.3-2.2c0-0.3,0-0.6,0.1-1l-3.7,1.7c-0.1,0.1-0.2,0.1-0.3,0.1
				c-1.5,0.2-2.7,1.3-3.1,2.8c-0.2,0.5-0.4,1-0.8,1.4c-0.3,0.5-0.9,0.7-1.5,0.5c-0.6-0.2-0.7-0.7-0.7-1.2c0.1-1.2,0.4-2.4,1-3.4
				c1.2-2.9,2.5-5.7,3.9-8.5c0.2-0.6,0.7-1,1.3-1.1c0.2,0,0.3-0.2,0.4-0.4c0.5-0.9,1.1-1.8,1.8-2.5c0.5-0.5,1.1-0.8,1.7-0.9
				c0.8-0.2,1.7,0.3,2,1.1c0.3,1,0.5,2.1,0.5,3.1C137.8,29.2,137.8,30.4,137.8,31.8z M130.4,35.3c1.8-0.7,3.3-1.4,4.8-2.2
				c0.2-0.1,0.2-0.3,0.3-0.5c0.3-1.6,0.3-3.2,0.2-4.8c0-0.5-0.1-1-0.3-1.5C133.4,29,131.7,32.1,130.4,35.3z"/>
			<path id="_Compound_Path_3" class="st0" d="M96.4,30.3c0.3,0,0.5-0.1,0.7-0.3c0.7-0.9,1.5-1.7,2.3-2.5c0.3-0.3,0.6-0.5,1-0.7
				c0.9-0.6,2.1-0.5,2.9,0.2c0.9,0.7,1.2,2,0.7,3c-0.9,1.6-2.3,2.9-4,3.7c-0.5,0.3-1,0.5-1.5,0.8c0.9,0.8,2,1.5,3.2,1.8
				c0.6,0.2,1.2,0.2,1.9,0c0.9-0.2,1.3-0.1,1.5,0.5c0.3,0.7-0.1,1.5-0.8,1.8c-1.3,0.4-2.6,0.3-3.8-0.2c-1.4-0.5-2.7-1.3-3.8-2.3
				c-0.4-0.3-0.6-0.4-0.9,0.1c-0.7,1.1-1.4,2.3-2.1,3.4c-0.2,0.3-0.4,0.6-0.7,0.8c-0.4,0.4-1,0.4-1.4,0.1c-0.5-0.2-0.7-0.7-0.5-1.2
				c0.3-1.2,0.7-2.3,1.1-3.5c1.1-2.9,1.9-5.9,2.5-8.9c0-0.6,0.6-1.1,1.2-1c0.1,0,0.2,0,0.3,0c0.7,0.1,1.1,0.7,1,1.4c0,0,0,0.1,0,0.1
				c-0.1,0.7-0.3,1.4-0.5,2.1C96.4,29.9,96.4,30.1,96.4,30.3z M101.8,28.8c-1,0.3-1.4,1.1-1.9,1.6c-0.1,0.1,0,0.1,0,0.2
				c0,0.1,0.1,0.1,0.2,0C100.9,30.3,101.5,29.6,101.8,28.8z"/>
			<path id="_Path_2" class="st0" d="M94.4,22.6h0.4c1.6,0.2,1.4,0.8,1.1,1.9c-0.1,0.3-0.4,0.4-0.7,0.4c-1.2,0-2.4,0.1-3.6,0.3
				c-2,0.5-4,1.2-5.9,1.9c-0.2,0.1-0.4,0.3-0.4,0.6l-0.6,4.8c-0.1,0.5,0.1,0.6,0.6,0.4c1.5-0.7,3.1-1.1,4.7-1.4
				c0.4-0.1,0.8-0.1,1.2-0.1c0.8,0.1,1,0.3,1.1,1.1c0.1,0.7-0.2,1.1-0.9,1.2c-2.2,0.4-4.3,1.3-6.5,1.8C84.3,35.6,84,36,84,36.4
				c-0.3,1.6-0.8,3.1-1.5,4.5c-0.4,0.9-1,1.2-1.7,0.9c-0.5-0.1-0.9-0.7-0.7-1.2c0-0.1,0.1-0.3,0.2-0.4c0.6-1.3,1.1-2.7,1.4-4.1
				c0.1-0.4,0.1-0.6-0.4-0.8c-0.6-0.2-1-0.8-0.8-1.4c0.1-0.6,0.6-1,1.2-0.9c0.5,0,0.7-0.2,0.7-0.7c0.2-1.8,0.5-3.6,0.8-5.4
				c0-0.8,0.5-1.5,1.2-1.7c3.1-1.4,6.5-2.3,9.9-2.6C94.1,22.6,94.2,22.6,94.4,22.6z"/>
			<path id="_Path_3" class="st0" d="M119.8,28.9l-2.7,0.5c-0.2,0-0.5,0.1-0.7,0.1c-0.8,0-1.1-0.3-1.2-0.9c0-0.9,0.3-1.5,1.1-1.5
				c1.5-0.2,2.9-0.5,4.3-0.9c0.3,0,0.5-0.2,0.6-0.5c0.1-0.3,0.3-0.7,0.6-0.9c0.3-0.5,1-0.7,1.5-0.3c0.2,0.1,0.4,0.4,0.5,0.6
				c0.2,0.5,0.5,0.3,0.7,0.2c1.7-0.4,3.4-0.6,5.1-0.6c0.4,0,0.9,0.1,1.3,0.3c0.5,0.2,0.7,0.8,0.5,1.3c-0.2,0.6-0.5,1.1-1.1,0.9
				c-1.3-0.2-2.7-0.1-4,0.3c-1,0.2-2.1,0.4-3.1,0.6c-0.2,0-0.4,0.2-0.5,0.4c-1,2.4-2,4.8-2.9,7.3c-0.1,0.4-0.2,0.8-0.2,1.1
				c0,0.6-0.5,1.1-1.1,1.1c-0.1,0-0.1,0-0.2,0c-0.6,0-1.1-0.4-1.1-1c0-0.1,0-0.2,0-0.2c0.1-1,0.3-2,0.8-2.9c0.5-1.4,1.1-2.8,1.6-4.2
				C119.6,29.5,119.7,29.2,119.8,28.9z"/>
			<path id="_Path_4" class="st0" d="M113.2,24.1c-1.1-0.1-2.3-0.1-3.4,0c-0.3,0-0.6,0.1-1,0.2c-0.3,0.1-0.6,0.2-0.5,0.6
				c0.1,0.4-0.2,0.4-0.5,0.4c-0.6,0-1.1-0.4-1.3-1c-0.1-0.6,0.2-1.1,0.8-1.3c0.5-0.2,1-0.3,1.5-0.4l0.7-0.1c0.2,0,0.7,0,0.7-0.3
				s-0.4-0.3-0.7-0.3c-0.3,0-0.7,0-1,0c-0.4,0-0.8-0.2-1-0.6c-0.1-0.4,0.1-0.7,0.4-1c0.6-0.7,1.5-1.2,2.4-1.3c0.4,0,0.6,0.1,0.4,0.5
				c-0.4,0.7,0,1,0.6,1.3c0.4,0.2,0.9,0.5,1.3,0.8c0.7,0.5,0.8,0.9,0.4,1.6c-0.3,0.5-0.1,0.5,0.3,0.6c0.6,0.1,1.2,0.4,1.6,0.9
				c0.5,0.7,0.3,1.7-0.4,2.2c-0.2,0.1-0.4,0.2-0.6,0.2c-0.9,0.3-1.8,0.6-2.7,0.8c-1.4,0.4-2.6,1.2-3.6,2.2c-0.4,0.5-1.1,0.8-1.7,0.8
				c-0.6,0-1-0.4-1-1c0,0,0-0.1,0-0.1c0.1-0.7,0.3-1.4,0.8-2c1-1.3,2.4-2.3,4-2.6c1-0.2,1.9-0.4,2.9-0.6c0.2-0.1,0.5-0.1,0.7-0.2
				L113.2,24.1z"/>
			<path id="_Compound_Path_4" class="st0" d="M128.7,50.9c-1.7,0.6-3.5-0.3-4.1-2c-0.1-0.3-0.2-0.7-0.2-1c-0.2-1.7,1-3.3,2.8-3.6
				c0.2,0,0.5,0,0.7,0c0.2,0,0.5,0,0.7,0.2c0.4,0.5,0.8,0.2,1.2,0c0.7-0.5,1.2-0.3,1.5,0.5c0.1,0.1,0.1,0.2,0.1,0.4
				c0.1,1.9,0.1,3.9-0.2,5.8c-0.3,1.6-1.7,2.7-3.3,2.7c-0.8,0-1.6-0.1-2.3-0.4c-0.6-0.2-1-0.9-0.8-1.5c0-0.1,0-0.1,0.1-0.2
				c0.3-0.6,0.8-0.8,1.6-0.5c0.3,0.1,0.7,0.2,1,0.3C128,51.7,128.5,51.4,128.7,50.9z M128.9,47.7c0-0.5-0.4-1-0.9-1
				c-0.5,0-0.9,0.5-0.9,1c0,0,0,0,0,0c0,0.5,0.3,1,0.8,1c0,0,0,0,0.1,0C128.5,48.7,128.9,48.2,128.9,47.7
				C128.9,47.7,128.9,47.7,128.9,47.7z"/>
			<path id="_Path_5" class="st0" d="M143.4,39.1c-2.4,0-3-0.6-2.7-2.8c0.2-1.1,0.6-2.2,1.1-3.2c0.8-1.9,1.7-3.8,2.7-5.7
				c0.2-0.3,0.3-0.6,0.5-0.8c0.3-0.5,0.9-0.6,1.4-0.3c0,0,0,0,0,0c0.6,0.3,0.5,0.8,0.3,1.3c-0.6,1.5-1.2,2.9-1.8,4.4
				c-0.6,1.3-1.2,2.7-1.6,4c-0.2,0.9-0.1,1.1,0.9,1c2.1-0.2,4.1-0.8,6.1-1.2c0.2,0,0.4-0.1,0.6-0.1c0.7-0.1,1.1,0.1,1.2,0.7
				c0.1,0.5-0.2,1.1-0.7,1.2c0,0-0.1,0-0.1,0c-0.8,0.3-1.6,0.5-2.4,0.7C147.1,38.7,145.3,39,143.4,39.1z"/>
			<path id="_Path_6" class="st0" d="M108,30.5c-0.3,1.7-0.3,3.4,0.1,5c0.1,0.3,0.2,0.7,0.3,1c0.2,0.7,0.4,0.7,1.1,0.4
				c0.9-0.5,1.6-1.4,1.7-2.5c0.4-1.9,0.7-3.9,0.9-5.8c0.1-0.4,0.2-0.6,0.6-0.7c0.4-0.1,0.8-0.2,1.2-0.4c0.8-0.3,0.8-0.3,0.7,0.5
				c-0.1,2-0.4,4-0.9,6c-0.3,1.3-0.8,2.6-1.6,3.7c-0.6,0.8-1.4,1.4-2.4,1.7c-1.3,0.4-2.7-0.2-3.1-1.5c-0.8-1.9-1.2-3.9-1.2-6
				c0-0.4,0-0.7,0.6-0.6c0.6,0,1.1-0.2,1.5-0.5C107.6,30.7,107.7,30.5,108,30.5z"/>
			<path id="_Path_7" class="st0" d="M112.5,48.7c0.2-1.2-0.3-2.4-1.2-3.2c-0.4-0.3-0.7-0.7-1-1.1c-0.5-0.6-0.4-1.4,0.1-1.9
				c0.5-0.5,1.3-0.5,1.8,0c0,0,0,0,0,0c0.5,0.5,0.9,1,1.3,1.5c0.3,0.3,0.4,0.3,0.7,0c0.4-0.5,0.8-1,1.2-1.4c0.5-0.6,1.3-0.6,1.9-0.1
				c0,0,0,0,0,0c0.6,0.4,0.7,1.1,0.3,1.7c-0.1,0.1-0.2,0.2-0.3,0.3c-0.5,0.6-1,1.2-1.6,1.8c-0.4,0.3-0.6,0.8-0.5,1.3
				c0,0.7,0,1.4,0,2.1c0,0.7-0.5,1.3-1.2,1.3c0,0-0.1,0-0.1,0c-0.7,0.1-1.4-0.4-1.4-1.1c0,0,0-0.1,0-0.1
				C112.5,49.5,112.5,49.1,112.5,48.7z"/>
			<path id="_Path_8" class="st0" d="M132.1,47.1c0-0.4,0-0.9,0-1.4c0-0.7,0.6-1.4,1.3-1.4c0,0,0,0,0,0c0.7-0.1,1.3,0.5,1.3,1.1
				c0,0,0,0.1,0,0.1c0,0.8,0,1.5,0,2.3c0,0.5,0.2,0.8,0.7,0.7s0.6-0.4,0.5-0.8c0-0.7,0-1.4,0-2.1c0-0.7,0.5-1.3,1.2-1.4
				c0,0,0.1,0,0.1,0c0.7-0.1,1.3,0.4,1.4,1.1c0,0.1,0,0.2,0,0.2c0,0.9,0,1.8,0,2.7c0.1,1.4-1.1,2.6-2.5,2.7c-0.9,0.1-1.7,0-2.6-0.3
				c-1-0.4-1.6-1.4-1.6-2.5C132.1,47.9,132.1,47.5,132.1,47.1z"/>
			<path id="_Path_9" class="st0" d="M147.3,42.5c0.6-0.1,1.2,0.4,1.3,1c0,0.1,0,0.1,0,0.2c0,0.4,0.1,0.7,0.6,0.8
				c0.5,0.1,0.8,0.6,0.8,1.1c0,0.5-0.3,0.9-0.8,1c-0.4,0.1-0.5,0.3-0.5,0.7c0,0.8,0,1.6,0,2.4c0.1,0.7-0.5,1.3-1.2,1.4
				c0,0-0.1,0-0.1,0c-0.7,0.1-1.3-0.5-1.3-1.1c0,0,0-0.1,0-0.1c-0.1-0.8,0-1.7,0-2.5c0-0.4,0-0.7-0.5-0.7c-0.5,0-0.7-0.5-0.7-1
				c-0.1-0.5,0.2-1,0.7-1.1c0.5-0.1,0.5-0.3,0.6-0.8c0-0.7,0.5-1.2,1.2-1.2C147.2,42.5,147.3,42.5,147.3,42.5z"/>
			<path id="_Path_10" class="st0" d="M139.4,47.6v-2c0-0.5,0.2-0.9,0.6-1.1c0.4-0.2,0.9-0.1,1.2,0.2c0.4,0.4,0.7,0.5,1.2,0
				c0.5-0.5,1.2-0.4,1.7,0c0.1,0.1,0.1,0.1,0.2,0.2c0.4,0.5,0.3,1.2-0.3,1.6c-0.1,0.1-0.2,0.1-0.3,0.2c-1.5,0.4-1.8,1.4-1.7,2.8
				c0.1,0.7-0.4,1.4-1.2,1.5c-0.7,0.1-1.4-0.4-1.5-1.2c0,0,0,0,0-0.1c0-0.4,0-0.7,0-1.1L139.4,47.6z"/>
			<path id="_Path_11" class="st0" d="M118.7,44.9c-0.9,0.9-1,2.3-0.2,3.4c0.4,0.8,0.9,1.5,1.6,2.1c0.4,0.4,0.8,0.4,1.1-0.1
				c0.8-1.1,1.4-2.4,1.7-3.8c0-0.2,0-0.5,0-0.7c0-0.1-0.3-0.3,0-0.4s0.3,0.1,0.4,0.2c1.1,1.5,0.8,3.6-0.6,4.7
				c-0.3,0.2-0.6,0.4-1,0.5c-1.6,0.6-3.3,0-4.3-1.3c-0.9-1.3-0.7-3.2,0.5-4.3C118.1,45,118.4,44.9,118.7,44.9z"/>
			<path id="_Path_12" class="st0" d="M139.9,35.2c0.3,0.2,0.2,0.5,0.2,0.7c0,0.5,0,1,0,1.4c-0.1,1.1,0.7,2.1,1.8,2.2
				c0.1,0,0.3,0,0.4,0c1.6,0.1,3.3-0.1,4.9-0.5c0.5-0.2,1-0.2,1.5-0.2c0.5,0,0.8-0.4,1.2-0.4c0.1,0,0.3-0.2,0.4,0.1
				c0.1,0.2-0.1,0.3-0.2,0.4c-0.1,0.1-0.3,0.2-0.4,0.2c-1.7,0.6-3.5,1.1-5.3,1.3c-1,0.2-2,0.3-3,0.3c-0.4,0-0.8-0.1-1.2-0.1
				c-0.6-0.1-1.1-0.6-1.2-1.2C138.9,37.8,139.2,36.4,139.9,35.2z"/>
			<path id="_Path_13" class="st0" d="M104.3,30.4c0.7,0.4,0.7,1,0.7,1.6c0,2.1,0.4,4.1,1.2,6c0.3,1.2,1.4,2,2.6,1.8h0.6
				c-0.2,0.4-0.5,0.7-0.9,0.8c-1.1,0.4-3,0.2-3.5-1.4c-0.1-0.2-0.1-0.4,0-0.6c0.6-0.6,0.7-1.5,0.4-2.2c-0.1-0.3-0.2-0.4-0.5-0.5
				c-0.7-0.2-1.2-0.9-1.1-1.6c0-0.7,0-1.4,0-2C103.8,31.7,104,31,104.3,30.4z"/>
			<path id="_Path_14" class="st0" d="M115.6,38.2c0.2-1.4,0.6-2.7,1.2-4c0.4-1,0.8-2,1.1-2.9c0.2-0.4,0-0.6-0.5-0.5
				c-0.7,0.1-1.4,0.3-2,0.3c-0.2,0-0.6,0.2-0.7-0.3c-0.1-0.4,0-0.9,0.2-1.3c0.1-0.1,0.2,0,0.3,0.1c0.6,0.3,1.3,0.4,1.9,0.3
				c0.4-0.1,0.8-0.1,1.1,0.1c0.1,0.1,0.3,0.1,0.3-0.1s0-0.3,0.2-0.3c0.2,0,0.2,0.1,0.2,0.3c0,0.1-0.1,0.4-0.2,0.6
				c-0.7,1.9-1.5,3.8-2.1,5.8c-0.2,0.8,0,1.6,0.7,2.1c0.3,0.2,0.4,0.7,0.2,1c-0.1,0.1-0.2,0.2-0.3,0.3
				C116.5,39.9,115.6,39.3,115.6,38.2z"/>
			<path id="_Compound_Path_5" class="st0" d="M118.4,46.8c0-0.5,0.2-1,0.5-1.4c0.1-0.1,0.2-0.3,0.4-0.2c0.6,0.2,1.3,0.2,1.9,0
				c0.2,0,0.3,0.1,0.6,0c0.2-0.1,0.5,0.3,0.6,0.6c0.1,0.3,0.1,0.6,0,0.8c-0.3,1.1-0.7,2.1-1.3,3.1c-0.3,0.6-0.5,0.6-1,0.1
				C119.2,49,118.6,48,118.4,46.8z M121.6,47c0-0.2-0.2-0.4-0.4-0.4c-0.2,0-0.4,0.1-0.4,0.4c0,0,0,0,0,0.1c0,0.3,0.2,0.5,0.5,0.4
				C121.5,47.4,121.6,47.2,121.6,47z M119.9,46.3c0-0.1-0.1-0.2-0.2-0.2c0,0,0,0,0,0c-0.1,0-0.3,0.1-0.3,0.2c0,0.1,0.1,0.3,0.3,0.3
				c0,0,0,0,0,0C119.8,46.6,119.9,46.5,119.9,46.3z M120.4,48.5c0-0.1-0.1-0.3-0.2-0.3c-0.1,0-0.3,0.1-0.3,0.2c0,0,0,0,0,0.1
				c0,0.2,0.1,0.2,0.2,0.2C120.3,48.8,120.4,48.7,120.4,48.5C120.4,48.6,120.4,48.6,120.4,48.5z"/>
			<path id="_Path_15" class="st0" d="M101,40.4c-2-0.1-3.9-0.8-5.5-2.1c-0.3-0.2-0.4-0.5-0.2-0.8c0,0,0-0.1,0.1-0.1
				c0.1-0.2,0.3-0.3,0.4-0.5c0.2-0.5,0.4-0.4,0.7-0.1c0.9,0.8,1.9,1.4,3,1.9c1,0.4,2,0.6,3,0.7c0.2,0,0.4-0.1,0.4,0.2
				c0,0.2-0.1,0.3-0.2,0.4C102.2,40.3,101.6,40.5,101,40.4z"/>
			<path id="_Path_16" class="st0" d="M79.5,43.6c-0.5,0.1-1.1-0.2-1.2-0.8c-0.1-0.3,0-0.6,0.2-0.8c0.6-1.3,1-2.6,1.3-4
				c0.2-0.4,0-0.9-0.4-1.1c0,0,0,0,0,0c-0.6-0.3-0.8-0.9-0.6-1.5c0.1-0.2,0.2-0.4,0.4-0.5c0.2-0.1,0.3-0.2,0.5-0.1
				c0.3,0.4,0.7,0.6,1.1,0.9c0.1,0,0.1,0.2,0.1,0.2c-0.3,1.1-0.2,2.3-0.9,3.4c-0.6,0.7-0.7,1.7-0.3,2.5c0.1,0.1,0.2,0.2,0.3,0.3
				c0.2,0.2,0.7,0,0.5,0.4C80.3,43,80.2,43.6,79.5,43.6z"/>
			<path id="_Path_17" class="st0" d="M134.7,37c-0.2,0.8-0.3,1.7-0.3,2.6c0,0.3,0,0.5,0.4,0.7s0.6,0.4,0.5,0.8
				c-0.1,0.4-0.3,0.7-0.7,0.7c-0.4,0.1-0.8-0.1-1-0.4c-0.4-0.7-0.1-1.4-0.1-2.1c0-0.5,0.2-1,0.2-1.5c0.1-0.5,0-0.6-0.6-0.4
				c-1,0.5-2,0.9-3.1,1.4c-0.2,0.1-0.4,0.2-0.5,0c-0.1-0.2,0.1-0.4,0.3-0.5c1.3-0.4,2.5-0.9,3.7-1.5c0.3-0.1,0.6-0.2,0.9-0.3
				C134.8,36.3,134.6,36.8,134.7,37z"/>
			<path id="_Path_18" class="st0" d="M90.5,42.3c-0.7-0.1-1.1-0.6-1.1-1.3c0-0.1,0-0.2,0-0.2c0.5-0.9,0.7-1.8,0.7-2.8
				c0-0.9,0.7-1.6,0.9-2.5c0.1-0.4,0.2-0.8,0.4-1.1c0.1-0.2,0.3-0.4,0.6-0.3c0.2,0.1,0,0.3-0.1,0.5c-0.4,1.6-1.1,3.1-1.5,4.7
				c-0.2,0.7,0,1.4,0.6,1.8c0.2,0.1,0.6,0.1,0.4,0.5c-0.1,0.4-0.4,0.7-0.8,0.8C90.6,42.3,90.5,42.3,90.5,42.3z"/>
			<path id="_Path_19" class="st0" d="M127.3,28.7c-1,0.1-2,0.2-3,0.5c-0.3,0-0.5,0.1-0.8,0.1c-0.2,0-0.5,0.2-0.6-0.2
				c0-0.3,0.2-0.5,0.5-0.6c1.3-0.1,2.5-0.6,3.8-0.8c0.5-0.2,1.1-0.2,1.7-0.3c0.3,0,0.8-0.2,0.8,0.3c0,0.4-0.2,0.8-0.7,1
				c-0.4,0.1-0.8-0.1-1.2-0.1C127.7,28.7,127.5,28.7,127.3,28.7z"/>
			<path id="_Path_20" class="st0" d="M94.4,25.8c-0.3,0.3-0.3,0.8-0.9,0.8c-1-0.1-2,0-3,0.2c-1.4,0.3-2.8,0.6-4.1,1.1
				c-0.2,0.1-0.5,0.3-0.6-0.1c-0.1-0.4,0.3-0.3,0.5-0.4c0.9-0.2,1.8-0.5,2.7-0.9c0.6-0.2,1.2-0.4,1.8-0.6c0.9-0.2,1.8-0.4,2.8-0.5
				C93.8,25.5,94.2,25.4,94.4,25.8z"/>
			<path id="_Path_21" class="st0" d="M111.6,29.2c-0.4,2-0.4,4.2-1.3,6.1c-0.1,0.1-0.1,0.2-0.1,0.3s-0.2,0.5-0.5,0.4
				s-0.1-0.4,0-0.6c0.6-2.1,0.7-4.2,1-6.4c0.1-0.3,0.2-0.6,0.5-0.5S111.6,28.9,111.6,29.2z"/>
			<path id="_Path_22" class="st0" d="M124.7,39.7c0.1,0.4,0.1,0.8,0.1,1.3c0,0.6,0.3,1.1,0.8,1.3c0.5,0.3,0.3,0.6,0.1,0.8
				c-0.2,0.4-0.8,0.6-1.2,0.4c-0.4-0.2-0.7-0.6-0.7-1.1C123.7,41.5,124,40.5,124.7,39.7z"/>
			<path id="_Path_23" class="st0" d="M122.5,36.4c0.4-1.5,1.2-3,1.7-4.5c0.2-0.4,0.6-0.4,0.9-0.4c0.3,0,0.1,0.3,0,0.5
				c-0.6,1.2-1.1,2.4-1.7,3.7c-0.2,0.4-0.3,0.8-0.5,1.1C122.7,36.8,122.7,36.5,122.5,36.4z"/>
			<path id="_Path_24" class="st0" d="M82.4,27.9c-0.3,1.2-0.4,2.4-0.5,3.6c-0.1,0.3-0.5,0.5-0.5,0.9c0,0.1-0.1,0.1-0.3,0.1
				c-0.1-0.1-0.3-0.2-0.3-0.4c0.2-1,0.3-1.9,0.5-2.9c0.1-0.3,0.1-0.6,0.2-0.9c0-0.1,0-0.3,0-0.4c0.1-0.3,0.2-0.7,0.5-0.7
				C82.4,27.2,82.2,27.7,82.4,27.9z"/>
			<path id="_Path_25" class="st0" d="M92.7,32.4c-0.4-0.4-0.5-1.1-0.3-1.6c0.2-0.8,0.2-1.7,0.6-2.5c0.1-0.3,0.3-0.5,0.6-0.5
				c0.3,0,0.4,0,0.3,0.4C93.6,29.5,93.2,31,92.7,32.4z"/>
			<path id="_Path_26" class="st0" d="M90.4,34.6c-0.1,0.4-0.4,0.6-0.7,0.7c-1.6,0.3-3.2,0.7-4.8,1.2c-0.2,0.1-0.4,0.2-0.5-0.1
				c-0.1-0.3,0.1-0.4,0.4-0.4c1.3-0.3,2.6-0.8,3.9-1.2c0.5-0.1,1-0.2,1.4-0.4c0.1-0.1,0.2,0,0.3,0C90.4,34.5,90.4,34.6,90.4,34.6z"
				/>
			<path id="_Path_27" class="st0" d="M119.9,44c-0.5-0.4-0.7-0.9-0.7-1.5c0-0.4,0.1-0.4,0.5-0.3c0.4,0.2,0.6,0.5,0.7,0.9
				c0.1,0.5,0.4,0.5,0.8,0.3l0.6-0.4c0.3,0.7,0.2,0.9-0.5,1.3l-0.6-0.1c0-0.1-0.1-0.2-0.1-0.2s-0.1,0.2-0.1,0.2L119.9,44z"/>
			<path id="_Path_28" class="st0" d="M122.5,36.4c0.2,0.1,0.2,0.4,0.4,0.4l-1.2,3.1c-0.1,0.2-0.2,0.5-0.5,0.4s-0.4-0.2-0.2-0.4
				c0.9-0.8,1.4-2,1.4-3.2C122.4,36.5,122.5,36.5,122.5,36.4z"/>
			<path id="_Path_29" class="st0" d="M120.8,44.3l0.4,0.3l-0.1,0.1c-0.1,0-0.3,0-0.4,0.1c-0.3,0.2-0.6,0.3-0.8,0
				c-0.2-0.3,0.4-0.2,0.4-0.5L120.8,44.3z"/>
			<path id="_Path_30" class="st0" d="M120.8,44.3h-0.4c-0.2,0-0.4,0-0.4-0.4l0.5,0.1c0.1,0.1,0.1,0.1,0.2,0l0.6,0
				C121.1,44.4,120.9,44.3,120.8,44.3z"/>
			<path id="_Path_31" class="st0" d="M121.2,44.7c0.1,0,0.3,0.1,0.3,0.2C121.4,45,121.2,44.9,121.2,44.7L121.2,44.7z"/>
			<path id="_Compound_Path_6" class="st1" d="M130.4,35.3c1.3-3.2,3-6.2,5-9c0.2,0.5,0.3,1,0.3,1.5c0.1,1.6,0.1,3.2-0.2,4.8
				c0,0.2,0,0.4-0.3,0.5C133.7,33.9,132.1,34.5,130.4,35.3z M134.2,33.1c0.6-0.2,1.1-0.8,1-1.5c0-0.9,0-1.9,0-2.8c0-0.3,0-0.7-0.1-1
				c-0.2,0.1-0.4,0.3-0.6,0.5c-0.3,0.5-0.4,1-0.4,1.6C134.2,30.9,134.2,31.9,134.2,33.1z"/>
			<path id="_Path_32" class="st1" d="M101.8,28.8c-0.3,0.8-0.9,1.5-1.7,1.8c-0.1,0-0.2,0-0.2,0c0,0-0.1-0.1,0-0.2
				C100.4,29.9,100.8,29.1,101.8,28.8z"/>
			<path id="_Path_33" class="st2" d="M128.9,47.7c0,0.5-0.4,0.9-0.9,0.9c-0.5,0-0.9-0.4-0.9-0.9c0,0,0,0,0-0.1c0-0.5,0.4-1,0.9-1
				c0,0,0,0,0,0C128.5,46.7,128.9,47.2,128.9,47.7z"/>
			<path id="_Path_34" class="st2" d="M121.6,47c0,0.2-0.2,0.4-0.4,0.4c-0.3,0-0.4-0.2-0.5-0.4c0-0.2,0.1-0.4,0.3-0.4c0,0,0,0,0.1,0
				C121.4,46.6,121.6,46.8,121.6,47z"/>
			<path id="_Path_35" class="st2" d="M119.9,46.3c0,0.1-0.1,0.3-0.2,0.3c-0.1,0-0.3-0.1-0.3-0.2c0,0,0,0,0,0c0-0.2,0.1-0.2,0.3-0.2
				C119.7,46.1,119.8,46.2,119.9,46.3C119.9,46.3,119.9,46.3,119.9,46.3z"/>
			<path id="_Path_36" class="st1" d="M120.4,48.5c0,0.1-0.1,0.2-0.2,0.2c0,0,0,0,0,0c-0.2,0-0.2-0.1-0.2-0.2c0-0.1,0.1-0.2,0.2-0.3
				c0,0,0,0,0.1,0C120.4,48.3,120.4,48.4,120.4,48.5z"/>
			<path id="_Path_37" class="st0" d="M120.7,44.1c-0.1,0.1-0.1,0.1-0.2,0c0.1-0.1,0-0.2,0.1-0.2C120.7,43.8,120.6,44.1,120.7,44.1z
				"/>
			<path id="_Path_38" class="st1" d="M134.2,33.1c0-1.1,0-2.2,0-3.2c-0.1-0.6,0.1-1.1,0.3-1.6c0.1-0.2,0.3-0.4,0.6-0.5
				c0.1,0.3,0.1,0.7,0.1,1c0,0.9,0,1.9,0,2.8C135.3,32.2,134.9,32.9,134.2,33.1z"/>
		</g>
	</g>
</g>
</svg>
