<?xml version="1.0" encoding="utf-8"?>
<!-- Generator: Adobe Illustrator 22.1.0, SVG Export Plug-In . SVG Version: 6.00 Build 0)  -->
<svg version="1.1" id="Layer_1" xmlns="http://www.w3.org/2000/svg" xmlns:xlink="http://www.w3.org/1999/xlink" x="0px" y="0px"
	 viewBox="0 0 233 73" style="enable-background:new 0 0 233 73;" xml:space="preserve">
<style type="text/css">
	.st0{fill:#3D3D3D;}
	.st1{fill:#A2A2A1;}
</style>
<title>Asset 25</title>
<g id="Layer_2_1_">
	<g id="Layer_1-2">
		<g id="_Group_">
			<path id="_Path_" class="st0" d="M137.1,38.3h0.2c0,0.1,0.1,0.1,0.2,0.1c1.1-0.1,2.2,0,3.2,0.1c0,0.2,0,0.3,0.1,0.5
				c-0.1,0.2-0.1,0.5,0,0.8v0.2V40c-0.1,0-0.2,0.1-0.2,0.2c0,0,0,0.1,0,0.1c0.1,0.2,0.3,0.3,0.5,0.3c0.7,0,1.4,0,2.1,0
				c-0.1,0.1-0.1,0.2-0.1,0.4c0,0.4,0,0.9-0.2,1.3c-0.1,0.1,0,0.2,0.1,0.3c0,0,0,0,0.1,0c0,0.1,0,0.3-0.1,0.4
				c-0.1,0.1-0.1,0.3-0.4,0.3c-0.5,0-1,0-1.5,0c-0.3,0-0.4,0.1-0.4,0.4c-0.1,1.9-0.2,3.7-0.3,5.6c-0.1,1.2-0.1,2.4-0.2,3.6
				c-0.2,0.2-0.3,0.4-0.3,0.7c0,0.7,0,1.4,0,2.2c0,0.3-0.1,0.4-0.4,0.4h-2.4c-0.3,0-0.4-0.1-0.4-0.4c-0.1-2.5,0.2-5.1-0.2-7.6
				c0-0.5,0.1-1,0.2-1.5c-0.1-1-0.2-1.9-0.2-2.9c0-0.1-0.1-0.1-0.1-0.2c-0.7-0.3-1-0.2-1,0.6l-0.1,3.3c-0.1,2.3-0.2,4.5-0.3,6.8
				c-0.1,0.4-0.1,0.8-0.1,1.3v0.4c0,0,0,0,0,0.1V56c-0.9,0-1.8,0-2.7,0c-0.4,0-0.5-0.1-0.5-0.5c0-2.2,0-4.3,0-6.5
				c0-0.2,0-0.4-0.1-0.6v2.9c-0.1-1.5-0.1-3.1-0.1-4.7c0-0.9,0-1.9,0-2.8c0-0.8,0-0.8-0.8-0.8c-0.2,0-0.4-0.1-0.4-0.3s0-0.8,0-1.2
				c0-0.7,0-0.7,0.7-0.7c0.3,0,0.4-0.1,0.4-0.4c0-0.5,0-1,0-1.5c0-0.4,0.1-0.5,0.5-0.5l3.3,0.1c0.4,0,0.4,0.2,0.4,0.4v1.4
				c0,0.2,0,0.4,0.2,0.4s0.5,0.2,0.6-0.2l0,0h0.1l0,0l0,0c0-0.2,0-0.5,0-0.7c0-0.4,0-0.9,0.1-1.3C136.8,38.5,137,38.5,137.1,38.3z"
				/>
			<path id="_Compound_Path_" class="st0" d="M81.3,42.3c0.2-0.3,0.3-0.7,0.4-1c0.5-1.1,1.4-2.1,2.6-2.6c1.9-0.8,4,0.1,4.9,1.9
				l0.2,0.4c0.1,0.4,0.2,0.8,0.2,1.2v2.4c0,0.4-0.2,0.9-0.2,1.3c-0.1,0.9-0.3,1.9-0.6,2.8c-0.1,0.2-0.2,0.3-0.4,0.3L86,48.6
				c-0.4,0-0.5-0.3-0.4-0.6c0.3-1.1,0.6-2.2,0.6-3.3c0-0.4,0-0.8-0.1-1.2c-0.1-0.3-0.2-0.6-0.5-0.6c-0.4-0.1-0.6,0.2-0.7,0.5
				c-0.2,0.5-0.4,1-0.4,1.6c0,0-0.1-0.2-0.1,0c0,0.4,0,0.9,0,1.3l0,1.8c-0.2,0-0.2-0.2-0.2-0.3c0-0.5,0-1,0-1.5
				c0-0.1,0.1-0.3-0.1-0.3c0,0.4,0,0.7,0,1.1c0,0.5,0,1,0,1.5c0,0.1-0.2,0.2-0.1,0.3s0.3,0.3,0.5,0 M84.4,48.7c0,0.2,0,0.4-0.1,0.5
				c-0.3,0.3,0,0.5,0.1,0.7c0.2,0.2,0.3,0.1,0.5,0c0.1-0.1,0.2-0.1,0.3-0.1c0.9,0.1,1.8,0,2.7-0.2V50l0,0c-0.2,0-0.1,0.2-0.1,0.3
				c0,0.5,0,1,0,1.5c0,0.7,0,0.7-0.8,0.7s-1.2,0-1.9,0c-0.3,0-0.4,0.1-0.4,0.5c0,0.3,0,0.5,0,0.8c0,0.2,0.1,0.5,0,0.6
				c-0.3,0.5,0,0.8,0.2,1.1l0,0c-0.1,0.2,0.2,0.6-0.2,0.6H82c-0.2,0-0.3-0.1-0.3-0.3c0-0.4-0.1-0.8-0.1-1.2V53c0-0.1,0-0.3-0.2-0.3
				c-0.3-0.2-0.7,0.1-1-0.1c0-0.7,0-1.3,0-1.9c0-0.1-0.1-0.3,0.1-0.4c0.7,0,0.7,0,0.7-0.7c-0.1-1.6-0.2-3.3-0.1-4.9
				c0.1-0.8,0.2-1.6,0.3-2.3L84.4,48.7z M83.5,48.6C83.5,48.6,83.6,48.6,83.5,48.6C83.6,48.6,83.6,48.6,83.5,48.6
				C83.6,48.5,83.5,48.5,83.5,48.6C83.5,48.5,83.5,48.6,83.5,48.6L83.5,48.6z"/>
			<path id="_Compound_Path_2" class="st0" d="M116.1,55.9L116.1,55.9l-2.8,0.1c-0.2,0-0.4,0-0.4-0.2c0.1-0.9-0.3-1.7-0.2-2.6
				c0-0.1,0-0.2,0-0.3c0-0.2-0.1-0.3-0.2-0.3c-0.2,0-0.4-0.4-0.8-0.3c0,0-0.1-0.1-0.1-0.1c0.1-0.2,0-0.6,0.2-0.8
				c0.2-0.1,0.1-0.3,0-0.5c-0.1-0.2-0.2-0.2-0.1-0.4c0.1-0.2,0.2-0.1,0.3-0.1c0.4,0,0.6-0.2,0.6-0.6c0-0.6-0.2-1.1-0.2-1.7
				c0-1.6,0-3.3,0.2-4.9c0.1-0.4,0.2-0.9,0.3-1.3c0.1-0.4,0.5-0.8,0.4-1.3l0,0c0.5-0.3,0.9-0.5,1-1.1l0,0c0.4,0.1,0.6-0.3,1-0.5
				c1-0.6,2.1-0.6,3.1-0.2c0.2,0.1,0.4,0.1,0.6,0.1c0.6,0.4,1,0.9,1.3,1.5c1.1,2,0.6,4,0.3,6.1c-0.1,0.7-0.3,1.3-0.5,2l-0.2,0.4l0,0
				h-0.6l0,0l-1.7-0.2c0-0.1-0.1-0.2-0.1-0.2c-0.6,0.1-0.7-0.2-0.6-0.7s0.3-1,0.3-1.6c0.5-0.2,0.2-0.8,0.4-1.1
				c0.2-0.6-0.1-1.2-0.1-1.8c0-0.2-0.6-0.6-0.7-0.7c-0.3-0.3-0.6,0.2-0.8-0.1c-0.2,0.4,0,0.7-0.2,1c-0.3,0.7-0.6,1.4-0.7,2.1
				c0,1.3,0,2.6,0,4c0,0.3,0.3,0.6,0.6,0.4c0.5-0.3,1.1-0.1,1.6-0.2c0.2,0,0.4,0.1,0.4-0.2l0.8-0.1c0.2,0,0.3,0,0.3,0.3
				c-0.1,0.7-0.1,1.3-0.2,2v-0.1c0,0,0,0-0.1,0c0.1,0.5-0.2,0.7-0.7,0.7c0,0,0,0.1,0,0.1c-0.7,0-1.3,0-2,0c-0.2,0-0.3,0-0.3,0.3
				C115.9,53.9,116,54.9,116.1,55.9z M112.5,52.3L112.5,52.3L112.5,52.3L112.5,52.3z"/>
			<path id="_Path_2" class="st0" d="M107,49.8c0-0.3-0.1-0.6-0.2-0.9c-0.1-0.4-0.6-0.6-0.9-0.5c-0.1,0-0.2,0.1-0.3,0.2
				c-0.7,0.5-1.1,1.4-1.2,2.2c-0.1,1.5-0.2,3.1-0.3,4.6c0,0.2,0,0.3-0.1,0.5v-0.3c0,0.2-0.2,0.3-0.4,0.3c-0.7,0-1.4,0-2.2,0
				c-0.3,0-0.3-0.1-0.3-0.4c0-3.9,0-7.8,0-11.7c1.1,0,2.2,0,3.3,0c0.4,0,0.6,0.1,0.4,0.5l-0.2,0.1c-0.2,0.2,0,0.4,0,0.7
				c0,0.2-0.2,0.2,0,0.4s0.2,0,0.4-0.1c0.1-0.1,0.3-0.1,0.2-0.3l0,0c0.2,0.1,0.3-0.4,0.4-0.2c0.2,0.2,0.5-0.1,0.7-0.1
				c0-0.2-0.3-0.1-0.2-0.3c0.1-0.1,0.2-0.2,0.3-0.2c0.1,0,0.4,0.1,0.2-0.2l0,0c0.3,0,0.7,0,0.9,0.3c0.1,0.1,0.2,0.1,0.2,0.1
				c0,0,0,0,0.1-0.1c0.1-0.1,0.1-0.2,0-0.2c0,0-0.1,0-0.1,0c-0.1,0-0.2,0-0.1-0.2c1,0.1,1.9,0.7,2.3,1.6c0.4,0.7,0.6,1.5,0.6,2.3
				v4.3c-0.1,1.2-0.2,2.3-0.5,3.5c0,0.2-0.2,0.4-0.5,0.4c0,0-0.1,0-0.1,0l0,0c-0.9,0-1.9,0-2.8,0c-0.3,0-0.5-0.1-0.4-0.4
				c0.2-1.1,0.4-2.2,0.6-3.2c0.2-0.3,0.2,0.2,0.4,0.1c-0.1-0.3,0.2-0.7-0.2-1v-2.2h-0.1L107,49.8z"/>
			<path id="_Path_3" class="st0" d="M94,45.5c-0.5,1.8-0.6,3.7-0.6,5.5c0,0.6,0.2,1.1,0.5,1.6c0.2,0.5,0.8,0.7,1.3,0.4
				c0.2-0.1,0.3-0.2,0.4-0.3c0.6-0.8,1-1.9,0.9-2.9c0-1.8,0-3.6,0-5.4c0-0.4,0.1-0.5,0.5-0.5c0.8,0,1.7,0,2.5,0c0.8,0,0.7,0,0.7,0.7
				l-0.5,8c0,0.2,0,0.5,0,0.7l-0.1,0.1l-0.1-0.4l0,0V55L99.3,56H97c-0.3,0-0.4-0.1-0.4-0.4c0.1-0.4,0-0.9-0.1-1.3c0,0,0-0.2-0.1-0.1
				c-0.1,0.1-0.2,0.2-0.2,0.4c-0.7,1.4-2.5,1.9-3.9,1.1c-0.2-0.1-0.5-0.3-0.7-0.5c-0.7-0.7-1.1-1.5-1.2-2.5
				c-0.4-2.8-0.3-5.7,0.4-8.5c0-0.1,0.1-0.3,0.3-0.3H94c0.2,0,0.2,0,0.2,0.3C94.2,44.7,94,45.1,94,45.5z"/>
			<path id="_Compound_Path_3" class="st0" d="M129.6,51.3l0.5,0.9c0.4,0.7,0.7,1.4,0,2l-0.1,0.1l-0.4,0.3c-0.7,0.7-1.7,1.2-2.7,1.4
				h-1.7H125c-0.2-0.4-0.5-0.4-0.9-0.3c-0.7-0.3-1.2-0.7-1.7-1.3c-0.1-0.5-0.4-1-0.8-1.3l0,0c0.1-0.2,0.1-0.5,0-0.7
				c-0.2-0.5-0.4-1.1-0.4-1.6c0-0.6,0-1.2,0-1.8c0-0.1,0-0.2,0-0.4c0.2-0.5,0.4-1,0.4-1.6l0,0c0.4-0.2,0.6-0.6,0.5-1l0,0
				c0.2,0,0.4-0.2,0.5-0.3c0.1-0.2,0.5-0.4,0.7-0.7c0.4-0.4,0.9-0.6,1.4-0.6c0.4,0,0.8-0.3,1.3-0.2c0.3,0.1,0.5,0.3,0.8,0.2
				c0.3-0.1,0.6,0,0.8,0.2c0.2,0.1,0.4,0.2,0.6,0.2l0.1,0.1c0,0.2,0.2,0.3,0.3,0.5c0.3,0.3,0.5,0.7,0.6,1.1c0,0.2,0.1,0.4,0.3,0.5
				c0.4,1.5,0.1,3.1-1,4.2c-1.1,1.1-2.7,1.5-4.2,1.1c0,0.3,0.2,0.3,0.3,0.5c0,0.2,0.2,0.2,0.3,0.2l0,0c0.4,0.5,1,0.7,1.6,0.5
				c0.1-0.1,0.3-0.1,0.4-0.1c0.4,0.1,0.8-0.1,0.9-0.5l0.3-0.3c0.5,0,0.7-0.4,0.9-0.8C129.4,51.6,129.4,51.4,129.6,51.3z M127.3,49.6
				c0.3,0,0.4-0.1,0.4-0.4c0-0.3,0-0.6,0-0.9c0-0.3-0.1-0.5-0.4-0.6c0-0.2-0.1-0.3-0.2-0.4c-0.5-0.2-1.1-0.2-1.6-0.2
				c-0.5,0-1,0.2-1.2,0.7c-0.2,0.6-0.5,1.3,0.2,1.8c0,0.3,0.2,0.3,0.4,0.3c0,0.2,0.2,0.3,0.3,0.3c0.5,0.1,1,0.1,1.4-0.1
				C126.9,50.1,127.3,50.1,127.3,49.6z"/>
			<path id="_Path_4" class="st0" d="M145,47.4l-0.2,3.6c-0.2,0.1-0.2,0.2-0.2,0.4v2.1c0,0.8-0.1,1.5-0.1,2.2c0,0.2-0.1,0.3-0.3,0.3
				H142c-0.2,0-0.3-0.1-0.3-0.3l-0.1-5.1c0-0.2,0-0.4,0-0.6c0-1.3-0.1-2.7,0-4c0.2,0.1,0.4,0.1,0.6,0.1h2.8L145,47.4z"/>
			<path id="_Path_5" class="st0" d="M128.9,55.8c0,0.2-0.2,0.2-0.3,0.3c-2.2,1.8-5.4,1.4-7.2-0.8c-0.4-0.5-0.7-1.1-0.9-1.8
				c-0.4-1.3-0.5-2.8-0.3-4.2c0-0.2,0.1-0.3,0.3-0.3c0.2,0,0.1,0.2,0.1,0.3c0,0.7,0,1.5,0.1,2.2l0,0.2v0.1c0,0.2,0,0.4,0.2,0.5
				c0,0.2,0,0.5,0.2,0.7c0.1,0.2,0.1,0.3,0.2,0.5c0.8,1.8,2.7,3,4.7,3C127.1,56.5,128,56.2,128.9,55.8z"/>
			<path id="_Path_6" class="st0" d="M89,50c0-0.2,0-0.4,0-0.7s0.2-0.3,0.4-0.3c0.2,0,0.2,0.2,0.2,0.3c-0.1,1.5,0.1,2.9,0.6,4.3
				c0.4,1.4,1.6,2.4,3,2.7c0.4,0.1,0.9,0,1.3-0.1c0.1,0,0.3-0.2,0.4,0c-1.7,1.5-4,0.9-5.1-1.3c-0.6-1.3-0.8-2.6-0.8-4L89,50z"/>
			<path id="_Compound_Path_4" class="st0" d="M147,22.7c0.4,0,0.9,0.1,1.4,0.1c0.2,0,0.3,0,0.3,0.3c0,0.8-0.2,1.5-0.4,2.3
				c-0.3,0.9-1.1,1.6-2.1,1.7c-0.6,0.1-1.1,0.2-1.7,0.3c-1,0.2-1.2,0.5-1.3,1.4c0,0.2-0.1,0.3-0.3,0.3c-0.2,0-0.3,0-0.5,0.1
				c-0.7,0.2-0.7,0.2-0.8-0.5c-0.3-1.3,0.5-2.6,1.8-2.9c0.1,0,0.3-0.1,0.4-0.1c0.3,0,0.7,0,1-0.1c0.9-0.1,1.5-0.8,1.6-1.6
				c0.1-0.3,0.1-0.6,0-0.9c-0.1-0.4,0-0.5,0.4-0.5L147,22.7L147,22.7z M146.7,23.7c0.1,0.9-0.4,1.7-1.1,2.2
				c-0.5,0.2-1.1,0.3-1.7,0.3c-1.1,0-2.1,0.9-2.1,2c0,0.1,0,0.2,0,0.3c0,0.2,0,0.6,0.3,0.5c0.4-0.1,0.8,0.1,0.8-0.6
				c0-0.5,0.3-0.9,0.8-1.1c0.8-0.2,1.6-0.4,2.4-0.5c0.7-0.1,1.4-0.6,1.7-1.3c0.1-0.4,0.3-0.8,0.3-1.2c0.1-0.3,0.1-0.7,0-1
				c-0.2-0.3-0.4-0.1-0.6-0.2C146.7,22.9,146.7,22.9,146.7,23.7L146.7,23.7z"/>
			<path id="_Path_7" class="st0" d="M109.5,56.1L109.5,56.1c0.2,0.6,0,0.9-0.5,0.9c-1.2,0.1-2.4,0.1-3.6,0.2c-0.3,0-0.4,0-0.3-0.4
				c0.5-1.9,0.8-3.9,0.8-5.8c0.1-0.5-0.1-1-0.4-1.4c-0.2-0.2,0-0.3,0.1-0.4s0.3-0.5,0.6-0.5c0.2,0,0.3,0.4,0.3,0.6
				c0.1,0.9,0.1,1.9-0.1,2.8c-0.2,1.3-0.4,2.7-0.8,4c0,0.2-0.1,0.3,0.2,0.3l3.6-0.3C109.3,56.2,109.4,56.1,109.5,56.1z"/>
			<path id="_Path_8" class="st0" d="M131.1,47.7v3.6c0,0.2,0,0.3-0.2,0.4s-0.4,0-0.4-0.3c0-1.9-0.1-3.7-0.1-5.6c0-0.1,0-0.2,0-0.3
				c0-0.3,0.1-0.8-0.1-1c-0.2-0.2-0.6-0.1-0.9-0.1c-0.3,0-0.2-0.1-0.2-0.3c0-0.9,0-1.8,0-2.8c0-0.3,0.2-0.2,0.4-0.3
				c0.2,0,0.3,0.1,0.3,0.3c0,0.6,0,1.3,0,1.9c0,0.3,0.1,0.4,0.4,0.4c0.9,0,0.9,0,0.9,0.9C131,45.5,131,46.7,131.1,47.7L131.1,47.7z"
				/>
			<path id="_Compound_Path_5" class="st0" d="M140.5,35.5c0.3,0,0.6,0.1,0.8,0.2c0.9,0.4,2,0.1,2.5-0.9c0.1-0.3,0.2-0.6,0.2-0.9
				c0-0.6,0.3-1.1,0.7-1.6c0.5-0.6,1.4-0.6,2-0.1c0.2,0.4,0.2,0.8,0,1.1c-0.1,0.1-0.2,0-0.3,0c-0.3-0.3-0.5-0.1-0.6,0.2
				c-0.2,0.4-0.3,0.9-0.3,1.3c-0.2,1.3-1.2,2.4-2.5,2.7c-0.4,0.1-0.9,0-1.3-0.2c-0.4-0.2-0.8-0.2-1.2,0c-0.4,0.3-0.9,0.3-1.3,0
				c-0.2-0.1-0.4-0.3-0.3-0.6C138.9,36.1,139.6,35.5,140.5,35.5z M140.3,35.8c-0.6,0-1,0.4-1.2,0.9c-0.1,0.2-0.3,0.4,0,0.5
				c0.3,0.1,0.6,0.5,0.9,0c0.2-0.2,0.5-0.4,0.8-0.3c0.4,0,0.8,0.1,1.1,0.3c0.3,0.1,0.7,0.2,1,0.1c1-0.2,1.8-0.9,2.1-1.8
				c0.2-0.5,0.3-1.1,0.4-1.6c0-0.5,0.4-0.9,0.9-0.9c0,0,0,0,0.1,0c0.4,0,0.2-0.3,0.2-0.5c-0.1-0.1-0.2-0.2-0.4-0.3
				c-0.6-0.2-1.3,0.1-1.6,0.7c-0.2,0.4-0.3,0.8-0.3,1.2c-0.1,1.2-1.2,2.1-2.5,1.9c-0.2,0-0.4-0.1-0.6-0.2
				C141,35.9,140.7,35.8,140.3,35.8L140.3,35.8z"/>
			<path id="_Path_9" class="st0" d="M84.5,56.5c0.1,0.7,0.1,0.7-0.6,0.7c-0.9,0-1.8,0-2.8,0c-0.4,0-0.5-0.1-0.5-0.5
				c-0.1-0.9-0.2-1.7-0.2-2.6c0-0.4-0.2-0.5-0.6-0.4s-0.4,0-0.4-0.4c0-0.8,0-1.6,0-2.4c0-0.2,0-0.4,0.3-0.4s0.3,0.1,0.3,0.3
				c0,0.6,0,1.2,0,1.7s0,0.4,0.5,0.3c0.5-0.2,0.5,0.1,0.6,0.5c0,0.9,0.2,1.8,0.2,2.7c0,0.3,0.1,0.4,0.4,0.4
				C82.6,56.5,83.5,56.5,84.5,56.5z"/>
			<path id="_Compound_Path_6" class="st0" d="M121.3,29.6c0.3-0.3,0.6-0.6,1-0.9c0.3-0.3,0.7-0.5,1.1-0.6c0.5-0.2,0.9-0.6,1.4-0.9
				c0.2-0.1,0.3-0.1,0.5-0.1c0.2,0,0.4-0.1,0.5-0.4c0,0,0,0,0,0c0-0.2,0.2-0.4,0.4-0.4c0.2,0,0.5,0.1,0.7,0.2
				c0.1,0.1,0.1,0.2,0.2,0.2c0.3,0.1,0.5,0.4,0.4,0.7c-0.1,0.3-0.2,0.6-0.7,0.5c-0.2,0-0.3,0.1-0.4,0.2c-0.2,0.5-0.7,0.7-1.1,0.9
				c-0.5,0.2-1,0.5-1.4,0.8c-0.4,0.4-1,0.4-1.4,0.8c0,0-0.1,0-0.1,0c-0.4-0.3-0.6,0.1-0.8,0.3s-0.5,0.3-0.7,0
				c-0.2-0.2-0.4-0.5-0.5-0.7c-0.1-0.2-0.2-0.4,0.1-0.5l0,0c0,0.2,0.1,0.3,0.3,0.3c0,0,0,0.1,0,0.1c-0.1,0.1-0.2,0.2-0.1,0.4
				s0.2,0.1,0.3,0h0.2c0,0.1-0.1,0.4,0.1,0.4s0.4-0.3,0.5-0.5c-0.2-0.1-0.1,0.3-0.4,0.1s0.3-0.3,0.3-0.6c0.3,0.1,0.6,0.5,1,0.3
				c-0.2-0.2-0.3-0.5-0.6-0.5s-0.5-0.1-0.4,0.2c-0.1-0.3-0.5,0-0.7-0.3C121,29.7,121.3,29.8,121.3,29.6z M122.5,29.2
				c-0.3,0-0.5,0-0.5,0.2s0.1,0.3,0.3,0.3c0.1,0.1,0.3,0.2,0.4,0.3c0.3,0.3,0.7,0.3,0.9,0c0.1-0.1,0.1-0.3,0.4-0.3s0.5-0.1,0.4-0.4
				c-0.3-0.4-0.7-0.6-1.2-0.6c-0.1,0-0.3,0.1-0.3,0.3s0.1,0.2,0.2,0.2c0.2,0,0.3,0.1,0.4,0.3c0,0.1,0.1,0.1,0,0.2
				c-0.1,0-0.1,0-0.2-0.1c0,0,0,0,0,0C123.1,29.2,122.7,29.3,122.5,29.2L122.5,29.2z M123.5,28.5c0.3,0.1,0.6,0.1,0.8,0.3
				c0.3,0.5,0.6,0.4,1,0.1C124.4,27.9,124.1,27.8,123.5,28.5z M125,27.6c-0.2,0.1-0.4,0-0.4,0.2s0.1,0.2,0.2,0.3
				c0.2,0.1,0.3,0.3,0.5,0.5c0.1,0.2,0.2,0.3,0.4,0.1c0.2-0.1,0.3-0.3,0.2-0.5C125.6,27.9,125.3,27.7,125,27.6z M126.1,27.1
				c0,0.1,0,0.1,0,0.2c0.1,0.2,0.1,0.5,0.4,0.5s0.5-0.1,0.4-0.2c-0.2-0.3,0-0.6-0.1-0.8c0-0.1-0.1-0.1-0.2-0.1c0,0,0,0,0,0
				c-0.1,0-0.1,0.1-0.2,0C126.1,26.6,126.1,26.7,126.1,27.1z"/>
			<path id="_Compound_Path_7" class="st0" d="M142.4,13.2c0,1.3-0.8,2.5-2,3c-0.5,0.2-0.9,0.6-1,1.2c0,0.3,0,0.5,0.1,0.8
				c0.1,0.2,0,0.4-0.2,0.5c0,0,0,0,0,0c-0.3,0.1-0.6,0.2-0.9,0.2c-0.1,0-0.2-0.1-0.2-0.2c-0.9-1.3-0.7-2.9,0.8-3.5
				c0.5-0.2,0.9-0.4,1.3-0.8c0.6-0.5,0.7-1.5,0.2-2.1c0,0,0,0-0.1-0.1c-0.1-0.1-0.2-0.2-0.2-0.3c-0.1-0.1-0.1-0.2,0.1-0.3
				c0.5-0.1,1-0.3,1.4-0.6c0.1-0.1,0.2,0,0.2,0.1C142.2,11.8,142.4,12.5,142.4,13.2z M140.5,11.7c0,0.1,0.1,0.1,0.1,0.2
				c0.7,0.7,0.7,1.9,0,2.6c-0.1,0.2-0.3,0.3-0.5,0.4c-0.3,0.2-0.6,0.3-0.9,0.4c-1,0.3-1.5,1.4-1.2,2.4c0.2,0.8,0.3,0.9,1.1,0.6
				c0.2-0.1,0.3-0.1,0.2-0.4c-0.3-0.8,0-1.6,0.7-2l0.8-0.5c1.1-0.6,1.6-1.9,1.3-3.1c-0.2-0.9-0.3-1-1.2-0.8
				C140.7,11.7,140.6,11.7,140.5,11.7z"/>
			<path id="_Compound_Path_8" class="st0" d="M138.2,27.7c-0.1,1.2-0.5,2.3-1.3,3.2c-0.3,0.3-0.6,0.6-0.8,0.9
				c-0.4,0.4-0.5,1-0.3,1.5c0.1,0.3,0,0.5-0.3,0.5c-0.3,0.1-0.4,0-0.6,0.1c-0.2,0.1-0.2,0-0.3-0.1c-0.5-0.5-0.6-1.3-0.3-2
				c0.2-0.5,0.6-1,1-1.4c0.8-0.7,1.2-1.8,1-2.9c-0.1-0.3-0.2-0.7-0.5-0.9c-0.2-0.1-0.1-0.2,0-0.3c0.4-0.4,1-0.5,1.2-1
				c0.1-0.2,0.2,0,0.3,0.1C137.9,26,138.2,26.8,138.2,27.7z M135.6,33.5c-0.3-0.6-0.3-1.3,0.2-1.7c0.2-0.2,0.4-0.5,0.6-0.7
				c0.4-0.4,0.7-0.9,1-1.4c0.6-1,0.7-2.3,0.1-3.4c-0.2-0.3-0.3-0.4-0.7-0.2c-0.3,0.2-0.6,0.3-0.8,0.5c0.7,0.9,0.8,2.1,0.3,3.1
				c-0.4,0.8-1.1,1.2-1.5,2c-0.2,0.4-0.4,0.8-0.3,1.3c0.1,0.8,0.2,0.9,1,0.6L135.6,33.5z"/>
			<path id="_Compound_Path_9" class="st0" d="M129.3,36.3l-0.4-0.2c-0.7-0.4-1.2-1.2-1.2-2c-0.2-1.5-0.8-2-2.3-1.9
				c-0.3,0-0.4-0.1-0.5-0.4c-0.2-1.4,0-1.4,1.3-1.5c1.5,0,2.7,1.2,2.8,2.7v0.4c0,1,0.3,1.4,1.3,1.6c0.2,0,0.3,0.1,0.3,0.3l0,0
				C130.4,36.4,130.5,36.5,129.3,36.3z M125.1,31.5c-0.1,0.5,0.1,0.5,0.6,0.5c1.1-0.1,2.2,0.7,2.3,1.9c0,0.1,0,0.1,0,0.2
				c-0.1,1.1,0.7,2,1.8,2.1c0.2,0.1,0.4,0,0.4-0.2c0-0.2,0.2-0.5-0.2-0.6c-0.9-0.1-1.5-1-1.3-1.8c0,0,0,0,0,0c0-0.5-0.1-0.9-0.3-1.3
				c-0.4-0.9-1.2-1.4-2.1-1.5C125.5,30.6,125,30.7,125.1,31.5z"/>
			<path id="_Path_10" class="st0" d="M143.4,43.7h1.6c0.2,0,0.3,0,0.3,0.3c-0.1,1.3-0.1,1.3-1.4,1.2c-0.7,0-1.4,0-2,0
				c-0.3,0-0.4-0.1-0.4-0.3c0-0.3-0.1-0.6-0.2-0.9c0-0.2,0-0.3,0.3-0.3C142.2,43.7,142.8,43.7,143.4,43.7L143.4,43.7z"/>
			<path id="_Path_11" class="st0" d="M113.7,57.2c-0.5,0-1,0-1.5,0c-0.3,0-0.4-0.1-0.4-0.4c-0.1-0.9-0.2-1.9-0.2-2.8
				c0-0.2,0-0.4-0.3-0.3c-0.1,0-0.3,0.1-0.2-0.1c0.1-0.2-0.1-0.4,0.2-0.5c0.3-0.1,0.6-0.1,0.8-0.1c0.2,0,0.1,0.2,0.2,0.3
				c0.1,1,0.2,1.9,0.3,2.8c0,0.3,0.1,0.4,0.4,0.4c0.8,0,1.6,0,2.4,0c0.4,0,0.5,0.1,0.5,0.4c0,0.3-0.2,0.3-0.4,0.3L113.7,57.2z"/>
			<path id="_Compound_Path_10" class="st0" d="M146.2,18.9c-0.4-0.1-0.5-0.5-0.5-0.9c0-0.1,0.1-0.2,0-0.4l0,0
				c0.2-0.3,0.2-0.7,0.6-0.9s0.2-0.3,0.1-0.4c-0.1-0.2-0.2-0.3-0.5-0.3c-0.3,0-0.2,0.1-0.2,0.2c0.1,0.1,0.1,0.2-0.1,0.2
				c-0.2,0-0.5,0.2-0.3,0.6c0.1,0.2,0,0.2-0.1,0.3c-0.1,0.1-0.2,0.3-0.1,0.5H145c-0.1-0.1-0.1-0.1-0.2-0.2c-0.2-0.1-0.2-0.2,0-0.3
				c0.1,0,0.2-0.1,0.2-0.2c-0.1-0.5,0.3-0.7,0.6-1c0.2-0.3,0.7-0.4,0.9,0.1c0.2,0.5,0.3,0.3,0.6,0.3c0.6-0.1,1.3,0.1,1.7,0.5
				c0.3,0.2,0.2,0.5,0.3,0.8c0.1,0.3,0.2,0.4,0.5,0.4c0.5,0,0.6,0.3,0.4,0.7c-0.1,0.4-0.3,0.7-0.6,1c-0.3,0.2-0.7,0.2-1,0.1l0,0
				c-0.1-0.8-0.6-0.2-0.9-0.3c-0.2,0-0.4,0-0.6,0c-0.1-0.2-0.5-0.2-0.5-0.4l0,0c0.1,0,0.3,0.1,0.3,0c0.1-0.5,0.4-0.3,0.7-0.3
				c0.3,0,0.5,0.1,0.5,0.4l0,0l0,0c0.2-0.1,0.4-0.2,0.5-0.4c0.3-0.2,0.5-0.6,0.5-1c0-0.3-0.3-0.2-0.4-0.4c-0.1-0.1-0.6-0.3-0.2-0.7
				c0.1-0.1,0-0.1-0.1-0.1c-0.1,0-0.2-0.1-0.3,0c-0.1,0.1-0.2,0.2-0.2,0.4c-0.1,0.2-0.1,0.3-0.3,0.3c-0.2,0-0.4-0.1-0.5-0.3
				c-0.1-0.1,0-0.3-0.1-0.4c-0.5,0.3-0.8,0.6-0.7,1.1c0,0-0.1,0,0,0.1v-0.1c0.2,0,0.4,0,0.7-0.1c0.1,0.4-0.4,0.1-0.4,0.3l0.3,0.4
				c-0.1,0-0.3,0-0.4-0.1l0,0l0,0C146.1,18.5,146.2,18.7,146.2,18.9L146.2,18.9z M148.8,19.9L148.8,19.9c0.3-0.3,0.8-0.3,0.7-0.8
				c0-0.1,0.1-0.3,0.2-0.3c0.1,0,0.2-0.1,0.1-0.3c-0.1-0.1-0.3-0.2-0.4-0.1s-0.4,0.1-0.4,0.3c0.1,0.4-0.4,0.5-0.4,0.8
				c0,0-0.2-0.1-0.2,0.1C148.5,19.7,148.6,19.8,148.8,19.9z M147.7,16.9c-0.3-0.1-0.5-0.1-0.6,0.1c-0.1,0.2,0,0.4,0.2,0.4
				C147.6,17.3,147.4,16.9,147.7,16.9L147.7,16.9z M148.7,17.7c0-0.1,0.1-0.1,0.1-0.2c0-0.2-0.1-0.4-0.3-0.4c0,0-0.1,0-0.1,0.1
				c-0.1,0.2,0.2,0.2,0.2,0.3S148.6,17.5,148.7,17.7L148.7,17.7z M147.2,19.4c0.1-0.1,0.2-0.1,0.2-0.3
				C147.2,19.1,147.2,19.1,147.2,19.4L147.2,19.4z"/>
			<path id="_Compound_Path_11" class="st0" d="M120.8,17.5c0.8,0,0.8,0,0.6,0.8c-0.3,0.9-0.2,1.8,0.2,2.6c0.3,0.6,0.9,1,1.5,1
				c0.3,0,0.4,0.1,0.3,0.4c-0.1,0.3-0.1,0.4-0.2,0.6c-0.2,0.6-0.2,0.6-0.8,0.4c-1.7-0.6-2.8-2.3-2.6-4.1c0-0.4,0.1-0.7,0.1-1.1
				C120,17.4,119.9,17.4,120.8,17.5z M120.2,19.3c-0.2,1.5,0.6,3,2,3.7c0.6,0.3,0.6,0.3,0.8-0.4c0.1-0.2,0.1-0.3-0.2-0.4
				c-0.9-0.2-1.6-0.9-1.8-1.9c-0.2-0.7-0.1-1.5,0.1-2.2c0-0.1,0.2-0.3,0-0.4c-0.2-0.1-0.4-0.1-0.6,0c-0.2,0.1-0.3,0.2-0.3,0.4
				L120.2,19.3z"/>
			<path id="_Path_12" class="st0" d="M140.7,56.7v-0.3l-0.1-3.8c0-0.2,0-0.4,0.3-0.4c0.3,0,0.3,0.1,0.3,0.3c0,1.2,0.1,2.4,0.1,3.7
				c0,0.3,0.1,0.4,0.4,0.4c0.7,0,1.4,0,2.1,0c0.2,0,0.4-0.1,0.3,0.2c-0.1,0.3,0.1,0.5-0.3,0.5c-1,0-1.9,0-2.9,0c0,0,0,0-0.1,0
				L140.7,56.7z"/>
			<path id="_Path_13" class="st0" d="M95.1,52.2c0.3-1.1,0.4-2.2,0.3-3.4c0-1.3,0-2.7,0-4c0-0.2,0-0.4,0.3-0.4
				c0.3,0,0.3,0.2,0.3,0.4c0,1.6,0,3.2,0,4.8c0,0.8-0.2,1.5-0.5,2.2C95.4,52,95.3,52.2,95.1,52.2z"/>
			<path id="_Path_14" class="st0" d="M80.6,44c-0.1,1.7-0.1,3.3,0,5c0,0.2,0.2,0.5-0.3,0.5c-0.4,0-0.4-0.2-0.4-0.5
				c-0.1-1.8-0.1-3.6,0.2-5.4c0.1-0.8,0.4-1.6,0.9-2.3c0.2,0.2,0,0.3,0,0.5c0,0.2-0.1,0.3-0.1,0.5c0,0.2-0.1,0.4-0.1,0.6
				c-0.1,0.2-0.1,0.4-0.1,0.7L80.6,44z"/>
			<path id="_Path_15" class="st0" d="M112.2,41.3c-0.7,2.1-0.5,4.3-0.5,6.5c0,0.4,0,0.8,0,1.2c0,0.2-0.1,0.2-0.3,0.2
				c-0.2,0-0.3,0.1-0.3-0.2c-0.3-2.2-0.1-4.4,0.5-6.6C111.7,42,111.9,41.6,112.2,41.3z"/>
			<path id="_Path_16" class="st0" d="M136.8,56.5h2.6V57l-0.1,0.2c-1.1,0-2.3,0-3.4,0c-0.4,0-0.5-0.1-0.5-0.5c0-0.1,0-0.2,0-0.3
				c0-0.2,0-0.3,0-0.5c0.1-0.5,0.1-1,0-1.5c0-0.2,0-0.4,0-0.6s0-0.4,0.3-0.4c0.3,0,0.3,0.2,0.3,0.4c0,0.7,0,1.4,0,2.1
				c0,0.4,0.1,0.5,0.5,0.4L136.8,56.5z"/>
			<path id="_Path_17" class="st0" d="M134.4,57.1l-0.2,0.1c-0.4,0-0.8,0-1.2,0c-0.7,0-1.4,0-2.1,0c-0.3,0-0.4-0.1-0.4-0.4
				c0-0.8,0-1.5,0-2.3c0.2-0.3,0.3-0.6,0.7-0.7v2.6c0,0.1,0,0.1,0.1,0.1h1.8c0.4,0,0.7,0,1.1,0c0.2,0,0.3,0.1,0.3,0.3L134.4,57.1
				L134.4,57.1z"/>
			<path id="_Path_18" class="st0" d="M130.6,26.5c-0.3-0.6-0.7-1-1.1-1.4c-0.9-0.7-1.4-1.9-1.2-3c0.1-0.5,0.3-1,0.6-1.5
				c0.2-0.3,0.3-0.7,0.5-1c0.2-0.4,0.2-0.9,0-1.3c-0.2-0.3-0.2-0.5,0.3-0.6c0.2,0,0.4-0.1,0.6-0.2c0.4-0.2,0.6-0.1,0.7,0.3
				c0,0.1-0.1,0.2-0.2,0.2c-0.4-0.6-0.8,0-1.3-0.1c0.5,0.6,0.5,1.5,0.1,2.2c-0.2,0.4-0.4,0.9-0.7,1.3c-0.5,0.8-0.4,1.9,0.2,2.6
				c0.2,0.3,0.5,0.6,0.8,0.8c0.7,0.5,1.1,1.4,1,2.3l-0.1,0.2c-0.3-0.1,0-0.3-0.1-0.4C130.7,26.9,130.7,26.7,130.6,26.5z"/>
			<path id="_Path_19" class="st0" d="M113.3,40.6c0,0.5-0.3,0.9-0.4,1.3c-0.1,0.4-0.2,0.8-0.3,1.3c-0.2,1.6-0.2,3.3-0.2,4.9
				c0,0.6,0.2,1.1,0.2,1.7c0,0.4-0.2,0.6-0.6,0.6c-0.1,0-0.3-0.1-0.3,0.1c-0.1,0.1,0.1,0.3,0.1,0.4c0.1,0.1,0.3,0.3,0,0.5
				c-0.3,0.2-0.1,0.5-0.2,0.8c0,0,0.1,0.1,0.1,0.1c0.3-0.1,0.5,0.3,0.8,0.3c0.3,0,0.2,0.1,0.2,0.3c0,0.1,0,0.2,0,0.3
				c-0.1,0.9,0.3,1.7,0.2,2.6c0,0.3,0.2,0.2,0.4,0.2h2.8c-0.1,0.2-0.3,0.1-0.4,0.1c-0.8,0-1.7,0-2.5,0c-0.4,0-0.5-0.1-0.5-0.4
				c-0.1-0.9-0.1-1.7-0.2-2.6c0-0.3-0.1-0.6-0.5-0.5s-0.5,0-0.5-0.4c0-0.6,0-1.1,0-1.7c0-0.2,0-0.4,0.3-0.4c0.3,0,0.4-0.2,0.4-0.5
				c-0.1-1.7-0.2-3.3-0.1-5c0-1.2,0.3-2.5,0.8-3.6C113,40.9,113.1,40.7,113.3,40.6z"/>
			<path id="_Path_20" class="st0" d="M130.7,27.5l0.1-0.2c0.8,0.1,0.9,0.1,0.8-0.8c0-0.2,0-0.5-0.1-0.7c-0.3-0.6-0.8-1.2-1.4-1.6
				c-0.7-0.5-0.9-1.5-0.5-2.3c0.2-0.5,0.5-0.9,0.8-1.3c0.4-0.5,0.5-1.2,0.4-1.8c-0.1-0.2-0.1-0.4-0.2-0.6c0.1,0,0.2-0.1,0.2-0.2
				c0.5,0.8,0.5,1.8,0,2.5c-0.2,0.4-0.6,0.8-0.8,1.2c-0.6,0.7-0.5,1.7,0.2,2.3c0,0,0.1,0.1,0.1,0.1c0.1,0.1,0.2,0.2,0.3,0.3
				c1.1,0.6,1.5,2,0.9,3.2C131.4,27.4,131.1,27.5,130.7,27.5C130.8,27.6,130.8,27.5,130.7,27.5z"/>
			<path id="_Path_21" class="st0" d="M139.9,56.1h-2.9c-0.2,0-0.4,0-0.4-0.3c0-4.1-0.1-8.2-0.1-12.3c0,0,0-0.1,0-0.1
				c0,0.1,0.1,0.1,0.1,0.2c0,1,0.1,1.9,0.2,2.9c-0.1,0.5-0.2,1-0.2,1.5c0.4,2.5,0.1,5.1,0.2,7.6c0,0.3,0.1,0.4,0.4,0.4h2.2
				c0.3,0,0.4-0.1,0.4-0.4c0-0.7,0-1.4,0-2.2c0-0.3,0.1-0.5,0.3-0.7L139.9,56.1z"/>
			<path id="_Path_22" class="st0" d="M95.3,56.3c0-0.4,0.3-0.5,0.6-0.7c0,0,0.1,0.1,0.1,0.1c0,0.8,0,0.8,0.8,0.7l1.9-0.2
				c0.2,0,0.3,0,0.3,0.2s-0.1,0.4-0.5,0.5c-0.9,0-1.8,0.1-2.6,0.2c-0.4,0-0.5-0.1-0.5-0.5C95.4,56.6,95.4,56.4,95.3,56.3z"/>
			<path id="_Path_23" class="st0" d="M99.9,56.6v-0.3c0.3-0.3,0.5-0.2,0.7,0.1c0.1,0.3,0.2,0.1,0.3,0.1l2.4-0.2
				c0.1,0,0.4-0.1,0.3,0.2c0,0.3,0.1,0.4-0.3,0.5c-1,0.1-2.1,0.2-3.1,0.3c-0.2,0-0.3,0-0.3-0.3C99.9,56.8,99.9,56.7,99.9,56.6z"/>
			<path id="_Path_24" class="st0" d="M134.6,20.9c0.3,0.1,0.2-0.2,0.3-0.3l0,0l0.2-0.2l0,0c0.1,0,0.2-0.1,0.2-0.2l0,0
				c0.5-0.3,1.2-0.3,1.7,0c0.4,0.2,0.4,0.7,0.5,1.1c0.1,0.5,0,1-0.1,1.4c-0.1,0.2-0.1,0.5-0.1,0.7l-0.1,0.1h-0.1
				c0.2-0.7,0.3-1.5,0.3-2.3c0-0.5-0.3-0.9-0.8-1.1c-0.3-0.2-0.7-0.1-1,0.1c1,0,1.5,0.3,1.6,1.1c0,0.3,0,0.5,0,0.8
				c0,0.5-0.2,1-0.4,1.4c-0.1,0.2,0.2,0.5-0.2,0.6l-0.2-0.1c0.2-0.5,0.4-1,0.5-1.5c0.1-0.5,0.1-1-0.1-1.5c-0.2-0.5-0.8-0.7-1.2-0.6
				c-0.4,0.1-0.6,0.6-0.6,1c0,0.1,0.1,0.2-0.1,0.2c-0.6-0.6-1-0.6-1.6,0l-0.1-0.1l0.1-0.3l0,0c0.1,0,0.2-0.1,0.3-0.2l0,0
				c0.4-0.1,0.8-0.1,1.2,0.1C134.8,21.1,134.5,21.1,134.6,20.9z"/>
			<path id="_Path_25" class="st0" d="M126.5,61.1c0-0.3,0-0.6,0-0.9c0-0.2,0-0.3,0.2-0.3c0.2,0,0.2,0.2,0.2,0.3c0,0.5,0,1,0,1.5
				c0,0.1,0,0.2-0.1,0.3c-0.1,0-0.2,0-0.3-0.1c-0.3-0.4-0.6-0.8-1-1.3v1.2c0,0.1,0,0.3-0.2,0.3c-0.2,0-0.2-0.2-0.2-0.3
				c0-0.5,0-1,0-1.5c0-0.1-0.1-0.3,0.1-0.4c0.2-0.1,0.3,0.1,0.4,0.2C125.8,60.4,126.1,60.7,126.5,61.1L126.5,61.1z"/>
			<path id="_Path_26" class="st0" d="M131.4,40.2c0-0.5,0-1.1,0-1.6c0-0.2,0-0.4,0.3-0.4c1.2,0,2.5,0,3.7,0c0.3,0,0.4,0.1,0.4,0.4
				v0.5c-0.1,0.1-0.1,0.2,0,0.3l0,0c-0.1,0.2-0.1,0.4-0.1,0.6c0,0.2,0,0.4,0.3,0.3c0.1,0,0.2,0,0.3,0c-0.1,0.4-0.4,0.2-0.6,0.2
				c-0.2,0-0.2-0.2-0.2-0.4v-1.4c0-0.3,0-0.4-0.4-0.4l-3.3-0.1c-0.4,0-0.5,0.1-0.5,0.5c0,0.5,0,1,0,1.6c0,0.3-0.1,0.4-0.4,0.4
				c-0.7,0-0.7,0-0.7,0.7c0,0.4,0,0.8,0,1.2c0,0.4,0.1,0.3,0.4,0.4c0.8,0,0.8,0,0.8,0.8c0,0.9,0,1.9,0,2.8c0-1-0.1-1.9-0.1-2.8
				c0-0.4-0.1-0.6-0.5-0.5c-0.1,0-0.2,0-0.4,0c-0.3,0-0.4-0.1-0.4-0.4c0-0.7,0-1.3,0-2c0-0.3,0.1-0.4,0.4-0.4c0.2,0,0.5,0,0.7,0
				c0.1,0,0.1-0.1,0.1-0.1L131.4,40.2z"/>
			<path id="_Compound_Path_12" class="st0" d="M140.5,62c-0.6,0-1.1-0.5-1.1-1.1c-0.1-0.6,0.4-1.2,1-1.2c0.6-0.1,1.2,0.4,1.2,1
				c0,0.1,0,0.1,0,0.2C141.6,61.6,141.1,62,140.5,62z M140.5,60.2c-0.4,0-0.7,0.3-0.7,0.7c0,0,0,0,0,0c0,0.4,0.3,0.7,0.7,0.8
				c0.4,0,0.7-0.3,0.8-0.7C141.3,60.6,141,60.2,140.5,60.2C140.6,60.1,140.6,60.1,140.5,60.2L140.5,60.2z"/>
			<path id="_Compound_Path_13" class="st0" d="M127.8,60.8C127.8,60.8,127.8,60.8,127.8,60.8c0.1-0.4-0.4-1,0.4-1
				c0.8,0,1.4,0.3,1.5,0.9c0.1,0.5-0.3,1.1-0.8,1.2c0,0-0.1,0-0.1,0C127.8,62,127.8,62,127.8,60.8z M128.2,60.8
				c0,0.8,0.1,0.9,0.7,0.7c0.3-0.1,0.5-0.5,0.4-0.8c-0.1-0.4-0.5-0.6-0.9-0.5C128,60.2,128.3,60.6,128.2,60.8L128.2,60.8z"/>
			<path id="_Path_27" class="st0" d="M138.5,60.9v0.8c0,0.1,0,0.3-0.2,0.2c-0.2,0-0.2-0.1-0.2-0.3l0,0c0-0.5-0.3-0.7-0.9-0.6
				c-0.1,0-0.1,0.1-0.1,0.2v0.5c0,0.1-0.1,0.2-0.2,0.2c-0.1,0-0.2,0-0.2-0.1c0,0,0,0,0-0.1V60c0-0.1,0.1-0.2,0.2-0.2c0,0,0,0,0,0
				c0.1,0,0.2,0.1,0.2,0.2c0,0.1,0,0.1,0,0.2c-0.1,0.4,0.1,0.5,0.5,0.5c0.4,0,0.6-0.1,0.5-0.5c0-0.1-0.1-0.4,0.2-0.4
				c0.3,0,0.2,0.2,0.2,0.4L138.5,60.9L138.5,60.9z"/>
			<path id="_Path_28" class="st0" d="M135,62c-0.2,0-0.4-0.1-0.6-0.2c-0.1-0.1-0.2-0.2-0.1-0.3c0.1-0.1,0.2-0.1,0.3,0
				c0.2,0.1,0.4,0.2,0.6,0.2c0.1,0,0.3-0.1,0.3-0.2c0-0.2-0.1-0.2-0.2-0.3c-0.1,0-0.3-0.1-0.5-0.2c-0.3-0.1-0.5-0.3-0.4-0.6
				c0-0.3,0.2-0.5,0.5-0.6c0.3-0.1,0.6,0,0.9,0.1c0.1,0.1,0.2,0.1,0.1,0.3c0,0.1-0.1,0.1-0.2,0.1c0,0,0,0-0.1,0
				c-0.1,0-0.1-0.1-0.2-0.1c-0.2,0-0.5-0.2-0.6,0.2c-0.1,0.3,0.2,0.3,0.4,0.3c0,0,0.1,0,0.1,0c0.4,0.1,0.7,0.3,0.6,0.7
				S135.4,62,135,62z"/>
			<path id="_Compound_Path_14" class="st0" d="M124.2,61.7c0,0.1,0,0.2-0.1,0.2s-0.2,0-0.3-0.1c-0.2-0.6-0.7-0.3-1.1-0.3
				c-0.2,0-0.2,0.2-0.2,0.3s-0.2,0.2-0.3,0.1c-0.1,0-0.1-0.2-0.1-0.3c0.2-0.6,0.5-1.1,0.7-1.7c0.1-0.2,0.3-0.3,0.4-0.1
				C123.6,60.5,123.9,61.1,124.2,61.7z M123.2,60.3l-0.4,0.8c0.2,0,0.5,0,0.7,0L123.2,60.3z"/>
			<path id="_Compound_Path_15" class="st0" d="M142.5,60.9v-0.2c0-0.3-0.1-0.7,0.2-0.8c0.3-0.1,0.7-0.1,1.1,0
				c0.3,0.1,0.5,0.4,0.4,0.7c0,0.3-0.3,0.6-0.6,0.6c-0.4,0-0.8,0-0.7,0.6c0,0.1-0.1,0.1-0.2,0.1c-0.1,0-0.2-0.1-0.2-0.2c0,0,0,0,0,0
				C142.5,61.4,142.5,61.1,142.5,60.9L142.5,60.9z M143.2,60.1c-0.2,0-0.3,0.1-0.3,0.3c0,0.3-0.1,0.5,0.3,0.4c0.4,0,0.6,0,0.6-0.4
				C143.8,60.2,143.5,60.2,143.2,60.1z"/>
			<path id="_Path_29" class="st0" d="M119.5,60.9c0-0.4,0.2-0.8,0.5-1c0.4-0.2,0.8-0.2,1.2,0c0.1,0.1,0.3,0.1,0.2,0.3
				c-0.1,0.2-0.2,0.1-0.4,0c-0.3-0.2-0.7-0.2-0.9,0.1c0,0,0,0.1-0.1,0.1c-0.3,0.3-0.3,0.7,0,1c0.2,0.3,0.6,0.4,0.9,0.2
				c0,0,0,0,0.1-0.1c0.1-0.1,0.2-0.2,0.3,0c0.1,0.2-0.1,0.3-0.2,0.3c-0.3,0.2-0.8,0.2-1.1,0C119.7,61.6,119.5,61.3,119.5,60.9z"/>
			<path id="_Path_30" class="st0" d="M138.8,33.6c-0.1,0.2-0.2,0.3-0.3,0.4c-0.7,0.7-1.2,1.5-1.5,2.4c0,0.1-0.1,0.3-0.2,0.2
				c-0.1-0.1-0.2-0.2-0.1-0.3c0.4-1,1-1.9,1.7-2.7c0.1-0.1,0.2-0.1,0.3-0.1C138.7,33.5,138.8,33.5,138.8,33.6z"/>
			<path id="_Compound_Path_16" class="st0" d="M142.8,21.4c-0.1-0.4,0.2-0.5,0.5-0.6c1.1-0.5,0.8-0.6,1.2,0.4
				c0,0.1,0.1,0.2,0.1,0.3c0.1,0.3,0.1,0.4-0.2,0.5c-0.2,0.1-0.3,0.2-0.5,0.3c-0.5,0.3-0.5,0.3-0.7-0.2c-0.1-0.2-0.1-0.4-0.4-0.5
				C142.8,21.7,142.9,21.5,142.8,21.4z M144.4,21.8c0-0.2-0.4-0.9-0.5-0.9c-0.3,0.1-0.7,0.1-0.8,0.4c-0.1,0.1,0.4,0.9,0.5,0.9
				C143.9,22.2,144.2,22,144.4,21.8z"/>
			<path id="_Compound_Path_17" class="st0" d="M141.5,32.7c-0.1,0-0.2,0-0.2-0.1l-0.1-0.1c-0.6-1-0.5-1.3,0.6-1.7
				c0.2-0.1,0.2,0,0.3,0.2s0.1,0.4,0.2,0.6c0.4,0.6,0.4,0.6-0.3,0.9L141.5,32.7z M141.8,31.2c-0.2,0.1-0.4,0.2-0.6,0.3
				c-0.2,0.1-0.2,0-0.2,0.1c0.1,0.3,0.2,0.5,0.4,0.7c0.2,0,0.5-0.1,0.6-0.2c0.2-0.2,0-0.5-0.1-0.7C141.9,31.3,141.9,31.2,141.8,31.2
				z"/>
			<path id="_Path_31" class="st0" d="M128.4,44.7c-0.2,0-0.4,0-0.6-0.2c-0.2-0.2-0.5-0.3-0.8-0.2c-0.3,0.1-0.6-0.2-0.8-0.2
				c-0.4-0.1-0.8,0.2-1.3,0.2c-0.5,0-1,0.2-1.4,0.6c-0.2,0.2-0.5,0.4-0.7,0.7s-0.3,0.3-0.5,0.3c1.3-2,3.9-2.7,6-1.4
				C128.3,44.7,128.4,44.7,128.4,44.7z"/>
			<path id="_Path_32" class="st0" d="M126.2,20.5c0,0.2-0.2,0.5-0.2,0.7c-0.2,0.7-0.2,1.6,0,2.3c0,0.1,0,0.2,0,0.4
				c0,0.1,0,0.2-0.1,0.2s-0.2,0-0.2-0.1c-0.4-1.2-0.3-2.4,0.1-3.6c0.1-0.1,0.1-0.2,0.2-0.2S126.2,20.4,126.2,20.5z"/>
			<path id="_Path_33" class="st0" d="M132.2,14.7c0.2,0.1,0.3,0.3,0.3,0.5c0.1,0.2,0.2,0.2,0.3,0.1s0.2-0.2,0.1-0.3
				c-0.1-0.3-0.2-0.6-0.4-0.8c0.4,0.2,0.4,0.3,0.6,0.9c0.4-0.3,0.4-0.5,0-1.2l0,0c0.2,0.1,0.2,0.3,0.3,0.4c0-0.3-0.1-0.6-0.3-0.9
				c0.2,0.1,0.4,0.1,0.7,0.1c0.1,0,0.3,0,0.4,0h0.2v0.1c-0.3,0-0.6-0.1-0.8,0.1c-0.2,0.1,0,0.5,0,0.7c0,0.7-0.6,1.2-1.3,1.2
				c-0.1,0-0.2,0-0.3-0.1c-0.4-0.1-0.4,0-0.4,0.3c0,0.2,0,0.4-0.1,0.6c-0.2,0.4-0.4,0.4-0.8,0.1l0.1-0.1c0.2,0.3,0.4,0.2,0.5-0.1
				c0.1-0.2,0.1-0.3,0.1-0.5c0.1-0.6,0-0.6,0.6-0.5c0.1,0,0.2,0,0.3,0c0-0.2-0.2-0.4-0.2-0.6L132.2,14.7z"/>
			<path id="_Compound_Path_18" class="st0" d="M152.4,21.3c0,0.1,0,0.2-0.1,0.2c-0.3,0.2-0.6,0.4-0.8,0.7c-0.1,0.1-0.2,0.1-0.3,0
				c-0.1-0.1-0.2-0.2-0.3-0.3c-0.2-0.2-0.6-0.4-0.6-0.6c0.1-0.4,0.6-0.6,0.9-0.9c0,0,0.1,0,0.1,0C151.9,20.6,152.2,21,152.4,21.3z
				 M152,21.3c-0.1-0.1-0.2-0.2-0.3-0.3c-0.3-0.4-0.5,0-0.8,0.2s-0.1,0.4,0,0.5s0.4,0.3,0.6,0C151.7,21.6,151.9,21.4,152,21.3
				L152,21.3z"/>
			<path id="_Compound_Path_19" class="st0" d="M146.1,14c-0.3,0-0.4,0-0.4-0.2c-0.1-0.3-0.2-0.7-0.2-1c0.1-0.4,0.6-0.5,0.9-0.6
				c0.2-0.1,0.5,0,0.6,0.3c0,0,0,0,0,0l0,0c0.1,0.4,0.4,0.8,0.2,1.1C146.9,13.8,146.5,14,146.1,14z M145.9,13.6c0.2,0.2,1,0,1-0.3
				c0,0,0-0.1,0-0.1c-0.2-0.7-0.4-0.8-1-0.5c-0.1,0-0.2,0-0.1,0.1C145.8,13,145.9,13.3,145.9,13.6L145.9,13.6z"/>
			<path id="_Path_34" class="st0" d="M131.4,60.7c0.2-0.3,0.3-0.5,0.5-0.7s0.2-0.3,0.4-0.2c0.2,0.2,0,0.3-0.1,0.4l-0.2,0.2
				c-0.3,0.3-0.5,0.7-0.5,1.2c0,0.1,0,0.3-0.2,0.3c-0.2,0-0.2-0.1-0.2-0.2c0.1-0.6-0.3-1-0.6-1.4c-0.1-0.1-0.3-0.3-0.1-0.4
				s0.3,0.1,0.4,0.2C131,60.2,131.1,60.5,131.4,60.7z"/>
			<path id="_Compound_Path_20" class="st0" d="M128.5,15.3c0,0.1-0.1,0.2-0.2,0.3c-0.3,0.2-0.6,0.4-0.9,0.5c-0.3,0-0.5-0.4-0.7-0.6
				c-0.5-0.5-0.5-0.5,0.1-0.8s1.2-0.3,1.6,0.5C128.4,15.1,128.4,15.2,128.5,15.3z M127.3,14.7c-0.2,0-0.4,0.1-0.6,0.3
				c-0.1,0.2,0.2,0.3,0.3,0.4c0.1,0.1,0.1,0.2,0.2,0.2c0.2,0.2,0.4,0.1,0.5-0.1c0.1-0.1,0.4-0.1,0.3-0.4
				C128,14.9,127.7,14.7,127.3,14.7z"/>
			<path id="_Path_35" class="st0" d="M132.6,36.6c-0.1-0.1-0.2-0.3-0.2-0.5c-0.2-0.9-0.5-1.8-0.8-2.7c-0.1-0.1-0.2-0.3,0-0.4
				s0.2,0.1,0.3,0.3c0.4,0.8,0.6,1.7,0.8,2.6C132.7,36.2,132.6,36.4,132.6,36.6z"/>
			<path id="_Compound_Path_21" class="st0" d="M135.9,17c-0.1,0.3-0.3,0.6-0.6,0.9c-0.1,0.1-0.2,0-0.2-0.1
				c-0.3-0.2-0.6-0.4-0.9-0.5c-0.2,0-0.2-0.2-0.1-0.3c0.2-0.3,0.3-0.5,0.5-0.8c0.1-0.1,0.1-0.1,0.2-0.2C135,16,135.9,16.7,135.9,17z
				 M135.5,17.1c-0.1-0.3-0.4-0.4-0.6-0.6c-0.2,0.2-0.4,0.4-0.5,0.7c0.2,0.2,0.4,0.4,0.7,0.4C135.4,17.6,135.4,17.2,135.5,17.1
				L135.5,17.1z"/>
			<path id="_Compound_Path_22" class="st0" d="M120.7,24.7c0.7,0,0.7,0,0.6,0.7c0,0.7-0.1,0.8-0.8,0.8c-0.8,0-0.7,0-0.6-0.7l0,0
				C120,24.7,120,24.7,120.7,24.7z M121,25.3c0-0.3,0-0.5-0.4-0.5c-0.3,0-0.4,0.2-0.4,0.5c0,0.3,0,0.5,0.4,0.5
				C121,25.8,121,25.6,121,25.3z"/>
			<path id="_Compound_Path_23" class="st0" d="M124.3,35.4c0-0.5,0.2-0.7,0.8-0.8c0.5-0.1,0.7,0.1,0.7,0.5c0,0.1,0,0.2,0.1,0.3
				c0.1,0.4,0,0.6-0.4,0.7h-0.2C124.4,36.3,124.4,36.3,124.3,35.4z M124.7,35.9c0.3,0.1,0.7,0.1,0.9-0.2c0.2-0.2,0.1-0.5-0.1-0.7
				c-0.6-0.3-0.9-0.1-0.8,0.5C124.7,35.6,124.6,35.7,124.7,35.9L124.7,35.9z"/>
			<path id="_Path_36" class="st0" d="M101.1,44c0,3.9,0,7.8,0,11.7c0,0.3,0.1,0.4,0.3,0.4c0.7,0,1.4,0,2.2,0c0.2,0,0.4-0.1,0.4-0.3
				V56c0,0-0.1,0.1-0.1,0.1h-2.6c-0.2,0-0.3-0.1-0.3-0.3v-0.2c0-3.7,0-7.4,0-11.1C101,44.3,100.9,44.1,101.1,44z"/>
			<path id="_Path_37" class="st0" d="M86.3,52.9c0.2,0,0.4,0,0.7,0s0.3-0.1,0.3,0.1c0,0.2,0,0.3-0.2,0.4c-0.5,0.2-1,0.2-1.6,0.2
				c-0.3,0-0.1-0.3-0.2-0.5s0.1-0.2,0.2-0.2L86.3,52.9L86.3,52.9z"/>
			<path id="_Compound_Path_24" class="st0" d="M123.5,18.2c0.3,0.1,0.5,0.3,0.7,0.5c0.2,0.2-0.1,0.4-0.2,0.6l-0.1,0.1
				c-0.2,0.4-0.7,0.5-1.1,0.3c-0.1-0.1-0.2-0.1-0.3-0.2c-0.1-0.1-0.2-0.1-0.1-0.2c0.2-0.4,0.5-0.7,0.9-1
				C123.3,18.3,123.4,18.2,123.5,18.2z M123.9,19c0-0.2-0.2-0.3-0.4-0.4c-0.3,0.2-0.5,0.4-0.7,0.7c0.1,0.2,0.3,0.3,0.5,0.3
				C123.7,19.5,123.7,19.1,123.9,19z"/>
			<path id="_Path_38" class="st0" d="M116.3,53.2c0-0.1-0.1-0.3,0.2-0.3c0.6,0,1.1,0,1.7,0c0,0,0.1,0.1,0.1,0.1
				c0,0.3-0.2,0.5-0.5,0.5c-0.4,0.1-0.9,0.1-1.3,0.1C116.3,53.6,116.4,53.3,116.3,53.2z"/>
			<path id="_Compound_Path_25" class="st0" d="M130.7,29.4c0,0.1-0.1,0.2-0.1,0.2c-0.2,0.2-0.4,0.4-0.6,0.6s-0.3,0.2-0.5,0
				c-0.1-0.1-0.2-0.3-0.3-0.4c-0.4-0.5-0.4-0.5,0.1-1c0.2-0.1,0.3-0.4,0.5-0.2C130.2,28.9,130.5,29.1,130.7,29.4z M129.7,30.1
				c0.2-0.1,0.5-0.4,0.5-0.6c0-0.2-0.2-0.5-0.5-0.5c-0.3,0-0.4,0.2-0.5,0.5S129.6,30.1,129.7,30.1z"/>
			<path id="_Compound_Path_26" class="st0" d="M148.7,34.7c-0.2,0-0.5,0.1-0.5-0.3c0-0.8,0.1-0.9,0.9-0.9c0.2,0,0.5-0.2,0.5,0.3
				C149.5,34.7,149.6,34.7,148.7,34.7z M148.6,34.1c0,0.2-0.1,0.3,0.2,0.3c0.2,0.1,0.5-0.1,0.6-0.3c0,0,0-0.1,0-0.1
				c0-0.2-0.1-0.3-0.3-0.3C148.8,33.7,148.5,33.8,148.6,34.1z"/>
			<path id="_Path_39" class="st0" d="M142.9,42.6c-0.1,0-0.2-0.1-0.2-0.2c0,0,0,0,0-0.1c0.2-0.4,0.2-0.8,0.2-1.3
				c0-0.1,0.1-0.3,0.1-0.4c-0.7,0-1.4,0-2.1,0c-0.2,0-0.4-0.1-0.5-0.3c-0.1-0.1,0-0.2,0-0.2c0,0,0.1,0,0.1,0v0.2
				c0,0.2,0.2,0.2,0.4,0.2c0.6,0,1.2,0,1.8,0c0.4,0,0.4,0.1,0.4,0.4C143.1,41.4,143,42,142.9,42.6z"/>
			<path id="_Path_40" class="st0" d="M121.7,53c-0.3-0.6-0.5-1.2-0.5-1.9c-0.1-1.3,0-2.6,0.4-3.8c0-0.1,0.1-0.2,0.1-0.3
				c0,0.5-0.1,1.1-0.3,1.5c0,0.1,0,0.2,0,0.4c0,0.6,0,1.2,0,1.8c0,0.6,0.1,1.1,0.3,1.6C121.8,52.6,121.8,52.8,121.7,53z"/>
			<path id="_Path_41" class="st0" d="M147.6,28.4l-0.1-0.3L148,28c0.6-0.2,1.1-0.5,1.5-1c0-0.1,0.1-0.1,0.2,0c0,0,0,0,0,0
				c0.1,0.1,0.2,0.2,0.1,0.4c0,0,0,0,0,0c-0.4,0.4-0.9,0.7-1.4,0.9C148.2,28.4,147.9,28.4,147.6,28.4z"/>
			<path id="_Path_42" class="st0" d="M146.4,29.4c0.5-0.2,1.1-0.3,1.6-0.4c0.2,0,0.3,0,0.5,0c0.3,0,0.3,0.1,0.2,0.3l0,0h-0.6
				c-0.6,0-1.2,0.1-1.8,0.4c0,0-0.1,0-0.2-0.1S146.6,29.7,146.4,29.4z"/>
			<path id="_Path_43" class="st0" d="M126.1,25.7c-0.2-0.2-0.4-0.4-0.5-0.6c-0.4-0.5-0.8-0.9-1.3-1.3c-0.1-0.1-0.2-0.2-0.3-0.4
				c-0.1-0.2-0.1-0.4,0.1-0.4c0.2-0.1,0.2,0.1,0.2,0.3c0.1,0.3,0.3,0.6,0.6,0.8C125.4,24.4,125.8,25,126.1,25.7z"/>
			<path id="_Path_44" class="st0" d="M139.6,26.8c-0.1,0-0.1-0.1-0.1-0.1c0.2-1,0.6-2,1.2-2.9c0.1-0.1,0.2-0.2,0.3-0.1
				c0.1,0.1,0,0.2,0,0.3c-0.6,0.8-1.1,1.8-1.2,2.8C139.8,26.7,139.8,26.8,139.6,26.8z"/>
			<path id="_Path_45" class="st0" d="M133.4,19.8c-0.1-0.6-0.1-1.1-0.2-1.7c0-0.3-0.1-0.7-0.1-1c0-0.1,0-0.2,0.1-0.2
				c0.1,0,0.2,0.1,0.2,0.2C133.6,18,133.6,18.9,133.4,19.8z"/>
			<path id="_Path_46" class="st0" d="M134.9,56c-0.1,0.2-0.4,0-0.5,0.1h-2.2c-0.6,0-0.5,0-0.5-0.7c0-1.1,0-2.1,0-3.2
				c0-0.3,0-0.6,0-0.9v-2.9c0.1,0.2,0.1,0.4,0.1,0.5c0,2.2,0,4.3,0,6.5c0,0.4,0.1,0.5,0.5,0.5C133.1,56,134,56,134.9,56z"/>
			<path id="_Path_47" class="st0" d="M131.8,12.8h0.2c-0.4,0.2-0.7,0.4-0.9,0.8c0.3,0.1,0.7,0,1,0.2c-0.3,0-0.5-0.1-0.8-0.1
				c-0.2,0-0.2,0.1-0.3,0.2c0,0.2,0.1,0.2,0.2,0.2c0.3,0,0.5,0.1,0.7,0.3H132c-0.1,0-0.3-0.1-0.4-0.1c-0.3-0.1-0.6-0.2-0.4,0.3
				c-0.4-0.1-0.8,0-1.1,0.2c-0.1,0.1-0.4,0.2-0.1,0.5v0.1c-0.5-0.1-0.3-0.4-0.1-0.6c0.2-0.2,0.5-0.3,0.9-0.3c0.2,0,0.3-0.1,0.2-0.3
				C130.8,13.6,131.2,13,131.8,12.8z"/>
			<path id="_Path_48" class="st0" d="M118.9,38.9c-0.2,0-0.4,0-0.6-0.1c-1-0.4-2.2-0.4-3.1,0.2c-0.3,0.2-0.5,0.6-1,0.5
				C115.4,38.2,117.4,38,118.9,38.9z"/>
			<path id="_Path_49" class="st0" d="M141,20.6v1c0,0.2-0.1,0.3-0.2,0.3c-0.1,0-0.1-0.2-0.1-0.3c0-0.5,0-1.1,0-1.6
				c0-0.2,0-0.3,0-0.5c0-0.1,0.1-0.2,0.2-0.2c0.1,0,0.1,0.1,0.1,0.2L141,20.6L141,20.6z"/>
			<path id="_Path_50" class="st0" d="M135.2,24.2c-0.9,0.1-1.8-0.5-2.2-1.4c0-0.1,0-0.2,0.1-0.3c0.2,0.8,0.9,1.4,1.7,1.4
				C135,24,135.1,24.1,135.2,24.2L135.2,24.2z"/>
			<path id="_Path_51" class="st0" d="M128.1,52.9c-0.2,0.3-0.5,0.5-0.9,0.5c-0.1,0-0.3,0-0.4,0.1c-0.6,0.2-1.2,0-1.6-0.5
				C126,53.5,127.1,53.4,128.1,52.9C128,52.9,128.1,52.9,128.1,52.9L128.1,52.9z"/>
			<path id="_Path_52" class="st0" d="M141.6,46.1c-0.1,1.3,0,2.7,0,4c0,0.2,0,0.4,0,0.6c-0.1-1.5-0.1-3-0.2-4.5
				c0-0.1,0-0.3,0.2-0.2V46.1z"/>
			<path id="_Path_53" class="st0" d="M134.5,13.5v-0.1c0.2-0.1,0.4-0.1,0.4-0.4c0-0.3-0.4-0.1-0.5-0.3c-0.1-0.2,0.1-0.2,0.2-0.3
				s0.1-0.4-0.2-0.4c-0.5,0-0.5,0-0.7-0.4v-0.2c0.1,0,0.2,0.1,0.3,0.2c0,0.2,0.1,0.2,0.3,0.1c0,0,0.1,0,0.1,0c0.2,0,0.5,0.2,0.4,0.4
				c-0.2,0.4,0.6,0.6,0.2,1C134.8,13.4,134.7,13.5,134.5,13.5z"/>
			<path id="_Path_54" class="st1" d="M110.5,52.2v-4.3c0.2,1.2,0.2,2.4,0.1,3.5C110.6,51.7,110.6,52,110.5,52.2z"/>
			<path id="_Path_55" class="st0" d="M141.2,34.7l-0.7,0.1c-0.1,0-0.3,0.2-0.3-0.1c0-0.2,0.2-0.2,0.3-0.2c0.1,0,0.3-0.1,0.4-0.1
				c0.1,0,0.2,0,0.2-0.2c0-0.2,0.1-0.2,0.3-0.1c0,0,0.1,0,0.1,0.1c0.1,0.1,0.4,0.2,0.3,0.4C141.6,34.8,141.4,34.6,141.2,34.7z"/>
			<path id="_Path_56" class="st0" d="M130.3,39.7c0-0.2,0-0.3,0-0.5c0-0.2,0-0.4,0.3-0.4c0.3,0,0.3,0.1,0.3,0.4c0,0.2,0,0.4,0,0.6
				c0,0.2-0.1,0.2-0.3,0.2S130.4,39.9,130.3,39.7z"/>
			<path id="_Path_57" class="st0" d="M141.6,46.1V46h0.2c0.9,0.1,1.8,0,2.8,0c0.2,0,0.4-0.1,0.4,0.2h-2.8
				C142,46.2,141.8,46.2,141.6,46.1z"/>
			<path id="_Path_58" class="st0" d="M127.6,18.1c0.2,0,0.3,0.1,0.3,0.4c0,0.2,0,0.3-0.3,0.3c-0.2,0-0.4-0.2-0.4-0.4c0,0,0,0,0,0
				C127.2,18.2,127.3,18.1,127.6,18.1z"/>
			<path id="_Path_59" class="st0" d="M138.1,13.9c-0.2,0-0.4,0-0.4-0.3c0-0.3,0.1-0.4,0.3-0.3s0.5-0.1,0.5,0.2
				C138.5,13.8,138.4,14,138.1,13.9C138.1,13.9,138.1,13.9,138.1,13.9z"/>
			<path id="_Path_60" class="st0" d="M135,35.4c-0.3-0.1-0.3-0.3-0.3-0.5c0-0.1,0.1-0.2,0.3-0.2c0,0,0,0,0,0c0.2,0,0.3,0.2,0.3,0.3
				c0,0,0,0,0,0C135.2,35.2,135.1,35.3,135,35.4z"/>
			<path id="_Compound_Path_27" class="st0" d="M139,29.2c0.3,0,0.5,0.1,0.5,0.4c0,0.2-0.2,0.4-0.4,0.4c0,0-0.1,0-0.1,0
				c-0.2,0-0.6-0.1-0.6-0.4S138.7,29.1,139,29.2z M139,29.3c-0.1,0-0.2,0.1-0.2,0.2c0,0,0,0,0,0c0,0.1,0.1,0.2,0.3,0.2c0,0,0,0,0,0
				c0.1,0,0.2-0.1,0.2-0.2C139.3,29.4,139.1,29.3,139,29.3L139,29.3z"/>
			<path id="_Path_61" class="st0" d="M106.6,44.2c0.2,0.3-0.1,0.2-0.2,0.2c-0.1,0-0.3,0.1-0.3,0.2c-0.1,0.2,0.2,0.1,0.2,0.3
				c-0.2,0-0.4,0.3-0.7,0.1c-0.3-0.3-0.2,0.3-0.4,0.2C105.5,44.7,106,44.3,106.6,44.2z"/>
			<path id="_Path_62" class="st0" d="M153.1,25.1c0-0.2,0-0.4,0.3-0.4s0.2,0.2,0.2,0.3c0,0.2-0.1,0.4-0.3,0.5c0,0-0.1,0-0.1,0
				C153,25.5,153.1,25.2,153.1,25.1z"/>
			<path id="_Path_63" class="st0" d="M145,46.3c0-0.3-0.3-0.2-0.4-0.2c-0.9,0-1.9,0-2.8,0c1-0.1,2.1,0,3.1,0c0.2,0,0.2,0.1,0.2,0.2
				c0,0.4,0,0.8-0.1,1.2L145,46.3z"/>
			<path id="_Path_64" class="st0" d="M122.6,27.6c-0.3-0.1-0.3,0.8-0.7,0.3c-0.4-0.5-0.1-0.6,0.3-0.5
				C122.3,27.4,122.5,27.5,122.6,27.6z"/>
			<path id="_Path_65" class="st0" d="M129.7,47c-0.2-0.1-0.3-0.3-0.3-0.5c-0.1-0.4-0.3-0.8-0.6-1.1c-0.1-0.2-0.3-0.2-0.3-0.5
				C129.2,45.4,129.6,46.2,129.7,47z"/>
			<path id="_Path_66" class="st0" d="M143.7,17.4c0.2,0.1,0.3,0.2,0.3,0.3c0,0.2-0.1,0.3-0.3,0.3c-0.2,0-0.2-0.2-0.2-0.3
				S143.5,17.5,143.7,17.4z"/>
			<path id="_Path_67" class="st0" d="M146,37.4c0,0.2-0.2,0.3-0.3,0.3c-0.1,0-0.2-0.2-0.2-0.4c0-0.2,0.1-0.3,0.3-0.3
				C146,37.1,146,37.1,146,37.4z"/>
			<path id="_Path_68" class="st0" d="M107.1,51.5c0.4,0.3,0.1,0.7,0.2,1.1c-0.2,0.1-0.2-0.4-0.4-0.1c0-0.5,0.1-0.9,0.1-1.4
				c0,0.2,0,0.4,0,0.6c0,0.2,0,0.1,0.1,0C107.1,51.6,107.1,51.6,107.1,51.5z"/>
			<path id="_Path_69" class="st0" d="M105.2,45.2c0.1,0.2,0,0.3-0.2,0.3c-0.2,0.1-0.2,0.2-0.4,0.1c-0.1-0.1,0-0.3,0-0.4
				c0-0.1-0.2-0.5,0-0.7l0.2-0.1V45c0,0.1-0.1,0.3,0.1,0.3S105,45.2,105.2,45.2z"/>
			<path id="_Path_70" class="st0" d="M129.6,51.3c-0.2,0.1-0.3,0.3-0.3,0.5c-0.2,0.4-0.4,0.8-0.9,0.8c0.5-0.4,0.8-0.9,1-1.4
				c0-0.1,0-0.2,0.1-0.1C129.6,51.1,129.6,51.2,129.6,51.3z"/>
			<path id="_Path_71" class="st0" d="M132.9,30c0,0.2-0.1,0.3-0.3,0.3c-0.1,0-0.3-0.1-0.3-0.2c0,0,0,0,0-0.1c0-0.2,0.1-0.3,0.2-0.3
				C132.7,29.7,132.8,29.8,132.9,30z"/>
			<path id="_Path_72" class="st0" d="M140.7,38.5c-1.1-0.1-2.1-0.1-3.2-0.1c-0.1,0-0.2,0-0.2-0.1h3.3
				C140.7,38.3,140.8,38.3,140.7,38.5z"/>
			<path id="_Path_73" class="st0" d="M141.7,21.4c0.2,0.1,0.4,0.1,0.3,0.3s-0.1,0.3-0.2,0.3c-0.2,0-0.3-0.2-0.3-0.4
				S141.6,21.4,141.7,21.4z"/>
			<path id="_Path_74" class="st0" d="M107.6,44c-0.1,0.2,0,0.2,0.1,0.2c0.1,0,0.2,0.1,0.2,0.2c0,0,0,0.1,0,0.1
				c-0.1,0.1-0.2,0.1-0.2,0.1c0,0,0,0-0.1-0.1c-0.2-0.3-0.6-0.3-0.9-0.3C106.9,44,107.2,43.9,107.6,44z"/>
			<path id="_Path_75" class="st0" d="M133.7,11.5v0.1c-0.6,0.1-0.6,0.2-0.6,1.4c-0.2-0.3-0.1-0.6-0.2-0.9S133.2,11.4,133.7,11.5z"
				/>
			<path id="_Path_76" class="st0" d="M114.2,39.5c-0.1,0.6-0.5,0.9-1,1.1C113.5,40.1,113.8,39.8,114.2,39.5z"/>
			<path id="_Path_77" class="st1" d="M144.6,53.6v-2.1c0-0.1-0.1-0.3,0.2-0.4C144.8,51.9,144.8,52.7,144.6,53.6z"/>
			<path id="_Path_78" class="st0" d="M123.6,25.7c-0.1,0.2-0.2,0.3-0.4,0.3c-0.1,0-0.2-0.1-0.2-0.2c0,0,0,0,0,0
				c0-0.2,0.2-0.3,0.3-0.2C123.4,25.4,123.5,25.5,123.6,25.7z"/>
			<path id="_Path_79" class="st0" d="M149.4,30.9c0,0.1-0.1,0.3-0.2,0.3c-0.1,0-0.3-0.1-0.3-0.3c0-0.1,0.1-0.2,0.2-0.3c0,0,0,0,0,0
				C149.2,30.7,149.4,30.7,149.4,30.9z"/>
			<path id="_Path_80" class="st0" d="M129.9,15.5L129.9,15.5L129.9,15.5c0.2,0,0.3,0,0.3,0.2c-0.1,0.7,0.4,0.2,0.7,0.2v0.5
				l-0.1,0.1c-0.1-0.1-0.1-0.4-0.4-0.3c-0.2,0-0.3-0.1-0.3-0.3c0-0.1,0-0.1,0-0.2C130.1,15.6,130.1,15.5,129.9,15.5z"/>
			<path id="_Path_81" class="st0" d="M87.8,51.8c0-0.5,0-1,0-1.5c0-0.1,0-0.3,0.1-0.3C87.9,50.6,87.9,51.2,87.8,51.8z"/>
			<path id="_Path_82" class="st0" d="M134.6,20.9c-0.1,0.2,0.2,0.2,0.2,0.4c-0.4-0.2-0.8-0.3-1.2-0.1l0.1-0.2
				C134,20.7,134.4,21,134.6,20.9z"/>
			<path id="_Path_83" class="st0" d="M148.1,32.7c0.1,0.1,0.3,0.1,0.3,0.2s-0.1,0.3-0.2,0.3c-0.2,0-0.2-0.2-0.2-0.3
				C147.9,32.8,148,32.7,148.1,32.7z"/>
			<path id="_Path_84" class="st0" d="M139.6,31.4c-0.1,0-0.3-0.1-0.3-0.3c0-0.1,0-0.2,0.2-0.3c0.1,0,0.3,0.1,0.3,0.2
				c0,0,0,0.1,0,0.1C139.9,31.3,139.8,31.4,139.6,31.4z"/>
			<path id="_Path_85" class="st0" d="M127.6,19.6c0,0.1,0.3,0.3,0,0.4c-0.3,0.1-0.4,0.2-0.5-0.1s0.2-0.2,0.3-0.3L127.6,19.6
				L127.6,19.6z"/>
			<path id="_Path_86" class="st0" d="M140.6,28.8c-0.2,0-0.2-0.2-0.3-0.4c0-0.2,0-0.2,0.2-0.2c0.2,0,0.3,0.2,0.3,0.3
				C140.9,28.7,140.8,28.8,140.6,28.8z"/>
			<path id="_Path_87" class="st0" d="M142.1,18.3c0,0.2-0.1,0.3-0.2,0.3c-0.1,0-0.3-0.1-0.3-0.3c0-0.1,0.1-0.2,0.2-0.2
				C142,18,142.1,18.1,142.1,18.3C142.1,18.2,142.1,18.2,142.1,18.3z"/>
			<path id="_Path_88" class="st0" d="M135.9,36.3c0,0.1-0.1,0.2-0.2,0.2c-0.1,0-0.3,0-0.3-0.2c0-0.2,0.2-0.3,0.3-0.3
				C135.9,36,135.8,36.2,135.9,36.3z"/>
			<path id="_Path_89" class="st0" d="M133.2,22.6c-0.1,0.1-0.1,0.2-0.1,0.3l0,0l0,0l-0.1-0.4c0-0.3-0.1-0.6,0.2-0.8l0.1-0.1
				l0.1,0.1C133.2,22,133.1,22.3,133.2,22.6z"/>
			<path id="_Path_90" class="st0" d="M135.2,24.2v-0.1h1.1l0.2,0.1v0.1C136.1,24.3,135.7,24.3,135.2,24.2z"/>
			<path id="_Path_91" class="st0" d="M107.1,51.5c0,0.1,0,0.1,0,0.1c0,0-0.1,0.1-0.1,0s0-0.4,0-0.6v-1.2v-0.5h0.1L107.1,51.5z"/>
			<path id="_Path_92" class="st0" d="M133.9,28.1c0.2,0.2,0.1,0.4-0.1,0.5c-0.1,0.1-0.3,0.1-0.4,0c0,0,0,0,0,0
				c-0.1-0.1-0.2-0.3,0.1-0.4c0,0.1-0.1,0.3,0.2,0.4C133.9,28.4,133.9,28.3,133.9,28.1z"/>
			<path id="_Path_93" class="st0" d="M122.3,46c0,0.4-0.2,0.8-0.5,1C121.9,46.7,122,46.3,122.3,46z"/>
			<path id="_Path_94" class="st0" d="M137.4,14.5c0,0.2-0.1,0.2-0.2,0.2c-0.1,0-0.2-0.1-0.2-0.2c0-0.1,0.1-0.2,0.2-0.2c0,0,0,0,0,0
				C137.3,14.3,137.3,14.4,137.4,14.5z"/>
			<path id="_Path_95" class="st0" d="M130.9,27.5c0.3-0.1,0.6-0.1,0.9,0c0.1,0.3-0.1,0.3-0.3,0.2C131.3,27.7,131,27.6,130.9,27.5z"
				/>
			<path id="_Path_96" class="st0" d="M136.4,40.4v-0.9c0.1-0.4-0.1-0.8,0.1-1.2l0,0L136.4,40.4L136.4,40.4L136.4,40.4z"/>
			<path id="_Path_97" class="st0" d="M151.6,25.1c0.2,0,0.2,0.1,0.2,0.3s-0.1,0.2-0.3,0.2c-0.1,0-0.1-0.1-0.1-0.2
				C151.4,25.3,151.4,25.1,151.6,25.1z"/>
			<path id="_Path_98" class="st0" d="M133.9,28.1c0,0.1,0,0.3-0.2,0.3c-0.2,0-0.1-0.2-0.2-0.4C133.7,28,133.9,27.9,133.9,28.1z"/>
			<path id="_Path_99" class="st0" d="M127.6,19.6L127.6,19.6c-0.2-0.1-0.4,0-0.6-0.1c0.1-0.1,0.3-0.2,0.5-0.2
				C127.6,19.4,127.8,19.4,127.6,19.6z"/>
			<path id="_Path_100" class="st0" d="M133.2,21.7c-0.2,0.2-0.2,0.5-0.2,0.8c-0.2-0.4-0.1-0.8,0.2-1.1l0,0V21.7z"/>
			<path id="_Path_101" class="st0" d="M121.3,29.6c0,0.2-0.3,0.1-0.4,0.2h-0.2l-0.1-0.1C120.9,29.4,121.1,29.6,121.3,29.6z"/>
			<path id="_Path_102" class="st0" d="M145,17.7h0.1l0.1,0.1c0,0.2-0.1,0.3-0.2,0.2S145,17.8,145,17.7z"/>
			<path id="_Path_103" class="st0" d="M137.1,38.3c-0.1,0.2-0.3,0.1-0.5,0.1l-0.2-0.1l0,0C136.7,38.3,136.9,38.3,137.1,38.3z"/>
			<path id="_Path_104" class="st0" d="M133.8,21l-0.1,0.2l0,0c-0.1,0-0.3,0.1-0.3,0.2h-0.2C133.4,21.2,133.5,21,133.8,21z"/>
			<path id="_Path_105" class="st0" d="M145.8,17.7c0.1,0.1,0,0.2,0,0.4c-0.2,0-0.2-0.1-0.2-0.3C145.6,17.7,145.7,17.8,145.8,17.7z"
				/>
			<path id="_Path_106" class="st0" d="M140.7,39.7c-0.1-0.2-0.1-0.5,0-0.8C140.8,39.2,140.8,39.4,140.7,39.7z"/>
			<path id="_Path_107" class="st0" d="M125.1,53c-0.2,0-0.3,0.1-0.3-0.2C124.9,52.8,125,52.9,125.1,53z"/>
			<path id="_Path_108" class="st0" d="M130.6,26.5c0.1,0.2,0.1,0.3,0,0.5V26.5z"/>
			<path id="_Path_109" class="st0" d="M145.8,17.7c0,0.1-0.1,0.1-0.2,0.1h-0.2l-0.1-0.1L145.8,17.7z"/>
			<path id="_Path_110" class="st1" d="M119.9,48.9l0.2-0.4C120,48.6,120.1,48.8,119.9,48.9z"/>
			<path id="_Path_111" class="st0" d="M120.7,29.7l0.1,0.1h-0.1l-0.3,0.1l0,0C120.4,29.7,120.6,29.7,120.7,29.7z"/>
			<path id="_Path_112" class="st0" d="M140.7,40.2V40v-0.2C140.8,40,140.8,40.1,140.7,40.2z"/>
			<path id="_Path_113" class="st0" d="M146.4,19.1h-0.1v-0.2l0,0C146.3,18.9,146.4,19,146.4,19.1L146.4,19.1z"/>
			<path id="_Path_114" class="st1" d="M131.4,40.4c0,0.1,0,0.1-0.1,0.1L131.4,40.4z"/>
			<path id="_Path_115" class="st1" d="M130.6,40.2L130.6,40.2L130.6,40.2z"/>
			<path id="_Path_116" class="st1" d="M131.2,56.5c-0.1,0-0.1,0-0.1-0.1L131.2,56.5z"/>
			<path id="_Path_117" class="st1" d="M137.4,24.1L137.4,24.1L137.4,24.1z"/>
			<path id="_Path_118" class="st0" d="M136.5,38.4l0.2,0.1c-0.1,0.4-0.1,0.9-0.1,1.3c0,0.2,0,0.4,0,0.7l0,0l0,0
				C136.5,39.7,136.5,39,136.5,38.4z"/>
			<path id="_Path_119" class="st1" d="M134.9,55.7L134.9,55.7L134.9,55.7C134.9,55.7,134.9,55.8,134.9,55.7z"/>
			<path id="_Path_120" class="st0" d="M84.3,48.8c0,0.1,0.1,0.2,0.1,0.3c0,0.7,0,0.7,0.8,0.7c0.8,0,1.5-0.1,2.2-0.2
				c0.2,0,0.4-0.1,0.5,0.1c-0.9,0.2-1.8,0.3-2.7,0.2c-0.1,0-0.2,0-0.3,0.1c-0.2,0.1-0.4,0.2-0.5,0s-0.4-0.4-0.2-0.7
				C84.4,49.1,84.3,48.9,84.3,48.8z"/>
			<path id="_Path_121" class="st0" d="M84.3,48v0.7c-0.2,0.2-0.3,0-0.5,0s0.1-0.2,0.1-0.3c0-0.5,0-1,0-1.5c0-0.4,0-0.7,0-1.1
				c0.2,0,0.1,0.2,0.1,0.3c0,0.5,0,1,0,1.5C84.2,47.8,84.2,48,84.3,48z"/>
			<path id="_Path_122" class="st0" d="M84.5,44.9c0,0.4,0,0.9-0.1,1.3c0-0.4,0-0.9,0-1.3C84.4,44.7,84.5,44.9,84.5,44.9z"/>
			<path id="_Path_123" class="st0" d="M83.5,48.6C83.5,48.6,83.5,48.6,83.5,48.6C83.5,48.5,83.5,48.5,83.5,48.6
				C83.6,48.6,83.6,48.6,83.5,48.6C83.5,48.6,83.5,48.6,83.5,48.6z"/>
			<path id="_Path_124" class="st0" d="M117.1,46.2c0.2-0.9,0.3-1.8,0.2-2.6c0-0.3-0.1-0.7-0.5-0.7c-0.4-0.1-0.6,0.3-0.8,0.6
				c-0.3,0.8-0.4,1.6-0.5,2.5c0,0.6,0,1.2,0,1.8v0.6c0,0.4,0,0.8,0,1.2c0,0.2,0.1,0.3,0.3,0.3c0.3-0.1,0.8-0.1,1.2-0.1h0.6h0.3
				c0,0.3-0.2,0.2-0.4,0.2c-0.5,0.1-1.1-0.1-1.6,0.2c-0.3,0.1-0.6-0.1-0.6-0.4c0-1.3,0-2.6,0-4c0-0.7,0.2-1.4,0.5-2.1
				c0.1-0.3,0-0.6,0.2-1c0.2,0.4,0.5-0.1,0.8,0.1c0.1,0.1,0.7,0.5,0.7,0.7c0,0.6,0.3,1.3,0.1,1.8C117.4,45.5,117.6,46,117.1,46.2z"
				/>
			<path id="_Path_125" class="st0" d="M117.2,48.7c0,0-0.1,0-0.1,0c-0.5,0-0.5-0.2-0.4-0.6c0-0.1,0.1-0.2,0.1-0.2
				c0,0.5,0,0.8,0.6,0.7c0.1,0,0.1,0.1,0.1,0.2L117.2,48.7z"/>
			<path id="_Path_126" class="st0" d="M118.9,51.8c0,0.8,0,0.8-0.8,0.7c0,0,0-0.1,0-0.1c0.4-0.1,0.8-0.2,0.6-0.7c0,0,0.1,0,0.1,0
				L118.9,51.8z"/>
			<path id="_Path_127" class="st1" d="M112.5,52.3L112.5,52.3L112.5,52.3L112.5,52.3z"/>
			<path id="_Path_128" class="st0" d="M99.3,56c-0.2,0.2-0.5,0.1-0.7,0.1c-0.6,0-1.2,0-1.8,0c-0.3,0-0.4-0.1-0.4-0.4
				c0-0.3,0-0.9,0-1.3c0.1,0.4,0.2,0.8,0.1,1.3c0,0.3,0.1,0.4,0.4,0.4L99.3,56z"/>
			<path id="_Path_129" class="st0" d="M99.5,53.5c0,0.5,0,0.9-0.1,1.4v-1.8l0,0L99.5,53.5z"/>
			<path id="_Path_130" class="st0" d="M124.6,49.7c-0.7-0.6-0.4-1.2-0.2-1.8c0.2-0.5,0.7-0.7,1.2-0.7c0.5-0.1,1.1,0,1.6,0.2
				c0.2,0.1,0.2,0.2,0.2,0.4l0,0c-0.7-0.6-1.7-0.6-2.4-0.1c-0.6,0.4-0.7,1.1-0.3,2L124.6,49.7z"/>
			<path id="_Path_131" class="st0" d="M127.3,49.6c0,0.5-0.5,0.4-0.7,0.6c-0.5,0.2-1,0.2-1.4,0.1c-0.1,0-0.3-0.2-0.3-0.3l0,0
				C125.7,50.5,126.7,50.3,127.3,49.6L127.3,49.6z"/>
			<path id="_Path_132" class="st0" d="M127.3,47.7c0.3,0.1,0.4,0.3,0.4,0.6c0,0.3,0,0.6,0,0.9c0,0.3-0.1,0.4-0.4,0.4l0,0
				C127.7,49.1,127.7,48.4,127.3,47.7L127.3,47.7z"/>
			<path id="_Path_133" class="st0" d="M122.5,54.3c-0.3-0.4-0.6-0.8-0.8-1.3C122.1,53.4,122.4,53.8,122.5,54.3z"/>
			<path id="_Path_134" class="st0" d="M125,56c-0.3,0-0.6-0.1-0.9-0.3C124.5,55.6,124.8,55.6,125,56z"/>
			<path id="_Path_135" class="st0" d="M126.9,56c-0.6,0.2-1.1,0.2-1.7,0H126.9z"/>
			<path id="_Path_136" class="st0" d="M124.9,50c-0.2,0-0.4,0-0.4-0.3v-0.1L124.9,50L124.9,50z"/>
			<path id="_Path_137" class="st0" d="M85.2,45.2c0-0.2,0-0.4,0-0.7c0-0.2-0.1-0.4,0.2-0.4s0.5,0,0.4,0.4c-0.1,0.4-0.1,0.9-0.2,1.4
				c0,0.2-0.1,0.3-0.3,0.2c-0.2,0-0.2-0.1-0.2-0.3C85.2,45.7,85.2,45.4,85.2,45.2z"/>
			<path id="_Path_138" class="st0" d="M130.1,37.4c0.2,0.3,0.7,0.4,0.8,0.9l-1.9-1.1l0,0c0.1-0.2,0.2-0.2,0.4-0.1L130.1,37.4
				L130.1,37.4z"/>
			<polygon id="_Path_139" class="st1" points="131.2,39.5 131.2,39.4 131.3,39.5 			"/>
			<path id="_Path_140" class="st1" d="M129.1,37.1L129.1,37.1L129.1,37.1L129.1,37.1z"/>
			<path id="_Path_141" class="st0" d="M132.9,13.5c-0.2,0-0.2-0.2-0.3-0.2C132.6,13.4,132.8,13.3,132.9,13.5L132.9,13.5z"/>
			<path id="_Path_142" class="st0" d="M133.2,13.8l-0.3-0.3l0.1-0.1C133.1,13.5,133.2,13.6,133.2,13.8
				C133.2,13.8,133.2,13.8,133.2,13.8z"/>
			<path id="_Path_143" class="st0" d="M132,14.5c0.1,0,0.2,0.1,0.2,0.2l-0.1,0.1L132,14.5L132,14.5z"/>
			<path id="_Path_144" class="st0" d="M134.4,13.4c-0.1,0-0.3,0-0.4,0C134.1,13.3,134.2,13.3,134.4,13.4z"/>
			<path id="_Path_145" class="st0" d="M132.3,13.9c0.1,0,0.2,0,0.1,0.1C132.3,14.2,132.3,14.1,132.3,13.9L132.3,13.9z"/>
			<path id="_Path_146" class="st0" d="M132.2,14L132.2,14C132.2,13.8,132.2,13.9,132.2,14L132.2,14z"/>
			<path id="_Path_147" class="st1" d="M146.1,18.4L146.1,18.4L146.1,18.4z"/>
			<path id="_Path_148" class="st1" d="M147.8,19.3L147.8,19.3L147.8,19.3z"/>
			<path id="_Path_149" class="st1" d="M134.4,56.8c0.1,0.1,0.1,0.1,0,0.2V56.8z"/>
			<path id="_Path_150" class="st0" d="M133.2,21.4h0.2l-0.1,0.3l-0.1,0.1L133.2,21.4z"/>
			<path id="_Path_151" class="st0" d="M133.4,21.4c0-0.1,0.2-0.2,0.3-0.2C133.6,21.3,133.5,21.4,133.4,21.4z"/>
			<path id="_Path_152" class="st0" d="M134.9,20.5c0-0.1,0-0.2,0.2-0.2L134.9,20.5z"/>
			<path id="_Path_153" class="st0" d="M135.1,20.4c0-0.1,0.1-0.2,0.2-0.2C135.3,20.3,135.2,20.3,135.1,20.4z"/>
			<path id="_Path_154" class="st0" d="M125.5,35c-0.8,0-0.8-0.2-0.8,0.9c-0.1-0.1,0-0.3-0.1-0.5C124.6,34.9,124.9,34.7,125.5,35z"
				/>
			<path id="_Path_155" class="st0" d="M137.1,23.6l-0.1,0.1C136.9,23.6,137,23.6,137.1,23.6L137.1,23.6z"/>
			<path id="_Path_156" class="st0" d="M130.5,15.4c-0.1,0.1-0.2,0.2-0.3,0.3c0.1-0.2-0.1-0.2-0.2-0.3L130.5,15.4L130.5,15.4z"/>
			<path id="_Path_157" class="st0" d="M116.3,45.2c0-0.2,0-0.5,0-0.7c0-0.2-0.1-0.4,0.2-0.4s0.5,0,0.4,0.4s-0.1,0.9-0.2,1.4
				c0,0.2-0.1,0.3-0.3,0.2c-0.2,0-0.2-0.1-0.2-0.3C116.3,45.7,116.3,45.4,116.3,45.2z"/>
			<path id="_Path_158" class="st0" d="M148,17.9c0.1-0.1,0.2-0.1,0.3,0c0.1,0.1,0.1,0.3,0,0.4c-0.1,0.2-0.1,0.4-0.4,0.4
				c-0.2,0-0.5-0.1-0.5-0.4C147.4,17.8,147.8,18,148,17.9c0,0.1,0,0.2-0.1,0.2s-0.2-0.1-0.2,0.1c0,0.1,0,0.2,0.1,0.2
				c0.1,0,0.2,0.1,0.2,0S148.4,18,148,17.9z"/>
			<path id="_Path_159" class="st0" d="M146.5,18.5c0.4-0.2,0.5-0.4,0.2-0.7c0-0.1,0.1-0.1,0.2-0.1c0,0,0.1,0.1,0.1,0.1
				c0.1,0.2,0.1,0.4,0,0.6C146.9,18.6,146.7,18.7,146.5,18.5z"/>
			<polygon id="_Path_160" class="st1" points="130.5,15.4 130.5,15.4 130.5,15.4 			"/>
			<path id="_Path_161" class="st0" d="M126.6,49.5c-0.2-0.9-0.4-1-1.6-1.1c0.1-0.5,0.6-0.8,1.1-0.7c0.4,0,0.8,0.1,1,0.6
				C127.3,48.7,127,49.3,126.6,49.5z"/>
		</g>
	</g>
</g>
</svg>
