<?xml version="1.0" encoding="utf-8"?>
<!-- Generator: Adobe Illustrator 22.1.0, SVG Export Plug-In . SVG Version: 6.00 Build 0)  -->
<svg version="1.1" id="Layer_1" xmlns="http://www.w3.org/2000/svg" xmlns:xlink="http://www.w3.org/1999/xlink" x="0px" y="0px"
	 viewBox="0 0 233 73" style="enable-background:new 0 0 233 73;" xml:space="preserve">
<style type="text/css">
	.st0{fill:#3D3D3D;}
</style>
<title>Asset 8</title>
<g id="Layer_2_1_">
	<g id="Layer_1-2">
		<g id="_Group_">
			<g id="_Group_2">
				<g id="_Group_3">
					<path id="_Compound_Path_" class="st0" d="M134.2,53.5h-2.5v-11H105c0.2-0.5,0.5-1.2,0.7-1.6h26V37c0-1.3,1-2.4,2.3-2.5
						c0.1,0,0.2,0,0.3,0h2.6c0,0,0.2,1.9-1,1.9h-0.7c-1,0-1,0.3-1,1.1v3.3h1.7c0,0,0,1.6-1.2,1.6h-0.6V53.5z"/>
					<path id="_Compound_Path_2" class="st0" d="M140,36.2c0,0.7-0.6,1.3-1.3,1.3s-1.3-0.6-1.3-1.3c0-0.7,0.6-1.3,1.3-1.3
						C139.4,34.9,139.9,35.5,140,36.2C140,36.2,140,36.2,140,36.2L140,36.2z M140,51.8c0,1.7-2.5,1.7-2.5,1.7V38.8h2.5V51.8z"/>
					<path id="_Compound_Path_3" class="st0" d="M143.9,50.4c0,1.3,0.4,1.7,1.3,1.7h1v1c-0.6,0.3-1.3,0.4-2,0.4
						c-1.1,0-2.8-0.4-2.8-2.4V34.5c0,0,2.5,0,2.5,1.6v2.7h2.2c0.1,0.7-0.3,1.4-1.1,1.6c-0.2,0-0.3,0-0.5,0h-0.7L143.9,50.4z"/>
				</g>
				<g id="_Group_4">
					<path id="_Compound_Path_4" class="st0" d="M94.2,51.9c-0.5,0.4-0.6,0.4-0.8,0.9c-1.6,4.3-5.5,8.6-8,8.6c-0.7,0-1.3-0.4-1.6-1
						c-0.2-0.2-0.3-0.5-0.2-0.8c0-1.8,3.1-4,6.6-6c0.4-0.2,0.8-0.5,1-0.9c0.8-1.2,1.4-2.6,1.6-4c0-0.2,0-0.3-0.2-0.3
						c-0.1,0-0.2,0.1-0.3,0.1c-2.4,2-5.2,5.4-6.5,5.4c-0.1,0-0.2,0-0.3,0c-0.8-0.3-1.4-1.1-1.3-2c0-0.7,0.3-1.4,0.7-2
						c1.3-1.9,5.8-6.3,7.7-6.3c0.2,0,0.3,0,0.4,0.1c0.7,0.6,1.2,1.5,1.5,2.4c0,0.1-0.2,0.2-0.3,0.2c-0.2,0-0.2,0-0.2-0.3
						c0-0.2-0.2-0.5-0.5-0.5c-1.3,0-4.9,2.9-6.6,5.4c-0.1,0.1-0.1,0.2-0.1,0.3c0,0.1,0.1,0.3,0.2,0.3c0,0,0,0,0.1,0
						c0.2,0,0.5-0.1,0.7-0.3c1.6-1,4.3-4.1,5.9-4.1c0.2,0,0.4,0.1,0.6,0.2c0.2,0.3,0.3,0.6,0.2,0.9c0,0.9-0.2,1.8-0.5,2.7
						c0,0.1,0,0.1,0,0.2l0,0c0.1,0,0.2-0.1,0.3-0.2c1.5-1.1,2.8-2.3,4.1-3.7c0.4-0.4,0.6,0,0.4,0.2C97.4,49.3,95.9,50.7,94.2,51.9z
						 M90.5,54.1c-0.3,0.1-0.6,0.2-0.8,0.4c-2.8,1.8-4.9,3.3-5.1,5.1c-0.1,0.5,0,0.7,0.2,0.7c0.2,0,0.4-0.1,0.5-0.2
						c1.9-1.2,3.5-2.7,4.7-4.6c0.3-0.4,0.5-0.9,0.7-1.4C90.6,54.2,90.6,54.1,90.5,54.1z"/>
					<path id="_Compound_Path_5" class="st0" d="M98.1,53.3c0,0.1,0.1,0.1,0.1,0.1c0.7,0,4-3.1,4.8-3.9c0.1-0.1,0.3-0.2,0.4-0.3
						c0,0,0.1,0,0,0.1c-0.1,0.2-0.2,0.4-0.3,0.6c-1.2,1.5-3.5,4.3-5.2,4.3c-0.5,0-1-0.3-1.2-0.7c-0.3-0.5-0.5-1.1-0.5-1.7
						c0-4.6,7.4-12.6,7.4-13.5c0-0.1,0-0.1-0.1-0.1l-0.2,0.1c-0.3,0.1-0.6,0.2-0.9,0.3c-0.1,0-0.1,0-0.1-0.1c0-0.1,0.1-0.2,0.3-0.4
						c0.2-0.3,0.6-0.4,0.9-0.5c0.5,0,1,0.6,1.1,0.9c0.2,0.2,0.3,0.5,0.3,0.7C105.1,41.9,98.1,51.6,98.1,53.3z"/>
					<path id="_Compound_Path_6" class="st0" d="M115.9,49.2c-1.3,1.5-2.7,2.9-4.2,4.2c-0.3,0.2-0.6,0.3-0.9,0.3
						c-0.7,0-1.4-0.6-1.4-1.8c0.1-1.1,0.5-2.2,1.1-3.1c0.1-0.1,0.1-0.2,0.1-0.3c0-0.1,0-0.1-0.1-0.1c0,0,0,0,0,0c-0.1,0-0.1,0-0.2,0
						c-1.8,1-3.6,4-5.4,5.5c-0.2,0.2-0.5,0.3-0.8,0.3c-1.1-0.2-1.9-1.2-1.9-2.3c0-0.2,0-0.5,0.1-0.7c1.5-3.8,6.2-6.9,7.8-7.6
						c0.4-0.2,0.8-0.3,1.2-0.3c0.8,0,1.3,0.5,1.9,2c0,0.1,0.1,0.2,0,0.2c0,0.1-0.1,0.2-0.1,0.2c0,0,0,0,0,0c-0.1,0-0.3-0.1-0.4-0.2
						c-0.1-0.2-0.4-0.3-0.6-0.2c-1.7,0-5.9,3.1-6.9,5.2c-0.1,0.1-0.1,0.3-0.1,0.4c0,0.2,0.1,0.3,0.3,0.3c0.2,0,0.4-0.1,0.6-0.3
						c1.6-1.3,4.3-3.8,5.3-4.1c0.2-0.1,0.4-0.1,0.6-0.1c0.7,0,1.3,0.7,1.3,1.4c0,0,0,0,0,0c0,0.1,0,0.3,0,0.4
						c-0.3,0.9-1.7,2.9-2.1,3.9c0,0.1,0,0.2-0.1,0.3c0,0.2,0.1,0.3,0.2,0.3c0.1,0,0.2-0.1,0.3-0.1c1.4-1.2,2.8-2.5,4.1-3.9
						c0.2-0.2,0.3-0.3,0.4-0.3c0.1,0,0.1,0.1,0.1,0.1c0,0,0,0,0,0C116,49,115.9,49.1,115.9,49.2z"/>
					<path id="_Compound_Path_7" class="st0" d="M127.4,56.3c-1.3-0.4-2.1-2.1-1.3-4.4c0.5-1.5,1.2-3,1.9-4.3c0.3-0.5,0.6-1,0.7-1.6
						c0-0.2-0.1-0.3-0.3-0.3c-1.2,0-5.9,4.2-7.3,7.8c0,0.1-0.1,0.2-0.3,0.2c-0.4-0.1-0.8-0.3-1-0.7c-0.2-0.4-0.4-0.8-0.4-1.3
						c0.2-1.5,0.8-2.9,1.8-4c0.4-0.5,0.7-1.1,0.9-1.7c0-0.1-0.1-0.2-0.2-0.2c-0.1,0-0.2,0-0.3,0.1c-1.7,0.7-5.9,6-6.5,7.4
						c-0.1,0.1-0.1,0.2-0.1,0.2c-0.1,0-0.2-0.1-0.3-0.2c-0.4-0.3-0.6-0.8-0.6-1.3c0-2.6,4.3-7.3,4.3-8.1c0-0.2-0.2-0.1-0.2-0.4
						c0-0.2,0.2-0.2,0.4-0.2c0.5,0,0.9,0.5,0.9,1.4c0,0.8-0.3,1.5-0.6,2.1c-0.1,0.1-0.1,0.2-0.2,0.4v0.1c0,0,0.5-0.3,1.5-1.2
						c0.7-0.7,1.6-1.1,2.6-1.2c0.7,0,1.2,0.4,1.2,1.3c0,0.5-0.1,0.9-0.3,1.4c0,0.1-0.1,0.3-0.1,0.4V48c0.1,0,0.2-0.1,0.3-0.2
						c2.6-2.3,4.4-3.2,5.5-3.2c1.1,0,1.4,0.7,1.4,1.7c0,0.8-0.3,1.7-0.7,2.4c-1,2.1-2.5,4.8-1.8,5.9c1.5,2.2,17.1,1.7,20.8-3.9
						c0.5-0.7,0.1,0.8,0.1,0.8C144.6,58.4,130.7,57.5,127.4,56.3z"/>
				</g>
				<g id="_Group_5">
					<g id="_Group_6">
						<path id="_Compound_Path_8" class="st0" d="M97,31.1L97,31.1c0.3-1.8,0.6-3,0.8-3.8c0.4-1.4,1-2.8,1.8-4c-1,1.2-1.7,2.5-2.1,4
							C97.3,28.6,97.1,29.8,97,31.1z"/>
						<path id="_Compound_Path_9" class="st0" d="M117.4,12.5c-0.2,0-0.4,0.1-0.6,0.3c-0.1,0.5-0.1,1,0,1.5c0.3-0.1,0.5-0.3,0.6-0.6
							C117.3,13.2,117.3,12.8,117.4,12.5z"/>
						<path id="_Compound_Path_10" class="st0" d="M118.7,12.4c-0.2-0.2-0.2-0.4,0-0.6c-0.1,0-0.3,0.1-0.4,0.2
							c-0.1,0.3-0.1,0.6,0,0.8C118.5,12.7,118.6,12.6,118.7,12.4z"/>
						<path id="_Compound_Path_11" class="st0" d="M118.8,11.6L118.8,11.6L118.8,11.6L118.8,11.6L118.8,11.6c-0.1,0.2-0.1,0.4,0,0.6
							c0.1,0.1,0,0,0,0l0,0c0.1,0,0.2-0.2,0.3-0.4s0-0.3-0.2-0.4L118.8,11.6z"/>
						<path id="_Compound_Path_12" class="st0" d="M118.1,12.1c-0.2,0-0.4,0.1-0.5,0.3c-0.1,0.4-0.1,0.8,0,1.1
							c0.2-0.1,0.4-0.3,0.5-0.5C118,12.7,118,12.3,118.1,12.1z"/>
						<path id="_Compound_Path_13" class="st0" d="M116,13.2c-0.2,0.6-0.2,1.2,0,1.8c0.3-0.1,0.5-0.3,0.6-0.6
							c-0.2-0.5-0.2-1-0.1-1.5C116.4,13,116.2,13.1,116,13.2z"/>
						<path id="_Compound_Path_14" class="st0" d="M115.6,15.6c0.2-0.1,0.3-0.3,0.4-0.5c-0.2-0.6-0.3-1.2-0.1-1.8
							c-0.3,0-0.6,0.2-0.8,0.4c-0.2,0.7-0.2,1.4,0.1,2.1C115.3,15.8,115.4,15.7,115.6,15.6z"/>
						<path id="_Compound_Path_15" class="st0" d="M114.8,13.9c-0.3,0.1-0.6,0.2-0.8,0.4c-0.2,0.8-0.2,1.7,0.1,2.5
							c0.3-0.1,0.6-0.4,0.8-0.7C114.7,15.4,114.7,14.6,114.8,13.9z"/>
						<path id="_Compound_Path_16" class="st0" d="M109.6,13.8c0.1-0.1,0.1-0.2,0.2-0.3v-0.2c-0.3,0.2-0.5,0.5-0.7,0.8l0,0v0.1
							C109.3,14.1,109.4,14,109.6,13.8z"/>
						<path id="_Compound_Path_17" class="st0" d="M109.6,14L109.6,14L109.6,14c-0.2,0.1-0.4,0.2-0.5,0.3l-0.6,0.5
							c0.1,0,0.2-0.1,0.3-0.1l0.5-0.4C109.4,14.3,109.5,14.2,109.6,14z"/>
						<path id="_Compound_Path_18" class="st0" d="M108.8,15.1c0.1-0.1,0.2-0.2,0.2-0.3c0-0.1,0-0.1,0-0.1l-1,0.9
							c0.1,0,0.2,0,0.3-0.1L108.8,15.1z"/>
						<path id="_Compound_Path_19" class="st0" d="M108.4,21.2c-0.1,0-0.2,0-0.2,0.1c0,0.1,0,0.3,0.2,0.5c0.2,0.3,0.4,0.5,0.7,0.7
							l0,0c0.2,0.1,0.4,0,0.5-0.1c0.1,0,0.2-0.1,0.3-0.1c0.3-0.2,0.3-0.5,0.3-0.6l-0.3-0.1c-0.1-0.1-0.2-0.1-0.3-0.1
							c-0.3-0.1-0.5-0.2-0.7-0.2L108.4,21.2z"/>
						<path id="_Compound_Path_20" class="st0" d="M113.7,28.5c-0.1,0.1-0.1,0.3-0.2,0.4c-0.1,0.2-0.2,0.3-0.2,0.4s0,0.1,0,0.2
							c0,0.2,0.1,0.3,0.2,0.3c0.2,0.1,0.3,0,0.4-0.2c0-0.2,0-0.4-0.1-0.5l0,0l0,0c0,0,0,0.2-0.1,0.4c0,0,0,0.1-0.1,0.1
							c0-0.2,0-0.4,0.1-0.6C113.9,28.9,113.8,28.7,113.7,28.5z"/>
						<path id="_Compound_Path_21" class="st0" d="M109.7,13c0,0-0.1,0-0.1,0c-0.3,0.3-0.6,0.5-1,0.8c-0.2,0.1-0.3,0.2-0.5,0.3
							l-0.4,0.2l-0.3,0.2l-0.4,0.2l-0.2,0.1l0,0l-0.4,0.2l-0.1,0.1c-0.2,0.1-0.4,0.2-0.5,0.4c-0.1,0-0.2,0-0.3,0l-0.8,0.2
							c-1.1,0.3-2.2,0.7-3.2,1.2c-1.4,0.7-2.6,1.6-3.6,2.8c-0.8,0.5-1.5,1.1-2,1.9c-0.2,0.3-0.4,0.6-0.5,1c-0.1,0.1-0.3,0.3-0.4,0.4
							c-0.4,0.5-0.7,1.1-0.9,1.8C94,24.9,94,25,93.9,25.2s-0.2,0.3-0.3,0.4c-0.7,0.7-1.2,1.6-1.4,2.6C92,28.8,92,29.4,92,29.9l0,0
							c-0.1,0-0.1,0.1-0.2,0.2c-0.3,0.4-0.5,1.4-0.6,3.1c-0.3,0.6-0.4,1.3-0.2,2c0.1,0.9,0.4,1.7,0.7,2.5c0.4,0.8,0.8,1.5,1.4,2.1
							c1,0.8,2.1,1.3,3.3,1.6c-1.1-0.6-2-1.5-2.8-2.5c-0.3-0.6-0.6-1.1-0.9-1.7c-0.2-0.4-0.3-0.7-0.4-1.1c-0.1-0.8-0.2-1.6-0.2-2.4
							c0.3,0.9,0.7,1.7,1.3,2.4c0.8,1,2.3,1.8,4.6,2.3l0,0c-1.3-0.5-2.5-1.2-3.5-2.2c-0.6-0.7-1.1-1.5-1.5-2.4
							c0.1,0.4,0.3,0.7,0.6,1c0.5,0.7,1.1,1.3,1.8,1.7c-0.3-0.4-0.7-0.7-0.9-1.1c-0.7-1-1.2-2.2-1.5-3.4c-0.1-0.5-0.1-1-0.1-1.5
							c0,0.1,0,0.3,0.1,0.5c0.2,1.1,0.6,2.1,1.1,3c0.7,1.1,1.5,2,2.6,2.7c-0.8-0.8-1.4-1.7-2-2.6c-0.5-0.8-0.8-1.6-1-2.5
							c-0.1-0.5-0.2-1.1-0.3-1.6c0-0.3,0-0.7,0-1.3c0-0.7,0.2-1.3,0.3-2v0.1c0,0.6,0.1,1.2,0.2,1.8c0.1,0.6,0.2,1.2,0.4,1.7
							c0.1,0.4,0.3,0.8,0.6,1.1c-0.3-0.9-0.5-1.8-0.5-2.8c0-1,0.1-2,0.3-3c0.1-0.6,0.4-1.3,0.6-1.9c0.1-0.2,0.2-0.3,0.3-0.5
							c0.1-0.1,0.3-0.4,0.5-0.7c0.4-0.5,0.8-1,1.3-1.5c0.4-0.4,0.8-0.7,1.2-1.1c0.5-0.4,1-0.8,1.5-1.1s0.9-0.5,1.4-0.8
							c0.4-0.2,0.9-0.4,1.3-0.6l0.5-0.2c0.4-0.1,0.9-0.3,1.4-0.4l0.4-0.1c0,0.1,0,0.2,0.1,0.3c0,0.2,0.1,0.3,0.2,0.4
							c0-0.2,0-0.4,0-0.6c0,0,0-0.1,0-0.1c0-0.1,0.1-0.2,0.1-0.2c0-0.1,0.1-0.2,0.1-0.3c0.1-0.1,0.2-0.2,0.3-0.3
							c0.1-0.1,0.3-0.2,0.4-0.3l0,0c0.3-0.2,0.6-0.3,1-0.5l0.1-0.1l0.3-0.1l0.5-0.2l0.2-0.1c0.1-0.1,0.3-0.2,0.4-0.3
							c0.2-0.1,0.3-0.3,0.5-0.4c0.1-0.1,0.1-0.1,0.2-0.2v0.1L109.7,13z"/>
						<path id="_Compound_Path_22" class="st0" d="M115.6,19.7c0-0.2-0.1-0.4-0.1-0.5c-0.3-0.8-0.9-1.6-1.7-2
							c0.1-0.1,0.1-0.1,0.2-0.2c-0.3-0.8-0.3-1.7-0.1-2.5c-0.4,0-0.7,0.2-0.9,0.5c-0.1,0.6-0.1,1.2-0.1,1.8h-0.1
							c0-0.6,0-1.1,0.1-1.7c-0.4,0.1-0.7,0.3-1,0.6c-0.1,0.2-0.1,0.5-0.1,0.7h-0.1c0-0.2,0.1-0.4,0.1-0.6c-0.3,0.1-0.6,0.2-0.8,0.4
							h-0.1c0.1-0.1,0.2-0.3,0.3-0.5c0-0.1,0.1-0.3,0.1-0.4c0.1-0.4,0.2-0.8,0.4-1.2l0,0c-0.1,0-0.2,0-0.2,0
							c-0.2,0.2-0.5,0.3-0.7,0.5l-0.2,0.1l-1.6,0.9l-0.1,0.1v-0.3c-0.3,0.2-0.5,0.5-0.8,0.8c-0.1,0.1-0.1,0.1-0.2,0.2
							c0,0,0,0.1,0,0.1c0,0,0,0,0,0.1l0,0l0.3-0.2l0.2-0.2l-0.1,0.2c-0.1,0.2-0.3,0.3-0.5,0.5l-0.5,0.3c-0.2,0.1-0.3,0.2-0.4,0.4
							l0,0c0.3-0.1,0.5-0.3,0.8-0.4c0.2-0.1,0.4-0.1,0.6-0.1c0.2,0.6,0.6,1.1,1.2,1.5c0.5,0.3,1,0.6,1.5,0.8c0.4,0.8,0.7,1.6,1,2.4
							c0.1,0.3,0.4,0.8,0.7,1.6c0.1,0.2,0.2,0.5,0.4,0.9c0.1,0.4,0.3,0.8,0.5,1.3l0,0c0,0,0,0.1,0,0.1c0.1,0.2,0.4,0.8,0.8,1.9
							c0,0.1,0.1,0.2,0.1,0.3c0.3,0.5,0.4,1.1,0.3,1.7c-0.1,0.4-0.3,0.7-0.5,1c-0.2,0.3-0.3,0.4-0.4,0.5c-0.8,0.2-1.3,0.1-1.4-0.3
							c0-0.1-0.1-0.3-0.2-0.5c-0.1-0.3-0.3-0.6-0.6-0.8c0.1,0.2,0.1,0.3,0.2,0.5c0.1,0.1,0.1,0.3,0.1,0.5c0,0.2,0.1,0.3,0.1,0.5
							c0,0.1,0.1,0.1,0.1,0.2c-0.3,0-0.5-0.1-0.7-0.2h-0.1c-0.3-0.2-0.4-0.4-0.4-0.5c0-0.1,0-0.2,0-0.4c0-0.2,0-0.5-0.1-0.7
							c-0.3-0.3-0.6-0.6-0.9-0.9c-0.1-0.1-0.3-0.3-0.4-0.4l-0.3-0.2c-0.3-0.3-0.7-0.5-1.1-0.7l0,0l0.6-0.1c0.3,0,0.6-0.1,0.8-0.2
							l0.2-0.1h-0.8l-1,0.1c-0.5,0-1-0.1-1.4-0.2l-0.6-0.2l-0.5-0.2c-0.6-0.3-1-0.7-1.3-1.3c-0.2-0.5-0.2-1-0.1-1.5
							c0.1-0.5,0.2-0.7,0.2-0.8l0,0c-0.1,0.1-0.2,0.3-0.2,0.5c-0.2,0.5-0.2,1-0.2,1.5c0.1,0.4,0.2,0.7,0.3,1
							c0.1,0.2,0.3,0.4,0.5,0.6c0.1,0.1,0.2,0.2,0.4,0.3l0.2,0.1c-0.3,0.5-0.6,1-0.8,1.6c-0.2,0.6-0.4,1.2-0.4,1.8
							c0,0.5,0,1.1,0,1.6c0,0.7,0.1,1.3,0.3,2c0.1,0.5,0.3,1,0.5,1.5c0.2,0.4,0.4,0.7,0.7,1l0.2,0.2c0.4,0.6,0.9,1.2,1.4,1.7
							c0.8,0.7,1.7,1.3,2.7,1.6c0.6,0.2,1.3,0.3,2,0.4c1.7,0.5,3.4,0.6,5.2,0.3c1.1-0.2,2.2-0.7,3.2-1.3l0.1-0.1
							c0.5-0.1,1.2-0.3,2.1-0.6c1.4-0.6,2.8-1,4.3-1.3c0.8-0.2,1.7-0.2,2.5-0.1c0.7,0.1,1.4,0.5,1.8,1c-0.2-0.4-0.4-0.7-0.8-1
							c-0.3-0.2-0.7-0.4-1.1-0.5c-0.4-0.1-0.8-0.2-1.2-0.2l-1.7-0.1c-0.2,0-0.8,0-1.6-0.1c-0.7,0-1.2,0-1.5-0.1
							c-1-0.1-2-0.3-2.9-0.7c-0.4-0.1-0.9-0.3-1.2-0.5c0.3,0.1,0.6,0.2,0.9,0.3c0.7,0.1,1.3,0.2,2,0.2c0.6,0,1.5,0,2.7-0.1
							c1.6-0.1,2.9-0.1,4-0.1c0.8-0.1,1.6,0.1,2.3,0.6c-0.2-0.4-0.6-0.7-1-0.8c-0.4-0.1-0.8-0.2-1.2-0.3c-0.3,0-1-0.1-2.1-0.1
							c-2.9-0.3-4.8-0.9-5.7-1.7c-0.4-0.4-0.8-0.8-1.2-1.2c0.7,0.4,1.5,0.8,2.2,1.1c1.2,0.3,2.4,0.3,3.6,0.2c0.4-0.1,0.8-0.1,1.2,0
							c0.4,0,0.8,0.1,1.1,0.3c-0.4-0.3-0.8-0.5-1.3-0.6c-0.3-0.1-0.9-0.2-1.6-0.3s-1.3-0.2-1.7-0.3c-0.6-0.1-1.1-0.3-1.6-0.6
							c-0.7-0.4-1.3-1-1.9-1.6c-0.2-0.2-0.4-0.5-0.6-0.8s-0.5-0.7-0.6-0.8c-0.1-0.1,0,0,0,0c-0.9-1.1-1.9-2.2-2.9-3.2l0.2,0.1
							c1.1,0.7,2,1.2,2.5,1.7c0.6,0.4,1.1,0.9,1.6,1.4c0,0,0,0,0.1,0.1l0.2,0.4c0.1,0.1,0.2,0.3,0.3,0.5c0.1,0.3,0.3,0.5,0.5,0.7
							c0.3,0.4,0.7,0.7,1.1,0.8c0.4,0.2,0.9,0.4,1.4,0.4c0.5,0,1.1,0,1.6-0.1c-0.7,0-1.5-0.2-2.2-0.5c-0.9-0.4-1.6-1.1-2-2
							c-0.1-0.2-0.2-0.3-0.2-0.5c-0.5-0.8-0.8-1.5-1.1-2c-0.4-0.6-0.9-1.2-1.5-1.7l0,0c-0.2-0.7-0.5-1.3-0.8-1.9
							c-0.4-0.8-0.9-1.5-1.5-2.1L115.6,19.7z M115.9,22.1c-0.2-0.4-0.3-0.7-0.4-0.9c-0.3-0.6-0.7-1.1-1.2-1.5
							c0.3,0.2,0.6,0.5,0.8,0.7c0.6,0.6,1.2,1.3,1.6,2.1c0.1,0.1,0.2,0.4,0.4,0.6c-0.3-0.2-0.7-0.5-1.1-0.8L115.9,22.1z M115,21.5
							c0,0.1,0.1,0.1,0.1,0.2l-1.4-1c-0.3-0.2-0.5-0.5-0.7-0.8l-0.1-0.1c0.1,0.1,0.2,0.1,0.4,0.2c0.4,0.2,0.7,0.4,1,0.6
							C114.6,20.9,114.8,21.2,115,21.5z M111.4,14.1c-0.1,0.4-0.3,0.8-0.4,1.2l-0.1,0.2c0,0.1-0.1,0.1-0.1,0.2c0,0,0,0.1-0.1,0.1
							v0.1c-0.2-0.1-0.5-0.2-0.7-0.2c-0.2-0.1-0.5-0.1-0.7-0.1c0.3-0.2,0.6-0.4,0.9-0.5l0.2-0.2c0.1-0.1,0.1-0.1,0.2-0.2L111.4,14.1
							z M108.8,17c0.4,0.1,0.8,0.4,1.1,0.7c0.3,0.3,0.5,0.6,0.7,1c-0.4-0.3-0.8-0.6-1.1-0.9c-0.2-0.2-0.3-0.4-0.4-0.5
							C108.9,17.2,108.8,17.1,108.8,17L108.8,17z M115.2,19.3L115.2,19.3c-0.7-0.5-1.5-1.1-2.3-1.6c0-0.1,0-0.3-0.1-0.4h0.1
							c0,0.1,0,0.2,0.1,0.4c0.1,0,0.3-0.1,0.4-0.2c0.2,0.1,0.4,0.2,0.6,0.4C114.5,18.3,114.9,18.7,115.2,19.3z M117.5,38.9l0.6-0.1
							c-0.5,0.2-0.9,0.3-1.4,0.5c-1,0.2-2.1,0.2-3.1,0.1h0.2c0.9-0.1,1.6-0.3,2.2-0.4L117.5,38.9z M107.1,36.8
							c0.2,0.1,0.4,0.2,0.6,0.4c0.6,0.6,1.3,1.1,2.1,1.5c-0.3-0.1-0.6-0.2-0.9-0.3c-0.5-0.2-0.9-0.4-1.3-0.8
							c-0.1-0.1-0.2-0.2-0.3-0.3l-0.1-0.1c-0.2-0.2-0.5-0.5-0.7-0.7C106.7,36.5,106.9,36.7,107.1,36.8z M109.9,38.2l-0.6-0.4
							c1.5,0.5,3.2,0.9,4.8,1c-0.9,0.1-1.9,0.1-2.8,0.1C110.8,38.7,110.3,38.5,109.9,38.2z M115.5,25.5L115.5,25.5
							c0.7,0.8,1.4,1.4,1.9,2.1l0.2,0.2l0.6,0.8c0.2,0.3,0.5,0.6,0.7,0.8c0.6,0.6,1.3,1.2,2,1.6l0.2,0.1c-0.3-0.1-0.7-0.3-1-0.5
							c-0.6-0.5-1.2-0.9-1.8-1.3l-0.5-0.4c-0.1-0.2-0.3-0.4-0.4-0.7s-0.4-0.6-0.5-0.8l-0.2-0.3C116.3,26.9,115.9,26.3,115.5,25.5z"
							/>
					</g>
				</g>
			</g>
			<g id="_Group_7">
				<path id="_Compound_Path_23" class="st0" d="M100.1,58.9c0,0.3-0.1,0.5-0.2,0.7c-0.1,0.2-0.3,0.4-0.4,0.5
					c-0.2,0.2-0.4,0.3-0.6,0.3c-0.2,0.1-0.4,0.1-0.7,0.1c-0.3,0-0.5,0-0.8-0.2c-0.2-0.1-0.4-0.2-0.6-0.4c-0.2-0.2-0.3-0.4-0.4-0.6
					c-0.1-0.2-0.2-0.5-0.2-0.7c0-0.2,0-0.5,0.1-0.7c0.1-0.2,0.2-0.4,0.4-0.6c0.2-0.2,0.4-0.3,0.6-0.4c0.5-0.2,1-0.2,1.4-0.1
					c0.2,0.1,0.4,0.2,0.5,0.3c0.1,0.1,0.3,0.2,0.4,0.3c0.1,0.1,0.1,0.2,0.2,0.3h-0.4c-0.1-0.1-0.1-0.2-0.2-0.3
					c-0.2-0.2-0.4-0.3-0.7-0.4c-0.1,0-0.3-0.1-0.4-0.1c-0.2,0-0.4,0-0.6,0.1c-0.2,0.1-0.4,0.2-0.5,0.3c-0.1,0.1-0.3,0.3-0.3,0.5
					c-0.2,0.4-0.2,0.8,0,1.2c0.1,0.2,0.2,0.4,0.3,0.5c0.1,0.1,0.3,0.3,0.5,0.3c0.2,0.1,0.4,0.1,0.7,0.1c0.2,0,0.4,0,0.5-0.1
					c0.2-0.1,0.3-0.1,0.4-0.2c0.1-0.1,0.2-0.2,0.3-0.3c0.1-0.1,0.1-0.3,0.2-0.4h-2.1v-0.3L100.1,58.9z"/>
				<path id="_Compound_Path_24" class="st0" d="M101.8,59.3l-1.3-2.4h0.4l1,2l1.1-2h0.4l-1.3,2.4v1.2h-0.4V59.3z"/>
				<path id="_Compound_Path_25" class="st0" d="M104.1,56.9h0.6L106,60l1.3-3.1h0.6v3.6h-0.3v-3.2l0,0l-1.4,3.2h-0.3l-1.4-3.2l0,0
					v3.2h-0.4L104.1,56.9z"/>
				<path id="_Compound_Path_26" class="st0" d="M110.6,59.5c0,0.2,0.1,0.4,0.2,0.5c0.1,0.1,0.3,0.2,0.5,0.2c0.1,0,0.2,0,0.3-0.1
					c0.1,0,0.2-0.1,0.2-0.1c0.1-0.1,0.1-0.1,0.2-0.2c0-0.1,0.1-0.2,0.1-0.3c0-0.1,0-0.2-0.1-0.3c-0.1-0.1-0.1-0.2-0.2-0.2
					c-0.1-0.1-0.2-0.1-0.3-0.1l-0.2-0.1l-0.3-0.1c-0.1,0-0.2-0.1-0.3-0.2c-0.1-0.1-0.2-0.2-0.2-0.3c-0.1-0.1-0.1-0.3-0.1-0.4
					c0-0.1,0-0.3,0.1-0.4c0.1-0.1,0.1-0.2,0.2-0.3c0.1-0.1,0.2-0.2,0.3-0.2c0.1-0.1,0.3-0.1,0.4-0.1c0.1,0,0.3,0,0.4,0.1
					c0.1,0,0.2,0.1,0.3,0.2c0.1,0.1,0.2,0.2,0.2,0.3c0.1,0.1,0.1,0.2,0.1,0.4H112c0-0.1,0-0.2,0-0.3c-0.1-0.2-0.2-0.3-0.3-0.3
					c-0.1,0-0.2,0-0.2,0c-0.1,0-0.2,0-0.3,0.1c-0.1,0-0.2,0.1-0.2,0.1c-0.1,0.1-0.1,0.1-0.1,0.2c0,0.1,0,0.2,0,0.2
					c0,0.1,0,0.2,0.1,0.3c0,0.1,0.1,0.1,0.2,0.2c0.1,0.1,0.2,0.1,0.3,0.1l0.3,0.1c0.2,0,0.4,0.1,0.5,0.2c0.1,0.1,0.2,0.2,0.3,0.3
					c0.1,0.1,0.1,0.2,0.1,0.3c0,0.1,0,0.1,0,0.2l0,0c0,0.1,0,0.3-0.1,0.4c-0.1,0.1-0.1,0.2-0.2,0.3c-0.1,0.1-0.2,0.2-0.4,0.2
					c-0.1,0.1-0.3,0.1-0.4,0.1c-0.1,0-0.2,0-0.4,0c-0.1,0-0.3-0.1-0.4-0.2c-0.1-0.1-0.2-0.2-0.3-0.3c-0.1-0.2-0.1-0.3-0.1-0.5
					L110.6,59.5z"/>
				<path id="_Compound_Path_27" class="st0" d="M113.7,57.3h-0.8v-0.3h2v0.3H114v3.3h-0.4L113.7,57.3z"/>
				<path id="_Compound_Path_28" class="st0" d="M116.5,59.3l-1.3-2.4h0.4l1,2l1.1-2h0.4l-1.2,2.4v1.2h-0.4V59.3z"/>
				<path id="_Compound_Path_29" class="st0" d="M118.8,56.9h0.4v3.3h1.5v0.3h-1.9V56.9z"/>
				<path id="_Compound_Path_30" class="st0" d="M121.2,56.9h2v0.3h-1.6v1.3h1.6v0.3h-1.6v1.3h1.6v0.3h-2L121.2,56.9z"/>
			</g>
		</g>
	</g>
</g>
</svg>
