<?xml version="1.0" encoding="utf-8"?>
<!-- Generator: Adobe Illustrator 22.1.0, SVG Export Plug-In . SVG Version: 6.00 Build 0)  -->
<svg version="1.1" id="Layer_1" xmlns="http://www.w3.org/2000/svg" xmlns:xlink="http://www.w3.org/1999/xlink" x="0px" y="0px"
	 viewBox="0 0 233 73" style="enable-background:new 0 0 233 73;" xml:space="preserve">
<style type="text/css">
	.st0{fill:#3D3D3D;}
	.st1{fill:#B7B7B7;}
	.st2{fill:#262223;}
	.st3{fill:#636464;}
	.st4{fill:#F9F8F7;}
</style>
<title>Asset 4</title>
<g id="Layer_2_1_">
	<g id="Layer_1-2">
		<g id="_Group_">
			<path id="_Compound_Path_" class="st0" d="M158.8,38.8c-0.6,0.2-0.8,0.5-0.5,1.2c1.6,4.3,1,9.1-1.6,12.9
				c-0.3,0.6-0.9,0.9-1.6,0.8c-1.2-0.1-2.3,0-3.7,0c1.2-1.5,2.3-3.1,3.1-4.8c0.1-0.2,0.4-0.5,0.1-0.7c-0.2-0.2-0.5-0.3-0.8-0.3
				c-0.3,0-0.4,0.3-0.5,0.5c-1.3,1.8-2.8,3.5-4.6,4.8c-0.3,0.3-0.6,0.4-1,0.4c-2,0-4.1,0-6.1,0c0-0.4,0.3-0.3,0.4-0.4
				c5.1-2.6,8.2-6.8,9.7-12.2c0.1-0.2,0.1-0.5,0.1-0.7c0.2-0.8,0-1.1-0.9-1.1c-1.2,0.2-2.4-0.6-2.7-1.7c0-0.7,0.1-1.4,0.2-2
				c0.6-0.7,1-1.6,2.1-1.6l-0.6,0.6c-0.8,0.8-1.1,1.9-0.8,3c0.4,1,1.4,1.6,2.5,1.4c1.1,0.1,2.3-0.2,3.2-0.8c0.2-0.1,0.6-0.5,0.6,0
				c0.1,0.8,0.6,0.6,1,0.6C157.4,38.8,158.1,38.8,158.8,38.8z M154.3,46.8c0.5,0.2,0.9,0.5,1.1-0.1c0.4-0.9,0.6-1.9,0.7-2.9
				c0-0.3,0-0.5-0.3-0.5s-0.4,0.2-0.4,0.5C155.2,44.8,154.9,45.8,154.3,46.8L154.3,46.8z M155.5,40c0,0.7,0,1.2,0,1.7
				c0,0.2,0,0.4,0.3,0.4c0.3,0,0.4-0.1,0.4-0.3C156.3,41,156,40.4,155.5,40L155.5,40z"/>
			<path id="_Path_" class="st1" d="M82.2,38.4L80.3,39h-2c-1.4-0.1-2.8-0.8-3.6-2c-0.8-1.3-1.1-2.9-0.7-4.4
				c0.4-2.4,1.7-4.5,3.7-5.9c1.9-1,4.1-1.2,6.1-0.6c1.7,0.4,3,1.8,3.1,3.6c0.1,0.6-0.2,0.8-0.7,0.8h-2.5c-0.3,0-0.6,0.1-0.8-0.3
				c-0.8-1.4-1.3-1.5-2.7-1.1c-1.5,0.7-1.9,2.1-2.1,3.5c-0.1,0.8-0.4,1.6,0.1,2.4c0.4,0.9,1.5,1.2,2.3,0.8c0.7,0.2,1.1-0.3,1.5-0.7
				c0.3-0.3,0.4-0.6-0.2-0.6c-1.5,0.2-1.2-0.7-1-1.5c0.1-0.4,0.1-0.8,0.1-1.1c1.7-0.2,3.5,0,5.2-0.1c0.4,0,0.6,0.2,0.5,0.6
				c-0.4,2-0.7,4-1,6c-0.1,0.5-0.4,0.5-0.8,0.5c-0.7-0.3-2.1,0.6-2-1.2L82.2,38.4z"/>
			<path id="_Compound_Path_2" class="st1" d="M113.3,29.6c1.2-0.5,2.5-0.5,3.7,0c0.3,0.1,0.2,0.7,0.6,0.5c0.4-0.1,0.2-0.5,0.3-0.8
				c0.2-1.1,0.3-2.2,0.5-3.2c1,0,2,0,3-0.1c0.5,0,0.7,0.2,0.5,0.7c-0.6,2.9-0.9,5.9-1.7,8.8c-0.2,0.8-0.3,1.7-0.3,2.5
				c0,0.4-0.3,0.7-0.6,0.7c-0.1,0-0.1,0-0.2,0c-0.5,0-1-0.1-1.6,0c-0.7,0-1.3,0-0.7-1.3l-1.2,1.1c-0.5,0.2-1.1,0.4-1.7,0.5
				c-3.1-0.2-4.2-1.8-3.7-4.8C110.7,32.4,111.7,30.8,113.3,29.6z M115.4,36.2L115.4,36.2c1.2,0,2-1.1,1.9-2.6c0-1.3-0.7-1.7-2-1.3
				c-1.1,0.7-1.6,2.1-1.2,3.4c0.1,0.4,0.6,0.7,1,0.6C115.2,36.3,115.4,36.5,115.4,36.2L115.4,36.2z"/>
			<path id="_Compound_Path_3" class="st0" d="M110,45.1c0.9-0.5,1.4-1.2,2.2-1.4c1-0.2,1.2-0.1,1,0.9c-0.1,0.6-0.2,1.1-0.3,1.6
				c0,0,0,0,0,0.1c0.4,0,0.5-0.4,0.6-0.6c1.4-1.8,3.8-2.6,6-1.9c1.9,0.6,2.9,2.5,2.5,4.4c-0.1,0.5-0.4,0.4-0.7,0.4
				c-1.6,0-3.1,0-4.7,0c-0.3,0-0.7-0.2-0.8,0.2c-0.1,0.4,0.1,0.8,0.4,1c0.4,0.4,1,0.5,1.5,0.2c1.2-0.9,2.4-0.4,3.6-0.6
				c0.2,0.4-0.1,0.6-0.2,0.8c-1.8,2-4.7,2.5-7.1,1.3c-1.4-1-1.6-2.4-1.2-3.9c0.2-0.8-0.2-0.8-0.7-0.9c-1-0.1-2,0.7-2.1,1.7
				c-0.2,0.9-0.4,1.9-0.5,2.8c-0.1,0.5-0.2,0.6-0.7,0.7c-2.6,0.1-2.6,0.1-2.2-2.4c0.3-1.6,0.6-3.3,0.8-4.9c0.1-0.6,0.3-0.9,0.9-0.8
				c0.4,0,0.7,0,1.1,0C110.1,43.8,110.6,43.9,110,45.1z M116,47.1c0.8,0,1.6,0,2.3,0c0.7,0,0.7-0.3,0.5-0.8
				c-0.2-0.4-0.8-0.7-1.2-0.6C116.8,45.7,116.1,46.3,116,47.1L116,47.1z"/>
			<path id="_Path_2" class="st0" d="M80.2,52c-1.3,0-2.6,0-3.9,0c-0.6,0-0.7-0.2-0.6-0.7c0.6-3.3,1.2-6.6,1.7-9.9
				c0.1-0.4,0.2-0.5,0.6-0.5h8c0.2,0,0.5,0,0.5,0.1c0,0.7,0,1.5-0.3,2.2c-0.1,0.5-0.5,0.3-0.8,0.3c-1.3,0-2.7,0.1-4,0
				c-1-0.1-0.8,0.7-0.9,1.2c-0.1,0.7,0.5,0.4,0.8,0.4c1,0,2,0,3,0c0.5,0,0.8,0,0.6,0.7c-0.4,1.9-0.4,1.9-2.3,1.9h-2
				c-0.4,0-0.7-0.1-0.8,0.5c-0.3,1.2-0.3,1.2,0.9,1.2c1.2,0,2.5,0,3.8,0c0.6,0,0.7,0.2,0.6,0.7C84.9,52,85,52,83,52L80.2,52z"/>
			<path id="_Path_3" class="st1" d="M80.5,22.5c3.5-0.8,7-1.4,10.6-1.6c8.3-0.5,16.7-0.4,25,0.1c8,0.4,15.9,1.4,23.9,1.9
				c4.4,0.3,8.9,0.4,13.3,0.1c0.7-0.1,1.5-0.1,2.2,0c-0.8,0.4-1.7,0.6-2.6,0.6c-4.7,0.5-9.5,0.6-14.2,0.3c-12.6-0.6-25.2-2-37.8-2.2
				c-6.1-0.2-12.1,0-18.1,0.6C82.1,22.6,81.3,22.7,80.5,22.5z"/>
			<path id="_Compound_Path_4" class="st0" d="M100,44.8c0.5-0.3,1-0.6,1.6-0.9c1.4-0.7,3.2-0.2,3.9,1.3c0.2,0.5,0.4,1,0.3,1.5
				c0.2,2.3-1.1,4.4-3.3,5.3c-1.1,0.5-2.5,0.2-3.3-0.7c-0.3,1.7-0.6,3.4-0.9,5c-0.1,0.7-0.4,1-1.1,1c-2.3,0-2.3,0-1.9-2.2
				c0.6-3.4,1.2-6.7,1.8-10.1c0.1-0.9,0.4-1.3,1.3-1.1c0.3,0,0.6,0,0.9,0C99.8,43.9,100.5,43.7,100,44.8z M99.7,48.5
				c0,0.6,0.2,1.2,1,1.3s1.8-1,1.8-2.3c0-0.9-0.4-1.5-1.2-1.4C100.5,46,99.7,47.1,99.7,48.5z"/>
			<path id="_Compound_Path_5" class="st1" d="M158.8,38.8c-0.7,0-1.4,0-2.1,0c-0.4,0-0.9,0.2-1-0.6c0-0.5-0.4-0.1-0.6,0
				c-1,0.6-2.1,0.9-3.2,0.8c-1.1,0.1-2.1-0.5-2.5-1.4c-0.4-1.1-0.1-2.2,0.8-3l0.6-0.6c1.3-0.7,2.8-0.6,4.2-0.9c0.2,0,0.4,0,0.6-0.2
				c0.5,0,1.1,0,1-0.7c-0.1-0.7-0.7-0.6-1.2-0.6c-0.2,0-0.4,0.1-0.6,0.2c-0.6,0-0.7,0.9-1.4,0.7c-0.6-0.1-1.5,0-2.2,0
				c-0.7,0.1-0.6-0.2-0.5-0.7c0.3-0.7,0.9-1.4,1.5-1.8c1.8-0.6,3.8-0.7,5.7-0.4c1.6,0.2,2.1,0.8,2.1,2.4c-0.1,1.7-0.3,3.4-0.7,5.1
				c-0.1,0.4-0.1,0.9,0,1.3C159.6,38.9,159,38.7,158.8,38.8z M154.1,36.9c0.9,0,1.7-0.7,1.8-1.6c0-0.2,0-0.3-0.1-0.5l-0.8,0.3
				c-0.4,0.1-0.7,0.2-1.1,0.3c-0.6,0-1,0.4-0.9,0.9C153.1,36.8,153.7,36.9,154.1,36.9z"/>
			<path id="_Compound_Path_6" class="st1" d="M100.1,33.9c1.5-0.7,3.2-0.6,4.7-1.1c0.5,0,1.1,0,1.1-0.7s-0.6-0.6-1.1-0.6
				c-0.2,0-0.5,0.1-0.7,0.2c-0.5,0.1-0.7,0.8-1.3,0.7c-0.7-0.1-1.5-0.1-2.2,0c-0.7,0-0.6-0.2-0.5-0.7c0.3-0.7,0.9-1.4,1.5-1.8
				c1.8-0.5,3.7-0.7,5.6-0.5c1.9,0.3,2.6,1.1,2.3,3c-0.2,1.5-0.5,3-0.7,4.5c-0.1,0.4-0.1,0.9,0,1.3c0.3,0.6-0.3,0.4-0.5,0.5
				c-0.8,0-1.6,0-2.3-0.1c-0.2,0-0.6,0.1-0.7-0.1c-0.3-1.2-0.7-0.4-1-0.1c-0.9,0-1.7,0.7-2.7,0.7c-0.2-0.3-0.6-0.2-0.9-0.2
				c-1.3-0.1-2.2-1.2-2.1-2.4c0-0.3,0.1-0.6,0.2-0.8C99.1,35,99.6,34.4,100.1,33.9z M103.6,36.9c1.2-0.1,1.8-0.8,1.7-2.1
				c-0.3,0.1-0.7,0.1-1,0.3c-0.3,0.1-0.6,0.2-0.9,0.2c-0.6,0-1,0.3-1,0.9C102.4,36.8,103.1,36.9,103.6,36.9z"/>
			<path id="_Compound_Path_7" class="st1" d="M132,31.7c-0.5,0.1-0.7,0.8-1.3,0.7c-0.2,0-0.4,0-0.5,0c-0.7-0.1-1.9,0.4-2.1-0.2
				c-0.4-0.8,0.6-1.4,1.1-2.1c2.2-0.9,4.6-1.1,6.9-0.4c1,0.2,1.6,1.1,1.4,2.1c-0.1,1.7-0.5,3.4-0.8,5c-0.2,0.5-0.2,1.1,0,1.6
				c0.3,0.6-0.4,0.3-0.5,0.4c-0.8,0-1.6,0-2.3,0c-0.2,0-0.6,0.1-0.7-0.2c-0.3-1.3-0.7-0.2-1.1-0.1c-0.7,0.3-1.5,0.5-2.3,0.6
				c-0.4,0-0.7,0-1.1-0.1c-1.3,0-2.3-1.1-2.2-2.3c0-0.3,0.1-0.5,0.2-0.8c0.3-0.8,0.8-1.4,1.4-1.9c1.5-0.8,3.2-0.5,4.7-1.1
				c0.6,0.1,1,0,1.1-0.7c0.1-0.7-0.6-0.6-1-0.6C132.6,31.6,132.3,31.6,132,31.7z M131.5,36.9c1,0.1,1.8-0.7,1.9-1.6
				c0-0.2,0-0.3,0-0.5c-0.3,0.1-0.7,0-0.9,0.4c-0.4,0.1-0.7,0.2-1.1,0.2c-0.5,0-0.8,0.4-0.8,0.9c0,0,0,0,0,0.1
				C130.5,36.9,131,36.9,131.5,36.9L131.5,36.9z"/>
			<path id="_Path_4" class="st1" d="M148.5,35.5c-0.2,0.6-0.3,1.3-0.2,2c-0.4,0.4,0,1.4-1,1.3c-0.8,0-1.5,0-2.3,0
				c-0.5,0-0.7-0.1-0.6-0.7c0.3-1.5,0.6-3,0.7-4.5c0.2-1.3-0.4-1.7-1.7-1.3c-0.8,0.2-0.9,0.9-1,1.5c-0.3,1.3-0.5,2.7-0.7,4
				c-0.1,0.5-0.2,0.9-0.8,0.8s-1.5-0.1-2.2,0s-0.8-0.1-0.6-0.8c0.5-2.8,0.9-5.5,1.4-8.3c1.2,0.1,2.4-0.5,3.5,0.3
				c0.1,0.1,0.6-0.1,0.8-0.2c0.7-0.4,1.5-0.6,2.3-0.5c2.2,0.1,2.7,0.9,2.8,3.1C148.9,33.5,148.8,34.5,148.5,35.5z"/>
			<path id="_Path_5" class="st1" d="M84.9,19.9c3.8-1,7.6-1.5,11.5-1.7c10-0.4,20.1-0.1,30.1,0.9c7,0.6,14.1,1.3,21.2,1.3
				c2.3,0.1,4.7-0.1,7-0.5c-1.5,0.6-3,0.9-4.5,1c-7.1,0.5-14.3,0.4-21.4-0.3c-5.7-0.4-11.4-0.9-17-1.1c-6.5-0.3-13-0.6-19.5-0.2
				c-2.1,0.1-4.2,0.3-6.3,0.6C85.5,19.8,85.2,19.8,84.9,19.9z"/>
			<path id="_Path_6" class="st1" d="M93.1,38.5c-0.7,0.3-1.5,0.6-2.3,0.7c-0.1-0.2-0.4-0.2-0.6-0.2c-1.3,0-2.3-1-2.3-2.3
				c0-0.1,0-0.2,0-0.3c0-0.7,0.1-1.3,0.2-2c0.2-1.6,0.5-3.2,0.8-4.8c1,0,1.9,0,2.8,0c0.6,0,0.8,0.2,0.7,0.8
				c-0.3,1.5-0.5,2.9-0.7,4.4c-0.2,1.1,0.2,1.5,1.2,1.2c1,0.1,1.3-0.7,1.5-1.4c0.3-1.6,0.6-3.3,0.9-5c1,0,1.9,0,2.8,0
				c0.6,0,0.8,0.2,0.7,0.8c-0.2,1.3-0.5,2.6-0.7,3.8c-0.1,0.3-0.2,0.5,0.1,0.7c-0.4,0.8-0.5,1.7-0.5,2.5c-0.5,0.3,0,1.4-1,1.3
				c-0.5,0-1,0-1.5,0c-0.8,0.1-1.4,0-1-1.3L93.1,38.5z"/>
			<path id="_Path_7" class="st1" d="M92.8,16.8c1.9-0.5,3.9-0.8,5.8-0.9c8.1-0.5,16.2-0.4,24.3,0.3c7.8,0.6,15.6,1.6,23.5,1.5
				c1.4,0,2.9-0.1,4.3-0.2c-1.5,0.4-2.9,0.6-4.4,0.7c-6.3,0.3-12.6,0.2-18.9-0.5c-5.6-0.4-11.1-0.8-16.7-1
				C104.8,16.5,98.8,16.5,92.8,16.8z"/>
			<path id="_Path_8" class="st0" d="M133,49.5c0.7,0,1.4-0.2,1.8,0.7c0.2,0.4,0.8,0.3,1.3,0.2c0.3-0.1,0.6-0.4,0.6-0.7
				c0-0.3-0.2-0.5-0.5-0.6c-0.6-0.2-1.3-0.3-2-0.5c-0.8-0.2-1.7-0.5-1.9-1.5c-0.2-1,0.2-2.1,1.2-2.6c1.7-1,3.8-1.2,5.6-0.4
				c0.4,0.2,0.7,0.5,0.9,0.8c0.5,0.9,0.3,1.3-0.7,1.2c-0.8,0-1.7,0.4-2.3-0.6c-0.2-0.4-0.8-0.2-1.2,0c-0.2,0.1-0.3,0.3-0.3,0.5
				c0.1,0.4,0.5,0.4,0.8,0.5c0.7,0.2,1.4,0.3,2.1,0.5c1.8,0.6,2.2,2.2,0.9,3.7c-0.5,0.5-1,0.9-1.7,1.1c-1.3,0.4-2.7,0.5-4,0.2
				c-0.3-0.1-0.6-0.2-0.9-0.3c-0.8-0.3-1.3-1.1-1.2-1.9C131.7,49.1,132.6,49.8,133,49.5z"/>
			<path id="_Path_9" class="st0" d="M122.5,49.6c0.6,0.1,1.2,0.2,1.7,0.1c0.6,0,1.1-0.1,1.6,0.5c0.3,0.4,0.8,0.3,1.3,0.1
				c0.3-0.1,0.5-0.3,0.5-0.6c0-0.3-0.2-0.5-0.5-0.6c-0.7-0.2-1.4-0.3-2.2-0.5c-1.1-0.2-1.9-1.3-1.7-2.4c0.1-0.5,0.3-0.9,0.7-1.3
				c1.3-1.4,4.9-1.8,6.4-0.7c0.3,0.2,0.5,0.4,0.6,0.7c0.4,0.9,0.3,1.2-0.7,1.2c-1,0-1.8,0.3-2.4-0.7c-0.2-0.3-0.7-0.2-1.1,0
				c-0.2,0.1-0.3,0.3-0.3,0.5c0.1,0.4,0.5,0.5,0.8,0.6c0.7,0.2,1.4,0.3,2.2,0.6c1.7,0.6,2.1,2.1,1,3.5c-0.6,0.7-1.5,1.2-2.5,1.4
				c-1.3,0.3-2.6,0.3-3.9-0.1C122.9,51.7,122.3,50.7,122.5,49.6z"/>
			<path id="_Path_10" class="st0" d="M85.6,52c1.1-1.3,2-2.5,3-3.5c0.5-0.4,0.6-1.1,0.2-1.6c0,0,0,0,0,0c-0.5-0.9-1-1.9-1.5-3h1.7
				c1.9,0,1.9,0,2.6,1.9c0.9-0.4,0.8-1.8,2-1.9c0.9-0.1,1.9,0,3.1,0c-1.1,1.2-2,2.3-3,3.3c-0.4,0.3-0.5,0.9-0.2,1.3
				c0.6,1.1,1.1,2.3,1.7,3.5c-1.2,0-2.2,0-3.2,0c-0.3,0-0.5-0.2-0.6-0.5c-0.1-0.5-0.3-1.1-0.5-1.7c-0.9,0.6-0.9,2-2,2.1
				C87.8,52.1,86.7,52.1,85.6,52z"/>
			<path id="_Path_11" class="st1" d="M123,29.6c1,0,2,0,2.9-0.1c0.6,0,0.7,0.1,0.6,0.7c-0.3,1.6-0.6,3.3-0.9,4.9
				c-0.1,0.2,0,0.4,0.2,0.4c0.1,0.4-0.2,0.6-0.3,0.9c-0.2,0.5-0.3,1.1-0.3,1.6c0,0.6-0.3,0.7-0.8,0.7c-0.7,0-1.3-0.1-2,0
				s-1-0.2-0.8-1C122.1,35.1,122.5,32.4,123,29.6z"/>
			<path id="_Path_12" class="st2" d="M77.8,26.7c-2,1.4-3.4,3.5-3.8,5.9c-0.4,1.5-0.1,3.1,0.7,4.5c0.8,1.2,2.1,1.9,3.6,2L78,39.4
				c-3.5-0.2-5.3-2.5-4.9-5.9c0.2-2.6,1.5-4.9,3.7-6.4C77,26.9,77.3,26.5,77.8,26.7z"/>
			<path id="_Path_13" class="st2" d="M88.9,29.6c-0.3,1.6-0.5,3.2-0.8,4.8c-0.1,0.7-0.2,1.3-0.2,2c-0.1,1.3,0.8,2.4,2,2.5
				c0.1,0,0.2,0,0.3,0c0.2,0,0.4,0,0.6,0.2c-2.9,0.4-4.2-0.9-3.7-3.7c0.3-1.7,0.6-3.4,0.9-5.1C88,29.7,88.2,29.5,88.9,29.6z"/>
			<path id="_Path_14" class="st2" d="M113.3,29.6c-1.5,1.1-2.5,2.7-2.8,4.6c-0.5,3,0.6,4.6,3.7,4.8c-1.7,0.8-3.6,0-4.4-1.6
				c-0.2-0.4-0.3-0.9-0.3-1.4c-0.1-2,0.6-4,2.1-5.4C111.9,30,112.6,29.7,113.3,29.6z"/>
			<path id="_Path_15" class="st1" d="M123.7,25.9c0.7,0,1.4-0.1,2.1,0c0.5,0,1.3-0.2,1.4,0.1c0.1,0.7,0,1.5-0.3,2.1
				c-0.1,0.3-0.4,0.2-0.7,0.2h-0.4c-0.8,0-1.9,0.3-2.3-0.1S123.6,26.7,123.7,25.9z"/>
			<path id="_Path_16" class="st2" d="M123,29.6c-0.5,2.7-0.9,5.4-1.4,8.1c-0.1,0.8,0,1,0.8,1s1.3,0,2,0c-1.2,0.5-2.4,0.1-3.6,0.2
				c-0.3,0-0.2-0.2-0.2-0.5c0.5-2.8,1-5.6,1.5-8.4C122.2,29.5,122.6,29.6,123,29.6z"/>
			<path id="_Path_17" class="st2" d="M139.4,29.6c-0.5,2.8-0.9,5.5-1.4,8.3c-0.1,0.6,0,0.8,0.6,0.8c0.6,0,1.5,0,2.2,0
				c-1.2,0.5-2.4,0.1-3.6,0.2c-0.4,0-0.3-0.3-0.2-0.6c0.5-2.8,1-5.5,1.5-8.3C138.6,29.5,139,29.6,139.4,29.6z"/>
			<path id="_Path_18" class="st2" d="M143.4,32.4c1.3-0.4,1.9-0.1,1.7,1.3c-0.2,1.5-0.4,3-0.7,4.5c-0.1,0.5,0.1,0.7,0.6,0.7
				c0.8,0,1.5,0,2.3,0c-1.2,0.5-2.4,0.1-3.6,0.2c-0.5,0-0.2-0.5-0.2-0.8c0.2-1.4,0.5-2.8,0.7-4.2C144.3,33.3,144.3,32.6,143.4,32.4z
				"/>
			<path id="_Path_19" class="st0" d="M101.4,55.4c0-1.8,0-1.8,1.8-1.7c0.5,0,1.5-0.3,1.4,0.2c0,0.8-0.9,0.2-1.4,0.3
				c-0.3,0.1-0.9-0.2-0.9,0.4s0.6,0.3,0.9,0.4s0.7-0.2,0.8,0.3s-0.5,0.2-0.7,0.3s-0.9-0.3-0.9,0.5s0.6,0.4,0.9,0.5
				c0.5,0.2,1.4-0.4,1.5,0.3c0,0.5-0.9,0.2-1.4,0.2C101.4,57.1,101.4,57.1,101.4,55.4z"/>
			<path id="_Path_20" class="st0" d="M118.4,57.2c-1.1-0.1-1.9-0.4-2.1-1.4c-0.2-0.7,0.1-1.5,0.8-1.9c0.9-0.5,2-0.4,2.8,0.2
				c0.2,0.1,0.2,0.2,0.1,0.4s-0.2,0.2-0.4,0.1c-0.3-0.3-0.8-0.4-1.2-0.4c-0.8,0-1.3,0.4-1.3,1.2c0,0.9,0.6,1.1,1.3,1.2
				c0.2,0,0.4-0.1,0.6-0.1c0.4,0.1,0.7-0.8,1-0.1c0.2,0.5-0.5,0.5-0.9,0.7C118.9,57.1,118.6,57.2,118.4,57.2z"/>
			<path id="_Compound_Path_8" class="st0" d="M140,57c-0.6,0.3-0.8,0-1.1-0.4s-0.4-0.7-0.8-0.6c-0.5,0.1-0.2,0.5-0.2,0.7
				c0,0.2-0.1,0.4-0.4,0.4s-0.4-0.2-0.4-0.5c0-0.3,0-0.4,0-0.6c0-1.8,0.6-2.2,2.3-1.7c0.6,0.2,0.9,0.8,0.6,1.1
				C139.1,56,139.7,56.5,140,57z M138.6,55.4c0.3-0.1,0.7,0.1,0.7-0.3s-0.5-0.3-0.8-0.3c-0.3,0-0.7-0.1-0.7,0.3
				C137.9,55.5,138.4,55.3,138.6,55.4L138.6,55.4z"/>
			<path id="_Path_21" class="st2" d="M125.5,36.5c0.1-0.3,0.4-0.5,0.3-0.8c0.7-0.7,1.1-1.8,2.3-1.7c-0.6,0.5-1.1,1.2-1.4,1.9
				c-0.5,1.2,0.1,2.5,1.3,3c0.2,0.1,0.5,0.1,0.8,0.2c0.3,0,0.7,0,1,0.1C127.6,39.9,125.7,38.8,125.5,36.5z"/>
			<path id="_Path_22" class="st2" d="M95.2,29.6c-0.3,1.7-0.5,3.3-0.9,5c-0.2,0.7-0.4,1.5-1.5,1.4c1-1.4,0.9-3,1.2-4.5
				c0.1-0.4,0.2-0.8,0.2-1.2C94.3,29.6,94.7,29.5,95.2,29.6z"/>
			<path id="_Path_23" class="st2" d="M97.7,37.5c-0.1-0.9,0.1-1.7,0.5-2.5c0.6-0.3,1-1.2,1.9-1.1c-0.5,0.5-1,1.1-1.3,1.8
				c-0.5,1.1-0.1,2.5,1.1,3.1c0.3,0.1,0.5,0.2,0.8,0.2c0.3,0,0.7-0.1,0.9,0.2C99.4,39.5,98.4,39.1,97.7,37.5z"/>
			<path id="_Compound_Path_9" class="st0" d="M130.7,54.7c0,0.2,0,0.6-0.1,0.7c-0.8,0.5-0.4,1,0,1.5c-0.7,0.4-0.9-0.1-1.1-0.5
				c-0.2-0.4-0.4-0.5-0.7-0.5s-0.3,0.4-0.3,0.7s0,0.5-0.4,0.5s-0.3-0.2-0.3-0.5s0-0.4,0-0.6c0.1-0.6-0.3-1.5,0.2-1.7
				C128.8,53.9,129.8,54.1,130.7,54.7L130.7,54.7z M129.1,55.4c0.2-0.1,0.7,0.2,0.7-0.3s-0.4-0.3-0.7-0.3c-0.3,0-0.7-0.2-0.7,0.3
				C128.5,55.6,128.9,55.3,129.1,55.4z"/>
			<path id="_Path_24" class="st0" d="M109.9,54.2c0.3,0,0.6,0,0.8,0c0.4,0,0.9-0.2,1,0.2c0.1,0.6-0.5,0.2-0.8,0.3s-0.2,0.4-0.2,0.6
				c-0.1,0.6,0.3,1.6-0.3,1.6c-0.8,0-0.2-1.1-0.4-1.6c-0.1-0.3-0.1-0.6-0.5-0.6s-1,0-0.9,0.7c0,0.1,0,0.1,0,0.2
				c-0.2,0.5,0.4,1.3-0.4,1.3c-0.8,0-0.3-0.8-0.3-1.3C107.9,54.2,108,54.2,109.9,54.2z"/>
			<path id="_Path_25" class="st0" d="M135.4,57.1c-0.5-0.2-1.2,0.2-1.4-0.2c-0.2-0.8-0.2-1.7,0-2.5c0.1-0.4,0.9-0.2,1.4-0.1
				s1.1-0.3,1.2,0.2c0,0.5-0.7,0.1-1.1,0.3s-0.7-0.2-0.7,0.3c0,0.5,0.4,0.2,0.7,0.3c0.2,0.1,0.6-0.1,0.6,0.2s-0.4,0.2-0.6,0.3
				c-0.2,0-0.6-0.1-0.6,0.3c0,0.4,0.4,0.3,0.6,0.3h0.1c0.4,0.1,1.2-0.3,1.2,0.3S135.8,56.9,135.4,57.1z"/>
			<path id="_Path_26" class="st0" d="M127.3,57c-0.4,0.1-0.6,0.2-0.9-0.2c-0.2-0.5-0.7-0.6-1.2-0.4c-0.2,0.1-0.3,0.2-0.4,0.4
				c-0.2,0.3-0.4,0.3-0.6,0.2s0-0.4,0.1-0.5c0.3-0.6,0.6-1.3,0.9-1.9c0.1-0.2,0.2-0.4,0.4-0.4c0.2,0,0.5,0.1,0.6,0.3
				C126.5,55.4,126.9,56.1,127.3,57z"/>
			<path id="_Path_27" class="st0" d="M123.7,55.6c0,0.2,0,0.3,0,0.5c-0.1,0.3,0.3,0.9-0.3,0.9s-0.3-0.5-0.4-0.8
				c-0.1-0.6-0.5-0.4-0.9-0.5s-0.7-0.1-0.7,0.5c0,0.3,0.2,0.8-0.4,0.7c-0.6-0.1-0.2-0.6-0.3-0.9c0-0.5,0-0.9,0-1.4
				c0-0.2-0.1-0.5,0.3-0.6c0.4,0,0.4,0.2,0.4,0.5c-0.1,0.6,0.4,0.5,0.8,0.5c0.4,0,0.8,0.2,0.8-0.5c0-0.3-0.1-0.6,0.4-0.6
				s0.3,0.5,0.3,0.7C123.7,55.2,123.7,55.4,123.7,55.6z"/>
			<path id="_Path_28" class="st0" d="M113.4,57.1c-0.4-0.1-1.1,0.2-1.2-0.2c-0.1-0.8-0.1-1.7,0-2.5c0,0,0.2-0.1,0.4-0.1h1.8
				c0.2,0,0.4,0,0.4,0.2s-0.2,0.3-0.4,0.3c-0.1,0-0.2,0-0.3,0c-0.4,0.1-1.1-0.2-1.1,0.2c-0.1,0.7,0.6,0.2,0.9,0.4
				c0.1,0.1,0.3,0.1,0.3,0.2c0,0.1-0.1,0.2-0.2,0.2c0,0,0,0-0.1,0h-0.6c-0.2,0-0.4,0.1-0.4,0.4s0.2,0.3,0.4,0.3h1.2
				c0.2,0,0.5-0.1,0.4,0.3c0,0.3-0.3,0.2-0.5,0.2L113.4,57.1z"/>
			<path id="_Path_29" class="st2" d="M81.2,31.9c0,0.4-0.1,0.8-0.1,1.1c-0.2,0.8-0.5,1.7,1,1.5c0.6-0.1,0.4,0.3,0.2,0.6
				c-0.4,0.4-0.9,0.8-1.5,0.7c0.2-0.3,0.8-0.4,0.8-0.8c-0.4-0.6-1.7,0.5-1.4-0.7C80.2,33.5,79.4,32,81.2,31.9z"/>
			<path id="_Path_30" class="st2" d="M118.4,26.2c-0.2,1.1-0.3,2.1-0.5,3.2c0,0.3,0,0.7-0.3,0.8s-0.4-0.4-0.7-0.6
				c0.2-1,0.4-1.9,0.5-2.9C117.6,26.2,117.9,26.1,118.4,26.2z"/>
			<path id="_Path_31" class="st2" d="M123.7,25.9c0,0.8-0.7,1.8-0.2,2.4c0.5,0.5,1.5,0.1,2.3,0.1h0.4c-1.2,0.5-2.4,0.1-3.6,0.2
				c-0.1,0-0.2-0.1-0.2-0.1c0-0.8,0.1-1.6,0.4-2.4C122.9,25.6,123.3,25.9,123.7,25.9z"/>
			<path id="_Path_32" class="st2" d="M80.3,29.1c1.4-0.4,2-0.2,2.7,1.1c0.2,0.4,0.5,0.3,0.8,0.3h2.5c-1.3,0.5-2.6,0.1-3.9,0.2
				c-0.2,0-0.2-0.1-0.3-0.3C82,29.4,81.2,29.2,80.3,29.1z"/>
			<path id="_Path_33" class="st0" d="M130.7,54.7c0-0.3,0.1-0.5,0.5-0.5s0.9,0,1.4,0s0.9-0.2,1,0.2c0.1,0.6-0.5,0.2-0.8,0.3
				c-0.5,0.3-0.2,0.8-0.3,1.1s0.4,1.2-0.4,1.1c-0.6,0-0.3-0.8-0.3-1.1C132,54.9,131.5,54.6,130.7,54.7L130.7,54.7z"/>
			<path id="_Path_34" class="st2" d="M101.6,29.9c-0.7,0.5-1.2,1.1-1.5,1.8c-0.2,0.5-0.1,0.7,0.5,0.7c0.6,0,1.5,0,2.2,0
				c-1.1,0.5-2.3,0.1-3.5,0.2c-0.3,0-0.2-0.3-0.2-0.5C99.4,30.9,100.4,30.1,101.6,29.9z"/>
			<path id="_Path_35" class="st2" d="M152.1,29.9c-0.6,0.5-1.2,1.1-1.5,1.8c-0.2,0.5-0.1,0.7,0.5,0.7s1.5,0,2.2,0
				c-1.1,0.5-2.3,0.1-3.5,0.2c-0.3,0-0.2-0.3-0.2-0.5C150,30.9,150.9,30.1,152.1,29.9z"/>
			<path id="_Path_36" class="st2" d="M129.2,30.1c-0.5,0.6-1.5,1.3-1.1,2.1c0.3,0.6,1.4,0.1,2.1,0.2c0.2,0,0.3,0,0.5,0
				c-1.1,0.5-2.2,0.1-3.4,0.2c-0.3,0-0.3-0.2-0.3-0.4C127.3,31.1,128.1,30.3,129.2,30.1z"/>
			<path id="_Path_37" class="st0" d="M106.5,57.1c-1.3,0-1.3,0-1.3-1.7c0-0.4-0.3-1.1,0.3-1.1c0.8,0,0.4,0.8,0.3,1.1
				c0,0.9,0.2,1.3,1.2,1.2c0.2,0,0.7-0.3,0.7,0.3s-0.5,0.2-0.7,0.2C106.8,57.1,106.7,57.1,106.5,57.1z"/>
			<path id="_Path_38" class="st2" d="M93.1,38.5l1.2-1c-0.5,1.3,0.2,1.4,1,1.3c0.5,0,1,0,1.5,0c-1.1,0.5-2.3,0.1-3.4,0.2
				C93,39,93.1,38.6,93.1,38.5z"/>
			<path id="_Path_39" class="st2" d="M132.2,38.5c0.4-0.1,0.8-1.2,1.1,0.1c0,0.3,0.4,0.2,0.6,0.2c0.8,0,1.5,0,2.3,0
				c-1.2,0.5-2.5,0.1-3.8,0.2C132.1,39,132.2,38.6,132.2,38.5z"/>
			<path id="_Path_40" class="st2" d="M104.2,38.5c0.3-0.3,0.7-1.2,1,0.1c0.1,0.3,0.4,0.1,0.7,0.1c0.8,0,1.5,0,2.3,0
				c-1.2,0.5-2.5,0.2-3.8,0.2C104.2,39,104.3,38.7,104.2,38.5z"/>
			<path id="_Path_41" class="st2" d="M115.8,38.5l1.2-1.1c-0.5,1.3,0,1.3,0.7,1.3c0.5,0,1,0,1.6,0c-1.1,0.5-2.2,0.1-3.3,0.2
				C115.7,39,115.8,38.7,115.8,38.5z"/>
			<path id="_Path_42" class="st2" d="M132,31.7c0.3-0.1,0.5-0.1,0.8-0.1c0.4,0,1-0.1,1,0.6c0,0.7-0.5,0.8-1.1,0.7
				C133.4,31.9,132.6,31.9,132,31.7z"/>
			<path id="_Path_43" class="st2" d="M82.2,38.4l0.8-0.7c0,1.8,1.3,0.8,2,1.2c-0.8,0.5-1.7,0.2-2.6,0.2
				C82.1,39.1,82.2,38.6,82.2,38.4z"/>
			<path id="_Path_44" class="st2" d="M154.6,31.7c0.2-0.1,0.4-0.1,0.6-0.2c0.5,0,1.1-0.1,1.2,0.6c0,0.7-0.5,0.7-1,0.7
				C155.8,32,155.3,31.8,154.6,31.7z"/>
			<path id="_Path_45" class="st1" d="M104.1,31.7c0.2-0.1,0.4-0.1,0.7-0.2c0.5,0,1.1-0.1,1.1,0.6s-0.5,0.7-1.1,0.7
				C105.2,32,104.8,31.8,104.1,31.7z"/>
			<path id="_Path_46" class="st3" d="M78,39.4l0.3-0.3h2C79.6,39.4,78.8,39.5,78,39.4z"/>
			<path id="_Path_47" class="st4" d="M154.3,46.8c0.6-0.9,0.9-2,1.1-3.1c0-0.2,0-0.5,0.4-0.5c0.4,0,0.4,0.3,0.3,0.5
				c-0.1,1-0.3,2-0.7,2.9C155.2,47.3,154.8,46.9,154.3,46.8z"/>
			<path id="_Path_48" class="st4" d="M155.5,39.9c0.5,0.4,0.8,1.1,0.7,1.7c0,0.3-0.1,0.4-0.4,0.3s-0.3-0.2-0.3-0.4
				C155.5,41.1,155.5,40.6,155.5,39.9z"/>
			<path id="_Path_49" class="st4" d="M115.1,36.3c-0.4,0.1-0.9-0.1-1-0.6c-0.4-1.3,0.1-2.6,1.2-3.4c0.8,0.2,1,0.8,1,1.5
				c0,0.9-0.4,1.7-1,2.4l0,0L115.1,36.3z"/>
			<path id="_Path_50" class="st2" d="M115.4,36.2c0.6-0.6,1-1.5,1-2.4c0-0.7-0.2-1.3-1-1.5c1.2-0.4,1.9,0,2,1.3
				C117.3,35.1,116.5,36.2,115.4,36.2z"/>
			<path id="_Path_51" class="st2" d="M115.1,36.3l0.2-0.1C115.4,36.5,115.2,36.3,115.1,36.3z"/>
			<path id="_Path_52" class="st4" d="M116.1,47.1c0.1-0.8,0.7-1.4,1.5-1.4c0.5-0.1,1,0.1,1.3,0.6c0.3,0.5,0.3,0.9-0.5,0.8
				S116.9,47.1,116.1,47.1z"/>
			<path id="_Path_53" class="st4" d="M99.7,48.5c0-1.4,0.8-2.5,1.7-2.5c0.7,0,1.2,0.6,1.2,1.5c-0.1,1.3-0.9,2.4-1.8,2.3
				S99.7,49.1,99.7,48.5z"/>
			<path id="_Path_54" class="st4" d="M154.1,36.9c-0.5,0-1.1,0.1-1.1-0.6s0.3-0.9,0.9-0.9c0.4-0.1,0.7-0.2,1.1-0.3
				C155,35.8,154.7,36.4,154.1,36.9z"/>
			<path id="_Path_55" class="st2" d="M154.1,36.9c0.5-0.4,0.9-1.1,0.9-1.8l0.8-0.3c0.2,0.9-0.3,1.8-1.2,2
				C154.5,36.9,154.3,36.9,154.1,36.9z"/>
			<path id="_Path_56" class="st4" d="M103.6,36.9c-0.5,0-1.1,0.1-1.1-0.6c0-0.7,0.4-0.9,1-0.9c0.3,0,0.6-0.1,0.9-0.2
				C104.7,36,103.9,36.3,103.6,36.9z"/>
			<path id="_Path_57" class="st2" d="M103.6,36.9c0.4-0.5,1.1-0.9,0.8-1.7c0.3-0.3,0.6-0.2,1-0.3C105.4,36.1,104.8,36.8,103.6,36.9
				z"/>
			<path id="_Path_58" class="st4" d="M131.5,36.9c-0.5,0-1,0-1-0.6c0-0.5,0.3-0.9,0.7-0.9c0,0,0,0,0.1,0c0.4,0,0.7-0.1,1.1-0.2
				C132.6,36,132,36.4,131.5,36.9z"/>
			<path id="_Path_59" class="st2" d="M131.5,36.9c0.5-0.5,1.1-0.9,0.9-1.7c0.2-0.3,0.6-0.2,0.9-0.4c0.2,0.9-0.4,1.9-1.4,2.1
				C131.8,36.9,131.6,36.9,131.5,36.9z"/>
			<path id="_Path_60" class="st0" d="M138.6,55.4c-0.2-0.1-0.7,0.2-0.7-0.3s0.4-0.3,0.7-0.3s0.8-0.1,0.8,0.3S138.9,55.3,138.6,55.4
				z"/>
			<path id="_Path_61" class="st0" d="M129.1,55.4c-0.2-0.1-0.7,0.2-0.7-0.3s0.4-0.3,0.7-0.3s0.7-0.1,0.7,0.3S129.4,55.3,129.1,55.4
				z"/>
		</g>
	</g>
</g>
</svg>
