<?xml version="1.0" encoding="utf-8"?>
<!-- Generator: Adobe Illustrator 22.1.0, SVG Export Plug-In . SVG Version: 6.00 Build 0)  -->
<svg version="1.1" id="Layer_1" xmlns="http://www.w3.org/2000/svg" xmlns:xlink="http://www.w3.org/1999/xlink" x="0px" y="0px"
	 viewBox="0 0 233 73" style="enable-background:new 0 0 233 73;" xml:space="preserve">
<style type="text/css">
	.st0{fill:#FFFFFF;}
	.st1{fill:#6F6F6F;}
	.st2{fill:#838383;}
	.st3{fill:#6E6D6E;}
	.st4{fill:#787878;}
	.st5{fill:#595959;}
	.st6{fill:#7A7A7A;}
	.st7{fill:#444444;}
	.st8{fill:#919090;}
	.st9{fill:#2E2E2E;}
	.st10{fill:#303030;}
	.st11{fill:#505050;}
	.st12{fill:#4A4A4A;}
	.st13{fill:#FDFEFF;}
	.st14{fill:#C6C5C5;}
	.st15{fill:#F3F3F3;}
</style>
<title>Asset 1</title>
<g id="Layer_2_1_">
	<g id="Layer_1-2">
		<g id="_Group_">
			<path id="_Compound_Path_" class="st0" d="M96.5,38.6c-0.3,1-1.3,1.7-2.4,1.6c-0.8-0.1-1.5-0.6-1.9-1.2c0-0.4-0.1-0.8-0.1-1.3
				c0-2.3,0-4.6,0-6.8c0.1-1.6-1.2-3-2.8-3.1c-0.3,0-0.7,0-1,0.1c-0.6,0.2-0.9,0.6-1.4,0.8c-1.6-0.8-3.4-1.1-5.2-0.8
				c-4.6,0.6-7.9,4.6-7.8,9.2c0.1,4.5,3.5,8.3,8,8.9c1.4,0.1,2.8,0,4.1-0.4c-0.2,0.6-0.6,1.1-1,1.6c-1,1.3-2.9,1.7-4.3,0.7
				c-0.6-0.4-1.3-0.8-2-1.2c-0.9-0.4-1.9-0.2-2.6,0.4c-0.7,0.6-1.1,1.6-0.9,2.5c0.2,0.7,0.5,1.4,1.1,1.9c4,3.4,10.1,2.8,13.4-1.2
				c0.1-0.1,0.2-0.2,0.2-0.3c0.9-1.3,1.6-2.7,1.9-4.3H92c1.7,0.4,3.4,0.3,5-0.2c0.2-0.1,0.5-0.1,0.7,0.1c1.2,0.7,2.7,0.5,3.7-0.4
				h0.3c2,0.9,4.2,1.2,6.3,0.7c1.9-0.1,3.6-1.2,4.5-2.9c0,0,0.1,0,0.2,0c0,0.1,0,0.3,0,0.4c0,1.5,1.3,2.6,2.7,2.6c0,0,0,0,0,0
				c1.5,0.1,2.7-1.1,2.9-2.5c0.1-0.4,0.1-0.8,0.1-1.2c0-2.1,0-4.2,0-6.4c-0.1-0.9,0.5-1.8,1.4-2c-0.3,1-0.5,2.1-0.5,3.2
				c0,3.7,2.3,7,5.7,8.4c3.4,1.4,7.4,0.5,9.9-2.2c0.3,0,0.4,0.2,0.6,0.4c2.6,2.5,6.5,3.2,9.8,1.8c1.1-0.5,2.1-1.2,3-1.9
				c0.3,0.7,0.9,1.4,1.6,1.7c0.8,0.5,1.8,0.7,2.7,0.8c2.4,0.4,4.9-0.8,5.9-3.1c1.1-2.3,0.5-5-1.4-6.7c-0.7-0.6-1.4-1.1-2.2-1.5
				c-0.5-0.3-1-0.6-1.4-0.9c-0.3-0.2-0.4-0.5-0.2-0.8c0,0,0.1-0.1,0.1-0.1c0.2-0.3,0.6-0.3,0.9-0.1c0,0,0,0,0.1,0.1
				c0.2,0.2,0.4,0.6,0.7,0.8c0.6,0.7,1.6,1,2.6,0.6c0.8-0.2,1.3-0.9,1.4-1.7c0.2-0.9,0.1-1.8-0.5-2.6c-2.3-3.3-8.1-3.3-9.8,0.6
				c-0.2,0-0.3-0.2-0.4-0.3c-2.1-2.1-5.1-3.1-8-2.6c-1.9,0.2-3.7,1.2-5,2.7l-0.3,0.1c-3-3.3-8-3.8-11.7-1.3c-0.3,0-0.4-0.3-0.6-0.5
				c-0.6-0.7-1.5-1.1-2.4-1.1c-0.8,0-1.6,0.1-2.3,0.4c-0.3,0.2-0.8,0.2-1.1-0.1c-1.3-0.8-3.1-0.3-3.9,1c-0.2,0.4-0.4,0.8-0.4,1.3
				c0,0.2,0.1,0.5-0.1,0.8c-2.6-3.3-7.2-4.3-11-2.5h-0.2c-1.1-1.1-3-1.1-4.1,0c-0.6,0.6-0.9,1.3-0.8,2.1c0,1.4,0,2.8,0,4.2
				L96.5,38.6z M102.2,22.1c0-1.6-1.3-2.8-2.8-2.8c-1.6,0-2.9,1.3-2.9,2.9c0,0,0,0,0,0c0,1.6,1.3,2.8,2.9,2.8
				C100.9,25,102.2,23.7,102.2,22.1C102.2,22.1,102.2,22.1,102.2,22.1z M92,22.1c0-1.6-1.3-2.8-2.9-2.8c-1.6,0-2.8,1.3-2.8,2.9
				c0,1.6,1.3,2.8,2.9,2.8c0,0,0,0,0,0C90.8,25,92.1,23.7,92,22.1L92,22.1z M98.8,52.9c0.4-0.1,0.6,0.1,0.7,0.5s0.4,0.3,0.6,0.2
				s0.1-0.3,0-0.5c-0.2-0.8-0.5-1.6-0.7-2.3c-0.1-0.3-0.4-0.5-0.7-0.4c-0.2,0.1-0.4,0.2-0.4,0.4c-0.2,0.8-0.5,1.5-0.8,2.3
				c-0.1,0.2-0.3,0.4,0.1,0.5s0.5,0,0.5-0.2S98.4,52.9,98.8,52.9z M142.5,51.7v-1.2c0-0.3-0.1-0.5-0.4-0.5c-0.3,0-0.3,0.3-0.3,0.5
				c0,0.5-0.1,0.6-0.6,0.7c-0.8,0.1-0.8,0.8-0.8,1.4c0,0.6,0.2,1,0.8,1c1.1,0,1.2-0.1,1.2-1.2V51.7z M121.5,51.9L121.5,51.9v-1.4
				c0-0.2-0.1-0.4-0.3-0.4c0,0-0.1,0-0.1,0c-0.3,0-0.2,0.3-0.2,0.4c0.1,0.5-0.1,0.6-0.7,0.7c-0.7,0.1-0.8,0.8-0.7,1.5s0.3,1,0.9,0.9
				c1.2,0,1.2-0.1,1.2-1.3V51.9z M118,52.7c0-1.4-0.3-1.8-1.4-1.5c-0.2,0-0.5,0-0.5,0.3s0.3,0.3,0.5,0.2s0.5-0.1,0.5,0.1
				s-0.3,0.2-0.5,0.2s-0.6,0.2-0.7,0.6c-0.1,0.3,0,0.6,0.2,0.8c0.5,0.4,1.1-0.1,1.6,0C118.2,53.6,117.9,53,118,52.7L118,52.7z
				 M152.7,52.4c0,0.2,0,0.5,0,0.7s0,0.5,0.4,0.5s0.4-0.2,0.4-0.5s0-0.6,0-1s0.1-0.3,0.3-0.3s0.2,0.2,0.2,0.3c0,0.3,0,0.7,0,1
				c0,0.2,0.1,0.4,0.3,0.4c0,0,0.1,0,0.1,0c0.3,0,0.3-0.2,0.3-0.4c0-0.3,0-0.7,0-1s0-0.8-0.4-0.9c-0.4-0.1-1,0.1-1.6,0
				c0,0.1-0.1,0.2-0.1,0.4C152.7,51.9,152.7,52.1,152.7,52.4L152.7,52.4z M158.4,53.1c-0.2,0-0.6,0.1-0.6-0.2c0-0.4,0.4-0.2,0.6-0.2
				c0.4,0,0.7-0.1,0.6-0.6c0-0.5-0.4-0.9-0.9-0.9c0,0,0,0-0.1,0c-0.4,0-0.8,0.2-0.9,0.6c-0.2,0.5-0.2,1.1,0.2,1.6
				c0.3,0.3,0.8,0.4,1.3,0.2c0.2,0,0.4-0.1,0.4-0.3S158.6,53,158.4,53.1L158.4,53.1z M114,53.1c-0.2,0-0.6,0.1-0.6-0.2
				c0-0.4,0.4-0.2,0.6-0.2c0.4,0,0.7-0.1,0.6-0.6c0-0.5-0.4-0.9-0.9-0.9c0,0-0.1,0-0.1,0c-0.4,0-0.8,0.2-0.9,0.6
				c-0.2,0.5-0.2,1.1,0.2,1.6c0.3,0.3,0.8,0.4,1.3,0.2c0.2,0,0.4-0.1,0.3-0.3S114.2,53,114,53.1L114,53.1z M138.4,53.1
				c-0.3,0-0.6,0.1-0.6-0.3s0.4-0.2,0.6-0.2c0.5,0,0.8-0.1,0.6-0.7c-0.1-0.5-0.6-0.9-1.2-0.8c-0.3,0.1-0.6,0.3-0.7,0.6
				c-0.2,0.5-0.1,1.1,0.2,1.5c0.3,0.3,0.8,0.4,1.2,0.2c0.2,0,0.4-0.1,0.4-0.3S138.6,53,138.4,53.1L138.4,53.1z M151.6,53.1
				c-0.2,0-0.6,0.1-0.6-0.3c0-0.4,0.4-0.2,0.6-0.2c0.5,0,0.7-0.2,0.6-0.7c-0.1-0.5-0.5-0.9-1-0.8c-0.4,0-0.7,0.2-0.9,0.6
				c-0.2,0.5-0.2,1.1,0.1,1.6c0.3,0.4,0.8,0.4,1.2,0.3c0.2,0,0.5-0.1,0.4-0.4S151.8,53,151.6,53.1L151.6,53.1z M110,53.1
				c-0.3,0-0.7,0.1-0.7-0.3c0-0.4,0.4-0.2,0.7-0.2c0.6,0,0.6-0.3,0.6-0.7c-0.1-0.4-0.4-0.7-0.8-0.7c-0.4-0.1-0.8,0.1-1,0.5
				c-0.3,0.5-0.2,1.1,0.1,1.6c0.3,0.5,0.8,0.4,1.3,0.3c0.2,0,0.4-0.1,0.3-0.3C110.4,52.9,110.2,53,110,53.1L110,53.1z M103.9,52.4
				c0,0.9,0.4,1.3,1.2,1.2c0.3,0,0.7,0,0.7-0.4s-0.4-0.1-0.6-0.1c-0.2,0-0.5,0-0.5-0.3s0.3-0.1,0.5-0.2c0.2-0.1,0.6,0.2,0.7-0.2
				c0.1-0.4,0-0.7-0.3-1c-0.3-0.3-0.8-0.3-1.1-0.1C104.1,51.5,103.9,51.9,103.9,52.4L103.9,52.4z M126.3,52.6h1c0.2,0,0.3,0,0.4-0.3
				c0-0.6-0.1-1-0.7-1.1c-0.4-0.2-0.9,0.1-1.1,0.5c-0.3,0.6-0.2,1.2,0.2,1.7c0.4,0.3,1,0.4,1.4,0.1c0.1,0,0.2-0.1,0.1-0.3
				s-0.2-0.2-0.3-0.1C126.8,53.1,126.5,53.2,126.3,52.6L126.3,52.6z M147.5,53.1c-0.3,0-0.7,0.1-0.7-0.3s0.4-0.2,0.7-0.1
				c0.6,0,0.6-0.2,0.6-0.7c0-0.4-0.4-0.8-0.8-0.8c-0.4-0.1-0.8,0.1-1,0.5c-0.3,0.5-0.2,1.1,0.1,1.6c0.3,0.5,0.9,0.4,1.3,0.2
				c0.1,0,0.4-0.1,0.3-0.3S147.7,53,147.5,53.1L147.5,53.1z M107.2,53c-0.2-0.6-0.3-1-0.4-1.4c0-0.2-0.2-0.4-0.5-0.3
				c0,0-0.1,0-0.1,0c-0.4,0.1-0.2,0.3-0.1,0.5l0.4,1.5c0.1,0.3,0.4,0.5,0.7,0.5c0.3,0,0.5-0.2,0.5-0.5c0.1-0.5,0.3-1,0.4-1.5
				c0-0.2,0.2-0.4-0.1-0.5c-0.4-0.1-0.4,0.1-0.5,0.4S107.4,52.3,107.2,53z M145.5,50.1c-0.4,0-1.5,1.3-1.3,1.5
				c0.6,0.4,0.4,0.9,0.4,1.4c0,0.3-0.2,0.7,0.4,0.7c0.6,0,0.2-0.5,0.3-0.7c0.1-0.4-0.4-1.1,0.5-1.3c0.2,0,0.1-0.3-0.2-0.4
				c-0.3,0-0.4,0-0.4-0.3c0-0.2,0.1-0.3,0.3-0.3c0,0,0,0,0,0c0.2,0,0.5,0,0.5-0.2S145.7,50.1,145.5,50.1z M124.3,52.7
				c-0.1-0.5-0.2-0.9-0.3-1.3c0-0.2-0.3-0.3-0.5-0.3c0,0,0,0,0,0c-0.3,0.1-0.2,0.3-0.2,0.4c0.2,0.5,0.3,1.1,0.5,1.6
				c0.1,0.3,0.3,0.4,0.6,0.4c0.2,0,0.5-0.1,0.5-0.4c0,0,0,0,0,0c0.1-0.5,0.3-1,0.4-1.5c0-0.2,0.3-0.5-0.1-0.6
				c-0.4-0.1-0.4,0.2-0.5,0.5C124.6,52,124.5,52.4,124.3,52.7z M156.2,53.6c0.2,0,0.4,0.1,0.5-0.2s-0.1-0.3-0.2-0.4
				c-0.4-0.3-0.4-0.8-0.1-1.2c0.1-0.1,0.1-0.1,0.2-0.2c0.3-0.2,0.3-0.3,0-0.5c-0.1-0.1-0.3,0-0.3-0.2s-0.1-0.6-0.4-0.4
				c-0.3,0.2-0.4,0.7-0.7,1c0.7,0.3,0.4,0.9,0.4,1.4C155.5,53.4,155.7,53.6,156.2,53.6z M101.3,53.6c0.2,0,0.4,0.1,0.5-0.2
				s-0.1-0.3-0.3-0.4c-0.3-0.3-0.4-0.9,0-1.2c0.1-0.1,0.1-0.1,0.2-0.1c0.3-0.2,0.3-0.3,0-0.5c-0.2,0-0.3,0-0.3-0.2s-0.2-0.6-0.4-0.4
				c-0.3,0.3-0.5,0.6-0.6,1c0.7,0.3,0.3,0.9,0.4,1.4C100.6,53.4,100.8,53.6,101.3,53.6z M111.8,53.6c0.2-0.1,0.4,0.1,0.5-0.2
				s-0.1-0.3-0.3-0.4c-0.3-0.4-0.3-1,0-1.3c0.4-0.2,0.6-0.4,0-0.5c-0.1,0-0.2-0.1-0.2-0.2c0,0,0,0,0,0c0-0.4-0.2-0.6-0.5-0.4
				c-0.2,0.2-0.7,0.9-0.6,1c0.6,0.4,0.3,0.9,0.3,1.4S111.3,53.6,111.8,53.6L111.8,53.6z M131,53.6c0.1,0,0.4,0.1,0.4-0.2
				s-0.1-0.2-0.2-0.4c-0.4-0.3-0.4-0.8-0.2-1.1c0.1-0.1,0.2-0.2,0.3-0.2c0.2-0.2,0.2-0.3,0-0.4c-0.2-0.1-0.4,0-0.4-0.3
				s-0.2-0.6-0.4-0.4s-0.7,0.9-0.6,1c0.6,0.4,0.3,0.9,0.3,1.4S130.5,53.6,131,53.6z M136.2,53.6c0.2,0,0.4,0.1,0.5-0.2
				s-0.1-0.3-0.3-0.4c-0.3-0.3-0.4-0.8-0.1-1.2c0.1-0.1,0.1-0.1,0.2-0.2c0.3-0.2,0.3-0.3,0-0.5c-0.1,0-0.3,0-0.3-0.2
				s-0.1-0.6-0.4-0.4c-0.3,0.3-0.5,0.6-0.6,1c0.7,0.3,0.3,0.9,0.4,1.4c0,0.3,0.2,0.6,0.5,0.6C136.1,53.6,136.2,53.6,136.2,53.6z
				 M102.6,53.6c0.5,0,0.3-0.3,0.4-0.5c0-0.5-0.3-1.2,0.6-1.3c0.1,0,0.2-0.3,0.1-0.4c-0.4-0.6-0.9,0.5-1.3-0.1
				c0-0.1-0.3,0.2-0.2,0.3c0.1,0.5,0.1,1.1,0.1,1.7C102.2,53.5,102.3,53.6,102.6,53.6L102.6,53.6z M128.6,53.6
				c0.3,0.1,0.3-0.2,0.3-0.4c0-0.5-0.3-1.3,0.6-1.4c0.1,0,0.2-0.3,0.1-0.4c-0.4-0.5-0.9,0.5-1.4-0.1c-0.1-0.1-0.3,0.2-0.2,0.3
				c0.1,0.5,0.1,1.1,0.1,1.7C128.2,53.4,128.2,53.6,128.6,53.6L128.6,53.6z M148.5,52.2c0,0.2,0,0.5,0,0.7c0.1,0.3-0.2,0.7,0.3,0.7
				c0.6,0,0.3-0.4,0.4-0.7c0-0.5-0.1-1,0.6-1.1c0.2,0,0.2-0.3,0.1-0.5s-0.3-0.2-0.4-0.1c-0.1,0.1-0.4,0.3-0.8,0
				c-0.3-0.2-0.4,0.1-0.4,0.3C148.5,51.9,148.5,52.1,148.5,52.2L148.5,52.2z M133.3,51.6c0.1,0.5,0.1,0.9,0.1,1.4
				c0,0.3-0.1,0.6,0.4,0.6c0.5,0,0.3-0.4,0.3-0.6c0.1-0.5-0.2-1.2,0.7-1.3c0.1,0,0.2-0.3,0.1-0.4c-0.4-0.6-0.9,0.5-1.3-0.1
				C133.5,51.1,133.3,51.3,133.3,51.6C133.3,51.5,133.3,51.6,133.3,51.6L133.3,51.6z M132.8,52.6c0-0.3,0-0.7-0.1-1
				c-0.1-0.4-0.5-0.4-0.8-0.3s-0.2,0.3,0,0.5c0.2,0.2,0,0.6,0.1,0.8c0.1,0.3-0.3,1,0.3,1S132.6,52.9,132.8,52.6L132.8,52.6z
				 M143.9,52.5L143.9,52.5c0-0.3,0-0.6-0.1-1s-0.4-0.4-0.7-0.4c-0.3,0-0.4,0.2-0.3,0.3c0.5,0.6,0.2,1.2,0.3,1.9
				c0,0.2,0.2,0.2,0.3,0.2s0.4,0,0.4-0.3S143.9,52.8,143.9,52.5L143.9,52.5z M123,52.6c0-0.3,0-0.7-0.1-1c-0.1-0.3-0.4-0.4-0.6-0.4
				c0,0-0.1,0-0.1,0.1c-0.3,0.2-0.1,0.4,0,0.6c0.1,0.2,0.1,0.5,0.1,0.8s-0.3,1,0.3,1C123.2,53.6,122.8,52.9,123,52.6L123,52.6z
				 M132.7,50.5c0-0.3-0.2-0.3-0.4-0.3c-0.2,0-0.3,0.1-0.3,0.3c0,0,0,0,0,0.1c0,0.3,0.2,0.3,0.4,0.3
				C132.6,50.9,132.7,50.8,132.7,50.5C132.7,50.6,132.7,50.5,132.7,50.5L132.7,50.5z M143.9,50.6c0-0.2-0.1-0.3-0.2-0.4
				c0,0-0.1,0-0.1,0c-0.2,0-0.4,0-0.5,0.3c0,0.2,0.1,0.3,0.2,0.4c0,0,0.1,0,0.1,0C143.6,50.9,143.8,50.9,143.9,50.6L143.9,50.6z
				 M122.9,50.5c0-0.3-0.2-0.3-0.5-0.3s-0.3,0.2-0.3,0.4c0,0.2,0.2,0.3,0.4,0.3S122.9,50.7,122.9,50.5L122.9,50.5z"/>
			<path id="_Path_" class="st1" d="M91.8,45.8c-0.3,1.5-1,3-1.9,4.3c-3.2,4.2-9.2,4.9-13.4,1.7c-0.1-0.1-0.2-0.2-0.3-0.2
				c-0.6-0.5-1-1.1-1.1-1.9c-0.2-0.9,0.1-1.9,0.9-2.5c0.7-0.6,1.7-0.8,2.6-0.4c0.7,0.4,1.4,0.7,2,1.2c1.4,0.9,3.3,0.6,4.3-0.7
				c0.4-0.5,0.8-1,1-1.6c-1.3,0.4-2.7,0.5-4.1,0.4c-4.5-0.6-7.9-4.4-8-8.9c-0.1-4.6,3.3-8.5,7.8-9.2c1.8-0.3,3.6,0,5.2,0.8
				c-0.4,0.8-0.5,1.8-0.5,2.7c0.1,1.3,0,2.6,0,3.9c0,0.2,0.1,0.5-0.2,0.8c-0.1-0.1-0.1-0.2-0.2-0.4c-0.6-1.6-2.2-2.5-3.8-2.2
				c-1.6,0.3-2.7,1.6-2.7,3.2c-0.2,1.7,1,3.2,2.6,3.5c1.8,0.4,3.2-0.4,4.1-2.5c0.3,0.5,0.1,1,0.2,1.5c0.1,1.7,0.7,3.3,1.9,4.5
				C89.2,44.7,90.5,45.4,91.8,45.8z"/>
			<path id="_Compound_Path_2" class="st2" d="M148.5,43.4c-0.9,0.8-1.9,1.4-3,1.9c-3.3,1.4-7.2,0.8-9.8-1.8
				c-0.2-0.1-0.3-0.4-0.6-0.4V43c0.9-0.5,1.6-1.3,1.7-2.4c0.5-2-0.7-3.8-2.8-3.6c-0.4,0-0.7,0-1.1,0c-0.1-0.4-0.1-0.9,0-1.3
				c0.9,0.3,1.9,0.2,2.6-0.3c1.2-1,1.4-2.8,0.4-4c0,0,0,0,0,0c-0.2-0.3-0.5-0.5-0.5-0.9c1.3-1.5,3.1-2.5,5-2.7
				c2.9-0.5,5.9,0.5,8,2.6c0.1,0.1,0.2,0.2,0.4,0.3V31c-1.2,2.5-0.3,5.6,2.1,7.1c0,0,0,0.1,0,0.1l-0.1,1c-0.9-0.2-1.9,0.2-2.4,1
				c-0.5,0.9-0.5,2.1,0.2,3L148.5,43.4z M141.9,40.2c1.8,0,3.3-1.5,3.3-3.3c0,0,0,0,0,0c0-1.8-1.5-3.3-3.3-3.3
				c-1.8,0-3.3,1.5-3.3,3.3c0,0,0,0,0,0c-0.1,1.8,1.3,3.3,3.1,3.3C141.8,40.2,141.8,40.2,141.9,40.2z"/>
			<path id="_Path_2" class="st3" d="M135.1,43v0.1c-2.5,2.7-6.5,3.6-9.9,2.2c-3.4-1.4-5.7-4.7-5.7-8.4c0-1.1,0.2-2.2,0.5-3.2v-0.2
				c2.7,0,3.9-1.5,3.5-4v-0.2c3.7-2.5,8.6-1.9,11.7,1.3c-1.2,1.5-2,3.2-2.2,5.1c-0.7-0.3-1.3-0.8-1.9-1.3c-1-0.9-2.5-1.1-3.8-0.5
				c-1.2,0.6-2,1.9-1.8,3.2c0,1.3,0.9,2.5,2.1,2.9c1.3,0.5,2.7,0.1,3.5-0.9c0.5-0.7,1.1-1.3,1.8-1.9C132.8,39.4,133.7,41.5,135.1,43
				z"/>
			<path id="_Compound_Path_3" class="st4" d="M101.6,28.7c3.8-1.9,8.4-0.8,11,2.5c0,0.1,0,0.3,0.1,0.4v7.2c-3.4,0.3-6.7,0-10.1,0.2
				c0.5,1.2,1.6,2,2.9,2c1.2,0.1,2.4-0.2,3.5-0.8c1.1-0.7,2.6-0.4,3.4,0.7c0.3,0.6,0,1.3,0.3,1.9v0.2c-0.1,0-0.2,0-0.2,0
				c-0.9,1.7-2.6,2.8-4.5,2.9c-2.1,0.5-4.4,0.3-6.3-0.7c0.4-1.3,0.6-2.7,0.5-4.1c0-3,0-6,0-9.1C102.3,30.8,102.1,29.7,101.6,28.7z
				 M105.5,35c0.8,0,1.6,0,2.4,0c0.2,0,0.5,0.1,0.6-0.1c0.1-0.3-0.1-0.4-0.3-0.6c-1.2-1.5-4.4-1.4-5.6,0.3c-0.2,0.4-0.2,0.5,0.3,0.5
				L105.5,35z"/>
			<path id="_Path_3" class="st5" d="M150.9,38.3c0,0,0-0.1,0-0.1c0.1-0.8,0.1-1.6,0-2.4c-0.1-1.8-0.9-3.4-2.1-4.8v-0.3
				c1.7-3.9,7.5-3.9,9.8-0.6c0.5,0.7,0.7,1.7,0.5,2.6c-0.1,0.8-0.6,1.4-1.4,1.7c-0.9,0.3-1.9,0.1-2.6-0.6c-0.2-0.2-0.4-0.6-0.7-0.8
				c-0.2-0.3-0.6-0.3-0.9-0.1c0,0,0,0-0.1,0.1c-0.2,0.2-0.2,0.6,0,0.8c0,0,0.1,0.1,0.1,0.1c0.5,0.3,0.9,0.6,1.4,0.9
				c0.8,0.4,1.5,0.9,2.2,1.5c1.9,1.7,2.4,4.4,1.4,6.7c-1,2.3-3.5,3.5-5.9,3.1c-1-0.1-1.9-0.4-2.7-0.8c-0.7-0.4-1.3-1-1.6-1.7v-0.2
				c1.1-1.1,1.8-2.5,2.2-4c0.8,0.3,1.5,0.8,2.1,1.4c0.4,0.3,0.9,0.5,1.2,0c0.3-0.5-0.1-1-0.6-1.1C152.6,39.2,151.8,38.6,150.9,38.3z
				"/>
			<path id="_Path_4" class="st6" d="M112.7,38.8v-0.2c0.8-0.1,1.4-0.8,1.5-1.5c0.4-2-0.2-4-1.5-5.5c-0.1-0.1-0.2-0.2-0.1-0.4
				c0.2-0.2,0.1-0.5,0.1-0.8c0.1-1.6,1.4-2.8,3-2.7c0.4,0,0.9,0.2,1.3,0.4c0.3,0.2,0.7,0.2,1.1,0.1c0.7-0.3,1.5-0.4,2.3-0.4
				c0.9-0.1,1.9,0.3,2.5,1.1c0.2,0.2,0.2,0.5,0.6,0.5v0.2c-0.5,0-0.8,0.4-1.1,0.7c-1,1-1.8,2.1-2.4,3.4v0.2c-0.9,0.2-1.5,1.1-1.4,2
				c0,2.1,0,4.2,0,6.4c0,0.4,0,0.8-0.1,1.2c-0.1,1.5-1.4,2.6-2.8,2.5c-1.5,0.1-2.7-1.1-2.8-2.6c0,0,0,0,0,0c0-0.1,0-0.3,0-0.4v-0.2
				v-1.9L112.7,38.8z"/>
			<path id="_Path_5" class="st7" d="M91.8,45.8c-1.4-0.3-2.6-1-3.6-2c-1.1-1.2-1.8-2.8-1.8-4.5c0-0.5,0.2-1-0.2-1.5V36
				c0.2-0.2,0.2-0.5,0.2-0.8c0-1.3,0.1-2.6,0-3.9c0-0.9,0.1-1.8,0.5-2.7c0.5-0.2,0.9-0.6,1.4-0.8c1.6-0.5,3.2,0.4,3.7,1.9
				c0.1,0.3,0.1,0.7,0.1,1c0,2.3,0,4.6,0,6.8c0,0.4,0,0.8,0.1,1.3c-0.1,2.3,0.1,4.5-0.2,6.8L91.8,45.8z"/>
			<path id="_Path_6" class="st8" d="M101.6,28.7c0.5,1,0.8,2.1,0.6,3.3c0,3,0,6,0,9.1c0.1,1.4-0.1,2.8-0.5,4.1h-0.3
				c-1.6-0.9-3-2.2-3.9-3.9c-0.5-0.9-0.6-1.8-1.1-2.7V35c0,0,0.1-0.1,0.1-0.1c0.6-2.7,2.4-5,4.8-6.3L101.6,28.7z"/>
			<path id="_Path_7" class="st9" d="M96.5,38.6c0.4,0.9,0.6,1.9,1.1,2.7c0.9,1.6,2.3,3,3.9,3.8c-1,1-2.5,1.1-3.7,0.4
				c-0.2-0.1-0.5-0.2-0.7,0c-1.6,0.6-3.3,0.7-5,0.2c0.3-2.3,0.1-4.5,0.2-6.8c0.4,0.7,1.1,1.2,1.9,1.2C95.2,40.2,96.1,39.6,96.5,38.6
				z"/>
			<path id="_Path_8" class="st10" d="M102.2,22.1c0,1.6-1.3,2.9-2.8,2.9c0,0,0,0,0,0c-1.6,0-2.8-1.3-2.9-2.8c0-1.6,1.3-2.9,2.9-2.9
				c0,0,0,0,0,0C100.9,19.3,102.2,20.5,102.2,22.1z"/>
			<path id="_Path_9" class="st7" d="M92,22.1c0,1.6-1.3,2.9-2.8,2.9c-1.6,0-2.9-1.3-2.9-2.8c0-1.6,1.3-2.9,2.8-2.9c0,0,0,0,0,0
				C90.7,19.3,92,20.5,92,22.1z"/>
			<path id="_Path_10" class="st10" d="M101.4,28.7c-2.5,1.3-4.2,3.6-4.8,6.3c0,0-0.1,0.1-0.1,0.1c0-1.4,0-2.8,0-4.2
				c-0.1-1.6,1.2-2.9,2.8-3C100.1,27.8,100.8,28.1,101.4,28.7z"/>
			<path id="_Path_11" class="st7" d="M132.8,35.7c0.3-1.9,1.1-3.6,2.3-5.1l0.3-0.1c0,0.4,0.3,0.6,0.5,0.9c1,1.2,0.9,3-0.3,4
				c0,0,0,0,0,0C134.7,36,133.7,36.1,132.8,35.7C132.8,35.8,132.8,35.8,132.8,35.7z"/>
			<path id="_Compound_Path_4" class="st11" d="M98.8,52.9c-0.4,0-0.6,0-0.7,0.4c-0.1,0.4-0.3,0.3-0.5,0.2c-0.2-0.1-0.1-0.3-0.1-0.5
				c0.2-0.8,0.5-1.6,0.8-2.3c0.1-0.3,0.4-0.5,0.7-0.4c0.2,0.1,0.4,0.2,0.4,0.4c0.2,0.8,0.5,1.6,0.7,2.3c0.1,0.2,0.2,0.4,0,0.5
				s-0.5,0.1-0.6-0.2C99.4,53.1,99.1,52.8,98.8,52.9z M98.8,51.2c-0.2,0.3-0.3,0.6-0.3,1c0.1,0.1,0.3,0.1,0.4,0
				C99.2,51.9,98.8,51.6,98.8,51.2z"/>
			<path id="_Compound_Path_5" class="st11" d="M142.5,51.7v0.6c0,1.1-0.1,1.3-1.2,1.2c-0.6,0-0.8-0.5-0.8-1c0-0.5,0-1.3,0.8-1.4
				c0.6-0.1,0.7-0.2,0.6-0.7c0-0.2-0.1-0.5,0.3-0.5s0.4,0.2,0.4,0.5V51.7z M141.8,52.3c0-0.2,0.1-0.6-0.3-0.6
				c-0.4,0-0.4,0.4-0.4,0.7s0,0.7,0.4,0.6C141.9,53,141.8,52.6,141.8,52.3L141.8,52.3z"/>
			<path id="_Compound_Path_6" class="st12" d="M121.5,51.9v0.4c0,1.2,0,1.2-1.2,1.3c-0.6,0-0.8-0.4-0.9-0.9s0-1.3,0.7-1.5
				c0.5-0.1,0.8-0.2,0.7-0.7c0-0.2-0.1-0.4,0.2-0.4c0.2,0,0.4,0.1,0.4,0.3c0,0,0,0.1,0,0.1C121.5,50.5,121.5,51.9,121.5,51.9z
				 M120.9,52.3c0-0.2,0.1-0.7-0.3-0.6s-0.4,0.4-0.4,0.7s0,0.7,0.4,0.6C120.9,53,120.8,52.6,120.9,52.3z"/>
			<path id="_Path_12" class="st11" d="M118,52.7c-0.1,0.3,0.2,0.8-0.1,0.8c-0.6-0.1-1.1,0.4-1.6,0c-0.2-0.2-0.3-0.5-0.2-0.8
				c0.1-0.4,0.4-0.5,0.7-0.6s0.5,0.1,0.5-0.2s-0.3-0.2-0.5-0.1s-0.5,0.1-0.5-0.2s0.3-0.3,0.5-0.3C117.7,51,118,51.3,118,52.7z"/>
			<path id="_Path_13" class="st11" d="M152.7,52.4c0-0.3,0-0.5,0-0.8c0-0.1,0-0.2,0.1-0.4c0.5,0.2,1.1-0.1,1.6,0s0.4,0.5,0.4,0.9
				s0,0.7,0,1s0,0.4-0.3,0.4c-0.2,0-0.4-0.1-0.4-0.3c0-0.3,0-0.7,0-1c0-0.2,0-0.3-0.2-0.3c-0.2,0-0.3,0.1-0.3,0.3s0,0.6,0,1
				s0,0.5-0.4,0.5c-0.4,0-0.4-0.2-0.4-0.5S152.7,52.6,152.7,52.4z"/>
			<path id="_Path_14" class="st12" d="M158.4,53.1c0.2-0.1,0.4-0.1,0.5,0.1s-0.2,0.3-0.3,0.3c-0.4,0.2-0.9,0.1-1.3-0.2
				c-0.3-0.5-0.4-1.1-0.2-1.6c0.1-0.4,0.5-0.6,0.9-0.6c0.5,0,1,0.3,1,0.8c0,0,0,0,0,0.1c0.1,0.5-0.2,0.6-0.6,0.6
				c-0.2,0-0.6-0.2-0.6,0.2S158.2,53.1,158.4,53.1z"/>
			<path id="_Path_15" class="st12" d="M114,53.1c0.2-0.1,0.4-0.1,0.5,0.1s-0.2,0.3-0.3,0.3c-0.4,0.2-0.9,0.1-1.3-0.2
				c-0.4-0.5-0.4-1.1-0.2-1.6c0.1-0.4,0.5-0.6,0.9-0.6c0.5,0,1,0.3,1,0.8c0,0,0,0.1,0,0.1c0.1,0.5-0.2,0.6-0.6,0.6
				c-0.2,0-0.6-0.2-0.6,0.2C113.4,53.3,113.8,53,114,53.1z"/>
			<path id="_Path_16" class="st12" d="M138.4,53.1c0.2,0,0.4-0.2,0.5,0.2c0,0.3-0.2,0.3-0.4,0.3c-0.4,0.2-0.9,0.1-1.2-0.2
				c-0.3-0.4-0.4-1-0.2-1.5c0.2-0.5,0.8-0.8,1.3-0.6c0.3,0.1,0.5,0.4,0.6,0.7c0.1,0.5-0.1,0.7-0.6,0.7c-0.2,0-0.6-0.2-0.6,0.2
				S138.2,53.1,138.4,53.1z"/>
			<path id="_Path_17" class="st12" d="M151.6,53.1c0.2,0,0.4-0.2,0.5,0.1c0.1,0.3-0.2,0.3-0.4,0.4c-0.4,0.1-0.9,0.2-1.2-0.3
				c-0.3-0.5-0.4-1.1-0.1-1.6c0.1-0.4,0.5-0.6,0.9-0.6c0.5-0.1,0.9,0.3,1,0.8c0.1,0.5,0,0.7-0.6,0.7c-0.2,0-0.6-0.2-0.6,0.2
				C151,53.2,151.4,53.1,151.6,53.1z"/>
			<path id="_Path_18" class="st12" d="M110,53.1c0.2-0.1,0.4-0.1,0.4,0.2s-0.2,0.3-0.3,0.3c-0.5,0.1-1,0.2-1.3-0.3
				c-0.3-0.5-0.4-1.1-0.1-1.7c0.2-0.4,0.6-0.6,1-0.5c0.4,0,0.8,0.3,0.8,0.7c0.1,0.4,0.1,0.8-0.6,0.7c-0.2,0-0.6-0.2-0.7,0.2
				S109.7,53.1,110,53.1z"/>
			<path id="_Path_19" class="st12" d="M103.9,52.4c-0.1-0.4,0.2-0.9,0.6-1.1c0.4-0.2,0.8-0.1,1.1,0.1c0.3,0.3,0.4,0.6,0.3,1
				c-0.1,0.4-0.5,0.2-0.7,0.2s-0.5-0.1-0.5,0.2s0.3,0.3,0.5,0.3c0.2,0,0.6-0.3,0.6,0.1s-0.4,0.3-0.7,0.4
				C104.3,53.7,103.9,53.3,103.9,52.4z"/>
			<path id="_Path_20" class="st12" d="M126.3,52.6c0.2,0.6,0.6,0.5,0.9,0.4c0.2,0,0.2,0,0.3,0.1s0,0.2-0.1,0.3
				c-0.4,0.3-1,0.2-1.4-0.1c-0.4-0.5-0.5-1.2-0.2-1.7c0.2-0.4,0.7-0.7,1.1-0.5c0.6,0.1,0.8,0.6,0.7,1.1c0,0.2-0.2,0.3-0.4,0.3
				L126.3,52.6z"/>
			<path id="_Path_21" class="st12" d="M147.5,53.1c0.2-0.1,0.4-0.1,0.4,0.1c0.1,0.3-0.2,0.3-0.3,0.3c-0.5,0.1-1,0.2-1.3-0.2
				c-0.3-0.5-0.4-1.1-0.1-1.7c0.2-0.4,0.6-0.6,1-0.5c0.4,0,0.8,0.4,0.8,0.8c0.1,0.4,0,0.7-0.6,0.7c-0.2,0-0.6-0.2-0.7,0.1
				S147.2,53.1,147.5,53.1z"/>
			<path id="_Path_22" class="st11" d="M107.2,53c0.2-0.6,0.3-1,0.4-1.4c0.1-0.4,0.2-0.5,0.5-0.4c0.3,0.1,0.2,0.3,0.1,0.5
				c-0.1,0.5-0.3,1-0.4,1.5c-0.1,0.3-0.2,0.5-0.5,0.5c-0.3,0-0.6-0.2-0.7-0.5l-0.4-1.5c0-0.2-0.2-0.4,0.1-0.5c0.2-0.1,0.4,0,0.5,0.2
				c0,0,0,0.1,0,0.1C106.9,51.9,107,52.3,107.2,53z"/>
			<path id="_Path_23" class="st11" d="M145.5,50.1c0.2,0.1,0.5,0,0.5,0.3s-0.3,0.2-0.5,0.2c-0.2,0-0.3,0.1-0.3,0.3c0,0,0,0,0,0
				c0,0.3,0.2,0.3,0.4,0.3c0.2,0,0.4,0.3,0.2,0.4c-0.9,0.2-0.4,0.8-0.5,1.3c-0.1,0.2,0.2,0.7-0.3,0.7c-0.5,0-0.3-0.4-0.4-0.7
				c-0.1-0.5,0.2-1-0.4-1.4C144,51.3,145,50,145.5,50.1z"/>
			<path id="_Path_24" class="st12" d="M124.3,52.7c0.2-0.3,0.3-0.7,0.4-1.1c0-0.3,0.1-0.6,0.5-0.5c0.4,0.1,0.2,0.4,0.1,0.6
				c-0.1,0.5-0.3,1-0.4,1.5c0,0.2-0.2,0.4-0.5,0.4c0,0,0,0,0,0c-0.3,0-0.5,0-0.6-0.4c-0.2-0.5-0.3-1.1-0.5-1.6
				c0-0.2-0.1-0.4,0.2-0.4c0.2-0.1,0.4,0,0.5,0.2c0,0,0,0,0,0C124.1,51.9,124.2,52.3,124.3,52.7z"/>
			<path id="_Path_25" class="st11" d="M156.2,53.6c-0.5,0-0.7-0.2-0.7-0.6s0.3-1.1-0.4-1.4c0.2-0.3,0.3-0.8,0.7-1
				c0.3-0.2,0.4,0.1,0.4,0.4c0,0.3,0.2,0.2,0.3,0.2c0.3,0.1,0.4,0.3,0,0.5c-0.4,0.2-0.5,0.8-0.3,1.2c0,0.1,0.1,0.1,0.2,0.2
				c0.2,0.1,0.3,0.2,0.2,0.4C156.5,53.6,156.3,53.5,156.2,53.6z"/>
			<path id="_Path_26" class="st11" d="M101.3,53.6c-0.5,0-0.7-0.1-0.7-0.6s0.3-1.1-0.4-1.4c0.2-0.4,0.4-0.7,0.6-1
				c0.3-0.2,0.4,0.1,0.4,0.4c0,0.3,0.2,0.2,0.3,0.2c0.4,0.1,0.4,0.3,0,0.5c-0.4,0.3-0.5,0.8-0.3,1.2c0,0.1,0.1,0.1,0.1,0.2
				c0.2,0.1,0.3,0.2,0.3,0.4S101.4,53.5,101.3,53.6z"/>
			<path id="_Path_27" class="st11" d="M111.8,53.6c-0.5,0-0.7-0.2-0.7-0.7s0.2-1-0.3-1.4c-0.2-0.1,0.3-0.7,0.6-1
				c0.3-0.3,0.5,0,0.5,0.4c0,0.1,0.1,0.2,0.2,0.3c0,0,0,0,0,0c0.6,0.1,0.4,0.3,0,0.5c-0.3,0.4-0.3,1,0,1.3c0.2,0.1,0.3,0.1,0.3,0.4
				S111.9,53.5,111.8,53.6z"/>
			<path id="_Path_28" class="st11" d="M131,53.6c-0.5,0-0.7-0.2-0.8-0.7c0-0.5,0.2-1-0.3-1.4c-0.1-0.1,0.3-0.7,0.6-1
				c0.3-0.3,0.5,0,0.5,0.4c0,0.4,0.2,0.2,0.4,0.3c0.2,0.1,0.3,0.3,0,0.4c-0.4,0.2-0.5,0.7-0.3,1.1c0.1,0.1,0.1,0.2,0.2,0.3
				c0.2,0.1,0.2,0.2,0.2,0.4C131.4,53.6,131.1,53.5,131,53.6z"/>
			<path id="_Path_29" class="st11" d="M136.2,53.6c-0.3,0.1-0.6-0.1-0.7-0.4c0-0.1,0-0.1,0-0.2c0-0.5,0.3-1.1-0.4-1.4
				c0.2-0.4,0.4-0.7,0.6-1c0.3-0.2,0.4,0.1,0.4,0.4s0.2,0.2,0.3,0.2c0.3,0.1,0.4,0.3,0,0.5c-0.4,0.2-0.5,0.8-0.3,1.2
				c0,0.1,0.1,0.1,0.2,0.2c0.2,0.1,0.3,0.2,0.3,0.4C136.6,53.6,136.4,53.5,136.2,53.6z"/>
			<path id="_Path_30" class="st12" d="M102.6,53.6c-0.3,0-0.3-0.1-0.3-0.4c0-0.6,0-1.1-0.1-1.7c0-0.2,0.2-0.4,0.2-0.3
				c0.4,0.6,1-0.4,1.3,0.2c0.1,0.1,0,0.4-0.1,0.4c-0.9,0.1-0.6,0.8-0.6,1.3C102.9,53.3,103,53.6,102.6,53.6z"/>
			<path id="_Path_31" class="st12" d="M128.5,53.6c-0.3,0-0.4-0.2-0.4-0.4c0-0.6,0-1.1-0.1-1.7c0-0.2,0.2-0.4,0.2-0.3
				c0.4,0.6,1-0.4,1.4,0.1c0.1,0.1,0,0.4-0.1,0.4c-1,0.2-0.6,0.9-0.6,1.4C128.8,53.4,128.9,53.7,128.5,53.6z"/>
			<path id="_Path_32" class="st12" d="M148.5,52.2c0,0,0-0.3-0.1-0.6c-0.1-0.3,0.1-0.5,0.4-0.3c0.3,0.2,0.5,0.1,0.8-0.1
				c0.3-0.1,0.4-0.1,0.4,0.1c0.1,0.2,0,0.5-0.1,0.5c-0.8,0.1-0.6,0.6-0.6,1.1c0,0.3,0.2,0.7-0.4,0.7s-0.3-0.5-0.3-0.7
				C148.5,52.6,148.5,52.4,148.5,52.2z"/>
			<path id="_Path_33" class="st12" d="M133.3,51.6C133.3,51.6,133.3,51.5,133.3,51.6c0-0.2,0.2-0.5,0.3-0.4c0.4,0.6,1-0.4,1.3,0.1
				c0.1,0.1,0,0.4-0.1,0.4c-0.9,0.1-0.6,0.8-0.7,1.3c0,0.2,0.2,0.6-0.3,0.6c-0.5,0-0.4-0.3-0.4-0.6
				C133.5,52.5,133.4,52.1,133.3,51.6z"/>
			<path id="_Path_34" class="st12" d="M132.8,52.6c-0.2,0.3,0.3,1-0.4,1s-0.2-0.6-0.4-1c-0.1-0.4,0.1-0.6-0.1-0.8
				c-0.2-0.2-0.3-0.4,0-0.5c0.3-0.1,0.7-0.1,0.8,0.3C132.8,51.9,132.8,52.2,132.8,52.6z"/>
			<path id="_Path_35" class="st12" d="M143.9,52.5c0,0.3,0,0.5,0,0.8s-0.2,0.3-0.4,0.3c-0.2,0-0.3,0-0.3-0.2
				c-0.1-0.6,0.2-1.3-0.3-1.9c-0.1-0.1,0.1-0.3,0.3-0.3c0.2,0,0.6,0,0.7,0.4C144,51.9,143.9,52.2,143.9,52.5L143.9,52.5z"/>
			<path id="_Path_36" class="st7" d="M123,52.6c-0.2,0.3,0.3,1-0.4,1s-0.2-0.7-0.3-1c-0.1-0.3,0.1-0.5-0.1-0.8s-0.3-0.4,0-0.6
				c0.2-0.1,0.6-0.1,0.7,0.2c0,0,0,0.1,0.1,0.1C123,51.9,123,52.2,123,52.6z"/>
			<path id="_Path_37" class="st11" d="M132.7,50.5c0,0.2-0.1,0.3-0.3,0.3c0,0,0,0-0.1,0c-0.2,0-0.4,0-0.4-0.3
				c0-0.2,0.1-0.3,0.3-0.3c0,0,0,0,0.1,0C132.5,50.2,132.7,50.3,132.7,50.5z"/>
			<path id="_Path_38" class="st11" d="M143.9,50.6c0,0.3-0.2,0.3-0.4,0.3c-0.2,0-0.3-0.1-0.3-0.3c0,0,0-0.1,0-0.1
				c0-0.3,0.2-0.3,0.5-0.3C143.7,50.2,143.9,50.3,143.9,50.6C143.9,50.5,143.9,50.5,143.9,50.6z"/>
			<path id="_Path_39" class="st11" d="M122.9,50.5c0,0.2-0.1,0.4-0.3,0.4s-0.4,0-0.5-0.3c0-0.3,0.1-0.4,0.3-0.4
				S122.8,50.3,122.9,50.5z"/>
			<path id="_Path_40" class="st13" d="M86.3,36v1.8c-0.9,2-2.2,2.8-4.1,2.4c-1.6-0.3-2.8-1.8-2.6-3.5c0-1.6,1.2-3,2.7-3.2
				c1.6-0.3,3.2,0.6,3.8,2.2C86.1,35.8,86.2,35.9,86.3,36z"/>
			<path id="_Path_41" class="st13" d="M132.8,35.7c0,0,0,0.1,0,0.1c-0.1,0.4-0.1,0.9,0,1.3c0,0,0,0.1,0,0.1
				c-0.7,0.5-1.3,1.2-1.8,1.9c-0.8,1.1-2.3,1.4-3.5,0.9c-1.2-0.4-2.1-1.6-2.1-2.9c-0.2-1.4,0.6-2.7,1.8-3.2c1.3-0.6,2.8-0.4,3.8,0.5
				C131.5,35,132.1,35.4,132.8,35.7z"/>
			<path id="_Path_42" class="st13" d="M141.9,40.2c-1.8,0-3.3-1.4-3.3-3.1c0-0.1,0-0.1,0-0.2c0-1.8,1.5-3.3,3.3-3.3c0,0,0,0,0,0
				c1.8,0.1,3.3,1.5,3.3,3.3C145.3,38.7,143.8,40.2,141.9,40.2C141.9,40.2,141.9,40.2,141.9,40.2z"/>
			<path id="_Path_43" class="st7" d="M132.8,37.3c0,0,0-0.1,0-0.1c0.4,0,0.7,0,1.1,0c2.1-0.2,3.2,1.5,2.8,3.6
				c-0.2,1-0.8,1.9-1.7,2.3C133.6,41.4,132.8,39.4,132.8,37.3z"/>
			<path id="_Path_44" class="st14" d="M148.8,31c1.2,1.3,1.9,3,2.1,4.7c0.1,0.8,0.1,1.6,0,2.4C148.5,36.6,147.6,33.6,148.8,31z"/>
			<path id="_Path_45" class="st14" d="M150.7,39.3c-0.4,1.5-1.2,2.9-2.2,4c-0.6-0.9-0.7-2.1-0.2-3
				C148.9,39.5,149.8,39.1,150.7,39.3L150.7,39.3z"/>
			<path id="_Path_46" class="st15" d="M150.7,39.3L150.7,39.3c0-0.3,0.1-0.7,0.1-1c0.9,0.4,1.7,0.9,2.6,1.3
				c0.5,0.2,0.9,0.6,0.6,1.1c-0.3,0.5-0.8,0.3-1.2,0C152.2,40.1,151.5,39.6,150.7,39.3z"/>
			<path id="_Path_47" class="st9" d="M119.9,33.6c0.6-1.3,1.4-2.4,2.4-3.3c0.3-0.3,0.6-0.7,1.1-0.7
				C123.9,32.1,122.6,33.6,119.9,33.6z"/>
			<path id="_Path_48" class="st13" d="M112.7,38.8c0,0.7,0,1.3,0,2h-0.3c-0.8-1.1-2.3-1.4-3.4-0.7c-1.1,0.6-2.3,0.9-3.5,0.8
				c-1.3,0-2.4-0.8-2.9-2C106,38.8,109.4,39.1,112.7,38.8z"/>
			<path id="_Path_49" class="st15" d="M105.5,35H103c-0.4,0-0.5-0.1-0.3-0.5c1.1-1.6,4.3-1.8,5.6-0.3c0.2,0.2,0.4,0.4,0.3,0.6
				s-0.4,0.1-0.7,0.1C107.1,35,106.3,35,105.5,35z"/>
			<path id="_Path_50" class="st8" d="M112.7,31.5c1.3,1.5,1.9,3.5,1.5,5.5c-0.1,0.8-0.7,1.4-1.5,1.5V31.5z"/>
			<path id="_Path_51" class="st14" d="M112.4,40.8h0.3v1.9C112.4,42.1,112.8,41.4,112.4,40.8z"/>
			<path id="_Path_52" class="st15" d="M98.8,51.2c0,0.4,0.4,0.7,0.1,1.1c-0.1,0.1-0.3,0.1-0.4,0C98.5,51.9,98.6,51.5,98.8,51.2z"/>
			<path id="_Path_53" class="st15" d="M141.8,52.3c0,0.3,0.1,0.7-0.3,0.7s-0.4-0.4-0.4-0.6s0-0.7,0.4-0.7
				C141.9,51.7,141.8,52.1,141.8,52.3z"/>
			<path id="_Path_54" class="st15" d="M120.9,52.3c0,0.3,0.1,0.7-0.3,0.7s-0.4-0.4-0.4-0.6c0-0.3,0-0.7,0.4-0.7
				S120.8,52.1,120.9,52.3z"/>
		</g>
	</g>
</g>
</svg>
