<?xml version="1.0" encoding="utf-8"?>
<!-- Generator: Adobe Illustrator 22.1.0, SVG Export Plug-In . SVG Version: 6.00 Build 0)  -->
<svg version="1.1" id="Layer_1" xmlns="http://www.w3.org/2000/svg" xmlns:xlink="http://www.w3.org/1999/xlink" x="0px" y="0px"
	 viewBox="0 0 233 73" style="enable-background:new 0 0 233 73;" xml:space="preserve">
<style type="text/css">
	.st0{fill:#3D3D3D;}
</style>
<title>Asset 32</title>
<g id="Layer_2_1_">
	<g id="Layer_1-2">
		<g id="_Group_">
			<path id="_Path_" class="st0" d="M129.9,43.2c-0.8-3.6-1.9-7-3.3-10.4c-1.2-2.7-2.5-5.3-4.2-7.8c-0.1-0.2-0.2-0.4-0.4-0.7
				l1.4-0.1c0.3,0,0.7,0.1,1,0.1c4.2,0.7,8.3,2.1,12,4.3c2,1.1,4,2.4,5.9,3.8c0,0.6,0,1.2,0,1.8s0.2,0.8,0.8,0.8
				c0.5-0.1,1-0.1,1.5,0.1c-0.3,0.2-0.6,0.1-0.9,0.1c-0.5,0.1-1.1,0.1-1.3,0.6c-0.1,0.4-0.3,0.7-0.5,1c-0.9,0.2-1.7,0.5-2.5,0.8
				c-2.2,0.9-4.1,2.4-5.4,4.3c-0.7,0.4-1.1,1.1-1.1,1.9l0,0c-0.1,0.1-0.1,0.2-0.1,0.3l-0.8,2.2c-0.3,0.3-0.5,0.7-0.5,1.1
				c0,0.4-0.2,0.8-0.6,1v-0.3c-0.1-0.6,0.3-1.3-0.2-1.8V46C130.6,45,130.4,44.1,129.9,43.2z"/>
			<path id="_Compound_Path_" class="st0" d="M141.8,36.8c0.2-0.3,0.4-0.6,0.5-1c0.1-0.5,0.8-0.5,1.3-0.6c0.2-0.1,0.6,0.1,0.9-0.1
				c-0.5-0.2-1-0.2-1.5-0.1c-0.6,0-0.8-0.2-0.8-0.8s0-1.2,0-1.8c0.3,0.1,0.5,0.3,0.8,0.5l4.9,3.3c0.2,0.2,0.5,0.4,0.9,0.4
				c1.4,0.2,2.8,0.1,4.1-0.3c1.9-0.7,3.1-2.6,2.8-4.7l0.5-0.1c1.7,3.1,3.8,6,6.2,8.6c1.2,1.3,2.4,2.6,3.8,3.9
				c0.1,0.1,0.3,0.2,0.5,0.3l1,1c0.5,0.6,1.3,1,1.7,1.6c0,0.1,0.1,0.1,0.1,0.1l0,0c-0.2,0.6-0.6,0-0.9,0.2c-0.4-0.1-0.7-0.4-1.1-0.4
				h-0.1c-0.7-0.3-1.5-0.6-2.2-0.8l0,0c-0.9-0.5-1.8-0.9-2.7-1.2l0,0c-0.3-0.3-0.7-0.5-1.1-0.6l0,0c-0.2-0.2-0.3-0.2-0.6-0.3
				c0,0,0,0,0-0.1c-4.1-2.1-8.1-4.4-11.9-6.9c-0.3-0.2-0.7-0.3-1.1-0.3C145.8,36.5,143.8,36.5,141.8,36.8z M145.7,36.2
				c-0.3-0.2-0.8-0.1-1.1,0.1C144.9,36.4,145.3,36.3,145.7,36.2z M142.7,33.3c0.2,0.5,0.2,0.5,0.6,0.4
				C143.2,33.5,143,33.4,142.7,33.3z M146.7,35.9c-0.2-0.2-0.5-0.2-0.7,0C146.2,36.1,146.5,36.1,146.7,35.9L146.7,35.9z M145,35.4
				c0.3,0.1,0.4,0.2,0.6,0C145.5,35.2,145.3,35.2,145,35.4L145,35.4z M143.2,34.2c0,0.2,0.1,0.2,0.2,0.2c0.1,0,0.2,0,0.2-0.1
				s-0.1-0.1-0.2-0.1C143.3,34.1,143.2,34.1,143.2,34.2L143.2,34.2z"/>
			<path id="_Path_2" class="st0" d="M66.8,41.9c0.7-1.6,1.2-3.1,1.8-4.6s1.3-3.3,1.9-4.9c0.4-0.8,1.4-1.1,2.2-0.7
				c0.3,0.2,0.4,0.5,0.3,0.8c0,3.8,0,7.6,0,11.4c0,0.7-0.2,0.9-1,0.9s-1.1-0.2-1.1-0.9c0-2.9,0-5.9,0-8.8v-0.8
				c-0.3,0.2-0.3,0.5-0.4,0.7c-1.2,3.1-2.5,6.1-3.7,9.2c-0.1,0.3-0.2,0.7-0.6,0.7s-0.5-0.4-0.6-0.7c-1.1-3.1-2.3-6.1-3.4-9.2
				c-0.1-0.2-0.2-0.3-0.3-0.5v2.5c0,2.4,0,4.7,0,7.1c0,0.4,0.1,0.8-0.5,0.8c-0.6,0-0.5-0.5-0.5-0.8V32.7c0-0.5-0.1-1.1,0.6-1.1
				c1.1-0.1,1.4-0.1,1.8,0.8l3.3,8.9C66.6,41.4,66.6,41.6,66.8,41.9z"/>
			<path id="_Path_3" class="st0" d="M44.5,37.1v6.7c0,0.8-0.2,1-1.1,1s-1-0.2-1-1c0-1.8,0-3.5,0-5.3c0-0.5-0.2-0.6-0.6-0.6
				c-1.9,0-3.8,0-5.7,0c-0.5,0-0.6,0.2-0.6,0.6c0,1.8,0,3.5,0,5.3c0,0.8-0.2,1-1,1c-0.8,0-1.1-0.2-1.1-1V30.4c0-0.8,0.2-1,1.1-0.9
				c0.9,0.1,1,0.2,1,0.9c0,2,0,4,0,6c0,0.5,0.1,0.7,0.6,0.7c1.9,0,3.8,0,5.8,0c0.5,0,0.6-0.2,0.6-0.6c0-2,0-3.9,0-5.9
				c0-0.9,0.2-1.1,1.1-1.1s1,0.2,1,1L44.5,37.1L44.5,37.1z"/>
			<path id="_Compound_Path_2" class="st0" d="M83.2,37.7c0.5,0.2,1,0.5,1.5,0.7c2.3,1.2,1.6,4.5,0,5.4c-1,0.6-2.1,0.9-3.2,0.9
				c-1.4,0-2.8,0-4.1,0c-0.7,0-0.9-0.3-0.9-0.9c0-3.8,0-7.6,0-11.4c0-0.5,0.1-0.8,0.6-0.9c2.1,0,4.3-0.2,6.3,0.5
				c1.5,0.4,2.4,1.9,2,3.4c0,0.1,0,0.1,0,0.2c-0.2,0.9-0.9,1.6-1.7,1.8C83.4,37.5,83.3,37.5,83.2,37.7z M80.1,43.9
				c0.8,0,1.6-0.1,2.3-0.4c0.6-0.2,1-0.7,1.2-1.2c0.7-1.4,0.1-3-1.3-3.6c-0.3-0.1-0.6-0.2-0.9-0.3c-0.4-0.1-0.8-0.1-1.2-0.2
				c-0.2,0-0.4,0-0.6-0.1c-0.3-0.1-0.5-0.3-0.5-0.6c0.1-0.3,0.4-0.2,0.6-0.2c0.8,0.1,1.5,0,2.3-0.3c0.8-0.3,1.3-1,1.3-1.8
				c0.2-0.9-0.2-1.8-1-2.2c-1-0.5-2-0.7-3.1-0.6c-0.6,0-0.7,0.2-0.7,0.7c0,3.2,0,6.3,0,9.5C78.5,43.9,78.5,43.9,80.1,43.9z"/>
			<path id="_Compound_Path_3" class="st0" d="M188,38.1c0-1.8,0-3.6,0-5.4c0-1,0.2-1.2,1.2-1.2c2-0.1,4,0,5.9,0.5
				c3,0.9,4.5,3,4.5,6.4c0,2.8-2,5.3-4.8,5.9c-2,0.4-4.1,0.5-6.1,0.3c-0.6,0-0.7-0.5-0.7-1V38.1L188,38.1z M190.1,38.1v4
				c0,1.9,0,1.9,1.9,1.8c3.2-0.1,5-1.7,5.4-4.8c0.3-2.3-0.2-4.4-2.4-5.8c-1.3-0.7-2.8-1.1-4.3-0.9c-0.5,0-0.6,0.1-0.6,0.6
				C190.1,34.7,190.1,36.4,190.1,38.1z"/>
			<path id="_Path_4" class="st0" d="M106.3,38.5l3.1,3.9c0.4,0.5,0.8,1,1.2,1.5c0.4,0.5,0.2,0.7-0.4,0.8c-0.9,0.2-1.7-0.1-2.2-0.9
				c-1.2-1.8-2.6-3.4-3.9-5.2c-0.4-0.6-0.4-0.7,0.4-0.9c0.4-0.1,0.7-0.1,1.1-0.2c1.3-0.3,2.1-1.5,1.9-2.8c0-1.3-1.1-2.3-2.4-2.3
				c-0.5-0.1-1,0-1.5-0.1c-0.5-0.1-0.7,0.2-0.7,0.7c0,3.5,0,7.1,0,10.6c0,0.9-0.1,1-1,1s-1.1-0.1-1.1-1V32.6c0-0.8,0.2-1,1-1
				c1.7-0.1,3.3,0,5,0.3c2.5,0.6,3.3,2.4,2.6,4.5c-0.4,1.2-1.4,1.6-2.5,1.9C106.8,38.3,106.5,38.4,106.3,38.5z"/>
			<path id="_Path_5" class="st0" d="M122,40.8v-2.2c0-0.7,0.3-0.9,1-0.9c0.8,0,1,0.2,1,0.9c0,1.5,0,3,0,4.4c0,0.7-0.5,0.9-1,1.1
				c-1.8,0.9-3.8,1.2-5.8,0.7c-2.6-0.4-4.6-2.4-5.1-4.9c-1-3.7,1.3-7.5,5-8.4c0.9-0.2,1.8-0.3,2.7-0.2c1.1,0.1,2.2,0.3,3.2,0.7
				c0.8,0.3,0.8,0.4,0.5,1.2l-0.1,0.1c-0.3,0.8-0.3,0.8-1,0.2c-0.9-0.9-2.1-1.4-3.3-1.4c-2,0-3.8,1.3-4.4,3.2
				c-0.5,1.7-0.6,3.4-0.1,5.1c0.7,2.6,3.3,4.1,5.9,3.5c0.1,0,0.2,0,0.3-0.1l0.7-0.2c0.4-0.1,0.7-0.4,0.7-0.9c0,0,0,0,0,0
				C121.9,42.2,122,41.5,122,40.8z"/>
			<path id="_Path_6" class="st0" d="M167.6,45.3l-1-1c0.7,0,1.3,0,2-0.1c0.9-0.2,1.6-0.9,1.9-1.8c0.3-1,0-2.1-0.8-2.8
				c-0.8-0.7-1.7-1.3-2.7-1.9c-1.1-0.6-2.2-1.3-3.1-2.2c-1.4-1.5-1.2-3.9,0.3-5.3c0.2-0.1,0.3-0.3,0.5-0.4c2.1-1.2,4.7-1.2,6.8,0
				c0.2,0.1,0.3,0.3,0.3,0.6c0,0,0,0,0,0.1c-0.1,0.2-0.1,0.4-0.2,0.5c-0.3,0.8-0.4,0.8-0.9,0.1c-1.1-1.3-2.9-1.7-4.4-0.9
				c-1.1,0.6-1.4,2-0.8,3.1c0.1,0.2,0.3,0.4,0.5,0.6c0.9,0.7,1.8,1.4,2.8,1.9c1,0.6,1.9,1.2,2.8,1.8c1.4,1,2,2.8,1.5,4.4
				c-0.5,1.6-1.9,2.9-3.6,3.1C168.8,45.2,168.2,45.3,167.6,45.3z"/>
			<path id="_Compound_Path_4" class="st0" d="M57.1,44.7c-0.6,0.2-1-0.2-1.2-0.9c-0.3-1-0.7-1.9-1.1-2.8c-0.1-0.4-0.5-0.7-0.9-0.6
				c-1.4,0-2.8,0-4.2,0c-0.4-0.1-0.7,0.2-0.8,0.5c-0.3,1-0.7,2-1.1,3l-0.2,0.4c-0.1,0.3-0.4,0.4-0.7,0.3c0,0,0,0,0,0
				c-0.4-0.1-0.2-0.4-0.1-0.7c0.5-1.4,1.1-2.8,1.6-4.3c0.9-2.5,1.9-5,2.8-7.5c0.1-0.5,0.6-0.8,1.1-0.7c0.6,0,1.2,0,1.4,0.7
				c1.5,3.9,2.9,7.7,4.4,11.6C58.4,44.6,58.2,44.7,57.1,44.7z M52,33.2c-0.1,0.1-0.2,0.1-0.2,0.1l-2.2,6c-0.1,0.3,0.1,0.4,0.3,0.4
				c1.3,0,2.6,0,3.8,0c0.5,0,0.5-0.2,0.3-0.5c-0.2-0.6-0.4-1.1-0.6-1.7C53,36,52.4,34.6,52,33.2z"/>
			<path id="_Path_7" class="st0" d="M97.3,36.6v-4.2c0-0.4,0-0.8,0.5-0.8c0.5,0,0.6,0.4,0.6,0.8c0,2.6,0,5.2,0,7.8
				s-1.2,4.1-3.2,4.6c-1,0.3-2,0.3-3,0.1c-2.3-0.1-4-2.1-3.9-4.4c0,0,0,0,0-0.1c-0.1-2.7,0-5.3,0-8c0-0.7,0.3-0.9,1.1-0.9
				c0.8,0,1,0.2,1,0.9c0,2.5,0,5.1,0,7.6c-0.1,0.9,0.1,1.8,0.6,2.6c0.9,1.2,2.4,1.6,3.8,1.2c1.4-0.3,2.4-1.6,2.5-3
				c0-0.2,0-0.3,0-0.5C97.3,40.4,97.3,36.6,97.3,36.6z"/>
			<path id="_Path_8" class="st0" d="M185.3,36.7c-0.1,1.3,0.1,2.9-0.1,4.5c-0.1,2-1.7,3.5-3.6,3.7c-1,0.2-2,0.2-3,0
				c-2.1-0.4-3.4-2.1-3.4-4.6c0-2.6,0-5.1,0-7.7c0-0.8,0.2-1,1-1c0.8,0,1.1,0.2,1.1,0.9c0,2.5,0,5.1,0,7.6c0,0.6,0,1.2,0.2,1.7
				c0.5,1.6,1.7,2.3,3.6,2.1c1.6-0.1,2.8-1.3,3-2.8c0.1-0.6,0.1-1.1,0.1-1.7c0-2.4,0-4.7,0-7.1c0-0.4-0.1-0.9,0.5-0.8
				c0.6,0,0.5,0.5,0.5,0.8L185.3,36.7z"/>
			<path id="_Path_9" class="st0" d="M168.6,47.1c0.3-0.1,0.7,0.4,0.9-0.2c0.5,0.3,1,0.6,1.4,1c-1.4,0.5-2.8,0.6-4.2,0.3
				c-2-0.5-4-1.2-5.8-2.2c-2.7-1.4-5.5-2.4-8.4-3.1c-4.7-0.9-9.5-0.1-13.6,2.3c-2.6,1.4-5,3.1-7.2,5c-0.2,0.2-0.3,0.4-0.6,0.4
				c-0.1-0.6-0.1-1.2-0.1-1.8c0.2-0.3,0.7-0.2,0.8-0.6c0,0,0.1-0.1,0.1-0.2c2.5-2.2,5.4-3.8,8.6-4.8c5.1-1.8,10.6-1.7,15.7,0.1
				c2.2,0.8,4.4,1.9,6.6,2.8c1.6,0.7,3.4,1.1,5.2,1.1C168.1,47.4,168.4,47.3,168.6,47.1z"/>
			<path id="_Path_10" class="st0" d="M156.3,31.5l-0.5,0.1c-1.2,0.6-2.6,0.9-4,0.8c-2.2-0.1-4.4-0.7-6.3-1.8
				c-2.9-1.5-5.8-3.2-8.7-4.7c-3.2-1.9-7-2.7-10.7-2.4c-0.9-0.1-1.8,0.2-2.6,0.7l-1.3,0.1c-0.7-0.7-0.7-0.7,0.2-1.1
				c3.3-1.3,7-1.2,10.3,0.1c2.8,1.1,5.4,2.5,7.9,4.1c2.4,1.6,5.1,2.8,7.9,3.6c2.2,0.6,4.5,0.3,6.6-0.6c0.5-0.2,0.7-0.2,0.9,0.3
				C156,31,156.1,31.3,156.3,31.5z"/>
			<path id="_Path_11" class="st0" d="M182.6,31c-0.6,0-1-0.5-0.9-1.1c0,0,0,0,0,0c0-0.5,0.4-0.9,0.9-0.9c0,0,0.1,0,0.1,0
				c0.6,0,1,0.4,1,1c0,0,0,0,0,0.1C183.6,30.6,183.1,31,182.6,31C182.6,31,182.6,31,182.6,31z"/>
			<path id="_Path_12" class="st0" d="M179,31c-0.6,0-1-0.4-1-1c0-0.5,0.4-1,0.9-1c0,0,0.1,0,0.1,0c0.6,0,1,0.4,1,1
				C180,30.5,179.5,31,179,31z"/>
			<path id="_Path_13" class="st0" d="M131.6,48.3c-0.1,0.4-0.6,0.3-0.8,0.6c0-0.2-0.1-0.4,0-0.5c0.4-0.2,0.6-0.6,0.6-1
				c0-0.4,0.2-0.8,0.5-1.1c-0.1,0.5-0.2,0.9-0.3,1.4C131.4,47.9,131.2,48.1,131.6,48.3z"/>
			<path id="_Path_14" class="st0" d="M129.9,43.2c0.4,0.9,0.6,1.8,0.5,2.8C130.2,45.1,130,44.1,129.9,43.2z"/>
			<path id="_Path_15" class="st0" d="M130.5,46.3c0.5,0.5,0.1,1.2,0.2,1.8C130.6,47.5,130.5,46.9,130.5,46.3z"/>
			<path id="_Path_16" class="st0" d="M169.4,47c-0.1,0-0.1,0-0.1-0.1C169.3,46.8,169.4,46.9,169.4,47z"/>
			<path id="_Path_17" class="st0" d="M133.9,41.9l-1.1,1.9C132.7,43.1,133.2,42.3,133.9,41.9z"/>
			<path id="_Path_18" class="st0" d="M132.7,43.9l-0.1,0.3C132.6,44.1,132.6,44,132.7,43.9z"/>
			<path id="_Path_19" class="st0" d="M145.7,36.2c-0.3,0.2-0.8,0.2-1.1,0.1C144.9,36,145.4,36,145.7,36.2z"/>
			<path id="_Path_20" class="st0" d="M142.7,33.3c0.2,0.1,0.4,0.2,0.6,0.4C142.9,33.8,142.9,33.8,142.7,33.3z"/>
			<path id="_Path_21" class="st0" d="M146.8,35.9c-0.3,0.4-0.6,0.3-0.9,0.1C146.3,35.6,146.5,35.7,146.8,35.9z"/>
			<path id="_Path_22" class="st0" d="M144.9,35.4c0.3-0.3,0.6-0.3,0.8,0C145.5,35.6,145.3,35.5,144.9,35.4z"/>
			<path id="_Path_23" class="st0" d="M143,34.1c0.1,0,0.2-0.1,0.4-0.1c0.1,0,0.4,0,0.3,0.2s-0.2,0.2-0.4,0.2
				C143.2,34.4,143,34.4,143,34.1z"/>
		</g>
	</g>
</g>
</svg>
