<?xml version="1.0" encoding="utf-8"?>
<!-- Generator: Adobe Illustrator 22.1.0, SVG Export Plug-In . SVG Version: 6.00 Build 0)  -->
<svg version="1.1" id="Layer_1" xmlns="http://www.w3.org/2000/svg" xmlns:xlink="http://www.w3.org/1999/xlink" x="0px" y="0px"
	 viewBox="0 0 233 73" style="enable-background:new 0 0 233 73;" xml:space="preserve">
<style type="text/css">
	.st0{fill:#3D3D3D;}
</style>
<title>Asset 28</title>
<g id="Layer_2_1_">
	<g id="Layer_1-2">
		<g id="_Group_">
			<path id="_Path_" class="st0" d="M115.3,52.7c-0.6,0.3-1.3,0.5-2,0.4c-3,0.2-5.9-1.6-7-4.4c-0.8-1.8-1.4-3.6-1.9-5.4
				c-0.2-1.3-1.1-2.5-2.4-3l0.1-0.2h2.3c0.5,0,1.1-0.1,1.6-0.2c0.7-0.2,1.3-0.8,1.5-1.5c0.8-2.3-0.2-4.7-3-4.8c-1,0-2,0-3.1,0
				c-0.5,0-0.6,0.2-0.6,0.7c0,3.4,0,6.9,0,10.3c0,1.7,0,3.4,0,5c0,0.4-0.1,0.6-0.5,0.6c-1,0-2.1,0-3.1-0.1c-1.4-0.1-2-0.6-2.2-2
				c0-0.3-0.1-0.7-0.1-1c0-5.7,0-11.4,0-17c0-0.5,0.1-0.7,0.7-0.7c3.5,0,7,0,10.6,0c2.6,0,5,0.9,6.3,3.3c1.3,2.3,1.4,5.1,0.3,7.5
				c-0.4,0.9-1.2,1.7-2,2.2c-0.2,0.1-0.4,0.2-0.2,0.5c1.1,1.6,1.9,3.5,2.3,5.4C113.3,49.9,114.1,51.4,115.3,52.7z"/>
			<path id="_Compound_Path_" class="st0" d="M115,38.1c0-2.8,0-5.5,0-8.3c0-0.4,0.1-0.6,0.5-0.6c3.3,0.1,6.6-0.1,9.8,0.1
				c1.7,0.1,3.4,0.6,4.8,1.6c1.7,1.2,2.9,3,3.4,5.1c0.7,2.7,0.6,5.6-0.2,8.3c-0.8,3-3.3,5.2-6.4,5.6c-2.9,0.4-5.8,0.5-8.8,0.2
				c-2.2-0.1-3.2-1.3-3.2-3.7C115,43.5,115,40.8,115,38.1z M120.8,38.8c0,1.3,0,2.7,0,4c0,0.7,0.1,1.3,0.2,2
				c0.1,0.6,0.6,1.1,1.3,1.2c2.3,0.4,4.6-0.9,5.6-3.1c0.6-1.5,0.7-3.2,0.3-4.8c-0.4-2.1-2-3.8-4.1-4.3c-0.9-0.2-1.8-0.2-2.7-0.2
				c-0.5,0-0.7,0.1-0.7,0.6C120.8,35.7,120.8,37.2,120.8,38.8L120.8,38.8z"/>
			<path id="_Path_2" class="st0" d="M76.9,39.6c0,3.2,0,6.5,0,9.8c0,0.6-0.2,0.7-0.7,0.7c-1.1,0-2.2,0-3.3-0.1
				c-1,0-1.9-0.8-1.9-1.9c0,0,0-0.1,0-0.1c-0.2-1.8-0.1-3.5,0-5.2c0-0.6-0.1-0.8-0.7-0.7c-1.6,0-3.2,0-4.7,0c-0.5,0-0.6,0.1-0.6,0.6
				c0,2.3,0,4.5,0,6.8c0,0.5-0.1,0.6-0.6,0.6c-1,0-2.1,0-3.1,0c-1.5,0-2-0.5-2.1-1.9c0-0.3,0-0.5,0-0.8C59,41.5,59,35.7,59,29.9
				c0-0.6,0.1-0.8,0.8-0.8c1.5,0,3.1,0,4.6,0c0.5,0,0.6,0.2,0.6,0.6c0,2.2,0,4.5,0,6.7c0,0.6,0.2,0.7,0.7,0.7c1.6,0,3.2,0,4.8,0
				c0.5,0,0.6-0.1,0.6-0.6c0-2.3,0-4.5,0-6.8c0-0.5,0.1-0.6,0.6-0.6c1.5,0,3.1,0.1,4.6,0c0.6,0,0.7,0.1,0.7,0.7
				C76.9,33.1,76.9,36.4,76.9,39.6z"/>
			<path id="_Path_3" class="st0" d="M161.3,33.7h-4.7c-1.5,0-3,0-4.5,0c-0.4,0-0.6-0.1-0.6-0.5c0-1.2,0-2.3,0-3.5
				c0-0.4,0.1-0.5,0.5-0.5h16.5c0.4,0,0.5,0.1,0.5,0.5c0,1.1,0,2.1,0,3.2c0,0.4-0.2,0.7-0.4,0.9c-2.7,3.4-5.4,6.8-8.1,10.1
				c-0.3,0.4-0.7,0.7-0.5,1.2c0.2,0.5,0.8,0.2,1.2,0.2c2.4,0,4.8,0,7.1,0c0.5,0,0.7,0.2,0.6,0.7c0,1.2,0,2.4,0,3.6
				c0,0.3-0.1,0.5-0.4,0.5c-4.9,0-9.8,0-14.8,0c-1.5,0-2.1-0.7-2.3-2.2c-0.2-1.2,0.2-2.4,1-3.4C155.5,41,158.3,37.4,161.3,33.7z"/>
			<path id="_Path_4" class="st0" d="M78.9,38.5c0-2.9,0-5.8,0-8.6c0-0.5,0.1-0.7,0.7-0.7c4.4,0,8.7,0,13,0c0.5,0,0.6,0.1,0.6,0.6
				c0,1.1,0,2.3,0,3.4c0,0.5-0.2,0.6-0.6,0.6c-2.4,0-4.8,0-7.2,0c-0.6,0-0.8,0.2-0.7,0.7c0.1,0.7,0,1.5,0,2.2c0,0.4,0.1,0.5,0.5,0.5
				c1.7,0,3.3,0,5,0c0.5,0,0.6,0.2,0.6,0.6c0,1.2,0,2.4,0,3.6c0,0.5-0.1,0.7-0.6,0.6c-1.6,0-3.3,0-4.9,0c-0.5,0-0.6,0.1-0.6,0.6
				c0,0.5,0,1.2,0,1.8c0,0.9,0.3,1.1,1.2,1.1h5.7c1.6,0,1.6,0,1.6,1.6c0,0.8,0,1.6,0,2.4c0,0.4-0.1,0.5-0.5,0.5c-3.8,0-7.6,0-11.4,0
				c-1.5,0-2.1-0.6-2.3-2.1c-0.1-0.9-0.1-1.9-0.1-2.8C78.9,42.9,78.9,40.7,78.9,38.5z"/>
			<path id="_Path_5" class="st0" d="M135.6,38.5c0-2.9,0-5.8,0-8.6c0-0.5,0.2-0.7,0.7-0.7c4.3,0,8.7,0,13,0c0.4,0,0.6,0.1,0.6,0.6
				c0,1.1,0,2.3,0,3.4c0,0.5-0.1,0.6-0.6,0.6c-2.4,0-4.8,0-7.2,0c-0.6,0-0.8,0.2-0.7,0.7c0,0.7,0,1.5,0,2.2c0,0.4,0.1,0.5,0.5,0.5
				c1.7,0,3.3,0,5,0c0.5,0,0.6,0.2,0.6,0.6c0,1.2,0,2.4,0,3.6c0,0.5-0.1,0.6-0.6,0.6c-1.6,0-3.2,0-4.9,0c-0.5,0-0.7,0.2-0.7,0.7
				c0,0.5,0,1,0,1.4c0,1.1,0.3,1.4,1.4,1.4c2.1,0,4.2,0,6.4,0c0.6,0,0.8,0.1,0.8,0.7c0,1.1,0,2.2,0,3.3c0,0.4-0.1,0.5-0.5,0.5
				c-3.8,0-7.6,0-11.3,0c-1.5,0-2.2-0.7-2.3-2.2c-0.2-2-0.1-4-0.1-6C135.6,40.7,135.6,39.6,135.6,38.5z"/>
			<path id="_Path_6" class="st0" d="M69.3,21.7c0,0.5,0,1,0,1.5c0,0.6-0.2,0.4-0.5,0.4s-0.4-0.1-0.4-0.4c0-0.8,0-1.7,0.1-2.5
				c0-0.2-0.1-0.6,0.2-0.6c0.3-0.1,0.7-0.2,1,0.2c0.4,0.5,0.8,1,1.3,1.7c0-0.6,0.1-1,0.1-1.5c0-0.5,0.2-0.4,0.5-0.4
				c0.3,0,0.4,0.1,0.4,0.4c0,0.9-0.1,1.7-0.1,2.6c0,0.2,0.1,0.5-0.2,0.6c-0.3,0.1-0.6,0.1-0.9-0.2c-0.4-0.6-0.9-1.2-1.3-1.7
				L69.3,21.7z"/>
			<path id="_Path_7" class="st0" d="M106.6,21.8c0-0.4,0-0.9,0-1.3s0.1-0.4,0.5-0.4c0.3,0,0.5,0.1,0.4,0.5c0,0.9-0.1,1.7-0.1,2.5
				c0,0.2,0.1,0.5-0.2,0.6c-0.4,0-0.6,0.1-0.9-0.3c-0.4-0.6-0.9-1.2-1.5-1.7c0,0.5,0,1,0,1.5c0,0.5-0.2,0.5-0.5,0.5
				s-0.4-0.2-0.4-0.5c0-0.8,0-1.7,0.1-2.5c0-0.2-0.2-0.6,0.2-0.6s0.7-0.2,1,0.2c0.4,0.5,0.8,1,1.3,1.6L106.6,21.8z"/>
			<path id="_Path_8" class="st0" d="M119.2,21.7c0,0.5,0,1,0,1.5c0,0.6-0.2,0.4-0.5,0.4s-0.4-0.1-0.4-0.4c0-0.9,0.1-1.9,0.1-2.8
				c0-0.1,0-0.3,0.2-0.4c0.2,0,0.7-0.1,1,0.2c0.3,0.3,0.5,0.6,0.8,1c0.3,0.4,0.3,0.5,0.6,0.6c0.1-0.5,0.1-0.9,0.1-1.4
				c0-0.3,0.2-0.4,0.4-0.4s0.5,0.1,0.5,0.4c0,0.9-0.1,1.9-0.1,2.8c0,0.2,0,0.4-0.3,0.4s-0.6,0.1-0.8-0.2c-0.4-0.6-0.9-1.2-1.4-1.8
				L119.2,21.7z"/>
			<path id="_Compound_Path_2" class="st0" d="M100.8,23.8c-1,0.1-1.9-0.7-2-1.8c0-0.1,0-0.2,0-0.2c0.1-1.1,1.1-1.9,2.2-1.8
				c0,0,0,0,0,0c1-0.1,1.8,0.7,1.9,1.7c0,0.1,0,0.1,0,0.2c0,1.1-0.8,1.9-1.9,2C100.9,23.8,100.8,23.8,100.8,23.8z M99.9,21.9
				c0,0.7,0.3,1.1,0.9,1.1c0.6-0.1,1-0.6,1-1.2c0.1-0.5-0.3-1-0.9-1.1c0,0,0,0,0,0C100.3,20.7,99.9,21.1,99.9,21.9z"/>
			<path id="_Compound_Path_3" class="st0" d="M80.8,23.8c-1.1,0-1.9-0.8-2-1.8c0,0,0-0.1,0-0.1c0-1.1,1-2,2.1-1.9c0,0,0,0,0.1,0
				c1-0.1,1.8,0.7,1.9,1.7c0,0.1,0,0.1,0,0.2c0,1-0.8,1.9-1.8,2C80.9,23.8,80.9,23.8,80.8,23.8z M79.9,21.8c0,0.7,0.3,1.2,0.9,1.2
				c0.6-0.1,1.1-0.6,1-1.2c0,0,0,0,0,0c0.1-0.5-0.3-1-0.8-1.1c0,0-0.1,0-0.1,0c-0.6,0-1,0.4-1,1C79.9,21.7,79.9,21.8,79.9,21.8z"/>
			<path id="_Compound_Path_4" class="st0" d="M65.3,23.8c-1,0.1-1.9-0.7-2-1.8c0-0.1,0-0.2,0-0.2c0.1-1.1,1-1.9,2-1.8
				c0,0,0.1,0,0.1,0c1-0.1,1.9,0.7,1.9,1.7c0,0,0,0.1,0,0.1c0,1.1-0.8,1.9-1.8,2C65.5,23.8,65.4,23.8,65.3,23.8z M66.3,21.8
				c0-0.6-0.3-1.1-0.9-1.1c-0.6,0-1.1,0.5-1.1,1.1c0,0,0,0.1,0,0.1c0,0.7,0.4,1.1,0.9,1.1c0.6,0,1-0.5,1-1.1
				C66.4,21.8,66.4,21.8,66.3,21.8L66.3,21.8z"/>
			<path id="_Compound_Path_5" class="st0" d="M84.8,23.6c-1.2,0-1,0-1-0.9c0-0.7,0-1.3,0-2c0-0.7,0.2-0.8,0.8-0.7
				c0.4,0,0.9,0,1.3,0.1c0.8,0.2,1.4,1,1.3,1.8c0,0.8-0.5,1.5-1.3,1.6C85.6,23.7,85.2,23.7,84.8,23.6z M86.1,21.9
				c0-0.3-0.1-0.6-0.3-0.8c-0.2-0.2-0.4-0.3-0.7-0.2c-0.3,0.1-0.2,0.4-0.2,0.6c0,0.2,0,0.6,0,0.9c0,0.3-0.1,0.5,0.1,0.6
				c0.3,0.1,0.6,0,0.8-0.2C86.1,22.5,86.2,22.2,86.1,21.9z"/>
			<path id="_Compound_Path_6" class="st0" d="M90.8,23.7c-0.3,0.1-0.4-0.2-0.4-0.4c-0.1-0.2-0.2-0.5-0.6-0.5c-0.4,0-0.8-0.1-1,0.4
				c0,0.2-0.1,0.4-0.3,0.5c-0.2,0.1-0.5,0-0.7-0.1c-0.2-0.2,0-0.4,0.1-0.5c0.4-0.9,0.9-1.7,1.3-2.6c0.1-0.4,0.5-0.6,0.8-0.6
				c0.4,0,0.4,0.4,0.5,0.7c0.3,0.8,0.5,1.5,0.8,2.3C91.6,23.6,91.4,23.7,90.8,23.7z M89.7,21.4c-0.1,0.2-0.4,0.4-0.2,0.7
				c0.1,0.1,0.3,0.1,0.4,0C90,21.9,89.8,21.6,89.7,21.4z"/>
			<path id="_Path_9" class="st0" d="M139.4,23.6c-1.2,0-1.3,0-1.2-1.3c0-0.6,0-1.3,0-1.9c0-0.3,0.1-0.5,0.4-0.5c0.6,0,1.1,0,1.7,0
				c0.2,0,0.4,0,0.4,0.3s-0.1,0.4-0.3,0.4s-0.5,0-0.7,0s-0.4,0.1-0.4,0.4c0,0.3,0.2,0.3,0.4,0.3s0.4,0,0.6,0s0.4,0.1,0.4,0.4
				c0,0.2-0.1,0.4-0.3,0.4c-0.2,0-0.4,0-0.6,0c-0.4,0-0.4,0.2-0.4,0.5c0,0.3,0.2,0.3,0.4,0.3h0.8c0.2,0,0.4,0,0.4,0.3
				c0,0.3,0,0.4-0.3,0.4L139.4,23.6z"/>
			<path id="_Compound_Path_7" class="st0" d="M129.5,23.7c-0.3,0.1-0.5-0.1-0.5-0.3c-0.1-0.2-0.1-0.6-0.6-0.6c-0.5,0-0.8,0-1,0.5
				c0,0.2-0.1,0.4-0.4,0.4c-0.5,0-0.7-0.2-0.4-0.6c0.4-0.9,0.9-1.7,1.3-2.5c0.1-0.3,0.3-0.5,0.6-0.6c0.3-0.1,0.6,0,0.7,0.3
				c0.3,1,0.6,1.9,1,2.9C130.3,23.9,129.7,23.5,129.5,23.7z M128.4,21.2c-0.2,0.4-0.4,0.6-0.2,0.9c0.1,0.1,0.2,0.1,0.3,0
				C128.7,21.8,128.5,21.6,128.4,21.2z"/>
			<path id="_Compound_Path_8" class="st0" d="M116.8,23.7c-0.4,0.1-0.4-0.2-0.5-0.4c-0.1-0.2-0.2-0.6-0.6-0.5
				c-0.4,0-0.8-0.1-0.9,0.5c0,0.3-0.3,0.5-0.5,0.4c0,0,0,0,0,0c-0.4,0-0.6-0.2-0.4-0.6c0.5-0.9,0.9-1.7,1.4-2.6
				c0.1-0.3,0.3-0.5,0.6-0.6c0.3-0.1,0.5,0,0.6,0.3c0.3,1,0.7,1.9,1,2.9C117.6,23.9,116.9,23.5,116.8,23.7z M115.6,21.2
				c0,0.4-0.4,0.5-0.2,0.8c0,0.1,0.3,0.1,0.3,0C115.9,21.8,115.8,21.6,115.6,21.2z"/>
			<path id="_Path_10" class="st0" d="M124.3,22.9h1.3c0.2,0,0.4,0,0.4,0.3s0,0.5-0.3,0.5c-0.9,0-1.8,0-2.6,0
				c-0.4,0-0.3-0.2-0.2-0.4l1.2-1.8c0.1-0.1,0.3-0.3,0.2-0.5s-0.3-0.1-0.5-0.1h-0.3c-0.2,0-0.4,0-0.4-0.3s0.1-0.5,0.4-0.5h2.2
				c0.4,0,0.4,0.2,0.2,0.5L124.3,22.9z"/>
			<path id="_Path_11" class="st0" d="M60.9,23.8c-0.7,0.1-1.4-0.3-1.7-1c-0.3-0.7-0.1-1.5,0.4-2.1c0.7-0.6,1.6-0.9,2.5-0.7
				c0.2,0,0.4,0.2,0.4,0.4c0,0,0,0.1,0,0.1c0,0.4-0.3,0.3-0.5,0.3c-0.5-0.1-1.1,0.1-1.5,0.5c-0.3,0.4-0.4,0.9-0.1,1.3
				c0.3,0.5,0.8,0.4,1.2,0.3c0.3-0.1,0.6-0.6,0.9,0s-0.4,0.5-0.7,0.7C61.6,23.7,61.3,23.8,60.9,23.8z"/>
			<path id="_Path_12" class="st0" d="M97.4,20.7c-0.8,0-1.3,0.1-1.6,0.7c-0.3,0.4-0.2,0.9,0.1,1.2c0.3,0.3,0.7,0.4,1.1,0.2
				c0.2,0,0.3-0.1,0.5-0.2c0.2-0.1,0.4-0.2,0.5,0.1c0.1,0.2,0.2,0.4-0.1,0.6c-0.7,0.5-1.5,0.6-2.2,0.3c-0.6-0.2-1.1-0.8-1.1-1.5
				c-0.1-0.8,0.4-1.5,1.1-1.9c0.5-0.3,1.1-0.4,1.6-0.3c0.3,0,0.6,0,0.6,0.5C97.8,20.9,97.5,20.7,97.4,20.7z"/>
			<path id="_Path_13" class="st0" d="M108.6,21.8c0-1.8,0-1.8,1.8-1.8c0.2,0,0.5-0.1,0.5,0.4s-0.3,0.4-0.6,0.4c-0.2,0-0.3,0-0.5,0
				c-0.1,0-0.3,0.1-0.3,0.2c0,0,0,0,0,0.1c0,0.2,0,0.3,0.3,0.4h0.5c0.2,0,0.4,0.1,0.3,0.3c0,0.3,0,0.5-0.3,0.4
				c-0.8-0.1-0.9,0.3-0.9,0.9c0,0.4-0.1,0.5-0.5,0.5s-0.6-0.1-0.5-0.5S108.6,22.3,108.6,21.8z"/>
			<path id="_Path_14" class="st0" d="M142.3,23.7h-0.5c-0.3,0-0.3-0.2-0.3-0.4s0.1-0.4,0.3-0.4c0.2,0,0.3,0,0.5,0
				c0.2,0,0.4,0,0.5-0.2c0.1-0.2-0.1-0.4-0.2-0.5l-0.5-0.4c-0.5-0.3-0.6-0.9-0.3-1.4c0.2-0.3,0.5-0.4,0.8-0.4c0.3,0,0.6-0.1,0.9-0.1
				c0.2,0,0.4,0,0.4,0.3c0,0.3,0,0.4-0.3,0.4c-0.1,0-0.3,0-0.4,0c-0.3,0.1-0.4,0.3-0.2,0.5s0.3,0.3,0.5,0.4c0.4,0.3,0.6,0.8,0.4,1.3
				c-0.2,0.5-0.6,0.8-1.1,0.8C142.6,23.8,142.5,23.8,142.3,23.7L142.3,23.7z"/>
			<path id="_Path_15" class="st0" d="M75.9,22.3c0-0.3,0-0.5,0-0.7c0-0.5,0.1-0.9-0.6-0.8C75,20.9,75,20.7,75,20.5
				c0-0.2,0-0.4,0.3-0.4c0.8,0,1.7,0,2.5,0c0.3,0,0.2,0.3,0.2,0.4c0,0.2,0,0.4-0.3,0.4c-0.6-0.1-0.7,0.2-0.7,0.7c0,0.5,0,1,0,1.6
				s-0.1,0.6-0.5,0.6s-0.6-0.1-0.5-0.6C76,22.8,76,22.6,75.9,22.3z"/>
			<path id="_Path_16" class="st0" d="M111.9,21.9c0-0.4,0-0.8,0-1.2s0.2-0.6,0.6-0.6s0.5,0.3,0.5,0.6c0,0.8-0.1,1.7,0,2.5
				c0,0.5-0.3,0.5-0.6,0.5s-0.5-0.2-0.4-0.5C111.9,22.8,111.9,22.3,111.9,21.9L111.9,21.9z"/>
			<path id="_Path_17" class="st0" d="M131.8,23.8c-0.3,0-0.6,0-0.6-0.4s0.3-0.5,0.6-0.5c0.2,0,0.5,0.1,0.5,0.4c0,0,0,0.1,0,0.1
				C132.4,23.6,132.1,23.8,131.8,23.8z"/>
			<path id="_Path_18" class="st0" d="M136.4,23.8c-0.3,0-0.6-0.1-0.5-0.4c0-0.3,0.3-0.5,0.6-0.5s0.5,0.1,0.5,0.5
				S136.7,23.8,136.4,23.8z"/>
			<path id="_Path_19" class="st0" d="M134.1,23.8c-0.3,0-0.6-0.1-0.6-0.4s0.3-0.5,0.6-0.5c0.3,0,0.5,0.1,0.6,0.4
				S134.4,23.7,134.1,23.8z"/>
			<path id="_Compound_Path_9" class="st0" d="M174,48.8c-0.1,0,0,0.1-0.1,0.2c-0.2,0.8-1,1.3-1.8,1.2c-0.9-0.1-1.6-0.9-1.5-1.8
				c0.1-0.9,0.9-1.6,1.8-1.5c0.6,0.1,1.2,0.5,1.4,1.1c0,0.1,0,0.2,0.1,0.2V48.8z M173.8,48.5c0-0.8-0.6-1.5-1.4-1.5c0,0,0,0,0,0
				c-0.8,0-1.5,0.7-1.5,1.5c0,0,0,0,0,0c0,0.8,0.7,1.5,1.5,1.5C173.1,50,173.8,49.3,173.8,48.5L173.8,48.5z"/>
			<path id="_Compound_Path_10" class="st0" d="M173.1,49.3c-0.3,0.1-0.6,0-0.7-0.3c-0.1-0.1-0.1-0.3-0.3-0.2c-0.2,0-0.1,0-0.1,0.1
				c0,0.1,0,0.2,0,0.2c0,0.2,0,0.2-0.2,0.2c-0.2,0-0.2,0-0.2-0.2c0-0.5,0-0.9,0-1.4c0-0.2,0-0.2,0.2-0.2s0.4,0,0.7,0
				c0.3,0,0.6,0.2,0.6,0.5c0,0.1,0,0.2,0,0.2c0,0.1-0.1,0.2-0.2,0.2c-0.1,0.1-0.1,0.1,0,0.2C173,49,173,49.2,173.1,49.3z
				 M172.2,48.5c0.1,0,0.2,0,0.2,0c0.1,0,0.2-0.1,0.2-0.2c0,0,0,0,0,0c0-0.1-0.1-0.2-0.2-0.2c0,0,0,0,0,0h-0.3H172
				c0,0.1,0,0.3,0,0.4C172,48.5,172.2,48.4,172.2,48.5z"/>
		</g>
	</g>
</g>
</svg>
