<svg xmlns="http://www.w3.org/2000/svg" viewBox="0 0 26.66 26.66"><defs><style>.cls-1{fill:#b56a94;}</style></defs><title>Asset 7</title><g id="Layer_2" data-name="Layer 2"><g id="Layer_1-2" data-name="Layer 1"><path class="cls-1" d="M26.66,20.58V6.07A6.07,6.07,0,0,0,20.58,0H6.07A6.08,6.08,0,0,0,0,6.07V20.59a6.08,6.08,0,0,0,6.07,6.07H20.59a6.07,6.07,0,0,0,6.07-6.07Zm-13.33,1.1a8.35,8.35,0,1,1,8.35-8.35A8.36,8.36,0,0,1,13.33,21.68ZM23.52,6.14a2.11,2.11,0,0,1-3.6-1.49,2.08,2.08,0,0,1,.62-1.49,2.11,2.11,0,1,1,3,3Z"/><path class="cls-1" d="M13.33,7.85a5.48,5.48,0,1,0,5.47,5.48A5.49,5.49,0,0,0,13.33,7.85Z"/></g></g></svg>