<?xml version="1.0" encoding="utf-8"?>
<!-- Generator: Adobe Illustrator 22.1.0, SVG Export Plug-In . SVG Version: 6.00 Build 0)  -->
<svg version="1.1" id="Layer_1" xmlns="http://www.w3.org/2000/svg" xmlns:xlink="http://www.w3.org/1999/xlink" x="0px" y="0px"
	 viewBox="0 0 233 73" style="enable-background:new 0 0 233 73;" xml:space="preserve">
<style type="text/css">
	.st0{fill:#FFFFFF;}
	.st1{fill:#6B6B6B;}
	.st2{fill:#888989;}
	.st3{fill:#3D3D3D;}
	.st4{fill:#4F4F4F;}
	.st5{fill:#898989;}
	.st6{fill:#B2646B;}
	.st7{fill:#F8991D;}
	.st8{fill:#B7B7B7;}
	.st9{fill:#E7CAE1;}
	.st10{fill:#41B649;}
</style>
<title>Asset 5</title>
<g id="Layer_2_1_">
	<g id="Layer_1-2">
		<g id="_Group_">
			<path id="_Compound_Path_" class="st0" d="M140.3,39.1L140.3,39.1c0.4,0,0.7,0,1.1,0.1c0.8,0.2,1.5,0.4,2.3,0.5
				c0.5,0.2,1,0.1,1.5-0.2c0.5,0.1,1-0.2,1.2-0.7c0.3-0.7,0.4-1.4,0.4-2.1c0.1-0.8,0-1.6-0.3-2.4c-0.1-0.5-0.6-0.8-1.1-0.8
				c-0.6,0-1.2,0.1-1.8,0.3c-0.9,0.2-1.7,0.3-2.6,0.4c-0.7,0-1.3,0.1-2,0.1c-0.3,0-0.7,0-1,0c0-0.1,0-0.1,0-0.2
				c-0.3-0.8-0.6-1.5-1-2.3c0-0.1,0.1-0.2,0.1-0.2c0.5-1.1,1-2.2,1.3-3.3c0.6-1.9,1-3.8,1.2-5.7c0.1-0.9,0.2-1.9,0.3-2.8
				c0.1-1,0.2-2.2,0.4-3.2c0.1-1.1,0.4-2.2,0.8-3.2c0.2-0.6,0.6-1.2,0.7-1.8c0.2-0.5-0.1-1.1-0.6-1.3c0,0,0,0,0,0
				c-0.8-0.3-1.6-0.4-2.4-0.4h-0.1c-0.6-0.1-1.2-0.1-1.8-0.1c-1.1,0-2.1,0.1-3.1,0.3c-0.4,0.1-0.7,0.4-0.5,0.9
				c0.1,0.3,0.2,0.5,0.4,0.8c0.4,0.8,0.7,1.7,0.6,2.5c-0.1,1.2-0.2,2.5-0.3,3.8c0,0.5-0.1,1.1-0.3,1.6c-0.1-0.1-0.1-0.3-0.2-0.4
				c-0.6-1.4-1-2.9-1.7-4.3c-0.2-0.5-0.4-0.9-0.7-1.3c-0.2-0.3-0.7-0.4-1.1-0.2l-0.3,0.2c-0.1-0.2-0.3-0.4-0.6-0.4
				c-0.4-0.1-0.7,0.1-0.9,0.4c-0.5,0.6-1.1,1-1.8,1.3c-0.6,0.2-1.1,0.5-1.6,0.9c-0.2,0.2-0.4,0.3-0.7,0.3c0,0,0,0,0-0.1
				c-1.6-1.4-3.4-2.6-5.3-3.6c-0.5-0.4-1.2-0.5-1.8-0.5c-0.7-0.3-1.4-0.2-2,0.2c-0.9,0.5-1.8,1.1-2.7,1.6c-1.1,0.7-2.2,1.4-3.2,2.3
				c-0.5,0.5-1,1.1-1.3,1.7c-0.3,0.7-0.4,1.5-0.2,2.2c0,0.1,0.1,0.1,0,0.2c0-0.1-0.1-0.1-0.1-0.2l-1.3-1.6c-0.7-0.8-1.4-1.7-2-2.6
				c-0.3-0.4-0.6-0.9-0.7-1.4c-0.2-0.5,0-1,0.5-1.2c0,0,0,0,0.1,0c0.1-0.1,0.2-0.1,0.3-0.1c0.6-0.1,1.2-0.2,1.8-0.2
				c0.5,0,1-0.1,1.5-0.2c0.6-0.1,0.7-0.4,0.7-1c0-0.1,0-0.2-0.1-0.3c-0.2-0.7-0.4-1.4-0.8-2c-0.5-1-1.1-1.8-1.9-2.6
				c-0.4-0.4-0.9-0.6-1.4-0.6c-0.1,0-0.1,0-0.2,0c-0.4-0.2-0.8-0.2-1.2-0.1c-0.7,0.2-1.3,0.6-1.8,1c-1.1,0.8-2.1,1.7-3.1,2.5
				c-0.5,0.4-1,0.7-1.6,1c-1.4,0.6-2.8,1.1-4.2,1.4c-0.9,0.2-1.8,0.5-2.7,0.8c-0.6,0.2-1.2,0.5-1.7,0.8c-0.2,0.1-0.4,0.3-0.3,0.6
				c0.1,0.6,0.2,1.1,0.5,1.6c0.6,1.3,1.3,2.5,2.1,3.7c0.3,0.5,0.8,1,1.2,1.5c0.2,0.2,0.6,0.3,0.8,0.1l0.3,0.2
				c0.3,0.2,0.7,0.2,0.9-0.1c0.1-0.1,0.3-0.3,0.4-0.5c0.3-0.4,0.6-0.7,0.9-1c0.5-0.4,1-0.8,1.4-1.2c0.5-0.5,1.1-1,1.7-1.4
				c0.2-0.1,0.5-0.2,0.7-0.2c0.2,0.1,0.3,0.2,0.5,0.4c0.6,0.6,1.2,1.3,1.7,2c0.6,0.8,1.1,1.7,1.6,2.5c0.6,1,1.2,2.2,1.6,3.3
				c0.2,0.4,0.3,0.9,0.3,1.3c0,0-0.1,0.1-0.1,0.1c-0.6,0.6-1.2,1.2-1.8,1.8c-0.5,0.5-0.9,1.1-1.3,1.6h-0.1c-0.6-0.3-1.2-0.5-1.8-0.5
				C98.5,29.1,98.2,29,98,29c-0.3-0.1-0.6,0-0.8,0.1c-0.2,0.1-0.4,0.3-0.5,0.6c-0.4,0.7-0.7,1.4-0.8,2.1c-0.1,0.5-0.2,1-0.2,1.5
				c0,0-0.1,0.1-0.1,0.1c-0.7,0.2-1.4,0.4-2,0.7c-1,0.5-1.9,1-2.8,1.5c-1,0.6-1.9,1.2-2.7,2c-0.4,0.3-0.7,0.7-1,1.2
				c-0.4,0.8-0.6,1.7-0.6,2.6c0,0.9,0.1,1.8,0.3,2.6c0.1,0.7,0.4,1.3,0.8,1.9c0.3,0.4,0.8,0.7,1.3,0.7c0.3,0.3,0.8,0.4,1.2,0.4
				l0.6-0.1c0.4-0.1,0.8-0.2,1.2-0.3c0.4-0.1,0.8-0.2,1.2-0.3c0.4-0.1,1-0.3,1.5-0.4c0.4-0.1,0.8-0.2,1.3-0.1c0,0,0,0,0.1,0.1
				c0.7,0.5,1.1,1.3,1,2.1c0,0.5-0.2,0.9-0.4,1.4c-0.3,0.6-0.7,1.2-1.2,1.7c-0.3,0.4-0.6,0.7-0.9,1c-0.6,0.4-1.2,0.8-1.9,1
				c-0.7,0.3-1.3,0.6-2,1c-0.4,0.2-0.8,0.6-0.9,1.1c-0.1,0.4-0.2,0.9-0.2,1.3c-0.1,0.9,0.1,1.9,0.5,2.8c0.2,0.4,0.6,0.8,1,0.8
				c0.1,0,0.2,0,0.2,0c0.2,0.2,0.5,0.4,0.8,0.3c0.3,0,0.7-0.1,1-0.3c0.7-0.3,1.3-0.7,1.9-1.1c0.6-0.4,1.2-0.8,1.8-1.3
				c0.3-0.2,0.6-0.5,0.9-0.7c0.4-0.2,0.7-0.5,1-0.8l1-0.8c0.5-0.5,1.1-1,1.6-1.5c0.1-0.1,0.2-0.2,0.3-0.3l1.1,1.2v0.5
				c-0.1,0.9-0.1,1.9,0.1,2.8c0.1,0.7,0.6,1.4,1.2,1.8c0.6,0.3,1.3,0.5,2,0.5v0.2c-0.1,0.8-0.1,1.7-0.1,2.5c0,0.4-0.2,0.7-0.5,0.9
				c-0.3,0.2-0.5,0.2-0.6-0.2c-0.1-0.4-0.1-0.8,0-1.1c0.1-0.3,0.1-0.6,0-0.9c-0.1-0.3-0.4-0.4-0.7-0.3c-0.1,0-0.1,0.1-0.2,0.1
				c-0.3,0.3-0.5,0.6-0.5,1c-0.1,0.5-0.4,0.9-0.7,1.2c-0.1,0.1-0.2,0.2-0.2,0c-0.1-0.4-0.2-0.7-0.3-1.1c-0.1-0.3-0.1-0.7,0.1-1
				c0.1-0.2,0.2-0.4,0.1-0.7c0-0.1,0-0.2-0.2-0.3c-0.2,0-0.2,0.1-0.2,0.2c-0.3,0.5-0.4,1.1-0.3,1.7c0.1,0.4,0.2,0.8,0.4,1.2
				c0.2,0.3,0.1,0.7-0.2,0.9l-0.2,0.2c-0.1,0.1-0.2,0.2-0.2,0.4c0,0.2-0.1,0.3,0.1,0.4c0.2,0.1,0.3,0,0.4-0.2
				c0.1-0.1,0.1-0.1,0.2-0.2c0.2-0.4,0.5-0.8,0.7-1.1c0.1-0.1,0.1-0.2,0.2-0.3c0,0.1,0,0.2,0,0.3c0,0.2,0.1,0.5,0.2,0.7
				c0.1,0.2,0.2,0.2,0.4,0.1c0.3-0.2,0.5-0.4,0.6-0.7c0.1-0.2,0.2-0.3,0.3-0.5c0,0.1,0.1,0.2,0.1,0.3c0,0.3,0.3,0.5,0.6,0.4
				c0.1,0,0.2-0.1,0.3-0.2c0.1-0.1,0.3-0.2,0.3-0.4c0,0,0-0.1,0.1-0.1s0.1,0.3,0.1,0.4c0,0.1,0.1,0.3,0.1,0.4
				c0.1,0.3,0.4,0.4,0.7,0.3c0.1,0,0.2-0.1,0.3-0.2c0.2-0.2,0.2-0.2,0.4,0s0.2,0.4,0.5,0.4c0.3,0,0.6-0.1,0.8-0.4
				c0.4-0.5,0.5-1,0.5-1.6c0,0,0-0.1,0-0.1s0.1,0,0.1,0c0.1,0.1,0.2,0.1,0.3,0.1c0.3,0.1,0.3,0.1,0.3,0.4v0.1c0,0.4,0,0.8,0.1,1.2
				c0,0.1,0,0.1,0.1,0.2s0.1,0,0.2-0.1c0.1-0.2,0.3-0.4,0.4-0.6c0.1-0.3,0.3-0.6,0.5-0.9c0-0.1,0.1-0.1,0.2-0.1
				c0.1,0,0.1,0.1,0.1,0.2c0,0.1,0,0.1,0.1,0.2c0,0.4,0.1,0.8,0.3,1.1c0.1,0.2,0.3,0.4,0.6,0.3c0,0,0.1,0,0.1-0.1
				c0.2-0.1,0.4-0.2,0.5-0.4c0.3-0.3,0.5-0.7,0.7-1.1c0-0.1,0-0.1,0-0.2s-0.1,0-0.1,0.1c0,0.1-0.1,0.1-0.1,0.2
				c-0.2,0.3-0.5,0.6-0.8,0.9c-0.1,0.1-0.3,0.1-0.4,0c0,0-0.1-0.1-0.1-0.2c0-0.1-0.1-0.3-0.1-0.4c0-0.3-0.1-0.6-0.1-0.9
				c-0.1-0.2-0.1-0.3-0.3-0.4c-0.2,0-0.3,0.1-0.5,0.2c-0.1,0.2-0.4,0.6-0.6,1c0,0.1-0.1,0.2-0.2,0.2c0-0.4-0.1-0.8,0.2-1.1
				c0-0.1,0.1-0.1,0.1-0.2v-0.1c-0.2,0-0.1-0.2-0.2-0.2s0-0.1-0.1-0.1c-0.1,0-0.1,0-0.2,0.1c0,0.1-0.1,0.1-0.1,0.2
				c0,0.1-0.1,0.2-0.2,0.2c-0.4-0.1-0.8-0.3-1-0.7c-0.2-0.3-0.4-0.4-0.7-0.1c-0.4,0.4-0.6,1-0.7,1.5c-0.1,0.3-0.2,0.5-0.4,0.7
				c-0.3,0.3-0.6,0.2-0.8-0.1c0-0.1-0.1-0.2-0.1-0.2c-0.1-0.3-0.1-0.6,0-0.9c0-0.1,0.1-0.3,0-0.4c-0.1,0-0.1-0.1-0.1-0.2
				c0-0.3,0-0.5,0-0.8c0.1-0.5,0.1-1,0.1-1.5c1.1,0.1,2.2-0.2,3.2-0.8c0.8,0.4,1.7,0.7,2.6,1c0.9,0.3,1.8,0.5,2.7,0.6
				c0.5,0.1,1.1,0.2,1.6,0.2c0,0.7-0.1,1.3-0.2,2c-0.1-0.2-0.1-0.3-0.2-0.5c0-0.1-0.1-0.2-0.2-0.2c-0.2,0-0.5,0.1-0.6,0.2
				c-0.1,0.1-0.2,0.3-0.3,0.5c-0.3,0.6-0.5,1.2-0.5,1.8c0,0.4,0.2,0.6,0.7,0.4c0.4-0.2,0.7-0.6,0.9-1c0.1-0.2,0.2-0.3,0.3-0.5
				c0,0.1,0,0.2,0,0.2c0,0.3,0.1,0.6,0.2,0.8c0.1,0.2,0.3,0.3,0.5,0.1l0.3-0.3c0,0,0.1-0.1,0.2-0.1c0.1,0,0.1,0.1,0.1,0.2
				c0,0.4,0.4,0.6,0.8,0.6c0.1,0,0.1,0,0.2,0c0.1,0,0.2-0.1,0.3-0.1c0.6-0.4,1.1-1,1.4-1.6c0-0.1,0-0.1,0-0.2
				c-0.1,0-0.1,0.1-0.2,0.2c-0.3,0.4-0.6,0.7-0.9,1c-0.2,0.2-0.5,0.3-0.8,0.4c-0.2,0-0.4-0.1-0.5-0.3c-0.1-0.2,0-0.4,0.1-0.5
				c0.1-0.1,0.2-0.2,0.3-0.4c0.3-0.3,0.5-0.6,0.5-1c0-0.2-0.1-0.5-0.2-0.6c-0.2,0-0.5,0.1-0.6,0.3c-0.2,0.3-0.4,0.6-0.5,1
				c0,0.4-0.3,0.8-0.7,1c-0.1,0.1-0.2,0-0.2-0.1c0-0.3,0-0.7,0-1c0-0.8,0.1-1.6,0.3-2.3c0.3,0,0.6,0,0.9,0c1.7,0,3.3-0.1,5-0.5
				c0.8-0.2,1.6-0.4,2.3-0.6c0.9-0.3,1.7-0.6,2.5-1c0.8-0.4,1.6-0.8,2.3-1.3c1.1-0.7,2.1-1.5,3.1-2.4c0.9-0.8,1.7-1.7,2.4-2.6
				c0.3-0.4,0.6-0.8,0.9-1.2c0,1.4,0,2.8,0.2,4.2c0.1,0.7,0.2,1.4,0.4,2c0.2,0.6,0.7,1,1.4,1c0.6,0.1,1.2,0.1,1.8-0.1
				c0.1,0,0.3,0,0.4-0.1c0.9-0.2,1.8-0.5,2.6-0.9c0.6-0.3,1.2-0.7,1.7-1.2c0.3-0.3,0.5-0.7,0.4-1.2c0-0.2-0.1-0.4-0.2-0.5
				c-0.3-0.5-0.6-1-0.9-1.5c-0.6-0.8-1.1-1.6-1.5-2.5c-0.2-0.6-0.4-1.2-0.6-1.9c-0.3-1.2-0.7-2.5-1-3.8c-0.2-0.9-0.4-1.9-0.6-2.8
				c-0.1-0.8-0.2-1.6-0.2-2.4C139.9,39.8,140,39.4,140.3,39.1L140.3,39.1L140.3,39.1z M135.9,61.2L135.9,61.2c0,0.1,0,0.1,0,0.2
				c-0.2,0.6-0.3,1.1-0.4,1.7c-0.1,0.4,0,0.9,0.1,1.3c0.1,0.2,0.2,0.3,0.4,0.1c0.2-0.2,0.4-0.4,0.5-0.7c0.1-0.3,0.3-0.6,0.4-0.9
				c0,0.1,0,0.2,0.1,0.3c0.1,0.2,0.1,0.5,0.4,0.5s0.4-0.2,0.6-0.3c0.4-0.7,0.7-1.4,0.9-2.2c0.1-0.2,0.1-0.5,0-0.7l-0.1,0.2
				c-0.2,0.5-0.4,1-0.6,1.5c-0.1,0.2-0.3,0.5-0.4,0.7c-0.2,0.1-0.3,0.1-0.4-0.1c-0.1-0.1-0.1-0.3-0.1-0.4c0-0.6,0-1.2,0.1-1.8
				c0-0.3,0-0.5-0.1-0.8c0-0.1-0.1-0.2-0.3-0.2c0,0,0,0-0.1,0c-0.2,0.1-0.4,0.2-0.4,0.4c-0.1,0.3-0.3,0.5-0.6,0.6l-0.6,0.3
				c-0.2,0.1-0.2,0.1-0.2-0.2c0-0.5,0.1-1.1,0.2-1.6c0-0.3,0.1-0.5,0.1-0.8c0-0.1,0-0.2-0.1-0.2s-0.1,0.1-0.2,0.2s-0.1,0.3-0.1,0.5
				c-0.1,0.7-0.2,1.5-0.3,2.2c0,0.1-0.1,0.3-0.2,0.3l-0.4,0.2c-0.1,0-0.2,0.1-0.2,0.2s0,0.3,0.1,0.4c0.1,0.1,0.1,0,0.2,0
				c0.1,0,0.2-0.1,0.3-0.1c-0.2,0.5-0.5,0.9-0.7,1.4c-0.1,0.1-0.1,0.2-0.2,0.2c-0.1,0-0.1-0.2-0.1-0.3c-0.1-0.4-0.4-0.8-0.2-1.2l0,0
				c-0.1-0.1,0-0.2,0-0.4s0.1-0.2,0.2-0.3c0.1-0.2,0.1-0.4,0.1-0.7c0-0.2-0.1-0.2-0.3,0l-0.1,0.1c-0.2,0.4-0.4,0.9-0.4,1.4
				c0,0.4-0.1,0.7-0.3,1c-0.1,0.1-0.1,0.2-0.2,0.3c-0.2,0.3-0.5,0.6-0.8,0.8c-0.2,0.1-0.4,0.1-0.6,0c-0.1-0.2-0.2-0.5-0.1-0.7
				c0.2-0.2,0.3-0.5,0.5-0.7c0.4-0.5,0.5-1.1,0.5-1.7c0-0.2,0-0.4-0.2-0.5s-0.3,0.1-0.5,0.3c-0.3,0.5-0.5,1.1-0.6,1.7
				c0,0.4-0.1,0.7-0.3,1c-0.2,0.3-0.4,0.6-0.7,0.8c-0.2,0.2-0.4,0.1-0.4-0.2s0-0.4-0.1-0.6c0-0.5,0.1-1,0.1-1.6c0-0.1,0.1-0.2,0-0.3
				c-0.1,0-0.2,0.1-0.3,0.2c0,0,0,0.1,0,0.1c0,0.4-0.3,0.4-0.6,0.5h-0.3c-0.2,0-0.2,0-0.2-0.2c0-0.5,0.1-1,0.3-1.5
				c0-0.2,0.1-0.4,0.2-0.5c0,0,0.1-0.1,0.1-0.1s0.1,0.1,0.1,0.1c0,0.1,0,0.3,0,0.4c0,0.2,0,0.3,0,0.5c0.1,0,0.1-0.1,0.1-0.1
				c0.1-0.3,0.2-0.6,0.2-0.9c0-0.1,0-0.2-0.1-0.3c-0.1-0.1-0.2-0.2-0.4-0.2c0,0,0,0-0.1,0c-0.1,0.1-0.2,0.2-0.3,0.4
				c-0.3,0.5-0.4,1.1-0.5,1.6c0,0.3-0.2,0.7-0.3,0.9c-0.1,0.1-0.1,0.3,0,0.5c0,0.1,0,0.2,0,0.2c-0.1,0.7-0.2,1.4-0.3,2.1
				c0,0.2-0.1,0.5-0.2,0.7c0,0.1-0.1,0.2-0.2,0.2c-0.1,0-0.2,0-0.2,0.1c-0.1,0.1-0.1,0.3,0,0.4c0.1,0.1,0.2,0.1,0.3,0
				c0.1-0.1,0.2-0.2,0.2-0.3c0.2-0.4,0.3-0.8,0.4-1.3c0.1-0.7,0.2-1.4,0.2-2.1c0-0.1,0-0.2,0.1-0.2c0.3,0,0.6-0.1,0.9-0.2l0,0
				c0,0.1,0,0.1,0,0.2c-0.1,0.6,0,1.2,0.2,1.7c0.2,0.4,0.4,0.5,0.8,0.2l0.1-0.1c0.2-0.3,0.4-0.5,0.6-0.8c0-0.1,0.1-0.1,0.2-0.2
				c0,0.2,0,0.3,0.1,0.5c0,0.3,0.3,0.6,0.6,0.5c0.2,0,0.3-0.1,0.4-0.2c0.3-0.2,0.5-0.5,0.7-0.8c0.2-0.4,0.4-0.7,0.5-1.1
				c0.1,0.3,0.2,0.6,0.2,0.8c0.1,0.3,0,0.7-0.3,0.9l-0.4,0.3c-0.1,0.1-0.2,0.3-0.2,0.5c0,0.1,0.1,0.2,0.2,0.2c0,0,0.1,0,0.1,0
				c0.2-0.1,0.3-0.2,0.4-0.4c0.4-0.6,0.8-1.2,1.1-1.8c0.2-0.3,0.4-0.7,0.5-1c0,0.1,0,0.1,0,0.2c0,0.3-0.1,0.7-0.1,1
				c-0.1,0.5-0.1,1,0,1.4c0,0.1,0,0.3,0.2,0.3s0.2-0.1,0.3-0.2c0-0.1,0-0.2,0-0.3c-0.1-0.1-0.1-0.3-0.1-0.4c0-0.9,0.2-1.8,0.3-2.7
				c0-0.1,0-0.1,0.1-0.1C135.3,61.5,135.6,61.3,135.9,61.2z M99.9,61.9c-0.1,0.1-0.1,0.2-0.1,0.3c-0.1,0.3-0.3,0.7-0.4,1
				c-0.1,0.2-0.2,0.3-0.3,0.4c-0.2,0.2-0.4,0.1-0.5-0.1c-0.1-0.2-0.1-0.5-0.2-0.7c0-0.6,0-1.2,0-1.8c0-0.4,0-0.9,0.1-1.3
				c0-0.7,0.1-1.4,0.2-2.1c0-0.1,0-0.2,0-0.3c0,0-0.1-0.1-0.1-0.1s-0.1,0-0.1,0.1c0,0.1-0.1,0.2-0.1,0.3c-0.1,1.2-0.2,2.5-0.2,3.7
				c0,0.4-0.1,0.8-0.3,1.2c-0.2,0.3-0.4,0.6-0.7,0.9c-0.2,0.1-0.4,0.1-0.5,0c-0.3-0.3-0.4-0.8-0.2-1.2c0.3-0.4,0.5-0.8,0.7-1.3
				c0.2-0.6,0.2-1.3,0-1.9c0-0.1-0.1-0.3-0.2-0.3c-0.2,0-0.2,0.1-0.3,0.2c-0.1,0.2-0.2,0.3-0.2,0.5c-0.3,1.1-0.4,2.3-0.3,3.5
				c0,0.3,0.1,0.7,0.3,1c0.1,0.3,0.4,0.4,0.7,0.3c0.1,0,0.2-0.1,0.2-0.2c0.3-0.3,0.5-0.6,0.7-0.9c0.1-0.2,0.2-0.3,0.3-0.5
				c0,0.1,0,0.2,0,0.2c0,0.4,0.1,0.8,0.3,1.2c0.2,0.4,0.6,0.5,0.9,0.1c0.1-0.1,0.1-0.2,0.2-0.3c0.2-0.4,0.4-0.7,0.5-1.2
				C99.9,62.5,99.9,62.2,99.9,61.9L99.9,61.9z M124.2,63.8c0,0.2,0.1,0.4,0.1,0.6c0.1,0.5,0.4,0.6,0.7,0.3c0.5-0.4,0.9-0.9,1.1-1.5
				c0.1-0.2,0.1-0.3,0.1-0.5c-0.1,0.2-0.3,0.4-0.4,0.6c-0.2,0.4-0.5,0.7-0.8,1c-0.3,0.2-0.4,0.2-0.5-0.2c-0.1-0.5-0.1-1,0-1.4
				c0-0.1,0.1-0.3,0-0.3s-0.2,0.2-0.2,0.3c-0.2,0.4-0.3,0.9-0.5,1.3c-0.2,0.4-0.4,0.7-0.7,1c-0.1,0.1-0.2,0.1-0.2,0.1
				c-0.1,0-0.1-0.1-0.1-0.2c0-0.6,0.2-1.2,0.4-1.7c0,0,0-0.1,0-0.1c0-0.1,0-0.1-0.1-0.1s-0.4-0.1-0.5,0.2l0,0
				c-0.2,0.1-0.5,0.1-0.7,0.1c-0.1,0-0.2,0-0.1-0.1l0.1-0.4c0.1-0.3,0.2-0.7,0.2-1c0-0.1,0-0.2-0.1-0.2s-0.2,0.1-0.2,0.2
				c0,0,0,0.1,0,0.2c-0.1,0.3-0.1,0.7-0.2,1.1c-0.1,0.7,0,0.6-0.7,0.7c-0.1,0-0.2,0-0.2,0.2c0,0.1,0.1,0.2,0.2,0.2s0.2,0,0.3,0
				s0.2,0,0.2,0.2l-0.1,0.3c-0.1,0.4-0.2,0.8-0.2,1.2c0,0.2,0,0.3,0.1,0.5c0.1,0.1,0.2,0.1,0.3,0c0.1-0.1,0.1-0.2,0-0.3
				c-0.1-0.1-0.1-0.2-0.1-0.3c0-0.5,0.1-0.9,0.2-1.4c0-0.3,0.2-0.5,0.4-0.5c0.6-0.1,0.6-0.1,0.5,0.5c-0.1,0.3-0.1,0.7-0.1,1
				c0,0.4,0.3,0.6,0.6,0.3c0.2-0.1,0.4-0.3,0.5-0.5C123.8,64.5,123.9,64.1,124.2,63.8L124.2,63.8z M107.9,61.3c0,0.1,0,0.2,0.1,0.2
				s0.1,0,0.1,0c0.3-0.2,0.6-0.5,0.9-0.7c0,0,0,0,0.1-0.1c0-0.1,0-0.2-0.1-0.3c-0.1-0.1-0.1,0-0.1,0c-0.3,0.2-0.6,0.4-0.8,0.7
				C107.9,61.2,107.9,61.2,107.9,61.3z M124.5,60.9c0-0.1,0-0.2-0.1-0.2s-0.1,0-0.1,0l-0.8,0.8c-0.1,0.1-0.1,0.2-0.1,0.3
				c0,0.1,0,0.2,0.1,0.2c0.1,0,0.1,0,0.2-0.1l0.9-0.9C124.5,61.1,124.5,61,124.5,60.9z M129.7,59.8c0-0.1,0-0.2-0.1-0.2
				c-0.1-0.1-0.2,0-0.3,0.2c-0.1,0.1-0.2,0.3-0.2,0.4c0,0.1-0.1,0.2,0.1,0.3c0.1,0.1,0.3,0,0.4-0.1C129.7,60.2,129.7,60,129.7,59.8
				L129.7,59.8z"/>
			<path id="_Path_" class="st1" d="M98.2,16.7c-0.3,0-0.5,0.1-0.7,0.2c-0.6,0.4-1.2,0.9-1.7,1.4c-0.4,0.4-0.9,0.8-1.4,1.2
				c-0.4,0.3-0.7,0.6-0.9,1c-0.1,0.2-0.2,0.3-0.4,0.5c-0.2,0.3-0.6,0.3-0.9,0.1l-0.2-0.2c0,0-0.1-0.1-0.1-0.1
				c-0.4-0.4-0.8-0.9-1.1-1.4c-0.6-0.9-1.2-1.8-1.6-2.8c-0.4-0.7-0.6-1.4-0.8-2.2c-0.1-0.3,0.1-0.6,0.4-0.8c0.5-0.3,1.1-0.5,1.7-0.7
				c0.9-0.3,1.9-0.6,2.8-0.8c0.9-0.3,2.2-0.6,3.2-1c0.9-0.3,1.7-0.8,2.4-1.3c0.4-0.3,0.8-0.6,1.2-0.9s1-0.9,1.6-1.3
				c0.7-0.7,1.6-1.2,2.6-1.5c0.5,0,1.1,0.2,1.4,0.6c0.8,0.7,1.5,1.6,2,2.6c0.4,0.6,0.6,1.3,0.8,2c0,0.1,0,0.2,0.1,0.3
				c0.1,0.6-0.1,0.8-0.7,1c-0.5,0.1-1,0.2-1.5,0.2c-0.6,0-1.2,0.1-1.8,0.2c-0.1,0-0.3,0.1-0.4,0.2c-0.5,0.2-0.7,0.7-0.5,1.2
				c0,0,0,0,0,0.1c0.2,0.5,0.4,1,0.7,1.4c0.6,0.9,1.3,1.7,2,2.6l1.3,1.6c0,0,0.1,0.1,0.1,0.2c0,0.1,0.1,0.1,0.1,0.2
				c0.1,0.4,0.2,0.7,0.3,1c0.2,0.5,0.3,1.1,0.6,1.6c0.3,0.7,0.7,1.3,1,2c0.2,0.4,0.5,0.9,0.8,1.3c0.1,0.1,0.2,0.3,0.2,0.5
				c0,0.4,0,0.9,0,1.3c0,0.3,0,0.7-0.1,1c-0.1,0.7-0.2,1.3-0.4,2c-0.2,0.8-0.5,1.5-0.9,2.2c-0.2,0.3-0.4,0.6-0.5,0.9
				c-0.1,0-0.2-0.1-0.3-0.1s-0.3,0.1-0.4,0.2c0,0-0.1,0-0.1,0c-0.2-0.2-0.5-0.1-0.7,0.1c0,0,0,0,0,0c-0.1,0.1-0.2,0.3-0.3,0.4
				c-0.2,0.4-0.4,0.9-0.5,1.3c-0.3,0.1-0.7,0.2-1,0.3l-1,0.2c-0.6,0.1-1.2,0.2-1.8,0.2c-1,0.1-1.9,0-2.9,0c0,0,0-0.1,0-0.1
				c0-0.8-0.1-1.5-0.4-2.2c-0.2-0.5-0.6-0.8-1.1-0.8c-0.1-0.1-0.2,0-0.3-0.1c-0.3-0.2-0.6-0.3-0.9-0.3c-0.1,0-0.2,0-0.2-0.2
				c0.2-1.1,0.5-2.2,1.1-3.2c0.2-0.4,0.6-0.6,1-0.6c0.6,0.1,1.3,0.2,1.8,0.5v0.1c0.2,0,0.4,0.3,0.6,0.2c0.6,0.2,1.1,0.5,1.7,0.7
				l0.5,0.1c0.4,0.2,0.9,0,1.1-0.4c0.2-0.3,0.3-0.6,0.4-0.9c0.2-0.8,0.2-1.7,0.1-2.5c-0.1-1.1-0.5-2.2-0.9-3.2
				c-0.5-1.1-1.1-2.1-1.7-3.1c-0.6-1-1.3-1.9-2-2.8c-0.4-0.5-0.9-0.9-1.4-1.2C98.7,16.6,98.4,16.6,98.2,16.7z"/>
			<path id="_Path_2" class="st2" d="M98,33.5c0.5,0,0.9,0.4,1.1,0.8c0.3,0.7,0.4,1.5,0.4,2.2c0,0,0,0.1,0,0.1c0,0.1,0,0.1,0,0.2
				c0,0.5,0,0.9-0.1,1.4c-0.1,0.4-0.4,0.8-0.8,1c-0.5,0.1-1,0.1-1.4,0.1c-0.6,0-1.2-0.1-1.8-0.1c-0.6-0.1-1.2-0.1-1.9,0
				c-0.3,0.1-0.5,0.2-0.7,0.4c-0.4,0.4-0.6,1-0.7,1.5c-0.1,0.3-0.1,0.7,0.1,1c0.1,0.1,0.2,0.2,0.3,0.3c0.3,0.1,0.5,0.1,0.8,0
				c0.5-0.1,1-0.3,1.4-0.4c0.8-0.3,1.7-0.6,2.5-0.9c0.6-0.2,1.3-0.2,1.9-0.3c0.2,0,0.4,0.1,0.7,0.1c0.8,0.2,1.5,0.6,2.1,1
				c0.3,0.2,0.7,0.5,1,0.8c0.5,0.5,0.9,1,1.3,1.5c0.3,0.5,0.5,1,0.5,1.6c0.1,1.3-0.2,2.5-0.7,3.7c-0.1,0.2-0.2,0.5-0.3,0.7
				c-0.1,0-0.1,0.1-0.2,0.2c-0.1,0-0.1,0.1,0,0.2c0,0,0,0,0,0c-0.2,0.3-0.4,0.6-0.6,0.9c-0.4,0.5-0.8,1-1.2,1.5
				c-0.1,0.1-0.2,0.2-0.3,0.4c-0.1,0.2-0.2,0.2-0.3,0.3c-0.5,0.5-1.1,1-1.6,1.5l-1,0.8c-0.3,0.3-0.6,0.6-1,0.8
				c-0.3,0.2-0.6,0.5-0.9,0.7c-0.6,0.4-1.2,0.8-1.8,1.3c-0.6,0.4-1.2,0.8-1.9,1.1c-0.3,0.2-0.7,0.3-1,0.3c-0.3,0-0.6-0.1-0.8-0.4
				c-0.1-0.1-0.1-0.1-0.2-0.2c-0.4-0.7-0.6-1.6-0.6-2.4c0-0.5,0-1,0.1-1.5c0-0.3,0.1-0.6,0.3-0.8c0.3-0.3,0.6-0.5,0.9-0.7
				c0.7-0.4,1.5-0.8,2.2-1.1c0.5-0.2,0.9-0.5,1.3-0.8c0.4-0.3,0.7-0.6,1-1c0.7-0.8,1.2-1.6,1.6-2.6c0.3-0.8,0.1-1.7-0.5-2.3
				c-0.4-0.4-0.9-0.7-1.4-0.8c-0.4,0-0.9,0-1.3,0.1c-0.5,0.1-1,0.3-1.5,0.4s-0.8,0.3-1.2,0.3c-0.4,0.1-0.8,0.2-1.2,0.3l-0.6,0
				c-0.4,0-0.9-0.1-1.2-0.4c0,0,0,0,0-0.1c-0.3-0.3-0.6-0.6-0.8-1.1c-0.4-0.9-0.6-1.9-0.6-3c-0.1-0.9,0-1.8,0.3-2.6
				c0.1-0.4,0.3-0.7,0.6-1.1c0.4-0.6,1-1.1,1.6-1.5c0.5-0.4,1.1-0.8,1.6-1.1c0.5-0.4,1-0.6,1.6-0.9c0.8-0.5,1.6-0.9,2.5-1.2
				c0.6-0.2,1.1-0.4,1.7-0.4C97.4,33.5,97.7,33.5,98,33.5z"/>
			<path id="_Path_3" class="st1" d="M138.7,9.9c0.8,0,1.6,0.2,2.4,0.4c0.5,0.2,0.8,0.8,0.6,1.3c0,0,0,0,0,0
				c-0.2,0.6-0.5,1.2-0.7,1.8c-0.4,1-0.7,2.1-0.8,3.2c-0.1,1.1-0.3,2.2-0.4,3.2s-0.2,1.9-0.3,2.8c-0.2,1.9-0.6,3.8-1.2,5.7
				c-0.4,1.1-0.9,2.2-1.4,3.3c0,0.1-0.1,0.2-0.1,0.2c-0.1,0.1-0.2,0.2-0.2,0.4c-0.3,0.7-0.7,1.3-1,1.9c-0.1,0.1-0.2,0.2-0.2,0.4
				c-0.2,0-0.4,0-0.6,0c-0.3,0.1-0.7,0.1-1,0.1s-0.5,0.2-0.8,0.2c-0.2,0-0.3,0-0.5,0.1l-0.9,0.2c-0.3,0.1-0.6,0.1-0.8,0.2
				c-0.3,0-0.6,0.1-0.9,0.3c-0.3,0.1-0.5,0.3-0.7,0.5c-0.3,0.5-0.3,1-0.1,1.5c0.1,0.5,0.3,1,0.6,1.5c0.3,0.5,0.5,1,0.7,1.5
				c-0.1,0-0.1,0.1-0.2,0.1c-0.4,0-0.8,0-1.1-0.1c-0.1-0.1-0.2-0.1-0.4-0.1c0,0,0,0,0-0.1c-0.2-0.1-0.4-0.2-0.6-0.3
				c-0.5-0.3-0.9-0.6-1.3-1c-0.3-0.3-0.6-0.6-0.9-0.9c-0.1-0.1-0.2-0.2-0.3-0.4c0,0,0,0-0.1,0c-0.1,0-0.2-0.2-0.2-0.2
				c-0.3-0.3-0.5-0.8-0.8-1.1c-0.1-0.2-0.1-0.4,0-0.7c0.1-0.2,0.3-0.3,0.5-0.4c0.1-0.1,0.3-0.2,0.5-0.2c0.1,0,0.2,0,0.4-0.1
				c0.3-0.1,0.6-0.3,0.9-0.3c0.3-0.1,0.6-0.2,0.9-0.4c0,0,0,0,0.1,0c0.3-0.1,0.6-0.3,0.9-0.4s0.4-0.3,0.6-0.3c0,0,0-0.1,0-0.1
				c0.1-0.1,0.3-0.2,0.4-0.2c0.2-0.1,0.4-0.1,0.6-0.2c0.3-0.2,0.6-0.2,0.9-0.4c0.3-0.2,0.8-0.5,1.3-0.7c0.1,0,0.1-0.1,0.1-0.1
				c0.3-0.1,0.5-0.3,0.6-0.6c0.3-0.4,0.5-0.8,0.5-1.3c0-0.6-0.1-1.2-0.2-1.7c-0.1-0.4-0.3-0.8-0.4-1.2c-0.3-0.7-0.6-1.3-0.9-1.9
				c-0.1-0.2-0.2-0.5-0.4-0.7c-0.3-0.4-0.5-0.9-0.8-1.2c-0.3-0.4-0.5-0.6-0.7-0.9s-0.7-0.7-1-1.1s-0.6-0.6-1-1
				c-0.6-0.5-1.1-1.1-1.6-1.6c-0.3-0.3-0.6-0.6-0.9-1c-0.3-0.3-0.4-0.6-0.5-1c0-0.3,0-0.5,0.3-0.7s0.3-0.3,0.6-0.2
				c0,0,0.1,0,0.1-0.1c0.1-0.1,0.1-0.2,0.3-0.2c0.2-0.1,0.4-0.2,0.6-0.4c0.4-0.2,0.7-0.4,1.1-0.6c0.3-0.1,0.6-0.3,0.9-0.5
				c0.1-0.1,0.2-0.1,0.3-0.2s0.3-0.3,0.4-0.5l0.3-0.2c0.4-0.2,0.8-0.1,1.1,0.2c0.3,0.4,0.6,0.9,0.8,1.3c0.6,1.4,1.1,2.9,1.6,4.3
				c0,0.1,0.1,0.3,0.2,0.4c0.1,0.1,0.1,0.4,0.2,0.5c0.1,0.3,0.3,0.5,0.5,0.7c0.1,0.2,0.2,0.1,0.4,0.1s0.1-0.1,0.1-0.2
				c0-0.1,0.1-0.5,0.2-0.7c0.1-0.3,0.2-0.7,0.2-1c0.1-0.6,0.2-1.2,0.2-1.9l0,0c0-0.5,0.1-1,0.1-1.6c0.1-0.6,0-0.8,0.1-1.2
				c0.1-0.5,0-1.1-0.2-1.6c-0.2-0.6-0.5-1.1-0.8-1.6c-0.1-0.2-0.1-0.5,0.1-0.8c0.1-0.1,0.3-0.2,0.5-0.3c0.2-0.1,0.5-0.1,0.7-0.1h0.2
				c0.3-0.1,0.7-0.1,1-0.2c0.4,0,0.9,0,1.3,0C138.6,9.9,138.7,10,138.7,9.9z"/>
			<path id="_Compound_Path_2" class="st2" d="M117,11.8c0.6,0,1.3,0.1,1.8,0.5c1.9,1,3.6,2.2,5.2,3.6c0,0,0,0,0,0.1l-0.2,0.2
				c-0.2,0.1-0.2,0.4-0.2,0.6c0.1,0.4,0.3,0.8,0.6,1.2c0.6,0.7,1.3,1.5,2,2.1c0.4,0.4,0.7,0.7,1.1,1.1c0,0.2,0,0.4,0.1,0.6
				c0.1,0.4,0.1,0.9,0.1,1.3c0,0.1,0,0.1,0,0.2c0,1.1-0.1,2.2-0.4,3.3c0,0,0,0,0,0.1c-0.1,0.5-0.3,1-0.6,1.4c-0.4,0.7-1,1.4-1.6,2.1
				c-0.6,0.7-1.3,1.3-2,1.8c-0.4,0.3-0.8,0.6-1.2,0.9c-0.1,0.1-0.3,0.1-0.5,0.3s-0.1,0-0.2,0c-0.4,0.2-0.7,0.3-1.1,0.4
				c-0.2,0-0.4,0.1-0.7,0.1c-0.1,0-0.3,0-0.4,0c-0.3-0.1-0.6-0.1-1-0.2s-0.4-0.2-0.6-0.4c-0.9-0.6-1.7-1.3-2.4-2.1
				c-0.8-1-1.6-2-2.4-3c-0.8-1.2-1.6-2.4-2.2-3.7c-0.8-1.3-1.3-2.8-1.6-4.4c-0.1-0.6-0.1-1.1,0.1-1.7c0.3-0.7,0.7-1.4,1.3-1.9
				c0.7-0.7,1.4-1.2,2.1-1.8c0.9-0.6,1.9-1.2,2.9-1.8C115.7,12.4,116.3,12,117,11.8z M113.6,20.4c0,0.3,0.1,0.6,0.2,0.9
				c0.2,0.5,0.5,1,0.8,1.4c0.9,1.3,1.8,2.6,2.8,3.8c0.6,0.7,1.2,1.3,1.8,1.9c0.3,0.3,0.7,0.4,1.1,0.1c0,0,0.1-0.1,0.1-0.1
				c0.4-0.3,0.7-0.7,1-1.1c0.7-0.8,1.3-1.7,1.7-2.7c0.3-0.5,0.3-1.2,0.2-1.8c-0.2-0.5-0.4-1-0.8-1.5c-0.9-1.2-1.9-2.2-2.9-3.2
				c-0.6-0.6-1.2-1-1.8-1.5c-0.5-0.4-1.3-0.4-1.8,0c-0.7,0.5-1.3,1.1-1.7,1.7C113.8,19,113.6,19.7,113.6,20.4z"/>
			<path id="_Path_4" class="st2" d="M130.8,35.4c0.3-0.1,0.5-0.2,0.8-0.2l0.9-0.2c0.2,0,0.3-0.1,0.5-0.1c0.3,0,0.5-0.1,0.8-0.1
				c0.3,0,0.7,0,1-0.1c0.2,0,0.4,0,0.6,0c0.2,0,0.3,0,0.5,0c0.6,0,1.1-0.1,1.7-0.1c0.1,0,0.2,0,0.3-0.1c0.3,0,0.7,0,1,0
				c0.7,0,1.3-0.1,2-0.1c0.9-0.1,1.7-0.2,2.6-0.4c0.6-0.2,1.2-0.3,1.8-0.3c0.5,0,0.9,0.3,1.1,0.8c0.3,0.8,0.4,1.6,0.3,2.4
				c0,0.7-0.1,1.5-0.4,2.2c-0.2,0.5-0.6,0.8-1.2,0.7c-0.3,0-0.6-0.1-0.9-0.1c-0.9-0.2-1.7-0.5-2.6-0.6c-0.5-0.1-1,0-1.3,0.2l0,0l0,0
				c-0.2,0.3-0.3,0.6-0.3,0.9c0,0.8,0,1.6,0.1,2.4c0.1,1,0.3,1.9,0.6,2.8c0.3,1.3,0.6,2.5,1,3.8c0.2,0.6,0.4,1.3,0.6,1.9
				c0.4,0.9,0.9,1.7,1.5,2.5c0.3,0.5,0.6,0.9,0.9,1.5c0.1,0.2,0.1,0.3,0.2,0.5c0.1,0.4-0.1,0.9-0.4,1.2c-0.5,0.5-1.1,0.9-1.7,1.2
				c-0.8,0.4-1.7,0.7-2.6,0.9c-0.1,0-0.2,0-0.3,0c-0.4,0.1-0.7,0.1-1.1,0c-0.6,0-1.2-0.4-1.4-1c-0.2-0.5-0.3-0.9-0.3-1.4
				c-0.1-1-0.2-1.9-0.2-2.9c0-1.3,0-2.6,0-3.9c0,0,0-0.1,0-0.1c-0.1-0.7-0.1-1.4-0.2-2.1c-0.1-0.7,0-1.2,0-1.8c0-0.3,0-0.7,0-1
				c0-0.7,0-1.4-0.1-2.1c0-0.4-0.1-0.8-0.3-1.1c-0.1-0.2-0.3-0.4-0.5-0.4c-0.3,0-0.6,0-0.9,0.2c-0.1,0-0.2,0.1-0.3,0.2
				c-0.2,0.1-0.5,0.3-0.7,0.5c-0.2,0.1-0.7,0.4-1,0.6c-0.3,0.2-0.6,0.3-0.9,0.3c0,0,0,0,0-0.1c-0.2,0-0.3-0.2-0.3-0.4s0-0.5,0-0.8
				c0-0.4-0.1-0.8-0.2-1.1c-0.3-0.7-0.7-1.3-0.9-2c-0.2-0.5-0.4-1.1-0.3-1.7c0-0.2,0-0.5,0.2-0.7C130.4,35.7,130.6,35.5,130.8,35.4z
				"/>
			<path id="_Compound_Path_3" class="st1" d="M103.9,49.5c0.5-1.2,0.7-2.4,0.7-3.7c0,0,0,0,0-0.1c0.2-1.2,0.5-2.4,0.8-3.7
				c0.2-0.9,0.4-1.8,0.6-2.7c0.3-1.5,0.8-2.9,1.3-4.4c0.1-0.3,0.3-0.6,0.5-0.9c0.1-0.1,0.3-0.2,0.4-0.2s0.2,0.1,0.3,0.1
				c0.2,0.2,0.4,0.4,0.6,0.6c0.3,0.4,0.6,0.8,1,1.2c0.3,0.3,0.6,0.4,1,0.5c0.2,0,0.4,0.1,0.5,0.1c0.2,0.1,0.6,0.1,0.9,0.2l0.6,0.1
				c0.4,0.1,0.8,0.2,1.1,0.3c0.4,0.1,0.7,0.2,1.1,0.4c0.6,0.3,1.2,0.7,1.6,1.2c0.6,0.7,1.1,1.6,1.2,2.6c0.1,0.8,0.2,1.6,0.1,2.3
				c-0.1,0.5-0.1,0.9-0.1,1.4c-0.1,0.3-0.2,0.7-0.2,1c-0.1,0.6-0.4,1.2-0.8,1.7c-0.7,0.7-1.6,1.2-2.6,1.3h-1.4c-0.1,0-0.2,0-0.4,0
				h-0.2c-0.1,0-0.2,0-0.4-0.1c-0.3,0-0.5,0-0.8-0.1c-0.5-0.1-1.1-0.1-1.6,0c-0.6,0.1-1.1,0.7-1.2,1.3c0,0.6,0,1.3,0.1,1.9
				c0.1,0.8,0.3,1.5,0.4,2.3c0.1,0.6,0.2,1.2,0.4,1.9c0.1,0.7,0.2,1.4,0.2,2.1c0,0,0,0.1,0,0.2c0,0.4-0.3,0.7-0.6,0.9
				c-0.9,0.6-2.1,0.9-3.2,0.8c0-0.1,0-0.2,0-0.3c0-0.1-0.1-0.2-0.2-0.2c-0.1,0-0.1,0.1-0.2,0.2c0,0.1,0,0.2,0,0.3h-0.2
				c-1.1-0.2-1.9-1-2.2-2.1c-0.1-0.8-0.2-1.5-0.1-2.3c0-1,0.1-1.9,0.3-2.9c0.1-0.6,0.2-1.2,0.3-1.8C103.8,50.4,103.9,50,103.9,49.5z
				 M111.3,45.9c0.3,0,0.7,0,1-0.1c0.2,0,0.4-0.1,0.5-0.1c0.5-0.1,0.9-0.5,1.1-0.9c0.6-0.8,0.9-1.8,0.8-2.8c0-0.3-0.2-0.7-0.4-0.9
				c-0.4-0.4-0.9-0.7-1.4-0.9c-0.5-0.3-1.1-0.5-1.7-0.6c-0.5-0.1-1-0.2-1.4-0.2c-0.3,0-0.5,0.1-0.7,0.3c-0.4,0.6-0.7,1.4-0.8,2.1
				c-0.1,0.3-0.1,0.6-0.1,1c-0.1,0.6,0,1.2,0.1,1.8c0,0.2,0.2,0.5,0.4,0.6c0.4,0.3,0.9,0.5,1.5,0.5
				C110.5,45.9,110.9,45.9,111.3,45.9z"/>
			<path id="_Path_5" class="st3" d="M109.2,59.5c0.3-0.2,0.5-0.5,0.6-0.9c0,0,0-0.1,0-0.2c0.1,0.1,0.2,0.2,0.3,0.3
				c0.7,0.6,1.5,1,2.4,1.3c0.8,0.3,1.7,0.5,2.5,0.5c1.1,0.1,2.1-0.1,3.1-0.4c0.8-0.3,1.6-0.7,2.3-1.2c0.7-0.5,1.4-1.1,1.9-1.8
				c0.5-0.7,0.9-1.4,1.2-2.2c0.3-0.9,0.4-1.9,0.4-2.8c0-0.4-0.1-0.7-0.1-1.1c0.5,0.5,1.1,1,1.8,1.3c0.6,0.3,1.1,0.4,1.8,0.5
				c0.4,0.1,0.9,0.1,1.3,0c0.3-0.1,0.7-0.1,1-0.2c0.5-0.2,1.1-0.5,1.5-0.8c0.6-0.5,1.2-1.1,1.6-1.8c0.5-0.8,0.7-1.7,0.7-2.6
				c0-0.9-0.2-1.7-0.5-2.5c-0.3-0.6-0.6-1.1-1.1-1.6c-0.1-0.2-0.3-0.3-0.4-0.4c0,0-0.1,0-0.1-0.1c0-0.1,0.2-0.1,0.3-0.2
				c0.3,0,0.7-0.1,0.9-0.3c0.3-0.2,0.7-0.4,1-0.6s0.5-0.3,0.7-0.5c0.1-0.1,0.2-0.1,0.3-0.2c0.2,0.1,0.3,0.2,0.5,0.3
				c0.2,0.5,0.3,0.9,0.4,1.5c0.1,1.2,0.1,2.3,0.1,3.5c0,0.8,0,1.5,0.1,2.3c0.1,1.1,0.1,2.1,0.1,3.2c-0.3,0.4-0.6,0.8-0.9,1.2
				c-0.7,0.9-1.5,1.8-2.4,2.6c-1,0.9-2,1.7-3.1,2.4c-0.7,0.5-1.5,0.9-2.3,1.3c-0.8,0.4-1.7,0.7-2.5,1c-0.8,0.2-1.6,0.5-2.3,0.6
				c-1.6,0.3-3.3,0.5-5,0.4c-0.3,0-0.6,0-0.9,0c-0.1-0.2-0.2-0.2-0.4,0c-0.5,0-1.1-0.1-1.6-0.2c-0.9-0.1-1.8-0.3-2.7-0.6
				C110.9,60.2,110,59.9,109.2,59.5z"/>
			<path id="_Path_6" class="st4" d="M127.4,21.1c-0.3-0.4-0.7-0.7-1.1-1.1c-0.7-0.7-1.4-1.4-2-2.2c-0.3-0.3-0.5-0.7-0.6-1.1
				c-0.1-0.2,0-0.5,0.2-0.6l0.2-0.2c0.2-0.1,0.5-0.2,0.7-0.3c0.5-0.4,1-0.7,1.6-0.9c0.7-0.3,1.3-0.7,1.8-1.3
				c0.2-0.3,0.6-0.4,0.9-0.3c0.2,0.1,0.4,0.2,0.6,0.4c-0.1,0.2-0.3,0.3-0.4,0.5c-0.1,0.2-0.2,0.1-0.3,0.2c-0.3,0.2-0.6,0.4-0.9,0.5
				c-0.4,0.2-0.8,0.3-1.1,0.6c-0.2,0.1-0.4,0.3-0.6,0.4c-0.1,0-0.2,0.1-0.3,0.2c0,0-0.1,0.1-0.1,0.1c-0.2,0-0.4,0.1-0.6,0.2
				c-0.2,0.1-0.3,0.3-0.3,0.7c0.1,0.4,0.2,0.7,0.5,1c0.3,0.4,0.5,0.7,0.8,1c0.5,0.6,1.1,1.1,1.6,1.6c0.3,0.3,0.7,0.6,1,1
				s0.7,0.7,1,1s0.5,0.6,0.7,0.9c0.2,0.3,0.5,0.9,0.8,1.2c0.2,0.2,0.2,0.5,0.4,0.7c0.4,0.6,0.7,1.2,0.9,1.9c0.2,0.4,0.3,0.8,0.4,1.2
				c0.2,0.5,0.2,1.1,0.2,1.7c0,0.5-0.2,1-0.5,1.3c-0.2,0.2-0.4,0.4-0.6,0.6c-0.1,0-0.1,0.1-0.1,0.1c-0.4,0.2-0.9,0.5-1.3,0.7
				c-0.4,0.3-0.6,0.2-0.9,0.4c-0.2,0.1-0.3,0.2-0.5,0.2c-0.2,0-0.4,0.1-0.5,0.3c0,0,0,0-0.1,0c-0.2,0-0.4,0.2-0.6,0.3
				c-0.2,0.1-0.6,0.4-0.9,0.4c0,0,0,0-0.1,0c-0.3,0.2-0.6,0.3-0.9,0.4c-0.3,0.1-0.6,0.2-0.9,0.3c-0.1,0.1-0.2,0.1-0.4,0.1
				c-0.2,0-0.3,0.1-0.5,0.2c-0.2,0.1-0.4,0.2-0.5,0.4c-0.1,0.2-0.1,0.4,0,0.6c0.3,0.4,0.5,0.8,0.8,1.1c0.1,0.1,0.1,0.2,0.2,0.2
				s0.1,0,0.1,0c0,0.2,0.2,0.2,0.3,0.4c0.3,0.3,0.5,0.6,0.9,0.9c0.4,0.4,0.9,0.7,1.3,1c0.2,0.1,0.4,0.2,0.6,0.3c0,0,0,0,0,0.1
				c-0.6,0.1-1.3,0-1.8-0.3c-0.6-0.3-1.1-0.7-1.6-1.1c-0.7-0.6-1.3-1.3-1.8-2c-0.3-0.3-0.5-0.7-0.5-1.1c0.1-0.2,0.2-0.3,0.4-0.4
				c0.1-0.1,0.3-0.2,0.4-0.2c0.5-0.2,1-0.4,1.5-0.5c0.6-0.2,1.1-0.4,1.6-0.7c0.6-0.3,1.2-0.6,1.8-0.9c0.7-0.3,1.4-0.7,2-1.1
				c0.6-0.3,1.1-0.8,1.3-1.5c0.2-0.7,0.2-1.5,0-2.2c-0.2-0.6-0.4-1.2-0.6-1.8c-0.3-0.7-0.7-1.5-1.2-2.1c-0.1-0.2-0.2-0.4-0.3-0.6
				c-0.4-0.6-0.8-1.1-1.2-1.6C128.2,21.9,127.8,21.5,127.4,21.1z"/>
			<path id="_Path_7" class="st4" d="M117,11.8c-0.7,0.2-1.3,0.5-1.9,0.9c-1,0.6-2,1.1-2.9,1.8c-0.8,0.5-1.5,1.1-2.1,1.8
				c-0.6,0.5-1,1.2-1.3,1.9c-0.2,0.5-0.2,1.1-0.1,1.7c0.3,1.5,0.8,3,1.6,4.4c0.7,1.3,1.5,2.5,2.3,3.7c0.7,1,1.5,2,2.4,3
				c0.7,0.8,1.5,1.5,2.3,2.1c0.2,0.1,0.4,0.2,0.6,0.3c-0.2,0.1-0.4,0.1-0.7,0c-0.3-0.1-0.6-0.2-0.9-0.4c0,0-0.1,0-0.1-0.1
				c-0.5-0.3-1-0.6-1.4-1c-0.3-0.3-0.7-0.6-1-0.9c-0.4-0.5-0.8-0.9-1.2-1.4c-0.7-0.9-1.4-1.9-2.1-2.9c0-0.1-0.1-0.1-0.2-0.1
				c0-0.2-0.1-0.3-0.2-0.5c-0.3-0.4-0.5-0.9-0.8-1.3c-0.4-0.6-0.7-1.3-1-2c-0.2-0.5-0.4-1-0.6-1.5c-0.1-0.3-0.2-0.7-0.3-1
				c0-0.1-0.1-0.1-0.1-0.2c0.1,0,0.1-0.1,0-0.2c-0.2-0.7-0.1-1.5,0.2-2.2c0.3-0.7,0.8-1.2,1.3-1.7c1-0.9,2-1.7,3.2-2.3
				c0.9-0.6,1.8-1.1,2.7-1.6C115.5,11.7,116.3,11.6,117,11.8z"/>
			<path id="_Compound_Path_4" class="st3" d="M135.9,61.2c-0.3,0.1-0.6,0.2-0.8,0.4c-0.1,0-0.1,0.1-0.1,0.1
				c-0.2,0.9-0.3,1.8-0.3,2.7c0,0.2,0,0.3,0.1,0.4c0,0.1,0,0.2,0,0.3c0,0.1-0.1,0.2-0.3,0.2s-0.2-0.2-0.2-0.3c-0.1-0.5-0.1-1,0-1.4
				c0-0.3,0.1-0.7,0.1-1c0-0.1,0-0.1,0-0.2c-0.2,0.3-0.3,0.7-0.5,1c-0.3,0.6-0.7,1.2-1.1,1.8c-0.1,0.2-0.2,0.3-0.4,0.3
				c-0.1,0-0.2,0-0.2-0.1c0,0,0-0.1,0-0.1c0-0.2,0.1-0.4,0.2-0.5l0.4-0.3c0.3-0.2,0.4-0.6,0.3-0.9c-0.1-0.3-0.2-0.5-0.2-0.8
				c-0.2,0.4-0.4,0.7-0.6,1.1c-0.2,0.3-0.4,0.6-0.7,0.8c-0.2,0.2-0.6,0.3-0.8,0.1c-0.1-0.1-0.2-0.2-0.2-0.4c0-0.2-0.1-0.3-0.1-0.5
				c-0.1,0-0.1,0.1-0.2,0.2c-0.2,0.3-0.4,0.6-0.6,0.8l-0.1,0.1c-0.3,0.3-0.6,0.2-0.8-0.2c-0.2-0.5-0.2-1.1-0.1-1.7c0,0,0-0.1,0-0.2
				l0,0c-0.3,0.1-0.6,0.2-0.9,0.2c-0.1,0-0.1,0.1-0.1,0.2c-0.1,0.7-0.2,1.4-0.2,2.1c0,0.4-0.2,0.9-0.4,1.3c-0.1,0.1-0.1,0.2-0.2,0.3
				c-0.1,0.1-0.2,0.1-0.3,0c-0.1-0.1-0.1-0.3,0-0.4c0-0.1,0.1-0.2,0.2-0.1c0.1,0,0.2-0.1,0.2-0.2c0.1-0.2,0.2-0.4,0.2-0.7
				c0.1-0.7,0.2-1.4,0.3-2.1c0-0.1,0-0.2,0-0.2c-0.1-0.2-0.1-0.4,0-0.5c0.1-0.3,0.2-0.6,0.2-0.9c0-0.6,0.2-1.1,0.5-1.6
				c0.1-0.1,0.2-0.3,0.3-0.4c0.1-0.1,0.3-0.1,0.4,0c0,0,0,0,0,0.1c0.1,0.1,0.1,0.2,0.1,0.3c0,0.3-0.1,0.6-0.2,0.9
				c0,0.1-0.1,0.1-0.1,0.1c0-0.2,0-0.4,0-0.5c0-0.1,0-0.3,0-0.4c0,0,0-0.1-0.1-0.1s-0.1,0-0.1,0.1c-0.1,0.2-0.2,0.3-0.2,0.5
				c-0.1,0.5-0.2,1-0.3,1.5c0,0.2,0,0.2,0.2,0.2h0.3c0.3-0.1,0.6-0.1,0.6-0.5c0,0,0-0.1,0-0.1c0.1-0.1,0.1-0.3,0.3-0.2
				c0.2,0,0,0.2,0,0.3c0,0.5-0.2,1-0.1,1.6c0,0.2,0,0.4,0.1,0.6c0.1,0.2,0.2,0.3,0.4,0.2c0.3-0.2,0.5-0.5,0.7-0.8
				c0.2-0.3,0.3-0.6,0.3-1c0.1-0.7,0.4-1.3,0.7-1.8c0.1-0.2,0.2-0.4,0.5-0.3s0.2,0.3,0.2,0.5c0,0.6-0.2,1.2-0.6,1.7
				c-0.1,0.2-0.3,0.5-0.5,0.7c-0.1,0.2-0.1,0.5,0.1,0.7c0.2,0.2,0.3,0.2,0.6,0c0.3-0.2,0.6-0.5,0.8-0.8c0.1-0.1,0.1-0.2,0.2-0.3
				c0.2-0.3,0.3-0.6,0.3-1c0-0.5,0.1-1,0.4-1.4l0.1-0.1c0.1-0.1,0.2-0.1,0.3,0c0.1,0.2,0,0.5-0.1,0.7c0,0.1-0.1,0.2-0.2,0.3
				s-0.2,0.2,0,0.4l0,0c-0.2,0.5,0.1,0.8,0.2,1.2c0,0.1,0,0.3,0.1,0.3s0.2-0.1,0.2-0.2c0.3-0.4,0.5-0.9,0.7-1.4
				c-0.1,0-0.2,0-0.3,0.1c-0.1,0-0.1,0-0.2,0c-0.1,0-0.1-0.3-0.1-0.4c0-0.1,0.1-0.2,0.2-0.2l0.4-0.2c0.1,0,0.2-0.2,0.2-0.3
				c0.1-0.7,0.2-1.5,0.3-2.2c0-0.2,0.1-0.3,0.1-0.5c0-0.1,0.1-0.2,0.2-0.2s0.1,0.1,0.1,0.2c0,0.3,0,0.5-0.1,0.8
				c-0.1,0.5-0.2,1.1-0.2,1.6c0,0.2,0,0.3,0.2,0.2l0.6-0.3c0.3-0.1,0.5-0.3,0.6-0.6c0.1-0.2,0.2-0.3,0.4-0.4c0.1-0.1,0.2,0,0.3,0.1
				c0,0,0,0,0,0.1c0.1,0.3,0.1,0.5,0.1,0.8c-0.1,0.6-0.1,1.2-0.1,1.8c0,0.1,0,0.3,0.1,0.4c0.1,0.2,0.2,0.2,0.4,0.1
				c0.2-0.2,0.3-0.4,0.4-0.7c0.2-0.5,0.4-1,0.6-1.5l0.1-0.2c0.1,0.2,0.1,0.5,0,0.7c-0.2,0.8-0.5,1.5-0.9,2.2
				c-0.1,0.2-0.3,0.4-0.6,0.3s-0.3-0.3-0.4-0.5c0-0.1,0-0.2-0.1-0.3c-0.2,0.3-0.3,0.6-0.4,0.9c-0.1,0.3-0.3,0.5-0.5,0.7
				c-0.2,0.2-0.3,0.2-0.4-0.1c-0.1-0.4-0.2-0.9-0.1-1.3c0.1-0.6,0.2-1.1,0.4-1.7C135.9,61.3,135.9,61.2,135.9,61.2L135.9,61.2
				L135.9,61.2L135.9,61.2z M131,62.8c0.3-0.3,0.5-0.7,0.6-1.2c0-0.1,0-0.3-0.1-0.3s-0.2,0.1-0.2,0.2C131,61.9,130.9,62.3,131,62.8
				L131,62.8L131,62.8L131,62.8z M137,60.9c0-0.2,0-0.3,0-0.5c0-0.2-0.1-0.2-0.2-0.1c-0.1,0.1-0.2,0.2-0.3,0.4
				c-0.2,0.6-0.4,1.1-0.5,1.7c-0.1,0.4-0.1,0.8-0.1,1.2c0,0.1,0,0.1,0.1,0.2c0.1,0,0.1,0,0.2-0.1c0.2-0.2,0.4-0.4,0.5-0.7
				C136.8,62.4,136.9,61.6,137,60.9L137,60.9z"/>
			<path id="_Path_8" class="st3" d="M104,6.1c-1,0.3-1.9,0.7-2.6,1.4c-0.5,0.4-1,0.8-1.6,1.3c-0.6,0.4-0.8,0.6-1.2,1
				c-0.7,0.6-1.6,1-2.4,1.3c-1.1,0.4-2.1,0.7-3.2,1c-1.1,0.3-1.9,0.5-2.8,0.8c-0.6,0.2-1.1,0.5-1.7,0.8c-0.3,0.1-0.4,0.5-0.4,0.8
				c0.1,0.8,0.4,1.5,0.8,2.2c0.5,1,1,1.9,1.6,2.8c0.3,0.5,0.7,1,1.1,1.4c0,0,0.1,0.1,0.1,0.1c-0.3,0.2-0.6,0.2-0.8-0.1
				c-0.5-0.4-0.9-0.9-1.2-1.5c-0.8-1.2-1.5-2.4-2.1-3.6c-0.3-0.5-0.4-1.1-0.5-1.7c0-0.2,0.1-0.5,0.3-0.6c0.6-0.3,1.1-0.6,1.7-0.8
				c0.9-0.3,1.8-0.5,2.7-0.8c1.4-0.3,2.8-0.8,4.2-1.4c0.6-0.3,1.1-0.6,1.6-1c1.1-0.8,2.1-1.7,3.1-2.5c0.5-0.4,1.2-0.8,1.8-1
				c0.4-0.1,0.8-0.1,1.2,0.1C103.8,6.1,103.9,6.1,104,6.1z"/>
			<path id="_Path_9" class="st5" d="M135.9,51.8c0-1.1,0-2.1-0.1-3.2c-0.1-0.8-0.1-1.5-0.1-2.3c0-1.2,0-2.3-0.1-3.5
				c0-0.5-0.2-0.9-0.4-1.4c-0.1-0.2-0.3-0.3-0.4-0.3c0.2-0.2,0.5-0.2,0.8-0.2c0.2,0,0.4,0.2,0.5,0.4c0.2,0.3,0.3,0.7,0.3,1.1
				c0.1,0.7,0.1,1.4,0.1,2.1c0,0.3,0,0.7,0,1c0,0.6,0,1.2,0,1.8s0.1,1.4,0.2,2.1c0,0,0,0.1,0,0.1c0,1.3,0,2.6,0,3.9
				c0,1,0.1,1.9,0.2,2.9c0.1,0.5,0.2,1,0.4,1.5c0.2,0.6,0.7,1,1.3,1.1c0.4,0.1,0.7,0.1,1.1,0c0.1,0,0.2,0,0.3,0
				c-0.1,0.1-0.3,0.1-0.4,0.1c-0.6,0.2-1.2,0.2-1.7,0.2c-0.6,0-1.2-0.4-1.4-1c-0.2-0.6-0.4-1.3-0.4-2
				C135.9,54.6,135.9,53.2,135.9,51.8z"/>
			<path id="_Path_10" class="st4" d="M98,33.5c-0.3,0-0.6,0-0.9,0c-0.6,0.1-1.2,0.2-1.7,0.4c-0.9,0.3-1.7,0.7-2.5,1.2
				c-0.5,0.3-1.1,0.6-1.6,0.9c-0.5,0.3-1.1,0.7-1.6,1.1c-0.6,0.4-1.1,0.9-1.6,1.5c-0.2,0.3-0.4,0.7-0.6,1.1
				c-0.3,0.8-0.4,1.7-0.3,2.6c0,1,0.2,2,0.6,2.9c0.1,0.4,0.4,0.8,0.8,1.1c0,0,0,0,0,0.1c-0.5,0-1-0.3-1.3-0.7
				c-0.4-0.6-0.7-1.2-0.8-1.9c-0.2-0.9-0.3-1.7-0.3-2.6c0-0.9,0.2-1.8,0.6-2.6c0.3-0.4,0.6-0.8,1-1.2c0.8-0.8,1.7-1.4,2.7-2
				c0.9-0.6,1.9-1.1,2.8-1.5c0.6-0.3,1.3-0.6,2-0.7c0,0,0.1,0,0.1-0.1c0.4-0.1,0.8-0.1,1.2-0.1c0.3,0,0.6,0.1,0.9,0.3
				C97.8,33.5,97.9,33.4,98,33.5z"/>
			<path id="_Path_11" class="st4" d="M138.7,9.9c-0.1,0.1-0.1,0-0.2,0c-0.4,0-0.9,0-1.3,0c-0.3,0-0.7,0.1-1,0.1H136
				c-0.2,0-0.5,0.1-0.7,0.1c-0.2,0-0.3,0.1-0.5,0.2c-0.2,0.2-0.2,0.5-0.1,0.8c0.2,0.6,0.5,1.1,0.8,1.6c0.2,0.5,0.3,1.1,0.2,1.6
				c-0.1,0.4,0,0.8-0.1,1.2c-0.1,0.4-0.1,1-0.1,1.6l0,0c0,0.6-0.1,1.3-0.2,1.9c0,0.3-0.1,0.7-0.2,1c-0.1,0.2-0.1,0.5-0.2,0.7
				c-0.1,0.2,0,0.2-0.1,0.2s-0.3,0.1-0.4-0.1c-0.2-0.2-0.3-0.5-0.4-0.8c-0.1-0.2-0.1-0.3-0.2-0.5c0.1-0.5,0.2-1,0.3-1.6
				c0.2-1.2,0.2-2.5,0.3-3.8c0-0.9-0.2-1.8-0.6-2.5c-0.1-0.2-0.3-0.5-0.3-0.8c-0.2-0.5,0.1-0.8,0.5-0.9c1-0.3,2.1-0.4,3.1-0.3
				c0.6,0,1.2,0,1.8,0.1L138.7,9.9z"/>
			<path id="_Path_12" class="st5" d="M95.7,45.6c0.6,0.1,1.1,0.4,1.5,0.8c0.6,0.6,0.8,1.5,0.5,2.3c-0.3,1-0.9,1.8-1.6,2.6
				c-0.3,0.4-0.6,0.7-1,1c-0.4,0.3-0.8,0.6-1.3,0.8c-0.8,0.3-1.5,0.7-2.2,1.1c-0.3,0.2-0.6,0.4-0.9,0.7c-0.2,0.2-0.3,0.5-0.3,0.8
				c-0.1,0.5-0.1,1-0.1,1.5c0,0.8,0.2,1.7,0.6,2.4c0.1,0.1,0.1,0.2,0.2,0.3c-0.1,0-0.2,0-0.2,0c-0.5,0-0.9-0.3-1.1-0.7
				c-0.4-0.9-0.6-1.8-0.5-2.8c0-0.5,0.1-0.9,0.2-1.3c0.2-0.5,0.5-0.8,0.9-1.1c0.6-0.4,1.3-0.7,2-1c0.7-0.3,1.3-0.7,1.9-1.1
				c0.3-0.3,0.6-0.6,0.9-1c0.4-0.5,0.8-1.1,1.2-1.7c0.2-0.4,0.4-0.9,0.5-1.4c0.1-0.8-0.3-1.6-1-2.1C95.8,45.7,95.7,45.7,95.7,45.6z"
				/>
			<path id="_Compound_Path_5" class="st3" d="M105.6,60.2c0-0.1,0-0.2,0.1-0.3s0.1-0.2,0.2-0.2c0.1,0,0.2,0.1,0.2,0.2
				c0,0.1,0,0.2,0,0.3c-0.1,0.5-0.1,1-0.1,1.5c0,0.3,0,0.5,0,0.8c0,0.1,0,0.2,0.1,0.2c0.1,0.1,0.1,0.3,0,0.4c-0.1,0.3-0.1,0.6,0,0.9
				c0,0.1,0,0.2,0.1,0.2c0.2,0.4,0.5,0.4,0.8,0.1c0.2-0.2,0.3-0.4,0.4-0.7c0.1-0.6,0.3-1.1,0.7-1.5c0.3-0.3,0.5-0.3,0.7,0.1
				c0.2,0.4,0.6,0.6,1,0.7c0.1,0,0.2,0,0.2-0.2c0-0.1,0-0.2,0.1-0.2c0-0.1,0.1-0.1,0.1-0.1c0.1,0,0.1,0.1,0.1,0.1c0,0,0,0.2,0.2,0.2
				c0,0,0,0,0,0.1c0,0.1,0,0.2-0.1,0.2c-0.3,0.3-0.2,0.7-0.2,1.1c0.1,0,0.2-0.1,0.2-0.2c0.2-0.3,0.3-0.7,0.5-1s0.2-0.3,0.5-0.2
				s0.3,0.2,0.3,0.4c0.1,0.3,0.1,0.6,0.1,0.8c0,0.1,0.1,0.3,0.1,0.4c0,0.2,0.2,0.3,0.4,0.2c0.1,0,0.1,0,0.2-0.1
				c0.3-0.3,0.6-0.6,0.8-0.9c0-0.1,0.1-0.1,0.1-0.2c0,0,0.1-0.1,0.1-0.1c0.1,0,0.1,0.1,0,0.2c-0.1,0.4-0.4,0.8-0.7,1.1
				c-0.1,0.2-0.3,0.3-0.5,0.4c-0.2,0.1-0.5,0.1-0.6-0.1c0,0,0-0.1-0.1-0.1c-0.1-0.4-0.2-0.8-0.3-1.1c0-0.1,0-0.1-0.1-0.2
				c0-0.1,0-0.2-0.2-0.2c-0.1,0-0.2,0-0.2,0.1c-0.2,0.3-0.3,0.6-0.5,0.9c-0.1,0.2-0.2,0.4-0.4,0.6c0,0.1-0.1,0.1-0.2,0.1
				c-0.1,0-0.1-0.1-0.1-0.2c-0.1-0.4-0.1-0.8-0.1-1.1v0c0-0.3,0-0.3-0.3-0.4c-0.1,0-0.2-0.1-0.3-0.1c0,0-0.1-0.1-0.1,0s0,0.1,0,0.1
				c0.1,0.6-0.1,1.1-0.5,1.6c-0.2,0.2-0.5,0.4-0.8,0.4c-0.3,0-0.4-0.2-0.5-0.4c-0.1-0.2-0.1-0.3-0.4,0c-0.2,0.3-0.5,0.3-0.8,0.1
				c-0.1-0.1-0.2-0.2-0.2-0.3c-0.1-0.1-0.1-0.2-0.2-0.4c0-0.1-0.1-0.2-0.1-0.4c0-0.1-0.1,0-0.1,0.1c-0.1,0.1-0.2,0.3-0.3,0.4
				c-0.2,0.2-0.5,0.2-0.7,0.1c-0.1-0.1-0.2-0.2-0.2-0.3c0-0.1-0.1-0.2-0.1-0.3c-0.1,0.1-0.2,0.3-0.3,0.4c-0.1,0.3-0.3,0.5-0.6,0.7
				c-0.2,0.1-0.3,0.1-0.4-0.1c-0.1-0.2-0.2-0.4-0.2-0.7c0-0.1,0-0.2,0-0.3c-0.1,0.1-0.2,0.2-0.2,0.3c-0.2,0.4-0.5,0.8-0.7,1.1
				c-0.1,0.1-0.1,0.1-0.2,0.2c-0.1,0.1-0.2,0.2-0.4,0.2c-0.2-0.1-0.1-0.3-0.1-0.4c0-0.1,0.1-0.3,0.2-0.4l0.2-0.2
				c0.3-0.2,0.4-0.6,0.2-0.9c-0.2-0.4-0.4-0.9-0.5-1.3c-0.1-0.6-0.1-1.2,0.2-1.7c0.1-0.1,0.1-0.2,0.2-0.2c0.1,0,0.1,0.2,0.2,0.3
				c0.1,0.2,0,0.5-0.1,0.7c-0.2,0.3-0.3,0.7-0.1,1c0.1,0.4,0.2,0.7,0.3,1.1c0.1,0.2,0.1,0.1,0.2,0c0.3-0.3,0.6-0.8,0.7-1.2
				c0.1-0.4,0.3-0.7,0.6-1c0.2-0.2,0.5-0.2,0.7,0c0,0.1,0.1,0.1,0.1,0.2c0.1,0.3,0.1,0.6,0,0.9c-0.1,0.4-0.1,0.8,0,1.1
				c0.1,0.4,0.3,0.4,0.6,0.2c0.3-0.2,0.5-0.5,0.5-0.9c0-0.8,0-1.7,0.1-2.5L105.6,60.2L105.6,60.2z M108.6,63.5
				c0.1-0.4-0.1-0.7-0.4-0.9c-0.1-0.1-0.2,0-0.2,0c-0.3,0.5-0.5,1.1-0.5,1.7c0,0.2,0.1,0.3,0.2,0.4c0.2,0.1,0.4,0,0.5-0.1
				C108.4,64.3,108.6,63.9,108.6,63.5z M104,62.4c0-0.1,0-0.3,0-0.4s-0.1-0.3-0.3-0.2c-0.1,0-0.2,0.1-0.2,0.2
				c-0.1,0.2-0.3,0.5-0.3,0.8c-0.2,0.4-0.3,0.9-0.2,1.4c0,0.2,0.1,0.2,0.3,0.1c0.2-0.1,0.3-0.2,0.4-0.4C103.9,63.5,104,63,104,62.4z
				"/>
			<path id="_Path_13" class="st4" d="M98.2,16.7c0.3-0.1,0.5,0,0.8,0.1c0.5,0.3,1,0.7,1.4,1.1c0.7,0.9,1.4,1.8,2,2.7
				c0.6,1,1.2,2,1.7,3c0.5,1,0.8,2.1,1,3.2c0.1,0.8,0.1,1.7-0.1,2.5c-0.1,0.3-0.2,0.6-0.4,0.9c-0.2,0.4-0.7,0.6-1.1,0.4l-0.5-0.1
				c0.1-0.1,0.2-0.1,0.4-0.2c0.3-0.3,0.5-0.7,0.6-1.1c0.2-0.9,0.2-1.7,0.1-2.6c0-0.2,0-0.4-0.1-0.6c0-0.4-0.2-0.9-0.3-1.3
				c-0.4-1.2-0.9-2.3-1.6-3.3c-0.5-0.9-1-1.7-1.6-2.5c-0.5-0.7-1-1.4-1.7-2C98.5,16.9,98.3,16.8,98.2,16.7z"/>
			<path id="_Path_14" class="st3" d="M103.8,26.1c0.1,0.2,0.1,0.4,0.1,0.6c0.1,0.9,0.1,1.8-0.1,2.6c-0.1,0.4-0.3,0.8-0.6,1.1
				c-0.1,0.1-0.3,0.1-0.4,0.2c-0.6-0.2-1.1-0.5-1.7-0.7c0,0,0-0.1-0.1-0.1c-0.2-0.1-0.3-0.1-0.5-0.2c0.4-0.6,0.8-1.1,1.3-1.6
				c0.6-0.6,1.1-1.2,1.8-1.8C103.7,26.2,103.7,26.1,103.8,26.1z"/>
			<path id="_Path_15" class="st4" d="M105.6,60.2L105.6,60.2c-0.7,0.1-1.4-0.1-2-0.4c-0.6-0.4-1.1-1-1.2-1.8
				c-0.1-0.9-0.2-1.9-0.1-2.8v-0.5c0.1-0.5,0.1-0.9,0.2-1.4s0.1-1.1,0.2-1.7c0.2-0.3,0.4-0.6,0.6-0.9c0.1-0.1,0.2-0.3,0.2-0.4
				c0.1-0.2,0.2-0.5,0.3-0.7c0,0.5-0.1,1-0.2,1.4s-0.2,1.2-0.3,1.8c-0.1,1-0.2,1.9-0.3,2.9c0,0.8,0,1.6,0.2,2.3
				c0.2,1.1,1.1,1.9,2.1,2.2L105.6,60.2z"/>
			<path id="_Compound_Path_6" class="st3" d="M99.8,61.9c0.1,0.3,0.1,0.6,0,0.8c-0.1,0.4-0.3,0.8-0.5,1.2c-0.1,0.1-0.1,0.2-0.2,0.3
				c-0.3,0.4-0.7,0.3-0.9-0.1c-0.2-0.4-0.2-0.8-0.3-1.2c0-0.1,0-0.1,0-0.2c-0.1,0.2-0.2,0.3-0.3,0.5c-0.2,0.3-0.4,0.6-0.7,0.9
				c-0.2,0.2-0.5,0.3-0.7,0.1c-0.1-0.1-0.2-0.2-0.2-0.3c-0.2-0.3-0.3-0.7-0.3-1c-0.1-1.2,0-2.3,0.3-3.5c0-0.2,0.1-0.4,0.2-0.5
				c0.1-0.1,0.2-0.2,0.3-0.2c0.2,0,0.2,0.2,0.2,0.3c0.2,0.6,0.2,1.3,0,1.9c-0.2,0.5-0.4,0.9-0.7,1.4c-0.2,0.4-0.1,0.9,0.2,1.2
				c0.2,0.1,0.4,0.1,0.5,0c0.3-0.2,0.5-0.5,0.7-0.9c0.2-0.3,0.3-0.7,0.3-1.2c0-1.2,0.1-2.5,0.2-3.7c0-0.1,0-0.2,0.1-0.3
				c0-0.1,0-0.1,0.1-0.1s0.1,0.1,0.1,0.1c0,0.1,0.1,0.2,0,0.3c-0.1,0.7-0.1,1.4-0.2,2.1c-0.1,0.4-0.1,0.8-0.1,1.3c0,0.6,0,1.2,0,1.8
				c0,0.2,0.1,0.5,0.2,0.7c0.1,0.2,0.3,0.3,0.5,0.1c0.1-0.1,0.2-0.3,0.3-0.4c0.2-0.3,0.3-0.7,0.4-1C99.8,62.1,99.8,62,99.8,61.9z
				 M96.1,61.5c0.3-0.3,0.4-0.7,0.6-1.1c0.1-0.2,0.1-0.5,0-0.7c0-0.1,0-0.2-0.1-0.2c-0.1,0-0.1,0.1-0.1,0.1c0,0,0,0.1,0,0.1
				C96.2,60.2,96.1,60.8,96.1,61.5z"/>
			<path id="_Compound_Path_7" class="st3" d="M116,61.3c0.2-0.2,0.3-0.2,0.4,0c-0.1,0.8-0.2,1.5-0.3,2.3c0,0.3,0,0.7,0,1
				c0,0.2,0.1,0.2,0.2,0.1c0.4-0.2,0.7-0.6,0.7-1c0.1-0.4,0.2-0.7,0.4-1c0.1-0.2,0.4-0.3,0.6-0.3c0.2,0.1,0.3,0.4,0.2,0.6
				c0,0.4-0.2,0.7-0.5,1c-0.1,0.1-0.2,0.3-0.4,0.4c-0.2,0.1-0.2,0.3-0.1,0.5c0.1,0.2,0.3,0.3,0.5,0.3c0.3,0,0.6-0.2,0.8-0.4
				c0.3-0.3,0.6-0.6,0.9-1c0-0.1,0.1-0.1,0.2-0.2c0,0.1,0,0.1,0,0.2c-0.3,0.6-0.8,1.2-1.4,1.6c-0.1,0.1-0.2,0.1-0.3,0.1
				c-0.4,0.1-0.8,0-0.9-0.4c0-0.1,0-0.1,0-0.2c0,0,0-0.1-0.1-0.2c-0.1,0-0.1,0.1-0.1,0.1l-0.3,0.3c-0.2,0.2-0.4,0.1-0.5-0.1
				c-0.1-0.3-0.2-0.6-0.2-0.8c0,0,0-0.1,0-0.2c-0.1,0.2-0.2,0.4-0.3,0.5c-0.2,0.4-0.5,0.8-0.9,1c-0.4,0.2-0.6,0.1-0.7-0.4
				c0-0.7,0.2-1.3,0.5-1.9c0.1-0.2,0.2-0.3,0.3-0.5c0.2-0.2,0.4-0.3,0.6-0.2c0.1,0,0.2,0.1,0.2,0.2c0,0.1,0.1,0.3,0.1,0.5
				C115.9,62.6,116,61.9,116,61.3z M115.5,63.5c0-0.1,0-0.3-0.1-0.4c-0.1-0.2-0.2-0.2-0.3,0c-0.4,0.5-0.7,1.2-0.8,1.8
				c0,0.1,0,0.2,0.1,0.3c0.1,0.1,0.2,0,0.3-0.1c0.4-0.3,0.7-0.6,0.9-1.1c0-0.1,0.1-0.1,0-0.2C115.4,63.8,115.5,63.6,115.5,63.5z
				 M117.6,63.5c0.1,0.1,0,0.2,0.1,0.3c0.2-0.2,0.4-0.5,0.4-0.8c0-0.2-0.1-0.2-0.2-0.1c-0.2,0.2-0.3,0.5-0.3,0.7L117.6,63.5z"/>
			<path id="_Path_16" class="st3" d="M124.1,63.8c-0.2,0.4-0.4,0.7-0.6,1.1c-0.1,0.2-0.3,0.4-0.5,0.5c-0.4,0.2-0.6,0.1-0.6-0.3
				c0-0.3,0-0.7,0.1-1c0.1-0.6,0.1-0.6-0.5-0.5c-0.2,0-0.4,0.2-0.5,0.5c-0.1,0.5-0.2,0.9-0.2,1.4c0,0.1,0,0.2,0.1,0.3
				c0.1,0.1,0.1,0.2,0,0.3s-0.2,0.1-0.3,0c-0.1-0.2-0.1-0.3-0.1-0.5c0-0.4,0.1-0.8,0.2-1.2l0.1-0.3c0-0.1,0-0.2-0.2-0.2
				c-0.2,0-0.2,0-0.3,0s-0.2-0.1-0.2-0.2s0.1-0.2,0.2-0.2c0.8-0.1,0.6,0,0.7-0.7c0.1-0.4,0.1-0.7,0.2-1.1c0,0,0-0.1,0-0.2
				c0-0.1,0.1-0.2,0.2-0.2c0.1,0,0.1,0.2,0.1,0.2c0,0.3-0.1,0.7-0.2,1l-0.1,0.4c0,0.1,0,0.1,0.1,0.1c0.2,0,0.5-0.1,0.7-0.1l0,0
				c0.1-0.2,0.3-0.1,0.5-0.2c0.2,0,0.1,0,0.1,0.1c0,0,0,0.1,0,0.1c-0.3,0.5-0.4,1.1-0.4,1.7c0,0.1,0,0.2,0.1,0.2
				c0.1,0,0.2,0,0.2-0.1c0.3-0.3,0.6-0.6,0.7-1c0.2-0.4,0.3-0.9,0.5-1.3c0-0.1,0-0.3,0.2-0.3s0,0.2,0,0.3c-0.1,0.5-0.1,1,0,1.4
				c0.1,0.3,0.2,0.4,0.5,0.2c0.3-0.3,0.6-0.6,0.8-1c0.1-0.2,0.2-0.4,0.4-0.6c0,0.2,0,0.4-0.1,0.5c-0.3,0.6-0.6,1.1-1.1,1.5
				c-0.4,0.3-0.6,0.2-0.7-0.3C124.2,64.2,124.1,64,124.1,63.8z"/>
			<path id="_Path_17" class="st4" d="M96.8,33.1c-0.4,0-0.8,0-1.2,0.1c0-0.5,0.1-1,0.2-1.5c0.2-0.7,0.5-1.4,0.8-2.1
				c0.1-0.2,0.3-0.4,0.5-0.6c0.3-0.1,0.6-0.2,0.8-0.1c0.2,0,0.5,0.1,0.7,0.2c-0.4,0-0.8,0.2-1,0.6c-0.6,1-0.9,2-1.1,3.2
				C96.6,33.1,96.7,33.1,96.8,33.1z"/>
			<path id="_Path_18" class="st3" d="M137.9,34.4c-0.1,0.1-0.2,0.1-0.3,0.1c-0.6,0-1.1,0.1-1.7,0.1c-0.2,0-0.3,0-0.5,0
				c0-0.2,0.1-0.2,0.2-0.4c0.4-0.6,0.7-1.3,1-1.9c0-0.1,0.1-0.3,0.2-0.4c0.4,0.7,0.7,1.5,1,2.3C137.9,34.3,137.9,34.3,137.9,34.4z"
				/>
			<path id="_Path_19" class="st4" d="M102.8,51.6c-0.1,0.5-0.2,1.1-0.2,1.7s-0.1,1-0.2,1.4c-0.3-0.4-0.7-0.8-1.1-1.2
				c0-0.2,0.2-0.2,0.3-0.4C102.1,52.6,102.4,52.1,102.8,51.6z"/>
			<path id="_Path_20" class="st5" d="M140.3,39.1c0.4-0.2,0.9-0.3,1.3-0.2c0.9,0.1,1.7,0.4,2.6,0.6c0.3,0.1,0.6,0.1,0.9,0.1
				c-0.4,0.3-1,0.3-1.5,0.2c-0.8-0.1-1.5-0.4-2.3-0.5C141,39.2,140.6,39.1,140.3,39.1z"/>
			<path id="_Path_21" class="st3" d="M107.9,61.3c0-0.1,0-0.2,0.1-0.2c0.3-0.3,0.5-0.5,0.8-0.7c0,0,0.1-0.1,0.1,0
				c0,0.1,0.1,0.2,0.1,0.3c0,0,0,0.1-0.1,0.1c-0.3,0.2-0.6,0.5-0.9,0.7c0,0-0.1,0.1-0.1,0S107.9,61.4,107.9,61.3z"/>
			<path id="_Path_22" class="st3" d="M124.5,60.9c0,0.1,0,0.2-0.1,0.2l-0.9,0.9c0,0-0.1,0.1-0.2,0.1c-0.1,0-0.1-0.1,0-0.2
				c0-0.1,0.1-0.2,0.2-0.3l0.8-0.8c0,0,0.1-0.1,0.1,0C124.5,60.8,124.5,60.8,124.5,60.9z"/>
			<path id="_Path_23" class="st3" d="M129.7,59.8c0,0.2,0,0.4-0.1,0.5c-0.1,0.1-0.2,0.2-0.4,0.1c-0.1,0-0.1-0.2-0.1-0.3
				c0-0.2,0.1-0.3,0.2-0.4c0.1-0.1,0.1-0.2,0.3-0.2S129.7,59.7,129.7,59.8z"/>
			<path id="_Path_24" class="st6" d="M100.6,29.7c0.1,0.1,0.3,0.2,0.5,0.2c0,0,0.1,0,0.1,0.1c-0.2,0.1-0.4-0.2-0.6-0.2
				C100.6,29.8,100.6,29.7,100.6,29.7L100.6,29.7z"/>
			<polygon id="_Path_25" class="st7" points="140.2,39.2 140.2,39.1 140.2,39.1 140.2,39.2 			"/>
			<path id="_Path_26" class="st3" d="M116.4,33c0.3,0.1,0.6,0.3,0.9,0.4c0.2,0.1,0.4,0.1,0.7,0c0.3,0.1,0.6,0.1,1,0.2
				c0.1,0,0.3,0,0.4,0c0.2,0,0.4-0.1,0.7-0.1c0.4-0.1,0.8-0.3,1.1-0.4c0.1,0,0.1,0,0.2-0.1c0,0,0.1,0.1,0.1,0.1
				c0,0.2,0.1,0.3,0.1,0.5c0.2,0.7,0.5,1.4,1,2c0.1,0.2,0.3,0.3,0.4,0.5c0,0.4,0.2,0.8,0.5,1.1c0.5,0.7,1.2,1.4,1.8,2
				c0.5,0.4,1,0.8,1.6,1.1c0.6,0.3,1.2,0.4,1.8,0.3c0.1,0,0.2,0,0.3,0.1c0.4,0.1,0.7,0.1,1.1,0.1c0.1,0,0.1-0.1,0.2-0.1
				c0.1,0.4,0.2,0.9,0.1,1.4c0,0,0,0-0.1,0c-0.2-0.1-0.5-0.2-0.7-0.3c-0.4-0.1-0.9-0.2-1.3-0.3c-0.4,0-0.7,0-1.1,0
				c-0.6,0.1-1.2,0.3-1.8,0.5c-0.8,0.4-1.5,1-2,1.7c-0.6,0.7-0.9,1.6-1,2.5c-0.1,0.5-0.1,1,0,1.5c-0.2-0.3-0.5-0.6-0.8-0.8
				c-0.5-0.5-1.2-1-1.8-1.4c-0.5-0.3-1.1-0.5-1.6-0.6c0-0.5,0-0.9,0.1-1.4c0.1-0.8,0-1.6-0.1-2.3c-0.2-1-0.6-1.8-1.3-2.6
				c-0.5-0.5-1-0.9-1.6-1.2c-0.4-0.2-0.7-0.3-1.1-0.4c-0.4-0.1-0.7-0.2-1.1-0.3l-0.6-0.1c-0.3-0.1-0.6-0.1-0.9-0.2
				c-0.3-0.1-0.4-0.1-0.5-0.1c-0.4,0-0.7-0.2-1-0.5c-0.4-0.4-0.7-0.8-1-1.2c-0.2-0.2-0.4-0.5-0.6-0.6c0.2-0.3,0.4-0.6,0.5-0.9
				c0.4-0.7,0.7-1.5,0.9-2.2c0.2-0.7,0.3-1.3,0.4-2c0.1-0.3,0.1-0.7,0.1-1c0-0.4,0-0.9,0-1.3c0.1,0,0.1,0.1,0.2,0.1
				c0.7,1,1.3,1.9,2.1,2.9c0.4,0.5,0.8,0.9,1.2,1.4c0.3,0.3,0.6,0.6,1,0.9c0,0.1-0.1,0.1-0.1,0c-0.6-0.1-1.1-0.1-1.7,0.1
				c-0.8,0.3-1.5,1-1.6,1.8c-0.1,0.6,0,1.2,0.3,1.7c0.5,0.7,1.3,1.2,2.2,1.2c0.3,0,0.7,0,1-0.1c0.5-0.1,0.9-0.4,1.2-0.7
				c0.6-0.7,0.8-1.6,0.5-2.5C116.5,33.3,116.4,33.1,116.4,33z"/>
			<path id="_Path_27" class="st3" d="M104.1,44.2c-0.4-0.6-0.8-1.1-1.3-1.5l0.1-0.1c0.6-0.5,1-1.2,1-2c0.1-0.9-0.3-1.8-1.1-2.4
				c-0.4-0.3-0.8-0.5-1.3-0.6c-0.4-0.1-0.8-0.1-1.3,0c-0.4,0.1-0.7,0.3-1,0.5c0.1-0.5,0.2-0.9,0.2-1.4c0-0.1,0-0.1,0-0.2
				c1,0,1.9,0.1,2.9,0c0.6,0,1.2-0.1,1.8-0.2l1-0.2c0.3-0.1,0.7-0.2,1-0.3c0,0.2-0.1,0.3-0.1,0.5c-0.1,0.5-0.3,1-0.4,1.5
				s-0.3,1-0.4,1.4c-0.1,0.5-0.2,1-0.4,1.4c-0.1,0.5-0.2,1.1-0.4,1.7c-0.1,0.6-0.2,0.9-0.3,1.3C104.2,43.9,104.2,44.1,104.1,44.2z"
				/>
			<path id="_Path_28" class="st4" d="M104.1,44.2c0.1-0.1,0.1-0.3,0.1-0.5c0.1-0.4,0.2-0.9,0.3-1.3s0.2-1.1,0.4-1.7s0.3-1,0.4-1.4
				s0.2-1,0.4-1.4s0.3-1,0.4-1.5c0-0.2,0.1-0.3,0.1-0.5c0.1-0.5,0.3-0.9,0.5-1.3c0.1-0.2,0.2-0.3,0.3-0.4c0.2-0.2,0.5-0.3,0.7-0.1
				c0,0,0,0,0,0c0,0,0.1,0,0.1,0c-0.2,0.3-0.4,0.6-0.5,0.9c-0.5,1.4-0.9,2.9-1.2,4.3c-0.2,0.9-0.4,1.8-0.6,2.7
				c-0.3,1.2-0.5,2.4-0.8,3.7c0,0,0,0,0,0.1C104.6,45.3,104.4,44.7,104.1,44.2z"/>
			<path id="_Path_29" class="st8" d="M99.3,38.2c0.3-0.2,0.6-0.4,1-0.5c0.4-0.1,0.8-0.1,1.3,0c0.5,0.1,0.9,0.3,1.3,0.6
				c0.7,0.6,1.2,1.5,1.1,2.4c-0.1,0.8-0.4,1.5-1.1,2l-0.1,0.1c-0.3-0.2-0.7-0.5-1-0.8c-0.7-0.4-1.4-0.8-2.1-1l-0.1-0.1
				c-0.4-0.2-0.9-0.3-1.4-0.4v-0.2c0-0.3,0.1-0.7,0.2-1C98.9,39.1,99.2,38.7,99.3,38.2z"/>
			<path id="_Path_30" class="st0" d="M92.1,42.2c-0.2-0.3-0.2-0.7-0.1-1c0.1-0.6,0.3-1.1,0.7-1.5c0.2-0.2,0.4-0.4,0.7-0.4
				c0.6-0.1,1.2-0.1,1.9,0c0.6,0,1.2,0.1,1.8,0.1c0,0.4-0.1,0.9,0,1.3c-0.4,0.1-0.8,0.2-1.1,0.3c-0.4,0.1-0.8,0.3-1.2,0.4
				c-0.4,0.2-1,0.3-1.5,0.5C92.8,42,92.4,42.1,92.1,42.2z"/>
			<path id="_Path_31" class="st5" d="M92.1,42.2c0.3,0,0.7-0.1,1-0.3c0.5-0.2,1-0.3,1.5-0.5c0.5-0.2,0.8-0.3,1.2-0.4
				c0.4-0.1,0.8-0.2,1.1-0.3c0.4-0.1,0.8-0.1,1.3-0.1c0.5,0.1,0.9,0.2,1.4,0.4l0.1,0.1c-0.2,0-0.4-0.1-0.7-0.1
				c-0.6,0-1.3,0.2-1.9,0.3c-0.9,0.2-1.7,0.6-2.5,0.9c-0.5,0.2-0.9,0.3-1.4,0.4c-0.3,0.1-0.5,0.1-0.8,0
				C92.2,42.4,92.1,42.3,92.1,42.2z"/>
			<path id="_Path_32" class="st4" d="M98.2,40.5c-0.4,0-0.8,0.1-1.3,0.1c0-0.4,0-0.9,0.1-1.3c0.5,0,1,0,1.4-0.1
				c-0.1,0.3-0.2,0.7-0.2,1V40.5z"/>
			<path id="_Path_33" class="st3" d="M103.6,50.3c0,0.2-0.1,0.3-0.2,0.4c-0.1,0-0.1-0.1,0-0.2c0,0,0,0,0,0
				C103.5,50.4,103.5,50.3,103.6,50.3z"/>
			<path id="_Path_34" class="st5" d="M130.5,42.2C130.5,42.2,130.5,42.2,130.5,42.2c0.1-0.5,0-1-0.1-1.4c-0.2-0.5-0.4-1.1-0.7-1.5
				c-0.2-0.5-0.4-1-0.6-1.5c-0.2-0.5-0.1-1,0.1-1.5c0.2-0.2,0.4-0.4,0.7-0.5c0.3-0.2,0.6-0.2,0.9-0.3c-0.2,0.1-0.4,0.3-0.6,0.5
				c-0.2,0.2-0.3,0.5-0.3,0.7c0,0.6,0.1,1.1,0.3,1.7c0.3,0.7,0.6,1.3,0.9,2c0.1,0.3,0.2,0.7,0.2,1.1c0,0.3,0,0.5,0,0.8
				s0.1,0.4,0.3,0.4c0,0,0,0,0,0.1c-0.1,0.1-0.2,0.1-0.3,0.2c-0.1-0.1-0.3-0.1-0.4-0.2C130.8,42.4,130.6,42.3,130.5,42.2z"/>
			<path id="_Path_35" class="st8" d="M122.9,36c-0.2-0.1-0.3-0.3-0.4-0.5c-0.5-0.6-0.8-1.3-1-2c0-0.2-0.1-0.3-0.1-0.5
				c0,0,0-0.1-0.1-0.1c0.1-0.2,0.3-0.2,0.5-0.3c0.4-0.3,0.8-0.6,1.2-0.9c0.7-0.5,1.4-1.1,2-1.8c0.6-0.7,1.1-1.4,1.5-2.1
				c0.2-0.4,0.4-0.9,0.6-1.4c0,0,0,0,0-0.1c2.4,0.2,4.4,1.9,4.9,4.3c-0.3,0.6-0.7,1.1-1.3,1.5c-0.6,0.4-1.3,0.8-2,1.1
				c-0.6,0.3-1.2,0.5-1.8,0.9c-0.5,0.3-1.1,0.5-1.6,0.7c-0.5,0.2-1,0.3-1.5,0.5c-0.2,0.1-0.3,0.1-0.4,0.2
				C123.1,35.7,123,35.9,122.9,36z"/>
			<path id="_Path_36" class="st3" d="M132,30.7c-0.5-2.3-2.5-4.1-4.9-4.3c0.3-1.1,0.5-2.2,0.5-3.3c0-0.1,0-0.1,0-0.2
				c0.2,0.1,0.3,0.1,0.5,0.2c0.7,0.4,1.4,0.8,2.1,1.2c0.4,0.7,0.8,1.4,1.2,2.2c0.3,0.6,0.5,1.2,0.7,1.9
				C132.2,29.2,132.2,30,132,30.7z"/>
			<path id="_Path_37" class="st0" d="M130.2,24.5c-0.7-0.4-1.4-0.9-2.1-1.2c-0.2-0.1-0.3-0.2-0.5-0.2c-0.1-0.4,0-0.9-0.1-1.3
				c0-0.2,0-0.4-0.1-0.6c0.4,0.4,0.8,0.8,1.2,1.2c0.5,0.5,0.9,1,1.2,1.6C130,24.1,130.1,24.3,130.2,24.5z"/>
			<path id="_Path_38" class="st8" d="M118.3,44.9c0.6,0.2,1.1,0.4,1.6,0.7c0.7,0.4,1.3,0.8,1.8,1.4c0.3,0.3,0.5,0.6,0.8,0.8
				c0.1,1.2,0.6,2.3,1.4,3.2c0,0.4,0.1,0.7,0.1,1.1c0,1-0.1,1.9-0.4,2.8c-0.3,0.8-0.7,1.6-1.2,2.2c-0.5,0.7-1.2,1.3-1.9,1.8
				c-0.7,0.5-1.5,0.9-2.3,1.2c-1,0.3-2.1,0.4-3.1,0.4c-0.9,0-1.7-0.2-2.5-0.5c-0.9-0.3-1.7-0.8-2.4-1.3c-0.1-0.1-0.2-0.2-0.3-0.3
				c0-0.7-0.1-1.4-0.2-2.1c-0.1-0.6-0.2-1.2-0.4-1.9c-0.2-0.8-0.3-1.5-0.4-2.3c-0.1-0.6-0.1-1.3-0.1-1.9c0-0.7,0.5-1.2,1.2-1.3
				c0.5-0.1,1.1-0.1,1.6,0c0.3,0,0.6,0,0.8,0.1c0.1,0,0.2,0,0.4,0.1c0.6,0,1.3,0,1.9,0h0.1c1-0.2,1.9-0.6,2.6-1.4
				c0.4-0.5,0.7-1.1,0.8-1.7C118.1,45.6,118.2,45.2,118.3,44.9z"/>
			<path id="_Path_39" class="st8" d="M111.3,45.9c-0.4,0-0.8,0-1.2-0.1c-0.5,0-1-0.2-1.5-0.5c-0.2-0.2-0.3-0.4-0.4-0.6
				c-0.1-0.6-0.2-1.2-0.1-1.8c0-0.3,0.1-0.7,0.1-1c0.1-0.8,0.4-1.5,0.8-2.2c0.2-0.2,0.4-0.3,0.7-0.3c0.5,0,1,0,1.4,0.2
				c0.6,0.1,1.2,0.4,1.7,0.6c0.5,0.2,1,0.5,1.4,0.9c0.3,0.2,0.4,0.6,0.4,0.9c0,1-0.3,2-0.8,2.8c-0.3,0.4-0.7,0.7-1.1,0.9
				c-0.2,0.1-0.4,0.1-0.6,0.1C112,45.9,111.6,45.9,111.3,45.9z"/>
			<path id="_Path_40" class="st9" d="M114.6,49c-0.6,0-1.3,0-1.9,0h0.2H114.6z"/>
			<path id="_Path_41" class="st10" d="M114.6,49h-1.7c0.1,0,0.2,0,0.4,0H114.6L114.6,49z"/>
			<path id="_Path_42" class="st8" d="M123.9,51c-0.8-0.9-1.3-2-1.4-3.2c-0.1-0.5-0.1-1,0-1.5c0.2-0.9,0.5-1.7,1.1-2.4
				c0.5-0.7,1.2-1.3,2-1.7c0.6-0.3,1.1-0.5,1.8-0.6c0.4,0,0.7,0,1.1,0c0.4,0,0.9,0.1,1.3,0.3c0.2,0.1,0.5,0.2,0.7,0.3
				c0.2,0.1,0.4,0.3,0.6,0.4c0.1,0.1,0.2,0.2,0.4,0.2c0,0,0,0.1,0.1,0.1c0.1,0.2,0.2,0.3,0.4,0.4c0.4,0.5,0.8,1,1.1,1.6
				c0.4,0.8,0.5,1.6,0.5,2.5c0,0.9-0.2,1.8-0.7,2.6c-0.4,0.7-0.9,1.3-1.6,1.7c-0.5,0.3-1,0.6-1.5,0.8c-0.3,0.1-0.7,0.2-1,0.2
				c-0.4,0.1-0.9,0.1-1.3,0c-0.6,0-1.2-0.2-1.8-0.5C125,51.9,124.4,51.5,123.9,51z"/>
			<path id="_Path_43" class="st6" d="M131.9,43.3c-0.2-0.1-0.4-0.2-0.4-0.4C131.7,43,131.8,43.1,131.9,43.3z"/>
			<path id="_Path_44" class="st8" d="M116.4,33c0,0.1,0.1,0.3,0.2,0.4c0.4,0.8,0.2,1.8-0.5,2.5c-0.3,0.3-0.7,0.6-1.2,0.7
				c-0.3,0.1-0.7,0.2-1,0.1c-0.9,0-1.7-0.5-2.2-1.2c-0.3-0.5-0.4-1.1-0.3-1.7c0.2-0.9,0.8-1.5,1.6-1.8c0.5-0.2,1.1-0.2,1.7-0.1
				c0.1,0,0.1,0,0.1,0C115.3,32.3,115.8,32.6,116.4,33C116.3,32.9,116.4,32.9,116.4,33z"/>
			<path id="_Path_45" class="st0" d="M136.9,60.9c0,0.7-0.2,1.5-0.4,2.2c-0.1,0.3-0.3,0.5-0.5,0.7c0,0-0.1,0.1-0.2,0.1
				s-0.1-0.1-0.1-0.2c0-0.4,0-0.8,0.1-1.2c0.1-0.6,0.3-1.2,0.5-1.7c0.1-0.1,0.1-0.3,0.3-0.4c0.1-0.1,0.2-0.1,0.2,0.1
				C137,60.6,137,60.7,136.9,60.9z"/>
			<path id="_Path_46" class="st0" d="M131,62.8c-0.1-0.4,0-0.9,0.2-1.3c0-0.1,0.1-0.2,0.2-0.2s0.1,0.2,0.1,0.3
				C131.5,62,131.3,62.4,131,62.8L131,62.8z"/>
			<path id="_Path_47" class="st0" d="M131,62.8L131,62.8L131,62.8L131,62.8z"/>
			<path id="_Path_48" class="st0" d="M135.9,61.2L135.9,61.2L135.9,61.2z"/>
			<path id="_Path_49" class="st0" d="M108.6,63.5c0,0.4-0.2,0.8-0.5,1.1c-0.1,0.1-0.3,0.2-0.5,0.1c-0.2-0.1-0.2-0.2-0.2-0.4
				c0-0.6,0.2-1.2,0.5-1.7c0-0.1,0.1-0.1,0.2,0C108.4,62.8,108.6,63.1,108.6,63.5z"/>
			<path id="_Path_50" class="st0" d="M104,62.4c0,0.5-0.1,1.1-0.4,1.5c-0.1,0.1-0.2,0.3-0.4,0.4c-0.2,0.1-0.2,0.1-0.3-0.1
				c-0.1-0.5,0-1,0.2-1.4c0.1-0.3,0.2-0.5,0.3-0.8c0.1-0.1,0.1-0.1,0.2-0.2c0.2-0.1,0.3,0,0.3,0.2S104,62.3,104,62.4z"/>
			<path id="_Path_51" class="st0" d="M96.1,61.5c0-0.6,0.1-1.2,0.3-1.8c0,0,0-0.1,0-0.1c0-0.1,0.1-0.2,0.2-0.1
				c0.1,0,0.1,0.1,0.1,0.2c0.1,0.2,0.1,0.5,0,0.7C96.6,60.7,96.4,61.1,96.1,61.5z"/>
			<path id="_Path_52" class="st0" d="M115.5,63.5c0,0.1,0,0.2,0.1,0.3s0,0.1,0,0.2c-0.2,0.4-0.5,0.8-0.9,1.1
				c-0.1,0.1-0.2,0.2-0.3,0.1c-0.1-0.1-0.1-0.2-0.1-0.3c0.1-0.7,0.4-1.3,0.8-1.8c0.1-0.2,0.2-0.1,0.3,0
				C115.5,63.2,115.5,63.3,115.5,63.5z"/>
			<path id="_Path_53" class="st0" d="M117.6,63.5l-0.1,0.1c0-0.3,0.2-0.5,0.3-0.7c0.1-0.1,0.2-0.1,0.2,0.1c0,0.3-0.2,0.5-0.4,0.8
				C117.6,63.7,117.7,63.6,117.6,63.5z"/>
		</g>
	</g>
</g>
</svg>
