<?xml version="1.0" encoding="utf-8"?>
<!-- Generator: Adobe Illustrator 22.1.0, SVG Export Plug-In . SVG Version: 6.00 Build 0)  -->
<svg version="1.1" id="Layer_1" xmlns="http://www.w3.org/2000/svg" xmlns:xlink="http://www.w3.org/1999/xlink" x="0px" y="0px"
	 viewBox="0 0 233 73" style="enable-background:new 0 0 233 73;" xml:space="preserve">
<style type="text/css">
	.st0{fill:#3D3D3D;}
</style>
<title>Asset 50</title>
<g id="Layer_2_1_">
	<g id="Layer_1-2">
		<g id="_Group_">
			<path id="_Path_" class="st0" d="M126.6,39.6C126.6,39.6,126.6,39.6,126.6,39.6c0-0.2,0-0.3-0.2-0.4l0,0l-0.1-0.2
				c0,0,0-0.1,0-0.1c-0.2-0.8-0.6-1.6-0.9-2.4c0-0.2,0-0.4-0.2-0.4c-0.2,0-0.2,0.2-0.2,0.4c0,0.2,0,0.3,0,0.5l0,0
				c-0.1,0.1-0.1,0.1,0,0.2c-0.1,0.2-0.1,0.5-0.1,0.7c0,0.2,0,0.4,0,0.6v0.6v0.6c-0.1,0.2-0.2,0.5-0.1,0.7c-0.1,0.2-0.1,0.4,0,0.6
				l-0.1,0.2c-0.1,0.3-0.1,0.5-0.1,0.8c-0.3,1.4-0.5,2.9-0.6,4.4l0,0c-0.4-0.1-1,0.3-1.3-0.3l0.1-0.6c0.1-0.2,0.2-0.4,0.1-0.6
				l0.1-0.4c0.1-0.2,0.2-0.5,0.1-0.8c0-0.2,0-0.4,0-0.6c0.1-0.2,0.2-0.4,0.1-0.6V42c0.2-0.3,0.2-0.6,0.1-0.9c0-0.2,0-0.4,0-0.6
				c0.2-0.7,0.3-1.4,0.3-2.2c0,0,0-0.1,0-0.1c0.1-0.3,0.2-0.5,0.1-0.8V37c0.1-0.2,0.2-0.4,0.1-0.6v-0.8c0.2-0.5,0.2-0.9,0.2-1.4
				v-0.5c0,0,0-0.1,0-0.1c0-0.1,0-0.3,0-0.4s0.1-0.5,0.2-0.8c0.1-0.3-0.1-0.6,0.4-0.6l0.1,0.3c0.5,1.5,1.1,2.9,1.9,4.2l0.1,0.2
				c0,0.2,0,0.4,0.2,0.5c0,0,0,0.1,0,0.1c0,0.2,0.1,0.4,0.3,0.5c0,0,0,0.1,0,0.1c0,0,0,0,0,0c0,0.4,0.2,0.7,0.4,1l0.1,0.2
				c0.2,0.7,0.5,1.3,0.9,1.9c0,0.1,0.1,0.2,0.1,0.3c0.2,0.5,0.4,1.1,0.6,1.6c0.1,0.3,0.2,0.7,0.4,0.7c0.3,0,0.4-0.4,0.6-0.6
				c0.1-0.1,0.1-0.2,0.1-0.4l0.1-0.3c0.3-0.3,0.4-0.6,0.4-1l0,0c0.3-0.5,0.5-1,0.7-1.5l0,0c0.2-0.2,0.3-0.4,0.3-0.6
				c0.1-0.2,0.3-0.5,0.3-0.8l0.1-0.2c0,0,0.1-0.1,0.1-0.1c0.1-0.1,0.2-0.2,0.2-0.3l0,0c0.2-0.2,0.3-0.5,0.3-0.8L135,32
				c0-0.1,0.1-0.2,0.1-0.3h0.2c0.5,4,1,8,1.6,12.1c0,0.9,0.1,1.8,0.3,2.7l0,0c-0.5,0-1,0.3-1.4-0.3l-0.1-0.5
				c-0.1-1.6-0.3-3.3-0.6-4.9v-0.3c0-1.2-0.2-2.3-0.5-3.5l0,0c0-0.3,0-0.7-0.2-1l-0.4,1.1l-0.1,0.3c-0.2,0-0.2,0.2-0.2,0.3l0,0
				l-0.1,0.2v0.2c-0.8,1.6-1.6,3.2-2.2,4.9c-0.3,0.4-0.4,0.8-0.5,1.3c-0.4,0.5-0.6,1-0.7,1.6c0,0,0,0.1,0,0.1
				c-0.2,0.4-0.5,0.8-0.9,0.2c0-0.1-0.1-0.2-0.1-0.3c-0.1-0.4-0.3-0.8-0.5-1.2c0,0,0-0.1,0-0.1c0,0,0,0,0,0c0-0.2-0.1-0.5-0.3-0.6
				c0-0.1,0-0.2-0.1-0.3c-0.3-0.8-0.6-1.5-1-2.2c0-0.2-0.1-0.3-0.2-0.5c0-0.1,0-0.3-0.2-0.4c0,0,0-0.1-0.1-0.1
				C127,40.2,126.8,39.9,126.6,39.6z"/>
			<path id="_Compound_Path_" class="st0" d="M161.6,33.2l0.4,0.8c0,0.3,0.1,0.7,0.3,1v0.3c0,1-0.2,1.9-0.7,2.8l0,0
				c-0.4,0.4-0.8,0.8-1.2,1.2h-0.1h-0.1c-0.7,0-1.3,0.4-2.1,0.3c-0.4,0-0.2,0.3-0.1,0.5c1.1,1.6,2.1,3.2,3.3,4.7l0.1,0.1l0.1,0.1
				l0.1,0.2c0,0.1,0.1,0.2,0.1,0.3c0.2,0.3,0.7,0.6,0.4,0.9c-0.2,0.3-0.7,0-1.1,0.1c-0.4,0.1-0.4-0.2-0.5-0.4
				c-0.1-0.2-0.3-0.6-0.6-0.8c0-0.1,0-0.1-0.1-0.1c-0.1-0.3-0.3-0.6-0.5-0.8c0-0.1,0-0.1-0.1-0.1c-0.3-0.6-0.6-1.1-1-1.6l0,0
				l-1.9-2.8c-0.1-0.2-0.4-0.3-0.7-0.3c-0.3,0.1-0.3,0.3-0.3,0.6c0,0.8,0,1.5,0,2.2v3.8v0.3c-1.3,0.2-1.3,0.2-1.3-1.1v-12
				c0-1.6,0-1.6,1.6-1.6c1.9,0,3.9-0.4,5.6,1l0,0C161.4,32.9,161.4,33.1,161.6,33.2z M155.4,35.4c0,0.6,0,1.2,0,1.7
				c-0.1,0.8,0.1,1.2,1,1.1c0.5-0.1,1,0.1,1.5,0c1.1-0.1,2.3-0.2,2.8-1.5c0.6-1.3,0-2.7-1.2-3.3c-0.2-0.1-0.5-0.2-0.8-0.2
				c-1.1-0.3-2.2-0.3-3.2,0.1C155,33.5,155.4,34.8,155.4,35.4z"/>
			<path id="_Path_2" class="st0" d="M89.1,39.2c0,1.2,0.3,2.4,0.9,3.4c1.5,2.7,4.8,3.7,7.5,2.2c0.6-0.3,1.1-0.7,1.5-1.2
				c0.5-0.5,1-0.5,1.3,0.2c0.2,0.3-0.1,0.4-0.2,0.6c-2.5,3-6.9,3.3-9.9,0.9c0,0-0.1-0.1-0.1-0.1c-3.3-3.4-3.2-8.9,0.2-12.2
				c0.1-0.1,0.1-0.1,0.2-0.2c3-2.3,7.2-1.7,9.6,1.2c0.4,0.5,0.1,0.7-0.2,1c-0.3,0.3-0.4,0.5-0.7,0c-1.4-2-4-2.7-6.3-1.9
				c-2.4,1-3.9,3.3-3.8,5.8L89.1,39.2z"/>
			<path id="_Path_3" class="st0" d="M103.6,39.1c0-2.2,0-4.5,0-6.7c0-0.6,0.2-0.7,0.7-0.7c2,0,4,0,6.1,0c0.5,0,0.7,0.2,0.7,0.7
				c0,0.5-0.1,0.7-0.7,0.7c-1.6,0-3.2,0-4.8,0c-0.5,0-0.7,0.2-0.7,0.7c0,1.1,0,2.2,0,3.4c0,0.5,0.1,0.7,0.7,0.7c1.6,0,3.2,0,4.8,0
				c0.6,0,0.7,0.2,0.7,0.7c0,0.5-0.1,0.8-0.7,0.7c-1.6,0-3.2,0-4.8,0c-0.5,0-0.6,0.1-0.6,0.6c0,1.6,0,3.1,0,4.7
				c0,0.4,0.1,0.6,0.6,0.6c1.6,0,3.3,0,4.9,0c0.7,0,0.6,0.3,0.6,0.8c0,0.4-0.1,0.7-0.6,0.7c-2.1,0-4.1,0-6.2,0
				c-0.5,0-0.6-0.2-0.6-0.6C103.6,43.6,103.6,41.3,103.6,39.1z"/>
			<path id="_Compound_Path_2" class="st0" d="M144.3,33.6c0.1-0.1,0.1-0.2,0.1-0.4c0.3-0.4,0.5-0.9,0.6-1.5l0,0
				c0.2-0.1,0.4-0.1,0.6,0c0.6,1.7,1.3,3.3,2,5s1.4,3.3,2.1,5c0,0.2,0.1,0.4,0.2,0.6c0.5,1.2,1,2.4,1.4,3.6c0.1,0.2,0.4,0.5-0.1,0.5
				c-0.4,0.1-1,0.2-1.3-0.5c-0.3-0.9-0.7-1.7-1.1-2.5l0,0l0,0c0-0.2-0.1-0.5-0.3-0.6l-0.1-0.3c0-0.4-0.3-0.8-0.7-0.8
				c-0.1,0-0.1,0-0.2,0c-1.5,0-3,0-4.5,0c-0.3,0-0.6,0.1-0.8,0.4l-1.6,3.7l0,0c-0.6,0.8-1.2,0.9-1.7,0.3l4.7-11.4
				C144.1,34.4,144.2,34,144.3,33.6z M145.3,40.1h1.8c0.3,0,0.5,0,0.3-0.4c-0.6-1.4-1.2-2.8-1.8-4.2c-0.1-0.1-0.1-0.3-0.3-0.3
				c-0.2,0-0.3,0.1-0.3,0.3c-0.5,1.4-1,2.7-1.6,4c-0.2,0.4-0.1,0.6,0.4,0.5C144.1,40.1,144.8,40.2,145.3,40.1L145.3,40.1z"/>
			<path id="_Path_4" class="st0" d="M71.7,37.6c0-2,0-3.7,0-5.3c0-0.6,0.2-0.6,0.7-0.6c0.5,0,0.7,0.1,0.7,0.6c0,3.2,0,6.4,0,9.6
				c-0.1,1.1,0.3,2.1,1.1,2.8c1.2,1.1,3,1,4.1-0.2c0.4-0.4,0.6-0.9,0.7-1.4c0.2-1.5,0.3-3.1,0.2-4.7c0-2.1,0-4.1,0-6.2
				c0-0.5,0.2-0.6,0.6-0.6c0.4,0,0.7,0,0.7,0.6c0,2.9,0,5.8,0,8.8c0,0.9-0.1,1.8-0.3,2.7c-0.4,1.9-2.2,3.2-4.1,3.1
				c-2,0-3.7-1.5-4-3.5C71.8,41.5,71.7,39.5,71.7,37.6z"/>
			<path id="_Path_5" class="st0" d="M115.3,31.4c1.6-0.4,3.4,0.3,4.2,1.8c0.3,0.5,0,0.7-0.3,0.9c-0.3,0.2-0.6,0.4-0.9,0
				c-0.3-0.4-0.5-1-1.2-1c-0.4-0.6-0.9-0.5-1.4-0.2l-0.5,0.2c-0.1,0-0.2,0.1-0.2,0.2l0,0c-0.8,0.8-0.8,2,0,2.8l0,0
				c0,0.1,0,0.1,0.1,0.1c0,0,0,0,0,0c0.9,1.1,2.1,1.9,3.1,2.8c2.1,2,2.3,4.8,0.4,6.6c-1.5,1.4-3.8,1.3-5.2-0.2
				c-0.1-0.1-0.2-0.3-0.3-0.4c-0.2-0.2-0.4-0.5-0.5-0.8c-0.3-0.4-0.2-0.9,0.2-1.2c0.1-0.1,0.3-0.1,0.4-0.2c0.3-0.1,0.4,0.2,0.5,0.3
				c0.2,0.4,0.5,0.8,0.9,1.2c0.6,0.7,1.5,1,2.4,0.6c0.9-0.3,1.5-1,1.6-2c0.1-0.9-0.2-1.8-0.9-2.5c-0.9-1.2-2.2-2-3.3-3.1
				c-0.4-0.4-0.7-0.8-0.9-1.3c0-0.4-0.1-0.7-0.3-1V35c0-0.7,0.2-1.5,0.3-2.2l0.1-0.2l0.1,0l0.1-0.2
				C114.2,32.1,114.7,31.7,115.3,31.4z"/>
			<path id="_Path_6" class="st0" d="M68,38.1c0,1.7,0.1,3.6-0.1,5.5c-0.1,1.4-0.5,2.7-2,3.1c-1.5,0.4-3.1,0-4.1-1.2
				c-0.5-0.5,0.2-0.8,0.3-1.1s0.4-0.1,0.5,0c0.3,0.2,0.7,0.5,1,0.7c0.8,0.6,1.9,0.4,2.5-0.4c0.2-0.3,0.4-0.7,0.4-1.1
				c0.1-1.8,0.2-3.7,0.1-5.5c0-2,0-4,0-6c0-0.5,0.3-0.5,0.6-0.5c0.4,0,0.7-0.1,0.7,0.5C68,34,68,35.9,68,38.1z"/>
			<path id="_Path_7" class="st0" d="M164.1,32.5v-0.3c0-0.5,0.3-0.5,0.7-0.5c1.9,0,3.9,0,5.8,0c0.6,0,0.8,0.2,0.8,0.8
				s-0.4,0.6-0.8,0.6c-0.4,0-0.7,0-1,0c-1.1,0-1.1,0-1.1,1.2c0,3.8,0,7.7,0,11.5c0,0.6-0.2,0.8-0.8,0.8s-0.5-0.5-0.5-0.8
				c0-3.9,0-7.8,0-11.7c0-0.7-0.3-0.9-0.9-0.9s-1,0-1.6,0S164.1,32.8,164.1,32.5z"/>
			<path id="_Path_8" class="st0" d="M83.8,46.5c-0.2-0.3-0.1-0.6-0.1-0.9c0-4.6,0-9.3,0-13.9H85v14.7L83.8,46.5z"/>
			<path id="_Path_9" class="st0" d="M83.4,27.2l0.6,1.1l0.1,0.6v0.3v0.5c-0.1,0.2-0.1,0.5-0.2,0.7h-0.4l0,0l-0.1-0.2
				c0,0,0-0.1,0-0.1l-0.1-0.2l-0.2-0.4l-0.5-0.9c0,0,0-0.1,0-0.1c0-0.2-0.1-0.4-0.3-0.5l-0.6-0.9c0-0.1,0-0.1,0-0.2
				c-0.1-0.2-0.4-0.5-0.2-0.7c0.2-0.2,0.5-0.1,0.8,0h0.3c0,0,0.1,0.1,0.1,0.1c0.1,0.1,0.2,0.2,0.3,0.2l0,0l0.2,0.1l0.3,0.3
				L83.4,27.2z"/>
			<path id="_Path_10" class="st0" d="M86.9,28.9L86.8,29c-0.2,0.2-0.4,0.5-0.5,0.8c-0.1,0.1-0.2,0.3-0.3,0.5l-0.1,0.1l-0.1,0.1
				c-0.1,0.1-0.2,0.2-0.2,0.3l0,0l-0.1,0.2l-0.3,0.2L85.1,31l0,0L85,30.8l-0.2-0.9c0-0.1,0-0.2,0-0.3l0.1-0.3v-0.1l0.5-1.1l0.1-0.1
				l0.7-0.7c0.3-0.1,0.6-0.3,0.9-0.4c0.3-0.1,0.6-0.2,0.7,0.3l-0.3,0.5C87.3,28,87,28.4,86.9,28.9z"/>
		</g>
	</g>
</g>
</svg>
