<?xml version="1.0" encoding="utf-8"?>
<!-- Generator: Adobe Illustrator 22.1.0, SVG Export Plug-In . SVG Version: 6.00 Build 0)  -->
<svg version="1.1" id="Layer_1" xmlns="http://www.w3.org/2000/svg" xmlns:xlink="http://www.w3.org/1999/xlink" x="0px" y="0px"
	 viewBox="0 0 233 73" style="enable-background:new 0 0 233 73;" xml:space="preserve">
<style type="text/css">
	.st0{fill:#FFFFFF;}
	.st1{fill:#3D3D3D;}
	.st2{fill:#858585;}
	.st3{fill:#C0BFBF;}
	.st4{fill:#B0B1B1;}
	.st5{fill:#7F7F7F;}
	.st6{fill:#5F6161;}
	.st7{fill:#9C9C9D;}
	.st8{fill:#7E7F7F;}
</style>
<title>Asset 3</title>
<g id="Layer_2_1_">
	<g id="Layer_1-2">
		<g id="_Group_">
			<path id="_Compound_Path_" class="st0" d="M107.6,27.7c0,0.1,0,0.2,0.1,0.4c0.5,1.9,2.4,3,4.3,2.5s3-2.4,2.5-4.3
				c-0.1-0.2-0.1-0.5-0.2-0.7s-0.1-0.2,0.2-0.3c0.9-0.2,1.7-0.6,2.4-1.1c1.2-0.8,1.9-2.2,2-3.6c0.1-1-0.1-2-0.5-2.9
				c-0.2-0.7-0.6-1.3-1-1.8c-0.8-1-1.9-1.6-3.1-1.6c-1,0-1.9,0.3-2.7,0.8c-0.3,0.2-0.3,0.2-0.5,0c-0.5-0.5-1.3-0.6-1.9-0.4
				c-0.9,0.3-1.5,1.1-1.4,2c0,2.1,0,4.1-0.1,6.1h-0.1c0-0.1,0-0.3-0.1-0.4c-0.2-1-1.1-1.6-2.1-1.5c-0.5,0.1-0.9,0.3-1.3,0.7l-3,2.9
				c-0.1,0.1-0.1,0.2-0.2,0.2c0-0.1-0.1-0.1-0.1-0.2c-0.3-0.9-0.5-1.8-0.8-2.7c-0.2-0.7-0.4-1.4-0.6-2C99,18.7,98,18.1,97,18.4
				c-0.6,0.1-1.2,0.5-1.4,1.1c-1.2,2.4-2.5,4.7-3.7,7l-0.2,0.3c-0.1,0-0.1-0.1-0.1-0.1c-0.7-1.8-1.8-3.5-3.2-4.9
				c-0.5-0.5-1-0.9-1.6-1.3C86,20,85,20.2,84.5,21c-0.2,0.3-0.3,0.8-0.2,1.2c0.1,0.6,0.3,1.1,0.5,1.7c0.4,1.3,0.8,2.7,1,4.1
				c0,0.2,0,0.5,0,0.7c0,0.2-0.1,0.2-0.3,0.3c-0.1,0.1-0.3,0-0.4-0.1c-0.2-0.2-0.4-0.5-0.5-0.8c-0.4-0.7-0.7-1.4-1-2.1
				c-0.4-1-0.8-2-1.2-3c-0.2-0.4-0.5-0.7-0.9-0.9c-0.9-0.4-1.9,0-2.3,0.9c0,0.1-0.1,0.2-0.1,0.2c0,0.1,0,0.3-0.2,0.4
				c0-0.1-0.1-0.2-0.1-0.3c-0.7-2.3-1.4-4.5-2.2-6.7c-0.3-0.9-0.7-1.9-1.1-2.8c-0.6-1.2-2-1.8-3.3-1.3c-1.2,0.5-2,1.8-1.7,3.1
				c0.1,0.3,0.1,0.6,0.2,0.9c0.7,3,1.1,6,1.4,9c0.3,2.3,0.3,4.7,0.1,7c-0.1,0.9-0.2,1.8-0.4,2.6c-0.1,0.4-0.3,0.8-0.5,1.2
				c-0.1,0.1-0.2,0.2-0.3,0.2c-0.4-0.1-0.8-0.2-1.2-0.3c-0.8-0.3-1.6-0.7-2.3-1.2c-0.7-0.5-1.5-0.8-2.3-0.9c-3.2-0.4-6.1,1.8-6.5,5
				c0,0.2,0,0.3,0,0.5c-0.1,2.4,1.3,4.7,3.6,5.6c1.8,0.7,3.6,1.2,5.6,1.5c1.7,0.3,3.4,0.2,5.1-0.2c3-0.7,5.4-2.7,6.6-5.5
				c0.6-1.4,1-2.9,1.2-4.4c0.1-0.9,0.1-1.8,0-2.7c0-0.1,0-0.2,0.1-0.3l0.2,0.2c1.5,1.6,3.7,2.2,5.8,1.7c1.7-0.3,3.2-1.3,4.2-2.6
				c0,0,0.1-0.1,0.1-0.1c1.3,1.4,3.6,1.5,5,0.2c0.4-0.4,0.7-0.8,0.9-1.3c0.8,1.1,2.2,1.5,3.4,1.1c0,0.1,0,0.3,0,0.4
				c-0.1,1.9,1.4,3.6,3.4,3.6c1.9,0.1,3.6-1.4,3.6-3.4l0,0L107.6,27.7L107.6,27.7z M129.4,31.8c0.1,0.5,0.3,1,0.3,1.5
				c0.3,1.9,2,3.3,4,3c1.4-0.2,2.6-1.2,2.9-2.6c0.1-0.6,0.1-1.2,0-1.7c0-0.1,0-0.3,0-0.4s0-0.2,0-0.4c0.2,0.3,0.3,0.6,0.5,0.8
				c2.4,3.7,7.3,4.8,11.1,2.4c0.1-0.1,0.2-0.1,0.3-0.2c2.7-1.9,3.9-5.3,2.9-8.5c-0.2-0.7-0.6-1.4-1-2.1c-0.2-0.2-0.3-0.5-0.3-0.9
				c0-1-0.1-2-0.1-3c-0.1-1.4-0.1-2.7-0.2-4.1c0-1-0.1-2.1-0.1-3.1c0-0.4,0-0.4,0.4-0.5c0.3,0,0.5-0.1,0.6-0.3
				c0-0.1,0.1-0.2,0.2-0.2c0.5-0.1,0.4-0.7,0.7-1c0.1-0.1,0.1-0.3,0.1-0.5c0,0,0,0,0-0.1c0-0.1,0-0.2,0-0.3c0.1-0.2,0.1-0.5-0.1-0.7
				c-0.1-0.1-0.1-0.2-0.1-0.3c0-0.3-0.1-0.5-0.3-0.6c-0.1,0-0.1-0.1-0.1-0.2c-0.2-0.5-0.7-0.4-1-0.7C150.1,7,149.9,7,149.8,7l0,0
				c-0.1,0-0.3,0-0.4,0c-0.2-0.1-0.4-0.1-0.6,0c-0.1,0.1-0.3,0.1-0.4,0.1c-0.2,0-0.4,0.1-0.6,0.3c-0.1,0.1-0.2,0.2-0.3,0.2
				c-0.2,0.1-0.4,0.3-0.4,0.5c0,0.1-0.1,0.3-0.2,0.4c-0.2,0.2-0.2,0.4-0.2,0.6c0,0.1,0,0.2,0,0.3c-0.2,0.4,0.2,0.8,0.2,1.2
				c0,0.2,0.1,0.3,0.3,0.4c0.1,0.1,0.3,0.3,0.1,0.6c-2.2,2.7-4.4,5.5-6.6,8.2c-0.1,0.1-0.2,0.2-0.4,0.3c-1.9,0.8-3.4,2.4-4.1,4.3
				c-0.1,0.2-0.1,0.4-0.2,0.7l-0.1-0.5c-0.1-1-0.2-2-0.3-3c-0.1-0.9-0.9-1.6-1.9-1.5c-0.7,0.1-1.3,0.6-1.5,1.2c0,0.1,0,0.2-0.1,0.3
				l-0.3,1.1c-0.1-0.2-0.2-0.3-0.2-0.4c-0.5-0.9-0.9-1.8-1.4-2.7c-0.5-1-1.7-1.4-2.7-0.9c-0.5,0.2-0.9,0.7-1,1.2l-2.4,5.9
				c0,0.1,0,0.2-0.2,0.3c0-0.2-0.1-0.3-0.1-0.5c-0.3-1.6-0.7-3.3-1-4.9c-0.2-1.1-1.3-1.8-2.4-1.6c-0.9,0.2-1.6,1-1.6,2
				c0,0.7,0,1.4-0.1,2.1c0,1.3,0,2.6-0.1,3.9c-0.1,1.9-0.2,3.8-0.2,5.7c0,1.9,1.6,3.5,3.5,3.5c1.1,0,2.2-0.6,2.9-1.5
				c0.1-0.2,0.3-0.3,0.5-0.2c0.7,0.1,1.4,0,2-0.3c1.1-0.5,1.8-1.5,2-2.7L129.4,31.8z M120.8,51.4c0,0.1,0,0.1,0,0.2l-0.7,2.2
				c-0.1,0.4-0.2,0.8-0.2,1.3c0,1.9,1.6,3.3,3.5,3.3c0.3,0,0.5,0,0.8-0.1c1.4-0.3,2.4-1.4,2.5-2.8c0-0.2,0.1-0.2,0.3-0.3
				c0.6-0.1,1.1-0.1,1.7-0.2c0.2,0,0.4,0.1,0.5,0.2c0.7,1.1,2,1.8,3.3,1.6c0.7,0,1.3-0.3,1.8-0.7c0.1,0,0.1,0.1,0.1,0.1
				c1.1,1.5,3.2,1.8,4.7,0.7c0.2-0.2,0.5-0.4,0.7-0.7c0.1-0.2,0.3-0.4,0.5-0.5c0.1,0.2,0.1,0.3,0.2,0.4c0.7,1.7,2.7,2.4,4.4,1.7
				c0.3-0.1,0.6-0.3,0.9-0.6c0.8-0.7,1.2-1.8,1.1-3c0-0.7-0.1-1.3-0.1-2c-0.1-1.2-0.2-2.5-0.3-3.7c0-0.4,0-0.9-0.1-1.3
				c1.2,0.3,2.5,0.2,3.7,0.4c0,0.1,0,0.2,0,0.3c-0.4,1.9-0.9,3.8-1.3,5.7c-0.1,0.5-0.1,1,0,1.4c0.4,1.8,2.2,3,4.1,2.6
				c1.7-0.4,2.8-1.9,2.7-3.6c0-0.4-0.1-0.8-0.1-1.2c-0.1-1.1-0.2-2.1-0.2-3.2c0-0.5-0.1-1.1-0.1-1.6h0.2l2.3,0.2
				c1.6,0.2,3.1-1,3.3-2.7c0-0.3,0-0.5,0-0.8c-0.2-1.6-1.7-2.7-3.2-2.6c-0.7,0.1-1.5,0.1-2.2,0.2l-3.7,0.3l-3.8,0.3
				c-0.6,0-1.2,0.1-1.7,0.4c0,0-0.1-0.1-0.1-0.1c-0.5-1-1.7-1.4-2.7-1c-0.2,0.1-0.4,0.2-0.5,0.4c-0.1,0.1-0.2,0.1-0.3,0c0,0,0,0,0,0
				c-0.3-0.2-0.6-0.3-0.9-0.4c-1.8-0.7-3.8,0-4.8,1.7c-0.5,0.8-0.9,1.7-1,2.7c-0.3,1.3,0,2.6,0.7,3.7c0,0,0,0.1,0,0.1
				c-0.3,0.1-0.6,0.3-0.9,0.4c-0.1,0.1-0.2,0-0.2-0.1c-0.2-0.2-0.3-0.5-0.5-0.7l-6.9-7.1c-0.2-0.2-0.4-0.5-0.7-0.7
				c-0.5-0.6-1.2-0.9-1.9-0.7c-0.8,0.1-1.4,0.7-1.6,1.4c-0.2,0.6-0.4,1.2-0.6,1.8c0,0.1,0,0.2-0.1,0.2c0-0.3-0.1-0.6-0.1-0.9
				c-0.3-1.4-0.8-2.7-1.5-3.9c-0.8-1.4-1.9-2.6-3.2-3.6c-1.6-1.2-3.5-1.7-5.5-1.5c-1.7,0.2-3.2,0.9-4.5,2c-0.5,0.4-1,0.9-1.5,1.4
				l-0.3-0.2c-1-0.9-2.5-1-3.7-0.4c-1.3,0.6-2.1,2.1-1.7,3.6c0.2,1,0.5,2,0.7,3.1l3.5,15.8c0.1,0.7,0.3,1.4,0.6,2
				c1.6,3.1,5.3,4.4,8.5,2.8c0.1,0,0.2-0.1,0.3-0.2c2.8-1.5,3.9-5.1,2.4-7.9c0,0,0-0.1-0.1-0.1c-0.4-0.7-0.7-1.3-1.1-2
				c-0.1-0.1-0.1-0.2-0.1-0.3C117.5,54.3,119.4,53,120.8,51.4z M167.7,40.3c-0.2-0.9-0.5-1.7-0.7-2.6c-0.2-0.7-0.3-1.3-0.5-1.9
				c-0.3-1.1-1.3-1.7-2.4-1.5c-1,0.1-1.8,1.1-1.6,2.1c0.1,1.3,0.2,2.6,0.2,3.9c0.1,1.3,0.2,2.8,0.3,4.2c0,0.2,0,0.4-0.2,0.5
				c-0.9,0.8-1.7,1.6-2.6,2.5c-0.9,0.9-1.3,2.2-1.1,3.4c0.5,2.3,2.7,3.7,5,3.3c1.2-0.2,2.2-0.9,2.8-1.9c1.6-2.7,3.3-5.3,4.9-8
				l2.2-3.5c0.4-0.6,0.5-1.4,0.2-2.1c-0.6-1.2-2-1.8-3.3-1.2c-0.2,0.1-0.4,0.2-0.6,0.4c-0.5,0.4-0.9,0.9-1.3,1.3L167.7,40.3z
				 M113.2,31.3c-0.7,0-1.4,0-2.1,0.1c-0.7,0-1.3,0.1-1.9,0.3c-0.2,0-0.4,0.1-0.6,0.2c-0.2,0.1-0.2,0.3,0,0.5
				c0.2,0.1,0.4,0.2,0.7,0.2c0.5,0.1,1.1,0.2,1.6,0.2c1.9,0.2,3.8,0.1,5.7-0.1c0.4,0,0.9-0.1,1.3-0.3c0.1-0.1,0.2-0.1,0.2-0.3
				c0-0.1-0.1-0.2-0.2-0.3c-0.3-0.1-0.6-0.2-0.9-0.3C115.7,31.4,114.4,31.3,113.2,31.3L113.2,31.3z M163.8,56.7
				c-1.1,0-2.2,0.1-3.4,0.2c-0.5,0-0.9,0.1-1.3,0.3c-0.3,0.2-0.3,0.4,0,0.5l0.2,0.1c0.4,0.1,0.7,0.2,1.1,0.2c2,0.3,4.1,0.3,6.1,0.1
				c0.5,0,1-0.1,1.5-0.3c0.2,0,0.3-0.1,0.4-0.2c0.1-0.1,0.1-0.2,0.1-0.3c0,0,0,0-0.1-0.1c-0.1-0.1-0.2-0.1-0.3-0.2
				c-0.2-0.1-0.5-0.2-0.8-0.2C166.3,56.8,165.1,56.7,163.8,56.7L163.8,56.7z"/>
			<path id="_Compound_Path_2" class="st1" d="M120.8,51.4c-1.4,1.6-3.2,2.9-5.3,3.6c0,0.1,0.1,0.2,0.1,0.3c0.4,0.7,0.7,1.3,1.1,2
				c1.6,2.8,0.6,6.4-2.2,7.9c0,0-0.1,0-0.1,0.1c-3,1.7-6.9,0.7-8.6-2.4c-0.1-0.1-0.1-0.2-0.1-0.3c-0.3-0.7-0.5-1.4-0.6-2.1
				l-3.5-15.9c-0.2-1-0.4-2-0.7-3.1c-0.3-1.4,0.4-2.9,1.7-3.6c1.2-0.6,2.6-0.5,3.7,0.4l0.3,0.2c0.5-0.5,1-0.9,1.5-1.4
				c1.3-1.1,2.8-1.8,4.5-2c2-0.3,3.9,0.3,5.5,1.5c1.3,1,2.3,2.2,3.1,3.6c0.7,1.2,1.3,2.5,1.6,3.9c0.1,0.3,0.1,0.6,0.1,0.9
				c0.1,0,0.1-0.1,0.1-0.2c0.2-0.6,0.4-1.2,0.6-1.8c0.2-0.7,0.8-1.3,1.6-1.4c0.7-0.1,1.5,0.2,1.9,0.7c0.2,0.2,0.4,0.5,0.7,0.7l7,7.2
				c0.2,0.2,0.4,0.4,0.5,0.7c0.1,0.1,0.1,0.2,0.2,0.1c0.3-0.2,0.6-0.3,0.9-0.4c0.1-0.1,0-0.1,0-0.1c-0.7-1.1-0.9-2.4-0.7-3.7
				c0.1-1,0.5-1.9,1-2.7c1-1.7,3-2.4,4.8-1.7c0.3,0.1,0.6,0.2,0.9,0.4c0.1,0.1,0.2,0.1,0.3,0c0,0,0,0,0,0c0.8-0.8,2-0.8,2.8,0
				c0.2,0.2,0.3,0.4,0.4,0.6c0,0,0,0,0.1,0.1c0.5-0.3,1.1-0.5,1.6-0.5l3.8-0.3l3.7-0.3c0.8-0.1,1.5-0.1,2.2-0.2c1.6-0.2,3,1,3.3,2.6
				c0.2,1.6-0.9,3.2-2.6,3.4c-0.2,0-0.5,0-0.7,0l-2.3-0.2h-0.2c0,0.5,0.1,1.1,0.1,1.6c0.1,1.1,0.2,2.1,0.2,3.2
				c0,0.4,0.1,0.8,0.1,1.2c0.1,1.9-1.2,3.5-3.1,3.7c-1.7,0.1-3.2-1-3.6-2.7c-0.1-0.4-0.1-0.9,0-1.3c0.4-1.9,0.8-3.8,1.2-5.6
				c0-0.1,0-0.2,0-0.3c-1.2-0.2-2.5-0.1-3.7-0.4c0,0.4,0,0.9,0.1,1.3c0.1,1.2,0.2,2.5,0.3,3.7c0,0.7,0.1,1.3,0.1,2
				c0.1,1.1-0.3,2.2-1.1,3c-1.4,1.2-3.5,1.1-4.7-0.2c-0.2-0.3-0.4-0.6-0.6-0.9c-0.1-0.1-0.1-0.3-0.2-0.4c-0.2,0.2-0.3,0.3-0.5,0.5
				c-1.1,1.5-3.2,1.8-4.7,0.7c-0.2-0.2-0.5-0.4-0.7-0.7c0-0.1-0.1-0.1-0.1-0.1c-0.5,0.4-1.2,0.6-1.8,0.7c-1.3,0.1-2.6-0.5-3.3-1.7
				c-0.1-0.2-0.3-0.3-0.5-0.2c-0.6,0.1-1.1,0.2-1.7,0.2c-0.2,0-0.2,0.1-0.3,0.3c-0.2,1.4-1.2,2.5-2.5,2.8c-1.8,0.5-3.6-0.6-4.1-2.4
				c-0.1-0.2-0.1-0.5-0.1-0.8c0-0.4,0.1-0.9,0.2-1.3l0.7-2.2C120.8,51.7,120.8,51.5,120.8,51.4z M134.4,52c0.2-0.2,0.2-0.2,0-0.5
				l-0.2-0.3c-1-1.1-2.1-2.2-3.1-3.3c-1.6-1.6-3.1-3.2-4.7-4.8c-0.5-0.5-1.3-0.5-1.8-0.1c-0.1,0.1-0.2,0.3-0.3,0.5l-0.1,0.3
				c-0.3,0.8-0.6,1.7-0.8,2.5c-0.8,2.6-1.7,5.2-2.5,7.8c-0.2,0.5-0.2,1-0.1,1.5c0.3,1.4,1.7,2.3,3.1,2c1-0.2,1.7-0.9,2-1.9
				c0.1-0.3,0.1-0.6,0.1-0.9c0-0.2,0-0.2,0.2-0.2l3-0.4c0.1,0,0.2,0,0.2,0.1c0,0.1,0.1,0.2,0.1,0.2c0.7,1.4,2.4,2,3.8,1.3
				c0,0,0,0,0,0c0.7-0.3,0.5-0.3,0.3-0.9l-0.1-0.6c0-0.6,0.1-1.3,0.4-1.8L134.4,52z M106.7,40.2c-0.1,0-0.1-0.1-0.2-0.2
				c-0.6-0.9-1.7-1.4-2.8-1.2c-1.3,0.2-2.3,1.5-2,2.8c0,0.1,0,0.1,0,0.2c0.1,0.3,0.1,0.6,0.2,0.9c1.3,6,2.7,12,4,18
				c0.1,0.6,0.3,1.2,0.5,1.8c1.2,2.3,3.8,3.5,6.3,2.9c2.8-0.6,4.6-3.3,4-6.1c-0.1-0.5-0.3-1-0.6-1.5c-0.5-0.9-1-1.8-1.5-2.8
				c-0.1-0.2-0.1-0.2,0.1-0.3c0.6-0.2,1.1-0.4,1.7-0.7c1.7-0.8,3.2-2,4.3-3.5c1.2-1.7,1.7-3.8,1.2-5.9c-0.3-1.3-0.7-2.5-1.4-3.6
				c-0.8-1.3-1.8-2.5-3-3.4c-1.4-1.1-3.1-1.6-4.8-1.3c-1.5,0.2-3,0.9-4.2,1.8C107.9,38.8,107.3,39.5,106.7,40.2z M137.5,51.3
				c-0.6,0.3-1.1,0.5-1.7,0.8c-1,0.5-1.5,1.6-1.4,2.7c0.1,1,0.8,1.9,1.8,2.2c1,0.3,2.1,0,2.8-0.9l1.6-1.9c0.1-0.1,0.2-0.2,0.3-0.3
				l-0.1,0.6c-0.2,1.3,0.6,2.6,1.9,3c1.3,0.3,2.7-0.4,3.1-1.7c0.1-0.4,0.2-0.9,0.1-1.3c-0.1-0.9-0.1-1.7-0.2-2.6
				c-0.1-1.6-0.2-3.2-0.3-4.8c0-0.2,0-0.3-0.1-0.5c-0.4-0.6-0.4-1.4-0.1-2c0.1-0.1,0.1-0.3,0-0.4c-0.2-0.5-0.6-0.8-1.1-0.8
				c-0.5,0-0.9,0.3-1.1,0.7c-0.1,0.1-0.1,0.2-0.1,0.3c-0.2-0.1-0.3-0.2-0.4-0.2c-0.4-0.3-0.9-0.5-1.4-0.7c-1-0.4-2.1-0.2-3,0.4
				c-0.5,0.4-0.9,0.9-1.2,1.5c-0.4,0.9-0.6,1.8-0.6,2.8c0,1.1,0.4,2.1,1.1,2.9C137.5,51.1,137.5,51.2,137.5,51.3L137.5,51.3z
				 M152.1,57.4c0.4,0,0.8-0.1,1.2-0.3c1-0.5,1.6-1.5,1.5-2.5c0-0.7-0.1-1.5-0.2-2.2l-0.4-4.7c0-0.2,0-0.2,0.2-0.2h0.1
				c1,0.1,2.1,0.2,3.1,0.2c1.2,0.1,2.3-0.7,2.5-2c0.1-1.2-0.7-2.3-2-2.5c-0.4-0.1-0.7-0.1-1.1,0l-3.8,0.3l-3.9,0.3
				c-0.8,0.1-1.5,0.1-2.3,0.2c-0.7,0.1-1.3,0.7-1.2,1.5c0,0.7,0.6,1.3,1.3,1.4c0.4,0,0.7,0,1.1,0.1l2.5,0.2c0.2,0,0.2,0,0.2,0.3
				c-0.2,0.7-0.3,1.3-0.4,2c-0.3,1.5-0.7,3.1-1,4.6c-0.3,1.4,0.6,2.8,2,3.2C151.7,57.4,151.9,57.4,152.1,57.4L152.1,57.4z"/>
			<path id="_Compound_Path_3" class="st1" d="M107.5,27.7v5.7c0,0.4-0.1,0.9-0.2,1.3c-0.6,1.8-2.6,2.8-4.4,2.1
				c-1.5-0.5-2.4-2-2.3-3.6c0-0.1,0-0.2,0-0.4c-1.3,0.5-2.7,0-3.4-1.1c-0.7,1.8-2.8,2.7-4.6,2c-0.5-0.2-0.9-0.5-1.3-0.9
				c0,0-0.1,0-0.1,0.1c-1,1.4-2.5,2.4-4.2,2.7c-2.1,0.5-4.3-0.1-5.8-1.7l-0.2-0.2c-0.1,0.1-0.1,0.2-0.1,0.3c0,0.9,0,1.8-0.1,2.7
				c-0.1,1.5-0.5,3-1.1,4.4c-1.2,2.8-3.7,4.8-6.6,5.5c-1.7,0.4-3.4,0.4-5.1,0.2c-1.9-0.3-3.8-0.8-5.6-1.5c-2.3-0.9-3.7-3.1-3.6-5.6
				c0.2-3.2,2.9-5.7,6.1-5.5c0.1,0,0.3,0,0.4,0c0.8,0.1,1.6,0.4,2.3,0.9c0.7,0.5,1.5,0.8,2.3,1.2c0.4,0.2,0.8,0.3,1.2,0.3
				c0.1,0,0.3,0,0.3-0.2c0.2-0.4,0.4-0.8,0.5-1.2c0.2-0.9,0.4-1.7,0.5-2.6c0.2-2.3,0.1-4.7-0.1-7c-0.3-3-0.8-6-1.4-9
				c-0.1-0.3-0.1-0.6-0.2-0.9c-0.3-1.3,0.5-2.6,1.7-3.1c1.3-0.5,2.7,0.1,3.3,1.3c0.4,0.9,0.8,1.8,1.1,2.8c0.8,2.2,1.6,4.4,2.2,6.7
				c0,0.1,0.1,0.2,0.1,0.3c0.1-0.1,0.1-0.3,0.2-0.4c0.2-0.9,1.2-1.5,2.1-1.2c0.1,0,0.2,0,0.2,0.1c0.4,0.2,0.7,0.5,0.9,0.9
				c0.4,1,0.8,2,1.2,3c0.3,0.7,0.6,1.4,1,2.1c0.2,0.3,0.3,0.5,0.5,0.8c0.1,0.1,0.3,0.1,0.4,0.1c0.1,0,0.3-0.1,0.3-0.3
				c0-0.2,0-0.5,0-0.7c-0.2-1.4-0.6-2.7-1-4.1c-0.2-0.6-0.4-1.2-0.5-1.8c-0.2-0.9,0.4-1.7,1.3-1.9c0.4-0.1,0.8,0,1.2,0.2
				c0.6,0.4,1.1,0.8,1.6,1.3c1.4,1.3,2.6,3,3.2,4.9c0,0.1,0,0.1,0.1,0.1l0.2-0.3c1.2-2.4,2.5-4.7,3.7-7c0.3-0.6,0.8-1,1.4-1.1
				c1-0.2,2,0.3,2.3,1.3c0.3,0.7,0.4,1.4,0.6,2c0.3,0.9,0.5,1.8,0.8,2.7c0,0.1,0,0.1,0.1,0.2c0.1,0,0.2-0.1,0.2-0.2l3-2.9
				c0.3-0.4,0.8-0.6,1.3-0.7c1-0.1,1.9,0.5,2.1,1.5c0,0.1,0,0.3,0.1,0.4c0,1,0,1.9,0,2.9c-0.1,0.7,0,1.3,0,2
				C107.5,27.5,107.5,27.6,107.5,27.7z M73.1,29.1c0.1,1.5,0,3-0.2,4.5c-0.1,0.9-0.3,1.8-0.7,2.7c-0.1,0.3-0.3,0.6-0.5,0.9
				c-0.1,0.2-0.4,0.3-0.6,0.2c0,0,0,0,0,0l-0.2,0c-0.4-0.1-0.8-0.2-1.2-0.3c-0.9-0.3-1.8-0.8-2.6-1.3c-1.2-0.8-2.6-1-4-0.6
				c-2.1,0.6-3.6,2.4-3.7,4.6c-0.1,2.1,1.1,4.1,3.1,4.9c1.7,0.7,3.5,1.2,5.4,1.5c1.7,0.3,3.4,0.2,5-0.2c2.7-0.6,4.9-2.5,6-5
				c0.7-1.5,1.1-3.2,1.1-4.9c0.1-2.5-0.1-5-0.7-7.5c-0.4-2.1-1-4.2-1.6-6.2c-0.7-2.3-1.5-4.5-2.4-6.7c-0.2-0.4-0.3-0.8-0.5-1.2
				c-0.4-0.8-1.4-1.2-2.3-0.9c-0.9,0.3-1.4,1.2-1.2,2.1c0.2,0.7,0.3,1.4,0.5,2.1c0.4,2,0.8,4.1,1,6.1C72.9,25.7,73.1,27.6,73.1,29.1
				z M102.1,29.9L102.1,29.9l-0.8,2.7c-0.1,0.5-0.2,0.9-0.1,1.4c0.3,1.5,1.8,2.4,3.3,2.1c1-0.2,1.8-1,2.1-2c0.1-0.3,0.1-0.7,0.1-1
				l0-10.3c0-0.1,0-0.2,0-0.3c-0.1-0.6-0.6-1.1-1.2-1.1c-0.4,0-0.8,0.2-1,0.5l-3.8,3.7c-0.1,0.1-0.2,0.2-0.3,0.2
				c-0.1-0.1-0.1-0.2-0.1-0.3c-0.3-1.1-0.6-2.2-1-3.2c-0.2-0.8-0.5-1.6-0.7-2.4c-0.1-0.2-0.2-0.4-0.4-0.6c-0.5-0.5-1.3-0.5-1.9,0
				c-0.1,0.1-0.2,0.2-0.3,0.4c-1.4,2.6-2.8,5.3-4.1,7.9C92,27.9,92,28,92,28.2c0.2,1.2,0.1,2.4-0.4,3.6c-0.1,0.2-0.1,0.4,0.1,0.6
				c0.7,0.8,1.7,1.1,2.7,0.8c1-0.2,1.8-1,2-2c0.2-0.7,0.3-1.3,0.4-2c0-0.2,0.1-0.4,0.2-0.6c0,0.5,0.1,0.9,0.1,1.4
				c0,0.6,0.3,1.2,0.8,1.6c0.4,0.4,0.9,0.6,1.4,0.6c0.8,0.1,1.6-0.3,2-1C101.6,30.8,101.8,30.4,102.1,29.9L102.1,29.9z M85.4,35.1
				c1,0,2.1-0.3,3-0.7c1.6-0.7,2.7-2.2,3-3.9c0.2-1.2,0.1-2.5-0.4-3.7c-0.9-2.2-2.4-4.1-4.3-5.4c-0.1-0.1-0.2-0.1-0.3-0.2
				C86,21,85.7,21,85.4,21.2c-0.3,0.2-0.4,0.5-0.3,0.9c0,0.2,0.1,0.3,0.1,0.5c0.3,1.1,0.7,2.2,1,3.3c0.3,0.9,0.4,1.7,0.5,2.6
				c0,1-0.1,1-1.1,1.3c-0.2,0.1-0.5,0-0.7-0.2c-0.3-0.3-0.6-0.6-0.8-1c-0.6-1.1-1.1-2.2-1.5-3.3l-0.8-1.9c-0.1-0.2-0.2-0.4-0.4-0.5
				c-0.5-0.2-1.1-0.1-1.3,0.4c0,0.1-0.1,0.1-0.1,0.2c-0.1,0.5-0.2,1-0.3,1.5c-0.1,0.3-0.1,0.7,0,1c0.4,1.7,0.7,3.4,0.9,5.1
				c0,0.6,0.3,1.2,0.6,1.7C82.2,34.2,83.7,35,85.4,35.1z"/>
			<path id="_Compound_Path_4" class="st1" d="M129.3,31.8c-0.2,1.2-0.9,2.2-2,2.7c-0.6,0.3-1.3,0.4-2,0.3c-0.2-0.1-0.4-0.1-0.6,0.1
				c0,0,0,0,0,0c-1.1,1.6-3.2,2-4.8,1c-1-0.7-1.6-1.8-1.5-3c0.1-1.9,0.2-3.8,0.2-5.7c0.1-1.3,0.1-2.6,0.2-3.9c0-0.7,0.1-1.4,0.1-2.1
				c-0.1-1.1,0.7-2.1,1.9-2.2s2.1,0.7,2.2,1.9l0,0c0.3,1.6,0.7,3.3,1,4.9c0,0.2,0.1,0.3,0.1,0.5c0.1,0,0.1-0.2,0.2-0.3l2.4-5.9
				c0.3-1.1,1.5-1.6,2.5-1.3c0.5,0.2,0.9,0.5,1.2,1c0.5,0.9,0.9,1.8,1.4,2.7c0,0.1,0.1,0.2,0.2,0.4l0.3-1c0-0.1,0-0.2,0.1-0.4
				c0.3-0.9,1.2-1.4,2.1-1.2c0.7,0.2,1.2,0.8,1.2,1.5c0.1,1,0.2,2,0.3,3l0.1,0.5c0.1-0.3,0.2-0.5,0.2-0.7c0.7-1.9,2.2-3.5,4.1-4.3
				c0.1-0.1,0.3-0.2,0.4-0.3c2.1-2.8,4.3-5.5,6.5-8.3c0.2-0.3,0.2-0.4-0.1-0.6s-0.3-0.2-0.3-0.4c0-0.4-0.4-0.8-0.2-1.2
				c0-0.1,0-0.2,0-0.3c0-0.2,0-0.5,0.2-0.6c0.1-0.1,0.2-0.2,0.2-0.4c0-0.2,0.2-0.4,0.4-0.5c0.1,0,0.2-0.1,0.3-0.2
				c0.1-0.2,0.3-0.3,0.5-0.3c0.2,0,0.3,0,0.5-0.1c0.2-0.1,0.4-0.1,0.6,0c0.1,0.1,0.3,0.1,0.4,0.1l0,0c0.2,0,0.3,0,0.4,0.1
				c0.3,0.3,0.8,0.2,1,0.7c0,0.1,0.1,0.2,0.2,0.2c0.2,0.1,0.3,0.4,0.3,0.6c0,0.1,0,0.2,0.1,0.3c0.1,0.2,0.2,0.5,0.1,0.7
				c0,0.1,0,0.2,0,0.3c0,0,0,0,0,0.1c0,0.2,0,0.3-0.1,0.5c-0.3,0.3-0.2,0.9-0.7,1c-0.1,0-0.2,0.1-0.2,0.2c-0.1,0.2-0.4,0.3-0.6,0.3
				c-0.4,0-0.4,0.1-0.4,0.5c0,1,0.1,2.1,0.1,3.1c0.1,1.4,0.1,2.7,0.2,4.1c0,1,0.1,2,0.1,3c0,0.3,0.1,0.6,0.3,0.9
				c0.4,0.6,0.8,1.3,1,2.1c0.9,3.2-0.2,6.6-2.9,8.4c-3.6,2.6-8.6,1.7-11.2-1.9c-0.1-0.1-0.2-0.2-0.2-0.4c-0.2-0.2-0.3-0.5-0.5-0.8
				c0,0.2,0,0.3,0,0.4s0,0.3,0,0.4c0.1,0.6,0.1,1.2,0,1.7c-0.5,1.9-2.4,3-4.3,2.5c-1.4-0.4-2.4-1.5-2.6-2.9c-0.1-0.5-0.2-1-0.3-1.5
				c0-0.1,0-0.2-0.1-0.3C129.2,31.5,129.2,31.6,129.3,31.8z M142.2,21.7L142.2,21.7C142.2,21.7,142.2,21.6,142.2,21.7
				c-0.3-0.2-0.5-0.4-0.7-0.6c-0.1-0.2-0.3-0.2-0.5-0.1c-1.7,0.6-3.1,1.9-3.8,3.6c-1,2.3-0.8,4.9,0.6,7c2.1,3.4,6.6,4.4,9.9,2.3
				c0.2-0.1,0.5-0.3,0.7-0.5c2.6-2,3.4-5.5,2-8.4c-0.1-0.4-0.3-0.7-0.6-1c-0.2-0.2-0.4-0.4-0.6-0.5c-0.1-0.1-0.2-0.1-0.3-0.1
				c-0.3,0.1-0.7,0.1-1,0c-0.1,0-0.2,0-0.3,0c-0.3,0.1-0.5,0.2-0.8,0.4h-0.1l-3.6,1.7c-0.5,0.2-0.8,0.8-0.6,1.3c0,0,0,0,0,0
				c0.2,0.5,0.7,0.8,1.2,0.7l2.5-0.2c0.2,0,0.3,0,0.5,0c-0.2,0.4-0.5,0.8-0.8,1.1c-1.2,1-3.1,0.9-4.1-0.4c0-0.1-0.1-0.1-0.1-0.2
				c-0.6-0.8-0.7-1.9-0.4-2.8c0.3-1.1,1.3-2,2.5-2.2l0.9-0.1l-1.4-0.6c-0.2,0-0.3-0.1-0.5-0.2C142.6,21.9,142.4,21.8,142.2,21.7
				L142.2,21.7C142.2,21.7,142.2,21.7,142.2,21.7z M147.2,12.9c-0.3,0.3-0.6,0.7-0.8,1l-0.8,1c-0.3,0.3-0.6,0.6-0.8,1
				c-0.3,0.3-0.5,0.7-0.8,1c-0.3,0.3-0.5,0.6-0.8,1c-0.3,0.3-0.5,0.6-0.8,1c-0.3,0.3-0.5,0.6-0.8,1c-0.1,0.2,0,0.4,0.1,0.6
				c0.2,0.2,0.4,0.4,0.7,0.6c0.5,0.4,1,0.7,1.6,0.9c1.3,0.6,2.6,0.9,4,1c0.3,0,0.7,0,1-0.1c0.4-0.1,0.4-0.3,0.4-0.6v-0.4
				c0-0.3,0-0.6,0-0.9v-1c0-0.3,0-0.7,0-1v-1c0-0.3,0-0.6-0.1-0.9c0-0.4,0-0.7,0-1.1c0-0.3,0-0.6-0.1-0.9c0-0.4,0-0.7,0-1.1
				c0-0.3,0-0.6,0-0.9c0-0.5,0-1-0.1-1.5c0.1-0.1,0.1,0,0.2,0s0.2,0.2,0.4,0s0.2-0.2,0.4-0.1s0.2,0.1,0.3-0.1s0.1-0.3,0.3-0.3
				c0.2,0,0.2,0,0.2-0.2s0-0.3,0.2-0.4c0.2-0.1,0.2-0.1,0.1-0.3c-0.1-0.2-0.1-0.3,0-0.4c0.1-0.1,0.2-0.2,0-0.3
				c-0.2-0.1-0.2-0.2-0.1-0.4c0.1-0.2,0.1-0.3-0.1-0.3c-0.2,0-0.3-0.1-0.3-0.4s0-0.2-0.2-0.2c-0.2,0-0.3,0-0.4-0.2
				c-0.1-0.2-0.3-0.2-0.5-0.1c-0.2,0.2-0.2,0.1-0.4,0l-0.1-0.1c-0.1-0.1-0.2-0.1-0.3,0s-0.2,0.2-0.5,0.1c-0.3-0.1-0.2,0-0.3,0.1
				s-0.1,0.3-0.4,0.3s-0.2,0-0.2,0.2s0,0.3-0.2,0.4s-0.2,0.1-0.1,0.3c0.1,0.2,0.1,0.3-0.1,0.4c-0.2,0.2-0.2,0.2,0,0.3
				c0.1,0.1,0.2,0.2,0.1,0.5s0,0.2,0.1,0.2c0.1,0,0.3,0.1,0.3,0.4s0.1,0.2,0.2,0.2h0.1c0.2,0,0.2,0.1,0.1,0.2
				C147.9,11.9,147.5,12.3,147.2,12.9z M129,27.5L129,27.5c0.4,1.4,0.8,2.7,1.1,4.1c0.2,0.5,0.3,1,0.3,1.5c0.1,1.5,1.4,2.7,2.9,2.6
				c1.5-0.1,2.7-1.4,2.6-2.9c0-0.1,0-0.2,0-0.3c0-0.4-0.1-0.8-0.1-1.1c-0.1-1-0.2-2-0.3-3c-0.1-1.3-0.3-2.6-0.4-3.9l-0.3-2.6
				c0-0.2-0.1-0.3-0.2-0.4c-0.2-0.3-0.6-0.5-0.9-0.4c-0.4,0-0.7,0.3-0.8,0.7c-0.1,0.5-0.2,1-0.4,1.5s-0.3,1.2-0.4,1.8
				c-0.1-0.1-0.2-0.2-0.2-0.3l-1.6-3.2c-0.2-0.4-0.5-0.9-0.7-1.3c-0.2-0.4-0.7-0.7-1.2-0.7c-0.5,0-0.9,0.3-1.1,0.8
				c0,0.1-0.1,0.1-0.1,0.2c-1.3,3.3-2.7,6.5-4,9.8c-0.6,1.4,0.1,3,1.5,3.6c1.4,0.6,3-0.1,3.6-1.5c0.1-0.2,0.1-0.4,0.1-0.5
				c0.1-1.1,0.3-2.2,0.4-3.4L129,27.5z M124.2,34.4c0-0.1-0.1-0.1-0.2-0.1c-1.5-0.9-2.1-2.8-1.4-4.4c0.3-0.6,0.5-1.3,0.8-1.9
				c0.1-0.2,0.1-0.5,0.1-0.8c-0.3-1.6-0.7-3.2-1-4.8c-0.1-0.5-0.2-0.9-0.3-1.4c-0.1-0.6-0.8-1.1-1.4-1c-0.6,0.1-1.1,0.6-1.2,1.2
				c0,1.1-0.1,2.2-0.1,3.3c-0.1,1.3-0.1,2.7-0.2,4s-0.1,2.9-0.2,4.3c-0.1,0.7,0.2,1.4,0.7,1.9c1,1.1,2.7,1.3,3.8,0.3
				C123.8,35,124,34.7,124.2,34.4z M145.2,23.7c-0.7-0.2-1.5-0.2-2.2,0.2c-0.7,0.4-1.2,1-1.2,1.8c0.3-0.4,0.8-0.8,1.3-0.9
				c0.6-0.3,1.3-0.6,1.9-0.9C145.1,23.8,145.2,23.8,145.2,23.7L145.2,23.7z M144.5,28.3l-0.8,0.1C144,28.5,144.3,28.4,144.5,28.3
				L144.5,28.3z"/>
			<path id="_Compound_Path_5" class="st1" d="M167.7,40.3l1.3-1.2c0.4-0.4,0.9-0.9,1.3-1.3c1-0.9,2.6-0.8,3.5,0.3
				c0.2,0.2,0.3,0.4,0.4,0.6c0.3,0.7,0.2,1.5-0.2,2.1l-2.2,3.5c-1.6,2.7-3.3,5.3-4.9,8c-0.6,1-1.6,1.7-2.8,1.9c-2.3,0.4-4.5-1-5-3.3
				c-0.3-1.2,0.1-2.6,1.1-3.4c0.8-0.8,1.7-1.7,2.6-2.5c0.1-0.1,0.2-0.3,0.2-0.5c-0.1-1.4-0.2-2.8-0.3-4.2s-0.1-2.6-0.2-3.9
				c-0.1-1,0.6-2,1.6-2.1c1.1-0.2,2.1,0.5,2.4,1.5c0.2,0.6,0.3,1.3,0.5,1.9C167.2,38.6,167.4,39.4,167.7,40.3z M167.3,41.7
				c-0.1,0-0.1-0.1-0.1-0.2c-0.4-1.5-0.8-3.1-1.2-4.6c-0.1-0.3-0.1-0.6-0.2-0.9c-0.2-0.7-0.9-1.1-1.6-0.9c-0.6,0.1-1.1,0.6-1,1.3
				c0,0,0,0.1,0,0.1c0,0.4,0,0.9,0.1,1.3c0.1,2.4,0.3,4.8,0.4,7.2c0,0.2,0,0.4-0.2,0.5l-2.8,2.7c-0.9,0.8-1.2,2-0.8,3.1
				c0.4,1.4,1.6,2.3,3,2.4c1.3,0.2,2.7-0.4,3.4-1.6c1.9-3.1,3.8-6.2,5.7-9.2c0.5-0.8,1-1.6,1.4-2.3c0.4-0.6,0.3-1.4-0.3-1.9
				c-0.7-0.6-1.7-0.6-2.4,0c-1,1-2.1,2-3.1,3C167.5,41.6,167.4,41.7,167.3,41.7L167.3,41.7z"/>
			<path id="_Compound_Path_6" class="st1" d="M107.6,22.6c0-2,0.1-4.1,0.1-6.1c0-0.9,0.6-1.7,1.4-2c0.7-0.2,1.4-0.1,1.9,0.4
				c0.2,0.2,0.2,0.2,0.5,0c0.8-0.5,1.7-0.8,2.7-0.8c1.2,0,2.4,0.6,3.1,1.6c0.4,0.5,0.8,1.1,1,1.8c0.4,0.9,0.5,1.9,0.5,2.9
				c-0.1,1.4-0.8,2.8-2,3.6c-0.7,0.5-1.6,0.9-2.4,1.1c-0.2,0.1-0.3,0.1-0.2,0.3s0.1,0.5,0.2,0.7c0.7,1.8-0.1,3.8-1.9,4.5
				c-1.8,0.7-3.8-0.1-4.5-1.9c-0.1-0.2-0.2-0.5-0.2-0.7c0-0.1,0-0.2-0.1-0.4v-2.2c0-0.3,0-0.7,0-1C107.6,23.9,107.6,23.2,107.6,22.6
				z M111,16.3c-0.1-0.1-0.1-0.1-0.1-0.2c-0.2-0.6-0.8-0.9-1.4-0.8c-0.6,0.1-1.1,0.7-1.1,1.3l-0.1,4.7c0,1.8,0,3.7,0,5.5
				c0,0.3,0,0.5,0,0.8c0.1,1.1,0.9,2,1.9,2.3c1,0.3,2.2,0,2.9-0.8c0.6-0.7,0.8-1.6,0.5-2.4c-0.2-0.6-0.3-1.2-0.5-1.8
				c0,0,0.1-0.1,0.1-0.1c0.7-0.1,1.4-0.2,2-0.5c1.8-0.7,2.9-2.4,2.7-4.3c0-0.7-0.2-1.3-0.4-1.9c-0.2-0.6-0.5-1.2-0.9-1.7
				c-0.6-0.8-1.6-1.3-2.6-1.3c-0.8,0-1.6,0.3-2.3,0.7C111.6,15.9,111.3,16.1,111,16.3z"/>
			<path id="_Path_" class="st1" d="M113.2,31.3c1.2,0,2.5,0.1,3.7,0.3c0.3,0,0.6,0.1,0.9,0.3c0.1,0.1,0.2,0.1,0.2,0.3
				c0,0.2-0.1,0.2-0.2,0.3c-0.4,0.2-0.8,0.3-1.3,0.3c-1.9,0.2-3.8,0.3-5.7,0.1c-0.5,0-1.1-0.1-1.6-0.2c-0.2,0-0.5-0.1-0.7-0.2
				c-0.2-0.1-0.2-0.3,0-0.5c0.2-0.1,0.4-0.2,0.6-0.2c0.6-0.1,1.3-0.2,1.9-0.3C111.8,31.4,112.5,31.3,113.2,31.3z"/>
			<path id="_Path_2" class="st1" d="M163.8,56.7c1.2,0,2.5,0.1,3.7,0.3c0.3,0,0.5,0.1,0.8,0.2c0.1,0,0.2,0.1,0.3,0.2
				c0.1,0.1,0.1,0.2,0.1,0.3c0,0,0,0-0.1,0.1c-0.1,0.1-0.3,0.2-0.4,0.2c-0.5,0.1-1,0.2-1.5,0.3c-2,0.2-4.1,0.2-6.1-0.1
				c-0.4,0-0.8-0.1-1.1-0.2l-0.2-0.1c-0.3-0.2-0.3-0.4,0-0.5c0.4-0.2,0.8-0.3,1.3-0.3C161.6,56.8,162.7,56.7,163.8,56.7z"/>
			<path id="_Path_3" class="st2" d="M107.5,25.5v2.2h-0.1c0-0.1,0-0.1,0-0.2C107.4,26.8,107.4,26.1,107.5,25.5L107.5,25.5z"/>
			<path id="_Path_4" class="st3" d="M107.5,25.5L107.5,25.5c-0.1-1-0.1-1.9-0.1-2.9h0.1c0,0.6,0,1.2,0,1.8
				C107.6,24.8,107.6,25.1,107.5,25.5z"/>
			<path id="_Path_5" class="st4" d="M129.3,31.8c0-0.1,0-0.2,0-0.3c0.1,0.1,0.2,0.2,0.1,0.3H129.3z"/>
			<path id="_Compound_Path_7" class="st3" d="M106.7,40.2c0.6-0.7,1.3-1.4,2-2c1.2-1,2.7-1.6,4.2-1.8c1.7-0.2,3.4,0.3,4.8,1.4
				c1.2,0.9,2.2,2.1,3,3.4c0.7,1.1,1.2,2.3,1.4,3.6c0.4,2.1,0,4.2-1.2,5.9c-1.1,1.5-2.6,2.7-4.3,3.5c-0.5,0.3-1.1,0.5-1.7,0.7
				c-0.3,0.1-0.3,0.1-0.1,0.3c0.5,0.9,1,1.9,1.5,2.8c1.4,2.5,0.6,5.6-1.9,7c-0.5,0.3-1,0.5-1.5,0.6c-2.5,0.7-5.1-0.5-6.3-2.9
				c-0.3-0.6-0.4-1.2-0.5-1.8c-1.3-6-2.7-12-4-18c-0.1-0.3-0.1-0.6-0.2-0.9c-0.3-1.3,0.5-2.6,1.8-3c0.1,0,0.1,0,0.2,0
				C104.9,38.7,106,39.2,106.7,40.2C106.5,40.1,106.5,40.2,106.7,40.2z M117.1,41.5h-0.2c-1.1,0.3-2.2,0.6-3.3,0.9
				c-0.2,0.1-0.5,0-0.7-0.2c-0.8-0.7-1.7-1.4-2.5-2c-0.1-0.1-0.1-0.2-0.3-0.1c-0.1,1.2-0.1,2.3-0.2,3.5c0,0.2-0.1,0.4-0.3,0.4
				c-1,0.6-2,1.2-3,1.7c-0.1,0-0.2,0-0.2,0.2l3.4,1.3c0.2,0,0.3,0.2,0.4,0.4c0.2,1,0.5,2.1,0.8,3.2c0,0.1,0.1,0.2,0.1,0.2l0.2-0.3
				l2-2.4c0.1-0.2,0.3-0.3,0.5-0.2l2.4,0.2l1.3,0.1c0-0.1-0.1-0.2-0.2-0.3c-0.6-0.9-1.2-1.8-1.8-2.7c-0.2-0.2-0.2-0.4-0.1-0.6
				c0.1-0.2,0.2-0.5,0.3-0.7C116.4,43.2,116.8,42.4,117.1,41.5L117.1,41.5z"/>
			<path id="_Compound_Path_8" class="st5" d="M137.5,51.3c0-0.1,0-0.1-0.1-0.2c-0.7-0.8-1.1-1.8-1.1-2.9c0-1,0.2-1.9,0.6-2.8
				c0.3-0.6,0.6-1.1,1.2-1.5c0.9-0.6,2-0.8,3-0.4c0.5,0.2,0.9,0.4,1.4,0.7c0.1,0.1,0.2,0.2,0.4,0.2c0-0.1,0.1-0.2,0.1-0.3
				c0.2-0.5,0.6-0.7,1.1-0.7c0.5,0,1,0.3,1.1,0.8c0.1,0.1,0.1,0.3,0,0.4c-0.3,0.6-0.3,1.4,0.1,2c0.1,0.1,0.1,0.3,0.1,0.5
				c0.1,1.6,0.2,3.2,0.3,4.8c0.1,0.9,0.1,1.7,0.2,2.6c0.1,0.5,0,0.9-0.1,1.3c-0.4,1.3-1.8,2.1-3.1,1.7c-1.3-0.4-2.2-1.7-1.9-3
				l0.1-0.6c-0.1,0.1-0.2,0.2-0.3,0.3l-1.6,1.9c-0.7,0.8-1.8,1.2-2.8,0.9c-1-0.3-1.7-1.2-1.8-2.2c-0.1-1.1,0.4-2.1,1.4-2.7
				C136.4,51.8,136.9,51.5,137.5,51.3z M141.6,48.5h0.1c0.3,0,0.3,0,0.4-0.3c0.1-0.7,0.2-1.3,0.4-2c0-0.2,0-0.3-0.2-0.4
				c-0.5-0.3-1-0.4-1.6-0.5c-0.4-0.1-0.8,0.1-1,0.5c0,0,0,0,0,0.1c-0.2,0.6-0.3,1.3-0.1,2c0,0.2,0.2,0.4,0.4,0.4
				c0.2,0.1,0.4,0.1,0.6,0.1L141.6,48.5z M145.7,53.9c0.1-0.3-0.1-0.6-0.1-0.9c0-0.9-0.1-1.8-0.1-2.7v-0.1c-0.1-0.5-0.1-1.1-0.1-1.7
				c0-0.4-0.1-0.7-0.1-1.1c0-0.1,0-0.2-0.1-0.3c0-0.1-0.1-0.2-0.2-0.2c-0.1,0-0.2,0.1-0.2,0.2c0,0,0,0.1,0,0.1c0.1,0.3,0,0.6,0.1,1
				c0.1,0.5,0.1,0.9,0.1,1.4c0.1,0.7,0.1,1.5,0.1,2.2c0,0,0,0.1,0,0.1c0.1,0.8,0,1.5,0.1,2.3c0,0.2,0,0.4-0.1,0.6
				c0,1-0.8,1.9-1.8,1.9c-0.2,0-0.4,0-0.6-0.1l-0.3-0.1c-0.1,0-0.2,0-0.3,0.1s0.1,0.2,0.2,0.2c0.4,0.1,0.7,0.2,1.1,0.2
				c1,0,1.8-0.7,2-1.7C145.6,55,145.7,54.5,145.7,53.9z M137.1,56.3c0.2,0,0.5,0,0.7-0.1c0.5-0.2,0.9-0.5,1.2-0.9
				c0.3-0.4,0.6-0.8,0.9-1.2c0.1-0.2,0.2-0.3,0.3-0.5c0.1-0.2,0.1-0.2,0-0.2c-0.1-0.1-0.2,0-0.3,0l-0.1,0.1
				c-0.1,0.1-0.2,0.2-0.3,0.4c-0.4,0.5-0.8,1-1.2,1.5c-0.6,0.7-1.5,0.8-2.2,0.4c-0.2-0.1-0.4-0.2-0.6-0.3c0,0-0.1-0.1-0.1-0.1
				c-0.1,0-0.2,0-0.2,0.1c0,0.1,0,0.2,0.1,0.2l0.3,0.2C136.1,56.1,136.6,56.3,137.1,56.3z"/>
			<path id="_Compound_Path_9" class="st6" d="M133.7,55.1c0.2,0.6,0.4,0.5-0.3,0.9c-1.4,0.7-3.2,0.1-3.8-1.3c0,0,0,0,0,0
				c0-0.1-0.1-0.2-0.1-0.2c0-0.1-0.1-0.2-0.2-0.1l-3,0.4c-0.2,0-0.2,0.1-0.2,0.2c0,0.3,0,0.6-0.1,0.9c-0.4,1.4-1.8,2.2-3.2,1.9
				c-1-0.3-1.7-1-1.9-2c-0.1-0.5-0.1-1,0.1-1.5c0.9-2.6,1.7-5.2,2.5-7.8c0.3-0.8,0.6-1.7,0.8-2.5l0.1-0.3c0.2-0.6,1-1,1.6-0.7
				c0.2,0.1,0.3,0.2,0.5,0.3c1.5,1.6,3.1,3.2,4.7,4.8c1,1.1,2.1,2.2,3.2,3.3l0.2,0.3c0.2,0.2,0.2,0.2,0,0.5c-0.1,0-0.2,0-0.2-0.1
				c-0.4-0.6-0.9-1.2-1.4-1.7c-0.6-0.7-1.3-1.4-1.9-2.1s-1.2-1.2-1.8-1.8l-0.2-0.2c-0.1-0.1-0.2,0-0.3,0c-0.1,0.1-0.1,0.2-0.1,0.3
				c0,0.1,0.1,0.2,0.2,0.2c0.9,1,1.9,1.9,2.8,2.8c0.5,0.5,1,1.1,1.5,1.6c0.2,0.2,0.3,0.4,0.5,0.6c0.2,0.2,0.4,0.6,0.6,0.8
				c-0.3,0.6-0.4,1.2-0.4,1.9c-0.3,0.2-0.6,0.3-0.9,0.5c-0.1,0-0.1,0.2-0.1,0.3c0,0.1,0.1,0.2,0.2,0.2c0.1,0,0.3,0,0.4-0.1
				C133.4,55.2,133.6,55.1,133.7,55.1z M126.3,51.5c0.5-0.2,0.9-0.3,1.4-0.4c0.2,0,0.2-0.1,0.1-0.3c-0.4-0.8-0.8-1.6-1.1-2.4
				c0,0,0-0.1-0.1-0.1L126.3,51.5z M123.1,57.2c0.4,0,0.8-0.1,1.2-0.2c0.8-0.3,1.3-1.2,1.1-2c0-0.1-0.1-0.2-0.2-0.2
				c-0.1,0-0.3,0.1-0.3,0.3s0,0.3,0,0.4c0,0.3-0.1,0.5-0.3,0.7c-0.4,0.4-0.8,0.6-1.3,0.6c-0.2,0-0.4,0-0.6,0c-0.1,0-0.2,0.1-0.2,0.2
				c0,0,0,0,0,0c0,0.1,0,0.2,0.2,0.3c0,0,0,0,0.1,0C122.8,57.2,122.9,57.2,123.1,57.2z M126.1,48.5c0-0.2,0-0.3,0-0.5
				c0-0.1-0.1-0.2-0.2-0.2c0,0-0.1,0-0.1,0c-0.1,0-0.2,0.2-0.2,0.3c0,0.1,0,0.2,0,0.3c-0.1,0.5,0,1.1-0.1,1.7c0,0.2,0,0.5,0,0.7
				c0,0.2,0,0.4,0,0.7c0,0.2,0.1,0.2,0.3,0.2s0.2-0.1,0.2-0.2c0-0.3,0.1-0.6,0.1-1c0-0.2,0-0.3,0-0.5C126.1,49.6,126,49,126.1,48.5
				L126.1,48.5z"/>
			<path id="_Compound_Path_10" class="st6" d="M152.1,57.4c-1.5,0-2.6-1.2-2.6-2.7c0-0.2,0-0.4,0.1-0.5c0.3-1.5,0.7-3.1,1-4.6
				c0.1-0.7,0.3-1.3,0.4-2c0-0.2,0-0.2-0.2-0.3l-2.5-0.2c-0.4,0-0.7,0-1.1-0.1c-0.7-0.1-1.3-0.7-1.3-1.4c0-0.7,0.5-1.4,1.2-1.4
				c0.8-0.1,1.5-0.1,2.3-0.2l3.9-0.3l3.8-0.3c0.4-0.1,0.7-0.1,1.1,0c1.2,0.3,2,1.4,1.7,2.6c-0.2,1-1.1,1.8-2.2,1.8
				c-1-0.1-2.1-0.2-3.1-0.2h-0.1c-0.2,0-0.2,0-0.2,0.2l0.4,4.7c0.1,0.7,0.1,1.4,0.2,2.2c0.1,1.1-0.5,2.1-1.5,2.5
				C152.9,57.3,152.5,57.4,152.1,57.4z M154.2,53.9c0-0.4,0-0.6,0-0.9c0-0.8-0.1-1.6-0.1-2.5c0-0.6-0.2-1.2-0.2-1.9
				c0-0.1,0-0.2-0.1-0.2c0-0.2-0.1-0.3-0.3-0.2c-0.1,0-0.2,0.2-0.2,0.3c0,0,0,0,0,0c0,0.3,0,0.6,0.1,0.9c0.1,0.4,0.1,0.8,0.1,1.1
				c0,0.5,0.1,1,0.1,1.5s0,0.7,0.1,1.1c0.1,0.5,0.1,1.1,0,1.6c-0.2,0.9-1.1,1.6-2,1.4c-0.3-0.1-0.6-0.2-0.8-0.4
				c-0.1-0.1-0.2-0.1-0.3-0.1c-0.1,0-0.2,0.1-0.2,0.2c0,0.1,0,0.2,0.1,0.3c0.5,0.4,1.2,0.6,1.9,0.5c0.7-0.1,1.3-0.5,1.6-1.2
				C154.1,55,154.2,54.5,154.2,53.9z M157.2,47.1c0.3,0,0.7,0,1-0.2c0.4-0.1,0.8-0.5,0.9-0.9c0.1-0.3,0.1-0.6,0.1-0.8
				c0-0.2,0-0.5-0.1-0.7c0-0.1-0.1-0.2-0.2-0.2c0,0,0,0,0,0c-0.1,0-0.2,0.1-0.3,0.2c0,0.1,0,0.2,0,0.3c0.1,0.3,0.1,0.7-0.1,1
				c-0.1,0.3-0.3,0.5-0.6,0.6c-0.3,0.1-0.5,0.1-0.8,0.1c-0.9,0-1.8-0.1-2.6-0.2c-0.2,0-0.3,0-0.5-0.1c-0.1,0-0.3,0-0.3,0.2
				c0,0,0,0,0,0c0,0.2,0.1,0.2,0.2,0.3c0.1,0,0.1,0,0.2,0c0.4,0,0.9,0.1,1.3,0.2S156.7,47,157.2,47.1z"/>
			<path id="_Path_6" class="st7" d="M134,52.6c-0.2-0.3-0.3-0.6-0.6-0.8c-0.2-0.2-0.3-0.4-0.5-0.6c-0.5-0.5-1-1.1-1.5-1.6
				c-0.9-1-1.9-1.9-2.8-2.8c-0.1-0.1-0.1-0.1-0.2-0.2c-0.1-0.1,0-0.2,0.1-0.3c0.1-0.1,0.2-0.1,0.3,0l0.2,0.2
				c0.6,0.6,1.2,1.2,1.8,1.8s1.3,1.4,1.9,2.1c0.5,0.5,1,1,1.4,1.6c0.1,0.1,0.1,0.1,0.2,0.1L134,52.6z"/>
			<path id="_Path_7" class="st7" d="M133.7,55.1c-0.2,0-0.4,0.1-0.5,0.2c-0.1,0.1-0.3,0.1-0.4,0.1c-0.1,0-0.2-0.1-0.2-0.2
				c0-0.1,0-0.2,0.1-0.3c0.3-0.1,0.6-0.3,0.9-0.5L133.7,55.1z"/>
			<path id="_Path_8" class="st5" d="M73.1,29.1c0-1.6-0.2-3.4-0.4-5.3c-0.2-2.1-0.6-4.1-1-6.1c-0.2-0.7-0.3-1.4-0.5-2.1
				c-0.2-0.9,0.3-1.8,1.2-2.1c0.9-0.3,1.9,0,2.3,0.9c0.2,0.4,0.4,0.8,0.5,1.2c0.9,2.2,1.7,4.4,2.4,6.7c0.6,2,1.2,4.1,1.6,6.2
				c0.5,2.5,0.8,5,0.7,7.5c0,1.7-0.4,3.4-1.1,4.9c-1.1,2.5-3.3,4.4-6,5c-1.6,0.4-3.3,0.5-5,0.2c-1.8-0.3-3.7-0.8-5.4-1.5
				c-2-0.8-3.2-2.8-3.1-4.9c0.1-2.2,1.6-4,3.7-4.6c1.4-0.4,2.8-0.2,4,0.6c0.8,0.5,1.7,1,2.6,1.3c0.4,0.2,0.8,0.3,1.2,0.3l0.2,0
				c0.2,0.1,0.5,0,0.6-0.2c0,0,0,0,0,0c0.2-0.3,0.4-0.6,0.5-0.9c0.3-0.9,0.6-1.8,0.7-2.7C73.1,32.1,73.2,30.6,73.1,29.1z"/>
			<path id="_Path_9" class="st4" d="M102.1,29.9c-0.3,0.4-0.5,0.9-0.8,1.3c-0.4,0.7-1.2,1.1-2,1c-0.5,0-1-0.2-1.4-0.6
				c-0.4-0.4-0.7-1-0.8-1.6c0-0.5-0.1-0.9-0.1-1.4c-0.1,0.2-0.2,0.4-0.2,0.6c-0.1,0.7-0.3,1.3-0.4,2c-0.2,1-1,1.8-2,2
				c-1,0.3-2.1,0-2.7-0.8c-0.2-0.1-0.2-0.4-0.1-0.6c0.5-1.1,0.6-2.4,0.4-3.6c0-0.2,0-0.3,0.1-0.5c1.4-2.6,2.8-5.3,4.1-7.9
				c0.3-0.7,1.1-0.9,1.7-0.6c0.1,0.1,0.3,0.2,0.4,0.3c0.2,0.2,0.3,0.4,0.4,0.6c0.2,0.8,0.5,1.6,0.7,2.4c0.3,1.1,0.6,2.2,0.9,3.2
				c0,0.1,0,0.2,0.1,0.3c0.1-0.1,0.2-0.1,0.3-0.2l3.8-3.7c0.2-0.3,0.6-0.5,1-0.5c0.6,0,1.2,0.4,1.2,1.1c0,0.1,0,0.2,0,0.3v10.3
				c0,0.3,0,0.7-0.1,1c-0.4,1.5-1.8,2.4-3.3,2c-1-0.3-1.8-1.1-2-2.1c-0.1-0.5-0.1-1,0.1-1.4L102.1,29.9L102.1,29.9z"/>
			<path id="_Compound_Path_11" class="st6" d="M85.4,35.1c-1.7,0-3.2-0.8-4.2-2.1c-0.4-0.5-0.6-1.1-0.6-1.7
				c-0.2-1.7-0.5-3.5-0.9-5.1c-0.1-0.3-0.1-0.7,0-1c0.1-0.5,0.2-1,0.3-1.5c0.1-0.5,0.7-0.9,1.2-0.7c0.1,0,0.1,0,0.2,0.1
				c0.2,0.1,0.4,0.3,0.4,0.5l0.8,1.9c0.4,1.1,0.9,2.3,1.5,3.3c0.2,0.4,0.5,0.7,0.8,1c0.2,0.2,0.4,0.3,0.7,0.2c1-0.3,1.1-0.4,1.1-1.3
				c0-0.9-0.2-1.8-0.5-2.7c-0.3-1.1-0.6-2.2-1-3.3c0-0.2-0.1-0.3-0.1-0.5c-0.1-0.3,0.1-0.7,0.3-0.9c0.3-0.2,0.6-0.2,0.9-0.1
				c0.1,0.1,0.2,0.1,0.3,0.2c1.9,1.4,3.4,3.3,4.3,5.4c0.5,1.2,0.6,2.5,0.4,3.7c-0.3,1.7-1.4,3.1-3,3.9C87.4,34.8,86.4,35,85.4,35.1z
				 M91,29.3c0-0.7-0.2-1.4-0.5-2.1c-0.7-1.3-1.6-2.6-2.6-3.7c-0.3-0.4-0.7-0.7-1-1.2c-0.1-0.1-0.3-0.3-0.4-0.4
				c-0.1-0.1-0.2-0.1-0.4,0c0,0,0,0,0,0c-0.1,0.1-0.1,0.2,0,0.3c0.1,0.1,0.3,0.3,0.4,0.5c0.6,0.6,1,1.2,1.6,1.8
				c0.7,0.8,1.3,1.7,1.8,2.6c0.3,0.6,0.5,1.2,0.6,1.8c0.1,0.9-0.2,1.8-0.6,2.5c-0.4,0.7-1.1,1.3-1.8,1.7c-0.3,0.2-0.7,0.3-1,0.4
				c-0.1,0-0.2,0.2-0.2,0.3c0,0,0,0,0,0c0,0.2,0.2,0.2,0.3,0.2c0.1,0,0.1,0,0.2,0c1.1-0.4,2.1-1.1,2.8-2.1
				C90.7,31.2,91,30.3,91,29.3z M85.1,30.6c0.5,0,1-0.2,1.4-0.5c0.1-0.1,0.2-0.2,0.1-0.4c-0.1-0.1-0.2-0.1-0.3-0.1
				c-0.1,0-0.2,0.1-0.2,0.1L85.6,30c-0.5,0.2-1.1,0-1.3-0.5c-0.2-0.4-0.4-0.7-0.6-1.1c-0.4-0.9-0.9-1.7-1.3-2.5
				c-0.1-0.3-0.2-0.5-0.4-0.8c-0.1-0.1-0.2-0.2-0.3-0.1c-0.1,0-0.2,0.2-0.2,0.3c0,0.1,0,0.2,0.1,0.3c0.5,1,1,2.1,1.6,3.1
				c0.2,0.4,0.5,0.8,0.7,1.2C84.2,30.4,84.7,30.6,85.1,30.6z"/>
			<path id="_Compound_Path_12" class="st4" d="M149.8,24c0.3,0.3,0.4,0.6,0.6,1c1.4,2.9,0.6,6.4-2,8.4c-3.1,2.5-7.7,2-10.1-1.1
				c-0.2-0.2-0.3-0.4-0.5-0.7c-1.4-2.1-1.7-4.7-0.6-7c0.7-1.7,2.1-3,3.8-3.6c0.2-0.1,0.4,0,0.5,0.1c0.2,0.2,0.4,0.4,0.6,0.6l0.1,0.1
				l0,0c0,0,0,0.1,0.1,0.1l0,0c0,0.1,0,0.2,0.1,0.2c0.1,0,0.1,0.1,0.1,0.2l-0.3,0.2c-0.8,0.4-1.4,1-1.7,1.8
				c-0.4,0.8-0.5,1.8-0.3,2.7c0,0.2,0.2,0.3,0.3,0.3c0,0,0,0,0,0c0.1,0,0.2-0.2,0.2-0.3c0,0,0,0,0-0.1c-0.2-0.8-0.1-1.6,0.2-2.3
				c0.3-0.7,0.9-1.3,1.6-1.7l0.3-0.2c0-0.2-0.3-0.2-0.3-0.3c-0.1-0.2,0.1-0.1,0.1-0.1c0.1,0.1,0.3,0.2,0.4,0.2c0,0.1,0,0.2,0.1,0.3
				c0.1,0.1,0.3,0.2,0.4,0.2s0,0.1,0,0.2c-1.2,0.2-2.2,1.1-2.5,2.3c-0.3,0.9-0.1,2,0.4,2.8c0.9,1.3,2.7,1.6,4.1,0.7
				c0.1,0,0.1-0.1,0.2-0.1c0.3-0.3,0.6-0.7,0.8-1.1c-0.2,0-0.3,0-0.5,0l-2.5,0.2c-0.5,0.1-1-0.2-1.2-0.7c-0.2-0.5,0.1-1.1,0.6-1.3
				c0,0,0,0,0,0l3.7-1.8h0.1c0.2,0,0.4,0,0.5,0c0.4,0.1,0.7,0.1,1.1,0.1C148.9,24.1,149.3,24.1,149.8,24z M148.3,24.9
				c0.2,0,0.4,0,0.6,0.1c0.3,0.2,0.6,0.5,0.7,0.8c0.2,0.5,0.3,1.1,0.2,1.6c0,0.4,0,0.9-0.1,1.3c-0.1,0.4-0.1,0.8-0.3,1.1
				c-0.5,1.3-1.4,2.4-2.5,3.2c-0.5,0.3-0.9,0.6-1.5,0.8c-0.2,0.1-0.3,0.2-0.2,0.3c0.1,0.1,0.2,0.2,0.4,0.2l0.2-0.1
				c1.1-0.5,2.1-1.3,2.9-2.2c1-1.2,1.6-2.8,1.6-4.4c0-0.2-0.1-0.4-0.1-0.6c0-0.5-0.1-1-0.3-1.5c-0.3-0.9-1.2-1.5-2.2-1.2
				c-0.1,0-0.2,0.1-0.3,0.1l-0.2,0.1c-0.1,0.1-0.1,0.1-0.1,0.2c0,0.1,0.1,0.2,0.3,0.2c0.1,0,0.1,0,0.2,0
				C147.9,24.9,148.1,24.9,148.3,24.9z"/>
			<path id="_Compound_Path_13" class="st5" d="M129,27.5l-0.1,0.9c-0.1,1.1-0.3,2.2-0.4,3.4c-0.2,1.5-1.6,2.5-3.1,2.3
				c-1.5-0.2-2.5-1.6-2.3-3.1c0-0.2,0.1-0.5,0.2-0.7c1.3-3.2,2.7-6.5,4-9.8c0-0.1,0-0.1,0.1-0.2c0.2-0.5,0.6-0.8,1.1-0.8
				c0.5,0,1,0.2,1.2,0.7c0.2,0.4,0.5,0.9,0.7,1.3l1.7,3.2c0,0.1,0.1,0.2,0.2,0.3c0.1-0.6,0.3-1.2,0.4-1.8c0.1-0.6,0.2-1,0.4-1.5
				c0.1-0.4,0.4-0.6,0.8-0.7c0.4,0,0.7,0.1,0.9,0.4c0.1,0.1,0.1,0.3,0.2,0.4l0.3,2.5c0.1,1.3,0.3,2.6,0.4,3.9c0.1,1,0.2,2,0.3,3
				c0,0.4,0.1,0.8,0.1,1.1c0.2,1.5-0.8,2.9-2.3,3.2c-1.5,0.2-2.9-0.8-3.2-2.3c0-0.1,0-0.2,0-0.3c-0.1-0.5-0.2-1-0.3-1.5
				C129.8,30.3,129.4,28.9,129,27.5L129,27.5z M135.4,32.5c0-0.2,0-0.4,0-0.6c-0.1-0.4,0-0.8-0.1-1.2c-0.1-0.4-0.1-0.6-0.1-1
				c0-0.5-0.1-0.9-0.2-1.4s-0.1-0.7-0.1-1.1c0-0.6-0.1-1.2-0.1-1.8c0-0.6-0.1-1.5-0.1-2.3c0,0,0,0,0-0.1c0-0.1,0-0.2-0.2-0.2
				c-0.1,0-0.2,0-0.3,0.1c-0.1,0.1-0.1,0.2-0.1,0.3c0,0.7,0,1.4,0.1,2.1c0.1,0.5,0.1,1,0.1,1.5c0,0,0,0.1,0,0.1
				c0.1,0.4,0.1,0.7,0.1,1.1c0,0.3,0.1,0.7,0.1,1c0.1,0.6,0.2,1.3,0.2,1.9c0,0.3,0,0.6,0.1,0.8c0.1,0.5,0.1,1.1-0.1,1.6
				c-0.1,0.3-0.4,0.6-0.7,0.7c-0.4,0.2-0.9,0.2-1.3,0.1c-0.1,0-0.1,0-0.2,0c-0.1,0-0.3,0.1-0.3,0.3c0,0.1,0.1,0.2,0.2,0.2
				c0.6,0.1,1.2,0.1,1.8-0.1c0.4-0.2,0.7-0.5,0.8-0.9C135.3,33.3,135.4,32.9,135.4,32.5z M128.3,29.2c0-0.5,0-0.8,0-1.2
				s-0.1-0.3-0.3-0.3c-0.2,0.1-0.1,0.2-0.2,0.3c0,0.6,0,1.2-0.1,1.9c0,0.4-0.1,0.9-0.2,1.3c-0.1,0.6-0.4,1.1-0.9,1.3
				c-0.4,0.2-0.8,0.3-1.3,0.3c-0.2,0-0.4,0-0.5,0.1c-0.1,0-0.2,0.1-0.2,0.2c0,0.1,0.1,0.2,0.2,0.3c0.1,0,0.2,0,0.3,0
				c0.3,0,0.7-0.1,1-0.2c0.5-0.1,0.9-0.3,1.3-0.7c0.3-0.4,0.5-0.8,0.7-1.3C128.3,30.7,128.4,30,128.3,29.2z M129.5,20.9
				c-0.1,0-0.2,0.2-0.2,0.3c0,0.1,0,0.2,0.1,0.3c0.4,0.8,0.8,1.6,1.2,2.4c0.4,0.8,0.7,1.3,1,2l0.1,0.2c0,0.1,0.2,0.2,0.3,0.1
				c0,0,0,0,0,0c0.1,0,0.2-0.2,0.2-0.3c0,0,0,0,0,0c0-0.1-0.1-0.2-0.1-0.2l-1.8-3.6c-0.2-0.3-0.3-0.6-0.5-1
				C129.7,21,129.7,20.9,129.5,20.9z"/>
			<path id="_Path_10" class="st3" d="M124.2,34.4c-0.7,1.3-2.4,1.8-3.7,1c-0.3-0.2-0.5-0.4-0.7-0.6c-0.5-0.5-0.7-1.2-0.7-1.9
				c0.1-1.4,0.1-2.9,0.2-4.3s0.1-2.7,0.2-4c0-1.1,0.1-2.2,0.1-3.3c0-0.6,0.5-1.2,1.2-1.2c0.7-0.1,1.3,0.4,1.4,1
				c0.1,0.5,0.2,0.9,0.3,1.4c0.3,1.6,0.7,3.2,1,4.8c0.1,0.3,0,0.5-0.1,0.8c-0.3,0.6-0.5,1.3-0.8,1.9c-0.7,1.6-0.1,3.5,1.4,4.4
				C124.1,34.3,124.2,34.3,124.2,34.4z"/>
			<path id="_Path_11" class="st8" d="M148.4,11.3c0-0.1,0.1-0.2-0.1-0.2h-0.1c-0.2,0-0.2,0-0.2-0.2c0-0.2,0-0.4-0.3-0.4
				c-0.3,0-0.2-0.1-0.1-0.2c0.1-0.1,0.1-0.3-0.1-0.5c-0.2-0.1-0.2-0.2,0-0.3c0.2-0.1,0.2-0.3,0.1-0.4s-0.1-0.2,0.1-0.3
				c0.2-0.1,0.2-0.1,0.2-0.4c0-0.3,0-0.2,0.2-0.2c0.2,0,0.3,0,0.4-0.3c0.1-0.3,0.1-0.2,0.3-0.1c0.1,0,0.3,0.1,0.5-0.1
				c0.2-0.2,0.2-0.1,0.3,0l0.1,0.1c0.1,0.2,0.2,0.1,0.4,0c0.2-0.1,0.2-0.1,0.3,0.1c0.1,0.2,0.1,0.2,0.4,0.2c0.3,0,0.2,0,0.2,0.2
				c0,0.2,0,0.3,0.3,0.4c0.3,0,0.2,0.1,0.1,0.3c-0.1,0.2-0.1,0.3,0.1,0.4s0.2,0.2,0,0.3s-0.2,0.2,0,0.4s0.1,0.2-0.1,0.3
				s-0.2,0.2-0.2,0.4c0,0.2,0,0.2-0.2,0.2s-0.3,0.1-0.3,0.3c-0.1,0.2-0.1,0.2-0.3,0.1c-0.2-0.1-0.3-0.1-0.4,0.1
				c-0.1,0.2-0.2,0.2-0.4,0s-0.1-0.2-0.2,0c-0.1,0-0.1,0-0.2,0c-0.1,0.1-0.3,0.1-0.4,0c0,0,0,0,0,0
				C148.5,11.3,148.4,11.4,148.4,11.3z"/>
			<path id="_Path_12" class="st4" d="M142.4,21c-0.3-0.2-0.5-0.4-0.7-0.6c-0.1-0.1-0.2-0.4-0.1-0.6c0.1,0,0.2,0,0.4,0
				c1.1,0,2.2,0,3.3,0c1.3-0.1,2.7,0,4.1,0v1c-1.1,0-2.2,0-3.2,0.1c-1.1,0.1-2.2,0-3.4,0C142.7,20.9,142.5,20.9,142.4,21z"/>
			<path id="_Path_13" class="st8" d="M149.4,19.9c-1.4,0-2.7,0-4.1,0c-1.1,0-2.2,0-3.3,0c-0.1,0-0.3,0-0.4,0c0.2-0.4,0.5-0.7,0.8-1
				c0.1,0.1,0.2,0.1,0.4,0.1c0.6,0,1.2-0.1,1.8-0.1c1.6,0,3.2,0,4.8-0.1C149.4,19.2,149.4,19.5,149.4,19.9z"/>
			<path id="_Path_14" class="st4" d="M149.3,18.9c-1.6,0.1-3.2,0.1-4.8,0.1c-0.6,0-1.2,0.1-1.8,0.1c-0.1,0-0.3,0-0.4-0.1
				c0.2-0.4,0.5-0.7,0.8-1c1.1,0,2.2,0,3.3,0c0.9-0.1,1.9,0,2.8,0L149.3,18.9z"/>
			<path id="_Path_15" class="st8" d="M142.4,21c0.1-0.1,0.2-0.1,0.3-0.1c1.1,0,2.3,0,3.4,0s2.2,0,3.2-0.1c0,0.3,0,0.6,0,0.9
				c-1.1,0-2.1,0.1-3.2,0.1c-0.6,0-1.3,0-1.9,0c-0.1,0-0.2,0-0.3,0.1C143.4,21.7,142.9,21.4,142.4,21z"/>
			<path id="_Path_16" class="st8" d="M149.3,17.9c-0.9,0-1.9,0-2.8,0c-1.1,0.1-2.2,0-3.3,0c0.2-0.4,0.5-0.7,0.8-1
				c0.1,0.1,0.2,0.1,0.3,0.1c0.1,0,0.5-0.1,0.7-0.1h4.2C149.3,17.2,149.3,17.5,149.3,17.9z"/>
			<path id="_Path_17" class="st4" d="M149.2,16.9H145c-0.2,0-0.5,0.1-0.7,0.1c-0.2,0-0.2,0-0.3-0.1c0.2-0.3,0.5-0.7,0.8-1
				c0.9,0,1.7,0.1,2.6,0c0.6,0,1.2,0,1.9,0C149.2,16.2,149.3,16.6,149.2,16.9z"/>
			<path id="_Path_18" class="st4" d="M144,21.9c0.1-0.1,0.2-0.1,0.4-0.1c0.6,0,1.3,0,1.9,0c1,0,2.1-0.1,3.2-0.1v0.4
				c0,0.4-0.1,0.5-0.4,0.6c-0.3,0.1-0.7,0.1-1,0.1C146.6,22.8,145.3,22.4,144,21.9z"/>
			<path id="_Path_19" class="st8" d="M149.2,15.9c-0.6,0-1.2,0-1.9,0c-0.8,0.1-1.7,0-2.5,0c0.2-0.4,0.5-0.7,0.8-1
				c0,0.1,0.1,0.1,0.2,0.1c0.3,0,0.5,0,0.8,0h2.6C149.2,15.3,149.2,15.6,149.2,15.9z"/>
			<path id="_Path_20" class="st4" d="M149.2,14.9h-2.5c-0.3,0-0.5,0-0.8,0c-0.1,0-0.2,0-0.2-0.1l0.8-1c0.9,0.1,1.9,0.1,2.8,0
				C149.2,14.2,149.2,14.5,149.2,14.9z"/>
			<path id="_Path_21" class="st8" d="M149.1,13.9c-0.9,0.1-1.9,0.1-2.8,0c0.2-0.4,0.5-0.7,0.8-1c0.1,0.1,0.2,0.1,0.3,0.1h1.6
				C149.1,13.2,149.1,13.6,149.1,13.9z"/>
			<path id="_Path_22" class="st0" d="M145.3,23.7c-0.1,0.1-0.2,0.1-0.3,0.2c-0.6,0.3-1.3,0.6-1.9,0.9c-0.5,0.2-1,0.5-1.3,0.9
				c0.1-0.8,0.6-1.4,1.2-1.8C143.7,23.5,144.5,23.4,145.3,23.7z"/>
			<path id="_Path_23" class="st4" d="M149.1,12.9h-1.6c-0.1,0-0.2,0-0.3-0.1c0.4-0.5,0.8-1,1.2-1.5c0,0,0.1,0,0.1,0.1
				c0.1,0.1,0.2,0.2,0.4,0.1c0,0,0,0,0,0c0.1,0,0.1,0,0.2,0C149.1,11.9,149.1,12.4,149.1,12.9z"/>
			<path id="_Path_24" class="st7" d="M149.8,24c-0.5,0.1-0.9,0.1-1.4,0.1c-0.4,0-0.8-0.1-1.1-0.1c-0.2,0-0.4,0-0.5,0
				c0.3-0.1,0.5-0.3,0.8-0.4c0.1,0,0.2,0,0.3,0c0.3,0,0.7,0,1,0c0.1,0,0.2,0,0.3,0.1C149.4,23.7,149.6,23.8,149.8,24z"/>
			<path id="_Path_25" class="st2" d="M143.7,23c0-0.1,0.2-0.1,0-0.2s-0.3-0.2-0.4-0.2s-0.2-0.2-0.1-0.3l1.4,0.6L143.7,23z"/>
			<path id="_Path_26" class="st7" d="M144.5,28.3c-0.2,0.2-0.5,0.2-0.8,0.1L144.5,28.3z"/>
			<path id="_Path_27" class="st7" d="M142.5,22.1c0-0.1-0.1-0.1-0.1-0.2c-0.1,0-0.1-0.1-0.1-0.2c0.2,0.1,0.3,0.2,0.5,0.3
				c0,0-0.1,0-0.1,0.1H142.5z"/>
			<path id="_Path_28" class="st7" d="M142.2,21.7L142.2,21.7C142.1,21.6,142.2,21.7,142.2,21.7z"/>
			<path id="_Path_29" class="st7" d="M142.2,21.8C142.2,21.8,142.2,21.7,142.2,21.8C142.2,21.7,142.2,21.7,142.2,21.8z"/>
			<path id="_Path_30" class="st4" d="M167.3,41.7c0.1,0,0.2-0.1,0.3-0.2c1-1,2.1-2,3.1-3c0.7-0.6,1.7-0.6,2.4,0
				c0.6,0.5,0.7,1.3,0.3,1.9c-0.5,0.8-1,1.6-1.4,2.3c-1.9,3.1-3.8,6.2-5.7,9.2c-0.7,1.2-2,1.8-3.4,1.6c-1.4-0.1-2.6-1.1-3-2.4
				c-0.4-1.1-0.1-2.3,0.8-3.1l2.8-2.7c0.1-0.1,0.2-0.3,0.2-0.5c-0.2-2.4-0.3-4.8-0.4-7.2c0-0.4,0-0.9-0.1-1.3
				c-0.1-0.6,0.3-1.2,0.9-1.4c0,0,0.1,0,0.1,0c0.7-0.1,1.4,0.3,1.6,0.9c0.1,0.3,0.2,0.6,0.2,0.9c0.4,1.5,0.8,3.1,1.2,4.6
				C167.2,41.6,167.2,41.7,167.3,41.7z"/>
			<path id="_Compound_Path_14" class="st6" d="M111,16.3c0.3-0.2,0.5-0.4,0.8-0.6c0.7-0.4,1.5-0.7,2.3-0.7c1,0,2,0.5,2.7,1.3
				c0.4,0.5,0.7,1.1,0.9,1.7c0.2,0.6,0.4,1.3,0.4,1.9c0.1,1.9-1,3.6-2.7,4.3c-0.6,0.3-1.3,0.5-2,0.5c-0.1,0-0.1,0-0.1,0.1
				c0.1,0.6,0.3,1.2,0.5,1.8c0.2,0.9,0,1.8-0.6,2.4c-0.7,0.8-1.8,1.2-2.9,0.8c-1-0.3-1.8-1.2-1.9-2.3c0-0.3,0-0.5,0-0.8
				c0-1.8,0-3.7,0-5.5l0.1-4.7c0-0.6,0.4-1.2,1.1-1.3c0.6-0.1,1.2,0.2,1.4,0.8C110.9,16.1,110.9,16.2,111,16.3z M114.7,19.5
				c0-0.3,0-0.6-0.1-0.9c0-0.2-0.1-0.5-0.2-0.7c-0.3-0.8-0.5-0.9-1.3-0.8c-0.5,0.1-0.9,0.3-1.3,0.5c-0.4,0.2-0.4,0.2-0.3,0.6
				c0,0.1,0.1,0.3,0.1,0.4c0.2,0.8,0.4,1.5,0.6,2.3c0,0.1,0,0.2,0.2,0.2c0.5,0,1-0.1,1.5-0.2c0.3-0.1,0.5-0.3,0.6-0.6
				C114.6,20.2,114.7,19.8,114.7,19.5z M117.5,19.9c0-0.3,0-0.6,0-0.8c-0.1-0.6-0.3-1.2-0.6-1.8c-0.2-0.4-0.4-0.8-0.7-1.1
				c-0.1-0.1-0.2-0.2-0.4-0.1c0,0-0.1,0.1-0.1,0.1c-0.1,0.1,0,0.2,0.1,0.3c0.6,0.8,1,1.7,1.1,2.7c0.1,0.7,0,1.5-0.3,2.2
				c-0.3,0.7-0.9,1.3-1.6,1.5c-0.4,0.2-0.8,0.2-1.3,0.2h-0.7c-0.1,0-0.2,0-0.2,0.1c0,0.1,0,0.2,0,0.3c0.1,0.1,0.2,0.1,0.2,0.1
				c0.7,0.1,1.5,0,2.2-0.3c0.8-0.4,1.5-1,1.8-1.9C117.4,21.1,117.5,20.5,117.5,19.9L117.5,19.9z M113.3,26.9c0-0.6-0.1-1.1-0.3-1.6
				c-0.1-0.1-0.1-0.3-0.2-0.4c-0.1-0.1-0.2-0.1-0.3-0.1c0,0-0.1,0-0.1,0.1c-0.1,0.1-0.1,0.3,0,0.4c0.3,0.6,0.4,1.2,0.4,1.9
				c0,0.6-0.3,1.2-0.7,1.6c-0.3,0.3-0.7,0.4-1.1,0.4c-0.6,0-1.1-0.3-1.4-0.8c-0.1-0.1-0.1-0.2-0.2-0.3c-0.1-0.1-0.2-0.1-0.3,0
				c-0.1,0-0.1,0.1-0.1,0.2c0,0.1,0,0.2,0.1,0.3c0.3,0.4,0.6,0.7,1,0.9c0.9,0.4,2,0.1,2.6-0.7C113.1,28.2,113.3,27.5,113.3,26.9z"/>
			<path id="_Compound_Path_15" class="st1" d="M117.1,41.5c-0.4,0.9-0.7,1.7-1.1,2.6c-0.1,0.2-0.2,0.5-0.3,0.7
				c-0.1,0.2-0.1,0.4,0.1,0.6c0.6,0.9,1.2,1.8,1.8,2.7c0.1,0.1,0.1,0.2,0.2,0.3l-1.3-0.1l-2.4-0.2c-0.2,0-0.4,0.1-0.5,0.2l-2,2.4
				l-0.2,0.3c-0.1-0.1-0.1-0.2-0.1-0.2c-0.3-1-0.5-2.1-0.8-3.2c0-0.2-0.2-0.4-0.4-0.4l-3.4-1.3c0-0.1,0.1-0.1,0.2-0.2
				c1-0.6,2-1.2,3-1.7c0.2-0.1,0.3-0.3,0.3-0.4c0.1-1.2,0.1-2.3,0.2-3.5c0.1,0,0.2,0.1,0.3,0.1c0.8,0.7,1.7,1.4,2.5,2
				c0.2,0.2,0.4,0.2,0.7,0.2c1.1-0.3,2.2-0.6,3.3-0.9L117.1,41.5z M116.2,47.5c0-0.1-0.1-0.2-0.1-0.3c-0.4-0.6-0.8-1.2-1.2-1.8
				c-0.1-0.1-0.1-0.3,0-0.5c0.2-0.4,0.3-0.7,0.5-1.1c0.2-0.4,0.3-0.8,0.5-1.1c-0.1,0-0.2,0-0.3,0c-0.7,0.2-1.4,0.3-2.2,0.5
				c-0.2,0.1-0.4,0-0.5-0.1c-0.6-0.5-1.2-1-1.7-1.4c-0.1,0-0.1-0.2-0.3-0.1V42c0,0.7-0.1,1.3-0.1,1.9c0,0.2-0.1,0.4-0.3,0.5
				c-0.7,0.4-1.3,0.7-1.9,1.1c-0.1,0-0.2,0.1-0.2,0.2s0.1,0.1,0.2,0.1c0.7,0.3,1.5,0.5,2.2,0.8c0.1,0,0.3,0.2,0.3,0.3
				c0,0.2,0.1,0.5,0.2,0.7c0.1,0.6,0.3,1.1,0.4,1.8l0.2-0.2l1.2-1.4c0.5-0.5,0.5-0.5,1.1-0.5S115.5,47.5,116.2,47.5L116.2,47.5z"/>
			<path id="_Compound_Path_16" class="st1" d="M141.6,48.5l-1-0.1c-0.2,0-0.4-0.1-0.6-0.1c-0.2-0.1-0.3-0.2-0.4-0.5
				c-0.2-0.7-0.2-1.4,0.1-2c0.1-0.4,0.5-0.7,0.9-0.6c0,0,0,0,0.1,0c0.6,0.1,1.1,0.3,1.6,0.5c0.2,0.1,0.2,0.2,0.2,0.4
				c-0.2,0.7-0.3,1.3-0.4,2c-0.1,0.3-0.1,0.3-0.4,0.3L141.6,48.5L141.6,48.5z M141,47.5c0.1,0,0.1,0,0.2,0c0.1,0,0.2,0,0.2-0.2
				c0.1-0.3,0.1-0.7,0.2-1c0-0.1,0-0.2-0.1-0.2c-0.3-0.1-0.6-0.2-0.9-0.3c-0.2,0-0.2,0-0.3,0.2c-0.1,0.2-0.1,0.5-0.1,0.8
				C140.3,47.5,140.2,47.5,141,47.5L141,47.5z"/>
			<path id="_Path_31" class="st4" d="M145.7,53.9c0,0.5,0,1.1-0.2,1.6c-0.2,0.9-1,1.6-2,1.7c-0.4,0-0.8-0.1-1.1-0.2
				c-0.1,0-0.2-0.1-0.2-0.2s0.2-0.2,0.3-0.1l0.3,0.1c1,0.3,2-0.2,2.3-1.2c0.1-0.2,0.1-0.4,0.1-0.6c0-0.2,0.1-0.4,0.1-0.6
				c-0.1-0.8,0-1.5-0.1-2.3c0,0,0-0.1,0-0.1c0-0.7,0-1.5-0.1-2.2c0-0.5,0-0.9-0.1-1.4c-0.1-0.3,0-0.6-0.1-1c0,0,0-0.1,0-0.1
				c0-0.1,0-0.2,0.2-0.2s0.2,0.1,0.2,0.2c0,0.1,0.1,0.2,0.1,0.3c0,0.4,0,0.7,0.1,1.1c0,0.6,0.1,1.1,0.1,1.7v0.1
				c0,0.9,0.1,1.8,0.1,2.7C145.6,53.3,145.7,53.7,145.7,53.9z"/>
			<path id="_Path_32" class="st4" d="M137.1,56.3c-0.5,0-1.1-0.2-1.6-0.4l-0.3-0.2c-0.1-0.1-0.2-0.1-0.1-0.2c0-0.1,0.2-0.1,0.2-0.1
				c0,0,0.1,0,0.1,0.1c0.2,0.1,0.4,0.2,0.6,0.3c0.7,0.4,1.7,0.3,2.2-0.4c0.5-0.5,0.9-1,1.2-1.5c0.1-0.1,0.2-0.2,0.3-0.4l0.1-0.1
				c0.1-0.1,0.2-0.1,0.3,0s0.1,0.2,0,0.2s-0.2,0.3-0.3,0.5c-0.3,0.4-0.6,0.8-0.9,1.2c-0.3,0.4-0.7,0.7-1.2,0.9
				C137.6,56.3,137.4,56.3,137.1,56.3z"/>
			<path id="_Path_33" class="st1" d="M126.3,51.5l0.2-3.2c0.1,0,0.1,0.1,0.1,0.1c0.4,0.8,0.8,1.6,1.1,2.4c0.1,0.2,0.1,0.2-0.1,0.3
				C127.2,51.2,126.8,51.3,126.3,51.5z"/>
			<path id="_Path_34" class="st7" d="M123.1,57.2c-0.2,0-0.3,0-0.5,0c-0.1,0-0.2-0.1-0.2-0.2c0,0,0,0,0-0.1c0-0.1,0.1-0.2,0.2-0.2
				c0,0,0,0,0,0c0.2,0,0.4,0,0.6,0c0.5,0,1-0.2,1.3-0.6c0.2-0.2,0.3-0.5,0.3-0.7c0-0.1,0-0.3,0-0.4s0.2-0.3,0.3-0.3
				c0.1,0,0.2,0.1,0.2,0.2c0.2,0.8-0.3,1.7-1.1,2C123.9,57.2,123.5,57.3,123.1,57.2z"/>
			<path id="_Path_35" class="st7" d="M126.1,48.5c-0.1,0.5,0,1.1-0.1,1.7c0,0.2,0,0.3,0,0.5c0,0.3-0.1,0.6-0.1,1
				c0,0.1-0.1,0.2-0.2,0.2s-0.3-0.1-0.3-0.2c0-0.2,0-0.4,0-0.7c0-0.2,0-0.5,0-0.7c0.1-0.5,0-1.1,0.1-1.7c0-0.1,0-0.2,0-0.3
				c0-0.1,0.1-0.2,0.2-0.3c0.1-0.1,0.2,0,0.3,0.1c0,0,0,0.1,0,0.1C126.1,48.2,126.1,48.3,126.1,48.5z"/>
			<path id="_Path_36" class="st3" d="M154.2,53.9c0,0.6-0.1,1.1-0.3,1.7c-0.3,0.6-0.9,1.1-1.6,1.2c-0.7,0.1-1.3-0.1-1.9-0.5
				c-0.1-0.1-0.2-0.2-0.1-0.3c0-0.1,0.1-0.2,0.2-0.2c0.1,0,0.2,0,0.3,0.1c0.2,0.2,0.5,0.3,0.8,0.4c0.9,0.2,1.8-0.5,2-1.4
				c0.1-0.5,0.1-1.1,0-1.6c0-0.4,0-0.7-0.1-1.1s-0.1-1-0.1-1.5c0-0.4,0-0.8-0.1-1.1c0-0.3,0-0.6-0.1-0.9c0-0.1,0.1-0.3,0.2-0.3
				c0,0,0,0,0,0c0.2,0,0.2,0.1,0.3,0.2c0,0.1,0,0.2,0.1,0.2c0,0.6,0.1,1.2,0.2,1.9c0.1,0.8,0.1,1.6,0.1,2.5
				C154.1,53.3,154.2,53.5,154.2,53.9z"/>
			<path id="_Path_37" class="st3" d="M157.2,47.1c-0.6-0.1-1.1-0.1-1.7-0.1s-0.9-0.1-1.3-0.1c-0.1,0-0.1,0-0.2,0
				c-0.1,0-0.3-0.1-0.2-0.3c0-0.1,0.2-0.2,0.3-0.2c0,0,0,0,0,0c0.2,0,0.3,0.1,0.5,0.1c0.9,0.1,1.8,0.2,2.6,0.2
				c0.3,0,0.6-0.1,0.8-0.1c0.3-0.1,0.6-0.3,0.6-0.7c0.1-0.3,0.2-0.7,0.1-1c0-0.1,0-0.2,0-0.3c0-0.1,0.1-0.2,0.3-0.2
				c0.1,0,0.2,0.1,0.2,0.2c0,0,0,0,0,0c0.1,0.2,0.1,0.4,0.1,0.7c0,0.3-0.1,0.6-0.1,0.8c-0.1,0.4-0.5,0.8-0.9,0.9
				C157.9,47.1,157.6,47.1,157.2,47.1z"/>
			<path id="_Path_38" class="st3" d="M91,29.3c0,1-0.3,1.9-0.9,2.7c-0.7,1-1.6,1.7-2.8,2.1c-0.1,0-0.1,0-0.2,0
				c-0.1,0-0.2,0-0.3-0.2c-0.1-0.1,0-0.3,0.1-0.3c0,0,0,0,0,0c0.3-0.1,0.7-0.2,1-0.4c0.7-0.4,1.4-1,1.8-1.7c0.5-0.7,0.7-1.6,0.6-2.5
				c-0.1-0.6-0.3-1.3-0.6-1.8c-0.5-0.9-1.1-1.8-1.8-2.6c-0.5-0.6-1-1.2-1.6-1.8c-0.2-0.1-0.3-0.3-0.4-0.5s-0.1-0.2,0-0.3
				c0.1-0.1,0.2-0.1,0.4,0c0,0,0,0,0,0c0.1,0.1,0.3,0.3,0.4,0.4c0.3,0.4,0.7,0.8,1,1.2c1,1.1,1.9,2.4,2.6,3.7
				C90.8,27.9,91,28.6,91,29.3z"/>
			<path id="_Path_39" class="st3" d="M85.1,30.6c-0.5,0-0.9-0.2-1.1-0.6c-0.3-0.4-0.5-0.8-0.7-1.2c-0.6-1-1.1-2.1-1.6-3.1
				c-0.1-0.1-0.1-0.2-0.1-0.3c0-0.1,0-0.2,0.2-0.3c0.1,0,0.3,0,0.3,0.1c0.1,0.2,0.3,0.5,0.4,0.8c0.4,0.9,0.9,1.7,1.3,2.5
				c0.2,0.4,0.4,0.7,0.6,1.1c0.2,0.5,0.8,0.7,1.3,0.5l0.5-0.2c0.1,0,0.1-0.1,0.2-0.1c0.1,0,0.3,0,0.3,0.1s0,0.2-0.1,0.4
				C86.1,30.4,85.6,30.6,85.1,30.6z"/>
			<path id="_Path_40" class="st3" d="M148.3,24.9c-0.2,0-0.4,0-0.6,0.1c-0.1,0-0.1,0-0.2,0c-0.1,0-0.2-0.1-0.3-0.2
				c0-0.1,0-0.2,0.1-0.2l0.2-0.1c0.9-0.5,1.9-0.1,2.4,0.7c0.1,0.1,0.1,0.2,0.1,0.3c0.2,0.5,0.3,1,0.3,1.5c0,0.2,0.1,0.4,0.1,0.6
				c0,1.6-0.6,3.2-1.6,4.4c-0.8,0.9-1.8,1.7-2.9,2.2l-0.2,0.1c-0.2,0-0.3,0-0.4-0.2c0-0.1,0-0.2,0.2-0.3c0.5-0.2,1-0.5,1.5-0.8
				c1.1-0.7,2-1.8,2.5-3.1c0.1-0.4,0.2-0.7,0.3-1.1c0.1-0.4,0.1-0.9,0.1-1.3c0-0.6-0.1-1.1-0.2-1.6c-0.1-0.3-0.4-0.6-0.7-0.8
				C148.7,24.9,148.5,24.8,148.3,24.9z"/>
			<path id="_Path_41" class="st3" d="M142.5,22.1h0.1c0,0.2,0.3,0.1,0.3,0.3l-0.3,0.2c-0.7,0.3-1.3,0.9-1.6,1.7
				c-0.4,0.7-0.5,1.6-0.3,2.3c0.1,0.1,0,0.3-0.1,0.3c0,0,0,0-0.1,0c-0.2,0-0.3-0.1-0.3-0.2c0,0,0,0,0,0c-0.2-0.9-0.1-1.8,0.3-2.7
				c0.4-0.8,1-1.4,1.7-1.8L142.5,22.1z"/>
			<path id="_Path_42" class="st4" d="M135.4,32.5c0,0.4,0,0.8-0.2,1.2c-0.1,0.4-0.4,0.7-0.8,0.9c-0.6,0.2-1.2,0.3-1.8,0.1
				c-0.1,0-0.2-0.1-0.2-0.2c0-0.1,0.1-0.3,0.3-0.3c0.1,0,0.1,0,0.2,0c0.4,0.1,0.9,0.1,1.3-0.1c0.3-0.1,0.6-0.4,0.7-0.7
				c0.2-0.5,0.2-1.1,0.1-1.6c0-0.3-0.1-0.6-0.1-0.8c-0.1-0.6-0.1-1.3-0.2-1.9c0-0.3-0.1-0.7-0.1-1c0-0.4,0-0.7-0.1-1.1
				c0,0,0-0.1,0-0.1c0-0.5,0-1-0.1-1.6c0-0.7-0.1-1.4-0.1-2.1c0-0.1,0-0.2,0.1-0.3c0.1-0.1,0.2-0.1,0.3-0.1c0.1,0,0.2,0.1,0.2,0.2
				c0,0,0,0,0,0.1c-0.1,0.8,0.1,1.5,0.1,2.3s0.1,1.2,0.1,1.8c0,0.4,0.1,0.7,0.1,1.1s0.1,0.9,0.2,1.4c0,0.3,0.1,0.6,0.1,1
				s0,0.8,0.1,1.2C135.4,32.1,135.4,32.3,135.4,32.5z"/>
			<path id="_Path_43" class="st4" d="M128.3,29.2c0,0.8,0,1.5-0.2,2.3c-0.1,0.5-0.3,0.9-0.7,1.2c-0.4,0.3-0.8,0.6-1.3,0.7
				c-0.3,0.1-0.7,0.1-1,0.1c-0.1,0-0.2,0-0.3,0c-0.1,0-0.2-0.1-0.2-0.3c0-0.1,0.1-0.2,0.2-0.2c0.2-0.1,0.4-0.1,0.5-0.1
				c0.4,0,0.9-0.1,1.3-0.4c0.5-0.3,0.8-0.8,0.9-1.3c0.1-0.4,0.1-0.9,0.2-1.3c0.1-0.6,0-1.2,0.1-1.9c0-0.1,0-0.2,0.2-0.3
				s0.3,0,0.3,0.3S128.3,28.7,128.3,29.2z"/>
			<path id="_Path_44" class="st4" d="M129.5,20.9c0.1,0,0.2,0.1,0.2,0.2c0.2,0.3,0.4,0.6,0.5,1l1.8,3.6c0,0.1,0.1,0.2,0.1,0.2
				c0.1,0.1,0,0.3-0.1,0.3c0,0,0,0,0,0c-0.1,0.1-0.2,0-0.3-0.1c0,0,0,0,0,0l-0.1-0.3c-0.3-0.7-0.7-1.3-1-2c-0.3-0.7-0.8-1.6-1.2-2.4
				c-0.1-0.1-0.1-0.2-0.1-0.3C129.3,21.1,129.4,20.9,129.5,20.9z"/>
			<path id="_Compound_Path_17" class="st1" d="M114.7,19.5c0,0.3,0,0.6-0.1,0.9c-0.1,0.3-0.3,0.5-0.6,0.6c-0.5,0.1-1,0.2-1.5,0.2
				c-0.2,0-0.2-0.1-0.2-0.2c-0.2-0.8-0.4-1.5-0.6-2.3c0-0.1-0.1-0.2-0.1-0.4c-0.1-0.4-0.1-0.4,0.3-0.6c0.4-0.2,0.9-0.4,1.3-0.5
				c0.8-0.2,1,0,1.3,0.8c0.1,0.2,0.1,0.5,0.2,0.7C114.6,18.9,114.7,19.2,114.7,19.5z M113.9,19.4c0-0.5-0.1-1-0.2-1.4
				c0-0.1-0.2-0.2-0.3-0.2c0,0,0,0,0,0c-0.3,0.1-0.7,0.2-1,0.4c-0.1,0-0.1,0.1-0.1,0.2c0,0,0,0,0,0c0.2,0.6,0.3,1.3,0.5,1.9
				c0,0.1,0,0.2,0.1,0.1c0.3,0,0.5,0,0.8-0.1c0.1,0,0.1-0.1,0.2-0.2C113.9,19.8,113.9,19.6,113.9,19.4L113.9,19.4z"/>
			<path id="_Path_45" class="st7" d="M117.5,19.9c0,0.6-0.1,1.1-0.3,1.6c-0.3,0.9-1,1.5-1.8,1.9c-0.7,0.3-1.4,0.4-2.2,0.3
				c-0.1,0-0.2,0-0.2-0.1c-0.1-0.1-0.1-0.2-0.1-0.3c0-0.1,0.1-0.1,0.2-0.1h0.7c0.4,0,0.9-0.1,1.3-0.2c0.7-0.3,1.3-0.8,1.5-1.5
				c0.3-0.7,0.4-1.4,0.2-2.2c-0.2-1-0.5-1.9-1.1-2.7c-0.1-0.1-0.2-0.2-0.1-0.3c0.1-0.1,0.2-0.2,0.4-0.1c0,0,0.1,0.1,0.1,0.1
				c0.3,0.3,0.5,0.7,0.7,1.1c0.3,0.6,0.5,1.1,0.6,1.8C117.5,19.4,117.5,19.7,117.5,19.9z"/>
			<path id="_Path_46" class="st7" d="M113.3,26.9c0.1,0.7-0.1,1.3-0.6,1.8c-0.6,0.8-1.7,1-2.6,0.7c-0.4-0.2-0.8-0.5-1.1-0.9
				c-0.1-0.1-0.1-0.2-0.1-0.3c0-0.1,0-0.2,0.1-0.2c0.1-0.1,0.2-0.1,0.3,0c0.1,0.1,0.2,0.2,0.2,0.3c0.3,0.5,0.8,0.8,1.4,0.8
				c0.4,0,0.8-0.1,1.1-0.4c0.5-0.4,0.7-1,0.7-1.6c0-0.6-0.1-1.3-0.4-1.9c-0.1-0.1-0.1-0.3,0-0.4c0.1-0.1,0.2-0.1,0.3-0.1
				c0,0,0.1,0,0.1,0.1c0.1,0.1,0.2,0.3,0.2,0.4C113.2,25.7,113.3,26.3,113.3,26.9z"/>
			<path id="_Path_47" class="st0" d="M116.2,47.5c-0.7,0-1.4-0.1-2.1-0.2c-0.7-0.1-0.7-0.1-1.1,0.5l-1.2,1.4l-0.2,0.2
				c-0.2-0.6-0.3-1.2-0.4-1.8c-0.1-0.2-0.1-0.5-0.2-0.7c0-0.2-0.1-0.3-0.3-0.3c-0.7-0.3-1.5-0.5-2.2-0.8c-0.1,0-0.1,0-0.2-0.1
				c0-0.1,0.1-0.1,0.2-0.2c0.6-0.4,1.3-0.8,1.9-1.1c0.2-0.1,0.3-0.3,0.3-0.5c0-0.6,0.1-1.3,0.1-1.9v-0.5c0.1,0,0.2,0.1,0.3,0.1
				c0.6,0.5,1.2,0.9,1.7,1.4c0.1,0.1,0.3,0.2,0.5,0.1c0.7-0.2,1.4-0.4,2.2-0.5c0.1,0,0.2,0,0.3,0c-0.2,0.4-0.3,0.8-0.5,1.1
				c-0.2,0.4-0.3,0.7-0.5,1.1c-0.1,0.1-0.1,0.3,0,0.5c0.4,0.6,0.8,1.2,1.2,1.8C116.2,47.3,116.3,47.4,116.2,47.5z"/>
			<path id="_Path_48" class="st0" d="M141,47.5c-0.8,0-0.6,0-0.7-0.7c0-0.3,0-0.5,0.1-0.8c0-0.1,0.1-0.2,0.3-0.2
				c0.3,0.1,0.6,0.1,0.9,0.3c0.1,0,0.1,0.1,0.1,0.2c-0.1,0.3-0.1,0.7-0.2,1c0,0.1-0.1,0.2-0.2,0.2C141.1,47.5,141,47.5,141,47.5z"/>
			<path id="_Path_49" class="st0" d="M113.9,19.4c0,0.2,0,0.5-0.1,0.7c0,0.1-0.1,0.2-0.2,0.2c-0.3,0.1-0.5,0.1-0.8,0.1
				c-0.1,0-0.1-0.1-0.1-0.1c-0.2-0.6-0.3-1.3-0.5-1.9c0-0.1,0-0.1,0.1-0.2c0,0,0,0,0,0c0.3-0.2,0.7-0.3,1-0.4c0.1,0,0.3,0,0.3,0.1
				c0,0,0,0,0,0C113.8,18.4,113.9,18.9,113.9,19.4z"/>
		</g>
	</g>
</g>
</svg>
