<?xml version="1.0" encoding="utf-8"?>
<!-- Generator: Adobe Illustrator 22.1.0, SVG Export Plug-In . SVG Version: 6.00 Build 0)  -->
<svg version="1.1" id="Layer_1" xmlns="http://www.w3.org/2000/svg" xmlns:xlink="http://www.w3.org/1999/xlink" x="0px" y="0px"
	 viewBox="0 0 233 73" style="enable-background:new 0 0 233 73;" xml:space="preserve">
<style type="text/css">
	.st0{fill:#3D3D3D;}
	.st1{fill:#FFFFFF;}
</style>
<title>Asset 2</title>
<g id="Layer_2_1_">
	<g id="Layer_1-2">
		<g id="_Group_">
			<path id="_Compound_Path_" class="st0" d="M64.3,43.8c0.1-0.1,0.1-0.3,0.1-0.4c0-2.8,0-5.7,0-8.5c0-0.1,0-0.3-0.1-0.4
				c-0.4-0.1-0.9-0.1-1.3,0c-1.5,0-3,0-4.4,0c-0.4,0-0.4,0.2-0.4,0.5c0,2.8,0,5.6,0,8.4c0,0.4,0.1,0.6,0.5,0.6c1.7,0,3.5,0,5.2,0
				C64,43.9,64.1,43.9,64.3,43.8L64.3,43.8z M66.4,34.6c0,0.3,0,0.7,0,1c0,1.4,0,1.4,1.4,1.4c0.4,0,0.5,0.2,0.5,0.5
				c0,0.9,0,1.8,0,2.8c-0.2,1.7,0.9,3.2,2.5,3.6c2.2,0.7,4.5,0.5,6.6-0.5c0.2-0.1,0.3-0.2,0.3-0.4c0-0.5,0-1.1,0-1.7
				c-2,1-3.3-0.5-3.1-2.1c0.1-0.5,0.1-1.1,0-1.6c0-0.6,0.1-0.8,0.7-0.7c0.6,0.1,1.5,0,2.3,0c0.3-0.7,0.1-1.4,0.2-2.1
				c0-0.4-0.1-0.5-0.5-0.5c-0.7,0-1.4,0-2.2,0c-0.4,0-0.5-0.1-0.5-0.5c0-0.9,0-1.8,0-2.6c0-0.4-0.1-0.5-0.5-0.5c-1.8,0-3.5,0-5.3,0
				c-0.4,0-0.5,0.1-0.5,0.5c0,0.9,0,1.8,0,2.6c0,0.4-0.1,0.5-0.5,0.5C67.3,34.5,66.8,34.3,66.4,34.6z M126.5,39.6v-0.1
				c0.3-2.1-1-4.1-3-4.8c-2.8-1.2-6-1.2-8.8,0c-1.3,0.4-2.3,1.5-2.7,2.7c-1,2.5,0.1,5.3,2.6,6.3c0.4,0.1,0.7,0.3,1.1,0.3
				c3.1,0.7,6.2,0.6,9.3-0.3c1.4-0.4,1.4-0.4,1.5-1.9c0-0.6-0.2-0.6-0.7-0.5c-1.7,0.5-3.5,0.8-5.3,0.7c-0.9,0.1-1.8-0.3-2.3-1
				c-0.4-0.7-0.2-1.1,0.6-1.1l7.6-0.1c0.2,0,0.2,0,0.2-0.2L126.5,39.6z M135,39.1c0.4-1,1-1.4,1.8-1.2s1.2,0.8,1.2,1.8
				c0,1,0,2.4,0,3.6c0,0.5,0.1,0.7,0.6,0.6c1.5,0,3,0,4.5,0c0.4,0,0.6-0.1,0.6-0.6c0-1.5,0-3,0-4.4c0-1-0.3-2-1-2.8
				c-1.7-2-4.6-2.5-6.8-1.2c-0.3,0.1-0.5,0.4-0.9,0.4c0.1-0.6-0.2-0.8-0.8-0.8c-1.6,0-3.2,0-4.8,0c-0.4,0-0.6,0.1-0.6,0.6
				c0,2.8,0,5.5,0,8.3c0,0.5,0.2,0.5,0.6,0.5c1.7,0,3.3,0,5,0c0.2,0,0.4,0.1,0.5-0.1C135.1,42.2,135,40.6,135,39.1z M100.8,29.5
				c-1.9-0.1-3.8,0-5.7-0.1c-0.4,0-0.3,0.2-0.3,0.4c0,4.5,0,9,0,13.5c0,0.3,0.1,0.5,0.5,0.5c1.8,0,3.5,0,5.3,0
				c0.3,0,0.4-0.1,0.4-0.4c0-1.5,0-2.9,0-4.4c0.4-1,1-1.4,1.9-1.2s1.2,0.8,1.2,1.9c0,1.1,0,2.5,0,3.7c0,0.4,0.1,0.5,0.5,0.5
				c1.5,0,3.1,0,4.6,0c0.4,0,0.6-0.1,0.5-0.5c0-1.6,0-3.2,0-4.8c0-0.4-0.1-0.7-0.2-1.1c-1-2.7-4-4.1-6.7-3.1
				c-0.2,0.1-0.4,0.2-0.6,0.3c-0.4,0.2-0.8,0.4-1.2,0.6c0-0.8,0-1.5,0-2.2C101,31.9,100.9,30.7,100.8,29.5z M190,29.5L190,29.5
				c-1.8-0.2-3.6,0-5.4-0.1c-0.5,0-0.6,0.1-0.6,0.6c0,1.5,0,3,0,4.5c-0.1,0-0.1,0-0.1,0c-0.1,0-0.2-0.1-0.3-0.1
				c-1.8-0.8-3.9-0.9-5.7-0.3c-2,0.5-3.4,2.3-3.4,4.3c-0.2,2,0.9,4,2.8,4.8c1.3,0.5,2.7,0.7,4.1,0.6c0.9-0.1,1.8-0.4,2.6-0.8
				c-0.2,0.8,0.2,0.9,0.8,0.9c1.6,0,3.1,0,4.7,0c0.5,0,0.7-0.1,0.7-0.6c0-4.4,0-8.8,0-13.2C190.1,29.8,190.2,29.6,190,29.5z
				 M38.1,28.5c-1.1,0-1.1,0-1.1,1v13.7c0,0.3-0.1,0.7,0.4,0.7c2.1,0,4.3,0,6.4,0c0.3,0,0.5-0.1,0.4-0.4c0-1.5,0-3,0-4.5
				c0-0.4,0.2-0.6,0.5-0.6c1.1-0.2,2.1,0.3,2.5,1.3c0.6,1.2,1.1,2.5,1.6,3.7c0.1,0.3,0.4,0.5,0.7,0.5c2.1,0,4.2,0,6.3,0
				c0.5,0,0.6-0.1,0.4-0.6c-0.9-2-1.8-4-2.6-6c-0.4-1.4-1.4-2.5-2.8-2.9l4.2-5.9c-1.7,0-3.3,0-5,0c-0.4-0.1-0.8,0.2-1,0.5
				c-1,1.5-2,3-3,4.5c-0.2,0.4-0.6,0.7-1.1,0.9c-0.4,0.1-0.7,0-0.7-0.5c0-1.6,0-3.2,0-4.8c0-0.2,0.1-0.5-0.2-0.6c0,0-0.1,0-0.1,0
				h-0.4c0,0-0.1,0-0.1,0H38.1z M150.5,28.5c0,0.2,0.1,0.3,0.2,0.5c0.5,0.8,0.5,1.8,0,2.6c-1.7,3.8-3.3,7.7-5,11.5
				c-0.2,0.5-0.2,0.7,0.4,0.7s1.6,0,2.4,0c0.3,0.1,0.7-0.1,0.8-0.5c0.2-0.6,0.5-1.2,0.8-1.8c0.1-0.3,0.3-0.5,0.6-0.4h4.8
				c0.3,0,0.5,0.1,0.6,0.4c0.2,0.6,0.5,1.2,0.8,1.9c0.1,0.3,0.4,0.5,0.7,0.5c2,0,4,0,6,0c0.8,0,0.8,0,0.5-0.7l-1.9-4.3
				c-1.4-3.3-2.8-6.5-4.2-9.8c-0.1-0.2-0.1-0.5-0.5-0.5H150.5z M92,40.4l-0.4,0.2c-1.7,0.7-3.5,0.7-5.2,0c-0.6-0.2-1-0.8-1-1.5
				c0-0.6,0.4-1.2,1-1.4c0.3-0.1,0.5-0.2,0.8-0.3c1.6-0.4,3.3-0.3,4.8,0.4c0-0.8,0-1.5,0-2.1c0-0.4-0.2-0.7-0.5-0.8
				c-1.2-0.6-2.5-0.9-3.8-1c-2.1-0.3-4.1,0.1-6,1c-1.7,0.8-2.7,2.5-2.6,4.3c0,1.8,1.1,3.5,2.8,4.2c2.9,1.3,6.3,1.4,9.3,0.1
				c0.6-0.1,0.9-0.7,0.8-1.2C91.9,41.7,91.9,41,92,40.4z M172.4,39.2c0-1.4,0-2.8,0-4.1c0-0.4-0.1-0.6-0.5-0.6c-1.7,0-3.4,0-5.1,0
				c-0.5,0-0.6,0.2-0.6,0.6c0,2.7,0,5.5,0,8.2c0,0.5,0.2,0.6,0.6,0.6c1.6,0,3.3,0,4.9,0c0.6,0,0.7-0.2,0.7-0.7
				C172.4,41.8,172.4,40.5,172.4,39.2L172.4,39.2z M61,33.1c1,0.1,2-0.2,2.8-0.9c0.8-0.7,0.8-1.8,0.2-2.6c0,0,0,0,0,0
				c-1.4-1.4-3.7-1.4-5.2,0c-0.7,0.7-0.7,1.8,0,2.4C59.3,32.7,60.1,33.1,61,33.1z M169.2,33.1c0.9,0.1,1.9-0.3,2.6-0.9
				c0.7-0.7,0.8-1.8,0.2-2.5c0-0.1-0.1-0.1-0.2-0.2c-1.4-1.3-3.6-1.3-5,0c-0.7,0.7-0.8,1.8-0.1,2.5c0,0,0.1,0.1,0.1,0.1
				C167.4,32.7,168.3,33.1,169.2,33.1L169.2,33.1z M193.9,28.6c-1.1-0.1-2,0.7-2.1,1.8c0,0.1,0,0.2,0,0.3c-0.1,1.1,0.7,2.2,1.9,2.3
				c1.1,0.1,2.2-0.7,2.3-1.9c0-0.2,0-0.4,0-0.6c0.1-1-0.7-1.9-1.8-2C194.1,28.6,194,28.6,193.9,28.6z"/>
			<path id="_Path_" class="st0" d="M44,28.5c0.3,0.1,0.2,0.4,0.2,0.6c0,1.6,0,3.2,0,4.8c0,0.6,0.2,0.6,0.7,0.5
				c0.5-0.1,0.9-0.4,1.2-0.8c1-1.5,2.1-3,3.2-4.5c0.2-0.4,0.6-0.6,1-0.5c1.5,0,3.1,0,4.8,0l-4.1,5.9c1.4,0.4,2.4,1.5,2.8,2.9
				c0.8,2,1.7,4,2.6,6c0.2,0.5,0.1,0.6-0.4,0.6c-2.1,0-4.2,0-6.3,0c-0.3,0-0.6-0.2-0.7-0.5c-0.5-1.2-1.1-2.5-1.6-3.7
				c-0.4-1-1.5-1.6-2.5-1.4c-0.4,0.1-0.5,0.2-0.5,0.6c0,1.5,0,3,0,4.5c-0.2,0.3-0.5,0.3-0.8,0.3c-1.8,0-3.6,0-5.4,0
				c-0.6,0-0.7-0.2-0.7-0.7c0-4.4,0-8.9,0-13.3c0-0.7,0-1.2,0.8-1.2h0.3c0.1,0.1,0.4,0.2,0.5,0c0,0,0,0,0,0h4.4c0,0.1,0.1,0.1,0.1,0
				H44C44,28.6,44,28.6,44,28.5z"/>
			<path id="_Compound_Path_2" class="st0" d="M150.5,28.5h7c0.4,0,0.4,0.3,0.5,0.5c1.4,3.2,2.8,6.5,4.2,9.8l1.9,4.3
				c0.3,0.7,0.3,0.7-0.5,0.7c-2,0-4,0-6,0c-0.3,0.1-0.6-0.1-0.7-0.5c-0.2-0.6-0.5-1.2-0.8-1.8c-0.1-0.3-0.3-0.5-0.6-0.4h-4.8
				c-0.3,0-0.6,0.1-0.6,0.4c-0.2,0.6-0.6,1.2-0.8,1.8c-0.1,0.3-0.4,0.6-0.8,0.5c-0.8,0-1.6,0-2.4,0s-0.6-0.2-0.4-0.7
				c1.7-3.8,3.3-7.7,5-11.5c0.5-0.8,0.5-1.8,0-2.6C150.6,28.9,150.6,28.7,150.5,28.5z M151.8,37.8h2.3c0.3,0,0.4,0,0.3-0.3l-1.2-2.8
				L151.8,37.8z"/>
			<path id="_Compound_Path_3" class="st0" d="M190,29.5c0.2,0.1,0.1,0.3,0.1,0.5c0,4.4,0,8.8,0,13.2c0,0.5-0.2,0.6-0.7,0.6
				c-1.6,0-3.1,0-4.7,0c-0.6,0-1,0-0.8-0.9c-0.8,0.4-1.7,0.7-2.6,0.8c-1.4,0.2-2.8,0-4.1-0.6c-1.9-0.8-3.1-2.7-2.8-4.8
				c0-2,1.4-3.8,3.4-4.3c1.9-0.7,3.9-0.5,5.7,0.3c0.1,0,0.2,0.1,0.3,0.1c0,0,0,0,0.1,0c0-1.5,0-3,0-4.5c0-0.5,0.1-0.6,0.6-0.6
				C186.4,29.5,188.2,29.4,190,29.5c-1.8,0-3.5,0-5.3,0c-0.2,0-0.6-0.1-0.6,0.3c0,1.6,0,3.1,0,4.6c0.1-1.4,0.2-2.8,0.1-4.2
				c0-0.5,0.1-0.6,0.6-0.6c1.5,0,2.9,0,4.4,0c0.4,0,0.7,0.1,0.8,0.5L190,29.5z M184,38.8c0-1.3-0.4-1.8-1.6-1.8
				c-0.9,0-1.7,0.7-1.8,1.6c0,0.1,0,0.1,0,0.2c-0.1,0.9,0.7,1.7,1.6,1.8c0.1,0,0.1,0,0.2,0C183.5,40.6,184,40.1,184,38.8z M190,31.3
				L190,31.3l-0.1,11.3h0.1V31.3z"/>
			<path id="_Path_2" class="st0" d="M100.8,29.5c0.1,1.2,0.1,2.4,0.1,3.6c0,0.7,0,1.4,0,2.2c0.5-0.2,0.8-0.5,1.2-0.6
				c2.5-1.3,5.7-0.3,7,2.2c0.1,0.2,0.2,0.4,0.3,0.6c0.1,0.3,0.2,0.7,0.2,1.1c0,1.6,0,3.2,0,4.8c0,0.4-0.1,0.5-0.5,0.5
				c-1.6,0-3.1,0-4.6,0c-0.4,0-0.5-0.1-0.5-0.5c0-1.2,0-2.4,0-3.7s-0.4-1.7-1.2-1.9s-1.5,0.2-1.9,1.2h-0.1l0,0c0,1.3,0,2.7,0,4
				c0,0.5-0.1,0.7-0.6,0.6c-1.5,0-3.1,0-4.6,0c-0.5,0-0.6-0.1-0.6-0.6c0-4.3,0-8.6,0-12.9c0-0.5,0.1-0.6,0.6-0.6c1.5,0,3,0,4.5,0
				C100.3,29.6,100.6,29.6,100.8,29.5z"/>
			<path id="_Path_3" class="st0" d="M135,43.8c-0.1,0.2-0.3,0.1-0.5,0.1c-1.7,0-3.3,0-5,0c-0.4,0-0.6,0-0.6-0.5c0-2.8,0-5.6,0-8.3
				c0-0.5,0.2-0.6,0.6-0.6c1.6,0,3.2,0,4.8,0c0.6,0,0.9,0.2,0.8,0.8c0.4,0,0.6-0.2,0.9-0.4c2.3-1.3,5.2-0.8,6.8,1.2
				c0.7,0.8,1,1.8,1,2.8c0,1.5,0,3,0,4.4c0,0.5-0.1,0.6-0.6,0.6c-1.5,0-3,0-4.5,0c-0.5,0-0.6-0.2-0.6-0.6c0-1.2,0-2.4,0-3.6
				c0-1.2-0.4-1.7-1.2-1.8c-0.8-0.1-1.4,0.3-1.8,1.2c-0.3,0.1-0.2,0.4-0.2,0.6c0,1,0,2.1,0,3.1C134.9,43.1,134.7,43.5,135,43.8z"/>
			<path id="_Compound_Path_4" class="st0" d="M126.3,39.9l-7.6,0.1c-0.8,0-1,0.4-0.6,1.1c0.5,0.7,1.4,1.1,2.3,1
				c1.8,0.1,3.6-0.2,5.3-0.7c0.5-0.2,0.7-0.1,0.7,0.5c0,1.5,0,1.5-1.5,1.9c-3,0.9-6.2,0.9-9.2,0.3c-2.6-0.4-4.4-2.9-4-5.5
				c0.1-0.4,0.2-0.7,0.3-1.1c0.4-1.3,1.4-2.3,2.7-2.7c2.8-1.2,6-1.2,8.8,0c2,0.7,3.3,2.7,3,4.8c-0.1,0-0.1,0.1,0,0.1v0.1H120V40
				L126.3,39.9z M119.4,37.8c0.4,0,0.8,0,1.2,0s0.4-0.1,0.4-0.4c0-0.7-0.6-1.3-1.3-1.4c-0.7-0.2-1.4,0.2-1.7,0.9
				c-0.3,0.7-0.1,0.9,0.6,0.9H119.4z M119.4,39.8c-0.2-0.1-0.4-0.1-0.6,0C119,39.9,119.3,39.9,119.4,39.8L119.4,39.8z M118.2,39.9
				l0.2-0.1c0,0-0.1-0.1-0.1-0.1s-0.2,0-0.2,0S118.1,39.9,118.2,39.9L118.2,39.9z"/>
			<path id="_Path_4" class="st0" d="M77.4,37.1c-0.8,0-1.5,0.1-2.3,0s-0.8,0.2-0.7,0.7c0.1,0.5,0.1,1.1,0,1.6
				c-0.2,1.6,1.2,3,3.1,2.1c0,0.6,0,1.1,0,1.7c0,0.2-0.1,0.4-0.3,0.4c-2.1,1-4.4,1.1-6.6,0.5c-1.6-0.4-2.7-2-2.5-3.6
				c0-0.9,0-1.8,0-2.8c0-0.4,0-0.5-0.5-0.5c-1.4,0-1.4,0-1.4-1.5c0-0.3,0-0.7,0-1c0.4,0,0.8,0,1.2,0c0.4,0,0.7-0.1,0.7-0.6
				c0-0.8,0-1.6,0-2.4c0-0.4,0.1-0.6,0.6-0.6c1.7,0,3.3,0,5,0c0.4,0,0.6,0.1,0.6,0.5c0,0.8,0,1.6,0,2.3c0,0.5,0.1,0.8,0.7,0.7
				s1.2,0,1.8,0c0.6,0,0.6,0.2,0.6,0.6C77.4,35.8,77.4,36.5,77.4,37.1z"/>
			<path id="_Path_5" class="st0" d="M92,40.4c0,0.6,0,1.3,0,1.9c0.1,0.6-0.2,1.1-0.8,1.2c-3,1.3-6.3,1.2-9.3-0.1
				c-1.7-0.7-2.8-2.4-2.8-4.2c-0.1-1.8,0.9-3.5,2.6-4.3c1.9-0.9,3.9-1.3,6-1c1.3,0.1,2.6,0.4,3.8,1c0.3,0.1,0.5,0.5,0.5,0.8
				c0,0.7,0,1.4,0,2.1c-1.5-0.7-3.2-0.8-4.8-0.4c-0.3,0.1-0.5,0.2-0.8,0.3c-0.6,0.2-1,0.8-1,1.4c0,0.7,0.4,1.3,1,1.5
				c1.7,0.7,3.5,0.7,5.2,0L92,40.4z"/>
			<path id="_Path_6" class="st0" d="M172.4,39.2c0,1.3,0,2.7,0,4c0,0.5-0.1,0.7-0.7,0.7c-1.6,0-3.3,0-4.9,0c-0.5,0-0.6-0.1-0.6-0.6
				c0-2.7,0-5.5,0-8.2c0-0.4,0-0.6,0.6-0.6c1.7,0,3.4,0,5.1,0c0.4,0,0.5,0.1,0.5,0.6C172.4,36.4,172.4,37.8,172.4,39.2z"/>
			<path id="_Path_7" class="st0" d="M64.3,43.8c-0.1,0.1-0.2,0.1-0.4,0.1c-1.7,0-3.5,0-5.2,0c-0.4,0-0.5-0.1-0.5-0.5
				c0-2.8,0-5.6,0-8.4c0-0.3,0-0.5,0.4-0.5c1.5,0.1,2.9,0.1,4.4,0.1c0.1,0,0.2,0.1,0.3,0.1c0.7-0.1,0.8,0.2,0.8,0.9
				c0,2.5,0,5.1,0,7.6C64.1,43.3,64,43.6,64.3,43.8z"/>
			<path id="_Path_8" class="st0" d="M61,33.1c-0.9,0-1.7-0.4-2.2-1c-0.7-0.7-0.7-1.8,0-2.4c1.4-1.4,3.7-1.4,5.2,0
				c0.7,0.7,0.6,1.9-0.1,2.6c0,0,0,0,0,0C63,32.9,62,33.2,61,33.1z"/>
			<path id="_Path_9" class="st0" d="M169.2,33.1c-0.9,0-1.8-0.4-2.4-1c-0.7-0.7-0.8-1.8-0.1-2.5c0,0,0.1-0.1,0.1-0.1
				c1.4-1.3,3.6-1.3,5,0c0.7,0.7,0.8,1.8,0.2,2.5c0,0.1-0.1,0.1-0.2,0.2C171.1,32.8,170.1,33.2,169.2,33.1z"/>
			<path id="_Path_10" class="st0" d="M38.1,28.5c-0.8,0-0.8,0.6-0.8,1.2c0,4.4,0,8.9,0,13.3c0,0.6,0.2,0.8,0.7,0.7
				c1.8,0,3.6,0,5.4,0c0.3,0,0.6,0,0.8-0.3c0.1,0.3-0.1,0.4-0.4,0.4c-2.1,0-4.2,0-6.4,0c-0.5,0-0.4-0.4-0.4-0.7V29.5
				C37,28.5,37,28.5,38.1,28.5z"/>
			<path id="_Compound_Path_5" class="st0" d="M193.9,28.6c1-0.1,2,0.6,2.1,1.6c0,0.1,0,0.2,0,0.4c0.1,1.1-0.7,2.2-1.9,2.3
				c-1.1,0.1-2.2-0.7-2.3-1.9c0-0.1,0-0.2,0-0.2c-0.1-1.1,0.6-2,1.7-2.2C193.7,28.6,193.8,28.6,193.9,28.6z M195.6,30.7
				c0-0.9-0.7-1.7-1.7-1.7s-1.7,0.7-1.7,1.7c0,0.9,0.7,1.7,1.7,1.7S195.6,31.6,195.6,30.7z"/>
			<path id="_Path_11" class="st0" d="M100.8,29.5c-0.2,0.1-0.5,0.2-0.8,0.1c-1.5,0-3,0-4.5,0c-0.5,0-0.6,0.1-0.6,0.6
				c0,4.3,0,8.6,0,12.9c0,0.5,0.1,0.6,0.6,0.6c1.5,0,3.1,0,4.6,0c0.5,0,0.6-0.2,0.6-0.7c0-1.3,0-2.7,0-4l0,0h0.1c0,1.5,0,2.9,0,4.4
				c0,0.3-0.1,0.5-0.4,0.5c-1.8,0-3.5,0-5.3,0c-0.4,0-0.5-0.1-0.5-0.5c0-4.5,0-9,0-13.5c0-0.2,0-0.5,0.3-0.5
				C97,29.5,98.9,29.4,100.8,29.5z"/>
			<path id="_Path_12" class="st0" d="M77.4,37.1c0-0.6,0-1.2,0-1.9c0-0.4-0.1-0.6-0.6-0.6c-0.5,0-1.2,0-1.8,0s-0.7-0.2-0.7-0.7
				c0-0.8,0-1.6,0-2.3c0-0.4-0.1-0.6-0.6-0.6c-1.7,0-3.3,0-5,0c-0.5,0-0.6,0.2-0.6,0.6c0,0.8,0,1.6,0,2.4c0,0.5-0.2,0.7-0.7,0.6
				c-0.5,0-0.8,0-1.2,0c0.4-0.3,0.9-0.1,1.3-0.1c0.4,0,0.5-0.1,0.5-0.5c0-0.9,0-1.8,0-2.6c0-0.4,0.1-0.5,0.5-0.5c1.8,0,3.5,0,5.3,0
				c0.4,0,0.5,0.1,0.5,0.5c0,0.9,0,1.8,0,2.6c0,0.4,0.1,0.5,0.5,0.5c0.7,0,1.4,0,2.1,0c0.4,0,0.5,0.1,0.5,0.5
				C77.5,35.7,77.8,36.4,77.4,37.1z"/>
			<path id="_Path_13" class="st0" d="M64.3,43.8c-0.2-0.2-0.1-0.5-0.1-0.7c0-2.5,0-5.1,0-7.6c0-0.6-0.1-1-0.8-0.9
				c-0.1,0-0.2-0.1-0.3-0.1c0.4-0.1,0.8-0.1,1.2,0C64.3,37.6,64.3,40.7,64.3,43.8L64.3,43.8z"/>
			<path id="_Path_14" class="st0" d="M64.3,43.8c0-3.1,0-6.2,0-9.2c0.1,0.1,0.1,0.2,0.1,0.4c0,2.8,0,5.6,0,8.5
				C64.4,43.5,64.4,43.7,64.3,43.8z"/>
			<path id="_Path_15" class="st0" d="M126.3,39.9H120v-0.2h6.5C126.6,39.9,126.5,40,126.3,39.9z"/>
			<path id="_Path_16" class="st0" d="M135,43.8c-0.2-0.3-0.1-0.7-0.1-1c0-1,0-2,0-3.1c0-0.2-0.1-0.5,0.2-0.6
				C135,40.6,135.1,42.2,135,43.8z"/>
			<path id="_Path_17" class="st0" d="M38.9,28.5c-0.1,0.1-0.4,0.2-0.5,0c0,0,0,0,0,0H38.9z"/>
			<path id="_Path_18" class="st0" d="M43.5,28.5c0,0.1-0.1,0.1-0.1,0C43.4,28.5,43.4,28.5,43.5,28.5z"/>
			<path id="_Path_19" class="st0" d="M44,28.5C44,28.6,44,28.6,44,28.5C43.9,28.5,44,28.5,44,28.5z"/>
			<path id="_Path_20" class="st0" d="M126.5,39.6c-0.1,0-0.1-0.1,0-0.1V39.6z"/>
			<path id="_Path_21" class="st1" d="M151.8,37.8l1.4-3.2l1.2,2.8c0.1,0.3,0,0.4-0.3,0.4L151.8,37.8z"/>
			<path id="_Path_22" class="st1" d="M184,38.8c0,1.3-0.4,1.8-1.6,1.8c-0.9,0.1-1.7-0.7-1.8-1.6c0-0.1,0-0.1,0-0.2
				c-0.1-0.9,0.7-1.7,1.6-1.8c0.1,0,0.1,0,0.2,0C183.5,37.1,184,37.6,184,38.8z"/>
			<path id="_Path_23" class="st0" d="M190,31.3v11.3l0,0V31.3L190,31.3z"/>
			<path id="_Path_24" class="st0" d="M190,29.5v0.7c-0.1-0.5-0.3-0.6-0.8-0.6c-1.5,0-2.9,0-4.4,0c-0.5,0-0.6,0.1-0.6,0.6
				c0,1.4,0,2.8-0.1,4.2c0-1.5,0-3.1,0-4.6c0-0.4,0.4-0.3,0.6-0.3C186.5,29.5,188.3,29.5,190,29.5L190,29.5z"/>
			<path id="_Path_25" class="st1" d="M119.4,37.8h-0.8c-0.7,0-0.9-0.2-0.6-0.9c0.3-0.7,1-1.1,1.7-0.9c0.7,0.1,1.3,0.7,1.3,1.4
				c0,0.3,0,0.4-0.3,0.4S119.8,37.8,119.4,37.8z"/>
			<path id="_Path_26" class="st0" d="M119.5,39.8c-0.2,0.1-0.4,0.1-0.6,0C119.1,39.7,119.3,39.7,119.5,39.8z"/>
			<path id="_Path_27" class="st0" d="M118.2,39.9c-0.1,0-0.2,0-0.1-0.1C118.1,39.7,118.2,39.8,118.2,39.9c0.1-0.1,0.1-0.1,0.2,0
				L118.2,39.9z"/>
			<path id="_Compound_Path_6" class="st1" d="M195.6,30.7c0,0.9-0.7,1.7-1.7,1.7s-1.7-0.7-1.7-1.7c0-0.9,0.7-1.7,1.7-1.7
				S195.6,29.8,195.6,30.7z M195.1,31.8c-0.4-0.4-0.7-0.9-0.2-1.5c0.2-0.2,0-0.6-0.3-0.8c-0.4-0.2-0.9-0.2-1.3,0
				c0,0-0.1,0.1-0.1,0.2v1.9c0,0.2,0.1,0.3,0.3,0.3s0.3-0.1,0.3-0.3c0-0.2-0.1-0.4,0.1-0.6C194.2,31.2,194.2,32.1,195.1,31.8z"/>
			<path id="_Compound_Path_7" class="st0" d="M195.1,31.8c-0.9,0.3-0.8-0.6-1.3-0.8c-0.2,0.2-0.1,0.4-0.1,0.6
				c0,0.2-0.1,0.3-0.3,0.3s-0.3-0.1-0.3-0.3v-1.9c0-0.1,0-0.2,0.1-0.2c0.4-0.2,0.9-0.1,1.3,0c0.3,0.1,0.5,0.6,0.3,0.8
				C194.3,30.9,194.7,31.3,195.1,31.8z M193.9,30.5c0.2,0,0.4-0.1,0.4-0.4c0-0.3-0.2-0.3-0.4-0.3c-0.2,0-0.3,0.1-0.2,0.3
				S193.6,30.5,193.9,30.5z"/>
			<path id="_Path_28" class="st0" d="M193.9,30.5c-0.3,0-0.2-0.2-0.2-0.4s0-0.3,0.2-0.3c0.2,0,0.4,0.1,0.4,0.3
				C194.3,30.4,194.1,30.5,193.9,30.5z"/>
		</g>
	</g>
</g>
</svg>
