<?xml version="1.0" encoding="utf-8"?>
<!-- Generator: Adobe Illustrator 22.1.0, SVG Export Plug-In . SVG Version: 6.00 Build 0)  -->
<svg version="1.1" id="Layer_1" xmlns="http://www.w3.org/2000/svg" xmlns:xlink="http://www.w3.org/1999/xlink" x="0px" y="0px"
	 viewBox="0 0 233 73" style="enable-background:new 0 0 233 73;" xml:space="preserve">
<style type="text/css">
	.st0{fill:#3D3D3D;}
	.st1{fill:#FFFFFF;}
	.st2{fill:#A2A2A1;}
</style>
<title>Asset 46</title>
<g id="Layer_2_1_">
	<g id="Layer_1-2">
		<g id="_Group_">
			<path id="_Compound_Path_" class="st0" d="M159.4,29.8c-0.9-0.6-2-0.9-3.1-0.9c-0.9,0-1.7,0.2-2.5,0.6c-0.6-0.6-1.4-0.9-2.2-1
				h-0.2c-1,0-2,0.4-2.6,1.1c-1.2-1.2-2.8-1.8-4.5-1.8c-1.2,0-2.4,0.3-3.4,0.9c-1.1-1.1-2.5-1.8-4-1.9c-0.2,0-0.4,0-0.6,0
				c-1.3,0-2.6,0.4-3.6,1.1c-0.7-1.1-1.8-1.8-3.1-1.9l-1-0.1c0-0.7,0.1-1.5,0.1-2.3c0.1-2.4-1.2-3.4-2.4-3.4c-1,0-1.9,0.6-2.8,1.9
				c-1.3,2-2.2,4.2-2.7,6.6c-0.2-0.1-0.3-0.2-0.5-0.3c-0.7-0.3-1.4-0.5-2.2-0.5c-0.9,0-1.7,0.2-2.5,0.6c-0.5-0.3-1.1-0.5-1.8-0.5
				c-0.3,0-0.6,0-0.9,0.1c-0.7,0.1-1.3,0.5-1.7,0.9c-0.5-0.6-1.2-1-2-1.1h-0.5c-1.5,0-2.8,0.9-3.4,2.2c-0.6-1.2-1.7-1.9-3.1-1.9
				c-0.6,0-1.1,0.1-1.6,0.4c-0.3,0.2-0.6,0.4-0.9,0.7c-0.8-0.5-1.7-0.8-2.7-0.8h-0.2c-1.3,0-2.5,0.5-3.4,1.4h-0.2
				c0.3-0.6,0.6-1.3,0.8-2c0.6-1.8,0.3-3.8-0.8-5.4c-0.8-1.1-2-1.7-3.4-1.7c-0.6,0-1.3,0.1-1.8,0.4c-3,1.4-4,4.2-5.7,9.3l-0.1,0.5
				c-0.1-0.6-0.2-1.2-0.3-1.7c-0.2-1.4-0.4-2.8-0.8-4.1c-0.7-2.1-2.3-4.3-4.8-4.3c-0.8,0-1.5,0.2-2.2,0.5c-4.6,2.2-3,10.8-0.9,15.8
				c1.4,3.5,3.6,6.5,6.4,8.9c0.8,0.7,1.9,1,2.9,1.1c0.5,0,1-0.1,1.5-0.4c0.9,1.7,2.3,3,4,3.8c2.7,1.3,5.6,2,8.6,2h0.4
				c3.4,0,6.7-1.2,9.4-3.4c1.8-1.5,3.2-3.4,4.1-5.5c0.4,1,1,1.9,1.6,2.7c0.6,0.9,1.6,1.4,2.6,1.5c0.6,0,1.1-0.2,1.5-0.6
				c0.5-0.6,0.8-1.5,0.7-2.3v0c0.4,0.2,0.9,0.4,1.3,0.4h0.1h0.6c0.6,0,1.3,0,2.5,0c1.8,0,4.3,0,7.5,0.1c5.9,0,11.8,0.8,17.6,2.3
				l0.7,0.2c0.7,0.2,1.4,0.3,2.2,0.3c1.3,0.1,2.5-0.5,3.1-1.5c0.3-0.5,0.4-1,0.4-1.6c0.4,0.4,1,0.6,1.6,0.6l0,0c0.3,0,0.5,0,0.8-0.1
				c2.7-0.7,5-4.1,6.2-7.1C162.7,35,161.9,31.5,159.4,29.8z"/>
			<g id="_Group_2">
				<path id="_Path_" class="st1" d="M89.3,40.3c1.6-1.8,1-3.6,0.3-3.4c-1.1,0.5-2.4,0.7-3.6,0.6c-0.5,0-0.9-0.1-1.2-0.2
					c3.8-2.5,7.2-7.2,7.8-9.7c1-3.6-1.5-6.1-4-5s-3.3,3.6-5,8.8c-0.5,1.6-1.1,3.1-2,4.5c-0.1-0.6-0.2-1.1-0.3-1.7
					c-0.6-3.1-1.2-7.4-1.5-8.5c-0.5-1.5-2-4.3-5-2.8c-3.2,1.6-2.5,8.6-0.2,13.9c1.2,3.3,3.3,6.1,6,8.3c1.3,1,3.8,1.6,2.9-1.4
					c-0.1-0.4-0.3-1-0.4-1.6C85.2,42.6,87.6,41.9,89.3,40.3z"/>
				<path id="_Compound_Path_2" class="st1" d="M158.5,31c-1.2-0.8-3.9-1.1-5,0.8c-0.2,0.3-0.4,0.9-0.3-0.1c0-0.9-0.7-1.6-1.6-1.7
					c0,0,0,0,0,0c-0.9,0-2.1,0.2-2.5,2.5c-0.6-1.4-1.7-2.5-3.2-3c-1.8-0.6-3.8-0.1-5.3,1.2c-0.8-1.4-2.3-2.3-3.9-2.5
					c-2.9-0.2-5.5,1.9-6,4.8c-1.1-0.8-2.6-0.7-3.5,0.3c-1,1.2-0.1,2.4,0.4,2.4s0.5-0.3,0.4,0c-0.1,0.2-0.2,0.3-0.3,0.4
					c-0.2,0.1-0.3,0.2-0.5,0.2c-1.9,0-0.8-5.8-0.8-5.8s1.3-0.1,2.1-0.2c1.7-0.2,2.7-0.4,2.8-1.3c0.1-1-1.3-1.4-2-1.5
					c-0.8-0.1-1.6-0.2-2.4-0.2c0,0,0.2-2,0.2-3.7s-1-2.8-2.6-0.6c-1.8,2.8-2.8,6-2.9,9.3c-0.3-1.1-1.1-2-2.1-2.4
					c-1.4-0.6-3-0.4-4.2,0.6c-0.5-0.7-1.3-0.9-2.1-0.7c-1.1,0.2-1.8,1.4-2.2,3c-0.3-2.2-1.2-3.1-2-3.2c-1.2-0.2-2.4,0.4-3.2,3.4
					s-0.9,4-1.1,4s-0.3-0.6-0.3-1.5c0-1.4-0.1-2.8-0.3-4.2c-0.3-1.1-1.4-1.7-2.5-1.3c-0.1,0-0.2,0.1-0.4,0.1c-0.7,0.5-1.1,1.2-1.2,2
					c-0.5-1.3-1.8-2.1-3.1-2c-1.3,0-2.5,0.8-2.9,2.1c-0.5-0.8-1.6-1-2.4-0.5c-0.3,0.2-0.5,0.5-0.6,0.8c-0.8,1.6,0.3,5.7,1.2,7.7
					c1.1,2.3,2.2,3,3.1,2.5s0.7-1.6,0.6-2.7c-0.3-1.4-0.4-2.8-0.3-4.2c0.2-1.9,1-2.3,0.8-1.9c-0.4,0.7-0.3,1.5,0.1,2.1
					c0.6,0.7,2.2,1.1,3.3-0.7c0,0.1,0,0.1,0,0.2c0.4,3.2,2.4,5.6,4.2,5.8c1,0.2,1.9-0.2,2.5-1c0.2-0.2,0.3-0.1,0.3,0.1
					c0,0.2-2.2,5.2-7.3,6.4c-3.5,0.7-7.1-0.1-10-2.3c-2.9-2.1-4.3-0.7-4.3,0.6c0.1,3.3,5.9,6.2,11.9,6.1c6.5-0.1,11.7-4.2,13.4-11.5
					c0.1-0.5,0.2-1,0.3-1.4c0,0.3,0.1,0.6,0.1,0.9c0.3,2.4,1.1,4.6,2.5,6.5c0.7,1,2.2,1.6,2.2-0.4c0-0.8,0-3.2,0-5.1
					c2.2,0.6,4.8-0.8,6-3.4c0.2-0.4,0.3-0.9,0.4-1.3c0.4,2.7,1.7,4.8,4,5.1c1.8,0.2,3.7-0.5,4.8-2c0,0,0.1-0.1,0.1-0.2
					c0.2-0.3,0.4-0.5,0.5-0.8c0.8,1.7,2.4,3,4.3,3.2c1.4,0.1,2.8-0.3,3.9-1.3c0.6,0.9,1.5,1.6,2.6,1.9c2.6,0.7,5.3-0.4,6.6-2.8
					c0,0.2-0.1,0.5-0.2,0.8c-0.6,2.9,2.1,4.2,3.7,1.8s1.4-4.5,2.1-5.1s1.2,0.5,0.6,2.5s-2.4,6.3,0,5.7c1.9-0.5,4-3.3,5.1-6.1
					C161,35.3,160.6,32.4,158.5,31z M117.6,35c-0.2,1.3-1.7,2.3-1.9,1.3c0,0-0.1-1.6,0.7-2.2C117.1,33.5,117.7,34.3,117.6,35
					L117.6,35z M136,35.8c-0.6,0-1.1-0.6-1.1-1.4c0-0.8,0.4-1.4,1-1.4c0.6,0,1.1,0.6,1.1,1.4C137,35.2,136.6,35.8,136,35.8z
					 M144.8,35.5c-0.1,0.8-0.7,1.3-1.3,1.2c-0.6-0.2-1-0.9-0.8-1.6c0.1-0.8,0.7-1.3,1.3-1.2C144.7,34.2,145,34.9,144.8,35.5z"/>
			</g>
			<path id="_Path_2" class="st1" d="M118.2,42.4c7.4-0.7,14.9-0.8,22.4-0.1c9.3,1,10.3,2.2,10.6,2.6c0.4,0.6,0.1,2.6-3.7,1.6
				c-6.1-1.6-12.3-2.4-18.6-2.5c-7.9-0.2-9.4-0.1-10.7-0.1C117.1,44.1,116.7,42.8,118.2,42.4z"/>
			<path id="_Path_3" class="st2" d="M92.1,48.1c3.2,1.1,6.1,0.9,6.3,0.3s-2.7-0.3-5.9-1.4s-5.3-3.1-5.5-2.5S88.9,47,92.1,48.1z"/>
			<path id="_Path_4" class="st2" d="M147.8,44.1c-2-0.6-3.9-0.7-4-0.5s1.7,0.6,3.7,1.2c2,0.6,2.9,0.9,3,0.7S149.8,44.7,147.8,44.1z
				"/>
			<path id="_Path_5" class="st2" d="M124.2,24.4c-0.5,1.1-0.7,2.1-0.4,2.2c0.3,0.2,1-0.6,1.6-1.6c0.6-1.1,0.7-2.1,0.4-2.2
				S124.8,23.4,124.2,24.4z"/>
			<path id="_Path_6" class="st2" d="M158.4,32.3c-1.2-1-2.8-1.1-3.1-0.8c-0.2,0.3,1,0.8,2.2,1.8c1.2,1,1.8,2.2,2.1,1.9
				S159.5,33.3,158.4,32.3z"/>
			<path id="_Path_7" class="st2" d="M119.9,31.3c-1.3-1.2-3.4-1.1-3.7-0.8c-0.3,0.3,1.5,0.3,2.8,1.5c1.3,1.2,1.5,3.2,1.8,2.8
				C121.2,33.6,120.8,32.2,119.9,31.3z"/>
			<path id="_Path_8" class="st2" d="M138.5,29.9c-1.4-1-3.4-0.7-3.7-0.4s1.6,0.1,3,1.2c1.4,1.1,1.9,3,2.1,2.6
				C140.1,32,139.6,30.7,138.5,29.9z"/>
			<path id="_Path_9" class="st2" d="M146.6,31.1c-1.4-1-3.5-0.7-3.7-0.4s1.6,0.1,3,1.2c1.4,1,1.9,2.9,2.1,2.6
				C148.2,34.2,148,32.1,146.6,31.1z"/>
			<path id="_Path_10" class="st2" d="M102.7,30.6c-0.4-0.2-0.9-0.1-1,0.1c-0.1,0.2,0.2,0.5,0.6,0.7s0.8,0.2,0.9,0
				S103,30.8,102.7,30.6z"/>
			<path id="_Path_11" class="st2" d="M86.7,39.4c1.5,0,2.7-1.1,2.6-1.5c0-0.4-1.1,0.5-2.6,0.5c-1.5,0.1-2.8-0.7-2.8-0.3
				S85.2,39.4,86.7,39.4z"/>
			<path id="_Path_12" class="st2" d="M73.6,30.9c0.5,3.3,1.8,5.9,2.5,5.8c0.6-0.1-0.3-2.8-0.8-6.1s-0.4-5.9-1.1-5.8
				S73,27.6,73.6,30.9z"/>
			<path id="_Path_13" class="st2" d="M91.4,24.2c-0.5-0.7-1.4-1.1-2.2-1c-0.2,0.2,0.7,0.7,1.4,1.7c0.8,1,1.1,2,1.3,1.8
				C92.2,25.8,92,24.8,91.4,24.2z"/>
			<path id="_Path_14" class="st2" d="M130.4,33.8c-0.5-0.5-1.2-0.8-1.9-0.6c-0.2,0.2,0.6,0.5,1.3,1.2c0.7,0.7,1,1.5,1.2,1.3
				C131.2,35,131,34.3,130.4,33.8z"/>
			<path id="_Path_15" class="st2" d="M109.5,31c-0.4-0.5-1.1-0.8-1.8-0.7c-0.2,0.2,0.5,0.5,1.1,1.2c0.6,0.7,0.9,1.4,1,1.3
				C110.1,32.1,109.9,31.4,109.5,31z"/>
			<path id="_Path_16" class="st2" d="M98.6,31.4c-0.4-0.5-1.1-0.8-1.8-0.6c-0.2,0.1,0.5,0.5,1.1,1.2c0.6,0.7,0.9,1.4,1,1.2
				C99.2,32.6,99.1,31.9,98.6,31.4z"/>
			<path id="_Path_17" class="st2" d="M91.3,33c-0.3,0.9-0.2,2.1,0.1,2.2c0.2,0.1,0.2-0.8,0.6-1.7c0.4-0.9,0.9-1.6,0.7-1.6
				S91.7,32,91.3,33z"/>
			<g id="_Group_3">
				<path id="_Compound_Path_3" class="st0" d="M108.4,48.9c0-0.2,0.1-0.3,0.3-0.3c0,0,0,0,0,0c0.2,0,0.3,0.1,0.4,0.3c0,0,0,0,0,0
					l0,0c0,0.2-0.2,0.3-0.3,0.3c0,0,0,0,0,0C108.6,49.2,108.4,49.1,108.4,48.9C108.4,48.9,108.4,48.9,108.4,48.9z M108.4,49.7
					c0-0.2,0.2-0.3,0.4-0.3c0.1,0,0.2,0.1,0.3,0.3v1.6c0,0.2-0.1,0.3-0.3,0.4c-0.2,0-0.3-0.1-0.4-0.3c0,0,0-0.1,0-0.1V49.7z"/>
				<path id="_Compound_Path_4" class="st0" d="M109.5,49.7c0-0.2,0.2-0.3,0.4-0.3c0.1,0,0.2,0.1,0.3,0.3l0,0
					c0.1-0.2,0.4-0.4,0.7-0.4c0.4,0,0.7,0.3,0.8,0.7c0,0,0,0.1,0,0.1v1.1c0,0.2-0.1,0.3-0.3,0.4c-0.2,0-0.3-0.1-0.4-0.3
					c0,0,0-0.1,0-0.1v-1c0-0.3-0.1-0.5-0.4-0.5s-0.4,0.2-0.4,0.5v1c0,0.2-0.1,0.3-0.3,0.4c-0.2,0-0.3-0.1-0.4-0.3c0,0,0-0.1,0-0.1
					V49.7z"/>
				<path id="_Compound_Path_5" class="st0" d="M112.1,51v-1.1l0,0c-0.1,0-0.3-0.1-0.3-0.3s0.1-0.3,0.3-0.3l0,0v-0.3
					c0-0.2,0.2-0.3,0.4-0.3c0.1,0,0.2,0.1,0.3,0.3v0.3h0.3c0.1,0,0.3,0.1,0.3,0.3s-0.1,0.3-0.3,0.3h-0.3v1c0,0.1,0.1,0.2,0.2,0.2
					c0,0,0,0,0,0h0.1c0.1,0,0.3,0.1,0.3,0.3c0,0.1-0.1,0.2-0.2,0.2c-0.1,0-0.2,0.1-0.4,0.1C112.4,51.7,112.1,51.5,112.1,51z"/>
				<path id="_Compound_Path_6" class="st0" d="M114.6,51.7c-0.6,0-1.1-0.4-1.2-1.1c0,0,0-0.1,0-0.1l0,0c0-0.6,0.4-1.1,1.1-1.2
					c0,0,0,0,0,0c0.6,0,1.1,0.5,1.1,1c0,0,0,0,0,0c0,0.2-0.1,0.3-0.3,0.3c0,0,0,0,0,0h-1.2c0,0.3,0.3,0.5,0.5,0.4
					c0.2,0,0.3,0,0.4-0.1c0,0,0.1-0.1,0.2,0c0.1,0,0.2,0.1,0.2,0.2c0,0,0,0,0,0c0,0.1,0,0.1-0.1,0.2
					C115.2,51.6,114.9,51.7,114.6,51.7z M115,50.3c0-0.3-0.2-0.5-0.5-0.5c-0.3,0-0.5,0.2-0.5,0.5H115z"/>
				<path id="_Compound_Path_7" class="st0" d="M116,49.7c0-0.2,0.1-0.3,0.3-0.3c0.2,0,0.3,0.1,0.3,0.3c0,0,0,0,0,0v0.1
					c0.1-0.2,0.2-0.4,0.4-0.4c0.2,0,0.3,0.1,0.3,0.3c0,0,0,0,0,0c0,0.1-0.1,0.3-0.2,0.3c-0.3,0.1-0.5,0.3-0.5,0.8v0.5
					c0,0.2-0.1,0.3-0.3,0.3s-0.3-0.1-0.3-0.3V49.7z"/>
				<path id="_Compound_Path_8" class="st0" d="M117.4,51L117.4,51c0-0.5,0.4-0.7,0.9-0.7c0.2,0,0.4,0,0.5,0.1l0,0
					c0-0.3-0.2-0.4-0.5-0.4c-0.1,0-0.3,0-0.4,0.1h-0.1c-0.1,0-0.3-0.1-0.3-0.2c0,0,0,0,0,0c0-0.1,0.1-0.2,0.2-0.2
					c0.2-0.1,0.5-0.1,0.7-0.1c0.3,0,0.5,0.1,0.8,0.2c0.2,0.2,0.3,0.5,0.2,0.7v1c0,0.2-0.1,0.3-0.3,0.3l0,0c-0.2,0-0.3-0.1-0.3-0.3
					c0,0,0,0,0,0l0,0c-0.2,0.2-0.4,0.3-0.7,0.3C117.8,51.7,117.5,51.5,117.4,51C117.4,51.1,117.4,51,117.4,51z M118.9,50.9v-0.1
					c-0.1-0.1-0.3-0.1-0.4-0.1c-0.3,0-0.4,0.1-0.4,0.3l0,0c0,0.2,0.2,0.3,0.3,0.3S118.9,51.1,118.9,50.9z"/>
				<path id="_Compound_Path_9" class="st0" d="M119.8,50.5L119.8,50.5c0-0.6,0.5-1.1,1.1-1.2c0,0,0,0,0,0c0.3,0,0.6,0.1,0.8,0.2
					c0.1,0.1,0.1,0.1,0.1,0.2c0,0.2-0.1,0.3-0.3,0.3c-0.1,0-0.1,0-0.2-0.1c-0.1-0.1-0.3-0.1-0.4-0.1c-0.3,0-0.6,0.3-0.5,0.6
					c0,0,0,0,0,0l0,0c0,0.3,0.2,0.6,0.5,0.6c0,0,0,0,0,0c0.2,0,0.3-0.1,0.4-0.2c0.1,0,0.1-0.1,0.2-0.1c0.2,0,0.3,0.1,0.3,0.3
					c0,0.1,0,0.1-0.1,0.2c-0.2,0.2-0.5,0.3-0.8,0.3C120.3,51.7,119.8,51.2,119.8,50.5C119.8,50.6,119.8,50.6,119.8,50.5z"/>
				<path id="_Compound_Path_10" class="st0" d="M122.3,51v-1.1l0,0c-0.1,0-0.3-0.1-0.3-0.3s0.1-0.3,0.3-0.3l0,0v-0.3
					c0-0.2,0.2-0.3,0.4-0.3c0.1,0,0.2,0.1,0.3,0.3v0.3h0.3c0.1,0,0.3,0.1,0.3,0.3s-0.1,0.3-0.3,0.3h-0.3v1c0,0.1,0.1,0.2,0.2,0.2
					h0.1c0.1,0,0.3,0.1,0.3,0.3c0,0.1-0.1,0.2-0.2,0.2c-0.1,0-0.2,0.1-0.4,0.1C122.6,51.7,122.3,51.5,122.3,51z"/>
				<path id="_Compound_Path_11" class="st0" d="M123.8,48.9c0-0.2,0.1-0.3,0.3-0.3c0,0,0,0,0,0c0.2,0,0.3,0.1,0.4,0.3c0,0,0,0,0,0
					l0,0c0,0.2-0.2,0.3-0.3,0.3c0,0,0,0,0,0C124,49.2,123.8,49.1,123.8,48.9C123.8,48.9,123.8,48.9,123.8,48.9z M123.8,49.7
					c0-0.2,0.2-0.3,0.4-0.3c0.1,0,0.2,0.1,0.3,0.3v1.6c0,0.2-0.1,0.3-0.3,0.4c-0.2,0-0.3-0.1-0.4-0.3c0,0,0-0.1,0-0.1V49.7z"/>
				<path id="_Compound_Path_12" class="st0" d="M125.9,51.7L125.9,51.7c-0.2,0-0.3-0.1-0.3-0.3l-0.7-1.6c0-0.1,0-0.1,0-0.2
					c0-0.2,0.2-0.3,0.4-0.3c0.1,0,0.2,0.1,0.3,0.2l0.5,1.3l0.5-1.3c0-0.1,0.2-0.2,0.3-0.2c0.2,0,0.3,0.1,0.3,0.3c0,0,0,0.1,0,0.2
					l-0.7,1.6C126.3,51.6,126.1,51.7,125.9,51.7z"/>
				<path id="_Compound_Path_13" class="st0" d="M128.3,51.7c-0.6,0-1.1-0.4-1.2-1.1c0,0,0-0.1,0-0.1l0,0c0-0.6,0.4-1.1,1.1-1.2
					c0,0,0,0,0,0c0.6,0,1.1,0.5,1.1,1c0,0,0,0,0,0c0,0.2-0.1,0.3-0.3,0.3c0,0,0,0,0,0h-1.2c0,0.3,0.3,0.5,0.5,0.4
					c0.2,0,0.3,0,0.4-0.1c0,0,0.1-0.1,0.2,0c0.1,0,0.2,0.1,0.2,0.2c0,0,0,0,0,0c0,0.1,0,0.1-0.1,0.2
					C128.8,51.6,128.6,51.7,128.3,51.7z M128.7,50.3c0-0.3-0.2-0.5-0.5-0.5c-0.3,0-0.5,0.2-0.5,0.5H128.7z"/>
				<path id="_Compound_Path_14" class="st0" d="M130.8,49.7c0-0.2,0.2-0.3,0.4-0.3c0.1,0,0.2,0.1,0.3,0.3l0,0
					c0.2-0.2,0.4-0.4,0.7-0.4c0.6,0,1,0.5,1,1.1c0,0,0,0,0,0.1l0,0c0.1,0.5-0.3,1.1-0.8,1.1c-0.1,0-0.1,0-0.2,0
					c-0.3,0-0.5-0.1-0.7-0.3V52c0,0.2-0.2,0.3-0.4,0.3c-0.1,0-0.2-0.1-0.3-0.3V49.7z M132.5,50.5L132.5,50.5c0-0.3-0.2-0.6-0.5-0.6
					c-0.3,0-0.6,0.2-0.6,0.5c0,0,0,0.1,0,0.1l0,0c0,0.3,0.2,0.6,0.5,0.6s0.6-0.2,0.6-0.5C132.5,50.6,132.5,50.6,132.5,50.5z"/>
				<path id="_Compound_Path_15" class="st0" d="M133.4,51L133.4,51c0-0.5,0.4-0.7,0.9-0.7c0.2,0,0.4,0,0.5,0.1l0,0
					c0-0.3-0.2-0.4-0.5-0.4c-0.1,0-0.3,0-0.4,0.1h-0.1c-0.1,0-0.3-0.1-0.3-0.2c0,0,0,0,0,0c0-0.1,0.1-0.2,0.2-0.2
					c0.2-0.1,0.5-0.1,0.7-0.1c0.3,0,0.5,0.1,0.8,0.2c0.2,0.2,0.3,0.5,0.2,0.7v1c0,0.2-0.1,0.3-0.3,0.3c-0.2,0-0.3-0.1-0.3-0.3
					c0,0,0,0,0,0l0,0c-0.2,0.2-0.4,0.3-0.7,0.3c-0.4,0-0.7-0.2-0.8-0.6C133.4,51.1,133.4,51,133.4,51z M134.8,50.9v-0.1
					c-0.1-0.1-0.3-0.1-0.4-0.1c-0.3,0-0.4,0.1-0.4,0.3l0,0c0,0.2,0.1,0.3,0.4,0.3C134.6,51.2,134.8,51.1,134.8,50.9z"/>
				<path id="_Compound_Path_16" class="st0" d="M135.9,49.7c0-0.2,0.2-0.3,0.4-0.3c0.1,0,0.2,0.1,0.3,0.3v0.1
					c0.1-0.2,0.2-0.4,0.4-0.4c0.2,0,0.3,0.1,0.3,0.3c0,0,0,0,0,0c0,0.1-0.1,0.3-0.2,0.3c-0.3,0.1-0.5,0.3-0.5,0.8v0.5
					c0,0.2-0.1,0.3-0.3,0.4c-0.2,0-0.3-0.1-0.4-0.3c0,0,0-0.1,0-0.1V49.7z"/>
				<path id="_Compound_Path_17" class="st0" d="M137.6,51v-1.1l0,0c-0.1,0-0.3-0.1-0.3-0.3s0.1-0.3,0.3-0.3l0,0v-0.3
					c0-0.2,0.2-0.3,0.4-0.3c0.1,0,0.2,0.1,0.3,0.3v0.3h0.3c0.1,0,0.3,0.1,0.3,0.3s-0.1,0.3-0.3,0.3h-0.3v1c0,0.1,0.1,0.2,0.2,0.2
					h0.1c0.1,0,0.3,0.1,0.3,0.3v0c0,0.1-0.1,0.2-0.2,0.2c-0.1,0-0.2,0.1-0.4,0.1C137.9,51.7,137.6,51.5,137.6,51z"/>
				<path id="_Compound_Path_18" class="st0" d="M139.2,52.3c-0.1,0-0.2-0.1-0.2-0.3c0-0.1,0.1-0.3,0.2-0.3c0,0,0,0,0,0h0.1
					c0,0,0.1,0,0.1,0c0.1,0,0.2,0,0.2-0.1v0l-0.7-1.8c0,0,0-0.1,0-0.1c0-0.2,0.1-0.3,0.3-0.3c0,0,0,0,0,0c0.1,0,0.3,0.1,0.3,0.2
					l0.5,1.3l0.5-1.3c0-0.1,0.2-0.2,0.3-0.2c0.2,0,0.3,0.1,0.3,0.3c0,0,0,0,0,0c0,0,0,0.1,0,0.1l-0.8,1.9c-0.2,0.5-0.4,0.6-0.8,0.6
					C139.5,52.3,139.4,52.3,139.2,52.3z"/>
				<path id="_Compound_Path_19" class="st0" d="M142.6,49.7c0-0.2,0.2-0.3,0.4-0.3c0.1,0,0.2,0.1,0.3,0.3v0.1
					c0.1-0.2,0.2-0.4,0.4-0.4c0.2,0,0.3,0.1,0.3,0.3c0,0.2-0.1,0.3-0.3,0.3l0,0c-0.3,0.1-0.5,0.3-0.5,0.8v0.5c0,0.2-0.1,0.3-0.3,0.4
					s-0.3-0.1-0.4-0.3c0,0,0-0.1,0-0.1V49.7z"/>
				<path id="_Compound_Path_20" class="st0" d="M144.1,50.5L144.1,50.5c0-0.6,0.5-1.2,1.2-1.2c0,0,0,0,0,0c0.6,0,1.2,0.5,1.2,1.1
					c0,0,0,0,0,0l0,0c-0.1,0.7-0.6,1.2-1.3,1.1C144.6,51.6,144.1,51.1,144.1,50.5L144.1,50.5z M145.9,50.5L145.9,50.5
					c0-0.3-0.2-0.6-0.6-0.6c0,0,0,0,0,0c-0.3,0-0.6,0.2-0.6,0.6c0,0,0,0,0,0l0,0c0,0.3,0.2,0.6,0.6,0.6c0,0,0,0,0,0
					C145.6,51.1,145.9,50.9,145.9,50.5C145.9,50.6,145.9,50.5,145.9,50.5z"/>
				<path id="_Compound_Path_21" class="st0" d="M146.7,50.5L146.7,50.5c0.1-0.7,0.6-1.2,1.3-1.1c0.6,0.1,1,0.5,1.1,1.1l0,0
					c-0.1,0.7-0.6,1.2-1.3,1.1C147.3,51.6,146.8,51.1,146.7,50.5z M148.5,50.5L148.5,50.5c0-0.3-0.2-0.6-0.6-0.6c0,0,0,0,0,0
					c-0.3,0-0.6,0.2-0.6,0.6c0,0,0,0,0,0l0,0c0,0.3,0.2,0.6,0.6,0.6c0,0,0,0,0,0C148.3,51.1,148.5,50.9,148.5,50.5
					C148.5,50.6,148.5,50.5,148.5,50.5z"/>
				<path id="_Compound_Path_22" class="st0" d="M149.5,49.7c0-0.2,0.2-0.3,0.4-0.3c0.1,0,0.2,0.1,0.3,0.3l0,0
					c0.1-0.2,0.4-0.4,0.7-0.4c0.3,0,0.5,0.1,0.6,0.3c0.2-0.2,0.5-0.3,0.7-0.3c0.5,0,0.8,0.3,0.8,0.8v1.2c0,0.2-0.1,0.3-0.3,0.4
					c-0.2,0-0.3-0.1-0.4-0.3c0,0,0-0.1,0-0.1v-1c0-0.3-0.1-0.5-0.4-0.5s-0.4,0.2-0.4,0.5v1c0,0.2-0.1,0.3-0.3,0.4
					c-0.2,0-0.3-0.1-0.4-0.3c0,0,0-0.1,0-0.1v-1c0-0.3-0.1-0.5-0.4-0.5s-0.4,0.2-0.4,0.5v1c0,0.2-0.1,0.3-0.3,0.4s-0.3-0.1-0.4-0.3
					c0,0,0-0.1,0-0.1V49.7z"/>
			</g>
		</g>
	</g>
</g>
</svg>
