<?xml version="1.0" encoding="utf-8"?>
<!-- Generator: Adobe Illustrator 22.1.0, SVG Export Plug-In . SVG Version: 6.00 Build 0)  -->
<svg version="1.1" id="Layer_1" xmlns="http://www.w3.org/2000/svg" xmlns:xlink="http://www.w3.org/1999/xlink" x="0px" y="0px"
	 viewBox="0 0 233 73" style="enable-background:new 0 0 233 73;" xml:space="preserve">
<style type="text/css">
	.st0{fill:#3D3D3D;}
	.st1{fill:#E5E5E5;}
</style>
<title>Asset 17</title>
<g id="Layer_2_1_">
	<g id="Layer_1-2">
		<g id="_Group_">
			<g id="_Group_2">
				<path id="_Compound_Path_" class="st0" d="M130.5,45.8l4.9,0.9l-0.6,3.3l4.1,0.9l-3.4,2.6l1.8,3.8l-8.4-1.6l0.4-3.3
					c-1-0.1-2-0.3-2.9-0.3c-0.3,0-0.6,0.3-0.8,0.6c-2.8,2.5-5.6,5.1-8.3,7.5c-0.2,0.2-0.5,0.4-0.8,0.5c-3.2-2.4-6.2-5-8.9-8
					c-0.4-0.6-1.2-0.9-1.9-0.7c-0.7,0.2-1.5,0.2-2.4,0.3l0.4,3.3l-8.4,1.6l1.8-3.8l-3.4-2.6l4.1-0.9l-0.6-3.3l5.2-0.9
					c-0.4-1.6-0.8-3.2-1.1-4.7c-0.1-0.4-0.1-0.8,0-1.2c0.7-3.3,0.1-6.8-1.9-9.6l2.5-1.8l-3.6-3.8c-0.8,0.5-1.4,1.9-2.4,0.8
					c-1.2-1.3,0.7-1.8,1-2.7c-1.1-1.4-2.5-2.5-4.1-3.2c-1-0.5-1.1-0.7-0.4-1.6c0.5-0.6,1.1-1.2,1.7-1.7c0.6-0.5,1.2-0.5,1.5,0.4
					c0.7,1.8,1.9,3.3,3.5,4.4c0.2-0.4,0.5-0.8,0.8-1.2c0.3-0.5,0.9-0.6,1.4-0.3c0.1,0.1,0.1,0.1,0.2,0.2c0.4,0.3,0.5,1,0.2,1.4
					c-0.1,0.1-0.1,0.1-0.2,0.2c-0.3,0.3-0.6,0.5-0.9,0.7l3.7,3.4c0.1,0,0.2,0,0.2-0.1c1.2-1.7,2.8-1.9,4.7-1.7c0.7,0.1,1.4,0,2.3,0
					c-0.1-0.7-0.2-1.5-0.4-2.2c-0.5-1.5-0.2-2.4,1.3-3.3c0.9-0.7,1.7-1.4,2.4-2.2c0.2-0.2,0.4-0.3,0.4-0.5c0.1-0.7,0.2-1.4,0.3-2.1
					c0-0.4-0.1-0.8-0.2-1.2h2.8v3.5c0.6,0.5,1.3,1.2,2.1,1.9c0.4,0.3,0.7,0.6,1.2,0.8c1.1,0.5,1.7,1.8,1.3,2.9
					c-0.2,0.8-0.3,1.6-0.5,2.5c1.2,0,2.1,0.1,3.1,0c0.9-0.2,1.8,0.2,2.3,1c0.2,0.3,0.5,0.6,0.8,1l2-1.9l1.9-1.7
					c-0.3-0.4-0.8-0.6-0.9-1c-0.1-0.4-0.2-1.1,0.1-1.4c0.4-0.2,0.9-0.3,1.4-0.1c0.5,0.3,0.9,0.7,1.2,1.1c1.5-1.1,2.6-2.5,3.2-4.2
					c0.4-0.9,0.9-1,1.6-0.4c0.7,0.6,1.3,1.3,1.9,1.9c0.4,0.5,0.3,0.9-0.3,1.2c-1.8,0.7-3.4,2-4.6,3.6c0.4,0.2,0.8,0.5,1.2,0.8
					c0.5,0.3,0.6,0.9,0.3,1.4c0,0.1-0.1,0.1-0.2,0.2c-0.3,0.4-1,0.5-1.4,0.1c-0.1-0.1-0.1-0.1-0.2-0.2c-0.3-0.2-0.5-0.5-0.8-0.8
					l-3.6,3.8l2.4,2.1c-0.2,0.4-0.3,0.6-0.5,0.9c-1.3,2.2-1.8,4.9-1.4,7.5c0.3,2.1,0.1,4.2-0.8,6.2L130.5,45.8z M118.4,29l1-1.3
					l0.3,1.1c0.1-0.3,0.2-0.4,0.2-0.5c-0.2-0.9,0.2-1.9,1.1-2.3c0.2-0.3,0.3-0.6,0.3-1c0-0.2-0.5-0.3-0.9-0.5
					c0.2-0.1,0.4-0.1,0.6-0.2c0.5,0.1,1-0.3,1-0.8c0-0.1,0-0.3,0-0.4c-0.4-0.6-0.1-0.8,0.1-1.2c0.8-1.9,0.2-3.1-1.8-3.5
					c-0.7-0.1-1.4,0.1-1.9,0.5c-0.9,0.7-2.2,0.7-3-0.2c-0.8-0.5-1.3-1.3-2.5-0.3s-1.7,1.7-1.2,3.2c0.2,0.3,0.2,0.6,0.3,0.9
					c-0.2,1.4,0,1.6,1.3,1.9c-0.9,0.4-1,1.2-0.2,1.7c0.7,0.3,1,1.1,0.9,1.8c0,0.2,0.1,0.3,0.2,0.6l0.3-0.9l0.9,1.2l0.4-0.8l0.6,0.7
					l0.4-0.6l1.4,0.4c-0.4,0.5-0.8,0.8-1.1,0.3l-2.5,0.1l-0.1,0.4l-0.3,0.1c-0.2-0.6-0.4-1.1-0.6-1.7c-0.1-0.3,0-0.7-0.2-0.8
					c-0.8-0.6-1.5-1.6-2.8-1.3c-0.5,0.1-1,0.1-1.5,0c-0.7-0.1-1.3,0.2-1.8,0.7c-1.4,1.4-2.8,2.8-4.2,4.2c-0.5,0.3-0.6,0.9-0.3,1.4
					c0,0,0,0,0,0.1c1.3,2.2,1.7,4.8,1.3,7.3c-0.3,1.6-0.1,3.3,0.5,4.9c0.3,1,0.9,1.1,1.8,1.1c3.5-0.2,7-0.5,10.5-0.5
					c2.7,0,5.5,0.2,8.2,0.3c0.4,0,0.8,0,1.1-0.3c0.5-0.6,1-1.3,1.5-2l-0.8-0.1c-0.1-0.6-0.3-1.2-0.4-1.8c0-0.1-0.7-0.1-0.8,0
					c-0.2,0.6-0.4,1.2-0.5,1.8l-1.6-0.1c1.5-1.2,1.5-2.9,2.1-4.4h1.3l1,3.6l0.4-0.1c0-0.5,0.1-1.1,0.1-1.7c0-2.4-0.2-4.8-0.1-7.1
					c0.1-0.9-0.3-1.7-1.1-2.2c-1.2-1-2.4-2-3.6-3c-0.3-0.3-0.6-0.6-1-0.9c-1.5-1-1.9-0.4-2.4,1c0,0.2,0,0.4-0.1,0.5
					c-0.2,0.4-0.5,0.8-0.6,1L118.4,29z M110.2,51.7l-0.2,0.4l6.2,5.4c2-1.8,4-3.4,5.5-5.8H110.2z M114.9,17l-0.1,0.3
					c0.7,0.4,1.5,1.2,2.2,1.2c0.7,0,1.3-0.8,2.1-1.4H114.9z M130.2,27.5c0.5-0.5,1-1,1.5-1.5c0.1-0.2,0-0.6,0-0.9
					c-0.3,0-0.7-0.1-0.9,0c-0.5,0.4-1.1,0.9-1.6,1.3L130.2,27.5z M103.7,26.5c-0.6-0.5-1-1-1.5-1.4c-0.2-0.1-0.7-0.1-0.8,0
					c-0.1,0.3-0.2,0.6-0.1,0.8c0.4,0.6,0.8,1.1,1.2,1.6L103.7,26.5z M117.5,14.8c-0.5-0.3-0.8-0.6-1-0.6c-0.2,0-0.5,0.3-0.8,0.5
					c0.2,0.2,0.5,0.6,0.7,0.7C116.7,15.6,117,15.2,117.5,14.8z"/>
				<path id="_Compound_Path_2" class="st0" d="M115.6,42.7c0.8-1.3,0.7-3-0.1-4.3c0.2-0.1,0.4-0.1,0.5-0.2c2,0,3.9,0,5.9,0.1
					c1.4,0.1,2.4,0.7,2.4,1.6c0.1,1.4-0.9,2.6-2.3,2.8c-0.7,0.2-1.5,0.2-2.3,0.1c-0.6-0.3-1.2-0.7-1.6-1.2c-0.3-0.3-0.6-0.7-0.8-1.1
					l-0.3,0.1l0.2,2L115.6,42.7z M120.7,39V42c2,0,2.6-0.3,2.6-1.6C123.4,39.2,122.8,38.9,120.7,39z M119.7,41.8l-0.2-3l-0.2,0.1
					l-0.7,1.9c0.1,0.2,0.3,0.4,0.5,0.6C119.3,41.5,119.5,41.7,119.7,41.8L119.7,41.8z M117.1,39.9l0.4,0.2l0.5-0.9l-0.7-0.2
					L117.1,39.9z"/>
				<path id="_Path_" class="st0" d="M111.5,36.5c1-1.5,0.9-4.4-0.1-5.3h2.8c-1.1,0.7-0.8,1.6-0.7,2.5c0.1,0.7,0,1.5,0,2.2
					c1.4,0.2,2.8-0.8,3-2.2c0,0,0,0,0,0c0.1-0.4,0.4-0.8,0.5-1.2c0.1-0.4,0.2-0.8,0.2-1.3h1.4c0.2,0.8,0.3,1.6,0.6,2.4
					c0.3,0.7,0.6,1.4,0.9,2.1h-1.6c-0.1-0.6-0.2-1.1-0.3-1.7c0-0.1-0.8-0.1-0.9,0c-0.2,0.5-0.3,1.1-0.4,1.7l-1,0.1
					c-0.1,0.7-0.1,1.4-1.3,0.9C113.6,36.3,112.5,36.3,111.5,36.5z"/>
				<path id="_Path_2" class="st0" d="M107.5,38.3l-0.2,1.5h2.1l-0.3-1.5h1.7c-0.6,1.4-0.7,3-0.1,4.3h-1.9l0.9-1.9
					c-0.7,0-1-0.1-1.3-0.1c-0.3,0-1.1-0.1-1.1,0.1c-0.3,0.5-0.1,1.2,0.4,1.5c0,0,0.1,0,0.1,0c0,0,0,0.1,0.1,0.3h-2.2
					c0.7-1.4,0.7-3,0-4.3H107.5z"/>
				<path id="_Compound_Path_3" class="st0" d="M113.4,38.2c1.5,0,2.4,0.9,2.4,2.2c-0.1,1.4-1.2,2.4-2.6,2.3c0,0-0.1,0-0.1,0
					c-1.3,0.1-2.4-0.8-2.5-2c0-0.1,0-0.1,0-0.2C110.7,39.1,112,38.1,113.4,38.2z M113.3,42.1c0.8,0.1,1.5-0.5,1.6-1.3
					c0,0,0-0.1,0-0.1c0.1-0.9-0.6-1.7-1.6-1.8c0,0,0,0-0.1,0c-0.8,0-1.5,0.6-1.6,1.4c0,0.1,0,0.1,0,0.2
					C111.6,41.5,112.1,42.1,113.3,42.1L113.3,42.1z"/>
				<path id="_Path_3" class="st0" d="M115.5,23.6c-2.5,0-2.9-1.8-3.1-3.7C114.1,19.1,115.6,20.8,115.5,23.6z"/>
				<path id="_Path_4" class="st0" d="M121.3,19.8c-0.1,1.3-0.1,2.6-1.4,3.4c-0.5,0.2-1.1,0.4-1.7,0.5
					C118,21.1,119.4,19.4,121.3,19.8z"/>
				<path id="_Path_5" class="st0" d="M116.8,24.2l1.4,2.1h-2.8L116.8,24.2z"/>
			</g>
			<g id="_Group_3">
				<path id="_Compound_Path_4" class="st1" d="M105.6,47.8l0.1,0.6v0.1c0,0,0,0.1-0.1,0.1c0,0-0.1,0-0.1-0.1
					c-0.1-0.2-0.2-0.4-0.4-0.5c-0.2-0.1-0.4-0.2-0.6-0.2c-0.3,0-0.5,0.1-0.6,0.3c-0.3,0.5-0.3,1.2,0,1.7c0.1,0.2,0.4,0.3,0.6,0.3
					c0.1,0,0.2,0,0.3-0.1c0.1,0,0.2-0.1,0.2-0.2c0-0.1,0-0.1,0-0.2c0-0.1,0-0.3,0-0.4c0,0,0-0.1-0.1-0.1c-0.1,0-0.2,0-0.2-0.1
					c0,0-0.1,0-0.1-0.1c0-0.1,0-0.1,0.1-0.1h0.3h0.9h0.1l0,0h-0.2c-0.1,0-0.1,0-0.1,0.1c0,0.2-0.1,0.4-0.1,0.6c0,0.1,0,0.1,0,0.1
					c-0.1,0.1-0.1,0.1-0.2,0.1c-0.1,0.1-0.3,0.1-0.5,0.2c-0.2,0-0.3,0.1-0.5,0.1c-0.2,0-0.5-0.1-0.7-0.2c-0.2-0.1-0.4-0.3-0.5-0.4
					c-0.1-0.2-0.2-0.4-0.2-0.7c0-0.4,0.1-0.7,0.4-1c0.3-0.3,0.6-0.4,1-0.4c0.1,0,0.3,0,0.4,0.1c0.1,0,0.3,0.1,0.4,0.2h0.1
					c0,0,0,0,0.1-0.1c0.1-0.1,0.1-0.1,0.1-0.1S105.6,47.7,105.6,47.8z"/>
				<path id="_Compound_Path_5" class="st1" d="M107.3,47.1h0.1c0.2,0.4,0.4,0.9,0.7,1.7c0.1,0.2,0.2,0.4,0.3,0.7
					c0.1,0.1,0.2,0.1,0.3,0.1h0.1c0,0,0,0.1-0.1,0.1h-0.2h-0.9c0,0-0.1,0-0.1-0.1c0,0,0,0,0.1,0s0.2-0.1,0.2-0.2
					c0-0.1,0-0.2-0.1-0.3c0-0.1-0.1-0.3-0.1-0.4h-0.8c-0.1,0.2-0.1,0.4-0.2,0.6c0,0.1,0,0.1,0.1,0.2c0.1,0,0.1,0.1,0.2,0.1
					c0,0,0.1,0,0.1,0.1c0,0.1,0,0-0.1,0h-0.4c-0.1,0-0.2,0-0.3,0h-0.1c-0.1,0-0.1,0-0.1-0.1c0-0.1,0,0,0-0.1c0.1,0,0.1,0,0.2-0.1
					c0.1-0.1,0.1-0.1,0.1-0.2c0.1-0.1,0.1-0.3,0.2-0.4C106.8,48.5,107,47.8,107.3,47.1z M107.2,47.8l-0.3,0.9h0.7
					c0-0.1-0.1-0.2-0.2-0.4L107.2,47.8z"/>
				<path id="_Compound_Path_6" class="st1" d="M109.8,47c0.1,0.1,0.1,0.3,0.2,0.4c0.1,0.2,0.2,0.3,0.3,0.5c0.1,0.2,0.2,0.3,0.3,0.5
					c0.1,0.1,0.1,0.2,0.2,0.3c0.3-0.7,0.5-1.3,0.7-1.8c0.3,0,0.6,0,0.9-0.1l0,0c0,0,0.1,0,0.1,0c0,0,0,0.1,0,0.1c0,0,0,0,0,0
					c-0.1,0-0.2,0.1-0.3,0.2c0,0.2,0,0.5,0,0.7v1c0,0.1,0,0.3,0.1,0.4c0.1,0.1,0.2,0.1,0.3,0.1c0,0,0.1,0,0.1,0.1l0,0h-0.5h-0.7
					c0,0,0,0,0-0.1c0,0,0,0,0.1-0.1c0.1,0,0.1,0,0.1-0.1c0,0,0.1-0.1,0.1-0.1c0-0.1,0-0.2,0-0.3V48c0-0.5,0-0.7,0-0.8l-0.6,1.6
					l-0.2,0.5c0,0.1,0,0.1-0.1,0.1c-0.1,0-0.1,0-0.1-0.1s-0.5-0.8-1.1-1.9c0,0.3,0,0.8,0,1.3c0,0.2,0,0.4,0.1,0.5
					c0,0.1,0.1,0.1,0.3,0.1c0.1,0,0.1,0,0.1,0.1c0,0,0,0-0.1,0s0,0-0.1,0h-0.3h-0.4l0,0c0,0-0.1,0-0.1,0l0,0h0.1
					c0.1,0,0.2-0.1,0.2-0.1c0-0.1,0-0.2,0-0.3v-1.1c0-0.2,0-0.3,0-0.5c0-0.1,0-0.1-0.1-0.2c-0.1,0-0.2-0.1-0.2-0.1
					c0,0-0.1,0-0.1-0.1c0,0,0-0.1,0.1-0.1l0,0C109.1,47,109.4,47,109.8,47z"/>
				<path id="_Compound_Path_7" class="st1" d="M114.7,46.8c0,0.2,0.1,0.4,0.1,0.6v0.1c0,0,0,0-0.1,0c-0.1-0.1-0.2-0.3-0.4-0.4
					c-0.2-0.1-0.3-0.1-0.5-0.1h-0.3c0,0.2,0,0.5,0,0.8c0,0.1,0,0.1,0,0.2h0.2c0.1,0,0.2,0,0.2-0.1c0.1,0,0.1-0.1,0.2-0.2l0.1-0.2
					c0,0,0-0.1,0.1-0.1 M114.3,47.6L114.3,47.6c0,0.2,0,0.5,0,0.7c0,0,0,0.1,0,0.2l0,0c0,0,0,0-0.1,0c-0.1,0-0.1,0-0.1-0.1
					c0-0.1-0.1-0.1-0.2-0.1c-0.1-0.1-0.3-0.1-0.4-0.1c0,0.2,0,0.4,0,0.4c0,0.3,0,0.5,0,0.5c0,0.1,0.1,0.1,0.1,0.1c0.1,0,0.2,0,0.3,0
					c0.4,0.1,0.8-0.2,1-0.5c0,0,0-0.1,0.1-0.1c0.1,0,0.1,0,0.1,0c0,0,0,0.1,0,0.1l-0.1,0.6h-0.7h-0.9c-0.2,0-0.3,0-0.5,0h-0.1
					c-0.1,0-0.1,0-0.1-0.1c0,0,0-0.1,0.1-0.1c0.1,0,0.2,0,0.2-0.1c0-0.1,0-0.2,0-0.2v-1c0-0.3,0-0.6,0-0.6c0-0.1,0-0.1-0.1-0.2
					c-0.1,0-0.1-0.1-0.2-0.1c0,0-0.1,0-0.1-0.1c0,0,0-0.1,0.1-0.1h0.5L114.3,47.6z"/>
				<path id="_Compound_Path_8" class="st1" d="M117.7,46.8c0.2,0,0.5,0,0.7,0.2c0.2,0.1,0.4,0.3,0.5,0.4c0.1,0.2,0.2,0.4,0.2,0.7
					c0,0.4-0.1,0.7-0.4,1c-0.5,0.5-1.4,0.5-1.9,0.1c-0.3-0.2-0.4-0.6-0.4-0.9c0-0.4,0.1-0.7,0.4-1C117,47,117.4,46.8,117.7,46.8z
					 M118.4,48.1c0-0.3,0-0.6-0.2-0.9c-0.2-0.3-0.5-0.4-0.8-0.2c-0.1,0.1-0.2,0.1-0.2,0.2c-0.2,0.3-0.2,0.6-0.2,0.9
					c0,0.3,0,0.6,0.2,0.9c0.1,0.2,0.3,0.3,0.5,0.3c0.2,0,0.4-0.1,0.5-0.3C118.4,48.7,118.4,48.4,118.4,48.1z"/>
				<path id="_Compound_Path_9" class="st1" d="M120.7,48.2c0.2,0,0.3,0.1,0.4,0.2c0.1,0.1,0.2,0.3,0.2,0.5c0,0.2,0.1,0.3,0.2,0.5
					c0.1,0.1,0.2,0.1,0.2,0.1c0.1,0,0.1,0,0.1,0.1c0,0.1-0.1,0.1-0.2,0l-0.7-0.1c-0.1-0.1-0.1-0.3-0.1-0.4c0-0.2,0-0.4-0.1-0.5
					c0-0.1-0.1-0.2-0.2-0.2c-0.1,0-0.2-0.1-0.3-0.1h-0.1c0,0.5,0,0.7,0,0.8c0,0.1,0,0.2,0.1,0.2c0,0,0.1,0.1,0.2,0.1s0.1,0,0.1,0.1
					s0,0-0.1,0h-0.6h-0.5c0,0-0.1,0-0.1-0.1c0-0.1,0,0,0.1,0c0.1,0,0.1,0,0.2,0c0.1,0,0.1-0.2,0.1-0.5v-0.4v-0.7c0-0.2,0-0.4,0-0.7
					c0-0.1-0.1-0.1-0.2-0.1c-0.1,0-0.1,0-0.1-0.1c0-0.1,0,0,0.1,0c0.4,0,0.7,0,0.9,0c0.1,0,0.2,0,0.3,0c0.2,0,0.5,0.1,0.7,0.2
					c0.2,0.1,0.2,0.3,0.2,0.5c0,0.1-0.1,0.2-0.1,0.3c-0.1,0.1-0.2,0.2-0.3,0.2C121,48.2,120.9,48.2,120.7,48.2z M120.2,48.1
					L120.2,48.1c0.2,0,0.3,0,0.4,0c0.1,0,0.2-0.1,0.2-0.2c0.1-0.1,0.1-0.2,0.1-0.3c0-0.1,0-0.3-0.1-0.4c-0.1-0.1-0.2-0.2-0.4-0.2
					c-0.1,0-0.1,0-0.2,0L120.2,48.1z"/>
				<path id="_Compound_Path_10" class="st1" d="M124.6,49.5h-0.7h-0.8l0,0c0,0,0,0,0.1,0c0.1,0,0.2,0,0.2-0.1
					c0.1,0,0.1-0.1,0.1-0.2c0-0.1,0-0.3,0-0.6s0-0.6,0-0.8c0-0.2,0-0.4-0.1-0.6c0-0.1-0.1-0.1-0.2-0.1c-0.1,0-0.1,0-0.1-0.1
					c0-0.1,0,0,0.1,0h0.2h0.3h0.7c0.2,0,0.5,0,0.7,0.1c0.2,0.1,0.4,0.3,0.5,0.5c0.1,0.2,0.2,0.5,0.2,0.7c0,0.2,0,0.4-0.1,0.6
					c-0.1,0.2-0.2,0.3-0.3,0.4c-0.1,0.1-0.3,0.2-0.4,0.2C124.9,49.6,124.7,49.6,124.6,49.5z M124.4,49.4c0.2,0,0.5-0.1,0.6-0.3
					c0.2-0.2,0.3-0.5,0.2-0.8c0-0.3-0.1-0.6-0.3-0.9c-0.2-0.2-0.4-0.4-0.7-0.3c-0.1,0-0.1,0-0.2,0l0,0c0,0,0,0.2,0,0.4l-0.1,0.7
					c0,0.2,0,0.4,0,0.6c0,0.1,0,0.2,0,0.4c0,0.1,0,0.1,0.1,0.2C124.2,49.4,124.3,49.4,124.4,49.4z"/>
				<path id="_Compound_Path_11" class="st1" d="M126.3,47h0.3h0.3h0.6c0,0,0.1,0,0.1,0.1c0,0,0,0-0.1,0c-0.1,0-0.1,0-0.2,0
					c-0.1,0.1-0.1,0.1-0.1,0.2c0,0.2-0.1,0.4-0.1,0.7c0,0.4-0.1,0.7-0.1,0.9c0,0.1,0,0.3,0,0.4c0,0.1,0.1,0.1,0.2,0.1
					c0.1,0,0.1,0,0.1,0.1c0,0.1,0,0.1-0.1,0.1h-0.1c-0.2,0-0.4-0.1-0.5-0.1c-0.1,0-0.3,0-0.4,0h-0.1c0,0-0.1,0-0.1-0.1
					c0-0.1,0,0,0.1,0c0.1,0,0.2,0,0.2-0.1c0.1-0.1,0.1-0.2,0.1-0.3c0-0.2,0.1-0.5,0.1-0.8c0-0.3,0-0.5,0-0.8c0-0.1,0-0.2,0-0.3
					C126.4,47.1,126.3,47,126.3,47c-0.1,0-0.1,0-0.1-0.1S126.3,47,126.3,47z"/>
				<path id="_Compound_Path_12" class="st1" d="M130.1,47.5c0,0.2,0,0.4,0,0.6c0,0,0,0-0.1,0c0,0,0,0-0.1-0.1
					c-0.1-0.2-0.2-0.3-0.3-0.4c-0.1-0.1-0.3-0.1-0.5-0.2c-0.1,0-0.2,0-0.3,0c-0.1,0.2-0.1,0.5-0.1,0.7c0,0.1,0,0.2,0,0.2h0.2
					c0.1,0,0.2,0,0.2,0c0.1,0,0.1-0.1,0.2-0.1l0.1-0.2c0,0,0-0.1,0.1,0c0.1,0.1,0.1,0,0.1,0l0,0c0,0.1-0.1,0.3-0.1,0.7
					c0,0,0,0.1,0,0.2l0,0c0,0,0,0-0.1,0c-0.1,0,0,0,0-0.1c0-0.1-0.1-0.2-0.1-0.3c-0.1-0.1-0.3-0.1-0.4-0.2c0,0.2,0,0.4-0.1,0.4
					c0,0.2,0,0.3,0,0.5c0,0.1,0,0.1,0.1,0.2c0.1,0.1,0.2,0.1,0.3,0.1c0.4,0.1,0.8,0,1-0.3c0,0,0.1-0.1,0.1-0.1s0.1,0,0,0.1
					c0,0,0,0,0,0.1l-0.2,0.5l-0.7-0.1l-0.5-0.1l-0.4-0.1h-0.5h-0.1c-0.1,0-0.1,0-0.1-0.1s0,0,0.1,0s0.2,0,0.3-0.1
					c0.1-0.1,0.1-0.3,0.1-0.4l0.1-1c0-0.2,0.1-0.4,0.1-0.6c0-0.1,0-0.1,0-0.2c-0.1,0-0.1-0.1-0.2-0.1c0,0-0.1,0-0.1-0.1
					c0-0.1,0-0.1,0.1-0.1l0.5,0.1L130.1,47.5z"/>
			</g>
		</g>
	</g>
</g>
</svg>
