<?xml version="1.0" encoding="utf-8"?>
<!-- Generator: Adobe Illustrator 22.1.0, SVG Export Plug-In . SVG Version: 6.00 Build 0)  -->
<svg version="1.1" id="Layer_1" xmlns="http://www.w3.org/2000/svg" xmlns:xlink="http://www.w3.org/1999/xlink" x="0px" y="0px"
	 viewBox="0 0 233 73" style="enable-background:new 0 0 233 73;" xml:space="preserve">
<style type="text/css">
	.st0{fill:#3D3D3D;}
	.st1{fill:#7D7D7D;}
</style>
<title>Asset 47</title>
<g id="Layer_2_1_">
	<g id="Layer_1-2">
		<g id="_Group_">
			<path id="_Compound_Path_" class="st0" d="M116.5,61.3H92c-0.2,0-0.2,0-0.2-0.2c0-16.4,0-32.7,0-49.1c0-0.2,0-0.2,0.2-0.2H141
				c0.2,0,0.2,0,0.2,0.2c0,16.4,0,32.7,0,49.1c0,0.2,0,0.2-0.2,0.2L116.5,61.3z M117.9,23.9c-0.9,0.5-1.6,1.2-2.2,1.9
				c-0.2,0.2-0.2,0.2-0.4,0c-0.4-0.5-0.9-1-1.4-1.4c-0.6-0.5-1.4-0.9-2.2-1.2c0.1-0.1,0.1-0.2,0.1-0.3c0-2,0-4,0-6
				c0-0.2,0.1-0.3,0.3-0.3h2c0.2,0,0.2-0.1,0.2-0.3c0-0.7,0-1.3,0-2c0-0.2-0.1-0.3-0.3-0.3h-7.4c-0.2,0-0.3,0.1-0.3,0.2
				c0,0.6,0,1.3,0,1.9c0,0.3,0.1,0.3,0.3,0.3h2.2c0.2,0,0.2,0,0.2,0.2c0,0.2,0,0.6,0,0.9v11c0,0.2,0,0.3,0.3,0.3c0.6,0,1.2,0,1.8,0
				c0.2,0,0.4,0,0.6,0c0.1,0,0.2,0.1,0.2,0.2c0.2,0.5,0.4,1,0.5,1.4c0.2,0.7,0.2,1.4-0.1,2.1c-0.2,0.6-0.5,1.2-0.7,1.7
				c-0.2,0.5-0.4,1-0.6,1.5c-0.3,0.8-0.5,1.5-0.7,2.2c-0.1,0.3-0.2,0.6-0.3,1c-0.2,0.8-0.3,1.7-0.4,2.6c-0.5,0-1,0-1.4,0
				c-0.4,0-0.4,0-0.4-0.4c0-3.7,0-7.4,0-11.1c0-0.2-0.1-0.3-0.3-0.3h-2.4c-0.1,0-0.2,0-0.2,0.2v13.5c0,0.3,0,0.3,0.3,0.3h4.5
				c0.1,0.3,0.1,0.7,0.1,1h-0.4c-1.2-0.2-2.4-0.2-3.6,0c-0.4,0.1-0.4,0.1-0.4,0.5c0,4.7,0,9.4,0,14.1c0,0.2,0.1,0.3,0.3,0.3
				c0.7,0,1.3,0,2,0c0.3,0,0.3-0.1,0.3-0.3c0-1.8,0-3.5,0-5.3V54c0-0.1,0-0.1,0.1-0.1c0.3-0.1,0.6-0.1,0.9,0
				c0.6,0.2,1.1,0.7,1.2,1.3c0.2,0.8,0.4,1.6,0.4,2.4c0.1,0.8,0.3,1.5,0.5,2.2c0,0.1,0.1,0.2,0.3,0.2h2.1c0.2,0,0.2-0.1,0.2-0.3
				c-0.1-0.4-0.2-0.7-0.3-1.1c-0.3-1.1-0.3-2.2-0.6-3.3c-0.1-1-0.7-1.8-1.5-2.3c-0.1,0-0.1-0.1,0-0.2l0.5-0.3
				c0.1,0.1,0.2,0.1,0.2,0.2c0,0.2,0.1,0.4,0.2,0.7c0,0.1,0.1,0.2,0.3,0.2c0.3,0,0.7,0.1,1,0.1c0.5,0,1,0,1.5,0.1c0,0.1,0,0.3,0,0.4
				v5.6c0,0.2,0,0.3,0.2,0.3h6.2c0.2,0,0.2-0.1,0.2-0.2c0-0.6,0-1.2,0-1.8c0-0.2-0.1-0.3-0.3-0.3h-3.3c-0.2,0-0.3-0.1-0.3-0.3
				c0-0.2,0-0.6,0-0.8c0-1,0-2,0-2.9c0.1-0.1,0.2,0,0.3-0.1s0.3,0,0.4-0.1h2.3c0.2,0,0.2-0.1,0.2-0.3c0-0.6,0-1.2,0-1.8
				c0-0.2-0.1-0.3-0.3-0.3h-1.6c0-0.1,0-0.1,0-0.2c0.2-0.7,0.4-1.4,0.6-2.1c0.1-0.4,0.2-0.9,0.3-1.3h1c0.2,0,0.2,0,0.2-0.2v-2
				c0-0.2-0.1-0.2-0.2-0.2h-0.6c0-0.4,0-0.8,0.1-1.2c0.1-1.2,0.1-2.5-0.1-3.7c-0.2-1.1-0.4-2.1-0.7-3.1c-0.3-1.1-0.8-2.2-1.2-3.3
				c-0.3-0.6-0.5-1.3-0.5-2c0.1-0.9,0.4-1.8,0.8-2.6h1.1c0.4,0,0.4,0,0.4-0.4V16.9c0-0.2,0.1-0.3,0.3-0.3c0.7,0,1.3,0,2,0
				c0.2,0,0.3-0.1,0.3-0.3c0-0.6,0-1.3,0-1.9c0-0.2-0.1-0.3-0.3-0.3h-7.5c-0.2,0-0.3,0.1-0.3,0.3c0,0.7,0,1.3,0,2
				c0,0.2,0.1,0.2,0.2,0.2c0.8,0,1.5,0,2.2,0c0.2,0,0.3,0.1,0.3,0.3c0,2.2,0,4.4,0,6.6C117.9,23.7,117.9,23.8,117.9,23.9z
				 M101.8,36.6c0-0.1,0.1-0.1,0.2-0.1c1.6-0.7,2.3-2.6,1.6-4.2c-0.5-1.1-1.5-1.8-2.7-2c-1.6-0.3-3.2-0.3-4.9,0
				c-0.4,0.1-0.4,0.1-0.4,0.5c0,4.3,0,8.7,0,13c0,0.2,0.1,0.3,0.3,0.3c1.5,0.2,2.9,0.2,4.4,0c0.8-0.1,1.7-0.4,2.4-0.9
				c0.8-0.6,1.3-1.5,1.5-2.5c0.4-1.7-0.6-3.4-2.2-4C101.9,36.7,101.8,36.7,101.8,36.6z M95.6,52.7c0,2.3,0,4.6,0,6.9
				c0,0.2,0.1,0.3,0.3,0.4c1.1,0.1,2.1,0.2,3.2,0.1c0.9-0.1,1.8-0.4,2.6-0.8c1-0.6,1.8-1.6,2.2-2.7c0.4-1.1,0.6-2.3,0.7-3.5
				c0.1-1.5-0.1-3-0.6-4.5c-0.6-1.8-2.2-3.2-4.1-3.4c-1.3-0.2-2.7-0.1-4.1,0.2c-0.2,0-0.2,0.2-0.2,0.4V52.7z M132.2,36.2
				c-0.1-0.1-0.1-0.2-0.1-0.3c0-1.9,0-3.7,0-5.6c0-0.2-0.1-0.3-0.3-0.2c-0.8,0-1.6,0-2.4,0c-0.2,0-0.3,0-0.3,0.3c0,4.4,0,8.9,0,13.3
				c0,0.2,0.1,0.3,0.3,0.3h2.4c0.4,0,0.4,0,0.4-0.3v-4.2c0-0.1,0-0.3,0.1-0.4c0.2-0.2,0.3-0.4,0.5-0.7c0.2-0.2,0.1-0.1,0.2,0
				c0.1,0.1,0.1,0.3,0.2,0.5c0.6,1.6,1.2,3.2,1.8,4.8c0,0.1,0.2,0.2,0.3,0.2c0.2,0,0.5,0,0.7,0c0.6,0,1.1,0,1.7,0s0.4,0,0.3-0.4
				l-3.3-7c-0.1-0.1-0.1-0.3,0-0.5l3.2-5.8C138,30,138,30,137.7,30c-0.8,0-1.6,0-2.4,0c-0.2,0-0.4,0.1-0.5,0.3
				C134,32.3,133.1,34.2,132.2,36.2z M131.3,21.5L131.3,21.5v7.1c0,0.2,0,0.3,0.2,0.3h6.2c0.2,0,0.3-0.1,0.2-0.2c0-0.6,0-1.3,0-1.9
				c0-0.2-0.1-0.3-0.3-0.3h-3.3c-0.2,0-0.3-0.1-0.3-0.3c0-1.2,0-2.4,0-3.6c0-0.2,0.1-0.3,0.3-0.3h2.6c0.2,0,0.3-0.1,0.3-0.3
				c0-0.6,0-1.2,0-1.7c0-0.2-0.1-0.3-0.3-0.3h-2.7c-0.1,0-0.2,0-0.2-0.2c0-1.1,0-2.1,0-3.2c0-0.1,0.1-0.2,0.2-0.2h3.1
				c0.2,0,0.3-0.1,0.3-0.3c0-0.6,0-1.2,0-1.8c0-0.3-0.1-0.3-0.3-0.3h-5.6c-0.4,0-0.4,0-0.4,0.4L131.3,21.5z M127.3,45
				c-0.9-0.1-1.8,0.2-2.6,0.7c-0.9,0.6-1.6,1.6-1.7,2.7c-0.3,1.3,0.1,2.7,1,3.6c0.4,0.4,0.8,0.8,1.3,1.1c0.7,0.4,1.3,0.9,1.9,1.5
				c0.5,0.5,0.7,1.3,0.4,2c-0.2,0.7-0.9,1.2-1.6,1.2c-0.9,0-1.8-0.2-2.5-0.7c-0.2-0.1-0.2-0.1-0.3,0.1c-0.1,0.6-0.2,1.2-0.4,1.9
				c-0.1,0.2,0,0.3,0.2,0.4c1.5,0.8,3.2,0.9,4.8,0.4c0.6-0.2,1.2-0.6,1.6-1.1c0.7-0.8,1.1-1.9,1.1-3c0-1.3-0.5-2.5-1.5-3.4
				c-0.5-0.4-1.1-0.8-1.7-1.1c-0.7-0.3-1.2-0.8-1.5-1.5c-0.2-0.4-0.2-1,0-1.4c0.3-0.6,0.8-1,1.5-1c0.7-0.1,1.4,0.1,2,0.5
				c0.2,0.1,0.3,0.1,0.3-0.2c0.1-0.6,0.2-1.2,0.4-1.7c0.1-0.2,0-0.3-0.2-0.4C128.9,45.2,128.1,45,127.3,45L127.3,45z M133.5,60.1
				h0.6c1.3-0.1,2.6-0.7,3.3-1.9c0.6-1,0.8-2.2,0.6-3.4c-0.1-0.9-0.6-1.7-1.3-2.4c-0.6-0.5-1.3-1-2-1.3c-0.5-0.3-1-0.7-1.2-1.2
				c-0.4-0.6-0.3-1.5,0.3-2c0.4-0.4,1-0.6,1.6-0.6c0.6,0,1.1,0.2,1.6,0.5c0.2,0.1,0.2,0.1,0.3-0.1c0.1-0.6,0.3-1.2,0.4-1.8
				c0-0.1,0-0.3-0.2-0.3c0,0,0,0,0,0c-0.9-0.4-1.9-0.6-2.9-0.5c-1.3,0-2.5,0.7-3.2,1.8c-0.5,0.8-0.8,1.8-0.7,2.7
				c0,0.8,0.3,1.6,0.8,2.2c0.5,0.6,1.1,1.1,1.7,1.5c0.6,0.4,1.2,0.8,1.7,1.3c0.5,0.5,0.7,1.3,0.4,1.9c-0.2,0.7-0.9,1.2-1.6,1.2
				c-0.9,0-1.8-0.2-2.5-0.7c-0.2-0.1-0.2,0-0.2,0.1c-0.1,0.6-0.2,1.1-0.3,1.7c-0.1,0.6-0.1,0.6,0.4,0.8h0.1
				C131.7,59.9,132.6,60.1,133.5,60.1z M120.8,37.8c0,1.1,0.3,2.2,0.8,3.2c0.5,1.1,1.4,2,2.4,2.6c1.4,0.7,3,0.8,4.5,0.3
				c0.2,0,0.2-0.1,0.2-0.3c-0.1-0.6-0.1-1.2-0.2-1.9c0-0.2-0.1-0.3-0.3-0.2c-1.3,0.5-2.7,0-3.5-1.1c-0.6-0.9-1-2-1.1-3.1
				c-0.2-1.3,0.1-2.6,0.7-3.7c0.5-0.9,1.5-1.5,2.5-1.5c0.5,0,0.9,0.1,1.4,0.3c0.2,0.1,0.3,0,0.3-0.2c0-0.6,0.1-1.2,0.2-1.9
				c0-0.1-0.1-0.3-0.2-0.3c0,0,0,0,0,0c-0.4-0.1-0.8-0.2-1.2-0.2c-2.4-0.3-4.8,1-5.7,3.3C121,34.7,120.7,36.2,120.8,37.8z
				 M95.6,21.6c0,2.4,0,4.8,0,7.1c0,0.2,0,0.3,0.3,0.3c2.1,0,4.2,0,6.3,0c0.2,0,0.3-0.1,0.3-0.3c0-0.6,0-1.2,0-1.9
				c0-0.2-0.1-0.3-0.3-0.3h-3.3c-0.4,0-0.4,0-0.4-0.4c0-3.9,0-7.9,0-11.8c0-0.2-0.1-0.3-0.3-0.3H96c-0.3,0-0.3,0-0.3,0.3V21.6z
				 M123.9,21.6L123.9,21.6v7.1c0,0.4,0,0.4,0.3,0.4h6.2c0.2,0,0.3,0,0.3-0.3c0-0.6,0-1.2,0-1.9c0-0.2-0.1-0.3-0.3-0.3h-3.3
				c-0.3,0-0.3-0.1-0.3-0.3c0-2.7,0-5.4,0-8c0-1.3,0-2.6,0-3.9c0-0.2-0.1-0.3-0.3-0.3h-2.4c-0.2,0-0.2,0.1-0.2,0.2
				c0,0.1,0,0.2,0,0.2V21.6z M105.8,21.6L105.8,21.6c0-2.4,0-4.8,0-7.2c0-0.2-0.1-0.3-0.3-0.3h-2.2c-0.2,0-0.3,0.1-0.3,0.3
				c0,1,0,2,0,3v11.3c0,0.5,0,0.4,0.4,0.4c0.7,0,1.4,0,2.1,0c0.4,0,0.4,0,0.4-0.4C105.8,26.4,105.8,24,105.8,21.6L105.8,21.6z"/>
			<path id="_Path_" class="st1" d="M111.8,23.2c0.8,0.2,1.5,0.6,2.2,1.1c0.5,0.4,1,0.9,1.4,1.4c0.1,0.2,0.2,0.2,0.4,0
				c0.6-0.8,1.3-1.4,2.2-1.9c0.4-0.2,0.9-0.5,1.3-0.6c0.1,0,0.2-0.2,0.2-0.3c0-1.2,0-2.4,0-3.7c0-0.2,0.1-0.3,0.3-0.2
				s0.4-0.1,0.4,0.3c0,1.4,0,2.7,0,4.1c0,0.2,0,0.3,0.1,0.5c0.2,0.5,0.2,1.1,0.2,1.7c-0.1,0.7-0.3,1.4-0.5,2c-0.2,0.5-0.4,1-0.6,1.5
				c-0.5,0.8-0.7,1.7-0.8,2.6c0,0.7,0.2,1.4,0.5,2c0.5,1.1,0.9,2.2,1.3,3.4c0.3,1,0.6,2.1,0.7,3.1c0.2,1.2,0.2,2.5,0.1,3.7
				c0,0.4-0.1,0.8-0.1,1.2c0,0.4-0.2,1-0.2,1.4c-0.1,0.3-0.1,0.7-0.2,1c-0.2,0.4-0.3,0.8-0.3,1.3c-0.2,0.7-0.4,1.4-0.6,2.1
				c0,0.1,0,0.1,0,0.2c-0.2,0.4-0.3,0.9-0.4,1.4c-0.1,0.3-0.2,0.7-0.2,1c-0.1,0.1-0.2,0.1-0.4,0.1c-0.1,0-0.2,0-0.3,0.1h-1.1
				l-1.8,0.2c-0.5,0-1-0.1-1.5-0.1c-0.3,0-0.7-0.1-1-0.1c-0.1,0-0.3-0.1-0.3-0.2c-0.1-0.2-0.2-0.4-0.2-0.7c0-0.1-0.1-0.1-0.2-0.2
				c0,0,0-0.1,0-0.2c-0.4-1-0.7-2-1-3l-0.5-1.8c0-0.1,0-0.2-0.1-0.3c-0.2-0.7-0.3-1.5-0.5-2.2c0-0.3,0-0.7-0.1-1
				c0-0.6-0.1-1.2,0-1.8c0-0.2,0-0.3,0-0.5c0.1-0.9,0.2-1.7,0.4-2.6c0.1-0.3,0.2-0.6,0.3-1c0.2-0.8,0.5-1.5,0.7-2.2
				c0.2-0.5,0.4-1,0.6-1.5c0.2-0.5,0.4-1.2,0.7-1.7c0.3-0.7,0.3-1.4,0.1-2.1c-0.2-0.5-0.3-1-0.5-1.4c0-0.1-0.1-0.1-0.2-0.2
				c0-0.1,0-0.2-0.1-0.3c-0.4-0.7-0.7-1.4-0.9-2.1c-0.4-1-0.4-2.2,0-3.2c0-0.1,0-0.2,0-0.3c0-1.2,0-2.5,0-3.8c0-0.2,0.1-0.3,0.3-0.3
				c0.2,0,0.3,0.1,0.3,0.3c0,1.2,0,2.4,0,3.6C111.6,23.1,111.7,23.2,111.8,23.2z"/>
			<path id="_Path_2" class="st0" d="M111.1,49.3c0,0.4-0.1,0.7-0.2,1.1c-0.2,0.8-1,1.4-1.8,1.3c-0.2,0-0.5,0.1-0.7,0
				s-0.1-0.5-0.1-0.7c0-1.2,0-2.4,0-3.6c0-0.3,0.1-0.4,0.3-0.4c0.7-0.2,1.3,0,1.9,0.4c0,0,0.1,0,0.1,0L111.1,49.3z"/>
			<path id="_Path_3" class="st0" d="M98.5,39.9c0-0.6,0-1.3,0-1.9c0-0.2,0-0.3,0.2-0.3c0.7-0.1,1.3,0.1,1.8,0.5
				c0.1,0.1,0.2,0.3,0.3,0.4c0.5,1,0.4,2.2-0.4,3c-0.5,0.4-1.2,0.6-1.8,0.4c-0.2,0-0.2-0.1-0.2-0.2L98.5,39.9L98.5,39.9z"/>
			<path id="_Path_4" class="st0" d="M98.5,34v-1.6c0-0.2,0.1-0.4,0.3-0.4c0.3,0,0.7,0,1,0.1c0.5,0.1,0.8,0.5,1,0.9
				c0.3,0.8,0.1,1.7-0.5,2.3c-0.3,0.3-0.7,0.4-1.2,0.5c-0.2,0-0.5,0.2-0.7,0c-0.2-0.2,0-0.5,0-0.7S98.4,34.3,98.5,34L98.5,34z"/>
			<path id="_Path_5" class="st0" d="M98.3,52.5c0-1.7,0-3.3,0-5c0-0.2,0.1-0.3,0.3-0.4c1.1-0.2,2.2,0.4,2.6,1.4
				c0.4,1,0.6,2.1,0.6,3.3c0.1,1.3-0.1,2.6-0.4,3.9c-0.2,0.7-0.6,1.3-1.1,1.8c-0.5,0.4-1.2,0.5-1.9,0.4c-0.2,0-0.2-0.1-0.2-0.3
				C98.3,55.9,98.3,54.2,98.3,52.5L98.3,52.5z"/>
		</g>
	</g>
</g>
</svg>
