<svg xmlns="http://www.w3.org/2000/svg" viewBox="0 0 355.98 81.23"><defs><style>.cls-1{fill:#9b9b9b;}.cls-2{fill:#b56a94;}.cls-3{fill:none;stroke:#b56a94;stroke-miterlimit:10;}</style></defs><title>Asset 4</title><g id="Layer_2" data-name="Layer 2"><g id="Layer_1-2" data-name="Layer 1"><path class="cls-1" d="M93.88,66.07c-3.73.87-1.65,3.72-.92,5.73,1.05,2.88-.84,5.63-4,6.58-14.65,4.38-27.95-9.45-28-9.55-.76-.77-.4-1.17.08-1.37h0s8.17-.65,5.82-9.56A11.12,11.12,0,0,0,66.17,56v0h0a10,10,0,0,0-.9-1.64.12.12,0,0,0-.22.11c1.16,4,1.13,5.53,0,6.9s-3.75,3.15-9-.07h0l-.06,0a23.64,23.64,0,0,1-2.72-2A23.88,23.88,0,0,1,47,51.71a47.43,47.43,0,0,1-5.69-15.17c-.3-1.17-.52-2.25-.74-3.44-.1-.56-.17-.93-.21-1.25,5.75,0,12-1.78,15.69-8A14.81,14.81,0,0,0,58,19.4a7.75,7.75,0,0,0,.2-.83h0c.41-2.06,1-7.51-3-11.44C50.06,2.19,43.41,1.39,38.76.77,32.92,0,24.36-.51,18.56.84,13,2.13,4.23,5.65.56,15.09A11.26,11.26,0,0,0,.1,16.93v0h0a8.66,8.66,0,0,0,.09,3.12A6.59,6.59,0,0,0,3.9,24.58s5.21,2.31,5.88-1S7.65,19.8,7.65,19.8s-3.83,0-4-3A11.23,11.23,0,0,1,7.8,7.89,19,19,0,0,1,20.28,2.42a8.28,8.28,0,0,1,8.4,4.73.63.63,0,0,0,.75.32c11-3.7,17.49-.25,19,1a8.48,8.48,0,0,1,3.23,5.82,9.07,9.07,0,0,1,.09,1.28,9.52,9.52,0,0,1-.9,4,16.5,16.5,0,0,1-2.53,4.07c-3.35,4.15-8.7,5.56-12.61,5.49a18.68,18.68,0,0,1-7.23-1.77L35,10.75a.31.31,0,0,0-.29-.42H28a.32.32,0,0,0-.29.19c-1.17,2.9-14.93,37.53-17,41.23S3,56,3,56H.19v1.34H25.75a.42.42,0,0,0,.31-.13.77.77,0,0,0-.42-1.41,2.59,2.59,0,0,0-.85.35,3.42,3.42,0,0,1-2.19.1,1.93,1.93,0,0,0-.4-.06,4.76,4.76,0,0,1-3.4-6.62l3.49-8,5-12.05.19.07h0a40.32,40.32,0,0,0,6.13,1.65h.05A74.58,74.58,0,0,0,44.6,57.82,35.49,35.49,0,0,0,47,61.11a53,53,0,0,0,13.32,12.4l.41.27c10,6.41,18.61,8,25.12,7.3h0s5.66-.51,9.41-3.26,3.89-4.78,4-5.87C99.42,70,98.91,64.91,93.88,66.07Z"/><path class="cls-2" d="M109.23,43.87s4.46-3.31,2-6.89-6.17.26-2.63,1.85c2.63,1.18.15,3.86.18,3.94S109.23,43.87,109.23,43.87Z"/><path class="cls-1" d="M62.51,39.87a4.65,4.65,0,0,0-3.65-1.53,7.9,7.9,0,0,0-5.26,2.17,10.12,10.12,0,0,0-3.22,5.05,9.39,9.39,0,0,0-.32,2.38,6.19,6.19,0,0,0,1.21,3.94,4.47,4.47,0,0,0,3.67,1.68c2.23,0,4.32-1.12,6.2-3.31a10,10,0,0,0,2.72-6.57A5.54,5.54,0,0,0,62.51,39.87Zm-1,3.34a8.75,8.75,0,0,1-.33,2.34h0a12.31,12.31,0,0,1-2.27,4.63A5.07,5.07,0,0,1,55,52.41c-1.82,0-2.71-1.21-2.71-3.69a12,12,0,0,1,.43-3A10.72,10.72,0,0,1,55,41.47a5,5,0,0,1,3.73-2,2.46,2.46,0,0,1,2.16,1.06A4.75,4.75,0,0,1,61.54,43.21Z"/><path class="cls-1" d="M108,39.87a4.65,4.65,0,0,0-3.65-1.53,7.9,7.9,0,0,0-5.26,2.17,10.12,10.12,0,0,0-3.22,5.05,9.37,9.37,0,0,0-.31,2.38,6.19,6.19,0,0,0,1.2,3.94,4.47,4.47,0,0,0,3.67,1.68c2.23,0,4.32-1.12,6.2-3.31a10,10,0,0,0,2.72-6.57A5.5,5.5,0,0,0,108,39.87Zm-1,3.34a8.75,8.75,0,0,1-.33,2.34h0a12.31,12.31,0,0,1-2.27,4.63,5.07,5.07,0,0,1-3.91,2.22c-1.82,0-2.71-1.21-2.71-3.69a12,12,0,0,1,.43-3,10.72,10.72,0,0,1,2.23-4.22,5,5,0,0,1,3.73-2,2.46,2.46,0,0,1,2.16,1.06A4.67,4.67,0,0,1,107,43.21Z"/><path class="cls-1" d="M79.59,40.83a3.37,3.37,0,0,0-2-2.37c-4.19-1.9-8.42,1.68-10.24,4.54C66.26,44.72,65,48.17,66,50.64a4.5,4.5,0,0,0,3.34,2.69,7.55,7.55,0,0,0,1.83.24,7.3,7.3,0,0,0,6-3.43.34.34,0,0,0-.53-.41A6.69,6.69,0,0,1,73,51.64a4.15,4.15,0,0,1-4.13-1.76c-.62-1-1.33-3,.89-6.25,2.59-3.77,5.67-4.44,6.94-3.71a.69.69,0,0,1,.34.95c-.51,1.06-.61,1.8-.32,2.25a1.17,1.17,0,0,0,1.12.45,1.91,1.91,0,0,0,1.46-.69A2.4,2.4,0,0,0,79.59,40.83Z"/><path class="cls-1" d="M94.6,40.83a3.36,3.36,0,0,0-2-2.37c-4.17-1.9-8.41,1.68-10.24,4.54C81.27,44.72,80,48.17,81,50.64a4.54,4.54,0,0,0,3.35,2.69,7.55,7.55,0,0,0,1.83.24,7.3,7.3,0,0,0,6-3.43.34.34,0,0,0-.09-.45.35.35,0,0,0-.45,0A6.61,6.61,0,0,1,88,51.64a4.16,4.16,0,0,1-4.14-1.76c-.62-1-1.33-3,.89-6.25,2.59-3.77,5.68-4.44,6.94-3.71a.69.69,0,0,1,.35.95c-.51,1.06-.61,1.8-.32,2.25a1.19,1.19,0,0,0,1.12.45,1.94,1.94,0,0,0,1.46-.69A2.4,2.4,0,0,0,94.6,40.83Z"/><path class="cls-2" d="M155.91,39h2l0,10.59h-2Z"/><path class="cls-2" d="M160.23,39h1.88l3,5.77,0-5.78h2l0,10.59h-1.75l-3.16-6,0,6h-2Z"/><path class="cls-2" d="M170.81,40.88h-2V39l6.05,0v1.9h-2l0,8.68h-2Z"/><path class="cls-2" d="M176.52,39l5.5,0V40.8l-3.49,0v2.45l3.08,0v1.88h-3.08v2.51h3.55v1.87l-5.57,0Z"/><path class="cls-2" d="M184.05,38.92l3,0a3.68,3.68,0,0,1,2.65.93,3.38,3.38,0,0,1,.88,2.48v.09a3.18,3.18,0,0,1-1.61,3l1.88,4.09h-2.25L187,45.91h-.89l0,3.58h-2Zm2.85,5.19a1.53,1.53,0,0,0,1.66-1.69,1.51,1.51,0,0,0-1.72-1.66h-.75v3.34Z"/><path class="cls-2" d="M192.55,38.88h2l.05,10.59h-2Z"/><path class="cls-2" d="M196.58,44.34V44c0-3.34,1.55-5.3,3.83-5.31s3.85,1.93,3.86,5.26v.35c0,3.32-1.54,5.3-3.83,5.31S196.59,47.66,196.58,44.34Zm5.62-.1V44c0-2.39-.78-3.51-1.8-3.5s-1.76,1.11-1.75,3.5v.2c0,2.39.79,3.5,1.8,3.5S202.21,46.63,202.2,44.24Z"/><path class="cls-2" d="M206.24,38.82h3a3.65,3.65,0,0,1,2.65.92,3.43,3.43,0,0,1,.89,2.48v.09a3.19,3.19,0,0,1-1.61,3L213,49.38h-2.25l-1.6-3.58h-.9l0,3.59h-2ZM209.09,44a1.52,1.52,0,0,0,1.65-1.69A1.49,1.49,0,0,0,209,40.67h-.76l0,3.34Z"/><path class="cls-2" d="M214.74,38.78h2l0,10.59h-2Z"/><path class="cls-2" d="M218.33,48.05l1.2-1.58a3.11,3.11,0,0,0,2,1.1,1.09,1.09,0,0,0,1.18-1.09c0-.47-.25-.84-1.45-1.54-1.6-.95-2.54-1.77-2.55-3.26v0a2.94,2.94,0,0,1,3.18-3,3.93,3.93,0,0,1,2.86,1.21l-1.23,1.56a2.46,2.46,0,0,0-1.72-.9,1,1,0,0,0-1.05.93c0,.5.25.86,1.72,1.76s2.27,1.73,2.28,3.14v0a3,3,0,0,1-3.18,3.06A4.49,4.49,0,0,1,218.33,48.05Z"/><path class="cls-2" d="M226.51,38.73h2.07l1.88,4.09,1.82-4.1h2.09l0,10.58h-2l0-6.59-1.94,4.21h0l-2-4.16,0,6.56h-1.95Z"/><path class="cls-2" d="M236.38,44.16v-.34c0-3.35,1.55-5.3,3.83-5.31s3.85,1.93,3.86,5.26v.34c0,3.33-1.55,5.3-3.84,5.31S236.39,47.49,236.38,44.16Zm5.62-.1v-.19c0-2.39-.78-3.51-1.8-3.51s-1.76,1.12-1.75,3.51v.19c0,2.39.79,3.51,1.8,3.5S242,46.45,242,44.06Z"/><path class="cls-2" d="M251.41,44.84h-2.09V43h2.08V40.82h1.85V43h2.08v1.84h-2.08V47h-1.85Z"/><path class="cls-2" d="M263.49,38.47h2.05l3,10.62h-2.07l-.58-2.21-2.73,0-.55,2.21h-2Zm1.89,6.62-.87-3.48-.88,3.48Z"/><path class="cls-2" d="M270.08,38.49h3a3.61,3.61,0,0,1,2.65.92,3.43,3.43,0,0,1,.89,2.48V42A3.16,3.16,0,0,1,275,45L276.88,49h-2.25L273,45.48h-.9l0,3.58h-2Zm2.85,5.19A1.53,1.53,0,0,0,274.58,42a1.49,1.49,0,0,0-1.71-1.65h-.76l0,3.34Z"/><path class="cls-2" d="M285.11,49.28l-.9-.86a3.27,3.27,0,0,1-2.1.77c-2.31,0-3.88-1.94-3.89-5.26v-.35c0-3.34,1.55-5.3,3.83-5.31s3.85,1.93,3.86,5.26v.35a7,7,0,0,1-.71,3.27l1,.9Zm-2.24-2.12-1.18-1.1,1.08-1.23.91.89a8,8,0,0,0,.16-1.85v-.29c0-2.38-.78-3.46-1.8-3.45s-1.76,1.07-1.75,3.45v.29c0,2.54.79,3.48,1.89,3.47A1.34,1.34,0,0,0,282.87,47.16Z"/><path class="cls-2" d="M287.86,45.37l0-7h2l0,7.06c0,1.23.53,1.8,1.35,1.8s1.34-.57,1.34-1.79l0-7.08h2l0,6.94c0,2.59-1.35,3.8-3.36,3.81S287.87,47.92,287.86,45.37Z"/><path class="cls-2" d="M296.83,38.37h2l0,10.59h-2Z"/><path class="cls-2" d="M302.57,40.25h-2v-1.9l6.05,0v1.9h-2l0,8.68h-2Z"/><path class="cls-2" d="M308.28,38.32l5.51,0v1.87l-3.49,0v2.45l3.09,0V44.5h-3.09V47h3.56v1.87l-5.56,0Z"/><path class="cls-2" d="M315.35,43.7v-.24c0-3.45,1.67-5.3,4-5.31a3.45,3.45,0,0,1,2.53,1l-1.15,1.62a2,2,0,0,0-1.39-.7c-1,0-1.89,1.17-1.88,3.44v.07c0,2.42.93,3.45,1.88,3.44a2.06,2.06,0,0,0,1.51-.79l1.08,1.57A3.69,3.69,0,0,1,319.23,49C316.87,49,315.37,47.15,315.35,43.7Z"/><path class="cls-2" d="M325.29,40.15h-2v-1.9l6.05,0v1.9h-2l0,8.68h-2Z"/><path class="cls-2" d="M331,45.18l0-7h2l0,7.07c0,1.22.54,1.79,1.35,1.79s1.35-.57,1.34-1.79l0-7.08h2l0,6.94c0,2.59-1.34,3.8-3.35,3.81S331,47.73,331,45.18Z"/><path class="cls-2" d="M339.92,38.18h3a3.66,3.66,0,0,1,2.65.93,3.39,3.39,0,0,1,.89,2.47v.09a3.18,3.18,0,0,1-1.61,3l1.88,4.09h-2.25l-1.61-3.58H342l0,3.58h-2Zm2.85,5.19a1.67,1.67,0,1,0-.06-3.34H342v3.35Z"/><path class="cls-2" d="M350.94,38.09h2l3,10.62H353.9l-.58-2.21H350.6l-.55,2.21h-2Zm1.89,6.61L352,41.23l-.88,3.48Z"/><line class="cls-3" x1="134.39" y1="31.1" x2="134.39" y2="58.6"/></g></g></svg>