<?xml version="1.0" encoding="utf-8"?>
<!-- Generator: Adobe Illustrator 22.1.0, SVG Export Plug-In . SVG Version: 6.00 Build 0)  -->
<svg version="1.0" id="Layer_1" xmlns="http://www.w3.org/2000/svg" xmlns:xlink="http://www.w3.org/1999/xlink" x="0px" y="0px"
	 viewBox="0 0 266 743" style="enable-background:new 0 0 266 743;" xml:space="preserve">
<style type="text/css">
	.st0{fill:#B56A94;}
	.st1{enable-background:new    ;}
	.st2{fill:#FFFFFF;}
	.st3{fill:#4D4D4D;}
	.st4{fill:#B3B3B3;}
</style>
<title>Asset 11</title>
<g>
	<g id="Layer_2_1_">
		<g id="Layer_1-2">
			
				<rect x="53.1" y="53.4" transform="matrix(0.7071 -0.7071 0.7071 0.7071 -52.2896 125.9388)" class="st0" width="145.5" height="145.5"/>
			<g class="st1">
				<path class="st2" d="M91.4,160.6v2.9h-2v-8.4h3.3c1,0,1.8,0.2,2.3,0.7c0.5,0.5,0.8,1.2,0.8,2c0,0.5-0.1,1-0.4,1.4
					c-0.2,0.4-0.6,0.7-1,1c-0.5,0.2-1,0.4-1.7,0.4H91.4z M93.7,157.9c0-0.7-0.4-1.1-1.2-1.1h-1v2.2h1
					C93.3,159,93.7,158.6,93.7,157.9z"/>
				<path class="st2" d="M98.8,162h2.7v1.6h-4.7v-8.4h2V162z"/>
				<path class="st2" d="M107.6,162h-3.1l-0.5,1.5h-2.1l3.1-8.3h2.3l3.1,8.3h-2.2L107.6,162z M107.1,160.5l-1-3.1l-1.1,3.1H107.1z"
					/>
				<path class="st2" d="M118.5,163.5h-2l-3.4-5.2v5.2h-2v-8.4h2l3.4,5.2v-5.2h2V163.5z"/>
				<path class="st2" d="M122,156.8v1.8h2.8v1.5H122v1.9h3.2v1.6h-5.2v-8.4h5.2v1.6H122z"/>
				<path class="st2" d="M131.5,162h-3.1l-0.5,1.5h-2.1l3.1-8.3h2.3l3.1,8.3H132L131.5,162z M131,160.5l-1-3.1l-1.1,3.1H131z"/>
				<path class="st2" d="M141.5,155.9c0.7,0.6,1.2,1.3,1.4,2.3h-2.2c-0.2-0.4-0.4-0.7-0.7-0.9c-0.3-0.2-0.7-0.3-1.2-0.3
					c-0.6,0-1.1,0.2-1.4,0.7s-0.5,1-0.5,1.7c0,0.7,0.2,1.3,0.5,1.7s0.8,0.6,1.4,0.6c0.5,0,0.8-0.1,1.2-0.3c0.3-0.2,0.6-0.5,0.7-0.9
					h2.2c-0.2,1-0.7,1.7-1.4,2.3c-0.7,0.6-1.6,0.8-2.7,0.8c-0.8,0-1.5-0.2-2.2-0.5c-0.6-0.4-1.1-0.9-1.4-1.5
					c-0.3-0.6-0.5-1.4-0.5-2.2c0-0.8,0.2-1.6,0.5-2.2s0.8-1.2,1.4-1.5s1.3-0.5,2.2-0.5C139.9,155.1,140.8,155.3,141.5,155.9z"/>
				<path class="st2" d="M146,155.2v8.4h-2v-8.4H146z"/>
				<path class="st2" d="M153.6,155.6c0.6,0.4,1.2,0.9,1.5,1.5c0.4,0.7,0.6,1.4,0.6,2.2c0,0.8-0.2,1.6-0.6,2.2
					c-0.4,0.7-0.9,1.2-1.5,1.5c-0.6,0.4-1.4,0.6-2.1,0.6c-0.8,0-1.5-0.2-2.1-0.6c-0.6-0.4-1.2-0.9-1.5-1.5s-0.6-1.4-0.6-2.2
					c0-0.8,0.2-1.6,0.6-2.2c0.4-0.7,0.9-1.2,1.5-1.5s1.4-0.6,2.1-0.6C152.2,155,152.9,155.2,153.6,155.6z M149.8,157.6
					c-0.4,0.4-0.6,1-0.6,1.8c0,0.7,0.2,1.3,0.6,1.8c0.4,0.4,0.9,0.7,1.6,0.7c0.7,0,1.2-0.2,1.6-0.7c0.4-0.4,0.6-1,0.6-1.8
					s-0.2-1.3-0.6-1.8c-0.4-0.4-0.9-0.7-1.6-0.7C150.7,156.9,150.2,157.1,149.8,157.6z M153.1,153.5l-2.9,1.2v-1.4l2.9-1.4V153.5z"
					/>
				<path class="st2" d="M164.2,163.5h-2l-3.4-5.2v5.2h-2v-8.4h2l3.4,5.2v-5.2h2V163.5z"/>
			</g>
			<g>
				<path class="st2" d="M136.4,110.1l6.6-4l-5.5-3.4l4.9-2.9l-10.7-6.5l-12.7,7.3l0,0l-22.9,13.3l20.5,12.4l23.4-14L136.4,110.1z
					 M140.6,106.1l-5.4,3.2l-4.4-2.6l5.4-3.2L140.6,106.1z M131.6,94.7l8.4,5.1l-3.7,2.2l0,0l-6.5,3.8l-8.4-5.1L131.6,94.7z
					 M98.5,113.9l8.5-4.9l0.3,0.2c0.1,0.1,0.2,0.1,0.3,0.1c0.2,0,0.3-0.1,0.4-0.2c0.1-0.2,0.1-0.4,0-0.6l12.1-7l8.3,5.1l0,0l1.8,1.1
					l1,0.6c0,0.1,0,0.3,0.1,0.4c0.1,0.1,0.2,0.2,0.4,0.2c0.1,0,0.2,0,0.2-0.1h0.1l5.6,3.4l-21,12.6L98.5,113.9z"/>
				<path class="st0" d="M116.6,126.6l-21-12.7L131.7,93l11.1,6.8l-4.9,2.9l5.5,3.4l-6.6,4l3.6,2.2L116.6,126.6z M96.6,113.9
					l20,12.1l22.9-13.7l-3.6-2.2l6.6-4l-5.5-3.4l4.9-2.9l-10.2-6.2L96.6,113.9z M116.6,125.2l-0.1-0.1L98,113.9l9-5.2l0.4,0.3
					c0.1,0.1,0.3,0,0.3-0.1c0.1-0.1,0.1-0.2,0-0.3l-0.2-0.2l12.5-7.2l11.5,7.1l0,0.2c0,0.1,0,0.1,0,0.2c0,0.1,0.1,0.1,0.2,0.1
					c0,0,0.1,0,0.1,0l0.1,0h0.1l0.1,0l5.9,3.6L116.6,125.2z M99,113.9l17.7,10.7l20.5-12.3l-5.1-3.2c-0.1,0-0.2,0-0.3,0.1
					c-0.3,0-0.5-0.1-0.6-0.3c-0.1-0.1-0.1-0.2-0.1-0.4l-0.9-0.6l-1.8-1.1l-8.2-5.1l-11.8,6.8c0.1,0.2,0,0.4-0.1,0.6
					c-0.1,0.2-0.4,0.3-0.6,0.3c-0.1,0-0.3,0-0.4-0.1l-0.2-0.1L99,113.9z M135.3,109.6l-4.8-2.9l5.9-3.5l4.8,3L135.3,109.6z
					 M131.4,106.7l3.9,2.3l4.9-2.9l-3.8-2.4L131.4,106.7z M129.8,106.1l-8.9-5.4l10.7-6.3l8.8,5.4l-4,2.4L129.8,106.1z M121.9,100.7
					l7.9,4.8l6.4-3.7l3.3-2l-7.9-4.8L121.9,100.7z"/>
			</g>
			<g>
				<path class="st2" d="M141.9,115.4l-22.2,13.3c-0.3,0.2-0.4,0.6-0.2,0.9c0.1,0.2,0.3,0.3,0.5,0.3c0.1,0,0.2,0,0.3-0.1l22.2-13.3
					c0.3-0.2,0.3-0.6,0.1-0.9C142.5,115.4,142.2,115.3,141.9,115.4z"/>
				<path class="st0" d="M120,130.2C120,130.2,120,130.2,120,130.2c-0.3,0-0.6-0.2-0.8-0.4c-0.2-0.4-0.1-0.9,0.3-1.2l22.2-13.3
					c0.4-0.2,0.8-0.1,1.1,0.3c0.1,0.2,0.2,0.4,0.2,0.6s-0.2,0.4-0.3,0.6L120.5,130C120.3,130.1,120.2,130.2,120,130.2z M120,129.7
					c0.1,0,0.1,0,0.2,0l22.2-13.3c0.1,0,0.1-0.1,0.1-0.2c0-0.1,0-0.2-0.1-0.3c-0.1-0.1-0.3-0.2-0.4-0.1L119.8,129
					c-0.2,0.1-0.2,0.3-0.1,0.5C119.8,129.6,119.9,129.7,120,129.7z"/>
			</g>
			<g>
				<path class="st2" d="M140.5,120.4l-17.7,10.6c-0.3,0.2-0.4,0.5-0.2,0.8c0.1,0.2,0.3,0.3,0.5,0.3c0.1,0,0.2,0,0.3-0.1l17.7-10.6
					c0.3-0.2,0.3-0.6,0.1-0.9C141.1,120.3,140.8,120.2,140.5,120.4z"/>
				<path class="st0" d="M123.1,132.3c-0.3,0-0.6-0.2-0.7-0.4c-0.2-0.4-0.1-0.9,0.3-1.2l17.7-10.6c0.4-0.2,0.8-0.1,1.1,0.3
					c0.3,0.4,0.2,0.9-0.2,1.2l-17.7,10.6C123.5,132.3,123.3,132.3,123.1,132.3z M140.6,120.6L123,131.2c-0.2,0.1-0.2,0.3-0.1,0.5
					c0.1,0.1,0.2,0.2,0.3,0.2c0.1,0,0.1,0,0.2-0.1l17.7-10.6c0.1-0.1,0.2-0.3,0.1-0.5C141,120.6,140.8,120.5,140.6,120.6z"/>
			</g>
			<g>
				<path class="st2" d="M114.3,112.7l-0.4-0.2c-0.3-0.1-0.5,0-0.7,0.2c-0.1,0.2,0,0.4,0.1,0.6l0.4,0.2c0.1,0.1,0.2,0.1,0.3,0.1
					c0.2,0,0.3-0.1,0.4-0.2C114.6,113.1,114.6,112.8,114.3,112.7z"/>
				<path class="st0" d="M114.1,113.8c-0.1,0-0.3,0-0.4-0.1l-0.4-0.2c-0.3-0.2-0.4-0.6-0.2-0.9c0.1-0.2,0.2-0.3,0.4-0.4
					c0.2-0.1,0.4-0.1,0.6,0l0.4,0.3c0.3,0.2,0.4,0.7,0.2,1C114.6,113.7,114.3,113.8,114.1,113.8
					C114.1,113.8,114.1,113.8,114.1,113.8z M113.8,112.6C113.8,112.6,113.7,112.6,113.8,112.6c-0.2,0-0.2,0.1-0.2,0.1
					c0,0.1,0,0.2,0.1,0.3l0.3,0.2c0,0,0.1,0,0.1,0c0,0,0,0,0,0c0.1,0,0.2,0,0.2-0.1c0.1-0.1,0-0.3-0.1-0.3L113.8,112.6
					C113.8,112.6,113.8,112.6,113.8,112.6z"/>
			</g>
			<g>
				<path class="st2" d="M117.6,114.8l-0.4-0.2c-0.2-0.1-0.5-0.1-0.7,0.1s-0.1,0.5,0.1,0.7l0,0l0.4,0.2c0.1,0,0.2,0.1,0.3,0.1
					c0.2,0,0.3-0.1,0.4-0.2C117.9,115.3,117.8,115,117.6,114.8z"/>
				<path class="st0" d="M117.4,116C117.4,116,117.4,116,117.4,116c-0.1,0-0.3,0-0.4-0.1l-0.4-0.2c-0.3-0.2-0.4-0.7-0.2-1
					c0.1-0.2,0.3-0.3,0.5-0.3c0.2,0,0.4,0,0.6,0.1l0.4,0.2c0.3,0.2,0.4,0.7,0.2,1C117.8,115.9,117.6,116,117.4,116z M117,114.8
					C117,114.8,117,114.8,117,114.8c-0.1,0-0.2,0.1-0.2,0.1c-0.1,0.1,0,0.3,0.1,0.3l0.4,0.2c0,0,0.1,0,0.1,0c0,0,0,0,0,0
					c0.1,0,0.1,0,0.2-0.1c0.1-0.1,0-0.3-0.1-0.3l-0.4-0.2C117.1,114.8,117,114.8,117,114.8z"/>
			</g>
			<g>
				<path class="st2" d="M116.1,114.4c0.1-0.2,0.1-0.5-0.1-0.7c0,0,0,0,0,0l-0.4-0.2c-0.2-0.1-0.5-0.1-0.7,0.1c0,0,0,0,0,0
					c-0.1,0.2-0.1,0.5,0.1,0.7l0.4,0.2c0.1,0.1,0.2,0.1,0.3,0.1C115.9,114.7,116,114.6,116.1,114.4z"/>
				<path class="st0" d="M115.7,114.9c-0.1,0-0.3,0-0.4-0.1l-0.4-0.2c-0.3-0.2-0.4-0.7-0.2-1c0.1-0.2,0.3-0.3,0.5-0.3
					c0.2,0,0.4,0,0.6,0.1l0.4,0.2c0.3,0.2,0.4,0.7,0.2,1C116.2,114.8,116,114.9,115.7,114.9z M115.3,113.7
					C115.3,113.7,115.3,113.7,115.3,113.7c-0.1,0-0.2,0.1-0.2,0.1c-0.1,0.1,0,0.3,0.1,0.3l0.4,0.2c0.1,0.1,0.3,0,0.3-0.1l0,0
					c0.1-0.1,0-0.3-0.1-0.3l-0.4-0.2C115.4,113.7,115.4,113.7,115.3,113.7z"/>
			</g>
			<g>
				<path class="st2" d="M111.1,110.5l-0.4-0.2c-0.2-0.1-0.5-0.1-0.7,0.1c0,0,0,0,0,0c-0.2,0.2-0.1,0.5,0.1,0.7c0,0,0,0,0,0l0.4,0.2
					c0.1,0.1,0.2,0.1,0.3,0.1c0.3,0,0.5-0.2,0.5-0.5C111.3,110.8,111.2,110.6,111.1,110.5z"/>
				<path class="st0" d="M110.8,111.7c-0.1,0-0.3,0-0.4-0.1l-0.4-0.2c-0.4-0.2-0.4-0.7-0.2-1c0.2-0.3,0.7-0.4,1-0.2l0.4,0.2
					c0.2,0.1,0.3,0.4,0.3,0.6C111.5,111.4,111.2,111.7,110.8,111.7C110.8,111.7,110.8,111.7,110.8,111.7z M110.4,110.5
					c-0.1,0-0.2,0-0.2,0.1c-0.1,0.1-0.1,0.3,0.1,0.3l0.4,0.2c0,0,0.1,0,0.1,0c0,0,0,0,0,0c0.1,0,0.2-0.1,0.2-0.2
					c0-0.1,0-0.2-0.1-0.2l0,0l-0.4-0.2C110.5,110.5,110.5,110.5,110.4,110.5z"/>
			</g>
			<g>
				<path class="st2" d="M109.4,109.5l-0.4-0.2c-0.2-0.1-0.5-0.1-0.7,0.1s-0.1,0.5,0.1,0.7l0.4,0.2c0.1,0,0.2,0.1,0.3,0.1
					c0.3,0,0.5-0.2,0.5-0.5C109.7,109.7,109.6,109.6,109.4,109.5z"/>
				<path class="st0" d="M109.2,110.6C109.2,110.6,109.2,110.6,109.2,110.6c-0.1,0-0.3,0-0.4-0.1l-0.4-0.2c-0.2-0.1-0.3-0.3-0.3-0.5
					s0-0.4,0.1-0.6c0.1-0.2,0.3-0.3,0.5-0.3c0.2,0,0.4,0,0.6,0.1l0.4,0.2c0.2,0.1,0.3,0.4,0.3,0.6c0,0.2-0.1,0.4-0.2,0.5
					C109.5,110.5,109.4,110.6,109.2,110.6z M108.8,109.4C108.8,109.4,108.8,109.4,108.8,109.4c-0.1,0-0.2,0.1-0.2,0.1
					c0,0.1,0,0.1,0,0.2c0,0.1,0,0.1,0.1,0.2l0.4,0.2c0,0,0.1,0,0.1,0h0c0.1,0,0.1,0,0.2-0.1c0,0,0.1-0.1,0.1-0.2
					c0-0.1,0-0.2-0.1-0.2l0,0l-0.4-0.2C108.9,109.4,108.8,109.4,108.8,109.4z"/>
			</g>
			<g>
				<path class="st2" d="M112.7,111.6l-0.4-0.2c-0.2-0.2-0.5-0.1-0.7,0.1s-0.1,0.5,0.1,0.7c0,0,0,0,0.1,0l0.4,0.2
					c0.1,0.1,0.2,0.1,0.3,0.1c0.3,0,0.5-0.2,0.5-0.5C112.9,111.9,112.8,111.7,112.7,111.6z"/>
				<path class="st0" d="M112.4,112.8c-0.1,0-0.3,0-0.4-0.1l-0.4-0.2c0,0-0.1,0-0.1-0.1c-0.3-0.2-0.4-0.7-0.1-1
					c0.3-0.3,0.7-0.4,1-0.1l0.4,0.2c0.2,0.1,0.3,0.4,0.3,0.6c0,0.2-0.1,0.4-0.2,0.5C112.8,112.7,112.6,112.8,112.4,112.8
					C112.4,112.8,112.4,112.8,112.4,112.8z M112,111.5c-0.1,0-0.1,0-0.2,0.1c-0.1,0.1-0.1,0.3,0,0.3l0.1,0l0.4,0.2c0,0,0.1,0,0.1,0
					c0,0,0,0,0,0c0.1,0,0.1,0,0.2-0.1c0,0,0.1-0.1,0.1-0.2c0-0.1,0-0.2-0.1-0.2l-0.4-0.2C112.2,111.5,112.1,111.5,112,111.5z"/>
			</g>
			<g>
				<path class="st2" d="M120.9,117l-0.4-0.2c-0.2-0.1-0.5-0.1-0.7,0.1s-0.1,0.5,0.1,0.7l0.4,0.2c0.1,0.1,0.2,0.1,0.3,0.1
					c0.3,0,0.5-0.2,0.5-0.5C121.1,117.2,121,117.1,120.9,117z"/>
				<path class="st0" d="M120.6,118.1C120.6,118.1,120.6,118.1,120.6,118.1c-0.1,0-0.3,0-0.4-0.1l-0.4-0.2c-0.3-0.2-0.4-0.7-0.2-1
					c0.2-0.3,0.7-0.4,1-0.2l0.4,0.2c0.2,0.1,0.3,0.4,0.3,0.6c0,0.2-0.1,0.4-0.2,0.5C121,118.1,120.8,118.1,120.6,118.1z
					 M120.3,116.9c-0.1,0-0.2,0-0.2,0.1c-0.1,0.1,0,0.3,0.1,0.3l0.4,0.2c0,0,0.1,0,0.1,0c0,0,0,0,0,0c0.1,0,0.1,0,0.2-0.1
					s0.1-0.1,0.1-0.2c0-0.1,0-0.2-0.1-0.2l0,0l-0.4-0.2C120.4,116.9,120.3,116.9,120.3,116.9z"/>
			</g>
			<g>
				<path class="st2" d="M119.4,116.6c0.1-0.2,0.1-0.5-0.1-0.7c0,0,0,0,0,0l-0.4-0.2c-0.2-0.1-0.5-0.1-0.7,0.1s-0.1,0.5,0.1,0.7
					l0.4,0.2c0.1,0,0.2,0.1,0.3,0.1C119.2,116.8,119.3,116.7,119.4,116.6z"/>
				<path class="st0" d="M119,117C119,117,119,117,119,117c-0.1,0-0.3,0-0.4-0.1l-0.4-0.2c-0.2-0.1-0.3-0.3-0.3-0.5s0-0.4,0.1-0.6
					c0.1-0.2,0.3-0.3,0.5-0.3c0.2,0,0.4,0,0.6,0.1l0.4,0.3c0.1,0.1,0.2,0.2,0.3,0.4c0,0.2,0,0.4-0.1,0.6
					C119.5,116.9,119.2,117,119,117z M118.6,115.8C118.6,115.8,118.6,115.8,118.6,115.8c-0.1,0-0.2,0.1-0.2,0.1c0,0.1,0,0.1,0,0.2
					c0,0.1,0,0.1,0.1,0.2l0.4,0.2c0,0,0.1,0,0.1,0l0,0c0.1,0,0.1,0,0.2-0.1l0,0c0-0.1,0-0.1,0-0.2c0-0.1,0-0.1-0.1-0.1l-0.4-0.2
					C118.7,115.8,118.7,115.8,118.6,115.8z"/>
			</g>
			<g>
				<path class="st2" d="M124.3,119.8c0.1-0.2,0.1-0.5-0.1-0.7c0,0,0,0,0,0l-0.4-0.2c-0.2-0.1-0.5-0.1-0.7,0.1s-0.1,0.5,0.1,0.7l0,0
					l0.4,0.2c0.1,0.1,0.2,0.1,0.3,0.1C124.1,120,124.2,119.9,124.3,119.8z"/>
				<path class="st0" d="M123.9,120.3c-0.1,0-0.3,0-0.4-0.1l-0.4-0.2c-0.3-0.2-0.4-0.7-0.2-1c0.2-0.3,0.7-0.4,1-0.2l0.4,0.2
					c0.2,0.1,0.3,0.3,0.3,0.5c0,0.2,0,0.4-0.1,0.6l0,0C124.4,120.1,124.2,120.3,123.9,120.3C123.9,120.3,123.9,120.3,123.9,120.3z
					 M123.5,119c-0.1,0-0.2,0-0.2,0.1c0,0.1,0,0.1,0,0.2c0,0.1,0,0.1,0.1,0.2l0.4,0.2c0,0,0.1,0,0.1,0c0.1,0,0.2,0,0.2-0.1
					c0-0.1,0-0.1,0-0.2c0-0.1-0.1-0.1-0.1-0.2l-0.4-0.2C123.6,119.1,123.6,119,123.5,119z"/>
			</g>
			<g>
				<path class="st2" d="M122.7,118.7c0.1-0.2,0.1-0.5-0.1-0.7l-0.4-0.2c-0.2-0.1-0.5-0.1-0.7,0.1c-0.1,0.2-0.1,0.5,0.1,0.7
					c0,0,0,0,0,0l0.4,0.2c0.1,0.1,0.2,0.1,0.3,0.1C122.4,118.9,122.6,118.9,122.7,118.7z"/>
				<path class="st0" d="M122.3,119.2C122.3,119.2,122.3,119.2,122.3,119.2c-0.1,0-0.3,0-0.4-0.1l-0.4-0.2c-0.2-0.1-0.3-0.3-0.3-0.5
					c0-0.2,0-0.4,0.1-0.6c0.2-0.3,0.7-0.4,1-0.2l0.4,0.2c0.3,0.2,0.4,0.7,0.2,1l0,0C122.8,119.1,122.5,119.2,122.3,119.2z
					 M121.9,118c-0.1,0-0.2,0-0.2,0.1c0,0,0,0.1,0,0.2c0,0.1,0.1,0.1,0.1,0.2l0.4,0.2c0,0,0.1,0,0.1,0c0.1,0,0.1,0,0.2-0.1
					c0.1-0.1,0-0.3-0.1-0.3L122,118C122,118,121.9,118,121.9,118z"/>
			</g>
			<g>
				<path class="st2" d="M124.6,112.8c0.1,0.1,0.2,0.2,0.4,0.2c0.1,0,0.2,0,0.3-0.1l0.4-0.2c0.2-0.1,0.3-0.4,0.2-0.7
					c-0.1-0.2-0.4-0.3-0.7-0.2c0,0,0,0,0,0l-0.4,0.2C124.6,112.3,124.5,112.6,124.6,112.8z"/>
				<path class="st0" d="M125.1,113.3c-0.3,0-0.5-0.1-0.6-0.4l0,0c-0.2-0.3-0.1-0.8,0.2-1l0.4-0.2c0.4-0.2,0.8-0.1,1,0.2
					c0.2,0.4,0.1,0.8-0.3,1l-0.4,0.2C125.3,113.3,125.2,113.3,125.1,113.3z M124.8,112.7c0,0.1,0.1,0.1,0.2,0.1c0,0,0.1,0,0.1,0
					l0.4-0.2c0.1-0.1,0.2-0.2,0.1-0.3c-0.1-0.1-0.2-0.2-0.3-0.1l-0.4,0.2C124.8,112.5,124.8,112.6,124.8,112.7z"/>
			</g>
			<g>
				<path class="st2" d="M123.4,114.1c0.1,0,0.2,0,0.2-0.1l0.4-0.2c0.2-0.1,0.3-0.4,0.2-0.7c-0.1-0.2-0.4-0.3-0.7-0.2l0,0l-0.4,0.2
					c-0.2,0.1-0.3,0.4-0.2,0.7c0,0,0,0,0,0C123.1,114,123.2,114.1,123.4,114.1z"/>
				<path class="st0" d="M123.4,114.4c-0.3,0-0.5-0.1-0.6-0.4c-0.2-0.4-0.1-0.8,0.2-1l0.4-0.2c0.2-0.1,0.4-0.1,0.6-0.1
					c0.2,0,0.4,0.2,0.5,0.3c0.1,0.2,0.1,0.4,0.1,0.6c0,0.2-0.2,0.4-0.3,0.5l-0.4,0.2C123.7,114.3,123.5,114.4,123.4,114.4
					C123.4,114.4,123.4,114.4,123.4,114.4z M123.8,113.1c0,0-0.1,0-0.1,0l-0.4,0.2c-0.1,0.1-0.2,0.2-0.1,0.3c0,0.1,0.1,0.1,0.2,0.1
					h0c0,0,0,0,0,0c0,0,0.1,0,0.1,0l0.4-0.2c0.1,0,0.1-0.1,0.1-0.1c0-0.1,0-0.1,0-0.2C123.9,113.2,123.9,113.2,123.8,113.1
					C123.8,113.1,123.8,113.1,123.8,113.1z"/>
			</g>
			<g>
				<path class="st2" d="M126.7,112.1c0.1,0,0.2,0,0.3-0.1l0.4-0.2c0.2-0.1,0.3-0.4,0.2-0.7c-0.1-0.2-0.4-0.3-0.7-0.2l0,0l-0.4,0.2
					c-0.2,0.1-0.3,0.4-0.2,0.7C126.4,112,126.6,112.1,126.7,112.1L126.7,112.1z"/>
				<path class="st0" d="M126.7,112.3c-0.3,0-0.5-0.1-0.6-0.4c-0.2-0.3-0.1-0.8,0.3-1l0.4-0.2c0.4-0.2,0.8-0.1,1,0.2
					c0.2,0.4,0.1,0.8-0.2,1l-0.3,0.2l0.1,0.1L126.7,112.3C126.8,112.3,126.7,112.3,126.7,112.3z M126.6,111.8l0.2,0c0,0,0.1,0,0.1,0
					l0.4-0.2c0.1,0,0.1-0.1,0.1-0.1c0-0.1,0-0.1,0-0.2c-0.1-0.1-0.2-0.2-0.3-0.1l-0.4,0.2C126.5,111.5,126.5,111.6,126.6,111.8
					C126.6,111.7,126.6,111.8,126.6,111.8z"/>
			</g>
			<g>
				<path class="st2" d="M128.4,111c0.1,0,0.2,0,0.3-0.1l0.4-0.2c0.2-0.1,0.3-0.4,0.2-0.7c-0.1-0.2-0.4-0.3-0.7-0.2l-0.4,0.2
					c-0.2,0.1-0.3,0.4-0.2,0.7C128.1,110.9,128.2,111,128.4,111z"/>
				<path class="st0" d="M128.4,111.2C128.4,111.2,128.4,111.2,128.4,111.2c-0.3,0-0.5-0.1-0.6-0.3c-0.2-0.4-0.1-0.8,0.2-1l0.4-0.2
					c0.3-0.2,0.8-0.1,1,0.2c0.1,0.2,0.1,0.4,0.1,0.6c0,0.2-0.2,0.4-0.3,0.5l-0.4,0.2C128.7,111.2,128.5,111.2,128.4,111.2z
					 M128.7,110c0,0-0.1,0-0.1,0l-0.4,0.2c-0.1,0.1-0.1,0.2-0.1,0.3c0,0.1,0.1,0.1,0.2,0.1h0c0.1,0,0.1,0,0.1,0l0.4-0.2
					c0.1,0,0.1-0.1,0.1-0.2c0-0.1,0-0.1,0-0.2C128.9,110.1,128.8,110,128.7,110z"/>
			</g>
			<g>
				<path class="st2" d="M129.6,109.8c0.1,0.2,0.4,0.3,0.7,0.2l0.4-0.2c0.2-0.1,0.3-0.4,0.2-0.7c-0.1-0.2-0.4-0.3-0.7-0.2l0,0
					l-0.4,0.2C129.6,109.2,129.5,109.5,129.6,109.8z"/>
				<path class="st0" d="M130,110.2c-0.2,0-0.5-0.1-0.6-0.3l0,0c-0.2-0.3-0.1-0.8,0.2-1l0.4-0.2c0.2-0.1,0.4-0.1,0.6-0.1
					c0.2,0,0.4,0.2,0.5,0.3c0.2,0.3,0.1,0.8-0.2,1l-0.4,0.2C130.3,110.2,130.2,110.2,130,110.2z M129.8,109.6
					c0.1,0.1,0.2,0.1,0.3,0.1l0.4-0.2c0.1-0.1,0.1-0.2,0.1-0.3c0-0.1-0.1-0.1-0.2-0.1c-0.1,0-0.1,0-0.2,0l-0.4,0.2
					C129.8,109.4,129.8,109.5,129.8,109.6z"/>
			</g>
			<g>
				<path class="st2" d="M121.7,115.1c0.1,0,0.2,0,0.3-0.1l0.4-0.2c0.2-0.1,0.3-0.4,0.2-0.7c-0.1-0.2-0.4-0.3-0.7-0.2l0,0l-0.4,0.2
					c-0.2,0.1-0.3,0.4-0.2,0.7C121.4,115,121.5,115.1,121.7,115.1z"/>
				<path class="st0" d="M121.7,115.4c-0.3,0-0.5-0.1-0.6-0.3c-0.2-0.3-0.1-0.8,0.2-1l0.4-0.2c0.2-0.1,0.4-0.1,0.6-0.1
					c0.2,0,0.4,0.2,0.5,0.3c0.1,0.2,0.1,0.4,0.1,0.6s-0.2,0.4-0.3,0.5l-0.4,0.2C122,115.3,121.9,115.4,121.7,115.4
					C121.7,115.4,121.7,115.4,121.7,115.4z M122.1,114.2c0,0-0.1,0-0.1,0l-0.4,0.2c-0.1,0.1-0.1,0.2-0.1,0.3c0,0.1,0.1,0.1,0.2,0.1
					h0c0,0,0.1,0,0.1,0l0.4-0.2c0.1,0,0.1-0.1,0.1-0.2c0-0.1,0-0.1,0-0.2C122.3,114.2,122.2,114.2,122.1,114.2
					C122.1,114.2,122.1,114.2,122.1,114.2z"/>
			</g>
			<g>
				<path class="st2" d="M120.1,116.2c0.1,0,0.2,0,0.3-0.1l0.4-0.2c0.2-0.1,0.3-0.4,0.2-0.7c-0.1-0.2-0.4-0.3-0.7-0.2l0,0l-0.4,0.2
					c-0.2,0.1-0.3,0.4-0.2,0.7C119.7,116.1,119.9,116.2,120.1,116.2z"/>
				<path class="st0" d="M120,116.4L120,116.4c-0.3,0-0.5-0.1-0.6-0.3c-0.2-0.4-0.1-0.8,0.2-1l0.4-0.2c0.2-0.1,0.4-0.1,0.6-0.1
					c0.2,0,0.4,0.2,0.5,0.3s0.1,0.4,0.1,0.6s-0.2,0.4-0.3,0.5l-0.4,0.2C120.3,116.4,120.2,116.4,120,116.4L120,116.4z M120.4,115.2
					c0,0-0.1,0-0.1,0l-0.4,0.2c-0.1,0.1-0.1,0.2-0.1,0.3c0,0.1,0.1,0.1,0.2,0.1c0,0,0.1,0,0.1,0l0.4-0.2c0.1,0,0.1-0.1,0.1-0.1
					c0-0.1,0-0.1,0-0.2C120.6,115.3,120.5,115.2,120.4,115.2C120.5,115.2,120.4,115.2,120.4,115.2z"/>
			</g>
			<g>
				<path class="st2" d="M175.8,111.1l-8.3-5.2l2.2-5.5l-9.4-1l-0.6,1.5L130.1,83l-55.1,31.9l47,28.5l25.7-15.4l-0.5,1.2l10.5,1.4
					l4.4-11.1L175.8,111.1z M163.3,116.9l3.7-9.5l5.5,3.7L163.3,116.9z M148.9,125.3l-26.9,16l-43.6-26.4L130.1,85l28.9,17.4
					L148.9,125.3L148.9,125.3z M157,129.2l-8-1l1.6-3.7l3.8,0.7l0.2-1.2l-3.6-0.7l0.5-1.2l4.8,0.9l0.2-1.2l-4.5-0.9l0.5-1.2l3.1,0.5
					l0.2-1.2l-2.7-0.4l0.6-1.3l5,0.8l0.2-1.2l-4.7-0.8l0.5-1.1l5.6,0.9l0.2-1.2l-5.2-0.8l0.5-1.2l3.7,0.5l0.2-1.2l-3.4-0.5l0.6-1.3
					l4.9,0.7l0.2-1.2l-4.6-0.6l0.6-1.3l3.8,0.4l0.1-1.2l-3.4-0.3l0.5-1.2l5.1,0.6l0.1-1.2l-4.8-0.6l0.7-1.5l3.6,0.4l0.1-1.2
					l-3.2-0.3l0.6-1.2l6.9,0.7L157,129.2z"/>
				<path class="st0" d="M122.1,143.7l-47.5-28.8l55.6-32.2l0.1,0.1l29.4,17.7l0.6-1.4l9.9,1.1l-2.2,5.6l8.4,5.3l-13.9,8.5
					l-4.5,11.2l-11-1.4l0.3-0.8L122.1,143.7z M75.6,114.9l46.5,28.2l26.3-15.7l-0.7,1.6l10,1.3l4.4-11l0.1,0l13.3-8.2l-8.1-5.1
					l2.1-5.4l-8.8-0.9l-0.7,1.6l-29.7-17.9L75.6,114.9z M122.1,141.6l-0.1-0.1L78,114.9l52.1-30.2l29.2,17.6L149,125.9l-0.1-0.2
					L122.1,141.6z M79,114.9l43.1,26.1l26.7-15.9l10-22.6l-28.6-17.2L79,114.9z M157.2,129.5l-8.5-1.1l1.8-4.1l3.8,0.7l0.1-0.7
					l-3.6-0.7l0.7-1.7l4.7,0.9l0.1-0.7l-4.6-0.9l0.7-1.7l3,0.5l0.1-0.7l-2.8-0.4l0.8-1.8l4.9,0.8l0.1-0.7l-4.8-0.8l0.7-1.6l5.5,0.9
					l0.1-0.7l-5.3-0.9l0.7-1.7l3.6,0.5l0.1-0.7l-3.5-0.5l0.8-1.8l4.9,0.6l0.1-0.7l-4.7-0.6l0.8-1.8l3.7,0.4l0.1-0.7l-3.5-0.3
					l0.7-1.6l5.1,0.6l0.1-0.7l-4.9-0.6l0.9-2l3.5,0.4l0.1-0.7l-3.3-0.3l0.8-1.7l7.4,0.8L157.2,129.5z M149.4,128l7.5,0.9l10.9-27.3
					l-6.4-0.7l-0.3,0.7l3.1,0.3l-0.2,1.7l-3.6-0.4l-0.5,1l4.7,0.5l-0.2,1.7l-5.2-0.6l-0.3,0.7l3.3,0.3l-0.2,1.7l-3.8-0.4l-0.4,0.8
					l4.5,0.6l-0.2,1.7l-5-0.7l-0.4,0.8l3.3,0.5l-0.2,1.7l-3.8-0.5l-0.3,0.7l5.2,0.8l-0.3,1.7l-5.6-0.9l-0.3,0.7l4.6,0.8l-0.3,1.7
					l-5.1-0.8l-0.4,0.8l2.7,0.4l-0.2,1.7l-3.1-0.5l-0.3,0.7l4.5,0.9l-0.3,1.7l-4.8-0.9l-0.3,0.7l3.5,0.6l-0.3,1.7l-3.9-0.7
					L149.4,128z M162.8,117.5l4.1-10.5l6.1,4L162.8,117.5z M167.2,107.8l-3.3,8.5l8.2-5.2L167.2,107.8z"/>
			</g>
			<g>
				<path class="st2" d="M141.5,108.4l-0.2,0.1c-0.2,0.1-0.3,0.4-0.2,0.7c0.1,0.1,0.2,0.2,0.4,0.2c0.1,0,0.2,0,0.3-0.1l0.2-0.1
					c0.2-0.1,0.3-0.4,0.2-0.7C142,108.3,141.7,108.2,141.5,108.4z"/>
				<path class="st0" d="M141.6,109.7c-0.3,0-0.5-0.1-0.6-0.4c-0.2-0.4-0.1-0.8,0.2-1l0.2-0.1c0.3-0.2,0.8-0.1,1,0.2
					c0.2,0.4,0.1,0.8-0.2,1l-0.2,0.1C141.8,109.6,141.7,109.7,141.6,109.7z M141.6,108.6l-0.2,0.1c-0.1,0.1-0.2,0.2-0.1,0.3
					c0,0.1,0.1,0.1,0.2,0.1c0,0,0.1,0,0.1,0l0.2-0.1c0.1-0.1,0.2-0.2,0.1-0.3C141.9,108.6,141.7,108.5,141.6,108.6z"/>
			</g>
			<g>
				<path class="st2" d="M144.2,106.7l-0.3,0.2c-0.2,0.1-0.3,0.4-0.2,0.7c0.1,0.2,0.4,0.3,0.7,0.2l0.3-0.2c0.2-0.1,0.3-0.4,0.2-0.7
					C144.7,106.6,144.4,106.5,144.2,106.7C144.2,106.7,144.2,106.7,144.2,106.7z"/>
				<path class="st0" d="M144.2,108c-0.2,0-0.5-0.1-0.6-0.3c-0.2-0.4-0.1-0.8,0.2-1l0.3-0.2c0.2-0.1,0.4-0.1,0.6-0.1
					c0.2,0,0.4,0.2,0.5,0.3c0.2,0.3,0.1,0.8-0.2,1l-0.3,0.2C144.4,108,144.3,108,144.2,108z M144.3,106.9l-0.3,0.2
					c-0.1,0.1-0.1,0.2-0.1,0.3c0.1,0.1,0.2,0.1,0.3,0.1l0.3-0.2c0.1-0.1,0.1-0.2,0.1-0.3c0-0.1-0.1-0.1-0.1-0.1
					C144.5,106.8,144.4,106.9,144.3,106.9L144.3,106.9L144.3,106.9z"/>
			</g>
			<g>
				<path class="st2" d="M142.9,107.5l-0.3,0.2c-0.2,0.1-0.3,0.4-0.2,0.7c0,0,0,0,0,0c0.1,0.1,0.2,0.2,0.4,0.2c0.1,0,0.2,0,0.3-0.1
					l0.3-0.2c0.2-0.1,0.3-0.4,0.2-0.7c0,0,0,0,0,0C143.4,107.5,143.1,107.4,142.9,107.5C142.9,107.5,142.9,107.5,142.9,107.5z"/>
				<path class="st0" d="M142.8,108.9c-0.3,0-0.5-0.1-0.6-0.4c-0.2-0.3-0.1-0.8,0.2-1l0.4-0.2c0.2-0.1,0.4-0.1,0.5-0.1
					c0.2,0.1,0.3,0.2,0.4,0.3l0,0c0.2,0.3,0.1,0.8-0.2,1l-0.3,0.2C143.1,108.8,142.9,108.9,142.8,108.9z M142.8,107.5l0.1,0.2
					l-0.3,0.2c-0.1,0.1-0.1,0.2-0.1,0.3c0.1,0.1,0.1,0.1,0.2,0.1c0,0,0.1,0,0.1,0l0.3-0.2c0.1-0.1,0.1-0.2,0.1-0.3
					c0-0.1-0.1-0.1-0.1-0.1c-0.1,0-0.1,0-0.2,0L142.8,107.5z M143.5,107.7L143.5,107.7l0.1-0.1L143.5,107.7z"/>
			</g>
			<g>
				<path class="st2" d="M145.8,105.8c-0.2-0.1-0.5-0.1-0.7,0.1c0,0,0,0,0,0c-0.1,0.1-0.1,0.3-0.1,0.4c0,0.1,0,0.3,0.1,0.4
					c0.1,0.1,0.2,0.2,0.4,0.2c0.1,0,0.2,0,0.3-0.1l0.2-0.1c0.1-0.1,0.2-0.2,0.2-0.4c0-0.2-0.1-0.3-0.2-0.4L145.8,105.8z"/>
				<path class="st0" d="M145.5,107.2c-0.3,0-0.5-0.1-0.6-0.4c-0.1-0.1-0.1-0.3-0.1-0.5c0-0.2,0-0.4,0.1-0.5
					c0.1-0.2,0.3-0.3,0.5-0.3c0.2,0,0.4,0,0.6,0.1l0.2,0.1c0.2,0.1,0.3,0.4,0.3,0.6c0,0.3-0.1,0.5-0.3,0.6l-0.2,0.1
					C145.8,107.1,145.7,107.2,145.5,107.2z M145.5,106C145.5,106,145.5,106,145.5,106c-0.1,0-0.2,0.1-0.2,0.1c0,0.1,0,0.1,0,0.2
					l0,0.1l0,0.1c0,0.1,0,0.1,0,0.2c0.1,0.1,0.1,0.1,0.2,0.1c0,0,0.1,0,0.1,0l0.2-0.1c0.1,0,0.1-0.1,0.1-0.2c0-0.1,0-0.2-0.1-0.2
					l-0.2-0.1C145.6,106,145.6,106,145.5,106z"/>
			</g>
			<g>
				<path class="st2" d="M143.7,105.6l0.3,0.2c0.1,0.1,0.2,0.1,0.3,0.1c0.2,0,0.3-0.1,0.4-0.2c0.1-0.2,0.1-0.5-0.1-0.7l-0.4-0.2
					c-0.2-0.1-0.5-0.1-0.7,0.1c0,0,0,0,0,0C143.4,105.1,143.5,105.5,143.7,105.6z"/>
				<path class="st0" d="M144.3,106.2c-0.1,0-0.3,0-0.4-0.1l-0.3-0.2c-0.3-0.2-0.4-0.6-0.3-1v-0.1l0.1,0c0.2-0.3,0.7-0.4,1-0.2
					l0.3,0.2c0.3,0.2,0.4,0.7,0.2,1C144.8,106,144.6,106.2,144.3,106.2z M143.8,105.1c-0.1,0.1,0,0.3,0.1,0.3l0,0l0.3,0.2
					c0.1,0.1,0.3,0,0.3-0.1c0.1-0.1,0-0.3-0.1-0.3l-0.3-0.2C144,104.9,143.9,104.9,143.8,105.1z"/>
			</g>
			<g>
				<path class="st2" d="M142.2,104c-0.1,0.2-0.1,0.5,0.1,0.7c0,0,0,0,0,0l0.2,0.1c0.1,0,0.2,0.1,0.3,0.1c0.3,0,0.5-0.2,0.5-0.5
					c0-0.2-0.1-0.3-0.2-0.4l-0.2-0.1C142.7,103.7,142.4,103.8,142.2,104C142.2,104,142.2,104,142.2,104z"/>
				<path class="st0" d="M142.8,105.1C142.8,105.1,142.8,105.1,142.8,105.1c-0.1,0-0.3,0-0.4-0.1l-0.2-0.1c-0.3-0.2-0.4-0.7-0.2-1
					l0,0c0.1-0.2,0.3-0.3,0.5-0.3c0.2,0,0.4,0,0.5,0.1l0.2,0.1c0.2,0.1,0.3,0.4,0.3,0.6c0,0.2-0.1,0.4-0.2,0.5
					C143.2,105.1,143,105.1,142.8,105.1z M142.2,104l0.2,0.1c-0.1,0.1,0,0.3,0.1,0.3l0.2,0.1c0,0,0.1,0,0.1,0l0,0
					c0.1,0,0.1,0,0.2-0.1c0,0,0.1-0.1,0.1-0.2c0-0.1,0-0.2-0.1-0.2l-0.2-0.1c-0.1,0-0.1-0.1-0.2,0c-0.1,0-0.1,0-0.1,0.1L142.2,104z"
					/>
			</g>
			<g>
				<path class="st2" d="M97.8,111.9c0.1,0,0.2,0,0.3-0.1l0.2-0.1c0.2-0.1,0.3-0.4,0.2-0.7c-0.1-0.2-0.4-0.3-0.7-0.2c0,0,0,0,0,0
					l-0.2,0.1c-0.2,0.1-0.3,0.4-0.2,0.7C97.5,111.8,97.6,111.9,97.8,111.9z"/>
				<path class="st0" d="M97.8,112.2L97.8,112.2c-0.3,0-0.5-0.1-0.6-0.3c-0.2-0.4-0.1-0.8,0.2-1l0.2-0.1c0.3-0.2,0.8-0.1,1,0.2
					c0.2,0.4,0.1,0.8-0.2,1l-0.2,0.1C98.1,112.1,97.9,112.2,97.8,112.2L97.8,112.2z M98,111.1c0,0-0.1,0-0.1,0l-0.2,0.1
					c-0.1,0.1-0.1,0.2-0.1,0.3c0,0.1,0.1,0.1,0.2,0.1c0,0,0.1,0,0.1,0l0.2-0.1c0.1-0.1,0.1-0.2,0.1-0.3
					C98.1,111.1,98.1,111.1,98,111.1z"/>
			</g>
			<g>
				<path class="st2" d="M96.4,112.8c0.1,0,0.2,0,0.3-0.1l0.3-0.2c0.2-0.1,0.3-0.4,0.2-0.7c-0.1-0.2-0.4-0.3-0.7-0.2l0,0l-0.3,0.2
					c-0.2,0.1-0.3,0.4-0.2,0.7c0,0,0,0,0,0C96.1,112.7,96.3,112.8,96.4,112.8z"/>
				<path class="st0" d="M96.4,113c-0.3,0-0.5-0.1-0.6-0.3c-0.1-0.2-0.1-0.4-0.1-0.6s0.2-0.4,0.3-0.5l0.3-0.2
					c0.2-0.1,0.4-0.1,0.6-0.1c0.2,0,0.4,0.2,0.5,0.3c0.1,0.2,0.1,0.4,0.1,0.6c0,0.2-0.2,0.4-0.3,0.5l-0.3,0.2
					C96.7,113,96.6,113,96.4,113C96.4,113,96.4,113,96.4,113z M96.7,111.8c0,0-0.1,0-0.1,0l-0.3,0.2c-0.1,0-0.1,0.1-0.1,0.1
					s0,0.1,0,0.2c0,0.1,0.1,0.1,0.2,0.1h0c0,0,0.1,0,0.1,0l0.3-0.2c0.1,0,0.1-0.1,0.1-0.2c0-0.1,0-0.1,0-0.2
					C96.9,111.9,96.8,111.9,96.7,111.8C96.8,111.8,96.7,111.8,96.7,111.8z"/>
			</g>
			<g>
				<path class="st2" d="M95.3,113.5l0.3-0.2c0.2-0.1,0.3-0.4,0.2-0.7c0,0,0,0,0,0c-0.1-0.2-0.4-0.3-0.7-0.2c0,0,0,0,0,0l-0.3,0.2
					c-0.2,0.1-0.3,0.5-0.1,0.7c0.1,0.1,0.2,0.2,0.4,0.2C95.2,113.6,95.2,113.6,95.3,113.5z"/>
				<path class="st0" d="M95.1,113.9C95.1,113.9,95.1,113.9,95.1,113.9c-0.3,0-0.5-0.1-0.6-0.3c-0.2-0.3-0.1-0.8,0.2-1l0.3-0.2
					c0.2-0.1,0.4-0.1,0.6-0.1c0.2,0,0.4,0.2,0.5,0.3c0.2,0.3,0.1,0.8-0.2,1l-0.3,0.2C95.3,113.8,95.2,113.9,95.1,113.9z M95.4,112.7
					c0,0-0.1,0-0.1,0l-0.3,0.2c-0.1,0.1-0.1,0.2-0.1,0.3c0,0.1,0.1,0.1,0.2,0.1c0,0,0.1,0,0.1,0l0.3-0.2c0.1-0.1,0.1-0.2,0.1-0.3
					C95.5,112.7,95.5,112.7,95.4,112.7C95.4,112.7,95.4,112.7,95.4,112.7z"/>
			</g>
			<g>
				<path class="st2" d="M94.4,113.5c-0.1-0.2-0.4-0.3-0.7-0.2c0,0,0,0,0,0l-0.2,0.1c-0.1,0.1-0.2,0.2-0.2,0.4
					c0,0.2,0.1,0.3,0.2,0.4l0.2,0.1c0.1,0,0.2,0.1,0.3,0.1c0.2,0,0.3-0.1,0.4-0.2c0.1-0.1,0.1-0.3,0.1-0.4
					C94.5,113.8,94.5,113.6,94.4,113.5z"/>
				<path class="st0" d="M94,114.8C94,114.8,94,114.8,94,114.8c-0.1,0-0.3,0-0.4-0.1l-0.2-0.1c-0.2-0.1-0.3-0.4-0.3-0.6
					c0-0.3,0.1-0.5,0.3-0.6l0.2-0.1c0.2-0.1,0.4-0.1,0.6-0.1c0.2,0,0.4,0.2,0.5,0.3l0,0c0.1,0.2,0.1,0.3,0.1,0.5
					c0,0.2,0,0.4-0.1,0.5C94.5,114.6,94.2,114.8,94,114.8z M94,113.5c0,0-0.1,0-0.1,0l-0.2,0.1c-0.1,0-0.1,0.1-0.1,0.2
					c0,0.1,0,0.2,0.1,0.2l0.2,0.1c0,0,0.1,0,0.1,0l0,0c0.1,0,0.1,0,0.2-0.1c0-0.1,0.1-0.1,0-0.2l0-0.1l0-0.1c0-0.1,0-0.1,0-0.2
					C94.2,113.6,94.1,113.6,94,113.5C94,113.5,94,113.5,94,113.5z"/>
			</g>
			<g>
				<path class="st2" d="M95.8,114.6l-0.3-0.2c-0.2-0.1-0.5-0.1-0.7,0.1c-0.1,0.2-0.1,0.5,0.1,0.7c0,0,0,0,0,0l0.3,0.2
					c0.1,0.1,0.2,0.1,0.3,0.1c0.2,0,0.3-0.1,0.4-0.2C96.1,115.1,96,114.8,95.8,114.6z"/>
				<path class="st0" d="M95.5,115.8c-0.1,0-0.3,0-0.4-0.1l-0.3-0.2c-0.3-0.2-0.4-0.7-0.2-1c0.2-0.3,0.7-0.4,1-0.2l0.4,0.2
					c0.3,0.2,0.4,0.7,0.2,1C96,115.6,95.8,115.8,95.5,115.8z M95.2,114.6c-0.1,0-0.2,0-0.2,0.1c-0.1,0.1,0,0.3,0.1,0.3l0.3,0.2
					c0.1,0.1,0.3,0,0.3-0.1c0.1-0.1,0-0.3-0.1-0.3l-0.3-0.2C95.3,114.6,95.2,114.6,95.2,114.6z"/>
			</g>
			<g>
				<path class="st2" d="M97.2,115.5l-0.2-0.1c-0.2-0.1-0.5-0.1-0.7,0.1c0,0,0,0,0,0c-0.1,0.2-0.1,0.5,0.1,0.7l0.2,0.1
					c0.1,0.1,0.2,0.1,0.3,0.1c0.2,0,0.3-0.1,0.4-0.2C97.5,116,97.4,115.7,97.2,115.5z"/>
				<path class="st0" d="M96.9,116.7c-0.1,0-0.3,0-0.4-0.1l-0.2-0.1c-0.3-0.2-0.4-0.6-0.3-1v0l0-0.1c0.2-0.3,0.7-0.4,1-0.2l0.2,0.1
					c0.3,0.2,0.4,0.7,0.2,1C97.4,116.5,97.2,116.7,96.9,116.7z M96.6,115.6L96.6,115.6L96.6,115.6c-0.1,0.2-0.1,0.3,0,0.4l0.2,0.1
					c0.1,0.1,0.3,0,0.3-0.1c0.1-0.1,0-0.3-0.1-0.3l-0.2-0.1C96.8,115.5,96.7,115.6,96.6,115.6z"/>
			</g>
			
				<rect x="53.1" y="291.6" transform="matrix(0.7071 -0.7071 0.7071 0.7071 -220.7324 195.7158)" class="st0" width="145.5" height="145.5"/>
			<g class="st1">
				<path class="st2" d="M112.1,399.7c-0.4,0.6-0.9,1.1-1.5,1.5c-0.7,0.4-1.4,0.5-2.3,0.5h-3.2v-8.4h3.2c0.9,0,1.7,0.2,2.3,0.5
					c0.7,0.3,1.2,0.8,1.5,1.5c0.4,0.6,0.5,1.4,0.5,2.2C112.6,398.4,112.4,399.1,112.1,399.7z M109.9,399.3c0.4-0.4,0.7-1,0.7-1.8
					c0-0.8-0.2-1.3-0.7-1.8s-1.1-0.6-1.8-0.6h-1v4.8h1C108.8,399.9,109.5,399.7,109.9,399.3z"/>
				<path class="st2" d="M115.8,393.4v8.4h-2v-8.4H115.8z"/>
				<path class="st2" d="M122.9,400.6c-0.2,0.4-0.6,0.7-1,0.9s-1,0.3-1.6,0.3c-0.9,0-1.7-0.2-2.3-0.7c-0.6-0.5-0.9-1.1-1-1.9h2.2
					c0,0.3,0.1,0.6,0.3,0.7c0.2,0.2,0.4,0.3,0.7,0.3c0.3,0,0.5-0.1,0.6-0.2c0.1-0.1,0.2-0.3,0.2-0.6c0-0.2-0.1-0.4-0.2-0.5
					s-0.3-0.3-0.5-0.4c-0.2-0.1-0.5-0.2-0.9-0.3c-0.5-0.2-1-0.4-1.3-0.5c-0.3-0.2-0.6-0.4-0.9-0.8c-0.2-0.3-0.4-0.8-0.4-1.3
					c0-0.5,0.1-0.9,0.4-1.3s0.6-0.6,1.1-0.8c0.4-0.2,1-0.3,1.5-0.3c0.9,0,1.7,0.2,2.2,0.7c0.6,0.4,0.9,1.1,0.9,1.8h-2.2
					c0-0.3-0.1-0.5-0.3-0.7c-0.2-0.2-0.4-0.2-0.7-0.2c-0.2,0-0.4,0.1-0.6,0.2c-0.1,0.1-0.2,0.3-0.2,0.6c0,0.2,0.1,0.4,0.2,0.5
					c0.1,0.1,0.3,0.3,0.5,0.3s0.5,0.2,0.9,0.3c0.5,0.2,1,0.4,1.3,0.5c0.3,0.2,0.6,0.4,0.9,0.8c0.2,0.3,0.4,0.8,0.4,1.3
					C123.2,399.8,123.1,400.2,122.9,400.6z"/>
				<path class="st2" d="M126.4,395v1.8h2.8v1.5h-2.8v1.9h3.2v1.6h-5.2v-8.4h5.2v1.6H126.4z"/>
				<path class="st2" d="M138.2,401.8h-2l-3.4-5.2v5.2h-2v-8.4h2l3.4,5.2v-5.2h2V401.8z M134.2,391.1c0.1,0.1,0.3,0.1,0.5,0.2
					c0.2,0.1,0.3,0.1,0.4,0.2c0.1,0,0.2,0.1,0.3,0.1c0.3,0,0.5-0.2,0.5-0.6h1c-0.2,1.2-0.7,1.8-1.6,1.8c-0.2,0-0.3,0-0.5-0.1
					c-0.1-0.1-0.3-0.1-0.5-0.2c-0.1-0.1-0.3-0.1-0.3-0.2c-0.1,0-0.2-0.1-0.3-0.1c-0.3,0-0.5,0.2-0.5,0.6h-1c0.2-1.2,0.7-1.8,1.6-1.8
					C133.9,391,134,391,134.2,391.1z"/>
				<path class="st2" d="M145.7,393.8c0.6,0.4,1.2,0.9,1.5,1.5c0.4,0.7,0.6,1.4,0.6,2.2c0,0.8-0.2,1.6-0.6,2.2s-0.9,1.2-1.5,1.5
					c-0.6,0.4-1.4,0.6-2.1,0.6s-1.5-0.2-2.1-0.6c-0.6-0.4-1.2-0.9-1.5-1.5s-0.6-1.4-0.6-2.2c0-0.8,0.2-1.6,0.6-2.2
					c0.4-0.7,0.9-1.2,1.5-1.5s1.4-0.6,2.1-0.6C144.4,393.2,145.1,393.4,145.7,393.8z M142,395.8c-0.4,0.4-0.6,1-0.6,1.8
					c0,0.7,0.2,1.3,0.6,1.8c0.4,0.4,0.9,0.7,1.6,0.7c0.7,0,1.2-0.2,1.6-0.7c0.4-0.4,0.6-1,0.6-1.8s-0.2-1.3-0.6-1.8
					s-0.9-0.7-1.6-0.7S142.4,395.3,142,395.8z"/>
			</g>
			<g>
				<path class="st2" d="M151,322.9H98c-3-0.2-5.5,2.1-5.7,5.1c0,0,0,0,0,0v37.7c0.2,3,2.7,5.3,5.7,5.1h20.1l-2.5,6.8h-6.2
					c-0.9-0.1-1.8,0.6-1.8,1.6c-0.1,0.9,0.6,1.8,1.6,1.8c0.1,0,0.2,0,0.3,0h30.1c0.9,0.1,1.8-0.6,1.8-1.6c0.1-0.9-0.6-1.8-1.6-1.8
					c-0.1,0-0.2,0-0.3,0h-6.2l-2.5-6.8H151c3,0.1,5.5-2.1,5.6-5.1V328C156.5,325,154,322.7,151,322.9z M119.6,377.6l2.5-6.8h4.8
					l2.5,6.8H119.6z M152.9,365.7c0,1-0.9,1.8-1.9,1.7H98c-1,0-1.8-0.7-1.9-1.7V364h56.8V365.7z M152.9,360.6H96.1V328
					c0-1,0.9-1.8,1.9-1.7c0,0,0,0,0,0h53c1,0,1.8,0.7,1.9,1.7V360.6z"/>
				<path class="st0" d="M109.3,382c-0.1,0-0.1,0-0.2,0c-1.5-0.1-2.6-1.4-2.5-2.9c0.1-1.5,1.4-2.6,2.9-2.5l5.4,0l1.8-4.8H98
					c-3.5,0.2-6.5-2.5-6.7-6l0-37.8l0-0.1c0.2-3.5,3.2-6.2,6.7-6l52.9,0c3.5-0.2,6.5,2.6,6.7,6.1l0,37.7c-0.2,3.6-3.2,6.3-6.7,6.1
					l-18.7,0l1.8,4.8h5.5c0.1,0,0.2,0,0.3,0c1.5,0.1,2.6,1.4,2.5,2.9c-0.1,0.7-0.4,1.4-0.9,1.9c-0.5,0.5-1.2,0.7-2,0.6l-30.1,0
					C109.4,382,109.3,382,109.3,382z M109.3,378.6c-0.4,0-0.7,0.3-0.8,0.7c0,0.4,0.3,0.7,0.7,0.8c0,0,0.1,0,0.1,0l30.2,0
					c0.3,0,0.4,0,0.6-0.2s0.2-0.3,0.2-0.5c0-0.4-0.3-0.7-0.7-0.8c0,0-0.1,0-0.1,0l-7,0l-3.2-8.8H151c2.4,0.1,4.5-1.8,4.7-4.2l0-37.6
					c-0.1-2.4-2.2-4.2-4.6-4.1l0,0H98c-2.5-0.1-4.6,1.7-4.7,4.2l0,37.6c0.1,2.4,2.2,4.2,4.6,4.1l21.6,0l-3.3,8.8L109.3,378.6
					C109.4,378.6,109.4,378.6,109.3,378.6z M130.9,378.6h-12.7l3.2-8.8h6.2L130.9,378.6z M121,376.6h7l-1.8-4.8h-3.4L121,376.6z
					 M97.9,368.4c-1.4,0-2.7-1.2-2.8-2.7l0-2.7h58.8l0,2.7c-0.1,1.5-1.4,2.7-2.9,2.7l-53,0C98,368.4,97.9,368.4,97.9,368.4z
					 M97.1,365v0.7c0,0.4,0.4,0.7,0.8,0.7l53,0c0.5,0,0.8-0.3,0.9-0.7V365H97.1z M153.9,361.6H95.1V328c0-0.8,0.4-1.5,0.9-2
					s1.3-0.8,2-0.7h53c1.5-0.1,2.8,1.1,2.9,2.7L153.9,361.6z M97.1,359.6h54.8V328c0-0.4-0.4-0.7-0.8-0.7l-53,0
					c-0.3,0-0.5,0.1-0.7,0.2c-0.2,0.1-0.3,0.3-0.3,0.6L97.1,359.6z"/>
			</g>
			<g>
				<path class="st2" d="M134.9,336.9l-9.7-6.8c-0.5-0.4-1.3-0.4-1.8,0l-9.7,6.8c-0.5,0.3-0.7,0.9-0.7,1.4v10.2
					c0,0.6,0.3,1.1,0.7,1.4l9.7,6.8c0.5,0.4,1.3,0.4,1.8,0l9.7-6.8c0.5-0.3,0.7-0.9,0.7-1.4v-10.2
					C135.6,337.8,135.4,337.2,134.9,336.9z M122.7,352.2l-6.5-4.5v-6.1l6.5,4.5V352.2z M124.3,343.1l-6.8-4.8l6.8-4.8l6.8,4.8
					L124.3,343.1z M132.4,347.6l-6.4,4.5V346l6.4-4.5L132.4,347.6z"/>
				<path class="st0" d="M124.3,358c-0.5,0-1-0.2-1.5-0.5l-9.7-6.8c-0.7-0.5-1.1-1.4-1.1-2.2v-10.2c0-0.9,0.4-1.7,1.1-2.2l9.7-6.8
					c0.9-0.6,2.1-0.6,3,0l9.7,6.8c0.7,0.5,1.1,1.4,1.1,2.2v10.2c0,0.9-0.4,1.7-1.1,2.2l-9.7,6.8C125.4,357.9,124.9,358,124.3,358z
					 M124.3,330.8c-0.1,0-0.2,0-0.3,0.1l-9.7,6.8c-0.2,0.1-0.3,0.4-0.3,0.6v10.2c0,0.2,0.1,0.5,0.3,0.6l9.7,6.8
					c0.2,0.1,0.5,0.1,0.6,0l9.7-6.8c0.2-0.1,0.3-0.4,0.3-0.6v-10.2c0-0.2-0.1-0.5-0.3-0.6l-9.7-6.8
					C124.6,330.8,124.5,330.8,124.3,330.8z M125,354.1v-8.6l8.5-6l-0.1,8.6L125,354.1z M127,346.5v3.7l4.4-3.1l0-3.7L127,346.5z
					 M123.7,354.1l-8.5-5.9v-8.6l8.5,5.9V354.1z M117.3,347.1l4.5,3.1v-3.7l-4.5-3.1V347.1z M124.3,344.3l-8.5-6l8.5-6l8.5,6
					L124.3,344.3z M119.3,338.3l5,3.5l5-3.5l-5-3.5L119.3,338.3z"/>
			</g>
			
				<rect x="53.1" y="529.8" transform="matrix(0.7071 -0.7071 0.7071 0.7071 -389.1793 265.4888)" class="st0" width="145.5" height="145.5"/>
			<g class="st1">
				<path class="st2" d="M85.4,632.3c0.7,0.6,1.2,1.3,1.4,2.3h-2.2c-0.2-0.4-0.4-0.7-0.7-0.9c-0.3-0.2-0.7-0.3-1.2-0.3
					c-0.6,0-1.1,0.2-1.4,0.7s-0.5,1-0.5,1.7c0,0.7,0.2,1.3,0.5,1.7s0.8,0.6,1.4,0.6c0.5,0,0.8-0.1,1.2-0.3c0.3-0.2,0.6-0.5,0.7-0.9
					h2.2c-0.2,1-0.7,1.7-1.4,2.3c-0.7,0.6-1.6,0.8-2.7,0.8c-0.8,0-1.5-0.2-2.2-0.5c-0.6-0.4-1.1-0.9-1.4-1.5
					c-0.3-0.6-0.5-1.4-0.5-2.2c0-0.8,0.2-1.6,0.5-2.2c0.3-0.6,0.8-1.2,1.4-1.5c0.6-0.4,1.3-0.5,2.2-0.5
					C83.8,631.5,84.7,631.8,85.4,632.3z"/>
				<path class="st2" d="M94.1,632c0.6,0.4,1.2,0.9,1.5,1.5c0.4,0.7,0.6,1.4,0.6,2.2c0,0.8-0.2,1.6-0.6,2.2
					c-0.4,0.7-0.9,1.2-1.5,1.5c-0.6,0.4-1.4,0.6-2.1,0.6c-0.8,0-1.5-0.2-2.1-0.6c-0.6-0.4-1.2-0.9-1.5-1.5s-0.6-1.4-0.6-2.2
					c0-0.8,0.2-1.6,0.6-2.2c0.4-0.7,0.9-1.2,1.5-1.5s1.4-0.6,2.1-0.6C92.7,631.4,93.4,631.6,94.1,632z M90.3,634
					c-0.4,0.4-0.6,1-0.6,1.8c0,0.7,0.2,1.3,0.6,1.8s0.9,0.7,1.6,0.7c0.7,0,1.2-0.2,1.6-0.7s0.6-1,0.6-1.8s-0.2-1.3-0.6-1.8
					c-0.4-0.4-0.9-0.7-1.6-0.7C91.3,633.3,90.7,633.5,90.3,634z"/>
				<path class="st2" d="M104.8,640h-2l-3.4-5.2v5.2h-2v-8.4h2l3.4,5.2v-5.2h2V640z"/>
				<path class="st2" d="M111.9,638.8c-0.2,0.4-0.6,0.7-1,0.9s-1,0.3-1.6,0.3c-0.9,0-1.7-0.2-2.3-0.7c-0.6-0.5-0.9-1.1-1-1.9h2.2
					c0,0.3,0.1,0.6,0.3,0.7c0.2,0.2,0.4,0.3,0.7,0.3c0.3,0,0.5-0.1,0.6-0.2c0.1-0.1,0.2-0.3,0.2-0.6c0-0.2-0.1-0.4-0.2-0.5
					s-0.3-0.3-0.5-0.4c-0.2-0.1-0.5-0.2-0.9-0.3c-0.5-0.2-1-0.4-1.3-0.5c-0.3-0.2-0.6-0.4-0.9-0.8c-0.2-0.3-0.4-0.8-0.4-1.3
					c0-0.5,0.1-0.9,0.4-1.3s0.6-0.6,1.1-0.8c0.4-0.2,1-0.3,1.5-0.3c0.9,0,1.7,0.2,2.2,0.7c0.6,0.4,0.9,1.1,0.9,1.8h-2.2
					c0-0.3-0.1-0.5-0.3-0.7c-0.2-0.2-0.4-0.2-0.7-0.2c-0.2,0-0.4,0.1-0.6,0.2c-0.1,0.1-0.2,0.3-0.2,0.6c0,0.2,0.1,0.4,0.2,0.5
					c0.1,0.1,0.3,0.3,0.5,0.3s0.5,0.2,0.9,0.3c0.5,0.2,1,0.4,1.3,0.5c0.3,0.2,0.6,0.4,0.9,0.8c0.2,0.3,0.4,0.8,0.4,1.3
					C112.2,638,112.1,638.5,111.9,638.8z"/>
				<path class="st2" d="M119.4,631.6v1.6h-2.3v6.8h-2v-6.8h-2.3v-1.6H119.4z"/>
				<path class="st2" d="M124.5,640l-1.8-3.2h-0.5v3.2h-2v-8.4h3.5c0.7,0,1.2,0.1,1.7,0.3c0.5,0.2,0.8,0.5,1,0.9
					c0.2,0.4,0.3,0.9,0.3,1.4c0,0.6-0.2,1.1-0.5,1.6c-0.3,0.4-0.8,0.7-1.5,0.9l2,3.3H124.5z M122.2,635.4h1.3c0.4,0,0.7-0.1,0.9-0.3
					c0.2-0.2,0.3-0.4,0.3-0.8c0-0.3-0.1-0.6-0.3-0.8c-0.2-0.2-0.5-0.3-0.9-0.3h-1.3V635.4z"/>
				<path class="st2" d="M129.7,631.6v4.8c0,0.6,0.1,1,0.4,1.3s0.6,0.4,1.1,0.4s0.8-0.1,1.1-0.4s0.4-0.7,0.4-1.3v-4.8h2v4.8
					c0,0.8-0.2,1.5-0.5,2c-0.3,0.5-0.7,1-1.3,1.2c-0.5,0.3-1.1,0.4-1.8,0.4c-0.7,0-1.3-0.1-1.8-0.4c-0.5-0.3-0.9-0.7-1.2-1.2
					c-0.3-0.5-0.4-1.2-0.4-2v-4.8H129.7z"/>
				<path class="st2" d="M142.5,632.3c0.7,0.6,1.2,1.3,1.4,2.3h-2.2c-0.2-0.4-0.4-0.7-0.7-0.9c-0.3-0.2-0.7-0.3-1.2-0.3
					c-0.6,0-1.1,0.2-1.4,0.7s-0.5,1-0.5,1.7c0,0.7,0.2,1.3,0.5,1.7s0.8,0.6,1.4,0.6c0.5,0,0.8-0.1,1.2-0.3c0.3-0.2,0.6-0.5,0.7-0.9
					h2.2c-0.2,1-0.7,1.7-1.4,2.3s-1.6,0.8-2.7,0.8c-0.8,0-1.5-0.2-2.2-0.5c-0.6-0.4-1.1-0.9-1.4-1.5c-0.3-0.6-0.5-1.4-0.5-2.2
					c0-0.8,0.2-1.6,0.5-2.2c0.3-0.6,0.8-1.2,1.4-1.5c0.6-0.4,1.3-0.5,2.2-0.5C141,631.5,141.8,631.8,142.5,632.3z"/>
				<path class="st2" d="M151.5,632.3c0.7,0.6,1.2,1.3,1.4,2.3h-2.2c-0.2-0.4-0.4-0.7-0.7-0.9c-0.3-0.2-0.7-0.3-1.2-0.3
					c-0.6,0-1.1,0.2-1.4,0.7s-0.5,1-0.5,1.7c0,0.7,0.2,1.3,0.5,1.7s0.8,0.6,1.4,0.6c0.5,0,0.8-0.1,1.2-0.3c0.3-0.2,0.6-0.5,0.7-0.9
					h2.2c-0.2,1-0.7,1.7-1.4,2.3c-0.7,0.6-1.6,0.8-2.7,0.8c-0.8,0-1.5-0.2-2.2-0.5c-0.6-0.4-1.1-0.9-1.4-1.5
					c-0.3-0.6-0.5-1.4-0.5-2.2c0-0.8,0.2-1.6,0.5-2.2s0.8-1.2,1.4-1.5c0.6-0.4,1.3-0.5,2.2-0.5C149.9,631.5,150.8,631.8,151.5,632.3
					z"/>
				<path class="st2" d="M156.1,631.6v8.4h-2v-8.4H156.1z"/>
				<path class="st2" d="M163.6,632c0.6,0.4,1.2,0.9,1.5,1.5c0.4,0.7,0.6,1.4,0.6,2.2c0,0.8-0.2,1.6-0.6,2.2
					c-0.4,0.7-0.9,1.2-1.5,1.5c-0.6,0.4-1.4,0.6-2.1,0.6c-0.8,0-1.5-0.2-2.1-0.6c-0.6-0.4-1.2-0.9-1.5-1.5c-0.4-0.7-0.6-1.4-0.6-2.2
					c0-0.8,0.2-1.6,0.6-2.2c0.4-0.7,0.9-1.2,1.5-1.5s1.4-0.6,2.1-0.6C162.3,631.4,163,631.6,163.6,632z M159.9,634
					c-0.4,0.4-0.6,1-0.6,1.8c0,0.7,0.2,1.3,0.6,1.8c0.4,0.4,0.9,0.7,1.6,0.7c0.7,0,1.2-0.2,1.6-0.7c0.4-0.4,0.6-1,0.6-1.8
					s-0.2-1.3-0.6-1.8s-0.9-0.7-1.6-0.7C160.8,633.3,160.3,633.5,159.9,634z M163.2,629.9l-2.9,1.2v-1.4l2.9-1.4V629.9z"/>
				<path class="st2" d="M174.3,640h-2l-3.4-5.2v5.2h-2v-8.4h2l3.4,5.2v-5.2h2V640z"/>
			</g>
			<g>
				<path class="st2" d="M124.4,588.5h-2.8c-0.6,0-1,0.5-1,1c0,0.6,0.5,1,1,1h2.8c0.6,0,1-0.5,1-1
					C125.5,588.9,125,588.5,124.4,588.5z"/>
				<path class="st0" d="M124.4,591h-2.8c-0.8,0-1.5-0.7-1.5-1.5s0.7-1.5,1.5-1.5h2.8c0.8,0,1.5,0.7,1.5,1.5S125.3,591,124.4,591z
					 M121.6,589c-0.3,0-0.5,0.2-0.5,0.5s0.2,0.5,0.5,0.5h2.8c0.3,0,0.5-0.2,0.5-0.5s-0.2-0.5-0.5-0.5H121.6z"/>
			</g>
			<g>
				<path class="st2" d="M124.4,592.6h-2.8c-0.6,0-1,0.5-1,1c0,0.6,0.5,1,1,1h2.8c0.6,0,1-0.5,1-1
					C125.5,593.1,125,592.6,124.4,592.6z"/>
				<path class="st0" d="M124.4,595.2h-2.8c-0.8,0-1.5-0.7-1.5-1.5s0.7-1.5,1.5-1.5h2.8c0.8,0,1.5,0.7,1.5,1.5
					S125.3,595.2,124.4,595.2z M121.6,593.1c-0.3,0-0.5,0.2-0.5,0.5s0.2,0.5,0.5,0.5h2.8c0.3,0,0.5-0.2,0.5-0.5s-0.2-0.5-0.5-0.5
					H121.6z"/>
			</g>
			<g>
				<path class="st2" d="M124.4,596.8h-2.8c-0.6,0-1,0.5-1,1c0,0.6,0.5,1,1,1h2.8c0.6,0,1-0.5,1-1
					C125.5,597.3,125,596.8,124.4,596.8z"/>
				<path class="st0" d="M124.4,599.4h-2.8c-0.8,0-1.5-0.7-1.5-1.5s0.7-1.5,1.5-1.5h2.8c0.8,0,1.5,0.7,1.5,1.5
					S125.3,599.4,124.4,599.4z M121.6,597.3c-0.3,0-0.5,0.2-0.5,0.5s0.2,0.5,0.5,0.5h2.8c0.3,0,0.5-0.2,0.5-0.5s-0.2-0.5-0.5-0.5
					H121.6z"/>
			</g>
			<g>
				<path class="st2" d="M154.6,605.2v-7.4c0.1-6.8-2.4-13.3-6.9-18.4c-4.6-4.9-11-7.7-17.7-7.7c-14.1,0-25.6,11.3-26,25.4L90.4,604
					c-0.9,0.5-1.3,1.6-0.8,2.5c0.3,0.6,0.8,0.9,1.4,1l31.9,3.8H154c1.1,0,2-0.9,2-2v-2.3C156,606.2,155.4,605.5,154.6,605.2z
					 M130,573.9c5.1,0,10.1,1.7,14.1,5c-2.7-1-5.6-1.5-8.5-1.5c-12.7,0-23.5,9.1-25.7,21.6l-3.9-1.8
					C106.4,584.2,117,573.9,130,573.9z M153.9,609.3h-30.8l-31.2-3.7L105,599l9.7,4.5c1.5,0.7,3.1,1.3,4.7,1.8
					c0.5,0.2,1.1-0.1,1.3-0.6c0.1-0.1,0.1-0.3,0.1-0.4l0,0c0-0.5-0.3-0.9-0.7-1c-1.5-0.5-3-1.1-4.4-1.7l-3.7-1.7
					c1.7-11.7,11.8-20.4,23.7-20.4c4.5,0,8.9,1.3,12.6,3.9c2.9,4.3,4.4,9.4,4.4,14.5v1.7h-7c-0.7,0-1.3,0.6-1.3,1.3v4.2H138v-4.2
					c0-0.7-0.6-1.3-1.3-1.3h-7.8c-0.7,0-1.3,0.6-1.3,1.3v4c-1.2-0.1-2.4-0.3-3.5-0.5c-0.5-0.1-1.1,0.2-1.2,0.7c0,0.1,0,0.2,0,0.3
					c0,0.5,0.3,0.9,0.8,1c2.7,0.6,5.4,0.8,8.2,0.8H154L153.9,609.3L153.9,609.3z M152.6,601.7v3.5h-6.2v-3.5H152.6z M135.9,601.7
					v3.5h-4.1c-0.7,0-1.4,0-2.1-0.1v-3.4H135.9z"/>
				<path class="st0" d="M154,611.9h-31.1l-32-3.8c-0.8-0.1-1.5-0.6-1.8-1.3c-0.6-1.2-0.1-2.6,1-3.2l13.4-6.7
					c0.5-14.3,12.1-25.5,26.5-25.6c0.1,0,0.1,0,0.2,0c6.8,0,13.3,2.8,17.9,7.8c4.6,5.1,7.1,11.8,7,18.7v7c0.8,0.4,1.4,1.3,1.4,2.2
					v2.3C156.5,610.8,155.4,611.9,154,611.9z M130.2,572.3c-0.1,0-0.1,0-0.2,0c-13.9,0-25.1,11-25.5,24.9l0,0.3l-13.9,7
					c-0.7,0.3-0.9,1.2-0.6,1.9c0.2,0.4,0.6,0.7,1.1,0.7l31.9,3.8l31,0c0.8,0,1.5-0.7,1.5-1.5v-2.3c0-0.7-0.4-1.2-1-1.4l-0.3-0.1
					v-7.7c0.1-6.7-2.3-13.1-6.8-18C142.9,575,136.7,572.3,130.2,572.3z M154,609.8h-30.9l-32.9-3.9l14.8-7.4l9.9,4.6
					c1.5,0.7,3.1,1.3,4.6,1.8c0.3,0.1,0.6,0,0.7-0.3c0-0.1,0-0.1,0-0.2c0-0.3-0.1-0.5-0.4-0.6c-1.5-0.5-3.1-1.1-4.5-1.7l-4.1-1.9
					l0.1-0.4c1.8-11.9,12.1-20.8,24.1-20.8c0.1,0,0.1,0,0.2,0c4.6,0,9,1.4,12.7,3.9l0.1,0.1c3,4.4,4.5,9.5,4.5,14.8v2.2h-7.5
					c-0.5,0-0.8,0.4-0.8,0.8v4.7h-7.2v-4.7c0-0.5-0.4-0.8-0.8-0.8h-7.8c-0.5,0-0.8,0.4-0.8,0.8v4.6l-0.6-0.1
					c-1.2-0.1-2.4-0.3-3.6-0.6c-0.1,0-0.3,0-0.4,0.1c-0.1,0.1-0.2,0.2-0.2,0.3c0,0,0,0.1,0,0.1c0,0.3,0.2,0.5,0.4,0.5
					c2.7,0.5,5.4,0.8,8.1,0.8h22.7l0,2.7l-0.1,0.4L154,609.8z M93.6,605.2l29.5,3.5l30.3,0v-1.1h-21.7c-2.8,0-5.5-0.3-8.3-0.8
					c-0.7-0.1-1.2-0.8-1.2-1.5c0-0.1,0-0.2,0-0.4c0.2-0.8,1-1.3,1.8-1.1c0.9,0.2,1.9,0.3,2.9,0.5v-3.4c0-1,0.8-1.8,1.8-1.8h7.8
					c1,0,1.8,0.8,1.8,1.8v3.7h5.2v-3.7c0-1,0.8-1.8,1.8-1.8h6.5v-1.2c0.1-5.1-1.4-10-4.2-14.2c-3.6-2.4-7.8-3.7-12.1-3.7
					c-0.1,0-0.1,0-0.2,0c-11.4,0-21.3,8.4-23.1,19.6l3.4,1.6c1.4,0.7,2.9,1.2,4.4,1.7c0.7,0.2,1.1,0.8,1.1,1.5c0,0.2,0,0.4-0.1,0.6
					c-0.3,0.8-1.2,1.2-1.9,0.9c-1.6-0.5-3.2-1.1-4.7-1.8l-9.4-4.4L93.6,605.2z M153.1,605.6h-7.2v-4.5h7.2V605.6z M146.8,604.6h5.2
					v-2.5h-5.2V604.6z M136.4,605.6h-4.6c-0.7,0-1.4,0-2.2-0.1l-0.5,0v-4.4h7.2V605.6z M130.2,604.6c0.5,0,1.1,0,1.6,0h3.6v-2.5
					h-5.2V604.6z M110.3,599.7l-4.8-2.2l0-0.3c0.4-13.3,11.2-23.8,24.5-23.8c0.1,0,0.1,0,0.2,0c5.2,0,10.2,1.8,14.2,5.1l2.3,1.9
					l-2.7-1c-2.7-1-5.4-1.5-8.2-1.5c0,0-0.1,0-0.1,0c-12.4,0-23,8.9-25.1,21.2L110.3,599.7z M106.5,596.9l3,1.4
					c2.5-12.4,13.3-21.4,26-21.4c0,0,0.1,0,0.1,0c1.9,0,3.8,0.2,5.7,0.7c-3.4-2.1-7.4-3.2-11.3-3.2h0c0,0,0,0,0,0
					C117.3,574.4,107.1,584.2,106.5,596.9z"/>
			</g>
			<g class="st1">
				<path class="st3" d="M182.2,232.9c0-1.6,0.3-2.9,1-3.8c0.7-0.9,1.7-1.4,3.1-1.4c1.4,0,2.5,0.5,3.1,1.4c0.7,0.9,1,2.2,1,3.8
					c0,1.6-0.3,2.9-1,3.8s-1.7,1.4-3.1,1.4c-1.4,0-2.5-0.5-3.1-1.4C182.5,235.7,182.2,234.5,182.2,232.9z M187.9,232.9
					c0-0.9-0.1-1.6-0.3-2.1c-0.2-0.5-0.6-0.7-1.3-0.7c-0.7,0-1.1,0.2-1.3,0.7c-0.2,0.5-0.3,1.2-0.3,2.1c0,0.9,0.1,1.6,0.3,2.1
					c0.2,0.5,0.7,0.8,1.3,0.8c0.6,0,1.1-0.2,1.3-0.8C187.8,234.5,187.9,233.8,187.9,232.9z"/>
				<path class="st3" d="M191.1,230.1v-2.3h4.2v10.3h-2.6v-8H191.1z"/>
				<path class="st3" d="M199.1,235.6v2.5h-2.6v-2.5H199.1z"/>
			</g>
			<rect x="125.5" y="237.4" class="st4" width="47.5" height="1"/>
			<g class="st1">
				<path class="st3" d="M181.2,474.9c0-1.6,0.3-2.9,1-3.8c0.7-0.9,1.7-1.4,3.1-1.4c1.4,0,2.5,0.5,3.1,1.4c0.7,0.9,1,2.2,1,3.8
					c0,1.6-0.3,2.9-1,3.8s-1.7,1.4-3.1,1.4c-1.4,0-2.5-0.5-3.1-1.4C181.5,477.7,181.2,476.5,181.2,474.9z M186.9,474.9
					c0-0.9-0.1-1.6-0.3-2.1c-0.2-0.5-0.6-0.7-1.3-0.7c-0.7,0-1.1,0.2-1.3,0.7c-0.2,0.5-0.3,1.2-0.3,2.1c0,0.9,0.1,1.6,0.3,2.1
					c0.2,0.5,0.7,0.8,1.3,0.8c0.6,0,1.1-0.2,1.3-0.8C186.8,476.5,186.9,475.8,186.9,474.9z"/>
				<path class="st3" d="M195.1,472.9c0-0.8-0.3-1.2-1-1.2c-0.4,0-0.7,0.1-0.9,0.4c-0.2,0.3-0.3,0.7-0.3,1.3h-2.4
					c0.1-1.3,0.4-2.2,1.1-2.8c0.7-0.6,1.6-0.9,2.7-0.9c1.1,0,2,0.3,2.5,0.8c0.6,0.6,0.9,1.3,0.9,2.2c0,1-0.4,2-1.2,2.9
					c-0.8,1-1.7,1.8-2.8,2.4h4.1v2h-7.3v-1.9C193.5,475.9,195.1,474.2,195.1,472.9z"/>
				<path class="st3" d="M201.2,477.6v2.5h-2.6v-2.5H201.2z"/>
			</g>
			<rect x="124.5" y="479.4" class="st4" width="47.5" height="1"/>
			<g class="st1">
				<path class="st3" d="M181.2,710.9c0-1.6,0.3-2.9,1-3.8c0.7-0.9,1.7-1.4,3.1-1.4c1.4,0,2.5,0.5,3.1,1.4c0.7,0.9,1,2.2,1,3.8
					c0,1.6-0.3,2.9-1,3.8s-1.7,1.4-3.1,1.4c-1.4,0-2.5-0.5-3.1-1.4C181.5,713.7,181.2,712.5,181.2,710.9z M186.9,710.9
					c0-0.9-0.1-1.6-0.3-2.1c-0.2-0.5-0.6-0.7-1.3-0.7c-0.7,0-1.1,0.2-1.3,0.7c-0.2,0.5-0.3,1.2-0.3,2.1c0,0.9,0.1,1.6,0.3,2.1
					c0.2,0.5,0.7,0.8,1.3,0.8c0.6,0,1.1-0.2,1.3-0.8C186.8,712.5,186.9,711.8,186.9,710.9z"/>
				<path class="st3" d="M196.2,705.7c0.5,0.2,0.9,0.6,1.2,1s0.4,0.9,0.4,1.5c0,0.7-0.2,1.2-0.5,1.6c-0.3,0.4-0.8,0.7-1.3,0.8v0.1
					c1.3,0.4,2,1.3,2,2.5c0,0.6-0.1,1.1-0.4,1.6c-0.3,0.5-0.7,0.8-1.2,1.1c-0.5,0.3-1.1,0.4-1.9,0.4c-1.2,0-2.1-0.3-2.8-0.9
					c-0.7-0.6-1.1-1.5-1.1-2.7h2.4c0,0.5,0.1,0.8,0.4,1.1c0.2,0.3,0.6,0.4,1,0.4c0.4,0,0.6-0.1,0.9-0.3s0.3-0.5,0.3-0.8
					c0-0.8-0.6-1.3-1.8-1.3h-0.5v-2h0.5c1.1,0,1.6-0.4,1.6-1.2c0-0.4-0.1-0.6-0.3-0.8s-0.4-0.3-0.8-0.3c-0.3,0-0.6,0.1-0.8,0.4
					s-0.3,0.6-0.3,1h-2.4c0-1.1,0.4-1.9,1-2.5c0.6-0.6,1.5-0.9,2.7-0.9C195.1,705.4,195.7,705.5,196.2,705.7z"/>
				<path class="st3" d="M201.8,713.6v2.5h-2.6v-2.5H201.8z"/>
			</g>
			<rect x="124.5" y="715.4" class="st4" width="47.5" height="1"/>
		</g>
	</g>
</g>
</svg>
