<?xml version="1.0" encoding="utf-8"?>
<!-- Generator: Adobe Illustrator 22.1.0, SVG Export Plug-In . SVG Version: 6.00 Build 0)  -->
<svg version="1.0" id="Layer_1" xmlns="http://www.w3.org/2000/svg" xmlns:xlink="http://www.w3.org/1999/xlink" x="0px" y="0px"
	 viewBox="0 0 233 73" style="enable-background:new 0 0 233 73;" xml:space="preserve">
<style type="text/css">
	.st0{fill:#FFFFFF;}
</style>
<g>
	<path class="st0" d="M24.1,28.5c0,5.2,0,10.3,0,15.5c0.3,0,0.6,0,0.9,0c0.4,0,0.5-0.1,0.5-0.5c0-4.2,0-8.4,0-12.7
		c0-0.1,0-0.3,0-0.4c0.2,0.1,0.2,0.2,0.3,0.3c1.8,2.9,3.6,5.9,5.4,8.8c0.4,0.6,0.7,0.6,1.1,0c1.8-2.9,3.6-5.9,5.3-8.8
		c0.1-0.1,0.2-0.2,0.3-0.3c0,0,0.1,0,0.1,0c0,0.1,0,0.2,0,0.4c0,4.1,0,8.2,0,12.4c0,1-0.1,0.8,0.8,0.8c0.4,0,0.6-0.1,0.6-0.5
		c0-4.8,0-9.7,0-14.5c0-0.1,0-0.3,0-0.5c-0.6,0-1.1,0-1.6,0c-0.3,0-0.4,0.1-0.6,0.3c-1.7,3-3.4,6-5.1,9c-0.1,0.1-0.2,0.3-0.3,0.4
		c-0.1-0.2-0.2-0.3-0.2-0.4c-1.7-3-3.4-6-5.2-9c-0.1-0.2-0.3-0.3-0.5-0.3C25.3,28.5,24.7,28.5,24.1,28.5z M74.2,44.1
		c-0.1-0.2-0.1-0.4-0.2-0.5c-1.9-4.7-3.9-9.4-5.8-14c-0.4-1-0.4-1-1.5-1c-0.3,0-0.4,0.1-0.5,0.4c-2.1,4.9-4.2,9.8-6.3,14.7
		c-0.1,0.1-0.1,0.3-0.2,0.5c0.4,0,0.8,0,1.1,0c0.2,0,0.4-0.2,0.4-0.3c0.5-1.1,1-2.2,1.4-3.4c0.1-0.3,0.3-0.5,0.7-0.5
		c2.4,0,4.8,0,7.1,0c0.4,0,0.6,0.1,0.7,0.5c0.4,1.1,0.9,2.2,1.3,3.3c0.1,0.1,0.2,0.3,0.3,0.3C73.3,44.1,73.7,44.1,74.2,44.1z
		 M124.2,44.1c-0.1-0.2-0.1-0.3-0.2-0.4c-2-4.7-3.9-9.5-5.9-14.2c-0.4-0.9-0.4-0.9-1.4-0.9c-0.3,0-0.5,0.1-0.6,0.4
		c-1.7,4-3.4,8-5.1,12c-0.4,1-0.9,2-1.3,3.1c0.4,0,0.7,0,1.1,0c0.3,0,0.4-0.1,0.5-0.4c0.5-1.1,0.9-2.3,1.4-3.4
		c0.1-0.2,0.2-0.4,0.5-0.4c2.5,0,5,0,7.4,0c0.3,0,0.4,0.1,0.5,0.3c0.5,1.2,0.9,2.3,1.4,3.5c0.1,0.1,0.2,0.3,0.3,0.3
		C123.3,44.1,123.7,44.1,124.2,44.1z M159.3,28.5c0,0.2,0,0.4,0,0.5c0,2.8,0,5.6,0,8.4c0,0.8-0.1,1.6-0.2,2.3
		c-0.3,1.6-1.3,3.1-3.2,3.4c-2.1,0.3-3.7-0.5-4.5-2.5c-0.4-1-0.4-2-0.5-3c0-2.8,0-5.7,0-8.5c0-0.2,0-0.3,0-0.5c-0.5,0-0.9,0-1.4,0
		c0,0.1,0,0.2,0,0.4c0,3,0,6.1,0,9.1c0,0.7,0.1,1.4,0.2,2.1c0.3,1.7,1.2,3.1,2.8,3.9c1.1,0.5,2.2,0.6,3.3,0.5c2-0.2,3.5-1.2,4.2-3.1
		c0.4-1,0.6-2.2,0.6-3.3c0-3,0-6.1,0-9.1c0-0.1,0-0.3,0-0.4C160.2,28.5,159.8,28.5,159.3,28.5z M196.6,29.8
		c-0.1,0.2-0.2,0.4-0.3,0.5c-2.8,4-5.5,8.1-8.3,12.1c-0.2,0.4-0.3,0.7-0.3,1.1c0,0.4,0.1,0.5,0.5,0.5c3.2,0,6.5,0,9.7,0
		c0.9,0,0.7,0.1,0.8-0.8c0-0.4-0.1-0.5-0.5-0.5c-2.7,0-5.4,0-8.2,0c-0.2,0-0.3,0-0.5,0c0.1-0.1,0.1-0.2,0.2-0.3
		c2.8-4.1,5.6-8.1,8.4-12.1c0.4-0.6,0.4-1.1,0.4-1.8c-3.5,0-7.1,0-10.6,0c0,0.2,0,0.5,0,0.7c0,0.6,0,0.6,0.6,0.6c2.5,0,5.1,0,7.6,0
		C196.1,29.8,196.3,29.8,196.6,29.8z M178.3,29.8c-0.1,0.2-0.2,0.4-0.3,0.5c-2.7,4-5.5,8-8.2,12c-0.3,0.4-0.4,0.7-0.4,1.2
		c0,0.4,0.1,0.5,0.5,0.5c3.2,0,6.5,0,9.7,0c0.9,0,0.8,0.1,0.8-0.8c0-0.4-0.1-0.5-0.5-0.5c-2.7,0-5.4,0-8.2,0c-0.2,0-0.3,0-0.5,0
		c0.1-0.2,0.2-0.3,0.2-0.3c2.8-4.1,5.6-8.2,8.5-12.3c0.4-0.5,0.3-1,0.3-1.6c-3.5,0-7.1,0-10.6,0c0,0.3,0,0.5,0,0.7
		c0,0.4,0.1,0.5,0.5,0.5c2.6,0,5.1,0,7.7,0C177.8,29.8,178,29.8,178.3,29.8z M94.6,28.5c0,0.2,0,0.4,0,0.5c0,4.7,0,9.4,0,14.1
		c0,0.9,0,0.9,0.9,0.9c0.3,0,0.5-0.1,0.5-0.5c0-2.1,0-4.2,0-6.4c0-0.6,0-0.6,0.6-0.6c1.3,0,2.6,0,3.9-0.1c2.1-0.2,3.4-1.6,3.5-3.8
		c0.1-1.7-0.7-3.1-2.2-3.7c-0.8-0.3-1.6-0.5-2.5-0.5c-1.4-0.1-2.8,0-4.2,0C94.9,28.5,94.8,28.5,94.6,28.5z M132.8,28.5
		c0,0.1,0,0.2,0,0.3c0,5,0,9.9,0,14.9c0,0.3,0.1,0.4,0.4,0.4c2.4,0,4.9,0,7.3,0c0.9,0,0.8,0.1,0.8-0.8c0-0.4-0.1-0.5-0.5-0.5
		c-2.1,0-4.1,0-6.2,0c-0.4,0-0.5-0.1-0.5-0.5c0-4.4,0-8.8,0-13.2c0-0.2,0-0.3,0-0.5C133.7,28.5,133.3,28.5,132.8,28.5z M208.9,44.1
		c0-5.2,0-10.4,0-15.5c-0.5,0-0.9,0-1.4,0c0,0.1,0,0.2,0,0.4c0,4.9,0,9.8,0,14.7c0,0.1,0,0.2,0,0.2c0.1,0.1,0.1,0.2,0.2,0.2
		C208.1,44.1,208.5,44.1,208.9,44.1z M49.7,28.5c0,0.2,0,0.4,0,0.5c0,4.7,0,9.4,0,14.1c0,0.9,0,0.8,0.9,0.9c0.4,0,0.5-0.1,0.5-0.5
		c0-4.9,0-9.7,0-14.6c0-0.1,0-0.3,0-0.4C50.7,28.5,50.2,28.5,49.7,28.5z"/>
	<path d="M24.1,28.5c0.6,0,1.2,0,1.7,0c0.3,0,0.4,0.1,0.5,0.3c1.7,3,3.4,6,5.2,9c0.1,0.1,0.1,0.2,0.2,0.4c0.1-0.2,0.2-0.3,0.3-0.4
		c1.7-3,3.4-6,5.1-9c0.1-0.2,0.3-0.3,0.6-0.3c0.5,0,1,0,1.6,0c0,0.2,0,0.3,0,0.5c0,4.8,0,9.7,0,14.5c0,0.4-0.1,0.6-0.6,0.5
		c-1,0-0.8,0.1-0.8-0.8c0-4.1,0-8.2,0-12.4c0-0.1,0-0.2,0-0.4c0,0-0.1,0-0.1,0c-0.1,0.1-0.2,0.2-0.3,0.3c-1.8,2.9-3.6,5.9-5.3,8.8
		c-0.4,0.6-0.7,0.6-1.1,0c-1.8-2.9-3.6-5.9-5.4-8.8c-0.1-0.1-0.1-0.2-0.3-0.3c0,0.1,0,0.3,0,0.4c0,4.2,0,8.4,0,12.7
		c0,0.4-0.1,0.5-0.5,0.5c-0.3,0-0.6,0-0.9,0C24.1,38.9,24.1,33.7,24.1,28.5z"/>
	<path d="M74.2,44.1c-0.5,0-0.9,0-1.3,0c-0.1,0-0.3-0.2-0.3-0.3c-0.5-1.1-0.9-2.2-1.3-3.3c-0.1-0.3-0.3-0.5-0.7-0.5
		c-2.4,0-4.8,0-7.1,0c-0.4,0-0.6,0.1-0.7,0.5c-0.4,1.1-0.9,2.2-1.4,3.4C61.2,43.9,61,44,60.8,44c-0.3,0-0.7,0-1.1,0
		c0.1-0.2,0.1-0.3,0.2-0.5c2.1-4.9,4.2-9.8,6.3-14.7c0.1-0.3,0.2-0.4,0.5-0.4c1.1,0,1.1,0,1.5,1c1.9,4.7,3.9,9.4,5.8,14
		C74.1,43.7,74.1,43.8,74.2,44.1z M63.4,38.6c2.4,0,4.7,0,7,0c-1.1-2.8-2.3-5.6-3.4-8.4c0,0-0.1,0-0.1,0
		C65.8,33,64.6,35.8,63.4,38.6z"/>
	<path d="M124.2,44.1c-0.5,0-0.9,0-1.3,0c-0.1,0-0.3-0.2-0.3-0.3c-0.5-1.1-0.9-2.3-1.4-3.5c-0.1-0.3-0.2-0.3-0.5-0.3
		c-2.5,0-5,0-7.4,0c-0.3,0-0.4,0.1-0.5,0.4c-0.5,1.1-1,2.3-1.4,3.4c-0.1,0.3-0.3,0.4-0.5,0.4c-0.3,0-0.7,0-1.1,0
		c0.5-1.1,0.9-2.1,1.3-3.1c1.7-4,3.4-8,5.1-12c0.1-0.3,0.3-0.4,0.6-0.4c1,0,1,0,1.4,0.9c2,4.7,3.9,9.5,5.9,14.2
		C124.1,43.7,124.2,43.8,124.2,44.1z M113.5,38.6c2.4,0,4.7,0,7,0c-1.2-2.8-2.3-5.6-3.4-8.4c0,0-0.1,0-0.1,0
		C115.8,33,114.7,35.8,113.5,38.6z"/>
	<path d="M159.3,28.5c0.5,0,0.9,0,1.4,0c0,0.2,0,0.3,0,0.4c0,3,0,6.1,0,9.1c0,1.1-0.1,2.2-0.6,3.3c-0.8,1.9-2.3,2.8-4.2,3.1
		c-1.1,0.1-2.3,0-3.3-0.5c-1.6-0.8-2.5-2.1-2.8-3.9c-0.1-0.7-0.2-1.4-0.2-2.1c0-3,0-6.1,0-9.1c0-0.1,0-0.2,0-0.4c0.4,0,0.9,0,1.4,0
		c0,0.2,0,0.4,0,0.5c0,2.8,0,5.7,0,8.5c0,1,0.1,2.1,0.5,3c0.8,2,2.4,2.8,4.5,2.5c1.9-0.3,2.9-1.8,3.2-3.4c0.1-0.8,0.2-1.5,0.2-2.3
		c0-2.8,0-5.6,0-8.4C159.3,28.9,159.3,28.8,159.3,28.5z"/>
	<path d="M196.6,29.8c-0.3,0-0.4,0-0.6,0c-2.5,0-5.1,0-7.6,0c-0.6,0-0.6,0-0.6-0.6c0-0.2,0-0.4,0-0.7c3.5,0,7.1,0,10.6,0
		c0.1,0.6,0,1.2-0.4,1.8c-2.8,4-5.6,8.1-8.4,12.1c0,0.1-0.1,0.1-0.2,0.3c0.2,0,0.4,0,0.5,0c2.7,0,5.4,0,8.2,0c0.4,0,0.5,0.1,0.5,0.5
		c0,0.9,0.1,0.8-0.8,0.8c-3.2,0-6.5,0-9.7,0c-0.4,0-0.5-0.1-0.5-0.5c0-0.4,0.1-0.8,0.3-1.1c2.8-4,5.5-8.1,8.3-12.1
		C196.3,30.2,196.4,30,196.6,29.8z"/>
	<path d="M178.3,29.8c-0.3,0-0.4,0-0.6,0c-2.6,0-5.1,0-7.7,0c-0.4,0-0.6-0.1-0.5-0.5c0-0.2,0-0.5,0-0.7c3.5,0,7.1,0,10.6,0
		c0,0.5,0.1,1.1-0.3,1.6c-2.8,4.1-5.7,8.2-8.5,12.3c-0.1,0.1-0.1,0.2-0.2,0.3c0.2,0,0.4,0,0.5,0c2.7,0,5.4,0,8.2,0
		c0.4,0,0.5,0.1,0.5,0.5c0,0.9,0.1,0.8-0.8,0.8c-3.2,0-6.5,0-9.7,0c-0.4,0-0.5-0.1-0.5-0.5c0-0.5,0.1-0.8,0.4-1.2
		c2.7-4,5.5-8,8.2-12C178,30.2,178.1,30,178.3,29.8z"/>
	<path d="M94.6,28.5c0.2,0,0.3,0,0.4,0c1.4,0,2.8-0.1,4.2,0c0.8,0.1,1.7,0.2,2.5,0.5c1.6,0.6,2.4,2,2.2,3.7
		c-0.1,2.1-1.4,3.5-3.5,3.8c-1.3,0.1-2.6,0.1-3.9,0.1c-0.6,0-0.6,0-0.6,0.6c0,2.1,0,4.2,0,6.4c0,0.4-0.1,0.5-0.5,0.5
		c-0.9,0-0.9,0-0.9-0.9c0-4.7,0-9.4,0-14.1C94.6,28.9,94.6,28.7,94.6,28.5z M96,32.6c0,0.8,0,1.6,0,2.4c0,0.2,0.1,0.4,0.4,0.4
		c1,0,2.1,0,3.1,0c0.8,0,1.6-0.2,2.2-0.7c0.9-0.8,1-1.8,0.7-2.8c-0.3-1.1-1.1-1.7-2.2-1.9c-1.3-0.2-2.6-0.1-4-0.2
		C96,29.8,96,30,96,30.2C96,31,96,31.8,96,32.6z"/>
	<path d="M132.8,28.5c0.5,0,0.9,0,1.4,0c0,0.2,0,0.3,0,0.5c0,4.4,0,8.8,0,13.2c0,0.4,0.1,0.5,0.5,0.5c2.1,0,4.1,0,6.2,0
		c0.4,0,0.5,0.1,0.5,0.5c0,0.9,0.1,0.8-0.8,0.8c-2.4,0-4.9,0-7.3,0c-0.3,0-0.4,0-0.4-0.4c0-5,0-9.9,0-14.9
		C132.8,28.7,132.8,28.6,132.8,28.5z"/>
	<path d="M208.9,44.1c-0.4,0-0.8,0-1.1,0c-0.1,0-0.2-0.1-0.2-0.2c0-0.1,0-0.1,0-0.2c0-4.9,0-9.8,0-14.7c0-0.1,0-0.2,0-0.4
		c0.5,0,0.9,0,1.4,0C208.9,33.7,208.9,38.8,208.9,44.1z"/>
	<path d="M49.7,28.5c0.5,0,0.9,0,1.4,0c0,0.2,0,0.3,0,0.4c0,4.9,0,9.7,0,14.6c0,0.4-0.1,0.5-0.5,0.5c-0.9,0-0.9,0-0.9-0.9
		c0-4.7,0-9.4,0-14.1C49.7,28.9,49.7,28.7,49.7,28.5z"/>
	<path class="st0" d="M63.4,38.6c1.2-2.8,2.3-5.6,3.5-8.4c0,0,0.1,0,0.1,0c1.1,2.8,2.2,5.5,3.4,8.4C68.1,38.6,65.8,38.6,63.4,38.6z"
		/>
	<path class="st0" d="M113.5,38.6c1.2-2.8,2.3-5.6,3.5-8.4c0,0,0.1,0,0.1,0c1.1,2.8,2.3,5.6,3.4,8.4
		C118.1,38.6,115.8,38.6,113.5,38.6z"/>
	<path class="st0" d="M96,32.6c0-0.8,0-1.6,0-2.4c0-0.2,0-0.4,0.3-0.4c1.3,0,2.7,0,4,0.2c1.1,0.1,1.9,0.8,2.2,1.9
		c0.3,1.1,0.1,2.1-0.7,2.8c-0.6,0.5-1.4,0.7-2.2,0.7c-1,0-2.1,0-3.1,0c-0.3,0-0.4-0.1-0.4-0.4C96,34.2,96,33.4,96,32.6z"/>
</g>
</svg>
