<?xml version="1.0" encoding="utf-8"?>
<!-- Generator: Adobe Illustrator 22.1.0, SVG Export Plug-In . SVG Version: 6.00 Build 0)  -->
<svg version="1.1" id="Layer_1" xmlns="http://www.w3.org/2000/svg" xmlns:xlink="http://www.w3.org/1999/xlink" x="0px" y="0px"
	 viewBox="0 0 233 73" style="enable-background:new 0 0 233 73;" xml:space="preserve">
<style type="text/css">
	.st0{fill:#3D3D3D;}
	.st1{fill:#FFFFFF;}
</style>
<title>Asset 14</title>
<g id="Layer_2_1_">
	<g id="Layer_1-2">
		<g id="_Group_">
			<path id="_Path_" class="st0" d="M106,34c0.5,2.5,1,4.9,1.5,7.4l0.6,2.8c0.3-0.5,0.5-1.1,0.5-1.8c0.5-2.8,1-5.6,1.5-8.5
				c0.1-0.6,0.4-0.9,1-0.9c0.9,0.1,1.8,0,2.7,0c0.5,0,0.7,0.1,0.7,0.6c0,5.1,0,10.1,0,15.2c0,0.5-0.2,0.7-0.7,0.7
				c-0.5,0-0.9,0-1.4,0c-0.6,0.1-0.9-0.2-0.8-0.8c0-2.3,0-4.6,0-6.9c0-1.1,0-2.2-0.1-3.3c-0.2,0.9-0.3,1.8-0.5,2.6
				c-0.5,2.5-0.9,5.1-1.3,7.6c-0.1,0.6-0.3,0.8-0.9,0.7c-0.5,0-1,0-1.5,0c-0.5,0-0.7-0.2-0.8-0.6c-0.7-3.5-1.3-6.9-2-10.4
				c-0.6,0.1-0.4,0.7-0.3,0.8c0.1,0.6,0.2,1.1,0.1,1.7c0,1.9,0,3.9,0,5.8c0,0.7-0.2,1.5-0.1,2.2c0,0.3-0.2,0.4-0.5,0.4
				c-0.3,0-0.4,0-0.7,0c-1.2,0-1.2,0-1.2-1.2V33.8c0-0.7,0-0.7,0.8-0.7c0.8,0,1.5,0,2.2,0C105.8,33.1,105.7,33.2,106,34z"/>
			<path id="_Path_2" class="st0" d="M123.7,49.8c-1.6,0.6-3.4,0.4-4.9-0.4c-0.4-0.2-0.7-0.5-0.9-0.8c-0.6-1.2-0.9-2.6-0.8-4
				c0.1-2.7,0-5.4,0-8c0-0.4,0-0.9,0.1-1.3c0-0.1,0-0.3,0.1-0.4c0.5-0.2,0.4-0.8,0.7-1.1c0.5-0.6,1.2-1.1,2-1.2
				c1.1-0.3,2.3-0.3,3.5,0c0.6,0.1,1.1,0.4,1.5,0.9c0.3,0.5,0.7,1,1,1.5c0.2,0.6,0.3,1.2,0.3,1.8c0,2.9,0,5.8,0,8.7
				c0.1,1.4-0.4,2.7-1.4,3.7C124.5,49.3,124.1,49.7,123.7,49.8z"/>
			<path id="_Path_3" class="st0" d="M110.5,30.2c-1.7,0-1.3,0.3-1.7-1.3c-0.3-1,0-1-1.2-1c-0.7,0-1.4,0-2.1,0
				c-0.3,0-0.5,0.1-0.6,0.5c0,0.1,0,0.1,0,0.2c-0.2,0.5,0,1.3-0.5,1.5c-0.7,0.2-1.4,0.2-2.1,0.1c-0.4,0-0.3-0.3-0.3-0.6
				c0.6-2.7,1.2-5.3,1.8-7.9c0.2-1.2,0.5-2.4,0.8-3.6c0.1-0.4,0.2-0.6,0.7-0.6c1,0,2.1,0,3.2,0c0.3,0,0.6,0.2,0.6,0.5c0,0,0,0,0,0
				c0.9,3.9,1.8,7.8,2.7,11.6c0.1,0.5-0.1,0.5-0.5,0.5H110.5z"/>
			<path id="_Path_4" class="st0" d="M131.3,42c0,4.3,0,8.5,0,12.8c0,0.6-0.1,0.8-0.8,0.8c-2.1,0-4.3,0-6.4,0
				c-0.6,0-0.8-0.2-0.8-0.8s0.2-0.8,0.8-0.8c1.6,0,3.3,0,4.9,0c0.5,0,0.7-0.1,0.7-0.7c0-7.6,0-15.1,0-22.7c0-0.7-0.3-0.7-0.8-0.7
				h-9.6c-0.8,0-1.1-0.5-0.8-1.3c0.1-0.3,0.3-0.2,0.6-0.2h4.1c2.5,0,5,0,7.5,0c0.6,0,0.7,0.2,0.7,0.8
				C131.3,33.4,131.3,37.7,131.3,42z"/>
			<path id="_Path_5" class="st0" d="M114.7,30.5c-0.9,0-1.7-0.7-1.7-1.7c0-0.9,0.8-1.7,1.7-1.7c0.9,0,1.7,0.8,1.7,1.7c0,0,0,0,0,0
				C116.4,29.7,115.6,30.5,114.7,30.5z"/>
			<path id="_Path_6" class="st0" d="M106,34c-0.1,0-0.2,0-0.2-0.1c-0.2-0.4-0.6-0.7-1-0.6c-0.7,0-1.4,0-2.1,0
				c-0.7,0-0.9,0.2-0.9,0.9c0,3.1,0,6.2,0,9.2c0,1.7,0,3.3,0,5c0,0.4,0,0.8,0.4,0.9c0.5,0.2,1,0.2,1.5,0c0.1,0,0.2-0.2,0.2-0.3
				c0.1-0.7,0.2-1.4,0.3-2.1c0-1.9,0-3.7,0-5.6c0-0.6,0-1.2-0.2-1.8c-0.1-0.4-0.2-0.8,0.5-0.9c-0.2,0.3-0.1,0.6-0.1,0.8
				c0,3.2,0,6.3,0,9.4c0,0.6-0.2,0.8-0.8,0.8c-0.5,0-1,0-1.5,0c-0.3,0-0.5-0.1-0.5-0.5c0-0.5,0-1,0-1.5V34c0-0.9,0-0.9,1-0.9h2.4
				C106,33.1,106,33.1,106,34z"/>
			<path id="_Path_7" class="st0" d="M117.2,35.3c0,3.4,0,6.8,0,10.2c-0.1,0.7,0.1,1.4,0.4,2c0.2,0.3,0.3,0.8,0.2,1.2
				c-0.6-0.7-0.9-1.6-0.9-2.6c0-3.2,0-6.4,0-9.6C117,36,117.1,35.6,117.2,35.3z"/>
			<path id="_Path_8" class="st0" d="M126,34.9c-0.4-0.5-1.1-0.7-1-1.5C125.5,33.8,125.9,34.3,126,34.9z"/>
			<path id="_Path_9" class="st0" d="M118,33.7c0,0.6,0,1-0.7,1.1C117.4,34.4,117.7,34,118,33.7z"/>
			<path id="_Path_10" class="st0" d="M123.7,49.8c0.4-0.3,0.7-0.7,1.3-0.7C124.6,49.5,124.1,49.8,123.7,49.8z"/>
			<path id="_Path_11" class="st1" d="M123.2,41.2c0,1.6,0,3.2,0,4.8c0.1,0.8-0.5,1.5-1.3,1.7c-0.2,0-0.3,0-0.5,0
				c-0.7,0-1.3-0.5-1.3-1.2c0-0.2,0-0.5,0-0.7v-8.8c0-0.2,0-0.5,0-0.7c0-0.8,0.6-1.4,1.4-1.4c0.1,0,0.1,0,0.2,0
				c0.8-0.1,1.4,0.5,1.5,1.3c0,0.1,0,0.1,0,0.2C123.2,38,123.2,39.6,123.2,41.2z"/>
			<path id="_Path_12" class="st1" d="M107,20.1c0.3,1.2,0.5,2.5,0.8,3.7c0.1,0.6,0.2,1.1,0.4,1.7c0.1,0.6,0,0.7-0.5,0.6
				c-0.5,0-1.1,0-1.7,0c-0.2,0-0.4,0-0.4-0.4c0.4-1.9,0.8-3.8,1.2-5.7L107,20.1z"/>
			<path id="_Path_13" class="st1" d="M115.7,28.8c0,0.5-0.4,0.9-0.9,0.9c-0.5,0-0.9-0.4-0.9-0.9c0-0.5,0.4-0.9,0.9-0.9
				S115.6,28.3,115.7,28.8C115.7,28.8,115.7,28.8,115.7,28.8z"/>
			<g id="_Group_2">
				<path id="_Compound_Path_" class="st0" d="M102.7,55l-0.4-1.9v2c0,0.1,0,0.2-0.1,0.3c0,0.1-0.1,0.1-0.2,0.1
					c-0.1,0-0.1,0-0.2-0.1c0-0.1-0.1-0.2-0.1-0.2v-2.3c0-0.1,0-0.2,0.1-0.3c0.1,0,0.1-0.1,0.2-0.1h0.2c0.1,0,0.1,0,0.2,0
					c0,0,0.1,0.1,0.1,0.1c0,0.1,0.1,0.2,0.1,0.2l0.3,1.6l0.3-1.6c0-0.1,0-0.2,0.1-0.2c0,0,0-0.1,0.1-0.1c0.1,0,0.1,0,0.2,0h0.2
					c0.1,0,0.1,0,0.2,0.1c0.1,0.1,0.1,0.2,0.1,0.3v2.3c0,0.1,0,0.2-0.1,0.2c0,0.1-0.1,0.1-0.2,0.1c-0.1,0-0.1,0-0.2-0.1
					c0-0.1-0.1-0.2-0.1-0.2v-2l-0.4,1.9c0,0.1,0,0.2-0.1,0.3c0,0.1,0,0.1-0.1,0.2c0,0-0.1,0.1-0.2,0.1c0,0-0.1,0-0.1,0
					c0,0-0.1-0.1-0.1-0.1c0,0,0-0.1-0.1-0.2C102.8,55.2,102.8,55.1,102.7,55z"/>
				<path id="_Compound_Path_2" class="st0" d="M104.7,55.2v-2.3c0-0.1,0-0.2,0.1-0.3c0-0.1,0.1-0.1,0.2-0.1c0.1,0,0.1,0,0.2,0.1
					c0,0.1,0.1,0.2,0.1,0.3v2.3c0,0.1,0,0.2-0.1,0.3c0,0.1-0.1,0.1-0.2,0.1c-0.1,0-0.1,0-0.2-0.1C104.7,55.4,104.7,55.3,104.7,55.2z
					"/>
				<path id="_Compound_Path_3" class="st0" d="M107.2,53.1h-0.5v2.1c0,0.1,0,0.2-0.1,0.3c0,0.1-0.1,0.1-0.2,0.1
					c-0.1,0-0.1,0-0.2-0.1c0-0.1-0.1-0.2-0.1-0.3v-2.1h-0.5c-0.1,0-0.1,0-0.2-0.1c0,0-0.1-0.1-0.1-0.2c0-0.1,0-0.1,0.1-0.2
					c0,0,0.1-0.1,0.2-0.1h1.5c0.1,0,0.1,0,0.2,0.1c0,0,0.1,0.1,0.1,0.2c0,0.1,0,0.1-0.1,0.2C107.4,53,107.3,53.1,107.2,53.1z"/>
				<path id="_Compound_Path_4" class="st0" d="M108.4,54.2h-0.2v0.9c0,0.1,0,0.2-0.1,0.3c0,0.1-0.1,0.1-0.2,0.1
					c-0.1,0-0.1,0-0.2-0.1c-0.1-0.1-0.1-0.2-0.1-0.3v-2.3c0-0.1,0-0.2,0.1-0.3c0.1-0.1,0.1-0.1,0.2-0.1h0.8c0.1,0,0.2,0,0.3,0
					c0.1,0,0.1,0,0.2,0.1c0.1,0,0.1,0.1,0.2,0.2c0.1,0.1,0.1,0.2,0.1,0.2c0,0.1,0,0.2,0,0.3c0,0.2,0,0.4-0.1,0.5
					c-0.1,0.1-0.3,0.2-0.5,0.3c0.1,0.1,0.2,0.2,0.2,0.2c0.1,0.1,0.1,0.2,0.2,0.3c0.1,0.1,0.1,0.2,0.1,0.3c0,0.1,0,0.1,0,0.2
					c0,0.1,0,0.1,0,0.2c0,0,0,0.1-0.1,0.1c0,0-0.1,0-0.1,0c0,0-0.1,0-0.1,0l-0.1-0.1l-0.1-0.2l-0.2-0.4c-0.1-0.1-0.1-0.2-0.2-0.3
					c0-0.1,0-0.1-0.1-0.2C108.6,54.2,108.5,54.2,108.4,54.2z M108.7,53h-0.4v0.8h0.4c0.1,0,0.2,0,0.3,0c0.1,0,0.1-0.1,0.2-0.1
					c0-0.1,0.1-0.1,0.1-0.2c0-0.1,0-0.1,0-0.2c0-0.1-0.1-0.1-0.1-0.1C108.9,53,108.8,53,108.7,53z"/>
				<path id="_Compound_Path_5" class="st0" d="M111.7,55.2l-0.1-0.4h-1l-0.1,0.4c0,0.1-0.1,0.2-0.1,0.3c0,0-0.1,0.1-0.2,0.1
					c-0.1,0-0.1,0-0.2-0.1c0,0-0.1-0.1-0.1-0.2c0,0,0-0.1,0-0.1L110,55l0.6-1.9l0-0.2c0-0.1,0-0.1,0.1-0.2c0,0,0.1-0.1,0.1-0.1
					c0.1,0,0.1,0,0.2,0c0.1,0,0.1,0,0.2,0c0,0,0.1,0.1,0.1,0.1c0,0,0.1,0.1,0.1,0.2l0.1,0.2L112,55c0,0.1,0.1,0.2,0.1,0.3
					c0,0.1,0,0.1-0.1,0.2c0,0-0.1,0.1-0.2,0.1h-0.1l0-0.1c0,0,0-0.1-0.1-0.1C111.7,55.3,111.7,55.2,111.7,55.2z M110.7,54.3h0.7
					l-0.4-1.2L110.7,54.3z"/>
				<path id="_Compound_Path_6" class="st0" d="M114.3,54.6c0,0.2,0,0.3-0.1,0.5c-0.1,0.1-0.2,0.3-0.3,0.3c-0.2,0.1-0.3,0.1-0.5,0.1
					c-0.2,0-0.4,0-0.6-0.2c-0.1-0.1-0.2-0.2-0.3-0.3c-0.1-0.1-0.1-0.3-0.1-0.4c0-0.1,0-0.2,0.1-0.2c0.1,0,0.1,0,0.2,0
					c0.1,0,0.1,0,0.1,0.1c0,0.1,0.1,0.1,0.1,0.2c0,0.1,0.1,0.2,0.1,0.2c0,0.1,0.1,0.1,0.1,0.2c0.1,0,0.2,0.1,0.2,0.1
					c0.1,0,0.3,0,0.3-0.1c0.1-0.1,0.1-0.2,0.1-0.3c0-0.1,0-0.2-0.1-0.2c-0.1-0.1-0.1-0.1-0.2-0.1l-0.3-0.1c-0.1,0-0.3-0.1-0.4-0.2
					c-0.1-0.1-0.2-0.2-0.3-0.3c-0.1-0.1-0.1-0.3-0.1-0.4c0-0.1,0-0.3,0.1-0.4c0.1-0.1,0.2-0.2,0.3-0.3c0.1-0.1,0.3-0.1,0.5-0.1
					c0.1,0,0.3,0,0.4,0.1c0.1,0,0.2,0.1,0.3,0.2c0.1,0.1,0.1,0.2,0.2,0.2c0,0.1,0,0.2,0,0.2c0,0.1,0,0.1-0.1,0.2
					c0,0.1-0.1,0.1-0.1,0.1c0,0-0.1,0-0.1,0c0-0.1-0.1-0.1-0.1-0.2c0-0.1-0.1-0.2-0.2-0.3c-0.1-0.1-0.2-0.1-0.3-0.1
					c-0.1,0-0.2,0-0.3,0.1c-0.1,0.1-0.1,0.1-0.1,0.2c0,0,0,0.1,0,0.2c0,0,0.1,0.1,0.1,0.1l0.1,0.1l0.2,0.1c0.1,0,0.2,0.1,0.4,0.1
					c0.1,0,0.2,0.1,0.3,0.2c0.1,0.1,0.1,0.2,0.2,0.2C114.2,54.4,114.2,54.5,114.3,54.6z"/>
				<path id="_Compound_Path_7" class="st0" d="M117.3,54.6c0,0.2,0,0.3-0.1,0.5c-0.1,0.1-0.2,0.3-0.3,0.3c-0.2,0.1-0.3,0.1-0.5,0.1
					c-0.2,0-0.4,0-0.6-0.2c-0.1-0.1-0.2-0.2-0.3-0.3c-0.1-0.1-0.1-0.3-0.1-0.4c0-0.1,0-0.1,0.1-0.2c0.1,0,0.1-0.1,0.2,0
					c0,0,0.1,0,0.1,0.1c0,0.1,0.1,0.1,0.1,0.2c0,0.1,0.1,0.2,0.1,0.2c0.1,0.1,0.2,0.2,0.4,0.2c0.1,0,0.2,0,0.3-0.1
					c0.1-0.1,0.1-0.2,0.1-0.3c0-0.1,0-0.2-0.1-0.2c0-0.1-0.1-0.1-0.2-0.1l-0.3-0.1c-0.1,0-0.3-0.1-0.4-0.2c-0.2-0.1-0.4-0.4-0.4-0.7
					c0-0.2,0-0.3,0.1-0.4c0.1-0.1,0.2-0.2,0.3-0.3c0.1-0.1,0.3-0.1,0.5-0.1c0.1,0,0.3,0,0.4,0.1c0.1,0,0.2,0.1,0.3,0.2
					c0.1,0.1,0.1,0.2,0.2,0.2c0,0.1,0,0.2,0,0.2c0,0.1,0,0.1-0.1,0.2c0,0.1-0.1,0.1-0.1,0.1c0,0-0.1,0-0.1,0c0-0.1-0.1-0.1-0.1-0.2
					c0-0.1-0.1-0.2-0.2-0.3c-0.1-0.1-0.2-0.1-0.3-0.1c-0.1,0-0.2,0-0.3,0.1c-0.1,0.1-0.1,0.1-0.1,0.2c0,0,0,0.1,0,0.2
					c0,0,0.1,0.1,0.1,0.1l0.1,0.1l0.2,0.1c0.1,0,0.2,0.1,0.4,0.1c0.1,0,0.2,0.1,0.3,0.2c0.1,0.1,0.1,0.2,0.2,0.2
					C117.2,54.4,117.2,54.5,117.3,54.6z"/>
				<path id="_Compound_Path_8" class="st0" d="M117.7,54.3v-1.4c0-0.1,0-0.2,0.1-0.3c0.1-0.1,0.2-0.1,0.3,0c0,0,0,0,0,0
					c0,0.1,0.1,0.2,0.1,0.3v1.4c0,0.1,0,0.3,0,0.4c0,0.1,0.1,0.2,0.2,0.2c0.1,0.1,0.2,0.1,0.3,0.1c0.2,0,0.3-0.1,0.4-0.2
					c0.1-0.2,0.1-0.4,0.1-0.6v-1.4c0-0.1,0-0.2,0.1-0.3c0-0.1,0.1-0.1,0.2-0.1c0.1,0,0.1,0,0.2,0.1c0,0.1,0.1,0.2,0.1,0.3v1.4
					c0,0.2,0,0.4,0,0.6c-0.1,0.3-0.2,0.5-0.5,0.6c-0.1,0-0.3,0.1-0.4,0.1c-0.2,0-0.3,0-0.5-0.1c-0.1,0-0.2-0.1-0.3-0.2
					c-0.1-0.1-0.1-0.2-0.2-0.4C117.7,54.7,117.7,54.5,117.7,54.3z"/>
				<path id="_Compound_Path_9" class="st0" d="M120.8,54.2h-0.2v0.9c0,0.1,0,0.2-0.1,0.3c0,0.1-0.1,0.1-0.2,0.1
					c-0.1,0-0.1,0-0.2-0.1c0-0.1-0.1-0.2-0.1-0.3v-2.2c0-0.1,0-0.2,0.1-0.3c0.1-0.1,0.1-0.1,0.2-0.1h0.8c0.1,0,0.2,0,0.3,0
					c0.1,0,0.1,0,0.2,0.1c0.1,0,0.1,0.1,0.2,0.2C122,52.9,122,53,122,53c0,0.1,0,0.2,0,0.3c0,0.2,0,0.4-0.1,0.5
					c-0.1,0.1-0.3,0.2-0.5,0.3c0.1,0.1,0.2,0.2,0.2,0.2c0.1,0.1,0.2,0.2,0.2,0.3c0.1,0.1,0.1,0.2,0.1,0.3c0,0.1,0,0.1,0.1,0.2
					c0,0,0,0.1,0,0.1c0,0.1-0.1,0.1-0.2,0.1c0,0-0.1,0-0.1,0c0,0-0.1-0.1-0.1-0.1l-0.1-0.2l-0.2-0.4c0-0.1-0.1-0.2-0.2-0.3
					c0-0.1-0.1-0.1-0.2-0.2C121,54.3,120.9,54.2,120.8,54.2z M121.1,53h-0.4v0.8h0.4c0.1,0,0.2,0,0.3,0c0.1,0,0.1-0.1,0.2-0.1
					c0.1-0.1,0.1-0.2,0.1-0.2c0-0.1,0-0.1-0.1-0.2c0-0.1-0.1-0.1-0.1-0.1C121.3,53,121.2,53,121.1,53z"/>
			</g>
		</g>
	</g>
</g>
</svg>
