<?xml version="1.0" encoding="utf-8"?>
<!-- Generator: Adobe Illustrator 22.1.0, SVG Export Plug-In . SVG Version: 6.00 Build 0)  -->
<svg version="1.0" id="Layer_1" xmlns="http://www.w3.org/2000/svg" xmlns:xlink="http://www.w3.org/1999/xlink" x="0px" y="0px"
	 viewBox="0 0 1100 320" style="enable-background:new 0 0 1100 320;" xml:space="preserve">
<style type="text/css">
	.st0{enable-background:new    ;}
	.st1{fill:#FFFFFF;}
	.st2{fill:#B56A94;}
	.st3{fill:#B3B3B3;}
	.st4{clip-path:url(#SVGID_2_);}
</style>
<title>Asset 13</title>
<g>
	<g id="Layer_2_1_">
		<g id="Layer_1-2">
			<rect x="61" y="60.5" transform="matrix(0.7071 -0.7071 0.7071 0.7071 -62.2571 150.9475)" width="180.2" height="180.2"/>
			<g class="st0">
				<path class="st1" d="M134,194.5c-0.4,0.8-1.1,1.4-1.9,1.8c-0.8,0.4-1.8,0.7-2.9,0.7h-3.9v-10.4h3.9c1.1,0,2.1,0.2,2.9,0.6
					c0.8,0.4,1.4,1,1.9,1.8s0.7,1.7,0.7,2.7S134.4,193.7,134,194.5z M131.3,194c0.5-0.5,0.8-1.3,0.8-2.2s-0.3-1.7-0.8-2.2
					c-0.5-0.5-1.3-0.8-2.3-0.8h-1.2v5.9h1.2C130,194.8,130.7,194.5,131.3,194z"/>
				<path class="st1" d="M138.6,186.6V197h-2.5v-10.4H138.6z"/>
				<path class="st1" d="M147.4,195.6c-0.3,0.5-0.7,0.8-1.2,1.1c-0.5,0.3-1.2,0.4-2,0.4c-1.2,0-2.1-0.3-2.9-0.9
					c-0.8-0.6-1.2-1.4-1.2-2.4h2.7c0,0.4,0.2,0.7,0.4,0.9c0.2,0.2,0.5,0.3,0.9,0.3c0.3,0,0.6-0.1,0.8-0.3s0.3-0.4,0.3-0.7
					c0-0.3-0.1-0.5-0.3-0.7c-0.2-0.2-0.4-0.3-0.6-0.4s-0.6-0.2-1.1-0.4c-0.7-0.2-1.2-0.4-1.6-0.7c-0.4-0.2-0.8-0.5-1.1-0.9
					s-0.4-1-0.4-1.6c0-0.6,0.2-1.2,0.5-1.6c0.3-0.5,0.7-0.8,1.3-1s1.2-0.4,1.9-0.4c1.2,0,2.1,0.3,2.8,0.8c0.7,0.5,1.1,1.3,1.2,2.3
					h-2.7c0-0.3-0.2-0.6-0.4-0.8s-0.5-0.3-0.8-0.3c-0.3,0-0.5,0.1-0.7,0.2c-0.2,0.2-0.3,0.4-0.3,0.7c0,0.2,0.1,0.5,0.2,0.6
					c0.2,0.2,0.4,0.3,0.6,0.4c0.2,0.1,0.6,0.2,1.1,0.4c0.7,0.2,1.2,0.4,1.6,0.7c0.4,0.2,0.8,0.5,1.1,1c0.3,0.4,0.5,1,0.5,1.6
					C147.8,194.7,147.7,195.2,147.4,195.6z"/>
				<path class="st1" d="M151.7,188.6v2.2h3.5v1.9h-3.5v2.3h4v2h-6.5v-10.4h6.5v2H151.7z"/>
				<path class="st1" d="M166.3,197h-2.5l-4.2-6.4v6.4h-2.5v-10.4h2.5l4.2,6.4v-6.4h2.5V197z M161.4,183.8c0.2,0.1,0.4,0.2,0.6,0.3
					c0.2,0.1,0.4,0.2,0.5,0.2c0.1,0,0.2,0.1,0.3,0.1c0.4,0,0.6-0.2,0.6-0.7h1.3c-0.2,1.5-0.9,2.2-2,2.2c-0.2,0-0.4,0-0.6-0.1
					s-0.4-0.2-0.6-0.3c-0.2-0.1-0.3-0.2-0.4-0.2c-0.1,0-0.2-0.1-0.3-0.1c-0.4,0-0.6,0.2-0.6,0.7h-1.3c0.2-1.5,0.9-2.2,2-2.2
					C161,183.7,161.2,183.7,161.4,183.8z"/>
				<path class="st1" d="M175.7,187.1c0.8,0.5,1.4,1.1,1.9,1.9s0.7,1.7,0.7,2.7s-0.2,1.9-0.7,2.8s-1.1,1.4-1.9,1.9
					c-0.8,0.5-1.7,0.7-2.7,0.7s-1.9-0.2-2.7-0.7c-0.8-0.5-1.4-1.1-1.9-1.9c-0.5-0.8-0.7-1.7-0.7-2.8s0.2-1.9,0.7-2.7
					c0.5-0.8,1.1-1.4,1.9-1.9c0.8-0.5,1.7-0.7,2.7-0.7C174,186.5,174.9,186.7,175.7,187.1z M171.1,189.6c-0.5,0.5-0.7,1.3-0.7,2.2
					c0,0.9,0.2,1.6,0.7,2.2s1.1,0.8,2,0.8c0.8,0,1.5-0.3,2-0.8s0.7-1.3,0.7-2.2c0-0.9-0.2-1.6-0.7-2.2c-0.5-0.5-1.1-0.8-2-0.8
					S171.5,189.1,171.1,189.6z"/>
			</g>
			<g class="st0">
				<path class="st2" d="M220.8,282.9c0-2,0.4-3.6,1.2-4.7c0.8-1.2,2.1-1.7,3.9-1.7c1.8,0,3,0.6,3.9,1.7c0.8,1.2,1.2,2.7,1.2,4.7
					c0,2-0.4,3.6-1.2,4.8c-0.8,1.2-2.1,1.8-3.9,1.8c-1.8,0-3.1-0.6-3.9-1.8C221.2,286.5,220.8,284.9,220.8,282.9z M227.9,282.9
					c0-1.1-0.1-2-0.4-2.6c-0.3-0.6-0.8-0.9-1.6-0.9c-0.8,0-1.3,0.3-1.6,0.9c-0.3,0.6-0.4,1.5-0.4,2.6c0,1.1,0.1,2,0.4,2.6
					c0.3,0.6,0.8,0.9,1.6,0.9c0.8,0,1.3-0.3,1.6-0.9C227.8,284.9,227.9,284,227.9,282.9z"/>
				<path class="st2" d="M231.9,279.5v-2.9h5.2v12.8h-3.3v-9.9H231.9z"/>
				<path class="st2" d="M241.9,286.3v3.1h-3.2v-3.1H241.9z"/>
			</g>
			<rect x="150.6" y="288.6" class="st3" width="58.9" height="1"/>
			<rect x="452.9" y="62.3" transform="matrix(0.7071 -0.7071 0.7071 0.7071 51.2936 428.5936)" width="180.2" height="180.2"/>
			<g class="st0">
				<path class="st1" d="M491.2,188.4v2h-4.3v2.3h3.3v1.9h-3.3v4.2h-2.5v-10.4H491.2z"/>
				<path class="st1" d="M495,188.4v6c0,0.7,0.2,1.2,0.5,1.6s0.8,0.5,1.3,0.5s1-0.2,1.3-0.5s0.5-0.9,0.5-1.6v-6h2.5v6
					c0,1-0.2,1.8-0.6,2.5c-0.4,0.7-0.9,1.2-1.6,1.5c-0.7,0.3-1.4,0.5-2.2,0.5s-1.6-0.2-2.2-0.5c-0.6-0.3-1.1-0.8-1.5-1.5
					c-0.4-0.7-0.5-1.5-0.5-2.5v-6H495z"/>
				<path class="st1" d="M512,198.8h-2.5l-4.2-6.4v6.4h-2.5v-10.4h2.5l4.2,6.4v-6.4h2.5V198.8z"/>
				<path class="st1" d="M521.8,189.3c0.9,0.7,1.4,1.6,1.7,2.8h-2.7c-0.2-0.5-0.5-0.9-0.9-1.1c-0.4-0.3-0.9-0.4-1.4-0.4
					c-0.7,0-1.3,0.3-1.8,0.8c-0.5,0.5-0.7,1.3-0.7,2.2c0,0.9,0.2,1.6,0.7,2.2c0.5,0.5,1,0.8,1.8,0.8c0.6,0,1-0.1,1.4-0.4
					s0.7-0.6,0.9-1.1h2.7c-0.3,1.2-0.8,2.1-1.7,2.8c-0.9,0.7-2,1.1-3.3,1.1c-1,0-1.9-0.2-2.7-0.7c-0.8-0.4-1.4-1.1-1.8-1.9
					c-0.4-0.8-0.6-1.7-0.6-2.8s0.2-1.9,0.6-2.8c0.4-0.8,1-1.4,1.8-1.9c0.8-0.4,1.7-0.7,2.7-0.7C519.8,188.3,520.9,188.6,521.8,189.3
					z"/>
				<path class="st1" d="M527.4,188.4v10.4h-2.5v-10.4H527.4z"/>
				<path class="st1" d="M536.8,188.9c0.8,0.5,1.4,1.1,1.9,1.9s0.7,1.7,0.7,2.7s-0.2,1.9-0.7,2.8s-1.1,1.4-1.9,1.9
					c-0.8,0.5-1.7,0.7-2.7,0.7s-1.9-0.2-2.7-0.7c-0.8-0.5-1.4-1.1-1.9-1.9c-0.5-0.8-0.7-1.7-0.7-2.8s0.2-1.9,0.7-2.7
					c0.5-0.8,1.1-1.4,1.9-1.9c0.8-0.5,1.7-0.7,2.7-0.7C535.1,188.2,536,188.4,536.8,188.9z M532.1,191.4c-0.5,0.5-0.7,1.3-0.7,2.2
					c0,0.9,0.2,1.6,0.7,2.2s1.1,0.8,2,0.8c0.8,0,1.5-0.3,2-0.8s0.7-1.3,0.7-2.2c0-0.9-0.2-1.6-0.7-2.2c-0.5-0.5-1.1-0.8-2-0.8
					S532.6,190.8,532.1,191.4z"/>
				<path class="st1" d="M550,198.8h-2.5l-4.2-6.4v6.4h-2.5v-10.4h2.5l4.2,6.4v-6.4h2.5V198.8z"/>
				<path class="st1" d="M558.2,196.9h-3.9l-0.6,1.9H551l3.8-10.3h2.9l3.8,10.3h-2.7L558.2,196.9z M557.5,195l-1.3-3.8l-1.3,3.8
					H557.5z"/>
				<path class="st1" d="M565,196.9h3.4v1.9h-5.9v-10.4h2.5V196.9z"/>
				<path class="st1" d="M572,188.4v10.4h-2.5v-10.4H572z"/>
				<path class="st1" d="M582.5,196.3c-0.4,0.8-1.1,1.4-1.9,1.8c-0.8,0.4-1.8,0.7-2.9,0.7h-3.9v-10.4h3.9c1.1,0,2.1,0.2,2.9,0.6
					c0.8,0.4,1.4,1,1.9,1.8s0.7,1.7,0.7,2.7S582.9,195.5,582.5,196.3z M579.8,195.8c0.5-0.5,0.8-1.3,0.8-2.2s-0.3-1.7-0.8-2.2
					c-0.5-0.5-1.3-0.8-2.3-0.8h-1.2v5.9h1.2C578.5,196.5,579.2,196.3,579.8,195.8z"/>
				<path class="st1" d="M591,196.9h-3.9l-0.6,1.9h-2.6l3.8-10.3h2.9l3.8,10.3h-2.7L591,196.9z M590.4,195l-1.3-3.8l-1.3,3.8H590.4z
					"/>
				<path class="st1" d="M604,196.3c-0.4,0.8-1.1,1.4-1.9,1.8s-1.8,0.7-2.9,0.7h-3.9v-10.4h3.9c1.1,0,2.1,0.2,2.9,0.6
					c0.8,0.4,1.4,1,1.9,1.8s0.7,1.7,0.7,2.7S604.5,195.5,604,196.3z M601.3,195.8c0.5-0.5,0.8-1.3,0.8-2.2s-0.3-1.7-0.8-2.2
					c-0.5-0.5-1.3-0.8-2.3-0.8h-1.2v5.9h1.2C600,196.5,600.8,196.3,601.3,195.8z"/>
			</g>
			<g class="st0">
				<path class="st2" d="M612.7,284.7c0-2,0.4-3.6,1.2-4.7c0.8-1.2,2.1-1.7,3.9-1.7c1.8,0,3,0.6,3.9,1.7c0.8,1.2,1.2,2.7,1.2,4.7
					c0,2-0.4,3.6-1.2,4.8c-0.8,1.2-2.1,1.8-3.9,1.8c-1.8,0-3.1-0.6-3.9-1.8C613.1,288.3,612.7,286.7,612.7,284.7z M619.8,284.7
					c0-1.1-0.1-2-0.4-2.6s-0.8-0.9-1.6-0.9c-0.8,0-1.3,0.3-1.6,0.9c-0.3,0.6-0.4,1.5-0.4,2.6c0,1.1,0.1,2,0.4,2.6
					c0.3,0.6,0.8,0.9,1.6,0.9c0.8,0,1.3-0.3,1.6-0.9S619.8,285.8,619.8,284.7z"/>
				<path class="st2" d="M630,282.2c0-1-0.4-1.5-1.3-1.5c-0.5,0-0.8,0.2-1.1,0.5c-0.2,0.3-0.3,0.9-0.4,1.6h-3
					c0.1-1.6,0.5-2.7,1.4-3.5c0.9-0.8,2-1.2,3.3-1.2c1.4,0,2.4,0.3,3.1,1c0.7,0.7,1.1,1.6,1.1,2.7c0,1.2-0.5,2.5-1.4,3.6
					c-1,1.2-2.1,2.2-3.4,3h5v2.5h-9.1v-2.3C628.1,286,630,283.8,630,282.2z"/>
				<path class="st2" d="M637.6,288.1v3.1h-3.2v-3.1H637.6z"/>
			</g>
			<rect x="542.5" y="290.4" class="st3" width="58.9" height="1"/>
			<rect x="844.8" y="64.7" transform="matrix(0.7071 -0.7071 0.7071 0.7071 164.3255 706.4396)" width="180.3" height="180.2"/>
			<g class="st0">
				<path class="st1" d="M905.3,192.9v2.2h3.5v1.9h-3.5v2.3h4v2h-6.5v-10.4h6.5v2H905.3z"/>
				<path class="st1" d="M917.7,199.9c-0.3,0.5-0.7,0.8-1.2,1.1c-0.5,0.3-1.2,0.4-2,0.4c-1.2,0-2.1-0.3-2.9-0.9s-1.2-1.4-1.2-2.4
					h2.7c0,0.4,0.2,0.7,0.4,0.9c0.2,0.2,0.5,0.3,0.9,0.3c0.3,0,0.6-0.1,0.8-0.3c0.2-0.2,0.3-0.4,0.3-0.7c0-0.3-0.1-0.5-0.3-0.7
					c-0.2-0.2-0.4-0.3-0.6-0.4c-0.3-0.1-0.6-0.2-1.1-0.4c-0.7-0.2-1.2-0.4-1.6-0.7c-0.4-0.2-0.8-0.5-1.1-0.9c-0.3-0.4-0.4-1-0.4-1.6
					c0-0.6,0.2-1.2,0.5-1.6c0.3-0.5,0.7-0.8,1.3-1c0.6-0.2,1.2-0.4,1.9-0.4c1.2,0,2.1,0.3,2.8,0.8s1.1,1.3,1.2,2.3h-2.7
					c0-0.3-0.2-0.6-0.4-0.8s-0.5-0.3-0.8-0.3c-0.3,0-0.5,0.1-0.7,0.2c-0.2,0.2-0.3,0.4-0.3,0.7c0,0.2,0.1,0.5,0.2,0.6
					c0.2,0.2,0.4,0.3,0.6,0.4s0.6,0.2,1.1,0.4c0.7,0.2,1.2,0.4,1.6,0.7c0.4,0.2,0.8,0.5,1.1,1c0.3,0.4,0.5,1,0.5,1.6
					C918.2,198.9,918,199.4,917.7,199.9z"/>
				<path class="st1" d="M927,190.9v2h-2.8v8.4h-2.5v-8.4h-2.8v-2H927z"/>
				<path class="st1" d="M930.6,192.9v2.2h3.5v1.9h-3.5v2.3h4v2h-6.5v-10.4h6.5v2H930.6z M933.4,188.8l-3.5,1.5v-1.7l3.5-1.7V188.8z
					"/>
				<path class="st1" d="M943.5,190.9v2h-2.8v8.4h-2.5v-8.4h-2.8v-2H943.5z"/>
				<path class="st1" d="M947,190.9v10.4h-2.5v-10.4H947z"/>
				<path class="st1" d="M956.8,191.8c0.9,0.7,1.4,1.6,1.7,2.8h-2.7c-0.2-0.5-0.5-0.9-0.9-1.1s-0.9-0.4-1.4-0.4
					c-0.7,0-1.3,0.3-1.8,0.8c-0.5,0.5-0.7,1.3-0.7,2.2c0,0.9,0.2,1.6,0.7,2.2c0.5,0.5,1,0.8,1.8,0.8c0.6,0,1-0.1,1.4-0.4
					c0.4-0.3,0.7-0.6,0.9-1.1h2.7c-0.3,1.2-0.8,2.1-1.7,2.8c-0.9,0.7-2,1.1-3.3,1.1c-1,0-1.9-0.2-2.7-0.7c-0.8-0.4-1.4-1.1-1.8-1.9
					s-0.6-1.7-0.6-2.8c0-1,0.2-1.9,0.6-2.8s1-1.4,1.8-1.9c0.8-0.4,1.7-0.7,2.7-0.7C954.9,190.8,956,191.1,956.8,191.8z"/>
				<path class="st1" d="M966.4,199.4h-3.9l-0.6,1.9h-2.6l3.8-10.3h2.9l3.8,10.3H967L966.4,199.4z M965.7,197.5l-1.3-3.8l-1.3,3.8
					H965.7z"/>
			</g>
			<g class="st0">
				<path class="st2" d="M1004.6,287.1c0-2,0.4-3.6,1.2-4.7c0.8-1.2,2.1-1.7,3.9-1.7c1.8,0,3,0.6,3.9,1.7c0.8,1.2,1.2,2.7,1.2,4.7
					c0,2-0.4,3.6-1.2,4.8c-0.8,1.2-2.1,1.8-3.9,1.8c-1.8,0-3.1-0.6-3.9-1.8C1005.1,290.7,1004.6,289.1,1004.6,287.1z M1011.7,287.1
					c0-1.1-0.1-2-0.4-2.6c-0.3-0.6-0.8-0.9-1.6-0.9c-0.8,0-1.3,0.3-1.6,0.9c-0.3,0.6-0.4,1.5-0.4,2.6c0,1.1,0.1,2,0.4,2.6
					c0.3,0.6,0.8,0.9,1.6,0.9c0.8,0,1.3-0.3,1.6-0.9C1011.6,289.2,1011.7,288.3,1011.7,287.1z"/>
				<path class="st2" d="M1023.3,280.8c0.6,0.3,1.1,0.7,1.5,1.3c0.3,0.5,0.5,1.1,0.5,1.8c0,0.8-0.2,1.5-0.6,2s-1,0.8-1.6,1v0.1
					c1.7,0.5,2.5,1.6,2.5,3.1c0,0.7-0.2,1.4-0.5,2c-0.3,0.6-0.8,1-1.5,1.3c-0.6,0.3-1.4,0.5-2.3,0.5c-1.5,0-2.6-0.4-3.5-1.1
					s-1.3-1.8-1.4-3.3h3c0,0.6,0.2,1,0.5,1.3s0.7,0.5,1.3,0.5c0.4,0,0.8-0.1,1.1-0.4s0.4-0.6,0.4-1c0-1-0.8-1.6-2.3-1.6h-0.6v-2.5
					h0.6c1.4,0,2-0.5,2-1.5c0-0.4-0.1-0.8-0.4-1c-0.2-0.2-0.6-0.4-0.9-0.4c-0.4,0-0.8,0.1-1,0.4c-0.3,0.3-0.4,0.7-0.4,1.2h-3
					c0.1-1.3,0.5-2.4,1.3-3.1c0.8-0.7,1.9-1.1,3.3-1.1C1021.9,280.3,1022.6,280.5,1023.3,280.8z"/>
				<path class="st2" d="M1030.2,290.6v3.1h-3.2v-3.1H1030.2z"/>
			</g>
			<rect x="934.5" y="292.9" class="st3" width="58.8" height="1"/>
			<path class="st2" d="M117.8,177.1l-15.7-50.5l60.4,36.5L117.8,177.1z M103.9,128.8l14.6,47.1l41.6-13L103.9,128.8z"/>
			<path class="st2" d="M123.6,163.1l-5.5-17.2l20.5,12.5L123.6,163.1z M119.9,148.1l4.4,13.8l12-3.8L119.9,148.1z"/>
			<rect x="114.7" y="113.1" class="st2" width="73.5" height="1"/>
			<rect x="182.1" y="107.7" class="st2" width="1" height="52.4"/>
			<polygon class="st2" points="193.5,164.8 158.4,164.8 158.4,163.8 192.5,163.8 192.5,104.4 109.5,104.4 109.5,131.2 108.5,131.2 
				108.5,103.4 193.5,103.4 			"/>
			<polygon class="st2" points="114.3,164.4 108.8,164.4 108.8,147.9 109.8,147.9 109.8,163.4 114.3,163.4 			"/>
			<path class="st2" d="M179,160.6l-9.6-5.4L142,122.8l4.7-4.3l28.4,32.2L179,160.6z M170.1,154.5l7,3.9l-2.8-7.2L146.6,120l-3.2,3
				L170.1,154.5z"/>
			<polygon class="st2" points="157.8,132 157.2,131.2 159,129.6 150.7,120.1 148.9,121.7 148.3,120.9 150.9,118.7 160.4,129.7 			
				"/>
			<rect x="518.3" y="100.3" class="st2" width="51.6" height="1"/>
			<polygon class="st2" points="585.5,143.8 579.7,143.8 579.7,142.8 584.5,142.8 584.5,101.3 579.7,101.3 579.7,100.3 585.5,100.3 
							"/>
			<polygon class="st2" points="567.8,172.5 526.3,172.5 526.3,130.9 527.3,130.9 527.3,171.5 566.8,171.5 566.8,142.8 570.6,142.8 
				570.6,143.8 567.8,143.8 			"/>
			<rect x="525.7" y="100.8" class="st2" width="1" height="14.4"/>
			<polygon class="st2" points="526.2,143.8 501.5,143.8 501.5,100.3 509.2,100.3 509.2,101.3 502.5,101.3 502.5,142.8 526.2,142.8 
							"/>
			<g>
				<defs>
					<polygon id="SVGID_1_" points="585,100.4 567.8,100.4 558.3,100.4 526.8,100.4 526.8,172 567.8,172 567.8,143.4 585,143.4 
											"/>
				</defs>
				<clipPath id="SVGID_2_">
					<use xlink:href="#SVGID_1_"  style="overflow:visible;"/>
				</clipPath>
				<g class="st4">
					
						<rect x="450.8" y="90.4" transform="matrix(0.7071 -0.7071 0.7071 0.7071 85.5435 388.3401)" class="st2" width="121.4" height="1"/>
					
						<rect x="453" y="92.6" transform="matrix(0.7071 -0.7071 0.7071 0.7071 84.6621 390.5029)" class="st2" width="121.4" height="1"/>
					
						<rect x="455.2" y="94.7" transform="matrix(0.7071 -0.7071 0.7071 0.7071 83.7842 392.6728)" class="st2" width="121.4" height="1"/>
					
						<rect x="457.3" y="96.8" transform="matrix(0.7071 -0.7071 0.7071 0.7071 82.8995 394.8369)" class="st2" width="121.4" height="1"/>
					
						<rect x="459.5" y="99" transform="matrix(0.7071 -0.7071 0.7071 0.7071 82.0182 396.9996)" class="st2" width="121.4" height="1"/>
					
						<rect x="461.7" y="101.1" transform="matrix(0.7071 -0.7071 0.7071 0.7071 81.1386 399.1658)" class="st2" width="121.4" height="1"/>
					
						<rect x="463.9" y="103.3" transform="matrix(0.7071 -0.7071 0.7071 0.7071 80.2552 401.3333)" class="st2" width="121.4" height="1"/>
					
						<rect x="466" y="105.4" transform="matrix(0.7071 -0.7071 0.7071 0.7071 79.3777 403.4945)" class="st2" width="121.4" height="1"/>
					
						<rect x="468.2" y="107.6" transform="matrix(0.7071 -0.7071 0.7071 0.7071 78.4947 405.6625)" class="st2" width="121.4" height="1"/>
					
						<rect x="470.4" y="109.7" transform="matrix(0.7071 -0.7071 0.7071 0.7071 77.6113 407.8301)" class="st2" width="121.4" height="1"/>
					
						<rect x="472.6" y="111.9" transform="matrix(0.7071 -0.7071 0.7071 0.7071 76.7337 409.9912)" class="st2" width="121.4" height="1"/>
					
						<rect x="474.7" y="114" transform="matrix(0.7071 -0.7071 0.7071 0.7071 75.8488 412.1554)" class="st2" width="121.4" height="1"/>
					
						<rect x="476.9" y="116.2" transform="matrix(0.7071 -0.7071 0.7071 0.7071 74.9669 414.3266)" class="st2" width="121.4" height="1"/>
					
						<rect x="479.1" y="118.3" transform="matrix(0.7071 -0.7071 0.7071 0.7071 74.0894 416.4877)" class="st2" width="121.4" height="1"/>
					
						<rect x="481.2" y="120.5" transform="matrix(0.7071 -0.7071 0.7071 0.7071 73.2049 418.6517)" class="st2" width="121.4" height="1"/>
					
						<rect x="483.4" y="122.6" transform="matrix(0.7071 -0.7071 0.7071 0.7071 72.3215 420.8199)" class="st2" width="121.4" height="1"/>
					
						<rect x="485.6" y="124.7" transform="matrix(0.7071 -0.7071 0.7071 0.7071 71.4456 422.9843)" class="st2" width="121.4" height="1"/>
					
						<rect x="487.8" y="126.9" transform="matrix(0.7071 -0.7071 0.7071 0.7071 70.5606 425.1486)" class="st2" width="121.4" height="1"/>
					
						<rect x="489.9" y="129" transform="matrix(0.7071 -0.7071 0.7071 0.7071 69.6809 427.3148)" class="st2" width="121.4" height="1"/>
					
						<rect x="492.1" y="131.2" transform="matrix(0.7071 -0.7071 0.7071 0.7071 68.8013 429.4808)" class="st2" width="121.4" height="1"/>
					
						<rect x="494.3" y="133.3" transform="matrix(0.7071 -0.7071 0.7071 0.7071 67.9166 431.6449)" class="st2" width="121.4" height="1"/>
					
						<rect x="496.5" y="135.5" transform="matrix(0.7071 -0.7071 0.7071 0.7071 67.037 433.8115)" class="st2" width="121.4" height="1"/>
					
						<rect x="498.6" y="137.6" transform="matrix(0.7071 -0.7071 0.7071 0.7071 66.1573 435.9775)" class="st2" width="121.4" height="1"/>
					
						<rect x="500.8" y="139.8" transform="matrix(0.7071 -0.7071 0.7071 0.7071 65.2724 438.1417)" class="st2" width="121.4" height="1"/>
					
						<rect x="503" y="141.9" transform="matrix(0.7071 -0.7071 0.7071 0.7071 64.3911 440.3044)" class="st2" width="121.4" height="1"/>
					
						<rect x="505.2" y="144.1" transform="matrix(0.7071 -0.7071 0.7071 0.7071 63.513 442.474)" class="st2" width="121.4" height="1"/>
					
						<rect x="507.3" y="146.2" transform="matrix(0.7071 -0.7071 0.7071 0.7071 62.6281 444.6382)" class="st2" width="121.4" height="1"/>
					
						<rect x="509.5" y="148.4" transform="matrix(0.7071 -0.7071 0.7071 0.7071 61.7472 446.8009)" class="st2" width="121.4" height="1"/>
					
						<rect x="511.7" y="150.5" transform="matrix(0.7071 -0.7071 0.7071 0.7071 60.8674 448.9674)" class="st2" width="121.4" height="1"/>
					
						<rect x="513.8" y="152.7" transform="matrix(0.7071 -0.7071 0.7071 0.7071 59.9843 451.1348)" class="st2" width="121.4" height="1"/>
					
						<rect x="516" y="154.8" transform="matrix(0.7071 -0.7071 0.7071 0.7071 59.103 453.2975)" class="st2" width="121.4" height="1"/>
					
						<rect x="518.2" y="157" transform="matrix(0.7071 -0.7071 0.7071 0.7071 58.2234 455.4635)" class="st2" width="121.4" height="1"/>
					
						<rect x="520.4" y="159.1" transform="matrix(0.7071 -0.7071 0.7071 0.7071 57.34 457.6313)" class="st2" width="121.4" height="1"/>
					
						<rect x="522.5" y="161.2" transform="matrix(0.7071 -0.7071 0.7071 0.7071 56.459 459.7938)" class="st2" width="121.4" height="1"/>
					
						<rect x="524.7" y="163.4" transform="matrix(0.7071 -0.7071 0.7071 0.7071 55.5793 461.9605)" class="st2" width="121.4" height="1"/>
					
						<rect x="526.9" y="165.5" transform="matrix(0.7071 -0.7071 0.7071 0.7071 54.6962 464.1279)" class="st2" width="121.4" height="1"/>
					
						<rect x="529.1" y="167.7" transform="matrix(0.7071 -0.7071 0.7071 0.7071 53.8183 466.2892)" class="st2" width="121.4" height="1"/>
				</g>
			</g>
			<rect x="529" y="177.5" class="st2" width="35" height="1"/>
			<polygon class="st2" points="566.6,177.9 563,175.9 563,180 			"/>
			<polygon class="st2" points="526.8,177.9 530.3,179.9 530.3,175.8 			"/>
			<rect x="529" y="94.5" class="st2" width="53" height="1"/>
			<polygon class="st2" points="584.6,94.9 581,92.9 581,97 			"/>
			<polygon class="st2" points="526.8,94.9 530.3,96.9 530.3,92.8 			"/>
			
				<rect x="901.9" y="157.4" transform="matrix(0.3127 -0.9498 0.9498 0.3127 482.9065 983.0947)" class="st2" width="37.7" height="1"/>
			<path class="st2" d="M950,140.2h-31.6c-3.4,0-6.5-1.4-8.9-3.7c-2.6-2.7-2.9-5.6-2.9-8.9c0-4.7-0.1-9.4-0.2-14.1
				c0-0.3,0.2-0.5,0.5-0.5c2-0.1,2.9-0.1,3.4,0c0.2,0,0.4,0,0.5,0c3.8-0.4,6.1-2.5,8.8-4.9c0.8-0.7,1.5-1.4,2.4-2.1
				c8.2-6.6,20.1-5.9,27,1.7c4.5,5,11.9,5.2,12,5.2c0.3,0,0.5,0.2,0.5,0.5v8.7c0,0.7,0,1.4,0,2.2c0.1,3.6,0.2,7.4-1.9,10.7
				C957.5,138.1,953.9,140.2,950,140.2z M907.4,113.9c0.1,4.5,0.1,9.1,0.2,13.6c0,3.1,0.3,5.8,2.6,8.2c2.2,2.2,5.1,3.4,8.2,3.4H950
				c3.5,0,6.8-1.9,8.6-4.9c1.9-3.1,1.9-6.5,1.8-10.1c0-0.7,0-1.5,0-2.2v-8.2c-1.8-0.1-8-1-12.2-5.5c-6.6-7.2-17.8-7.9-25.6-1.6
				c-0.8,0.7-1.6,1.4-2.3,2c-2.7,2.4-5.2,4.7-9.3,5.1c-0.1,0-0.3,0-0.6,0C909.8,113.8,909,113.8,907.4,113.9z"/>
			<path class="st2" d="M943.9,134.1h-19.8c-7-0.5-7.1-6.6-7.1-6.6v-10.8h1v10.8c0,0.2,0.1,5.2,6.1,5.6l19.8,0c0.3,0,6.2-0.1,7-6.2
				l0-10.3h1V127C950.9,134,943.9,134.1,943.9,134.1z"/>
			
				<rect x="910.3" y="155" transform="matrix(0.1581 -0.9874 0.9874 0.1581 626.2562 1045.5599)" class="st2" width="31.9" height="1"/>
			
				<rect x="943.3" y="139.5" transform="matrix(0.9881 -0.1538 0.1538 0.9881 -12.7045 146.9687)" class="st2" width="1" height="32.2"/>
			
				<rect x="948.6" y="138.7" transform="matrix(0.9481 -0.3179 0.3179 0.9481 -0.9392 309.9556)" class="st2" width="1" height="38.3"/>
			
				<rect x="936.7" y="137.1" transform="matrix(0.5046 -0.8634 0.8634 0.5046 333.9958 883.8675)" class="st2" width="1" height="27.6"/>
			
				<rect x="919.4" y="149.9" transform="matrix(0.8725 -0.4885 0.4885 0.8725 45.4123 474.8409)" class="st2" width="26.7" height="1"/>
		</g>
	</g>
</g>
</svg>
