<?xml version="1.0" encoding="utf-8"?>
<!-- Generator: Adobe Illustrator 22.1.0, SVG Export Plug-In . SVG Version: 6.00 Build 0)  -->
<svg version="1.1" id="Layer_1" xmlns="http://www.w3.org/2000/svg" xmlns:xlink="http://www.w3.org/1999/xlink" x="0px" y="0px"
	 viewBox="0 0 233 73" style="enable-background:new 0 0 233 73;" xml:space="preserve">
<style type="text/css">
	.st0{fill:#FFFFFF;}
	.st1{fill:#3D3D3D;}
</style>
<title>Asset 40</title>
<g id="Layer_2_1_">
	<g id="Layer_1-2">
		<g id="_Group_">
			<path id="_Compound_Path_" class="st0" d="M134.8,38.2h-1.6c-0.1,0-0.2,0-0.3,0.1c-1,1.3-2.7,1.9-4.3,1.6
				c-1.5-0.1-2.8-1.1-3.4-2.5c-0.1-0.2-0.1-0.3,0.1-0.3c1-0.4,2-0.6,3.1-0.5c1.2,0.1,2.5,0.2,3.7,0.4c0.9,0.1,1.8,0,2.6-0.2
				c0.5-0.1,0.7-0.4,0.6-0.8c-0.1-1.9-1.2-3.5-2.9-4.4c-2.3-1.3-5.2-1-7.2,0.6c-2.2,1.7-2.6,4.8-0.9,7c0.2,0.3,0.5,0.6,0.8,0.8
				c1.9,1.5,4.4,1.9,6.7,1C133.1,40.5,134.2,39.5,134.8,38.2z M111.7,39.7l0.2,0.1c2.5,2.3,6.4,2.1,8.8-0.3c1.9-1.9,1.9-5,0-7
				c-1.4-1.4-3.3-2-5.3-1.8c-2.8,0.1-5.1,2.4-5.2,5.2c-0.1,2.8,0,5.6-0.1,8.4c0,0.2,0.1,0.2,0.3,0.2c0.4,0,0.7,0,1.1,0
				s0.4-0.1,0.4-0.4c0-1,0-1.9,0-2.9L111.7,39.7z M138.2,39.7l0.5,0.5c2.7,2.1,6.5,1.7,8.7-0.9c1.5-1.8,1.5-4.5,0-6.3
				c-1.4-1.6-3.5-2.4-5.7-2.1c-2.5,0.2-4.5,2-5,4.4c-0.2,0.9-0.2,1.8-0.2,2.8c0,2.1,0,4.3,0,6.4c0,0.3,0.1,0.4,0.4,0.4
				c0.3,0,0.7,0,1,0c0.2,0,0.3-0.1,0.2-0.2c0-0.4,0-0.8,0-1.2L138.2,39.7z M153.1,41.5c0.9,0,1.7-0.2,2.5-0.6c1.4-0.6,2-2.2,1.4-3.5
				c-0.3-0.6-0.8-1.1-1.4-1.4c-0.5-0.2-1-0.4-1.5-0.6c-0.7-0.2-1.3-0.5-1.9-0.8c-0.6-0.3-0.8-1-0.5-1.5c0-0.1,0.1-0.1,0.1-0.2
				c0.2-0.3,0.5-0.5,0.8-0.5c1.1-0.3,2.3-0.2,3.2,0.4c0.2,0.1,0.2,0.1,0.3-0.1c0.1-0.2,0.4-0.6,0.5-0.9c0.1-0.1,0.1-0.2-0.1-0.3
				c-1.2-0.6-2.5-0.8-3.8-0.6c-0.8,0.1-1.6,0.4-2.2,1c-1,0.8-1.2,2.2-0.4,3.2c0.1,0.1,0.2,0.3,0.4,0.4c0.6,0.5,1.3,0.8,2,1.1
				c0.6,0.2,1.3,0.4,1.9,0.7c0.4,0.2,0.7,0.6,0.8,1c0.2,0.7-0.3,1.5-1,1.7c0,0,0,0,0,0c-1.4,0.4-2.9,0.3-4.1-0.4
				c-0.2-0.1-0.2-0.1-0.3,0.1c-0.1,0.3-0.3,0.5-0.4,0.8c-0.2,0.2-0.1,0.3,0.1,0.4C150.8,41.3,152,41.5,153.1,41.5L153.1,41.5z
				 M159.2,36.1L159.2,36.1c0,1.6,0,3.2,0,4.7c0,0.3,0.1,0.4,0.4,0.3c0.3,0,0.7,0,1,0c0.2,0,0.3-0.1,0.3-0.3v-9.6
				c0-0.2,0-0.3-0.3-0.3c-0.3,0-0.7,0-1,0c-0.3,0-0.4,0.1-0.4,0.4C159.3,33,159.2,34.5,159.2,36.1L159.2,36.1z"/>
			<path id="_Path_" class="st1" d="M161.1,29.4c-0.2,0.2-0.4,0.4-0.7,0.5c-0.6,0.3-1.2,0-1.5-0.5c-0.3-0.6,0-1.2,0.5-1.5
				c0.5-0.3,1.1-0.2,1.5,0.2c0,0,0.1,0.1,0.1,0.1L161.1,29.4z"/>
			<path id="_Compound_Path_2" class="st1" d="M134.8,38.2c-0.6,1.3-1.7,2.3-3.1,2.8c-2.2,0.9-4.8,0.5-6.7-1c-2.1-1.7-2.5-4.9-0.7-7
				c0.2-0.3,0.5-0.6,0.8-0.8c2.1-1.6,4.9-1.9,7.2-0.6c1.7,0.9,2.8,2.5,2.9,4.4c0.1,0.4-0.2,0.7-0.6,0.8c-0.8,0.3-1.7,0.3-2.6,0.2
				c-1.2-0.1-2.5-0.3-3.7-0.4c-1,0-2.1,0.1-3.1,0.5c-0.2,0.1-0.2,0.2-0.1,0.3c0.6,1.4,1.9,2.4,3.4,2.5c1.6,0.3,3.3-0.4,4.3-1.6
				c0.1-0.1,0.2-0.1,0.3-0.1L134.8,38.2z M125,35.6c0.7-0.2,1.4-0.4,2.2-0.5c1.2,0,2.4,0.1,3.6,0.2c0.8,0.1,1.7,0.2,2.5,0.1
				c0.2,0,0.3-0.1,0.2-0.3c-0.2-0.7-0.5-1.3-1-1.7c-1.8-1.7-4.6-1.7-6.5,0C125.4,34,125,34.8,125,35.6z"/>
			<path id="_Compound_Path_3" class="st1" d="M111.7,39.7v1.8c0,1,0,1.9,0,2.9c0,0.3-0.1,0.4-0.4,0.4c-0.3,0-0.7,0-1.1,0
				c-0.2,0-0.3,0-0.3-0.2c0-2.8,0-5.6,0.1-8.4c0.1-2.8,2.4-5.1,5.2-5.2c1.9-0.2,3.9,0.4,5.3,1.8c1.9,1.9,1.9,5.1,0,7
				c-2.4,2.4-6.2,2.5-8.8,0.3L111.7,39.7z M115.7,32.2c-0.7,0-1.3,0.2-1.9,0.5c-1.9,0.9-2.7,3.2-1.8,5.1c0.2,0.5,0.6,1,1,1.3
				c1.2,0.9,2.8,1.3,4.3,0.8c2.1-0.4,3.4-2.4,3-4.4c-0.1-0.5-0.3-1-0.6-1.4C118.7,32.7,117.2,32,115.7,32.2L115.7,32.2z"/>
			<path id="_Compound_Path_4" class="st1" d="M138.2,39.6v3.6c0,0.4,0,0.8,0,1.2c0,0.2,0,0.3-0.2,0.2c-0.3,0-0.7,0-1,0
				c-0.3,0-0.4-0.1-0.4-0.4c0-2.1,0-4.3,0-6.4c-0.1-0.9,0-1.8,0.1-2.8c0.5-2.4,2.5-4.2,5-4.4c2.1-0.3,4.2,0.5,5.6,2.1
				c1.5,1.8,1.5,4.5,0,6.3c-2.2,2.6-6,3-8.7,0.9L138.2,39.6z M142.3,32.2c-2,0-3.6,1.4-4.1,3.3c-0.3,1.4,0.3,2.8,1.4,3.6
				c1.7,1.2,3.9,1.3,5.7,0.1c1.7-1.2,2.1-3.5,1-5.2c-0.1-0.2-0.3-0.4-0.5-0.6C144.8,32.6,143.6,32.1,142.3,32.2z"/>
			<path id="_Path_2" class="st1" d="M153.1,41.4c-1.1,0-2.3-0.2-3.3-0.7c-0.2-0.1-0.3-0.2-0.1-0.4c0.2-0.3,0.3-0.5,0.4-0.8
				c0.1-0.2,0.1-0.2,0.3-0.1c1.3,0.7,2.7,0.8,4.1,0.4c0.7-0.2,1.2-0.9,1-1.7c0,0,0,0,0,0c-0.1-0.4-0.4-0.8-0.8-1
				c-0.6-0.3-1.2-0.5-1.9-0.7c-0.7-0.2-1.4-0.6-2-1.1c-1-0.8-1.2-2.2-0.4-3.2c0.1-0.1,0.2-0.3,0.4-0.4c0.6-0.6,1.4-0.9,2.2-1
				c1.3-0.2,2.6,0,3.8,0.6c0.2,0.1,0.1,0.2,0.1,0.3c-0.2,0.3-0.4,0.6-0.5,0.9c-0.2,0.3-0.2,0.2-0.3,0.1c-1-0.6-2.2-0.7-3.3-0.3
				c-0.3,0.1-0.6,0.3-0.8,0.5c-0.4,0.5-0.3,1.2,0.2,1.6c0.1,0,0.1,0.1,0.2,0.1c0.6,0.4,1.2,0.6,1.9,0.8c0.5,0.2,1,0.4,1.5,0.6
				c1.4,0.6,2,2.2,1.4,3.5c-0.3,0.6-0.8,1.1-1.4,1.4C154.9,41.2,154,41.4,153.1,41.4z"/>
			<path id="_Path_3" class="st1" d="M159.2,36.1c0-1.6,0-3.1,0-4.7c0-0.3,0.1-0.4,0.4-0.4c0.3,0,0.7,0,1,0c0.2,0,0.3,0.1,0.3,0.3
				v9.5c0,0.2,0,0.3-0.3,0.3c-0.3,0-0.7,0-1,0c-0.3,0-0.4-0.1-0.4-0.3C159.3,39.2,159.3,37.7,159.2,36.1L159.2,36.1z"/>
			<path id="_Compound_Path_5" class="st0" d="M105.3,36.5c0,9.3-7.5,16.8-16.8,16.8c-9.3,0-16.8-7.5-16.8-16.8
				c0-9.3,7.5-16.8,16.8-16.8c0,0,0,0,0,0C97.8,19.8,105.3,27.3,105.3,36.5C105.3,36.5,105.3,36.5,105.3,36.5z M88.6,20.5
				c-1.3,0-2.7,0.2-4,0.5c-6.8,1.8-11.6,7.7-12,14.7c-0.2,3.6,0.8,7.1,2.9,10c0.1,0.2,0.4,0.3,0.6,0.2c0,0,0,0,0,0
				c4.3-1.3,8.3-3.5,11.7-6.4c4.7-4,8.2-9.2,10.1-15.1c0.2-0.7,0.2-0.7-0.4-1.1C94.9,21.5,91.8,20.5,88.6,20.5z M102.1,28.2
				c0.4,1.4,0.4,2.9,0.3,4.4c-0.4,3.5-2.5,6.6-5.5,8.3c-2.1,1.2-4.4,2-6.8,2.5c-3.2,0.8-6.5,1.4-9.7,2.2c-1.3,0.4-2.7,0.7-4,1.1
				c5.6,6.7,15.7,7.6,22.4,2c2.6-2.2,4.5-5.2,5.3-8.5C105.1,36.1,104.4,31.8,102.1,28.2z"/>
			<path id="_Path_4" class="st0" d="M125,35.6c0.1-0.9,0.5-1.7,1.1-2.3c1.8-1.7,4.6-1.7,6.5,0c0.5,0.5,0.8,1.1,1,1.7
				c0.1,0.2,0,0.3-0.2,0.3c-0.8,0.1-1.7,0-2.5-0.1c-1.2-0.1-2.4-0.2-3.6-0.2C126.4,35.2,125.7,35.4,125,35.6z"/>
			<path id="_Path_5" class="st0" d="M115.6,32.2c1.6-0.1,3.1,0.6,4,1.8c1.2,1.7,0.7,4.1-1,5.3c-0.4,0.3-0.9,0.5-1.4,0.6
				c-1.5,0.4-3.1,0.1-4.3-0.8c-1.6-1.3-1.8-3.7-0.5-5.3c0.4-0.4,0.8-0.8,1.3-1C114.3,32.4,115,32.2,115.6,32.2z"/>
			<path id="_Path_6" class="st0" d="M142.3,32.2c1.3-0.1,2.5,0.4,3.5,1.3c1.5,1.4,1.5,3.8,0.1,5.3c-0.2,0.2-0.4,0.3-0.6,0.5
				c-1.7,1.1-4,1.1-5.7-0.1c-1.1-0.8-1.7-2.2-1.4-3.6C138.6,33.5,140.3,32.2,142.3,32.2L142.3,32.2z"/>
			<path id="_Path_7" class="st1" d="M88.6,20.5c3.2,0,6.4,1,9,2.8c0.6,0.4,0.6,0.4,0.4,1.1c-1.9,5.9-5.4,11.1-10.1,15.1
				c-3.4,2.9-7.4,5.1-11.7,6.4c-0.2,0.1-0.5,0-0.6-0.2c0,0,0,0,0,0c-2.1-2.9-3.1-6.4-2.9-10c0.4-7,5.2-12.9,12-14.7
				C85.9,20.7,87.2,20.6,88.6,20.5z"/>
			<path id="_Path_8" class="st1" d="M102.1,28.2c2.3,3.6,3,7.9,2,12.1c-2,8.5-10.6,13.8-19.2,11.8c-3.4-0.8-6.4-2.7-8.6-5.3
				c1.3-0.4,2.7-0.8,4-1.1c3.2-0.8,6.4-1.4,9.7-2.2c2.4-0.5,4.7-1.3,6.8-2.5c3-1.7,5.1-4.8,5.5-8.3
				C102.5,31.1,102.4,29.6,102.1,28.2z"/>
			<path id="_Path_9" class="st1" d="M159.1,28.2c0.2-0.2,0.4-0.3,0.6-0.4c0.6-0.2,1.2,0.2,1.4,0.8c0.1,0.4,0,0.9-0.4,1.2
				c-0.5,0.3-1.1,0.2-1.5-0.2c0,0-0.1-0.1-0.1-0.1L159.1,28.2z"/>
		</g>
	</g>
</g>
</svg>
