<?xml version="1.0" encoding="utf-8"?>
<!-- Generator: Adobe Illustrator 22.1.0, SVG Export Plug-In . SVG Version: 6.00 Build 0)  -->
<svg version="1.1" id="Layer_1" xmlns="http://www.w3.org/2000/svg" xmlns:xlink="http://www.w3.org/1999/xlink" x="0px" y="0px"
	 viewBox="0 0 233 73" style="enable-background:new 0 0 233 73;" xml:space="preserve">
<style type="text/css">
	.st0{fill:#3D3D3D;}
	.st1{fill:#6B6B6B;}
	.st2{fill:#AEADAE;}
	.st3{fill:#7F7F7F;}
	.st4{fill:#939292;}
	.st5{fill:#EA9344;}
	.st6{fill:#E2823F;}
	.st7{fill:#D56237;}
	.st8{fill:#030303;}
	.st9{fill:#F0AA47;}
</style>
<title>Asset 10</title>
<g id="Layer_2_1_">
	<g id="Layer_1-2">
		<g id="_Group_">
			<path id="_Compound_Path_" class="st0" d="M119.7,12.5h0.7l0,0c1.2,0.2,2.1,1.4,1.9,2.7c0,0.2-0.1,0.4-0.2,0.6
				c-0.1,0.3-0.2,0.7-0.1,1c0.2,0.7,0.5,1.3,0.9,1.8c0.6,0.9,1.3,1.7,2,2.5c1.4,1.6,2.2,3.7,2.1,5.8c0,0.1,0,0.1,0.1,0.2
				s0.4,0.1,0.6,0.1c3.4,0.7,6.7,1.8,9.8,3.3c0.1,0.1,0.2,0.1,0.4,0.1c0.5,0,1.1,0,1.6,0.2c2.5,0.6,4.5,2.5,5.2,5
				c0,0.1,0.1,0.3,0.2,0.4c0.8,0.9,1.4,2,1.9,3.1c0.8,1.8,1,3.8,0.7,5.7c-0.2,1-0.5,2-1,2.9c-0.1,0.1-0.1,0.2,0,0.3c0,0,0,0,0,0
				c0.6,0.6,1,1.4,1.2,2.2c0,0.2,0.1,0.4,0.1,0.5v1.4c-0.1,0.1-0.1,0.2-0.1,0.3c-0.2,1-0.7,1.9-1.4,2.5c-1.2,1-2.8,1.6-4.4,1.6
				c-1.4,0.1-2.9-0.2-4.2-0.8c-0.1-0.1-0.2-0.1-0.3,0c-0.5,0.2-0.9,0.5-1.4,0.7c-2.9,1.3-5.9,2.2-9,2.8c-2.4,0.5-4.8,0.8-7.2,0.9
				c-0.3,0-0.6,0-0.9,0.1h-4.5c0-0.1-0.1,0-0.1,0c-2.4-0.1-4.8-0.4-7.2-0.8c-3-0.6-6-1.4-8.9-2.6C98.1,57,98,57,97.9,57l-3.6-0.2
				c-0.6,0-1.1-0.4-1.3-1c0-0.2,0-0.4-0.1-0.5c-0.1-0.1-0.3,0-0.5-0.1s-0.2,0-0.2,0.2c-0.2,0.7-0.9,1.2-1.6,1.1l-4-0.3
				c-0.6,0-1-0.4-1.2-0.9c0,0,0-0.1-0.1-0.2v-0.6l0.2-0.4c0.6-1.6,1.4-3.1,2.1-4.7c0.1-0.1,0.1-0.3,0-0.5c-1-1.5-1.6-3.3-1.8-5.1
				c-0.1-1.7,0.3-3.4,1-4.9c0.6-1.3,1.4-2.5,2.4-3.5c0.1-0.1,0.2-0.3,0.2-0.4c0.1-0.9,0.2-1.8,0.3-2.6c0.1-0.7,0.6-1.2,1.3-1.3
				l3.7-0.2c0.3,0,0.6,0,0.9-0.1c1.9-1,3.9-1.8,6-2.4c1.5-0.5,3-0.8,4.5-1.1c0.1,0,0.2,0,0.2-0.2c0-1.3,0.4-2.6,1-3.7
				c1.2-2.2,3.2-3.9,5.6-4.7c0.3-0.1,0.5-0.1,0.8-0.1c0.4,0,0.7,0.1,1.1,0.3c0-0.3,0.1-0.5,0.1-0.7c0.2-1.2,0.8-2.3,1.6-3.2
				C117.4,13.8,118.4,13,119.7,12.5z M96.7,38.8c0.1,0,0.2-0.1,0.3-0.2c0.7-0.6,1.1-1.4,1.2-2.3c0.1-0.4,0.1-0.8,0.1-1.3
				c0-0.6-0.2-1.1-0.6-1.6c-0.5-0.6-1.3-1-2.1-1c-0.7,0-1.4,0-2.1,0.1c-0.8,0-1.6,0-2.4,0.1c-0.1,0-0.2,0.1-0.2,0.2
				c0,0.1,0,0.4-0.1,0.6c-0.1,0.7-0.2,1.4-0.2,2.1l0,0c0,0,0,0.1,0,0.1c0,0.4-0.1,0.7-0.1,1c0,0.3-0.1,0.6-0.1,1c0,0.1,0,0.2,0,0.4
				c0,0,0,0.1,0,0.1c0,0.2,0,0.5-0.1,0.7c-0.1,0.5-0.1,1-0.2,1.5L90,41.8c0,0,0,0.1,0,0.1c0,0.3,0,0.3,0.2,0.3h2.5
				c0.4,0,0.4,0,0.4-0.4c0-0.3,0-0.5,0.1-0.8c0-0.4,0.1-0.7,0.1-1.1c0-0.2,0.1-0.4,0.1-0.6c0-0.1,0.1-0.2,0.2-0.2h1.6
				C95.7,39.2,96.2,39.1,96.7,38.8L96.7,38.8z M114.3,34.5c0,0.5,0,1.1,0.1,1.6c0,0.4,0.1,0.8,0.1,1.1c0,0.1,0,0.2,0,0.2
				c-0.1,0-0.1-0.1-0.1-0.1l-0.5-1c0-0.1,0-0.2-0.1-0.2c0-0.1-0.1-0.2-0.1-0.3c-0.3-0.6-0.6-1.1-0.8-1.7l0,0l0,0l-1-2.2
				c0-0.1-0.1-0.1-0.2-0.1h-2.7c-0.1,0-0.2,0.1-0.2,0.2s0,0.5,0,0.7l-0.1,2.1l-0.1,2.1c0,0.2,0,0.4,0,0.6c-0.1,1.5-0.1,3.1-0.2,4.6
				c0,0.1,0,0.2,0.1,0.2h2.8c0.1,0,0.1,0,0.1-0.1c0-0.3,0-0.6,0-0.8c0-1.2,0.1-2.4,0-3.7l-0.1-0.8c0.1,0,0.1,0,0.2,0.1
				c0.2,0.5,0.5,1,0.8,1.5c0.4,0.8,0.8,1.5,1.2,2.3c0.2,0.5,0.5,0.9,0.7,1.4c0,0.1,0.1,0.2,0.2,0.2c0.9,0,1.8,0,2.8,0
				c0.2,0,0.2-0.1,0.2-0.2c0-1.4,0-2.7,0-4.1c0-0.2,0-0.4,0-0.6c0-1.8,0-3.6,0-5.4c0-0.1,0-0.1-0.1-0.1h-2.7c-0.1,0-0.2,0-0.2,0.1
				C114.3,32.8,114.3,33.7,114.3,34.5z M128.5,40.1c0-0.4,0-0.9-0.1-1.3c0-0.2,0-0.2,0.2-0.2c0.5,0,1.1,0,1.6,0c0.1,0,0.1,0,0.1,0.2
				c0,0.4,0.1,0.7,0.1,1.1l0.1,1c0,0.4,0.1,0.8,0.1,1.1c0,0.1,0,0.2,0.2,0.2h2.9c0.1,0,0.2,0,0.1-0.2c-0.1-0.7-0.1-1.5-0.2-2.2
				l-0.2-2.4l-0.2-3.4l-0.1-1.8c0-0.1-0.1-0.1-0.1-0.1l-2.7-0.1c-0.1,0-0.2,0-0.2,0.2c0,0.4,0,0.7,0.1,1.1c0,0.3,0,0.6,0.1,0.9
				c0,0.4,0,0.8,0,1.1c0,0.1,0.1,0.2-0.1,0.2c-0.6,0-1.1,0-1.7,0c-0.1,0-0.1,0-0.1-0.1l0-1.4c0-0.6,0-1.2-0.1-1.9
				c0-0.1-0.1-0.1-0.2-0.1h-0.6l-2.2-0.1c-0.1,0-0.2,0-0.2,0.1c0,0.3,0,0.6,0,0.8s0,0.7,0,1c0,0.3,0.1,0.5,0.2,0.8v1.8
				c0,0.3,0,0.6,0,0.8c0,0.2,0,0.5,0,0.7c0,0.5,0,0.9,0,1.4v0.3c0,0.8,0.1,1.7,0.1,2.5c0,0.1,0.1,0.1,0.2,0.1h3c0.2,0,0.2,0,0.2-0.2
				C128.5,41.4,128.5,40.8,128.5,40.1L128.5,40.1z M134.1,38.1c0.1,0.6,0.4,1.2,0.7,1.8c0,0,0,0.1,0,0.1c0.4,0.6,1,1.2,1.6,1.6
				c0.8,0.5,1.7,0.7,2.6,0.8c1,0.1,2-0.2,2.9-0.7c0.6-0.4,1.1-1,1.4-1.7c0,0,0.1,0,0.1-0.1c0-0.1,0,0,0,0c0-0.1,0.1-0.1,0.1-0.2
				c0.2-0.6,0.3-1.3,0.2-2c0-0.8-0.2-1.5-0.5-2.2v-0.1c-0.6-1.2-1.7-2.2-2.9-2.8c-0.9-0.4-2-0.6-3-0.4c-1.1,0.2-2,0.9-2.6,1.8
				c-0.3,0.5-0.5,1.1-0.6,1.7c0,0.1,0,0.2,0,0.2c-0.1,0.7,0,1.3,0.1,2V38.1C134.1,38.1,134.1,38.2,134.1,38.1L134.1,38.1z
				 M124.5,34.2v-0.1c0-0.7-0.1-1.3-0.1-2c0-0.1-0.1-0.1-0.1-0.2c-0.8-0.4-1.8-0.5-2.7-0.4c-1.7,0.3-3,1.6-3.4,3.2
				c-0.2,0.5-0.3,1-0.3,1.5c-0.1,0.4-0.1,0.8,0,1.3c0,0.3,0,0.5,0.1,0.8c0.2,1.3,0.9,2.5,2,3.2c1.4,0.9,3.1,1.1,4.6,0.5
				c0.1,0,0.2-0.1,0.2-0.2c0-1,0-1.9,0-2.9v-0.8c-0.2,0.2-0.3,0.3-0.5,0.4c-0.6,0.5-1.4,0.6-2.1,0.3c-0.5-0.3-0.9-0.7-1-1.3
				c-0.1-0.4-0.1-0.9,0-1.3c0.2-0.9,1.1-1.4,2-1.2c0,0,0,0,0.1,0c0.5,0.2,0.9,0.4,1.2,0.8c0.1,0,0.1,0.1,0.2,0.1c0,0,0-0.1,0-0.1
				c0-0.4-0.1-0.8-0.1-1.3C124.6,34.5,124.6,34.4,124.5,34.2L124.5,34.2z M98.5,39.5c0.2,0.7,0.7,1.4,1.3,1.9
				c1.1,0.8,2.5,1.2,3.8,0.9c2.3-0.4,4.1-2.3,4.3-4.6c0,0,0-0.1,0-0.1c0.1-0.6,0.1-1.1,0-1.7c-0.1-0.6-0.2-1.1-0.5-1.6
				c0-0.1-0.1-0.2-0.1-0.2c-0.5-1-1.5-1.8-2.6-2.1c-1.2-0.4-2.6-0.2-3.7,0.5c-0.6,0.3-1.1,0.7-1.5,1.3l-0.1,0.1
				c-0.8,1-1.3,2.3-1.3,3.6c0,0.1,0,0.2,0,0.3C98.2,38.3,98.3,39,98.5,39.5z M119.4,29.9L119.4,29.9h4.2c0.1,0,0.2-0.1,0.2-0.1
				c0.1-0.3,0.3-0.6,0.4-0.9c0.1-0.4,0.2-0.8,0.3-1.3c0.2-1.5-0.2-3.1-1.1-4.3c-0.6-0.8-1.2-1.5-1.8-2.2c-0.7-0.8-1.3-1.8-1.7-2.8
				c-0.4-0.9-0.4-1.9-0.2-2.8c0-0.2,0.1-0.3,0.2-0.5c-0.2,0.1-0.3,0.2-0.5,0.3c-0.7,0.5-1.2,1.1-1.7,1.8c-0.4,0.7-0.7,1.5-0.7,2.3
				c0,0.9,0.1,1.7,0.2,2.6c0.1,0.9-0.1,1.7-0.7,2.4c-0.3,0.4-0.6,0.7-1.1,1c-0.3,0.2-0.7,0.3-1,0.3c-0.3,0-0.7-0.1-1-0.3
				c-0.5-0.3-0.8-0.8-0.9-1.3c-0.1-0.8,0.1-1.7,0.4-2.4l0.3-0.7h-0.1l-0.1,0.1c-1.3,0.5-2.4,1.3-3.3,2.4c-0.7,0.8-1.2,1.8-1.3,2.9
				c-0.2,1.2-0.1,2.5,0.4,3.6c0,0.1,0.1,0.2,0.2,0.1h1.9c0.3,0,0.3,0,0.2-0.3c0,0,0-0.1,0-0.1c-0.2-0.7-0.3-1.4-0.1-2.1
				c0-0.3,0.1-0.6,0.2-0.9c0.1,0.3,0.2,0.6,0.4,0.9c0.7,1,1.8,1.5,3,1.3c1.1-0.1,2.1-0.5,2.9-1.1c0.7-0.5,1.3-1.2,1.6-2
				c0.2-0.4,0.3-0.8,0.3-1.3C120.7,26.1,120.6,28.3,119.4,29.9z M106.8,50.4c0,0.3,0,0.7,0.1,1c0.2,1.8,1.3,3.4,3,4.2
				c1.2,0.6,2.6,0.8,3.9,0.5c1.9-0.3,3.5-1.6,4.2-3.4c0.5-1.2,0.6-2.6,0.4-3.8c-0.2-1.6-1.2-3.1-2.5-4c-2.4-1.6-5.6-1.2-7.5,1
				C107.3,47.2,106.8,48.8,106.8,50.4z M125.7,55.9L125.7,55.9l4-0.1c0.2,0,0.2-0.1,0.2-0.2c0.1-0.4,0.1-0.7,0.2-1.1
				c0-0.1,0.1-0.2,0.2-0.2l2.6-0.1c0.1,0,0.2,0,0.2,0.2c0.1,0.4,0.2,0.7,0.3,1.1c0,0.1,0.1,0.2,0.2,0.2l2.6-0.1l1.4,0
				c0-0.1-0.1-0.2-0.1-0.2c-1.6-3.6-3.1-7.3-4.5-11c0-0.1-0.1-0.2-0.3-0.2c0,0,0,0,0,0h-3.8c-0.2,0-0.2,0-0.2,0.2
				c-0.8,3.2-1.7,6.4-2.6,9.6L125.7,55.9z M86.6,54.9L86.6,54.9l4.1,0.3c0.1,0,0.2,0,0.2-0.1l0.3-1.1c0-0.1,0.1-0.1,0.2-0.1l2.7,0.2
				c0.1,0,0.1,0,0.2,0.1c0.1,0.4,0.1,0.8,0.2,1.1c0,0.1,0.1,0.2,0.2,0.2l3.8,0.2c0.2,0,0.2,0,0.1-0.2c-0.2-0.6-0.3-1.2-0.5-1.8
				c-0.8-3.1-1.6-6.2-2.3-9.4c0-0.1-0.1-0.2-0.2-0.2h-3.7c-0.2,0-0.3,0.1-0.4,0.2c-1.1,2.6-2.3,5.1-3.5,7.6
				C87.5,52.9,87.1,53.9,86.6,54.9z M141.9,55.4c0.7,0,1.5-0.2,2.2-0.5c1.5-0.5,2.5-2.1,2.3-3.7c-0.1-0.8-0.4-1.6-1.1-2.1
				c-0.6-0.5-1.3-0.8-2-0.9c-0.5-0.1-0.9-0.2-1.4-0.3c-0.2,0-0.4-0.2-0.4-0.5c0-0.2,0.1-0.4,0.4-0.5c0.3-0.1,0.5-0.1,0.8,0
				c0.6,0.1,1.2,0.3,1.8,0.7c0.1,0.1,0.1,0.1,0.2-0.1c0.2-0.8,0.4-1.7,0.6-2.5c0-0.1,0-0.2-0.1-0.2c-1.2-0.7-2.6-1-4-0.8
				c-1,0.1-1.9,0.6-2.6,1.4c-0.9,1.1-1.1,2.6-0.5,3.9c0.5,0.9,1.3,1.5,2.3,1.7c0.5,0.1,1.1,0.2,1.6,0.3c0.3,0,0.5,0.2,0.5,0.5
				c0,0.3-0.1,0.5-0.4,0.6c-0.4,0.2-0.8,0.2-1.2,0.1c-0.7-0.1-1.4-0.5-1.9-0.9c-0.1-0.1-0.2-0.1-0.2,0.1c-0.3,1-0.5,1.9-0.8,2.9
				c0,0.2,0,0.2,0.1,0.2C139.3,55.2,140.6,55.5,141.9,55.4z M121,52L121,52l0.1,3.9c0,0.2,0,0.2,0.2,0.2h0.5c1,0,2,0,3,0
				c0.2,0,0.2-0.1,0.2-0.2l-0.1-3.9c0-1.3-0.1-2.5-0.1-3.8c0-0.1,0-0.2,0.2-0.2c0.6,0,1.1,0.1,1.7,0.1c0.2,0,0.2,0,0.2-0.2
				c-0.1-1.1-0.1-2.3-0.1-3.4c0-0.2-0.1-0.2-0.2-0.2c-2.5,0-5,0-7.5,0c-0.2,0-0.2,0.1-0.2,0.2c0,1.2,0,2.3,0,3.5
				c0,0.1,0,0.2,0.2,0.2l1.7-0.1c0.2,0,0.2,0,0.2,0.2C121,49.4,121,50.7,121,52z M102.7,55.8L102.7,55.8l3.4,0.1
				c0.1,0,0.2,0,0.2-0.2s0-0.3,0-0.5c0-1,0.1-2,0.1-3c0-0.1,0-0.2-0.2-0.2c-1,0-1.9,0-2.9,0c-0.2,0-0.2-0.1-0.2-0.3
				c0.1-1.5,0.2-3,0.2-4.5c0.1-1,0.1-2,0.2-3c0-0.1,0-0.2-0.1-0.2c-1.2,0-2.3,0-3.5,0c-0.1,0-0.2,0-0.2,0.1c0,0.5-0.1,0.9-0.1,1.4
				c-0.1,1.3-0.2,2.7-0.3,4s-0.2,2.6-0.3,3.9c-0.1,0.6-0.1,1.3-0.1,1.9c0,0.1,0,0.2,0.2,0.2L102.7,55.8z"/>
			<path id="_Path_" class="st1" d="M119.4,29.9c1.2-1.6,1.3-3.8,0.3-5.6c-0.1,0.4-0.2,0.9-0.3,1.3c-0.3,0.8-0.9,1.5-1.6,2
				c-0.8,0.6-1.9,1-2.9,1.1c-1.2,0.2-2.3-0.3-3-1.3c-0.2-0.3-0.3-0.6-0.4-0.9c-0.1,0.3-0.1,0.6-0.2,0.9c-0.1,0.7-0.1,1.4,0.1,2.1
				c0,0,0,0,0,0.1c0.1,0.3,0.1,0.3-0.2,0.3h-1.9c-0.1,0-0.2,0-0.2-0.1c-0.5-1.1-0.6-2.4-0.4-3.6c0.2-1.1,0.7-2,1.3-2.9
				c0.9-1,2-1.9,3.3-2.4l0.1,0h0.1l-0.4,0.7c-0.4,0.8-0.6,1.6-0.5,2.5c0.1,0.6,0.4,1,0.9,1.3c0.3,0.2,0.6,0.3,1,0.3
				c0.4,0,0.7-0.1,1-0.3c0.4-0.3,0.8-0.6,1.1-1c0.5-0.7,0.7-1.6,0.7-2.4c0-0.9-0.2-1.7-0.2-2.6c0-0.8,0.2-1.6,0.7-2.3
				c0.5-0.7,1-1.3,1.7-1.8c0.1-0.1,0.3-0.2,0.5-0.3c-0.1,0.2-0.1,0.3-0.2,0.5c-0.3,0.9-0.2,1.9,0.2,2.8c0.4,1,1,1.9,1.7,2.8
				c0.6,0.8,1.3,1.5,1.8,2.2c1,1.2,1.4,2.8,1.1,4.3c-0.1,0.4-0.2,0.9-0.3,1.3c-0.1,0.3-0.3,0.6-0.4,0.9c0,0.1-0.1,0.2-0.2,0.1
				L119.4,29.9L119.4,29.9z"/>
			<path id="_Path_2" class="st2" d="M113.7,36.2c0.1,0,0.1,0.1,0.1,0.2l0.5,1c0,0.1,0,0.2,0.1,0.1s0-0.1,0-0.2
				c0-0.4-0.1-0.8-0.1-1.1l0,0c0,0.1,0.1,0.2,0.1,0.3c0.1-0.2,0-0.5,0.1-0.7c0.1,0.1,0,0.2,0.1,0.3s0.2,0,0.3,0c0.1,0.1,0.1,0,0.1,0
				h1.4c0.3,0,0.3,0,0.3,0.3l0,0c0-0.2,0-0.3,0-0.5c0,0,0-0.1,0.1-0.1s0.1,0.1,0.1,0.1c0,0.2,0,0.5,0,0.7c0,0,0,0.1,0.1,0.1v-0.5
				c0-0.1,0-0.1,0.1-0.2c0,0.1,0,0.3,0,0.4c0,0.2,0,0.5,0,0.7c0,0.2,0,0.4,0,0.6c0,1.4,0,2.7,0,4.1c0,0.1,0,0.2-0.2,0.2
				c-0.9,0-1.9,0-2.8,0c-0.1,0-0.2,0-0.2-0.1c-0.2-0.5-0.5-0.9-0.7-1.4c-0.4-0.8-0.8-1.5-1.2-2.3c-0.3-0.5-0.5-1-0.8-1.5
				c0-0.1-0.1-0.1-0.2-0.1l0.1,0.8c0.1,1.2,0,2.4,0,3.7c0,0.3,0,0.5,0,0.8c0,0.1,0,0.1-0.1,0.1h-2.7c-0.1,0-0.2,0-0.1-0.2
				c0-1.5,0.1-3.1,0.2-4.6c0-0.2,0-0.4,0-0.6c0.1,0,0.1-0.1,0.1-0.2l0,0c0,0,0,0.1,0.1,0.1v-0.5c0-0.1,0-0.1,0.1-0.1
				c0.8,0,1.6,0,2.3,0c0.1,0,0.1,0,0.1,0.1c-0.1,0.1-0.1,0.1,0,0.2c0.1,0.1,0.1,0,0.2,0c0.1,0,0.1-0.1,0.1-0.1
				c0-0.1,0.1-0.2,0.2-0.2h1.6c0.1,0,0.1,0,0.2,0.1C113.6,36.4,113.6,36.3,113.7,36.2z"/>
			<path id="_Path_3" class="st3" d="M98.2,37.4c0-1.3,0.5-2.6,1.4-3.6l0.1-0.1v0.1l0,0c0,0.1,0,0.1,0.1,0.1c0,0,0,0,0,0
				c0.2,0,0.4,0,0.6,0h6.1c0.1,0,0.2,0,0.3,0c0.2,0,0.4-0.1,0.5,0.2c0,0.1,0.1,0.1,0.2,0.1c0.2,0.5,0.4,1.1,0.5,1.6
				c0.1,0.6,0.1,1.1,0,1.7c0,0,0,0.1,0,0.1v-0.1c-0.1,0,0,0.2-0.1,0.2c-0.1,0-0.1-0.1-0.1-0.2c0-0.1,0-0.1-0.1-0.1
				c0,0.2-0.1,0.3-0.3,0.3c0,0-0.1,0-0.1,0c0,0-0.1,0-0.1,0c-0.7,0-1.4,0-2.1,0c-0.1,0-0.2,0-0.2-0.2c0.1-0.4,0.1-0.8,0-1.1
				c-0.1-0.8-0.8-1.4-1.6-1.3c-0.2,0-0.3,0.1-0.4,0.1c-0.5,0.3-1,0.7-1.1,1.3c-0.1,0.2-0.1,0.5-0.1,0.7c-0.1,0-0.1,0.1,0,0.1
				c0,0.1,0,0.1,0,0.2l-0.1-0.1c0,0.2-0.1,0.2-0.2,0.2c-0.8,0-1.7,0-2.5,0C98.4,37.7,98.2,37.7,98.2,37.4z"/>
			<path id="_Path_4" class="st3" d="M133.2,34l0.2,3.5c-0.1,0-0.2,0-0.2-0.1c-0.1,0.2,0,0.3-0.1,0.5c0-0.2-0.1-0.2-0.2-0.2h-7.1
				c-0.1,0-0.2-0.1-0.2,0.1s-0.1,0.1-0.1,0.1c-0.1,0-0.1-0.1-0.1-0.1c0-0.1,0-0.2-0.1-0.2v0.4c0-0.2,0-0.5,0-0.7c0-0.3,0-0.6,0-0.8
				l-0.2-1.8V34l0,0c0.1,0.1,0.2,0.1,0.2,0.1c0.1,0,0,0.1,0,0.1c0,0,0,0,0.1-0.1h2.1c0.2,0.1,0.3,0,0.3-0.2c0-0.1,0.1-0.1,0.1-0.1
				l0.1,1.4c0,0.1,0,0.1,0.1,0.1c0.6,0,1.1,0,1.7,0c0.1,0,0.1-0.1,0.1-0.2c0-0.4,0-0.8,0-1.1c0-0.1,0-0.1,0-0.2c0,0.1,0,0.3,0.2,0.2
				h0.3h2.2C132.9,34.2,133.1,34.1,133.2,34z"/>
			<path id="_Path_5" class="st1" d="M134,35.8c0.1-0.6,0.3-1.2,0.6-1.7c0.6-1,1.5-1.6,2.6-1.8c1-0.2,2.1,0,3,0.4
				c1.3,0.6,2.3,1.6,2.9,2.8v0.1c-0.1,0-0.2,0.3-0.4,0.2c-0.2-0.1-0.4,0-0.5,0h-1.7c-0.2,0-0.3,0.1-0.5,0.1c0,0-0.1,0.1-0.1,0.1
				s0.1,0.3,0.1,0.4l-0.2-0.2c-0.5-0.7-1.3-0.9-2.1-0.6c-0.3,0.2-0.5,0.4-0.6,0.7c-0.1,0,0-0.1,0-0.1l0,0c0.1-0.1,0-0.2,0.1-0.3
				c0.1-0.1,0-0.1,0-0.1s-0.2,0-0.2,0S137.1,36,137,36h-2.3c-0.1,0-0.2,0-0.3,0.1c0-0.1,0-0.1,0-0.2s0-0.1,0-0.1
				c-0.1,0-0.1,0-0.1,0.1c0,0,0,0.1,0,0.1c0,0,0,0.1-0.1,0.1c-0.1,0,0-0.1,0-0.1C134.1,35.9,134.1,35.8,134,35.8z"/>
			<path id="_Path_6" class="st2" d="M121.1,37.5c0.1,0.6,0.5,1,1,1.3c0.7,0.3,1.5,0.2,2.1-0.3c0.2-0.1,0.3-0.3,0.5-0.4v0.8
				c0,1,0,1.9,0,2.9c0,0.1,0,0.2-0.2,0.2c-1.5,0.6-3.2,0.4-4.6-0.5c-1.1-0.8-1.8-1.9-2-3.2c-0.1-0.3-0.1-0.5-0.1-0.8
				c0,0,0.1,0,0.1,0l0.1,0.4c0.1-0.2,0-0.3,0.1-0.5c0,0.2,0.2,0.2,0.3,0.2c0.8,0,1.6,0,2.4,0C121,37.6,121,37.6,121.1,37.5z"/>
			<path id="_Path_7" class="st1" d="M90.7,35.5c0-0.7,0.2-1.4,0.2-2.1c0-0.2,0-0.4,0.1-0.6c0.1-0.2,0.1-0.2,0.2-0.2
				c0.8,0,1.5-0.1,2.3-0.2c0.7-0.1,1.4-0.1,2.1-0.1c0.8,0,1.6,0.4,2.1,1c0.3,0.5,0.5,1,0.6,1.6c0.1,0.4,0,0.9-0.1,1.3
				c0,0-0.1,0-0.1,0c0,0,0-0.2-0.1-0.3c-0.1,0-0.2-0.1-0.3,0h-2.1c-0.1,0-0.2,0-0.3-0.1c0-0.1,0-0.2,0-0.2c0-0.2-0.2-0.4-0.4-0.5
				c-0.3,0-0.6,0-0.9,0c0,0-0.1,0-0.1,0.1c-0.1,0-0.1,0.1-0.1,0.1s-0.1,0.3-0.1,0.5c-0.1-0.1-0.2-0.2-0.2-0.4
				c-0.1,0.2-0.2,0.2-0.3,0.2h-1.6c-0.1,0-0.3,0-0.3-0.2c0,0.1,0,0.1,0,0.2c0,0.1,0,0.2-0.1,0.2S91,35.8,91,35.7
				C91,35.4,91,35.4,90.7,35.5z"/>
			<path id="_Path_8" class="st3" d="M90.7,35.5c0.2-0.1,0.2-0.1,0.3,0.2c0,0.1,0,0.2,0.1,0.2s0.1-0.1,0.1-0.2c0-0.1,0-0.1,0-0.2
				c0.1,0.2,0.2,0.2,0.3,0.2h1.6c0.1,0,0.2,0,0.3-0.2c0,0.1,0.1,0.3,0.2,0.4c0-0.2,0.1-0.3,0.1-0.5s0-0.1,0.1-0.1v0.2
				c0,0,0,0.1,0,0.1c0,0.4-0.1,0.8-0.1,1.2c0,0.1,0,0.2,0.1,0.2c0.2,0,0.4,0,0.6-0.1c0.4,0,0.7-0.3,0.8-0.7c0,0,0.1,0,0.1-0.1h-0.1
				c0,0,0-0.1,0.1-0.1c0.1,0.1,0.2,0.1,0.3,0.1h2.1c0.1,0,0.2,0,0.3,0c0.2,0,0.1,0.2,0.1,0.3c0,0.1,0,0,0.1,0
				c-0.1,0.9-0.6,1.7-1.2,2.2c-0.1,0-0.2-0.1-0.3,0.1c-0.1,0.2-0.1,0.1-0.1,0c0-0.1-0.2-0.1-0.3-0.1h-5.3c-0.1,0-0.3,0-0.3,0.1v-1
				c0-0.3,0.1-0.6,0.1-1s0.1-0.7,0.1-1C90.7,35.6,90.7,35.6,90.7,35.5L90.7,35.5z"/>
			<path id="_Path_9" class="st2" d="M143.4,39.9L143.4,39.9L143.4,39.9c-0.1,0-0.1-0.1-0.2-0.1c-0.1,0-0.1,0-0.1,0
				C143.2,39.9,143.2,40,143.4,39.9c-0.3,0.8-0.8,1.4-1.5,1.7c-0.9,0.5-1.9,0.8-2.9,0.7c-0.9,0-1.8-0.3-2.6-0.8
				c-0.6-0.4-1.2-0.9-1.6-1.6c0,0,0-0.1,0-0.1c0.1-0.2,0.3-0.3,0.5-0.3h7.6c0.1,0,0.1,0,0.2,0s0.2,0,0.4,0l0,0
				C143.4,39.7,143.4,39.8,143.4,39.9z"/>
			<path id="_Path_10" class="st2" d="M107.2,39.8c-0.8,1.4-2.1,2.3-3.6,2.5c-1.3,0.3-2.7-0.1-3.8-0.9c-0.6-0.5-1.1-1.1-1.3-1.9
				c0.2-0.1,0,0.2,0.2,0.2s0.1-0.1,0.2-0.1c0.1,0,0.4,0,0.6,0h7.4c0.1,0,0.2,0,0.2-0.1c0,0,0.1-0.1,0.1,0c0,0,0,0.1,0,0.1
				C107.1,39.8,107.2,39.8,107.2,39.8z"/>
			<path id="_Compound_Path_2" class="st4" d="M121.1,37.5c-0.1,0.1-0.2,0.1-0.2,0.1c-0.8,0-1.6,0-2.4,0c-0.1,0-0.2,0-0.3-0.2
				c-0.1,0.2,0,0.3-0.1,0.5l-0.1-0.5c0-0.1,0-0.1-0.1,0c-0.1-0.4-0.1-0.8,0-1.3c0-0.5,0.1-1,0.3-1.5c0.1,0,0.1-0.1,0.2-0.2
				c0.1-0.3,0.2-0.5,0.4-0.7V34l0,0l0,0c0,0,0-0.1,0.1-0.1c0.1,0.1,0.3,0.1,0.4,0.1h4.6c0.2,0,0.5,0,0.7,0.2v0.1
				c-0.1,0.1-0.1,0.2,0,0.3c0,0.4,0.1,0.8,0.1,1.3c0,0,0,0.1,0,0.1c-0.1,0-0.2-0.1-0.2-0.1c-0.3-0.4-0.7-0.7-1.2-0.8
				c-0.9-0.2-1.8,0.3-2,1.2C121.1,36.6,121,37.1,121.1,37.5z M118.9,34.2C118.9,34.2,118.9,34.2,118.9,34.2c-0.1,0-0.1,0-0.1,0
				S118.7,34.2,118.9,34.2C118.9,34.2,118.9,34.2,118.9,34.2L118.9,34.2z M124.3,34.7L124.3,34.7L124.3,34.7L124.3,34.7
				C124.3,34.7,124.3,34.6,124.3,34.7L124.3,34.7z"/>
			<path id="_Path_11" class="st4" d="M107.2,39.8c-0.1,0-0.1,0-0.1-0.1c0,0,0-0.1,0-0.1c-0.1,0-0.1,0-0.1,0
				c-0.1,0.1-0.1,0.1-0.2,0.1h-7.4c-0.2,0-0.4,0-0.6,0c-0.2,0.1-0.2,0-0.2,0.1s0-0.2-0.2-0.2c-0.2-0.6-0.3-1.2-0.3-1.8
				c0-0.1,0-0.2,0-0.3c0,0.3,0.2,0.3,0.4,0.3c0.9,0,1.7,0,2.5,0c0.1,0,0.2,0,0.2-0.2l0.1,0.1c0,0.1,0,0.2,0,0.2
				c0.2,0.8,1,1.4,1.8,1.2c0.3-0.1,0.5-0.2,0.7-0.4c0.4-0.3,0.6-0.7,0.7-1.2c0,0.1,0.1,0.2,0.2,0.2c0.7,0,1.4,0,2.1,0
				c0,0,0.1,0,0.1,0c0.1,0.1,0.3,0,0.4-0.1c0,0,0-0.1,0-0.1c0.1,0,0.1,0.1,0.1,0.1s0,0.2,0.1,0.2s0-0.1,0.1-0.2v0.1
				C107.8,38.4,107.6,39.2,107.2,39.8z"/>
			<path id="_Path_12" class="st4" d="M143.4,39.7c-0.1,0-0.2-0.2-0.4,0s-0.1,0-0.2,0h-7.6c-0.2,0-0.4,0.1-0.5,0.3
				c-0.4-0.5-0.6-1.1-0.7-1.8c0-0.1,0.1-0.1,0-0.1V38c0.2-0.2,0.2,0.1,0.3,0.2c0-0.2,0.1-0.3,0.3-0.3h2c0.1,0,0.2,0,0.4,0
				c0.1,0,0.2,0,0.2,0c0.1,0.3,0.3,0.5,0.5,0.8c0.4,0.5,1.1,0.7,1.8,0.5c0.6-0.2,1-0.7,1-1.2c0.1-0.1,0-0.3,0.1-0.4
				c0,0.2,0.1,0.3,0.3,0.2c0.1,0,0.2,0,0.3,0h1.6c0.1,0,0.1,0,0.2,0c0.1,0,0.1,0.1,0.2,0s0.2-0.1,0.1,0s0.2,0,0.2,0.2
				c0.1,0,0-0.1,0.1-0.1C143.8,38.4,143.7,39.1,143.4,39.7c0.1,0.1,0,0.1,0,0.2C143.4,39.8,143.4,39.8,143.4,39.7L143.4,39.7z"/>
			<path id="_Path_13" class="st1" d="M99.6,33.8v-0.1c0.4-0.5,0.9-1,1.5-1.3c1.1-0.7,2.4-0.9,3.7-0.5c1.1,0.3,2,1.1,2.6,2.1
				c0,0.1,0.1,0.2,0.1,0.2c-0.1,0-0.2,0-0.2-0.1c-0.1-0.3-0.3-0.2-0.5-0.2c-0.1,0-0.2,0-0.3,0h-6.1c-0.2,0-0.4,0-0.6,0
				C99.7,34,99.6,34,99.6,33.8C99.6,33.9,99.6,33.9,99.6,33.8L99.6,33.8L99.6,33.8L99.6,33.8z"/>
			<path id="_Path_14" class="st4" d="M125.3,37.8v-0.4c0.1,0.1,0.1,0.2,0.1,0.2c0,0,0,0.1,0.1,0.1c0.1,0,0.1,0,0.1-0.1
				c0-0.1,0.1-0.1,0.2-0.1h7.1c0.1,0,0.3,0,0.2,0.2c0.1-0.2,0-0.4,0.1-0.5c0.1,0.1,0.2,0.1,0.2,0.1l0.2,2.4c-0.1,0-0.1,0-0.1-0.3
				c-0.1,0-0.1,0.1-0.1,0.1c-0.2,0-0.4,0-0.6,0h-1.5c-0.1,0-0.2,0-0.2-0.1c0-0.1,0-0.1-0.1-0.1s0,0.1,0,0.1s0.1,0.1,0,0.2
				c-0.1,0-0.1,0-0.1-0.1c0-0.1,0,0,0,0s-0.1,0.3-0.1,0.2c-0.1,0-0.1,0.1-0.1,0.1c0-0.4-0.1-0.7-0.1-1.1c0-0.1,0-0.2-0.1-0.2
				c-0.5,0-1.1,0-1.6,0c-0.2,0-0.2,0.1-0.2,0.2v0.3h-2.3c-0.2,0-0.4,0-0.6-0.1c0,0.2,0.1,0.3,0,0.5c-0.1-0.1,0-0.3-0.2-0.3
				C125.3,38.8,125.3,38.3,125.3,37.8z"/>
			<path id="_Path_15" class="st1" d="M124.5,34.1c-0.2-0.2-0.4-0.3-0.7-0.2h-4.6c-0.1,0-0.3,0-0.4-0.1c0,0-0.1,0-0.1,0.1l0,0
				c-0.2,0.2-0.3,0.4-0.4,0.7c0,0.1,0,0.2-0.2,0.2c0.5-1.6,1.8-2.8,3.4-3.1c0.9-0.1,1.8,0,2.7,0.4c0.1,0,0.1,0.1,0.1,0.2
				C124.4,32.8,124.5,33.5,124.5,34.1z"/>
			<path id="_Path_16" class="st2" d="M125.3,39.2c0.2,0,0.1,0.2,0.2,0.3c0.1-0.2,0-0.3,0-0.5c0.2,0.1,0.4,0.2,0.6,0.1h2.3
				c0,0.3,0,0.6,0,0.9c0,0.1,0,0.2,0.1,0.2c0,0.6,0.1,1.2,0.1,1.9c0,0.1,0,0.2-0.2,0.2h-2.8c-0.1,0-0.2,0-0.2-0.1
				c0-0.8,0-1.7-0.1-2.5C125.4,39.5,125.4,39.4,125.3,39.2L125.3,39.2z"/>
			<path id="_Path_17" class="st4" d="M113.7,36.2c-0.1,0.1-0.1,0.2-0.2,0c0-0.1-0.1-0.1-0.2-0.1h-1.6c-0.2,0-0.2,0.1-0.2,0.2
				c0,0.2,0,0.1-0.1,0.1c-0.1,0-0.2,0.1-0.2,0c-0.1-0.1-0.1-0.1,0-0.2c0.1-0.1,0-0.1-0.1-0.1c-0.8-0.1-1.5,0-2.3,0
				c-0.1,0-0.1,0.1-0.1,0.1v0.5c-0.1,0,0-0.1-0.1-0.1c0-0.1,0-0.2-0.1-0.2c0,0.1-0.1,0.2,0.1,0.2c0,0.1,0,0.2-0.1,0.2l0.1-2.2
				c0.1-0.2,0-0.3,0.1-0.5c0.1-0.2,0.1,0.1,0.1,0.1c0.1-0.1,0.2,0,0.3,0h2.2c0.3,0,0.7,0,1,0c0.1,0,0.2,0,0.2-0.1s0.1-0.1,0.2-0.1
				l0,0l0,0c0.3,0.6,0.5,1.1,0.8,1.7C113.6,35.9,113.6,36,113.7,36.2z"/>
			<path id="_Path_18" class="st1" d="M112.7,34.1c-0.1,0-0.2,0-0.2,0.1c0,0.1-0.1,0.1-0.2,0.1c-0.3,0-0.7,0-1,0h-2.3
				c-0.1,0-0.2,0-0.3,0s-0.1-0.1-0.1-0.1s0,0.3-0.1,0.5l0.1-2.1c0-0.2,0-0.5,0-0.7s0-0.2,0.2-0.2h2.7c0.1,0,0.1,0,0.2,0.1
				L112.7,34.1z"/>
			<path id="_Compound_Path_3" class="st1" d="M117.3,37.3c0-0.2,0-0.5,0-0.7c0-0.1,0-0.3,0-0.4v-2h-0.1v0.5c-0.1,0-0.1-0.1-0.1-0.2
				c0-0.1,0-0.2-0.1-0.2c-0.1,0,0,0.1,0,0.1c0,0.3,0,0.3-0.3,0.3h-1.4c-0.2,0-0.4-0.1-0.4,0.2c0-0.2,0-0.4,0-0.5
				c0-0.1,0-0.1-0.1-0.1s-0.1,0-0.1,0.1s0,0.2,0,0.4c0,0.2,0,0.3-0.2,0.4c0-0.3,0-0.7-0.1-1c0,0.1,0,0.2,0,0.2c0,0.1,0,0.2,0,0.2
				c0-0.9,0-1.8,0-2.7c0-0.1,0.1-0.1,0.2-0.1h2.7c0.1,0,0.1,0,0.1,0.1C117.3,33.6,117.3,35.4,117.3,37.3z M114.4,33.7
				c0.1-0.1,0-0.1,0-0.2C114.3,33.6,114.3,33.6,114.4,33.7z"/>
			<path id="_Compound_Path_4" class="st4" d="M130.5,39.9c0,0-0.1-0.2,0.1-0.1s0.1-0.2,0.1-0.2s0,0,0,0s0,0.1,0.1,0.1
				c0.1,0,0-0.1,0-0.2c-0.1,0-0.1-0.1,0-0.1c0.1,0,0.1,0,0.1,0.1s0.1,0.1,0.2,0.1h1.5c0.2,0,0.4,0,0.6,0c0.1,0,0-0.1,0.1-0.1
				c0,0.3,0,0.3,0.1,0.3c0.1,0.7,0.1,1.5,0.2,2.2c0,0.1,0,0.1-0.2,0.1h-2.8c-0.1,0-0.2,0-0.2-0.2c0-0.4,0-0.8-0.1-1.1L130.5,39.9z
				 M130.6,39.9L130.6,39.9L130.6,39.9L130.6,39.9z"/>
			<path id="_Path_19" class="st2" d="M90,41.8l0.2-1.6c0,0,0,0.1,0.1,0.1c0.1,0,0-0.2,0-0.3s0-0.2,0.1-0.2s0.3-0.1,0.5-0.1
				c0.7,0,1.5,0,2.2,0c0.2,0,0.3,0.1,0.3,0.3c0,0.4-0.1,0.7-0.1,1.1c0,0.3-0.1,0.5-0.1,0.8c0,0-0.1,0.1-0.1,0.1c0,0,0,0,0,0
				c0,0.2-0.1,0.2-0.3,0.2h-2.4C90,42.2,90,42.2,90,41.8z"/>
			<path id="_Path_20" class="st1" d="M128.2,33.8c-0.1,0-0.1,0-0.1,0.1c-0.1,0.2-0.1,0.2-0.3,0.2h-2.2c0-0.1,0-0.2,0-0.4
				c0,0.1-0.1,0.2,0,0.4l0,0c-0.1,0-0.2,0-0.2-0.1l0,0v0.5c0-0.3,0-0.5,0-0.8c0-0.3,0-0.7,0-1s0-0.6,0-0.8c0-0.1,0-0.1,0.2-0.1
				l2.1,0.1h0.6c0.1,0,0.1,0,0.2,0.1C128.1,32.6,128.2,33.2,128.2,33.8z"/>
			<path id="_Path_21" class="st3" d="M143.7,37.8c-0.1,0,0,0.1-0.1,0.1c0-0.1-0.3,0.1-0.2-0.2c0-0.3-0.1-0.1-0.1,0
				c0,0.1-0.1,0.1-0.2,0c-0.1,0-0.1,0-0.2,0h-1.6c-0.1,0-0.2,0-0.4,0c-0.2,0.1-0.3,0.1-0.3-0.2c-0.2,0.1,0,0.3-0.1,0.4
				c0-0.6-0.1-1.1-0.4-1.6c-0.1-0.1,0-0.3-0.1-0.4s0-0.1,0.1-0.1c0.2,0,0.3-0.1,0.5-0.1h1.7c0.2,0,0.3-0.1,0.5,0
				c0.2,0.1,0.2-0.1,0.4-0.2C143.4,36.2,143.6,37,143.7,37.8z"/>
			<path id="_Path_22" class="st1" d="M133.2,34c-0.1,0.1-0.2,0.2-0.4,0.1h-2.2h-0.3c-0.1,0-0.1-0.1-0.2-0.2c0,0,0,0.1,0,0.2
				c0-0.3-0.1-0.6-0.1-0.9c0-0.4,0-0.7-0.1-1.1c0-0.1,0-0.2,0.2-0.2l2.7,0.1c0.1,0,0.1,0,0.1,0.1L133.2,34z"/>
			<path id="_Path_23" class="st3" d="M137.2,37.9c-0.1,0-0.2,0-0.2,0c-0.1,0-0.2,0-0.4,0h-2c-0.2,0-0.3,0-0.3,0.3
				c-0.1-0.1-0.1-0.4-0.3-0.2c-0.1-0.7-0.2-1.3-0.1-2c0-0.1,0-0.2,0-0.2c0.1,0,0.1,0.1,0,0.2c-0.1,0.1,0,0.1,0,0.1s0.1,0,0.1-0.1
				c0,0,0-0.1,0-0.1c0-0.1,0.1-0.1,0.1-0.1c0.1,0,0,0.1,0,0.1s0,0.1,0,0.2c0.1-0.1,0.2-0.1,0.3-0.1h2.3c0.1,0,0.2,0,0.2-0.1
				c0-0.1,0.1,0,0.2,0c0.1,0,0,0.1,0,0.1c0,0,0,0.2-0.1,0.3c0-0.1,0-0.1-0.1-0.1c0,0.1,0,0.1,0.1,0.1c0.1,0,0,0.1,0,0.1
				C136.9,36.9,137,37.5,137.2,37.9z"/>
			<path id="_Path_24" class="st4" d="M93.3,40c0-0.2-0.1-0.3-0.3-0.3c-0.7,0-1.5,0-2.2,0c-0.2,0-0.3,0.1-0.5,0.1
				c-0.2,0-0.1,0.1-0.1,0.2s0,0.2,0,0.3c0,0.1,0-0.1-0.1-0.1c0.1-0.5,0.1-1,0.2-1.5c0-0.2,0-0.5,0.1-0.7c0,0,0-0.1,0-0.1
				c0-0.1,0-0.2,0-0.3v1c0.1-0.1,0.2-0.1,0.3-0.1h5.4c0.1,0,0.2,0,0.3,0.1c0.1,0.1,0.1,0,0.1,0c0,0,0.2-0.1,0.3-0.1
				c-0.1,0.1-0.2,0.2-0.3,0.2h0c-0.4,0.3-0.9,0.4-1.4,0.5h-1.6c-0.1,0-0.2,0-0.2,0.2C93.4,39.6,93.3,39.8,93.3,40z"/>
			<path id="_Path_25" class="st4" d="M114.3,34.5c0.1-0.1,0-0.1,0-0.2c0-0.1,0-0.2,0-0.2c0,0.3,0.1,0.7,0.1,1
				c0.1-0.1,0.2-0.3,0.2-0.4c0-0.1,0-0.2,0-0.4c0-0.1,0-0.1,0.1-0.1c0.1,0,0.1,0.1,0.1,0.1c0,0.2,0,0.4,0,0.5c0-0.3,0.3-0.2,0.4-0.2
				h1.4c0.3,0,0.3,0,0.3-0.3c0,0,0-0.1,0-0.1c0,0,0,0.2,0.1,0.2c0.1,0.1,0.2,0.2,0.3,0.2V34h0.1v2c-0.1,0-0.1,0.1-0.1,0.2v0.5
				c-0.1,0-0.1-0.1-0.1-0.1c0-0.2,0-0.5,0-0.7c0-0.1,0-0.1-0.1-0.1c-0.1,0-0.1,0.1-0.1,0.1c0,0.2,0,0.3,0,0.5l0,0
				c0-0.3,0-0.3-0.3-0.3h-1.5c0,0-0.1,0-0.1,0s-0.2,0.1-0.3,0c-0.1-0.1,0-0.2-0.1-0.3c-0.1,0.2,0,0.5-0.1,0.7c0-0.1-0.1-0.2-0.1-0.3
				l0,0l0,0C114.3,35.6,114.3,35.1,114.3,34.5z"/>
			<path id="_Path_26" class="st5" d="M90,41.8c0,0.3,0,0.3,0.3,0.3h2.4c0.2,0,0.3,0,0.3-0.2c0,0,0-0.1,0.1-0.1c0,0,0,0,0,0
				c0,0.4,0,0.4-0.4,0.4h-2.5c-0.3,0-0.3,0-0.2-0.3C90,41.9,90,41.9,90,41.8z"/>
			<path id="_Path_27" class="st6" d="M128.5,40.2c-0.1,0-0.1-0.1-0.1-0.2c0-0.3,0-0.6,0-0.9v-0.3C128.5,39.3,128.5,39.7,128.5,40.2
				z"/>
			<path id="_Path_28" class="st5" d="M143.3,40c-0.1,0-0.1-0.1-0.2-0.2c0,0,0,0,0.1,0S143.3,39.8,143.3,40
				C143.3,40.1,143.3,40,143.3,40C143.4,40,143.4,40,143.3,40z"/>
			<path id="_Path_29" class="st7" d="M125.2,36.3c0,0.3,0,0.6,0,0.8C125.2,36.8,125.2,36.6,125.2,36.3z"/>
			<path id="_Path_30" class="st6" d="M124.6,34.5c-0.1-0.1-0.1-0.2,0-0.3C124.6,34.3,124.6,34.4,124.6,34.5z"/>
			<path id="_Path_31" class="st5" d="M125.3,39.3c0.1,0.1,0.1,0.2,0,0.3V39.3z"/>
			<path id="_Path_32" class="st6" d="M134,38.1c0.1,0,0,0.1,0,0.1C134,38.2,134,38.1,134,38.1z"/>
			<path id="_Path_33" class="st7" d="M90.7,35.5c0,0,0,0.1,0,0.1C90.7,35.6,90.7,35.6,90.7,35.5z"/>
			<path id="_Path_34" class="st6" d="M90.4,38C90.5,38,90.5,38.1,90.4,38C90.4,38.1,90.4,38,90.4,38z"/>
			<path id="_Path_35" class="st6" d="M96.6,38.8L96.6,38.8L96.6,38.8z"/>
			<path id="_Path_36" class="st6" d="M112.8,34.1L112.8,34.1z"/>
			<path id="_Path_37" class="st0" d="M112.8,47.9c0.7,0,1.3,0.4,1.7,1c0.4,0.8,0.4,1.7,0,2.5c-0.3,0.8-1.2,1.2-2,1.1
				c-0.8-0.1-1.4-0.7-1.6-1.5c-0.2-0.8,0-1.7,0.5-2.4C111.6,48.1,112.2,47.8,112.8,47.9z"/>
			<path id="_Path_38" class="st0" d="M131,51.5c-0.3,0-0.3,0-0.3-0.3c0.2-1,0.3-2.1,0.4-3.1c0-0.1,0-0.1,0.1-0.2s0.1,0.1,0.1,0.1
				c0.2,1.1,0.5,2.2,0.8,3.2c0.1,0.2,0,0.2-0.2,0.2H131z"/>
			<path id="_Path_39" class="st0" d="M93,51.2h-0.7c-0.1,0-0.1,0-0.1-0.1c0.3-1,0.7-2.1,1-3.2c0-0.1,0-0.1,0.1-0.1s0.1,0.1,0.1,0.1
				c0.1,1,0.2,2.1,0.3,3.1c0,0.2,0,0.2-0.2,0.2C93.4,51.3,93.2,51.3,93,51.2L93,51.2z"/>
			<path id="_Path_40" class="st0" d="M104.7,37.5c-0.1,0.5-0.3,0.9-0.7,1.2c-0.6,0.6-1.6,0.5-2.2-0.1c-0.2-0.2-0.3-0.5-0.4-0.7
				c0-0.1,0-0.2-0.1-0.2c0-0.1,0-0.1,0-0.2v-0.1c0-0.2,0.1-0.5,0.1-0.7c0.1-0.6,0.6-1.1,1.1-1.3c0.7-0.3,1.6,0,1.9,0.7
				c0.1,0.1,0.1,0.3,0.1,0.4C104.8,36.8,104.8,37.2,104.7,37.5z"/>
			<path id="_Path_41" class="st5" d="M101.4,37.3v0.1C101.3,37.4,101.3,37.4,101.4,37.3z"/>
			<path id="_Path_42" class="st7" d="M99.6,33.9L99.6,33.9L99.6,33.9L99.6,33.9z"/>
			<path id="_Path_43" class="st7" d="M125.5,34.1C125.5,34.1,125.5,34.2,125.5,34.1C125.4,34.2,125.5,34.2,125.5,34.1L125.5,34.1
				L125.5,34.1z"/>
			<path id="_Path_44" class="st0" d="M137.2,37.9c-0.2-0.5-0.2-1.1,0-1.6c0.1-0.3,0.3-0.6,0.6-0.7c0.7-0.3,1.6-0.1,2.1,0.6l0.2,0.2
				c0.3,0.5,0.4,1.1,0.4,1.6c0,0.6-0.4,1.1-1,1.2c-0.6,0.2-1.3,0-1.8-0.5C137.5,38.5,137.3,38.2,137.2,37.9z"/>
			<path id="_Path_45" class="st0" d="M93.8,35.4v-0.2c0,0,0.1-0.1,0.1-0.1c0.3,0,0.6,0,0.9,0c0.2,0,0.4,0.2,0.4,0.5
				c0,0.1,0,0.2,0,0.2c-0.1,0,0,0.1-0.1,0.1c0,0,0,0.1,0,0.1c-0.1,0.4-0.4,0.6-0.8,0.7c-0.2,0.1-0.4,0.1-0.6,0.1
				c-0.1,0-0.2,0-0.1-0.2C93.6,36.3,93.7,35.8,93.8,35.4C93.7,35.4,93.8,35.4,93.8,35.4z"/>
			<path id="_Path_46" class="st7" d="M95.2,36.1c0,0,0-0.1,0-0.1h0.1C95.3,36.1,95.2,36,95.2,36.1z"/>
			<path id="_Path_47" class="st7" d="M93.8,35.4C93.8,35.4,93.8,35.4,93.8,35.4C93.7,35.4,93.7,35.4,93.8,35.4z"/>
			<path id="_Path_48" class="st8" d="M143.4,39.7L143.4,39.7z"/>
			<path id="_Path_49" class="st6" d="M118.9,34.1C118.9,34.1,118.9,34.1,118.9,34.1c-0.1,0-0.1,0-0.1,0S118.7,34.1,118.9,34.1
				C118.9,34.1,118.9,34.1,118.9,34.1z"/>
			<path id="_Path_50" class="st6" d="M124.3,34.7L124.3,34.7L124.3,34.7L124.3,34.7C124.3,34.7,124.3,34.6,124.3,34.7z"/>
			<path id="_Path_51" class="st6" d="M118.8,33.9L118.8,33.9L118.8,33.9L118.8,33.9L118.8,33.9z"/>
			<path id="_Path_52" class="st6" d="M99.6,33.9L99.6,33.9L99.6,33.9z"/>
			<path id="_Path_53" class="st9" d="M108.6,36.7c-0.1,0-0.1-0.1-0.1-0.2C108.6,36.5,108.6,36.6,108.6,36.7z"/>
			<path id="_Path_54" class="st5" d="M114.4,33.7c0-0.1,0-0.1,0-0.2C114.4,33.5,114.4,33.6,114.4,33.7z"/>
			<path id="_Path_55" class="st5" d="M130.6,39.9L130.6,39.9L130.6,39.9L130.6,39.9z"/>
			<path id="_Path_56" class="st6" d="M125.5,34.1L125.5,34.1c-0.1-0.1-0.1-0.2,0-0.4C125.5,33.9,125.5,34,125.5,34.1z"/>
			<path id="_Path_57" class="st7" d="M137.2,36.2c-0.1,0-0.1-0.1-0.1-0.1C137.2,36.1,137.2,36.2,137.2,36.2z"/>
			<path id="_Path_58" class="st9" d="M114.4,36.2L114.4,36.2z"/>
		</g>
	</g>
</g>
</svg>
