<?xml version="1.0" encoding="utf-8"?>
<!-- Generator: Adobe Illustrator 22.1.0, SVG Export Plug-In . SVG Version: 6.00 Build 0)  -->
<svg version="1.1" id="Layer_1" xmlns="http://www.w3.org/2000/svg" xmlns:xlink="http://www.w3.org/1999/xlink" x="0px" y="0px"
	 viewBox="0 0 233 73" style="enable-background:new 0 0 233 73;" xml:space="preserve">
<style type="text/css">
	.st0{fill:#7D7D7D;}
	.st1{fill:#3D3D3D;}
</style>
<title>Asset 42</title>
<g id="Layer_2_1_">
	<g id="Layer_1-2">
		<g id="_Group_">
			<path id="_Path_" class="st0" d="M102,33.7c1.1,1,1.3,2.7,0.6,4c-0.8,1.5-1.2,3.2-1,4.9c0.2,1.7,1.6,3,3.3,3.1
				c1.8,0.1,3.4-1.2,3.8-3c0.4-1.9,0-3.9-1.1-5.5c-1-1.5-2.1-2.9-3.2-4.3c-1.6-2-2.2-4.7-1.8-7.2c0-0.3,0.1-0.7,0.4-0.9
				c-0.3,2.4,1,4.2,2.5,5.8c2.1,2,3.8,4.2,5.1,6.8c1.4,3,1.6,6-0.6,8.7c-2.4,2.6-6.4,2.7-9.1,0.5c-1.2-1.3-1.7-3-1.3-4.7
				c0.2-1.5,0.7-2.9,1.4-4.2C101.6,36.4,102,35.1,102,33.7z"/>
			<path id="_Path_2" class="st1" d="M169.2,41.1c0.8,0,1.7,0,2.5,0c0.6,0,0.6,0.3,0.5,0.7c-0.1,3.3-2.7,6.1-6,6.3
				c-3.7,0.6-7.2-1.4-8.7-4.8c-1.3-3.8,0.7-8,4.5-9.3c0.7-0.2,1.4-0.4,2.1-0.4c2.4-0.2,4.9,0.6,6.7,2.3c0.2,0.2,0.8,0.4,0.2,0.8
				c-0.4,0.3-0.5,1-1.2,0.3c-2.2-2-4.8-2.7-7.6-1.5c-2.4,1-3.9,3.4-3.6,6c0.4,2.5,2.3,4.6,4.8,5.2c2.4,0.7,4.9-0.1,6.4-2.1
				c0.1-0.1,0.1-0.2,0.2-0.3c0.9-1.6,0.8-1.7-1-1.7c-0.8,0-1.7,0-2.5,0c-0.5,0-0.6-0.2-0.5-0.7c0-0.4,0-0.8,0.6-0.7
				C167.5,41.2,168.4,41.1,169.2,41.1z"/>
			<path id="_Compound_Path_" class="st1" d="M91,48.2c-2,0.1-3.9-0.7-5.3-2.2c-1.4-1.4-2.1-3.3-2-5.2c0.1-4,3.4-7.3,7.5-7.2
				c0,0,0.1,0,0.1,0c4,0.1,7.2,3.4,7.2,7.5S95.1,48.3,91,48.2z M85.2,40.9c0,3.3,2.8,6,6.1,5.9s6-2.8,5.9-6.1c0-3.3-2.8-6-6.1-5.9
				C87.9,34.9,85.2,37.6,85.2,40.9z"/>
			<path id="_Path_3" class="st1" d="M144.6,37.4c0,3.3,0,6.5,0,9.6c0,0.6-0.1,0.8-0.8,0.8s-0.8-0.2-0.8-0.8c0-4,0-8,0-12.1
				c0-0.3-0.2-0.9,0.2-1c0.4-0.1,0.5,0.4,0.8,0.6l8.1,9.2c0.2,0.2,0.3,0.3,0.5,0.5c0.3-0.3,0.2-0.7,0.2-1c0-2.9,0-5.8,0-8.6
				c0-0.6,0.2-0.8,0.8-0.8c0.6,0,0.7,0.3,0.7,0.8c0,4.1,0,8.2,0,12.4c0,0.2,0.1,0.6-0.1,0.7c-0.2,0.1-0.5-0.2-0.6-0.4
				c-2.8-3.1-5.6-6.3-8.4-9.4C145,37.8,144.8,37.7,144.6,37.4z"/>
			<path id="_Compound_Path_2" class="st1" d="M81.5,47.7c-1,0.4-2.1-0.1-2.6-1c-1.2-1.7-2.5-3.2-3.8-4.9c-0.3-0.4-0.6-0.7-1-0.5
				c-0.4,0.2-0.2,0.6-0.2,0.9c0,1.6,0,3.3,0,4.9c0,0.6-0.2,0.6-0.7,0.6c-0.4,0-0.8,0.2-0.8-0.5c0-4.3,0-8.6,0-12.8
				c0-0.4,0.1-0.5,0.5-0.5c1.8-0.1,3.6,0,5.4,0.2c1.7,0.2,3,1.6,3,3.4c0.2,1.8-1.1,3.4-2.9,3.7c-0.6,0.1-1.2,0.2-1.9,0.3L81.5,47.7z
				 M74,37.6L74,37.6c-0.1,0.6-0.1,1.3-0.1,1.9c0,0.3,0,0.5,0.4,0.5c1.3,0.1,2.5,0,3.8-0.2c1.1-0.2,1.8-1.2,1.8-2.2
				c0-1.1-0.8-2-1.8-2.2c-0.6-0.1-1.1-0.2-1.7-0.1c-0.8,0-1.8-0.4-2.3,0.1C73.6,35.9,74,36.8,74,37.6z"/>
			<path id="_Compound_Path_3" class="st1" d="M124.9,47.7c-0.7,0.3-1.6,0-1.9-0.8c0-0.1-0.1-0.2-0.1-0.2c-0.5-1.2-0.8-2.8-1.8-3.3
				c-1-0.6-2.5,0-3.7-0.2c-1.8-0.2-2.8,0.3-3.3,2c-0.1,0.5-0.5,0.9-0.6,1.4c-0.1,0.8-0.9,1.4-1.7,1.2c-0.1,0-0.3-0.1-0.4-0.1
				c0.5-1.1,1-2.2,1.5-3.2c1.6-3.3,3.2-6.6,4.8-9.9c0.1-0.2,0.1-0.7,0.6-0.7c0.4,0.1,0.3,0.4,0.4,0.7L124.9,47.7z M120.5,41.8
				l-2.4-5l-2.4,5H120.5z"/>
			<path id="_Compound_Path_4" class="st1" d="M60.8,40.8c0-2.1,0-4.1,0-6.2c0-0.3-0.1-0.7,0.5-0.7c1.8-0.1,3.6,0,5.4,0.2
				c1.8,0.2,3.1,1.8,3,3.5c0,1.8-1.3,3.3-3.1,3.5c-1.2,0.2-2.5,0.2-3.7,0.2c-0.5,0-0.7,0.1-0.7,0.7c0,1.7,0,3.4,0,5.1
				c0,0.7-0.3,0.6-0.8,0.7s-0.6-0.2-0.6-0.7C60.8,45,60.8,42.9,60.8,40.8z M62.2,37.5v2.1c0,0.2,0,0.5,0.3,0.4
				c1.4,0.1,2.7,0,4.1-0.2c1.2-0.4,1.9-1.6,1.5-2.8c-0.2-0.8-0.9-1.4-1.7-1.5c-0.6-0.1-1.2-0.2-1.8-0.2c-0.7,0-1.7-0.2-2.2,0.1
				C62,35.8,62.3,36.9,62.2,37.5L62.2,37.5z"/>
			<path id="_Compound_Path_5" class="st1" d="M126.9,40.8v-6.2c0-0.3-0.1-0.7,0.5-0.7c1.8-0.1,3.6,0,5.4,0.2c1.8,0.2,3.1,1.8,3,3.5
				c0.1,1.8-1.2,3.3-3,3.5c-1.2,0.2-2.4,0.2-3.6,0.2c-0.6,0-0.8,0.1-0.8,0.8c0.1,1.7,0,3.4,0,5c0,0.7-0.3,0.7-0.8,0.7
				s-0.7-0.1-0.7-0.7C126.9,45,126.9,42.9,126.9,40.8z M130.4,35.3c-0.6,0-1,0-1.5,0c-0.5,0-0.5,0.1-0.5,0.5c0,1.3,0,2.6,0,3.9
				c0,0.3,0.1,0.4,0.4,0.4c1.3,0.1,2.5,0,3.8-0.2c1.1-0.2,1.8-1.1,1.8-2.2c0-1.1-0.8-2-1.8-2.2C131.8,35.3,131.1,35.2,130.4,35.3
				L130.4,35.3z"/>
			<path id="_Path_4" class="st1" d="M139.9,40.9c0,2.1,0,4.1,0,6.2c0,0.6-0.1,0.8-0.7,0.8c-0.6,0-0.8-0.1-0.7-0.7
				c0-4.2,0-8.4,0-12.5c0-0.6,0.2-0.7,0.7-0.7c0.5,0,0.8,0.1,0.8,0.7C139.9,36.7,139.9,38.8,139.9,40.9z"/>
		</g>
	</g>
</g>
</svg>
