<?xml version="1.0" encoding="utf-8"?>
<!-- Generator: Adobe Illustrator 22.1.0, SVG Export Plug-In . SVG Version: 6.00 Build 0)  -->
<svg version="1.1" id="Layer_1" xmlns="http://www.w3.org/2000/svg" xmlns:xlink="http://www.w3.org/1999/xlink" x="0px" y="0px"
	 viewBox="0 0 233 73" style="enable-background:new 0 0 233 73;" xml:space="preserve">
<style type="text/css">
	.st0{fill:#FDFEFD;}
	.st1{fill:#3D3D3D;}
	.st2{fill:#7D7D7D;}
	.st3{fill:#FFFFFF;}
	.st4{fill:#1191CD;}
	.st5{fill:#0D76BD;}
	.st6{fill:#E5E5E5;}
</style>
<title>Asset 33</title>
<g id="Layer_2_1_">
	<g id="Layer_1-2">
		<g id="_Group_">
			<path id="_Compound_Path_" class="st0" d="M133.4,35.2c0.2-5.4-0.4-10.8-1.8-15.9c-0.1-0.4-0.4-0.8-0.9-0.8
				c-2.8-0.8-5.7-1.3-8.6-1.5c-6.6-0.7-13.4-0.2-19.8,1.5c-0.5,0.1-0.8,0.4-0.9,0.9c-2.5,9.2-2.5,18.9,0,28.1
				c0.1,0.4,0.4,0.8,0.8,0.9c7.5,1.9,15.3,2.3,23,1.2c1-0.1,1.4-0.8,1.5-1.8c0.1-1.2-0.4-2.2-0.4-3.4c0-0.6-0.5-0.4-0.9-0.4
				c-0.3,0-0.6,0.1-0.6,0.5c-0.1,0.6-0.2,1.2-0.3,1.8c-0.1,0.5-0.1,0.9,0.6,0.8c0.2,0,0.4,0,0.4,0.3s0,0.3-0.2,0.4
				c-0.5,0.2-1.1,0.2-1.6,0c-0.5-0.2-0.6-0.7-0.5-1.2c0.1-0.4,0.2-0.7,0.2-1.1c0-0.6,0.6-1.2-0.2-1.7c-0.1,0-0.1-0.6,0.2-0.7
				c0.7-0.2,0.5-0.8,0.7-1.2c0.1-0.3,0-0.6,0.4-0.7c0.7-0.2,1,0.1,0.9,0.8s0,1.2,0.9,1c0.1,0,0.2,0,0.4,0c0.7-0.1,0.9,0.2,1,0.9
				c0,0.7-0.1,1.6,0.5,2.1c0.6-0.7,1-1.6,1.3-2.4c0.2-0.5,0.7-0.7,1.1-0.6c0.1,0,0.1,0,0.2,0.1c0.5,0.2-0.1,0.6-0.2,0.9
				c-0.9,1.7-1.7,3.4-2.4,5.1l3-0.7c0.3-0.1,0.6-0.3,0.6-0.6c0.9-3.1,1.4-6.4,1.7-9.6C133.5,37.1,133.5,36.1,133.4,35.2z
				 M109.1,55.7c0,0.2-0.2,0.5,0.2,0.5s0.3-0.2,0.4-0.4c0-0.2,0.1-0.6,0.2-0.8c0.1-0.5,0-1,0.5-1.4c0.2-0.2,0.5-0.3,0.8-0.2
				c0.3,0.2,0.1,0.4,0.1,0.7c-0.1,0.6-0.2,1.1-0.3,1.7c0,0.2,0,0.4,0.2,0.4c0.2,0,0.3-0.1,0.3-0.3c0.1-0.8,0.3-1.5,0.4-2.3
				c0-0.4-0.2-0.8-0.5-0.7c-0.7,0.2-1.5,0.2-2.2,0c-0.3,0-0.5,0.3-0.9,0c-0.1-0.1-0.3,0.1-0.4,0.3c-0.1,0.8-0.3,1.7-0.4,2.5
				c0,0.2-0.2,0.4,0.1,0.5c0.3,0.1,0.4-0.2,0.4-0.4c0.1-0.6,0.2-1.2,0.3-1.8c0.1-0.4,0.5-0.7,0.9-0.6c0,0,0,0,0,0
				c0.5,0.1,0.2,0.5,0.2,0.8C109.3,54.7,109.2,55.2,109.1,55.7z M115.9,53.1c0.1-0.3,0.1-0.7,0.2-1c0-0.2,0.2-0.6-0.2-0.6
				s-0.3,0.3-0.4,0.5c-0.2,1-0.3,2.1-0.6,3.1c-0.2,0.7-0.3,1.1,0.7,1.2c0.6,0.2,1.3-0.1,1.6-0.6c0.5-0.6,0.7-1.5,0.3-2.3
				C117.2,52.7,116.6,52.9,115.9,53.1z M127.4,53.4c0.3,0.3,0.6,0,0.8,0s0.8-0.2,0.8,0.3c0.1,0.5-0.3,0.4-0.6,0.5
				c-0.4,0-0.9,0.2-1.2,0.5c-0.4,0.3-0.5,0.8-0.3,1.2c0.2,0.5,0.7,0.4,1.2,0.4c1,0.1,1.3-0.5,1.3-1.4c0-0.2,0-0.4,0.1-0.7
				c0.1-0.5,0.3-1.1-0.3-1.3C128.6,52.7,127.9,52.9,127.4,53.4z M111.9,55c0,0.8,0.3,1.3,1,1.4c1,0.1,1.8-0.9,1.8-2.1
				c0.1-0.6-0.3-1.3-1-1.4c0,0-0.1,0-0.1,0C112.7,52.8,112,53.7,111.9,55z M123.2,56.1c0.3,0.2,0.6,0.2,0.5-0.2
				c0-0.6,0.1-1.2,0.3-1.8c0.2-1-0.2-1.5-1.2-1.2c-0.3,0.1-0.9,0.1-0.8,0.5s0.5-0.1,0.8-0.1c0,0,0.1,0,0.1,0c0.3,0,0.6-0.1,0.7,0.3
				c0.1,0.4-0.2,0.5-0.5,0.5c-0.4,0-0.8,0.1-1.1,0.4c-0.4,0.3-0.7,0.8-0.5,1.3c0.3,0.6,0.7,0.5,1.2,0.4
				C122.8,56.2,122.9,56,123.2,56.1z M107.2,54c0.1-0.8-0.1-1.1-0.7-1.1c-1.5,0-1.5,0-1.7,1.6c-0.1,0.4-0.2,0.9-0.2,1.3
				c0,0.2-0.2,0.4,0.1,0.5c0.2,0.1,0.4-0.1,0.4-0.4c0.1-0.6,0.2-1.1,0.3-1.7c0-0.5,0.4-0.8,0.9-0.8c0,0,0.1,0,0.1,0
				c0.6,0.1,0.3,0.6,0.2,0.9c0,0.5-0.2,1-0.3,1.5c0,0.2,0,0.3,0.1,0.4s0.4-0.1,0.4-0.3C107,55.2,107.1,54.5,107.2,54z M120.2,52
				c0-0.2,0.1-0.4-0.2-0.5c-0.1-0.1-0.3,0-0.3,0.1c0,0,0,0,0,0.1c-0.3,1.4-0.5,2.8-0.7,4.2c0,0.3,0.2,0.4,0.5,0.4
				c0.3,0,0.3-0.2,0.2-0.5c-0.1-0.4-0.1-0.7,0.1-1.1C119.9,53.8,120.1,52.9,120.2,52L120.2,52z M124.2,55.7c0,0.2-0.2,0.4,0.1,0.5
				c0.3,0.1,0.4-0.2,0.4-0.4c0.1-0.2,0-0.3,0.1-0.5c0.2-0.8,0-1.8,1.2-2c0.1,0,0.2-0.2,0.1-0.4c-0.1-0.2-0.2-0.1-0.3,0
				c-0.2,0.2-0.6,0.2-0.8,0c-0.2-0.1-0.3,0.1-0.4,0.4C124.5,54.1,124.3,54.9,124.2,55.7L124.2,55.7z M104.3,53.3
				c0-0.1,0.1-0.3-0.2-0.4c-0.3-0.1-0.4,0.2-0.4,0.4c-0.2,0.8-0.3,1.6-0.5,2.4c0,0.2-0.2,0.5,0.2,0.5c0.3,0,0.3-0.2,0.4-0.5
				C104,55,104.2,54.2,104.3,53.3z M118.9,53.3c0-0.1,0.1-0.4-0.2-0.4s-0.3,0.1-0.4,0.3c-0.2,0.8-0.3,1.7-0.5,2.5
				c0,0.2-0.1,0.4,0.1,0.5c0.3,0.1,0.4-0.1,0.4-0.3C118.6,55,118.8,54.2,118.9,53.3L118.9,53.3z M120.3,55.7c0,0.2-0.1,0.4,0.2,0.5
				c0.3,0,0.4-0.2,0.4-0.4c0.1-0.8,0.3-1.6,0.4-2.4c0-0.2,0.2-0.4-0.1-0.5c-0.3-0.1-0.4,0.1-0.5,0.3
				C120.5,54.1,120.4,54.9,120.3,55.7L120.3,55.7z M125.9,55.7c0,0.2-0.1,0.4,0.2,0.5c0.3,0.1,0.4-0.2,0.4-0.4
				c0.1-0.8,0.3-1.6,0.4-2.4c0-0.2,0.2-0.5-0.1-0.5c-0.4,0-0.4,0.2-0.4,0.4C126.2,54.1,126.1,54.9,125.9,55.7L125.9,55.7z
				 M121.2,52.3c0.2,0,0.4-0.2,0.5-0.4c0.1-0.2,0-0.3-0.2-0.4c0,0-0.1,0-0.1,0c-0.3,0-0.5,0.1-0.5,0.4c0,0,0,0,0,0
				C120.8,52.2,121,52.3,121.2,52.3L121.2,52.3z M104.7,51.9c0-0.2-0.2-0.3-0.4-0.3c-0.3,0-0.5,0.2-0.5,0.5c0,0,0,0,0,0
				c0,0.2,0.1,0.3,0.3,0.3c0,0,0,0,0.1,0C104.5,52.3,104.7,52.1,104.7,51.9z M126.9,51.6c-0.2,0.1-0.4,0.2-0.4,0.5
				c0,0.2,0.2,0.3,0.3,0.3c0,0,0,0,0.1,0c0.2,0,0.4-0.2,0.4-0.4c0,0,0,0,0,0C127.3,51.7,127.2,51.6,126.9,51.6z"/>
			<path id="_Compound_Path_2" class="st1" d="M133.3,38c-0.2,3.3-0.8,6.5-1.7,9.6c-0.1,0.3-0.3,0.6-0.6,0.6l-3,0.7
				c0.7-1.8,1.5-3.5,2.4-5.1c0.1-0.3,0.7-0.7,0.2-0.9c-0.4-0.3-1-0.1-1.2,0.3c0,0.1-0.1,0.1-0.1,0.2c-0.3,0.9-0.8,1.7-1.3,2.4
				c-0.6-0.6-0.4-1.4-0.5-2.1c-0.1-0.7-0.3-1-1-0.9c-0.1,0-0.3,0-0.4,0c-0.9,0.2-1.1-0.2-0.9-1.1c0.2-0.8-0.1-1-0.9-0.8
				c-0.4,0.1-0.4,0.5-0.4,0.7c-0.2,0.4,0.1,1-0.7,1.2c-0.2,0.1-0.3,0.6-0.2,0.7c0.9,0.5,0.2,1.2,0.2,1.7c0,0.4-0.1,0.8-0.2,1.1
				c-0.1,0.5,0,1,0.5,1.2c0.5,0.2,1.1,0.2,1.7,0c0.2-0.1,0.2-0.2,0.1-0.4c0-0.2-0.1-0.3-0.4-0.3c-0.6,0.1-0.6-0.3-0.6-0.8
				c0.2-0.6,0.3-1.2,0.3-1.8c0-0.4,0.2-0.5,0.6-0.5s0.8-0.2,0.9,0.4c0,1.1,0.6,2.2,0.4,3.4c-0.1,1-0.5,1.7-1.5,1.8
				c-7.7,1.2-15.5,0.8-23-1.1c-0.4-0.1-0.8-0.4-0.8-0.9c-2.5-9.2-2.5-18.9,0-28.1c0.1-0.5,0.5-0.8,0.9-0.9
				c6.5-1.7,13.2-2.2,19.8-1.5c2.9,0.3,5.8,0.8,8.6,1.5c0.4,0,0.8,0.4,0.9,0.8c1.4,5.2,2,10.6,1.8,16c-3.7-1-7.7-0.6-11.1,1.2
				c-2.7,1.4-5.7,1.9-8.7,1.2l-1.3-0.5c-0.3-0.8-0.6-1.5-1.2-2.1c-1.3-2.2-1.7-4.9-1.2-7.4c0.4-1.8,1.2-3.5,2.2-5
				c0.6,0.1,0.8-0.5,1.3-0.6c2.3-0.6,4.8-0.5,7.1,0.4l0.2,0.2l0,0c0,0.2,0,0.4,0.2,0.5c0.8,1,1.5,2.2,1.8,3.5c0.9,2.9,0.5,6-1.1,8.6
				c-0.1,0.2-0.4,0.4-0.2,0.7s0.5,0.1,0.8,0c1-0.5,2.2-1,3.3-1.2c0.5-0.1,0.9-0.5,1-1c0.6-1.6,0.8-3.3,0.7-5c-0.1-2.6-1.2-5-3.2-6.7
				c-4.4-4.1-11.3-3.9-15.4,0.5c-1.7,1.8-2.7,4.1-2.9,6.5v0.5v0.2l0.2,1.1c-0.2,0.1-0.2,0.2-0.2,0.4c0.5,3.6,2.8,6.8,6,8.4
				c1.7,0.9,3.7,1.3,5.6,1c2.5-0.4,5-1.1,7.3-2.2C127.4,37,130.5,36.9,133.3,38z M109.5,43.9c0.2,0.7,0.1,1.5-0.2,2.2
				c-0.3,0.5-0.1,1.2,0.4,1.5c0.1,0.1,0.3,0.1,0.4,0.1c0.9,0.3,1.8-0.2,2.7-0.2c0.2,0,0.4-0.1,0.5-0.4c0,0,0-0.1,0-0.1
				c-0.2-1.2,0.4-2.3,0.4-3.5c0-0.3,0.5-0.7-0.2-0.8c-0.5,0-0.9-0.1-1,0.6s-0.3,1.7-0.4,2.6c0,0.4-0.4,0.7-0.9,0.7c0,0-0.1,0-0.1,0
				c-0.6-0.1-0.4-0.5-0.4-0.9c0.1-0.7,0.2-1.5,0.4-2.2c0.3-0.9-0.2-0.8-0.8-0.8c-0.3,0-0.3,0.4-0.7,0.4c0-0.1,0-0.2-0.1-0.4
				c-0.3-1-0.7-2-1.8-2.2c-2.2-0.5-4.4,0.8-5,3.1c-0.2,0.7-0.1,1.4,0,2c0.1,1.1,1,2,2.1,2c0.6,0,1.3,0.3,1.8,0.7
				c0.5,0.5,1.2,0.7,1.9,0.6c0.4,0,0.7-0.4,0.7-0.8c0-0.5-0.5-0.2-0.7-0.3c-0.4,0-0.7-0.2-0.9-0.5c-0.2-0.4,0.2-0.5,0.4-0.7
				c0.2-0.3,0.4-0.6,0.6-0.9C109,45.2,108.9,44.5,109.5,43.9z M116.6,42.9c-0.5,0-1,0.1-1.5,0.3c-0.3,0.2-0.9,0.1-0.7,0.7
				c0.2,0.7,0.6,0.3,0.9,0.2s0.6,0.1,0.9-0.1c0.1-0.1,0.4,0.2,0.5,0.5c0,0.2-0.1,0.3-0.4,0.3c-0.8-0.1-1.6,0.1-2.2,0.6
				c-0.6,0.5-0.6,1.4-0.1,2c0.6,0.5,1.4,0.6,2.1,0.3c0.4-0.2,0.6-0.2,0.9,0.1s1.1-0.3,1-0.6c-0.5-0.9,0-1.7,0.1-2.5
				C118.2,43.4,117.8,42.9,116.6,42.9L116.6,42.9z M118.4,46.6c-0.1,0.6,0.4,1.2,1,1.3c0.2,0,0.4,0,0.6-0.1c0.2-0.1,0.3-0.3,0.2-0.4
				c0-0.1,0-0.1-0.1-0.2c-0.7-0.4-0.3-1-0.3-1.5c0.2-1.3,0.6-2.5,0.6-3.8c0-0.3,0.3-0.7-0.3-0.7s-0.9-0.3-1.1,0.5
				C118.8,43.3,118.8,45,118.4,46.6L118.4,46.6z M120.7,47.3c-0.1,0.3,0.1,0.5,0.3,0.6c0,0,0.1,0,0.2,0c0.5,0.1,0.8-0.1,0.8-0.6
				c0.2-1.2,0.4-2.5,0.6-3.7c0.1-0.4,0.2-0.7-0.3-0.8s-0.9-0.1-1,0.5C121.1,44.7,120.9,46,120.7,47.3L120.7,47.3z M122.2,42.6
				c0.5-0.1,0.9-0.3,0.9-0.9c0-0.5-0.4-0.6-0.9-0.6c-0.4,0-0.7,0.5-0.7,0.9C121.4,42.3,121.8,42.5,122.2,42.6L122.2,42.6z"/>
			<path id="_Path_" class="st2" d="M133.3,38c-2.8-1.1-5.9-1-8.6,0.4c-2.3,1.1-4.7,1.8-7.3,2.2c0-0.3-0.2-0.3-0.5-0.4
				c-1.2-0.4-2.3-1-3.2-1.9c-0.2-0.2-0.6-0.4-0.1-0.8c2.9,0.7,6,0.2,8.7-1.2c3.4-1.8,7.4-2.2,11.1-1.2
				C133.5,36.1,133.5,37.1,133.3,38z"/>
			<path id="_Path_2" class="st1" d="M109,55.7c0.1-0.5,0.2-1,0.2-1.5c0-0.3,0.3-0.7-0.2-0.8c-0.4-0.1-0.8,0.2-0.9,0.6c0,0,0,0,0,0
				c-0.1,0.6-0.2,1.2-0.3,1.8c0,0.2-0.1,0.5-0.4,0.4c-0.3-0.1-0.1-0.3-0.1-0.5c0.1-0.8,0.3-1.7,0.4-2.5c0-0.2,0.2-0.4,0.4-0.3
				c0.3,0.3,0.6,0,0.9,0c0.7,0.2,1.5,0.2,2.2,0c0.4-0.1,0.6,0.3,0.5,0.7c-0.1,0.8-0.3,1.5-0.4,2.3c0,0.2-0.1,0.3-0.3,0.3
				c-0.2,0-0.3-0.2-0.2-0.4c0.1-0.6,0.2-1.1,0.3-1.7c0-0.2,0.2-0.5-0.1-0.7c-0.3-0.2-0.5,0-0.8,0.2c-0.5,0.3-0.3,0.9-0.5,1.4
				c-0.1,0.3-0.1,0.6-0.2,0.8c-0.1,0.3-0.1,0.4-0.3,0.4C109,56.2,109,55.9,109,55.7z"/>
			<path id="_Compound_Path_3" class="st1" d="M115.9,53.1c0.7-0.2,1.3-0.4,1.7,0.2c0.4,0.8,0.2,1.7-0.3,2.3c-0.4,0.5-1,0.8-1.6,0.6
				c-1-0.1-0.9-0.5-0.7-1.2c0.2-1,0.4-2,0.6-3.1c0-0.2,0-0.6,0.4-0.5c0.4,0.1,0.2,0.4,0.2,0.6C116,52.4,116,52.8,115.9,53.1z
				 M117.2,54c0-0.3-0.2-0.6-0.5-0.6c0,0-0.1,0-0.1,0c-0.6,0-1,0.6-1,1.7c0,0.5,0.2,0.7,0.6,0.7C116.6,55.8,117.2,55,117.2,54z"/>
			<path id="_Compound_Path_4" class="st1" d="M127.4,53.4c0.4-0.6,1.2-0.7,1.8-0.5c0.6,0.2,0.4,0.8,0.3,1.3
				c-0.1,0.2-0.1,0.4-0.1,0.7c0,0.9-0.3,1.4-1.3,1.4c-0.5,0-0.9,0.1-1.2-0.4c-0.2-0.4-0.1-0.9,0.3-1.2c0.3-0.3,0.7-0.5,1.2-0.5
				c0.3,0,0.7,0,0.6-0.5c-0.1-0.5-0.5-0.3-0.8-0.3C127.9,53.4,127.8,53.8,127.4,53.4z M128.9,54.8c0-0.2-0.2-0.3-0.4-0.2
				c-0.5,0-0.9,0.3-1,0.8c0,0.4,0.2,0.5,0.5,0.5C128.6,55.8,128.8,55.4,128.9,54.8z"/>
			<path id="_Compound_Path_5" class="st1" d="M111.8,55c0.1-1.3,0.8-2.2,1.8-2.1c0.7,0,1.1,0.6,1.1,1.3c0,0,0,0.1,0,0.1
				c-0.1,1.2-0.9,2.2-1.8,2.1C112.2,56.3,111.8,55.8,111.8,55z M112.4,54.8c0,0.5,0,1.1,0.6,1c1-0.1,0.9-1,1-1.7
				c0.1-0.5-0.2-0.9-0.7-0.8C112.5,53.4,112.5,54.2,112.4,54.8z"/>
			<path id="_Compound_Path_6" class="st1" d="M123.2,56.1c-0.2-0.1-0.4,0.1-0.6,0.2c-0.5,0.1-1,0.2-1.2-0.4c-0.2-0.5,0-1,0.5-1.3
				c0.3-0.3,0.7-0.4,1.1-0.4c0.3,0,0.6-0.1,0.5-0.5c-0.1-0.4-0.4-0.4-0.7-0.3c0,0-0.1,0-0.1,0c-0.3,0-0.7,0.5-0.8,0.1
				c-0.1-0.4,0.5-0.5,0.8-0.5c1-0.2,1.4,0.2,1.2,1.2c-0.2,0.6-0.3,1.2-0.3,1.8C123.7,56.3,123.5,56.3,123.2,56.1z M123.3,54.9
				c0-0.3-0.2-0.4-0.4-0.3c-0.5,0-0.9,0.3-1,0.8c0,0.4,0.2,0.5,0.5,0.5C122.9,55.8,123.2,55.4,123.3,54.9z"/>
			<path id="_Path_3" class="st1" d="M107.2,54c-0.1,0.5-0.2,1.2-0.4,1.9c0,0.2-0.2,0.3-0.4,0.3c-0.2-0.1-0.2-0.2-0.1-0.4
				c0.1-0.5,0.2-1,0.3-1.5c0-0.3,0.4-0.8-0.2-0.9c-0.5-0.1-0.9,0.2-1,0.7c0,0,0,0.1,0,0.1c-0.1,0.6-0.2,1.1-0.3,1.7
				c0,0.2-0.1,0.5-0.4,0.4c-0.3-0.1-0.1-0.3-0.1-0.5c0.1-0.4,0.2-0.9,0.2-1.3c0.3-1.6,0.3-1.6,1.7-1.6
				C107.1,52.9,107.3,53.2,107.2,54z"/>
			<path id="_Path_4" class="st1" d="M120.3,52c-0.2,0.9-0.3,1.8-0.5,2.7c-0.1,0.4-0.1,0.7-0.1,1.1c0.1,0.2,0.2,0.4-0.2,0.5
				c-0.4,0-0.5-0.1-0.5-0.4c0.2-1.4,0.5-2.8,0.7-4.2c0-0.1,0.2-0.2,0.3-0.2c0,0,0,0,0.1,0C120.3,51.7,120.2,51.9,120.3,52z"/>
			<path id="_Path_5" class="st1" d="M124.2,55.7c0.1-0.8,0.3-1.6,0.4-2.4c0-0.3,0.2-0.5,0.4-0.4c0.2,0.2,0.6,0.2,0.8,0
				c0.1-0.1,0.2-0.1,0.3,0s0,0.4-0.1,0.4c-1.2,0.2-1,1.2-1.2,2c0,0.2,0,0.3-0.1,0.5c-0.1,0.1-0.1,0.5-0.4,0.4
				C124,56,124.2,55.9,124.2,55.7z"/>
			<path id="_Path_6" class="st1" d="M104.3,53.3c-0.2,0.9-0.3,1.7-0.5,2.5c0,0.2-0.1,0.5-0.4,0.5c-0.3,0-0.2-0.3-0.2-0.5
				c0.1-0.8,0.3-1.6,0.5-2.4c0-0.2,0.1-0.4,0.4-0.4C104.5,53,104.3,53.2,104.3,53.3z"/>
			<path id="_Path_7" class="st1" d="M118.9,53.3c-0.2,0.9-0.3,1.7-0.5,2.5c0,0.2-0.1,0.4-0.4,0.3c-0.3-0.1-0.2-0.3-0.1-0.5
				c0.2-0.8,0.3-1.7,0.5-2.5c0-0.2,0.2-0.4,0.4-0.3C119,52.9,118.9,53.2,118.9,53.3z"/>
			<path id="_Path_8" class="st1" d="M120.3,55.8c0.1-0.8,0.3-1.7,0.5-2.5c0-0.2,0.2-0.4,0.5-0.3c0.3,0.1,0.1,0.3,0.1,0.5
				c-0.2,0.8-0.3,1.6-0.4,2.4c0,0.2-0.1,0.5-0.4,0.4C120.2,56.2,120.3,55.9,120.3,55.8z"/>
			<path id="_Path_9" class="st1" d="M125.9,55.8c0.2-0.8,0.3-1.6,0.4-2.4c0-0.2,0.2-0.5,0.4-0.4c0.3,0,0.2,0.3,0.1,0.5
				c-0.1,0.8-0.3,1.6-0.4,2.4c0,0.2-0.1,0.5-0.4,0.4C125.8,56.1,125.9,55.9,125.9,55.8z"/>
			<path id="_Path_10" class="st1" d="M121.2,52.4c-0.2,0-0.4-0.2-0.3-0.4c0-0.3,0.2-0.4,0.5-0.4c0,0,0,0,0,0c0.2,0,0.3,0.2,0.3,0.3
				c0,0,0,0.1,0,0.1C121.6,52.2,121.4,52.4,121.2,52.4z"/>
			<path id="_Path_11" class="st1" d="M104.7,51.9c0,0.3-0.2,0.5-0.5,0.5c-0.2,0-0.3-0.1-0.4-0.3c0,0,0,0,0-0.1
				c0-0.3,0.2-0.5,0.4-0.5c0,0,0,0,0,0C104.5,51.5,104.7,51.7,104.7,51.9z"/>
			<path id="_Path_12" class="st1" d="M126.9,51.6c0.2,0,0.4,0.1,0.4,0.3c0,0.2-0.1,0.4-0.4,0.4c0,0,0,0,0,0c-0.2,0-0.3-0.1-0.4-0.2
				c0,0,0,0,0-0.1C126.5,51.8,126.7,51.7,126.9,51.6z"/>
			<path id="_Path_13" class="st3" d="M120.6,22.5c-2.2-0.9-4.7-1-7-0.4c-0.5,0.1-0.8,0.7-1.3,0.6c-0.3,0-0.6,0.1-0.8,0.2
				c-2.1,1-3.8,2.7-4.8,4.7c-0.3,0.4-0.3,1-0.9,1.3c0.5-6,5.8-10.4,11.8-9.9c2.4,0.2,4.7,1.2,6.5,2.9c1.9,1.7,3,4.2,3.2,6.7
				c-0.3,0-0.4-0.3-0.5-0.6c-0.8-1.6-1.9-3-3.3-4.1c-0.7-0.8-1.6-1.3-2.6-1.4l0,0L120.6,22.5z"/>
			<path id="_Compound_Path_7" class="st3" d="M109.5,43.9c-0.5,0.6-0.5,1.3-0.8,1.9c-0.2,0.3-0.4,0.6-0.6,0.9
				c-0.2,0.2-0.6,0.4-0.4,0.7c0.2,0.3,0.6,0.5,0.9,0.5c0.2,0,0.7-0.2,0.7,0.3c0,0.4-0.3,0.8-0.7,0.8c-0.7,0.1-1.4-0.1-1.9-0.6
				c-0.5-0.4-1.1-0.7-1.8-0.7c-1.1,0-2-0.9-2.1-2c-0.6-2.2,0.7-4.5,2.9-5c0.7-0.2,1.3-0.2,2,0c1.1,0.2,1.5,1.3,1.8,2.2
				c0,0.1,0.1,0.2,0.1,0.4c0.3,0.1,0.3-0.4,0.7-0.4c0.6,0,1.1-0.1,0.8,0.8c-0.2,0.7-0.3,1.5-0.4,2.2c-0.1,0.4-0.2,0.8,0.4,0.9
				c0.4,0.1,0.9-0.1,1-0.5c0,0,0-0.1,0-0.1c0.1-0.9,0.3-1.7,0.4-2.6c0.1-0.9,0.5-0.7,1-0.6c0.7,0,0.2,0.5,0.2,0.8
				c0,1.2-0.5,2.3-0.4,3.5c0,0.2-0.1,0.4-0.4,0.5c0,0-0.1,0-0.1,0c-0.9-0.1-1.8,0.4-2.7,0.2c-0.6-0.1-1.1-0.6-1-1.2
				c0-0.2,0.1-0.3,0.1-0.4C109.6,45.4,109.6,44.6,109.5,43.9z M104.2,45.1c0,0.8,0,1.5,0.9,1.7c0.8,0.2,1.7-0.2,2-0.9
				c0.3-0.8,0.5-1.6,0.6-2.5c0.3-0.7,0-1.5-0.7-1.8c0,0,0,0-0.1,0c-0.8-0.2-1.6,0.1-2,0.9C104.5,43.2,104.3,44.1,104.2,45.1z"/>
			<path id="_Path_14" class="st2" d="M120.8,22.6c1,0.2,1.9,0.6,2.6,1.4c1.4,1.1,2.5,2.5,3.3,4.1c0.1,0.2,0.2,0.6,0.5,0.6
				c0.2,1.7,0,3.4-0.6,5c-0.1,0.5-0.5,0.9-1,1c-1.2,0.3-2.3,0.7-3.3,1.2c-0.2,0.2-0.5,0.3-0.8,0c-0.2-0.3,0.1-0.4,0.2-0.7
				c1.6-2.5,2-5.7,1.1-8.6c-0.4-1.3-1-2.5-1.8-3.5C120.9,23.1,120.8,22.9,120.8,22.6z"/>
			<path id="_Path_15" class="st2" d="M105.8,28.9c0.6-0.2,0.6-0.8,0.9-1.3c1.1-2,2.7-3.7,4.8-4.7c0.2-0.2,0.5-0.3,0.8-0.3
				c-1.1,1.5-1.8,3.2-2.2,5c-0.5,2.5-0.1,5.1,1.2,7.3c0.5,0.6,0.9,1.3,1.2,2.1c-2.3-0.9-4.3-2.5-5.5-4.7c-0.2-0.6-0.5-1.1-0.9-1.6
				l-0.2-1.1c0,0,0.1,0,0.1-0.1c0,0,0-0.1,0-0.1L105.8,28.9z"/>
			<path id="_Path_16" class="st3" d="M105.9,30.8c0.4,0.5,0.7,1,0.9,1.6c1.2,2.2,3.1,3.9,5.5,4.8l1.3,0.5c-0.4,0.3-0.1,0.6,0.1,0.8
				c0.9,0.8,2,1.4,3.2,1.9c0.2,0.1,0.4,0.1,0.4,0.4c-1.9,0.3-3.9-0.1-5.6-1c-3.3-1.6-5.5-4.8-6-8.4C105.7,31,105.8,30.8,105.9,30.8z
				"/>
			<path id="_Compound_Path_8" class="st3" d="M116.6,42.9c1.2,0,1.6,0.5,1.4,1.7c-0.1,0.8-0.6,1.6-0.1,2.5c0.2,0.3-0.7,0.9-1,0.6
				c-0.3-0.2-0.5-0.2-0.9-0.1c-0.7,0.4-1.5,0.3-2.1-0.3c-0.5-0.6-0.4-1.5,0.1-2c0.6-0.5,1.4-0.7,2.2-0.6c0.3,0,0.5-0.1,0.4-0.3
				s-0.3-0.5-0.5-0.5c-0.3,0.3-0.6,0-0.9,0.1c-0.3,0.1-0.7,0.5-0.9-0.2c-0.2-0.7,0.4-0.6,0.7-0.7C115.6,42.9,116.1,42.8,116.6,42.9z
				 M115.6,46.9c0.7,0,0.8-0.5,0.8-1c0.1-0.5-0.2-0.3-0.4-0.3c-0.5,0-0.9,0.2-0.9,0.8C115.1,46.9,115.4,46.9,115.6,46.9L115.6,46.9z
				"/>
			<path id="_Path_17" class="st3" d="M118.4,46.5c0.4-1.5,0.4-3.3,0.8-5c0.2-0.8,0.7-0.5,1.1-0.5s0.3,0.4,0.3,0.7
				c-0.1,1.3-0.5,2.5-0.6,3.8c-0.1,0.5-0.4,1.1,0.3,1.5c0.1,0.1,0.1,0.4,0,0.5c0,0-0.1,0.1-0.2,0.1c-0.6,0.3-1.3,0-1.5-0.6
				C118.4,46.9,118.4,46.7,118.4,46.5z"/>
			<path id="_Path_18" class="st3" d="M120.7,47.3c0.2-1.3,0.5-2.6,0.7-3.9c0.1-0.6,0.6-0.6,1-0.5c0.4,0,0.4,0.4,0.3,0.8
				c-0.2,1.2-0.4,2.4-0.6,3.7c-0.1,0.5-0.4,0.7-0.8,0.6c-0.3,0-0.5-0.2-0.5-0.5C120.6,47.4,120.6,47.3,120.7,47.3z"/>
			<path id="_Path_19" class="st3" d="M122.2,42.5c-0.4,0-0.8-0.2-0.8-0.6c0.1-0.5,0.2-0.9,0.7-0.9c0.6,0,0.9,0.1,0.9,0.6
				C123.1,42.2,122.7,42.5,122.2,42.5z"/>
			<path id="_Path_20" class="st4" d="M120.6,22.5l0.2,0.2L120.6,22.5z"/>
			<path id="_Path_21" class="st5" d="M105.8,29.5c0,0,0,0.1,0,0.1s0,0-0.1,0.1L105.8,29.5z"/>
			<path id="_Path_22" class="st6" d="M117.2,54c0,1-0.5,1.8-1,1.8c-0.5,0-0.7-0.2-0.6-0.7c0-1.1,0.4-1.7,1-1.7
				c0.3-0.1,0.6,0.1,0.7,0.4C117.2,53.9,117.2,53.9,117.2,54z"/>
			<path id="_Path_23" class="st6" d="M128.9,54.8c-0.1,0.6-0.3,1-0.9,1c-0.3,0-0.6-0.1-0.5-0.5c0.1-0.5,0.5-0.8,1-0.8
				C128.7,54.6,128.9,54.6,128.9,54.8z"/>
			<path id="_Path_24" class="st6" d="M112.5,54.8c0.1-0.6,0.1-1.4,1-1.5c0.5-0.1,0.7,0.3,0.7,0.8c-0.1,0.7,0,1.6-1,1.7
				C112.5,55.9,112.5,55.4,112.5,54.8z"/>
			<path id="_Path_25" class="st6" d="M123.3,54.9c0,0.5-0.4,0.9-0.9,0.9c-0.3,0-0.6-0.1-0.5-0.5c0.1-0.5,0.5-0.8,1-0.8
				C123.1,54.6,123.3,54.7,123.3,54.9z"/>
			<path id="_Path_26" class="st1" d="M104.2,45.1c0-0.9,0.3-1.8,0.7-2.6c0.4-0.7,1.2-1.1,2-0.9c0.7,0.2,1.1,1,0.8,1.7
				c0,0,0,0,0,0.1c-0.1,0.9-0.3,1.7-0.6,2.5c-0.3,0.8-1.2,1.2-2,0.9C104.3,46.6,104.2,45.9,104.2,45.1z"/>
			<path id="_Path_27" class="st1" d="M115.6,46.9c-0.2,0-0.5,0-0.5-0.4c0-0.6,0.4-0.8,0.9-0.8c0.2,0,0.5,0,0.4,0.3
				C116.5,46.3,116.3,46.8,115.6,46.9z"/>
			<path id="_Path_28" class="st1" d="M118.8,52.4c-0.2,0-0.4-0.2-0.3-0.4c0-0.2,0.2-0.4,0.5-0.4c0,0,0,0,0,0c0.2,0,0.3,0.2,0.3,0.3
				c0,0,0,0.1,0,0.1C119.2,52.2,119,52.4,118.8,52.4z"/>
		</g>
	</g>
</g>
</svg>
