<?xml version="1.0" encoding="utf-8"?>
<!-- Generator: Adobe Illustrator 22.1.0, SVG Export Plug-In . SVG Version: 6.00 Build 0)  -->
<svg version="1.1" id="Layer_1" xmlns="http://www.w3.org/2000/svg" xmlns:xlink="http://www.w3.org/1999/xlink" x="0px" y="0px"
	 viewBox="0 0 233 73" style="enable-background:new 0 0 233 73;" xml:space="preserve">
<style type="text/css">
	.st0{fill:#3D3D3D;}
</style>
<title>Asset 21</title>
<g id="Layer_2_1_">
	<g id="Layer_1-2">
		<g id="_Group_">
			<g id="_Group_2">
				<path id="_Compound_Path_" class="st0" d="M112.1,43c-0.1,0-0.2,0-0.4,0c-0.9-0.3-1.9-0.4-2.8-0.4c-0.2,0-0.4,0.1-0.6,0.2
					c3,0.6,5.8,2.1,8.1,4.1c0-0.1,0-0.1,0-0.2c0-0.2,0-0.3-0.1-0.4c-0.4-2-1.6-3.8-3.4-4.8c-0.8-0.4-1.6-0.9-2.3-1.3
					c-2.3-1.1-3.8-3.3-4.2-5.8c-0.2-1.4-0.3-2.8-0.3-4.3c0-0.7-0.1-1.3-0.2-2c-0.5-3.2-2.3-6-5.1-7.7c-1.7-1-3.4-2.2-5-3.4
					c-1.5-1.1-2.6-2.7-3-4.5c-0.1-0.6-0.1-1.1-0.2-1.7c-0.2,0.9-0.3,1.8-0.3,2.6c-0.2,2.3,0.9,4.5,2.7,5.9c1,0.8,1.9,1.7,2.7,2.8
					c2.6,3.6,4.4,7.8,5.1,12.3c0.3,2,1.4,3.8,3,4.9c0.6,0.4,1.3,0.8,1.9,1.2C109.2,41.4,110.7,42.1,112.1,43L112.1,43z M111.4,28
					c-0.4-0.7-0.5-1.5-0.4-2.3c0-2.1,1.2-4.1,3-5.2c1.6-1,3.5-1.3,5.4-1.1c1.2,0.1,2.2,1.2,2.2,2.4c0.2,1.7-0.5,3.3-1.7,4.4
					c-0.6,0.6-1.3,0.9-2.1,0.9c-0.2,0-0.3,0-0.2-0.3c0.5-2,0.9-4,1.3-6.1c-0.2,0-0.4,0-0.5,0c-1.2,0.1-2.3,0.3-3.5,0.5
					c-0.2,0-0.2,0.2-0.3,0.4c-0.3,1.2-0.5,2.4-0.8,3.7c-1,4.5-1.9,9-2.9,13.4c-0.1,0.3,0,0.4,0.3,0.4c1.1,0,2.3,0.1,3.4,0
					c0.3,0,0.4-0.1,0.4-0.4c0.3-1.5,0.6-2.9,0.9-4.4l1.2-5.4c0-0.1,0-0.3,0.2-0.4c0.8-0.4,1.8,0,2.2,0.8c0.1,0.2,0.2,0.5,0.2,0.8
					c0,1.1-0.2,2.1-0.5,3.2c-0.3,1.3-0.7,2.5-0.9,3.8c-0.3,1,0.2,2,1.2,2.3c0.1,0,0.1,0,0.2,0c0.7,0.1,1.3,0.1,2,0
					c0.6-0.1,1.1-0.2,1.6-0.4c-0.5-0.3-0.9-0.7-1-1.3c-0.1-0.7,0-1.5,0.2-2.2c0.3-1.6,0.9-3.1,1.1-4.7c0.3-1.1-0.1-2.2-0.9-3
					c-0.3-0.2-0.6-0.4-0.9-0.5l0.4-0.3c1.3-0.9,2.2-2.4,2.5-3.9c0.2-2-1-3.8-2.9-4.4c-2-0.7-4.1-0.8-6.1-0.3c-2.5,0.6-4.7,2-6.3,4
					c-0.8,1-1.2,2.2-1.1,3.5c0.2,1.3,1.4,2.3,2.7,2.1C111.2,28,111.3,28,111.4,28z M120.9,43l0.2-0.1c1.4-0.9,2.9-1.6,4.4-2.4
					c2.5-1.4,4.3-3.2,4.7-6.2c0.4-2.7,1.2-5.3,2.4-7.7c1.3-2.9,3.2-5.5,5.6-7.5c0.8-0.6,1.4-1.4,1.8-2.3c0.6-1.5,0.8-3.1,0.5-4.7
					c0-0.4-0.1-0.8-0.3-1.2c-0.1,0.7-0.1,1.4-0.3,2c-0.4,1.6-1.4,3.1-2.8,4.1c-1.5,1.2-3.1,2.3-4.7,3.2c-3.7,2.1-6,6.1-5.8,10.4
					c0,1.3-0.1,2.6-0.3,3.9c-0.3,1.8-1.2,3.4-2.6,4.6c-1.1,0.9-2.4,1.6-3.7,2.3c-2.1,1.1-3.5,3.2-3.7,5.5c2.3-2,5.1-3.5,8.1-4.2
					C123.3,42.4,122.1,42.8,120.9,43L120.9,43z M99.9,28.1c0-0.3-0.1-0.6-0.2-0.9c-1-2.5-2.7-4.7-4.9-6.4c-1.1-0.9-2.2-1.7-3.3-2.6
					c-1.5-1.3-2.6-3-3.1-4.9c0-0.2,0-0.4-0.2-0.4c-0.2-0.1-0.1,0.1-0.1,0.2c-0.2,1.9,0.2,3.9,1,5.7c1.1,2.3,3,4.1,5.3,5.3
					c1.4,0.7,2.8,1.5,3.9,2.6C98.9,27,99.4,27.5,99.9,28.1L99.9,28.1z M133,28h0.1l0.6-0.7c1.4-1.4,3.1-2.6,4.9-3.5
					c4-1.9,6.4-6,6.2-10.4c0-0.2,0-0.4-0.1-0.6c-0.1,0.1-0.2,0.3-0.2,0.4c-0.4,1.6-1.2,3.1-2.4,4.3c-1,1-2.1,1.9-3.3,2.7
					c-2.4,1.7-4.3,4-5.5,6.7C133.2,27.3,133.1,27.6,133,28L133,28z M144.5,20c-0.1,0-0.2,0.1-0.2,0.2c-0.5,0.7-1,1.4-1.6,2
					c-1.4,1.4-3.1,2.6-5,3.4c-2.1,1-3.9,2.6-5,4.6c-0.2,0.3-0.4,0.7-0.5,1.1l0.6-0.5c1.4-1.3,3.1-2.1,5-2.6c1.1-0.2,2.1-0.5,3-1
					c2.2-1.3,3.6-3.5,3.8-6C144.6,20.9,144.6,20.4,144.5,20L144.5,20z M88.5,19.9c-0.1,0.7-0.1,1.3,0.1,2c0.5,3.1,2.8,5.5,5.8,6.2
					c2.2,0.4,4.2,1.4,5.9,2.8l0.6,0.4c0.1-0.1,0.1-0.2,0-0.3c-0.6-1.1-1.2-2.1-2.1-3c-1.1-1.1-2.5-2-3.9-2.6c-2-1-3.8-2.3-5.3-4.1
					C89.2,20.9,88.9,20.5,88.5,19.9L88.5,19.9z M88.2,24.9C88.1,24.9,88.1,24.9,88.2,24.9c-0.1,0.1-0.1,0.2-0.1,0.2
					c0.6,1.8,1.5,3.4,2.8,4.9c1.7,1.8,3.8,2.3,6.1,2.6c1,0.1,2,0.2,3,0.5c0.6,0.2,1.2,0.5,1.8,0.8c0-0.1-0.1-0.2-0.1-0.2
					c-1-1.6-2.5-2.9-4.2-3.6c-0.9-0.4-1.9-0.5-2.8-0.8c-2.2-0.6-4.3-1.9-5.9-3.5C88.6,25.4,88.4,25.1,88.2,24.9z M144.9,24.9
					c-0.2,0-0.3,0.2-0.4,0.3c-0.4,0.5-0.9,1.1-1.4,1.5c-1.7,1.4-3.7,2.3-5.8,2.8c-2.4,0.5-4.5,1.9-5.9,3.9c-0.1,0.1-0.2,0.2-0.2,0.4
					c0.1,0,0.2,0,0.3-0.1c0.9-0.5,1.9-0.9,3-0.9c1.3-0.1,2.6-0.3,3.9-0.7c2.4-0.7,4.3-2.4,5.4-4.7C144.3,26.6,144.6,25.8,144.9,24.9
					z M102.4,35.8c0-0.1-0.1-0.1-0.1-0.2c-0.1-0.1-0.1-0.2-0.2-0.2c-0.9-0.7-1.9-1.3-3-1.7c-1.3-0.4-2.5-0.6-3.8-0.7
					c-1.6-0.2-3.2-0.8-4.6-1.6c-0.1-0.1-0.2-0.1-0.3-0.1c0,0,0,0.1,0,0.1c1,2.2,3.1,3.7,5.6,3.9C98.1,35.3,100.2,35.5,102.4,35.8z
					 M130.7,35.8c0.3-0.1,0.7-0.1,1-0.2l5.2-0.4c1.8-0.1,3.4-0.9,4.6-2.2c0.5-0.5,0.9-1.1,1.1-1.8c-0.5,0.3-0.9,0.5-1.4,0.8
					c-1.7,0.7-3.4,1.1-5.2,1.2c-1.8,0.2-3.5,0.9-4.9,2C130.9,35.3,130.7,35.6,130.7,35.8z M129.5,38.6c1.7,0.2,3.4,0.5,5.1,1
					c0.5,0.2,1.1,0.1,1.5-0.2c0.3-0.2,0.5-0.5,0.5-0.9c0-0.3-0.3-0.6-0.6-0.7c-0.4-0.2-0.8-0.3-1.2-0.3c-1.1,0-2.1,0.1-3.1,0.4
					C130.9,38,130.2,38.2,129.5,38.6z M103.6,38.6c-0.1-0.1-0.2-0.1-0.3-0.2c-1.4-0.4-2.8-0.8-4.2-0.9c-0.7-0.1-1.4,0-2,0.2
					c-0.3,0.1-0.6,0.4-0.6,0.8c0,0.4,0.2,0.8,0.6,1c0.5,0.2,1,0.3,1.5,0.2c0.9-0.3,1.8-0.6,2.7-0.8C102,38.8,102.7,38.7,103.6,38.6
					L103.6,38.6z M104.6,39.7v-0.1c-0.9,0-1.9,0-2.8,0c-0.8,0-1.6,0.2-2.3,0.5c-0.4,0.1-0.6,0.6-0.5,1c0.1,0.2,0.2,0.3,0.4,0.4
					c0.3,0.2,0.7,0.3,1,0.2c0.5-0.1,0.9-0.4,1.2-0.7c0.4-0.4,1-0.8,1.6-0.9C103.7,40,104.1,39.8,104.6,39.7L104.6,39.7z M128.4,39.6
					v0.1c0.2,0.1,0.4,0.1,0.7,0.2c1,0.2,1.9,0.7,2.6,1.4c0.3,0.3,0.6,0.4,1,0.5c0.5,0.1,1.1-0.2,1.3-0.7c0.1-0.5-0.1-0.8-0.8-1
					C131.6,39.6,130,39.4,128.4,39.6L128.4,39.6z M105.6,40.4c-1.2,0.1-2.4,0.1-3.4,1.1c-0.1,0.1-0.2,0.3-0.2,0.4
					c-0.2,0.4,0,0.9,0.4,1.1c0,0,0,0,0.1,0c0.4,0.2,0.9,0.1,1.2-0.3c0.1-0.2,0.3-0.4,0.4-0.7c0.2-0.7,0.8-1.2,1.5-1.4
					C105.5,40.6,105.6,40.6,105.6,40.4L105.6,40.4z M127.4,40.4v0.1c0.1,0.1,0.2,0.1,0.3,0.1c0.6,0.2,1,0.6,1.2,1.1
					c0.2,0.3,0.3,0.6,0.5,1c0.1,0.2,0.4,0.4,0.6,0.4c0.4,0,0.8-0.2,1-0.5c0.2-0.4,0-0.9-0.3-1.2C129.7,40.7,128.6,40.3,127.4,40.4
					L127.4,40.4z"/>
				<path id="_Path_" class="st0" d="M111.4,28c-1.3,0.4-2.6-0.4-3-1.7c0-0.2-0.1-0.3-0.1-0.5c-0.1-1.3,0.3-2.5,1.1-3.5
					c1.6-2,3.8-3.4,6.3-4c2-0.6,4.2-0.5,6.1,0.3c1.9,0.6,3.1,2.4,2.9,4.4c-0.3,1.6-1.2,3-2.5,4l-0.4,0.3c0.3,0.2,0.6,0.3,0.9,0.5
					c0.8,0.8,1.1,1.9,0.9,3c-0.2,1.6-0.8,3.2-1.1,4.7c-0.2,0.7-0.3,1.4-0.2,2.2c0.1,0.5,0.5,1,1,1.3c-0.5,0.2-1,0.4-1.6,0.4
					c-0.7,0.1-1.3,0.1-2,0c-1-0.2-1.7-1.2-1.5-2.2c0-0.1,0-0.1,0-0.2c0.2-1.3,0.6-2.6,0.9-3.8c0.3-1,0.5-2.1,0.5-3.2
					c0-0.9-0.7-1.7-1.6-1.7c-0.3,0-0.5,0-0.8,0.2c-0.2,0.1-0.2,0.2-0.2,0.4l-1.2,5.4c-0.3,1.5-0.6,2.9-0.9,4.4
					c0,0.2-0.1,0.4-0.4,0.4c-1.1,0.1-2.3,0-3.4,0c-0.3,0-0.4-0.1-0.3-0.4c1-4.5,1.9-9,2.9-13.4c0.3-1.2,0.5-2.4,0.8-3.7
					c0-0.2,0.1-0.3,0.3-0.4c1.2-0.1,2.3-0.3,3.5-0.4c0.2,0,0.4,0,0.5,0c-0.4,2-0.9,4.1-1.3,6.1c-0.1,0.3,0,0.3,0.2,0.3
					c0.8,0,1.6-0.3,2.1-0.9c1.2-1.1,1.9-2.7,1.7-4.4c-0.1-1.2-1-2.2-2.2-2.4c-1.9-0.2-3.8,0.2-5.4,1.2c-1.8,1.1-3,3-3,5.2
					C110.9,26.4,111.1,27.2,111.4,28z"/>
				<path id="_Path_2" class="st0" d="M120.9,43c1.2-0.2,2.4-0.6,3.7-0.2c-3,0.7-5.7,2.2-8,4.2c0.2-2.4,1.6-4.4,3.7-5.5
					c1.3-0.6,2.5-1.4,3.7-2.3c1.4-1.2,2.3-2.8,2.6-4.6c0.2-1.3,0.3-2.6,0.3-3.9c-0.2-4.3,2-8.3,5.8-10.4c1.7-0.9,3.2-2,4.7-3.2
					c1.4-1,2.3-2.5,2.8-4.1c0.1-0.6,0.2-1.3,0.3-2c0.2,0.4,0.3,0.8,0.3,1.2c0.2,1.6,0,3.2-0.6,4.7c-0.4,0.9-1,1.7-1.8,2.3
					c-2.4,2-4.4,4.6-5.6,7.4c-1.2,2.4-2,5-2.4,7.7c-0.4,3-2.2,4.9-4.7,6.2c-1.5,0.8-3,1.5-4.4,2.3L120.9,43z"/>
				<path id="_Path_3" class="st0" d="M112.1,43c-1.4-0.9-2.9-1.6-4.4-2.4c-0.7-0.4-1.3-0.8-1.9-1.2c-1.6-1.2-2.7-2.9-3-4.9
					c-0.7-4.4-2.5-8.7-5.1-12.3c-0.8-1.1-1.7-2-2.7-2.8c-1.8-1.4-2.9-3.6-2.7-5.8c0-0.9,0.2-1.8,0.3-2.7c0.1,0.6,0.1,1.1,0.2,1.7
					c0.4,1.8,1.5,3.4,3,4.5c1.6,1.2,3.3,2.4,5,3.4c2.7,1.7,4.6,4.5,5.1,7.6c0.1,0.7,0.2,1.3,0.2,2c0,1.4,0.1,2.9,0.3,4.3
					c0.4,2.5,1.9,4.7,4.2,5.8c0.8,0.4,1.6,0.9,2.4,1.3c1.8,1,3,2.7,3.4,4.8c0,0.2,0.1,0.3,0.1,0.4c0,0.1,0,0.1,0,0.2
					c-2.3-2.1-5.1-3.5-8.1-4.1c0.1-0.2,0.4-0.2,0.6-0.2c1,0,1.9,0.1,2.8,0.4C111.9,43,112,43,112.1,43L112.1,43L112.1,43
					C112.1,43,112.1,43,112.1,43z"/>
				<path id="_Path_4" class="st0" d="M99.9,28.1c-0.5-0.5-1-1.1-1.6-1.6c-1.2-1-2.5-1.9-3.9-2.6c-2.3-1.1-4.1-3-5.3-5.3
					c-0.8-1.8-1.2-3.7-1.1-5.7c0-0.1,0-0.1,0.1-0.2s0.2,0.3,0.2,0.4c0.5,1.9,1.6,3.7,3.1,4.9c1.1,0.9,2.2,1.7,3.3,2.6
					c2.2,1.7,3.9,3.9,4.9,6.4C99.9,27.5,99.9,27.8,99.9,28.1z"/>
				<path id="_Path_5" class="st0" d="M133.1,28c0-0.4,0.1-0.7,0.3-1.1c1.2-2.7,3.1-5,5.5-6.7c1.2-0.8,2.3-1.7,3.3-2.7
					c1.2-1.2,2-2.7,2.4-4.3c0-0.2,0.1-0.3,0.2-0.4c0.1,0.2,0.2,0.4,0.1,0.6c0.2,4.4-2.2,8.6-6.2,10.5c-1.8,0.9-3.5,2.1-4.9,3.5
					l-0.6,0.7L133.1,28z"/>
				<path id="_Path_6" class="st0" d="M144.5,20c0.1,0.4,0.1,0.8,0,1.2c-0.2,2.5-1.7,4.7-3.8,6c-1,0.5-2,0.8-3.1,1
					c-1.9,0.5-3.6,1.3-5,2.6l-0.6,0.5c0.1-0.4,0.3-0.7,0.5-1.1c1.1-2,2.9-3.6,5-4.6c1.9-0.8,3.6-2,5-3.4c0.6-0.6,1.1-1.3,1.6-2
					C144.3,20.1,144.3,20,144.5,20z"/>
				<path id="_Path_7" class="st0" d="M88.5,19.9c0.4,0.5,0.7,1,1.1,1.4c1.4,1.7,3.2,3.1,5.3,4.1c1.4,0.6,2.8,1.5,3.9,2.6
					c0.8,0.9,1.5,1.9,2.1,3c0.1,0.1,0.1,0.2,0,0.3l-0.6-0.4c-1.7-1.4-3.7-2.4-5.9-2.8c-3-0.7-5.3-3.1-5.8-6.2
					C88.4,21.2,88.4,20.6,88.5,19.9z"/>
				<path id="_Path_8" class="st0" d="M88.2,24.9c0.2,0.3,0.4,0.6,0.7,0.8c1.6,1.7,3.6,2.9,5.9,3.5c0.9,0.3,1.9,0.5,2.8,0.8
					c1.7,0.8,3.2,2,4.2,3.6c0,0.1,0.1,0.2,0.1,0.2c-0.6-0.3-1.2-0.6-1.8-0.8c-1-0.2-2-0.4-3-0.5c-2.3-0.3-4.4-0.9-6.1-2.6
					c-1.3-1.4-2.2-3.1-2.8-4.9C88.1,25,88.1,25,88.2,24.9C88.1,24.9,88.1,24.9,88.2,24.9z"/>
				<path id="_Path_9" class="st0" d="M144.9,24.9c-0.3,0.9-0.6,1.7-1,2.5c-1,2.3-3,4-5.4,4.7c-1.3,0.3-2.6,0.6-3.9,0.7
					c-1.1,0.1-2.1,0.4-3,0.9c-0.1,0.1-0.2,0.1-0.3,0.1c0-0.2,0.1-0.3,0.2-0.4c1.4-2,3.5-3.4,5.8-3.9c2.1-0.5,4.1-1.4,5.8-2.8
					c0.5-0.4,1-0.9,1.4-1.5C144.6,25.1,144.7,24.9,144.9,24.9z"/>
				<path id="_Path_10" class="st0" d="M102.4,35.8c-2.1-0.3-4.3-0.5-6.5-0.6c-2.4-0.2-4.5-1.7-5.6-3.9c0,0,0-0.1,0-0.1
					c0.1-0.1,0.2,0,0.3,0.1c1.4,0.9,2.9,1.5,4.6,1.6c1.3,0.1,2.6,0.4,3.8,0.7c1.1,0.4,2.1,1,3,1.7c0.1,0.1,0.2,0.1,0.2,0.2
					C102.3,35.7,102.3,35.7,102.4,35.8z"/>
				<path id="_Path_11" class="st0" d="M130.7,35.8c0.1-0.2,0.2-0.4,0.4-0.5c1.4-1.1,3.1-1.8,4.9-2c1.8-0.1,3.6-0.6,5.2-1.2
					c0.5-0.2,0.9-0.5,1.4-0.8c-0.2,0.7-0.6,1.3-1.1,1.8c-1.2,1.3-2.8,2.1-4.6,2.2l-5.2,0.4C131.3,35.7,131,35.7,130.7,35.8z"/>
				<path id="_Path_12" class="st0" d="M129.5,38.6c0.7-0.3,1.4-0.5,2.1-0.7c1-0.3,2.1-0.4,3.2-0.4c0.4,0,0.8,0.1,1.2,0.3
					c0.3,0.1,0.6,0.4,0.6,0.7c0,0.4-0.2,0.7-0.5,0.9c-0.4,0.3-1,0.4-1.4,0.2C132.9,39.1,131.2,38.7,129.5,38.6z"/>
				<path id="_Path_13" class="st0" d="M103.6,38.6c-0.9,0.1-1.6,0.2-2.3,0.3c-0.9,0.2-1.8,0.4-2.7,0.7c-0.5,0.1-1,0.1-1.5-0.2
					c-0.4-0.2-0.6-0.6-0.6-1c0-0.4,0.3-0.6,0.7-0.7c0.6-0.2,1.3-0.3,2-0.2c1.4,0.2,2.8,0.5,4.2,0.9
					C103.4,38.4,103.5,38.5,103.6,38.6z"/>
				<path id="_Path_14" class="st0" d="M104.6,39.7c-0.5,0.1-0.9,0.3-1.4,0.4c-0.6,0.1-1.2,0.5-1.6,0.9c-0.3,0.3-0.8,0.6-1.2,0.7
					c-0.3,0.1-0.7,0-1-0.2c-0.4-0.2-0.5-0.7-0.3-1c0.1-0.2,0.2-0.3,0.4-0.4c0.7-0.3,1.5-0.5,2.3-0.6c1-0.1,1.9,0,2.8,0L104.6,39.7z"
					/>
				<path id="_Path_15" class="st0" d="M128.4,39.6c1.6-0.1,3.3,0,4.8,0.5c0.7,0.2,0.9,0.6,0.8,1c-0.2,0.5-0.8,0.8-1.3,0.7
					c-0.4-0.1-0.7-0.2-1-0.5c-0.7-0.7-1.6-1.2-2.6-1.4c-0.2-0.1-0.5-0.1-0.7-0.2L128.4,39.6z"/>
				<path id="_Path_16" class="st0" d="M105.6,40.4c0,0.2-0.1,0.2-0.1,0.2c-0.7,0.2-1.3,0.7-1.5,1.4c-0.1,0.2-0.2,0.5-0.4,0.7
					c-0.2,0.4-0.7,0.5-1.2,0.3c-0.4-0.2-0.7-0.6-0.5-1.1c0,0,0,0,0-0.1c0-0.2,0.1-0.3,0.2-0.4C103.2,40.5,104.4,40.5,105.6,40.4z"/>
				<path id="_Path_17" class="st0" d="M127.4,40.4c1.2-0.1,2.3,0.3,3.3,1c0.4,0.3,0.5,0.8,0.3,1.2c-0.2,0.4-0.6,0.6-1,0.5
					c-0.3,0-0.5-0.2-0.6-0.4c-0.2-0.3-0.4-0.6-0.5-1c-0.2-0.5-0.7-1-1.2-1.1c-0.1,0-0.2-0.1-0.3-0.1L127.4,40.4z"/>
				<path id="_Path_18" class="st0" d="M112.1,43C112.1,43,112.1,43,112.1,43L112.1,43L112.1,43z"/>
			</g>
			<path id="_Compound_Path_2" class="st0" d="M102.8,51.7c-0.6,0.6-0.6,1.2-0.8,1.8c-0.3,1.2-1.3,2-2.6,2.1
				c-0.8,0.1-1.6-0.5-1.7-1.3c0,0,0-0.1,0-0.1c-0.2-1.3,0.1-2.5,0.8-3.6c0.5-0.7,1.3-1.2,2.2-1.3c0.8-0.2,1.5,0.3,1.7,1.1
				c0,0,0,0.1,0,0.1c0.1,0.2,0,0.6,0.4,0.7c0.3,0,0.6-0.2,0.8-0.5c0.5-0.9,1.5-1.4,2.6-1.3c0.4,0,0.7,0.1,1,0.4
				c0.2,0.2,0.3,0.6,0,0.8s-0.4,0-0.6-0.2c-0.3-0.7-0.8-0.3-1.1,0c-0.8,1-1.1,2.2-0.9,3.4c0,0.4,0.4,0.8,0.8,0.8c0,0,0.1,0,0.1,0
				c0.9-0.1,1.7-0.4,2-1.4c0.4-1.6,0.7-3.2,1-4.8c0-0.7,0.6-1.3,1.4-1.3c0,0,0.1,0,0.1,0c0.5,0,0.6,0.1,0.5,0.6
				c-0.2,1-0.4,2.1-0.6,3.2c1.2-0.2,1.7-1.8,3.2-1.4c-0.5,0.6-1.2,0.9-1.8,1.5c1,0.2,1.6,1.1,1.4,2.1c0,0.2-0.1,0.3-0.2,0.5
				c-0.1,0.4-0.1,0.8,0.4,0.8c0.5,0.1,0.4-0.4,0.4-0.7c0-0.8,0.2-1.6,0.5-2.4c0.5-1.3,1.8-2,3.1-1.8c0.5,0,0.9,0,1.4-0.1
				c0.6,0,0.8,0.1,0.6,0.7c-0.3,1-0.5,2.1-0.7,3.2c-0.1,0.4-0.3,0.9,0.3,1s0.9-0.2,1-0.8c0.3-1.6,0.7-3.2,1-4.8
				c0.1-0.8,0.4-1.5,1-2.1c0.7-0.6,1.7-0.6,2.4,0.1c0.2,0.2,0.3,0.4,0.4,0.6c0.1,0.3,0.1,0.5-0.2,0.7c-0.3,0.1-0.3-0.2-0.4-0.3
				c-0.4-0.6-0.7-0.3-1,0.1c-0.5,0.7-0.4,1.4,0.6,1.9c-1.4,0.1-1.3,1-1.5,1.9c-0.3,1.7-0.7,3.3-1.1,5c-0.1,1-0.8,1.8-1.8,2
				c-0.6,0.1-1.2-0.1-1.6-0.6c-0.3-0.4-0.3-0.9,0-1.3c0.1-0.2,0.2-0.4,0.5-0.4c0.2,0,0.2,0.3,0.1,0.5c-0.1,0.2,0,0.6,0.3,0.7
				c0.3,0.1,0.6-0.2,0.6-0.5c0.1-0.3,0.5-0.7,0-0.9s-0.6-0.7-1.1-0.5c-0.3,0-0.5,0-0.7-0.2c-0.5-0.6-0.8-0.4-1.4,0
				c-0.5,0.4-1.3,0.4-1.8,0c-0.4-0.3-0.6-0.4-1-0.1c-0.5,0.4-1.3,0.4-1.8,0c-0.6-0.4-0.5-1-0.4-1.6c0-0.2,0.1-0.5,0.2-0.7
				c0.1-0.4,0-0.8-0.5-0.9c-0.4-0.1-0.8,0.2-0.9,0.6c0,0,0,0,0,0c-0.1,0.7-0.3,1.4-0.4,2.1c-0.1,0.3,0,0.8-0.5,0.8
				c-0.5,0-1.2,0.3-1.4-0.2c-0.2-0.5-0.5-0.3-0.8-0.2c-0.3,0.1-0.6,0.2-0.9,0.3c-1.4,0.3-2.2-0.3-2.3-1.8
				C102.7,53.1,102.8,52.4,102.8,51.7z M114.7,53.2c0,0.5-0.1,1.1,0.6,1.2s0.8-0.4,0.9-1c0.2-0.8,0.4-1.7,0.5-2.5
				c0.1-0.3,0.3-0.7-0.2-0.8c-0.3-0.1-0.7,0-0.9,0.3C115,51.2,114.7,52.2,114.7,53.2z M99.4,53.1c0.1,0.4-0.1,1,0.6,1.2
				c0.7,0.2,1-0.4,1.2-0.9c0.2-0.5,0.5-1.1,0-1.7c-0.2-0.2-0.2-0.6,0-0.8c0,0,0,0,0,0c0.2-0.3,0.6-0.6,0.1-0.9c-0.5-0.3-0.7,0-1,0.4
				C99.7,51.2,99.4,52.1,99.4,53.1z M109.7,50.9C109.7,50.9,109.7,50.8,109.7,50.9c-0.1-0.1-0.1-0.1-0.1,0H109.7L109.7,50.9z"/>
			<path id="_Compound_Path_3" class="st0" d="M126.8,54.3c-0.6,0.5-1.3,0.9-2,1.1c-0.9,0.3-1.9-0.2-2.2-1.1
				c-0.1-0.2-0.1-0.4-0.1-0.6c-0.2-1.3,0.2-2.6,1-3.6c0.4-0.6,1-0.9,1.7-0.8c0.7,0,1.4-0.1,1.7,0.7c0.3,0.7,0.1,1.5-0.4,2
				c-0.4,0.5-0.9,0.8-1.5,0.9c-0.6,0.1-0.8,0.4-0.6,1c0.1,0.5,0.5,0.8,1,0.7c0.1,0,0.1,0,0.2,0c1-0.2,1.7-1,1.9-2
				c0.3-1.5,0.7-2.9,0.9-4.4c0.1-1.1,0.9-1.1,1.6-1.1s0.3,0.5,0.2,0.8c-0.3,1.7-0.7,3.4-1.1,5.2c-0.1,0.5-0.6,1.2,0.3,1.3
				c0.7,0.1,1.3-0.4,1.3-1c0,0,0,0,0-0.1c0.4-1.8,0.7-3.5,1.1-5.3c0.1-0.3,0-0.7,0.4-0.8c0.4-0.1,1-0.4,1.3-0.1c0.3,0.3,0,0.7,0,1.1
				c-0.4,1.7-0.7,3.5-1.1,5.2c-0.1,0.4-0.3,0.9,0.3,1c0.5,0.1,0.9-0.1,1.1-0.6c0-0.1,0-0.1,0-0.2c0.1-0.9,0.3-1.7,0.6-2.5
				c0.4-0.9,1.3-1.5,2.2-1.6c3.1-0.3,3.1-0.3,2.4,2.7c-0.1,0.6-0.2,1.1-0.3,1.7c0,0.2,0,0.4,0.2,0.4c0.2,0,0.4-0.1,0.4-0.1
				c0.2-1.5,1.7-2.4,1.7-3.9c0-0.6,0.2-0.7,0.7-0.8c0.9-0.3,1.4-0.2,1.5,1c0.1,0.7,0.3,1.4,0.6,2.1c0.4,0.9,0.1,2-0.7,2.6
				c-1,0.6-2.2,0.6-3.2,0c-0.4-0.3-0.6-0.4-0.9,0c-0.3,0.4-0.8,0.6-1,0.4c-0.9-0.7-1.7-0.4-2.6,0.1c-0.5,0.3-1.1,0.1-1.4-0.4
				c0,0-0.1-0.1-0.1-0.2c-0.3-0.7-0.6-0.2-0.9,0c-1.2,0.9-1.6,0.8-2.6-0.3c-0.4-0.4-0.6,0.1-0.8,0.2
				C128.3,55.8,127.6,55.7,126.8,54.3z M135.4,53.2c0.1,0.5-0.1,1.1,0.6,1.2c0.7,0.1,0.8-0.4,1-1c0.2-0.8,0.3-1.6,0.5-2.4
				c0.1-0.3,0.4-0.7-0.1-0.9c-0.4-0.1-0.8,0-1,0.4C135.7,51.3,135.4,52.3,135.4,53.2z M141.6,50.8c-0.4,0.6-0.5,1.3-0.3,2
				c0.1,0.4-0.1,0.9-0.5,1c0,0-0.1,0-0.1,0c-0.2,0-0.5-0.1-0.5,0.2c0,0.3,0.2,0.5,0.5,0.6c0.7,0.4,1.5-0.3,1.5-1.3
				C142,52.5,141.8,51.6,141.6,50.8z M124.8,52.3c0.7-0.2,1.2-0.8,1.3-1.6c0.1-0.3,0-0.6-0.3-0.8c-0.3-0.2-0.5,0.1-0.7,0.3
				c-0.4,0.5-0.6,1-0.7,1.5C124.4,52.1,124.3,52.3,124.8,52.3z"/>
			<path id="_Path_19" class="st0" d="M94.8,46.9c-1.6-0.1-3,1.1-3.1,2.7c0,0.1,0,0.3,0,0.4c0,0.2,0.3,0.5-0.2,0.6
				c-0.3,0-0.5,0-0.7-0.2c-0.4-0.4-0.4-1-0.2-1.5c0.7-2.1,4.1-3.3,6-2.1c0.9,0.5,1.2,1.6,0.7,2.5c-0.1,0.1-0.1,0.2-0.2,0.3
				c-0.4,0.5-0.7,0.8-0.2,1.5c0.3,0.4,0.1,1,0,1.5c-0.1,0.9-0.7,1.8-0.3,2.8c0.1,0.4-0.5,0.4-0.8,0.4c-0.5,0-1.1-0.1-1-0.8
				c0.1-0.5,0.2-1.1,0.3-1.6c0.1-0.6,0.2-1.2,0.3-1.8c0-0.3-0.2-0.6-0.5-0.7c0,0,0,0,0,0c-0.4-0.1-0.5,0.2-0.6,0.6
				c-0.2,1.1-0.5,2.2-0.7,3.4c-0.2,1-0.9,0.7-1.4,0.7s-0.4-0.6-0.3-0.9c0.4-2.1,0.9-4.2,1.3-6.2c0.3-0.7,1-1,1.7-0.8
				c0.3,0.1,0.2,0.3,0.2,0.5c-0.1,0.5-0.2,1-0.3,1.5c0,0.2-0.2,0.5,0.1,0.7c0.2,0,0.4,0,0.6-0.2c0.8-0.5,1.1-1.4,0.9-2.3
				C96,46.9,95.4,46.9,94.8,46.9z"/>
			<path id="_Path_20" class="st0" d="M109.7,50.9L109.7,50.9h-0.1C109.6,50.9,109.6,50.8,109.7,50.9
				C109.7,50.8,109.7,50.8,109.7,50.9z"/>
			<g id="_Group_3">
				<path id="_Compound_Path_4" class="st0" d="M92.7,59.7c0.2,0,0.4-0.1,0.6-0.1c0.2,0,0.5,0,0.7,0.2c0.1,0.1,0.2,0.3,0.2,0.4
					c0,0.2-0.2,0.5-0.4,0.5l0,0c0.3,0.1,0.5,0.3,0.5,0.6c0,0.2-0.1,0.4-0.2,0.5c-0.2,0.2-0.5,0.2-0.8,0.2c-0.2,0-0.3,0-0.5,0V59.7z
					 M93,60.7h0.3c0.3,0,0.5-0.2,0.5-0.4s-0.2-0.4-0.5-0.4H93V60.7z M93,61.9h0.3c0.3,0,0.6-0.1,0.6-0.5c0-0.3-0.3-0.5-0.6-0.5H93
					V61.9z"/>
				<path id="_Compound_Path_5" class="st0" d="M98,61.3l-0.2,0.8h-0.3l0.8-2.4h0.4l0.8,2.4h-0.3l-0.3-0.8H98z M98.8,61.1l-0.2-0.7
					c0-0.1-0.1-0.3-0.1-0.4l0,0c0,0.2-0.1,0.3-0.1,0.4l-0.2,0.7H98.8z"/>
				<path id="_Compound_Path_6" class="st0" d="M102.8,59.7c0.2,0,0.4-0.1,0.6-0.1c0.3,0,0.5,0,0.7,0.2c0.1,0.1,0.2,0.3,0.2,0.4
					c0,0.3-0.2,0.5-0.5,0.6l0,0c0.2,0.1,0.3,0.3,0.4,0.5c0,0.2,0.1,0.4,0.2,0.7h-0.3c-0.1-0.2-0.1-0.4-0.2-0.6
					c-0.1-0.3-0.2-0.5-0.5-0.5h-0.4v1h-0.3L102.8,59.7z M103.1,60.9h0.3c0.3,0,0.6-0.2,0.6-0.5c0-0.3-0.2-0.5-0.6-0.5
					c-0.1,0-0.2,0-0.3,0V60.9z"/>
				<path id="_Compound_Path_7" class="st0" d="M107.8,59.7c0.2,0,0.4-0.1,0.6-0.1c0.2,0,0.5,0,0.7,0.2c0.1,0.1,0.2,0.3,0.2,0.4
					c0,0.2-0.2,0.5-0.4,0.5l0,0c0.3,0.1,0.5,0.3,0.5,0.6c0,0.2-0.1,0.3-0.2,0.5c-0.2,0.2-0.5,0.2-0.8,0.2c-0.2,0-0.3,0-0.5,0
					L107.8,59.7z M108.1,60.7h0.3c0.3,0,0.5-0.2,0.5-0.4s-0.2-0.4-0.5-0.4c-0.1,0-0.2,0-0.3,0V60.7z M108.1,61.9h0.3
					c0.3,0,0.6-0.1,0.6-0.5c0-0.4-0.3-0.5-0.6-0.5h-0.3V61.9z"/>
				<path id="_Compound_Path_8" class="st0" d="M114,61H113v0.9h1v0.3h-1.3v-2.4h1.3V60h-1v0.8h0.9L114,61z"/>
				<path id="_Compound_Path_9" class="st0" d="M117.5,59.7c0.2,0,0.4-0.1,0.6-0.1c0.2,0,0.5,0.1,0.7,0.2c0.1,0.1,0.2,0.3,0.2,0.4
					c0,0.3-0.2,0.5-0.5,0.6l0,0c0.2,0.1,0.3,0.3,0.4,0.5c0,0.2,0.1,0.4,0.2,0.7h-0.3c-0.1-0.2-0.1-0.4-0.2-0.6
					c-0.1-0.3-0.2-0.5-0.5-0.5h-0.3v1h-0.3V59.7z M117.8,60.9h0.3c0.3,0,0.5-0.2,0.5-0.4c0,0,0,0,0,0c0-0.3-0.2-0.5-0.5-0.5
					c-0.1,0-0.2,0-0.3,0L117.8,60.9z"/>
				<path id="_Compound_Path_10" class="st0" d="M123.9,61.7c0.2,0.1,0.4,0.2,0.6,0.2c0.3,0,0.5-0.2,0.5-0.4c0-0.2-0.1-0.3-0.4-0.5
					c-0.3-0.1-0.6-0.3-0.6-0.7c0-0.4,0.3-0.7,0.7-0.7c0,0,0,0,0,0c0.2,0,0.4,0,0.5,0.1l-0.1,0.2c-0.1-0.1-0.3-0.1-0.5-0.1
					c-0.3,0-0.4,0.2-0.4,0.4c0,0.2,0.2,0.3,0.5,0.5c0.3,0.1,0.6,0.3,0.6,0.7s-0.3,0.7-0.8,0.7c-0.2,0-0.4-0.1-0.6-0.2L123.9,61.7z"
					/>
				<path id="_Compound_Path_11" class="st0" d="M129.1,59.7v1h1.2v-1h0.3v2.4h-0.3V61h-1.2v1.1h-0.3v-2.4L129.1,59.7z"/>
				<path id="_Compound_Path_12" class="st0" d="M136.1,60.9c0.1,0.6-0.4,1.2-1,1.3c0,0-0.1,0-0.1,0c-0.6,0-1.1-0.5-1.1-1.1
					c0,0,0-0.1,0-0.1c0-0.6,0.4-1.2,1.1-1.2c0,0,0.1,0,0.1,0C135.7,59.7,136.2,60.2,136.1,60.9C136.1,60.8,136.1,60.9,136.1,60.9z
					 M134.2,60.9c0,0.5,0.3,1,0.8,1s0.8-0.5,0.8-1s-0.2-1-0.8-1S134.3,60.4,134.2,60.9L134.2,60.9z"/>
				<path id="_Compound_Path_13" class="st0" d="M139.6,59.7c0.2,0,0.4-0.1,0.6-0.1c0.2,0,0.5,0.1,0.7,0.2c0.1,0.1,0.2,0.3,0.2,0.5
					c0,0.2-0.1,0.4-0.2,0.5c-0.2,0.2-0.5,0.3-0.7,0.3c-0.1,0-0.2,0-0.2,0v1h-0.3V59.7z M139.9,60.9h0.2c0.4,0,0.6-0.2,0.6-0.5
					c0-0.3-0.2-0.5-0.6-0.5h-0.3L139.9,60.9z"/>
			</g>
		</g>
	</g>
</g>
</svg>
