<?xml version="1.0" encoding="utf-8"?>
<!-- Generator: Adobe Illustrator 22.1.0, SVG Export Plug-In . SVG Version: 6.00 Build 0)  -->
<svg version="1.1" id="Layer_1" xmlns="http://www.w3.org/2000/svg" xmlns:xlink="http://www.w3.org/1999/xlink" x="0px" y="0px"
	 viewBox="0 0 233 73" style="enable-background:new 0 0 233 73;" xml:space="preserve">
<style type="text/css">
	.st0{fill:#3D3D3D;}
</style>
<title>Asset 24</title>
<g id="Layer_2_1_">
	<g id="Layer_1-2">
		<g id="_Group_">
			<path id="_Compound_Path_" class="st0" d="M115.7,39.8c-0.1-0.2-0.2-0.1-0.3-0.2c-2-0.5-3.3-2.3-3.3-4.4c0-3,0-6.1,0-9.1
				c0-0.2,0-0.4,0-0.6c0.1-0.2,0.1-0.5-0.1-0.6c-0.3-0.3-0.2-0.8,0.1-1.1c0.1-0.1,0.3-0.2,0.5-0.2c1.8-0.3,3.6-0.5,5.4-0.8l2.2-0.3
				l4.2-0.6c0.5-0.1,0.9,0.2,1,0.7c0,0.2,0,0.5-0.2,0.6c-0.4,0.4-0.2,0.6,0,0.9c0.4,0.8,0.5,1.7,0.5,2.6c0,2.3,0,4.7,0,7
				c0,0.2,0,0.3,0,0.5s0,0.4,0,0.5c0.1,1.3-0.4,2.7-1.3,3.6c-0.1,0-0.1,0.1-0.2,0.2l-0.2,0.2l-1.1,0.7l-0.2,0.1
				c-1.3,0.3-2.6,0.3-3.9,0.2c-0.9,0-1.8,0-2.7,0c-0.1,0-0.2,0-0.3,0.1L115.7,39.8C115.8,39.8,115.8,39.7,115.7,39.8z M120.9,27.4
				c-0.7-0.1-1.3,0-2,0.1c-1.3,0.1-2.5,0.9-3.3,2c-0.9,1.9-1.2,4-0.7,6c0,0.2,0.1,0.3,0.3,0.3c0,0,0,0,0,0c0.4,0,0.8,0.1,1.3,0.2
				c1.1,0.1,2.3,0,3.4-0.2c1.3-0.3,2.4-1.2,2.9-2.5c0.6-1.7,0.7-3.6,0.3-5.4c0-0.1-0.1-0.2-0.2-0.2
				C122.3,27.4,121.6,27.4,120.9,27.4z"/>
			<path id="_Path_" class="st0" d="M109,27.1c1,1.8,1.2,4,0.8,6c-0.1,0.3-0.2,0.4-0.5,0.5c-1.2,0.2-2.5,0.2-3.7,0.1
				c-0.4-0.2-0.9-0.2-1.3-0.4c-1.5-0.6-2.6-1.9-2.8-3.6c-0.2-1.3-0.2-2.7,0-4c0-0.2,0.2-0.4,0.5-0.5c1.5-0.3,3-0.2,4.4,0.1
				C107.4,25.6,108.3,26.2,109,27.1z"/>
			<path id="_Compound_Path_2" class="st0" d="M142.8,47.1c0,1.4-0.2,2.9-0.4,4.3c-0.4,1.7-1.6,3-3.2,3.7c-0.7,0.3-1.4,0.4-2.1,0.2
				c-0.7-0.1-1.2-0.7-1.2-1.4c0-0.2,0.1-0.5,0.3-0.6c0.3-0.5,0.7-0.9,1.2-1.3c0.1-0.1,0.3-0.2,0.1-0.3c-0.7-0.7-1-1.6-0.9-2.5
				c-0.1-1.4,0.5-2.8,1.5-3.7c1-0.9,2.5-1,3.7-0.4C142.5,45.5,142.8,46.3,142.8,47.1z M137.8,48.9c0,0.6,0.1,1.2,0.4,1.7
				c0.1,0.2,0.3,0.3,0.5,0.3c0.1,0,0.1-0.1,0.2-0.1c0.3-0.2,0.6-0.5,0.9-0.8c0.7-0.7,1.3-1.5,1.7-2.5c0.2-0.5,0.1-1.1-0.3-1.5
				c-0.4-0.4-1-0.5-1.6-0.3c-0.6,0.2-1.1,0.6-1.3,1.1C138,47.4,137.8,48.2,137.8,48.9L137.8,48.9z M141.4,49.1
				c-0.7,1.1-1.7,2.1-2.7,2.9c-0.5,0.4-0.9,0.9-1.3,1.4c-0.2,0.2-0.3,0.5-0.1,0.8s0.5,0.3,0.8,0.2c0.6-0.1,1.1-0.4,1.6-0.8
				C140.9,52.5,141.5,50.8,141.4,49.1L141.4,49.1z"/>
			<path id="_Path_2" class="st0" d="M119,21.9c-0.7,0.1-1.4,0.2-2.1,0.3c-0.6,0.1-1.3,0.1-1.9,0.2c-0.6,0.1-1.4,0.2-2.2,0.3
				c-0.3,0-0.6,0.1-0.8-0.2c-0.2-0.4-0.2-0.8-0.1-1.2c0.1-0.2,0.2-0.2,0.4-0.2c1-0.1,1.9-0.3,2.9-0.4c0.3,0,0.4-0.1,0.4-0.5
				c-0.2-1.4-0.4-2.8-0.6-4.2c-0.1-0.6,0-0.8,0.7-0.9c0.7-0.1,0.9,0.1,1,0.6c0.2,1.4,0.4,2.8,0.6,4.3c0,0.2,0,0.4,0.3,0.3
				c2-0.3,4-0.5,6-0.8c0.3,0,0.7-0.1,1-0.1c0.3-0.1,0.7,0.1,0.8,0.5c0,0,0,0.1,0,0.1c0.1,0.7,0,1-0.5,1.1c-0.5,0.1-0.9,0.1-1.3,0.2
				L119,21.9z"/>
			<path id="_Path_3" class="st0" d="M111.7,51.7c-0.5,0-0.4-0.4-0.5-0.7c0-0.3,0-0.5,0.1-0.8l0.2-4.3c0-0.4,0.2-0.7-0.2-1
				c-0.2-0.1,0.1-0.2,0.2-0.2c0.8-0.2,1.2,0.1,1.2,1c0,0.1,0,0.2,0,0.3l-0.1,1.5c0.4-0.5,0.7-0.9,1-1.3c0.4-0.5,0.9-1,1.4-1.3
				c0.4-0.3,1.1-0.2,1.4,0.2c0.1,0.1,0.1,0.1,0.1,0.2c0.2,0.6,0.4,1.2,0.4,1.8c0,0.1,0,0.2,0.1,0.3c0.6-1,1.4-1.8,2.4-2.5
				c0.5-0.4,1.2-0.4,1.6,0.1c0.2,0.3,0.4,0.6,0.4,1c0.1,0.7,0.1,1.4,0,2.1l-0.1,2.9c0,0.2,0,0.4,0.1,0.5c0.2,0.2,0.1,0.3-0.2,0.4
				c-0.9,0.1-1.2-0.2-1.2-1.1c0.1-1.3,0.2-2.5,0.2-3.8c0-0.3,0-0.7-0.1-1c-0.1-0.3-0.3-0.4-0.6-0.2c-0.7,0.6-1.3,1.3-1.8,2
				c-0.6,0.9-0.9,2.1-0.8,3.2c0,0.7-0.2,0.8-0.7,0.9c-0.3,0-0.5-0.1-0.5-0.5c0-0.9,0.1-1.9,0.1-2.8c0.1-0.8,0.1-1.5,0-2.3
				c-0.1-0.6-0.3-0.7-0.8-0.3c-0.8,0.7-1.5,1.5-2,2.4c-0.3,0.7-0.5,1.4-0.4,2.1c0,0.2,0,0.4,0,0.5C112.4,51.5,112.3,51.6,111.7,51.7
				z"/>
			<path id="_Path_4" class="st0" d="M89.1,49.3c0.1,1.3-1,2.5-2.3,2.5c-0.1,0-0.1,0-0.2,0c-1.2,0.2-2.4-0.2-3.3-1
				c-0.1-0.1-0.2-0.2-0.4-0.2c-0.2-0.3,0-0.6,0.2-0.8s0.5-0.1,0.7,0.1c0.5,0.5,1.2,0.8,1.9,0.9c0.4,0.1,0.9,0,1.3-0.2
				c0.7-0.3,1-1,0.7-1.7c-0.1-0.2-0.2-0.3-0.3-0.4c-0.3-0.3-0.7-0.6-1.1-0.8c-0.5-0.3-1-0.6-1.6-0.9c-0.8-0.5-1.3-1.4-1.1-2.4
				c0.3-1.6,1.8-2.7,3.5-2.4c0.1,0,0.1,0,0.2,0c1.1,0.2,1.8,1.3,1.5,2.4c0,0.2-0.1,0.4-0.3,0.6c-0.1,0.3-0.4,0.4-0.7,0.3
				c-0.3-0.1-0.3-0.4-0.2-0.7c0.2-0.5,0.1-1.1-0.3-1.5c-0.6-0.4-1.3-0.3-1.8,0.2c-0.3,0.2-0.5,0.5-0.6,0.8c-0.3,0.6-0.2,1.3,0.4,1.6
				c0,0,0,0,0,0c0.6,0.4,1.2,0.7,1.7,1C88.2,47.3,88.9,48.2,89.1,49.3z"/>
			<path id="_Compound_Path_3" class="st0" d="M95.9,48.1c-0.1,0.9-0.1,1.8-0.2,2.7c0,0.2,0,0.4,0.2,0.6c0.2,0.1,0.1,0.2-0.1,0.3
				c-0.3,0-0.5,0.1-0.8,0.1c-0.4,0-0.6-0.3-0.5-0.8c0.1-0.6,0.1-1.1,0.1-1.7c-0.2,0-0.2,0.2-0.3,0.2c-0.5,0.8-1.2,1.4-1.9,2
				c-0.5,0.5-1.4,0.5-1.9,0c-0.1-0.1-0.2-0.3-0.3-0.5c-0.1-0.1-0.1-0.3-0.2-0.4c-0.4-1.5-0.2-3.2,0.7-4.5c0.9-1.5,3.8-2.2,5.1-0.3
				c0.2,0.3,0.2,0.7,0.2,1C95.9,47.2,95.9,47.6,95.9,48.1z M94.8,47c0-0.8-0.4-1.4-1-1.5c-0.6-0.1-1.2,0.1-1.7,0.5
				c-1,1.2-1.3,2.9-0.8,4.4c0.3,0.5,0.5,0.6,1,0.2c0.9-0.7,1.6-1.6,2.1-2.5C94.6,47.8,94.7,47.4,94.8,47L94.8,47z"/>
			<path id="_Compound_Path_4" class="st0" d="M127.2,49.2c-0.4,0.5-0.8,1-1.2,1.4c-0.4,0.5-1,0.9-1.5,1.2c-0.7,0.3-0.9,0.2-1.4-0.4
				c-0.7-0.8-0.9-1.9-0.7-2.9c0-1,0.4-2,1.1-2.8c0.9-1,2.3-1.4,3.6-0.9c0.8,0.2,1.4,1,1.4,1.8c0,1.1,0,2.3-0.1,3.4
				c0,0.5-0.3,1,0.2,1.5c0.1,0.1,0,0.2-0.1,0.2c-0.4,0.1-0.8,0.1-1.2-0.1c-0.2-0.1-0.2-0.3-0.2-0.6
				C127.2,50.4,127.2,49.9,127.2,49.2z M123.6,49.1c0,0.5,0.1,1,0.3,1.4c0.2,0.4,0.4,0.4,0.8,0.2c0.8-0.6,1.5-1.4,2.1-2.3
				c0.2-0.3,0.4-0.6,0.5-1c0.3-0.7-0.1-1.5-0.8-1.8c-0.2-0.1-0.4-0.1-0.7-0.1c-0.5,0-1,0.3-1.3,0.7
				C123.8,47.1,123.5,48.1,123.6,49.1z"/>
			<path id="_Compound_Path_5" class="st0" d="M146.3,51.9c-1.8,0-2.6-1.4-2.6-3.1c0-0.9,0.2-1.7,0.6-2.5c0.7-1.4,2.3-2.1,3.8-1.6
				c1,0.3,1.7,1,1.9,2c0.4,1.4,0.1,2.9-0.8,4C148.4,51.5,147.4,52,146.3,51.9z M144.9,48.9c0,0.1,0,0.3,0,0.5
				c0.1,0.8,0.6,1.4,1.3,1.6c0.7,0.1,1.5-0.2,1.9-0.8c0.6-0.9,0.8-2.1,0.6-3.1c-0.1-0.7-0.6-1.2-1.2-1.4c-0.7-0.1-1.4,0.2-1.8,0.7
				C145.1,47,144.9,47.9,144.9,48.9L144.9,48.9z"/>
			<path id="_Path_5" class="st0" d="M129.8,44.6c0.3,0.1,0.5,0.1,0.8,0.1c0.5,0,0.6,0.1,0.6,0.6c0,0.2,0,0.4,0,0.5l-0.1,1.4h0.1
				l0.6-0.9c0.4-0.4,0.7-0.8,1.1-1.2c0.3-0.3,0.7-0.6,1.1-0.7c0.7-0.2,1.3,0.3,1.5,1.2c0,0.3,0.1,0.5,0.1,0.8
				c-0.1,1.4-0.1,2.8-0.2,4.2c0,0.2,0,0.4,0.2,0.6c0.2,0.2,0.1,0.3-0.1,0.3c-0.3,0.1-0.6,0.1-0.9,0c-0.3-0.1-0.3-0.3-0.3-0.5
				c0-1,0.1-2,0.2-3c0-0.2,0-0.5,0-0.7c0.1-0.5,0.1-1,0-1.5c-0.1-0.5-0.4-0.6-0.8-0.3c-0.5,0.3-0.9,0.8-1.2,1.3
				c-0.8,0.8-1.3,1.9-1.3,3c0,0.4,0,0.8-0.1,1.2c0,0.4-0.4,0.7-0.8,0.6c-0.1,0-0.2,0-0.2-0.1c-0.2-0.1-0.1-0.3-0.1-0.4
				c0.1-1.3,0.1-2.6,0.2-3.9c0-0.7,0.1-1.3,0.1-2c0-0.1,0-0.3-0.1-0.3C129.7,45,129.7,44.8,129.8,44.6z"/>
			<path id="_Path_6" class="st0" d="M97.1,51.6c0-1.4,0.1-2.8,0.2-4.2c0-0.4,0-0.8,0-1.1V46c0,0,0-0.1,0-0.1
				c0.1-0.3,0.2-0.7-0.2-0.9c-0.1,0-0.1-0.1-0.1-0.2c0-0.1,0.3-0.1,0.4-0.1h0.6c0.2,0,0.4,0.2,0.4,0.3c0,0.2,0,0.3,0,0.5l-0.1,1.8
				c0.6-0.8,1.2-1.4,1.8-2.1c0.5-0.5,1.2-0.8,1.9-0.5c0.5,0.2,0.9,0.8,0.8,1.4c0,1.3,0,2.7-0.2,4c0,0.3,0,0.7,0,1
				c0,0.1,0,0.1,0.1,0.2c0.1,0.1,0.3,0.1,0.2,0.3s-0.3,0.1-0.5,0.1h-0.3c-0.7,0-0.8-0.1-0.7-0.8c0.1-1.3,0.1-2.6,0.2-4
				c0-0.3,0-0.7-0.1-1c-0.1-0.5-0.4-0.6-0.8-0.3c-1.2,0.9-2.1,2.1-2.5,3.5c-0.1,0.5-0.1,1-0.1,1.5c-0.1,1-0.1,1-1.1,1L97.1,51.6z"/>
			<path id="_Path_7" class="st0" d="M117.9,18.1c0-0.6,0.1-1.1,0.2-1.6c0.3-0.8,1.2-1.4,2.1-1.4c0.4,0,0.9,0,1.3,0.1
				c0.2,0,0.4,0.1,0.4,0.3c0.1,0.6,0.1,1.3,0,1.9c-0.2,0.9-1,1.6-1.9,1.7c-0.5,0-1,0-1.4,0c-0.4,0-0.6-0.2-0.5-0.6
				C118,18.4,117.9,18.2,117.9,18.1z"/>
			<path id="_Compound_Path_6" class="st0" d="M119.3,57.7c-0.1,0-0.2,0.1-0.2,0.1c-0.5-0.3-0.9,0-1.3,0c-0.5,0.1-0.9-0.2-1-0.7
				c-0.1-0.3,0-0.5,0.2-0.7c0.2-0.2,0.3-0.5,0.2-0.7c-0.1-0.3,0-0.6,0.3-0.8c0.3-0.2,0.6-0.2,0.8,0c0.3,0.2,0.4,0.6,0.1,0.9
				c-0.1,0.1-0.1,0.1-0.2,0.2c-0.3,0.2-0.3,0.3,0,0.5c0.1,0.1,0.1,0.1,0.1,0.2c0.1,0.1,0.1,0.2,0.3,0.2s0.1-0.2,0.2-0.3
				c0-0.1,0.1-0.2,0.1-0.3c0-0.2,0.1-0.2,0.3-0.2s0.1,0.2,0.1,0.3c0,0.1-0.1,0.2-0.1,0.3C118.9,57.1,118.9,57.4,119.3,57.7z
				 M117.8,57.5c0.2,0,0.4,0,0.5-0.2s-0.2-0.3-0.2-0.4c-0.1-0.1-0.1-0.2-0.2-0.3c-0.1-0.1-0.2-0.3-0.3-0.2c-0.2,0.1-0.3,0.2-0.3,0.4
				c-0.1,0.3,0.2,0.6,0.5,0.7C117.7,57.5,117.8,57.5,117.8,57.5z M117.5,55.4c0,0.2,0,0.4,0.2,0.4c0.3,0,0.4-0.2,0.4-0.5
				c0,0,0,0,0,0c0-0.2-0.1-0.4-0.3-0.4S117.5,55.2,117.5,55.4z"/>
			<path id="_Path_8" class="st0" d="M106.6,57.6c-0.2,0.2-0.3,0.2-0.4-0.1s0-0.7,0-1.1s-0.1-0.6-0.5-0.6c-0.4,0-0.5,0.2-0.5,0.5
				s0,0.9,0,1.3l-0.3,0.1c-0.1-0.4-0.1-0.8-0.1-1.2c0-0.3,0-0.7-0.4-0.7c-0.4,0-0.5,0.3-0.5,0.7c0,0.4,0,0.8,0,1.2h-0.3
				c0-0.7,0-1.3,0-2c0-0.2,0.2-0.3,0.2-0.2c0.2,0.3,0.4,0,0.6,0c0.2-0.1,0.5-0.1,0.7,0.1c0.1,0.1,0.2,0.2,0.4,0c0.3-0.3,0.7-0.3,1,0
				c0.1,0.2,0.2,0.4,0.2,0.6C106.6,56.8,106.6,57.2,106.6,57.6z"/>
			<path id="_Compound_Path_7" class="st0" d="M130.1,54.7c0,0.9,0,1.8,0,2.7c0,0.1,0.1,0.3-0.1,0.3c-0.2,0.1-0.2,0-0.3-0.1
				s-0.1,0-0.2,0c-0.3,0.3-0.8,0.3-1.1,0c-0.3-0.3-0.5-0.7-0.4-1.1v-0.3c0.3-0.5,0.8-0.8,1.4-0.5c0.1,0.1,0.2,0,0.2-0.1
				c0-0.2,0-0.4,0-0.6C129.6,54.6,129.7,54.5,130.1,54.7z M129.6,56.7c0-0.5-0.2-0.8-0.6-0.8c-0.4,0-0.6,0.3-0.6,0.8
				s0.2,0.8,0.6,0.8S129.6,57.2,129.6,56.7L129.6,56.7z"/>
			<path id="_Path_9" class="st0" d="M114,55.7c0.2,0,0.2,0,0.3-0.1c0.4-0.2,0.8-0.1,1,0.3c0.1,0.1,0.1,0.2,0.1,0.4
				c0,0.4,0,0.8,0,1.2c0,0.1-0.1,0.2-0.2,0.2c-0.2,0-0.2-0.1-0.2-0.2v-1c0-0.3-0.2-0.6-0.5-0.6c-0.3,0-0.5,0.2-0.5,0.5
				c0,0,0,0,0,0.1c0,0.3,0,0.7,0,1c0,0.1,0,0.3-0.2,0.3c-0.2,0-0.2-0.2-0.2-0.3v-2.6c0-0.1,0-0.3,0.2-0.3c0.2,0,0.2,0.2,0.2,0.3
				L114,55.7z"/>
			<path id="_Path_10" class="st0" d="M122.1,54.8c0.1,0.1,0.1,0.2,0.1,0.3c-0.3,0-0.5-0.1-0.8-0.1c-0.2,0-0.4,0.1-0.5,0.4
				c0,0.2,0.1,0.4,0.2,0.5c0.2,0.1,0.3,0.2,0.5,0.3c0.4,0.1,0.6,0.5,0.5,0.9c-0.1,0.4-0.5,0.7-0.9,0.7c-0.2,0-0.5,0-0.7-0.1
				c-0.1,0-0.2-0.1-0.2-0.2s0.2-0.1,0.3-0.1c0.2,0.1,0.4,0.1,0.6,0.1c0.2,0,0.4-0.2,0.5-0.4c0-0.2,0-0.4-0.2-0.5
				c-0.2-0.1-0.3-0.2-0.5-0.3c-0.4-0.1-0.6-0.5-0.6-0.9c0.1-0.4,0.5-0.7,0.9-0.7C121.7,54.7,121.9,54.7,122.1,54.8z"/>
			<path id="_Path_11" class="st0" d="M102.3,57.8c-0.3,0-0.6,0-0.8-0.1c-0.1,0-0.3-0.1-0.2-0.3s0.2-0.1,0.3-0.1
				c0.2,0.1,0.4,0.1,0.6,0.1c0.3,0,0.5-0.2,0.5-0.5c0-0.2-0.1-0.3-0.2-0.4l-0.5-0.3c-0.4-0.1-0.6-0.5-0.5-0.9
				c0.1-0.5,0.4-0.6,0.8-0.7c0.2,0,0.4,0,0.6,0c0.2,0,0.1,0.2,0.1,0.3c-0.2,0.1-0.5-0.1-0.7,0c-0.2,0-0.4,0.1-0.5,0.3
				c-0.1,0.2,0,0.4,0.2,0.5c0.1,0.1,0.2,0.1,0.3,0.2c0.4,0.2,0.8,0.4,0.8,0.8C103,57.4,102.7,57.6,102.3,57.8z"/>
			<path id="_Compound_Path_8" class="st0" d="M111.3,55.7c0.4,0.5,0.4,1.3,0,1.8c-0.4,0.4-1.1,0.4-1.5,0c-0.1-0.1-0.2-0.2-0.2-0.4
				c-0.1-0.2-0.1-0.4-0.1-0.6c0.3-0.9,0.7-1.1,1.7-0.8C111.2,55.7,111.2,55.7,111.3,55.7z M111.2,56.7c0-0.5-0.2-0.8-0.6-0.8
				s-0.7,0.3-0.7,0.8c0,0.4,0.2,0.8,0.6,0.8C110.9,57.5,111.2,57.1,111.2,56.7L111.2,56.7z"/>
			<path id="_Compound_Path_9" class="st0" d="M109.1,57c-0.4,0.9-0.9,1.1-1.8,0.5c-0.2-0.3-0.3-0.6-0.3-1c0-0.6,0.5-1,1.1-0.9
				c0,0,0,0,0,0c0.6,0,1,0.4,1,1c0,0,0,0,0,0.1C109.1,56.7,109.1,56.8,109.1,57z M107.5,56.7c0,0.5,0.3,0.8,0.6,0.8
				c0.4,0,0.7-0.4,0.7-0.8c0,0,0,0,0,0c0-0.5-0.3-0.8-0.7-0.8S107.4,56.2,107.5,56.7z"/>
			<path id="_Compound_Path_10" class="st0" d="M122.8,55.9c0-0.1-0.1-0.2,0-0.2c0.3-0.2,0.7-0.2,1-0.1c0.3,0.1,0.5,0.3,0.5,0.6
				c0,0.4,0,0.9,0,1.3c-0.1,0.4-0.2,0.3-0.4,0.1s-0.2,0.1-0.4,0.1c-0.4,0.2-0.8,0-0.9-0.3c-0.1-0.4,0.1-0.8,0.4-0.9c0,0,0,0,0,0
				c0.2,0,0.3-0.1,0.5-0.1c0.1,0,0.3,0,0.3-0.2c0-0.2-0.1-0.3-0.3-0.4C123.3,55.9,123,55.9,122.8,55.9z M123.9,56.9
				c0-0.1,0-0.3-0.2-0.2s-0.6,0.1-0.6,0.5c0,0.2,0.1,0.3,0.3,0.4c0,0,0.1,0,0.1,0C123.8,57.5,123.9,57.3,123.9,56.9L123.9,56.9z"/>
			<path id="_Compound_Path_11" class="st0" d="M127.4,55.9c0.1,0.5,0.1,1.1,0.1,1.6c0,0.2-0.1,0.3-0.2,0.2s-0.4,0-0.6,0
				c-0.3,0.1-0.7,0-0.8-0.4c-0.1-0.3,0-0.7,0.4-0.9c0.2-0.1,0.3-0.1,0.5-0.1c0.1,0,0.3,0.1,0.3-0.2c0-0.2-0.2-0.3-0.3-0.3
				c-0.2,0-0.4,0-0.6,0.1c-0.1,0-0.2,0.1-0.2-0.1s0.1-0.1,0.2-0.2c0.2-0.1,0.5-0.1,0.8-0.1C127.1,55.6,127.3,55.7,127.4,55.9z
				 M127.1,57c0-0.2,0-0.3-0.2-0.3c-0.2,0-0.7,0.2-0.7,0.5c0,0.2,0.1,0.3,0.3,0.4c0,0,0.1,0,0.1,0C126.9,57.5,127.1,57.3,127.1,57
				C127.1,57,127.1,57,127.1,57z"/>
			<path id="_Path_12" class="st0" d="M132,57.1c-0.1,0.5-0.5,0.8-1,0.7c-0.1,0-0.2,0-0.3-0.1c-0.1,0-0.2-0.1-0.2-0.2
				c0-0.1,0.1-0.1,0.3-0.1h0.1c0.2,0,0.5,0.1,0.6-0.2s-0.2-0.3-0.4-0.5c-0.6-0.3-0.6-0.4-0.5-1c0.3-0.3,0.6-0.4,1-0.2
				c0.1,0,0.2,0.1,0.2,0.2s-0.1,0.1-0.2,0.1c-0.1,0-0.2,0-0.3,0c-0.2,0-0.3,0.1-0.3,0.2c0,0.2,0.1,0.3,0.2,0.3
				C131.5,56.5,131.8,56.8,132,57.1z"/>
			<path id="_Path_13" class="st0" d="M112.9,57.9c-0.7-0.1-0.8-0.6-0.7-1.2c0-0.2,0-0.3,0-0.5c0.1-0.2,0-0.4-0.3-0.3v-0.3
				c0.2,0,0.4-0.1,0.3-0.3s0.1-0.2,0.2-0.3s0.2,0.2,0.1,0.3c0,0.2,0.1,0.3,0.3,0.3c0.2,0,0.2,0,0.2,0.1s-0.1,0.1-0.2,0.1
				c-0.2,0-0.3,0.1-0.3,0.3s0,0.6,0,0.9c0,0.2,0.1,0.4,0.3,0.4C113.2,57.6,113.1,57.7,112.9,57.9z"/>
			<path id="_Path_14" class="st0" d="M115.8,39.8h0.1h0.1C115.9,39.9,115.8,39.8,115.8,39.8z"/>
			<path id="_Path_15" class="st0" d="M97.3,45.9C97.4,45.9,97.4,46,97.3,45.9C97.3,46,97.3,45.9,97.3,45.9z"/>
			<path id="_Compound_Path_12" class="st0" d="M109.5,50.6c-0.7,0.9-1.8,1.4-2.9,1.3c-1.1,0-2.1-0.8-2.4-1.8
				c-0.5-1.5-0.1-3.2,0.9-4.4c1.1-1.3,3-1.4,4.2-0.3c0.3,0.2,0.5,0.5,0.7,0.8C110.6,47.6,110.4,49.2,109.5,50.6z M105.2,48.6
				c0,0.2,0,0.3,0,0.5c0,1,0.7,1.8,1.7,1.8c0.7,0,1.4-0.4,1.7-1c0.5-0.8,0.7-1.8,0.5-2.8c0-0.8-0.5-1.4-1.3-1.6
				c-0.8-0.1-1.6,0.2-1.9,0.9C105.4,47,105.1,47.8,105.2,48.6L105.2,48.6z"/>
			<path id="_Path_16" class="st0" d="M110,35.9c0,0.3,0,0.7-0.1,1c-0.1,0.9-0.9,1.6-1.8,1.7c-0.6,0.1-1.2,0.1-1.8,0
				c-0.2,0-0.2-0.1-0.3-0.2c-0.1-0.7-0.1-1.3,0-2c0.2-0.9,1-1.6,1.9-1.6c0.5-0.1,0.9-0.1,1.4,0c0.4,0,0.6,0.2,0.6,0.6
				C109.9,35.5,110,35.7,110,35.9z"/>
			<path id="_Path_17" class="st0" d="M125.4,56.2c0,0.4,0,0.8,0,1.3c0,0.2,0,0.3-0.2,0.3c-0.2,0-0.2-0.2-0.2-0.3v-2.6
				c0-0.2,0-0.3,0.2-0.3s0.2,0.2,0.2,0.3C125.4,55.3,125.4,55.7,125.4,56.2z"/>
			<path id="_Path_18" class="st0" d="M97.1,51.6l0.1,0.1c0,0-0.1,0-0.1,0c0,0,0,0,0,0C97.1,51.7,97.1,51.6,97.1,51.6z"/>
		</g>
	</g>
</g>
</svg>
