<?xml version="1.0" encoding="utf-8"?>
<!-- Generator: Adobe Illustrator 22.1.0, SVG Export Plug-In . SVG Version: 6.00 Build 0)  -->
<svg version="1.0" id="Layer_1" xmlns="http://www.w3.org/2000/svg" xmlns:xlink="http://www.w3.org/1999/xlink" x="0px" y="0px"
	 viewBox="0 0 52.4 93.2" style="enable-background:new 0 0 52.4 93.2;" xml:space="preserve">
<style type="text/css">
	.st0{enable-background:new    ;}
	.st1{fill:#B56A94;}
</style>
<title>Asset 6</title>
<g id="Layer_2_1_">
	<g id="Layer_1-2">
		<g class="st0">
			<path class="st1" d="M7.5,48.5c-0.3,0.4-0.7,0.8-1.2,1C5.8,49.8,5.2,50,4.5,50c-1.1,0-2-0.3-2.7-0.8s-1.1-1.3-1.2-2.3h2.5
				c0,0.4,0.2,0.7,0.4,0.9s0.5,0.3,0.9,0.3c0.3,0,0.6-0.1,0.7-0.3s0.3-0.4,0.3-0.7c0-0.3-0.1-0.5-0.2-0.6s-0.4-0.3-0.6-0.4
				s-0.6-0.2-1-0.4c-0.6-0.2-1.1-0.4-1.5-0.6c-0.4-0.2-0.7-0.5-1-0.9c-0.3-0.4-0.4-0.9-0.4-1.5c0-0.6,0.1-1.1,0.4-1.5
				c0.3-0.4,0.7-0.8,1.2-1c0.5-0.2,1.1-0.3,1.8-0.3c1.1,0,2,0.3,2.6,0.8c0.6,0.5,1,1.2,1.1,2.2H5.2c0-0.3-0.2-0.6-0.4-0.8
				c-0.2-0.2-0.5-0.3-0.8-0.3c-0.3,0-0.5,0.1-0.7,0.2c-0.2,0.1-0.3,0.4-0.3,0.7c0,0.2,0.1,0.4,0.2,0.6c0.2,0.2,0.3,0.3,0.6,0.4
				s0.6,0.2,1,0.4c0.6,0.2,1.2,0.4,1.6,0.6c0.4,0.2,0.7,0.5,1,0.9c0.3,0.4,0.4,0.9,0.4,1.6C7.9,47.6,7.8,48.1,7.5,48.5z"/>
			<path class="st1" d="M16.9,40.9c0.8,0.7,1.4,1.6,1.6,2.7H16c-0.2-0.5-0.5-0.8-0.9-1.1c-0.4-0.3-0.8-0.4-1.4-0.4
				c-0.7,0-1.3,0.3-1.7,0.8c-0.4,0.5-0.6,1.2-0.6,2.1s0.2,1.5,0.6,2.1s1,0.8,1.7,0.8c0.5,0,1-0.1,1.4-0.4c0.4-0.3,0.7-0.6,0.9-1.1
				h2.5c-0.2,1.1-0.8,2-1.6,2.7s-1.9,1-3.1,1c-1,0-1.8-0.2-2.5-0.6s-1.3-1-1.7-1.8C9.2,46.8,9,45.9,9,44.9c0-1,0.2-1.9,0.6-2.6
				c0.4-0.8,1-1.4,1.7-1.8c0.7-0.4,1.6-0.6,2.5-0.6C15,39.9,16.1,40.2,16.9,40.9z"/>
			<path class="st1" d="M24.9,49.9l-2.1-3.7h-0.5v3.7h-2.4V40H24c0.8,0,1.4,0.1,2,0.4c0.5,0.3,0.9,0.6,1.2,1.1
				c0.3,0.5,0.4,1,0.4,1.6c0,0.7-0.2,1.3-0.6,1.8c-0.4,0.5-1,0.8-1.7,1l2.4,3.9H24.9z M22.3,44.5h1.5c0.5,0,0.8-0.1,1-0.3
				s0.3-0.5,0.3-0.9c0-0.4-0.1-0.7-0.3-0.9c-0.2-0.2-0.6-0.3-1-0.3h-1.5V44.5z"/>
			<path class="st1" d="M36,40.5c0.8,0.4,1.4,1,1.8,1.8c0.4,0.8,0.7,1.6,0.7,2.6s-0.2,1.8-0.7,2.6c-0.4,0.8-1,1.4-1.8,1.8
				c-0.8,0.4-1.6,0.7-2.5,0.7c-0.9,0-1.8-0.2-2.5-0.7c-0.8-0.4-1.4-1-1.8-1.8c-0.4-0.8-0.7-1.6-0.7-2.6s0.2-1.8,0.7-2.6
				c0.4-0.8,1-1.4,1.8-1.8c0.8-0.4,1.6-0.7,2.5-0.7C34.4,39.8,35.3,40,36,40.5z M31.6,42.8c-0.5,0.5-0.7,1.2-0.7,2.1
				c0,0.9,0.2,1.6,0.7,2.1c0.5,0.5,1.1,0.8,1.9,0.8c0.8,0,1.4-0.3,1.9-0.8c0.5-0.5,0.7-1.2,0.7-2.1c0-0.9-0.2-1.6-0.7-2.1
				c-0.5-0.5-1.1-0.8-1.9-0.8C32.7,42.1,32.1,42.3,31.6,42.8z"/>
			<path class="st1" d="M42.2,48h3.2v1.8h-5.6V40h2.4V48z"/>
			<path class="st1" d="M48.9,48h3.2v1.8h-5.6V40h2.4V48z"/>
		</g>
		<polygon class="st1" points="41.1,14.7 27.7,1.4 14.4,14.7 13.7,14 27.7,0 41.8,14 		"/>
		<polygon class="st1" points="27.7,93.2 13.7,79.2 14.4,78.4 27.7,91.8 41.1,78.4 41.8,79.2 		"/>
		<polygon class="st1" points="27.2,92.5 18.2,83.5 36.2,83.5 		"/>
	</g>
</g>
</svg>
