<?xml version="1.0" encoding="utf-8"?>
<!-- Generator: Adobe Illustrator 22.1.0, SVG Export Plug-In . SVG Version: 6.00 Build 0)  -->
<svg version="1.0" id="Layer_1" xmlns="http://www.w3.org/2000/svg" xmlns:xlink="http://www.w3.org/1999/xlink" x="0px" y="0px"
	 viewBox="0 0 1100 320" style="enable-background:new 0 0 1100 320;" xml:space="preserve">
<style type="text/css">
	.st0{fill:#B56A94;}
	.st1{enable-background:new    ;}
	.st2{fill:#FFFFFF;}
	.st3{fill:#B3B3B3;}
</style>
<title>Asset 15</title>
<g>
	<g id="Layer_2_1_">
		<g id="Layer_1-2">
			
				<rect x="61" y="60.5" transform="matrix(0.7071 -0.7071 0.7071 0.7071 -62.2571 150.9475)" class="st0" width="180.2" height="180.2"/>
			<g class="st1">
				<path class="st2" d="M113.2,188.6v2.2h3.5v1.9h-3.5v2.3h4v2h-6.5v-10.4h6.5v2H113.2z"/>
				<path class="st2" d="M125.6,195.6c-0.3,0.5-0.7,0.8-1.2,1.1c-0.5,0.3-1.2,0.4-2,0.4c-1.2,0-2.1-0.3-2.9-0.9
					c-0.8-0.6-1.2-1.4-1.2-2.4h2.7c0,0.4,0.2,0.7,0.4,0.9c0.2,0.2,0.5,0.3,0.9,0.3c0.3,0,0.6-0.1,0.8-0.3s0.3-0.4,0.3-0.7
					c0-0.3-0.1-0.5-0.3-0.7c-0.2-0.2-0.4-0.3-0.6-0.4s-0.6-0.2-1.1-0.4c-0.7-0.2-1.2-0.4-1.6-0.7c-0.4-0.2-0.8-0.5-1.1-0.9
					s-0.4-1-0.4-1.6c0-0.6,0.2-1.2,0.5-1.6c0.3-0.5,0.7-0.8,1.3-1s1.2-0.4,1.9-0.4c1.2,0,2.1,0.3,2.8,0.8c0.7,0.5,1.1,1.3,1.2,2.3
					h-2.7c0-0.3-0.2-0.6-0.4-0.8s-0.5-0.3-0.8-0.3c-0.3,0-0.5,0.1-0.7,0.2c-0.2,0.2-0.3,0.4-0.3,0.7c0,0.2,0.1,0.5,0.2,0.6
					c0.2,0.2,0.4,0.3,0.6,0.4c0.2,0.1,0.6,0.2,1.1,0.4c0.7,0.2,1.2,0.4,1.6,0.7c0.4,0.2,0.8,0.5,1.1,1c0.3,0.4,0.5,1,0.5,1.6
					C126.1,194.7,125.9,195.2,125.6,195.6z"/>
				<path class="st2" d="M134.9,186.6v2h-2.8v8.4h-2.5v-8.4h-2.8v-2H134.9z"/>
				<path class="st2" d="M138.4,186.6v6c0,0.7,0.2,1.2,0.5,1.6s0.8,0.5,1.3,0.5s1-0.2,1.3-0.5s0.5-0.9,0.5-1.6v-6h2.5v6
					c0,1-0.2,1.8-0.6,2.5c-0.4,0.7-0.9,1.2-1.6,1.5c-0.7,0.3-1.4,0.5-2.2,0.5s-1.6-0.2-2.2-0.5c-0.6-0.3-1.1-0.8-1.5-1.5
					c-0.4-0.7-0.5-1.5-0.5-2.5v-6H138.4z"/>
				<path class="st2" d="M155,194.5c-0.4,0.8-1.1,1.4-1.9,1.8c-0.8,0.4-1.8,0.7-2.9,0.7h-3.9v-10.4h3.9c1.1,0,2.1,0.2,2.9,0.6
					c0.8,0.4,1.4,1,1.9,1.8s0.7,1.7,0.7,2.7S155.4,193.7,155,194.5z M152.2,194c0.5-0.5,0.8-1.3,0.8-2.2s-0.3-1.7-0.8-2.2
					c-0.5-0.5-1.3-0.8-2.3-0.8h-1.2v5.9h1.2C150.9,194.8,151.7,194.5,152.2,194z"/>
				<path class="st2" d="M159.6,186.6V197H157v-10.4H159.6z"/>
				<path class="st2" d="M168.9,187.1c0.8,0.5,1.4,1.1,1.9,1.9s0.7,1.7,0.7,2.7s-0.2,1.9-0.7,2.8s-1.1,1.4-1.9,1.9
					c-0.8,0.5-1.7,0.7-2.7,0.7s-1.9-0.2-2.7-0.7c-0.8-0.5-1.4-1.1-1.9-1.9c-0.5-0.8-0.7-1.7-0.7-2.8s0.2-1.9,0.7-2.7
					c0.5-0.8,1.1-1.4,1.9-1.9c0.8-0.5,1.7-0.7,2.7-0.7C167.2,186.5,168.1,186.7,168.9,187.1z M164.3,189.6c-0.5,0.5-0.7,1.3-0.7,2.2
					c0,0.9,0.2,1.6,0.7,2.2s1.1,0.8,2,0.8c0.8,0,1.5-0.3,2-0.8s0.7-1.3,0.7-2.2c0-0.9-0.2-1.6-0.7-2.2c-0.5-0.5-1.1-0.8-2-0.8
					S164.8,189.1,164.3,189.6z"/>
				<path class="st2" d="M184.6,194.5c-0.4,0.8-1.1,1.4-1.9,1.8c-0.8,0.4-1.8,0.7-2.9,0.7h-3.9v-10.4h3.9c1.1,0,2.1,0.2,2.9,0.6
					c0.8,0.4,1.4,1,1.9,1.8s0.7,1.7,0.7,2.7S185,193.7,184.6,194.5z M181.8,194c0.5-0.5,0.8-1.3,0.8-2.2s-0.3-1.7-0.8-2.2
					c-0.5-0.5-1.3-0.8-2.3-0.8h-1.2v5.9h1.2C180.5,194.8,181.3,194.5,181.8,194z"/>
				<path class="st2" d="M189.2,188.6v2.2h3.5v1.9h-3.5v2.3h4v2h-6.5v-10.4h6.5v2H189.2z"/>
			</g>
			<g class="st1">
				<path class="st2" d="M119,208.5v2.2h3.5v1.9H119v2.3h4v2h-6.5v-10.4h6.5v2H119z"/>
				<path class="st2" d="M131.4,215.4c-0.3,0.5-0.7,0.8-1.2,1.1c-0.5,0.3-1.2,0.4-2,0.4c-1.2,0-2.1-0.3-2.9-0.9
					c-0.8-0.6-1.2-1.4-1.2-2.4h2.7c0,0.4,0.2,0.7,0.4,0.9c0.2,0.2,0.5,0.3,0.9,0.3c0.3,0,0.6-0.1,0.8-0.3s0.3-0.4,0.3-0.7
					c0-0.3-0.1-0.5-0.3-0.7c-0.2-0.2-0.4-0.3-0.6-0.4s-0.6-0.2-1.1-0.4c-0.7-0.2-1.2-0.4-1.6-0.7c-0.4-0.2-0.8-0.5-1.1-0.9
					s-0.4-1-0.4-1.6c0-0.6,0.2-1.2,0.5-1.6c0.3-0.5,0.7-0.8,1.3-1s1.2-0.4,1.9-0.4c1.2,0,2.1,0.3,2.8,0.8c0.7,0.5,1.1,1.3,1.2,2.3
					h-2.7c0-0.3-0.2-0.6-0.4-0.8s-0.5-0.3-0.8-0.3c-0.3,0-0.5,0.1-0.7,0.2c-0.2,0.2-0.3,0.4-0.3,0.7c0,0.2,0.1,0.5,0.2,0.6
					c0.2,0.2,0.4,0.3,0.6,0.4c0.2,0.1,0.6,0.2,1.1,0.4c0.7,0.2,1.2,0.4,1.6,0.7c0.4,0.2,0.8,0.5,1.1,1c0.3,0.4,0.5,1,0.5,1.6
					C131.8,214.5,131.7,215,131.4,215.4z"/>
				<path class="st2" d="M135.7,213.2v3.7h-2.5v-10.4h4.1c1.2,0,2.2,0.3,2.8,0.9c0.6,0.6,1,1.4,1,2.5c0,0.6-0.1,1.2-0.4,1.7
					c-0.3,0.5-0.7,0.9-1.3,1.2c-0.6,0.3-1.3,0.4-2.1,0.4H135.7z M138.5,209.9c0-0.9-0.5-1.4-1.5-1.4h-1.3v2.7h1.3
					C138,211.2,138.5,210.7,138.5,209.9z"/>
				<path class="st2" d="M148.8,215h-3.9l-0.6,1.9h-2.6l3.8-10.3h2.9l3.8,10.3h-2.7L148.8,215z M148.1,213l-1.3-3.8l-1.3,3.8H148.1z
					"/>
				<path class="st2" d="M161.1,207.4c0.9,0.7,1.4,1.6,1.7,2.8h-2.7c-0.2-0.5-0.5-0.9-0.9-1.1c-0.4-0.3-0.9-0.4-1.4-0.4
					c-0.7,0-1.3,0.3-1.8,0.8c-0.5,0.5-0.7,1.3-0.7,2.2c0,0.9,0.2,1.6,0.7,2.2c0.5,0.5,1,0.8,1.8,0.8c0.6,0,1-0.1,1.4-0.4
					s0.7-0.6,0.9-1.1h2.7c-0.3,1.2-0.8,2.1-1.7,2.8c-0.9,0.7-2,1.1-3.3,1.1c-1,0-1.9-0.2-2.7-0.7c-0.8-0.4-1.4-1.1-1.8-1.9
					c-0.4-0.8-0.6-1.7-0.6-2.8s0.2-1.9,0.6-2.8c0.4-0.8,1-1.4,1.8-1.9c0.8-0.4,1.7-0.7,2.7-0.7C159.2,206.4,160.3,206.7,161.1,207.4
					z"/>
				<path class="st2" d="M166.7,206.5v10.4h-2.5v-10.4H166.7z"/>
				<path class="st2" d="M176.1,207c0.8,0.5,1.4,1.1,1.9,1.9s0.7,1.7,0.7,2.7s-0.2,1.9-0.7,2.8s-1.1,1.4-1.9,1.9
					c-0.8,0.5-1.7,0.7-2.7,0.7s-1.9-0.2-2.7-0.7c-0.8-0.5-1.4-1.1-1.9-1.9c-0.5-0.8-0.7-1.7-0.7-2.8s0.2-1.9,0.7-2.7
					c0.5-0.8,1.1-1.4,1.9-1.9c0.8-0.5,1.7-0.7,2.7-0.7C174.4,206.3,175.3,206.5,176.1,207z M171.5,209.4c-0.5,0.5-0.7,1.3-0.7,2.2
					c0,0.9,0.2,1.6,0.7,2.2s1.1,0.8,2,0.8c0.8,0,1.5-0.3,2-0.8s0.7-1.3,0.7-2.2c0-0.9-0.2-1.6-0.7-2.2c-0.5-0.5-1.1-0.8-2-0.8
					S171.9,208.9,171.5,209.4z"/>
				<path class="st2" d="M187.2,215.4c-0.3,0.5-0.7,0.8-1.2,1.1c-0.5,0.3-1.2,0.4-2,0.4c-1.2,0-2.1-0.3-2.9-0.9
					c-0.8-0.6-1.2-1.4-1.2-2.4h2.7c0,0.4,0.2,0.7,0.4,0.9c0.2,0.2,0.5,0.3,0.9,0.3c0.3,0,0.6-0.1,0.8-0.3s0.3-0.4,0.3-0.7
					c0-0.3-0.1-0.5-0.3-0.7c-0.2-0.2-0.4-0.3-0.6-0.4s-0.6-0.2-1.1-0.4c-0.7-0.2-1.2-0.4-1.6-0.7c-0.4-0.2-0.8-0.5-1.1-0.9
					s-0.4-1-0.4-1.6c0-0.6,0.2-1.2,0.5-1.6c0.3-0.5,0.7-0.8,1.3-1s1.2-0.4,1.9-0.4c1.2,0,2.1,0.3,2.8,0.8c0.7,0.5,1.1,1.3,1.2,2.3
					h-2.7c0-0.3-0.2-0.6-0.4-0.8s-0.5-0.3-0.8-0.3c-0.3,0-0.5,0.1-0.7,0.2c-0.2,0.2-0.3,0.4-0.3,0.7c0,0.2,0.1,0.5,0.2,0.6
					c0.2,0.2,0.4,0.3,0.6,0.4c0.2,0.1,0.6,0.2,1.1,0.4c0.7,0.2,1.2,0.4,1.6,0.7c0.4,0.2,0.8,0.5,1.1,1c0.3,0.4,0.5,1,0.5,1.6
					C187.6,214.5,187.4,215,187.2,215.4z"/>
			</g>
			<path class="st2" d="M150.5,174l-50.1-16.7l11.6-1.8l0.1,0l39.9,10l37.9-10.2l12.1,1.6L150.5,174z M104.6,157.7l45.9,15.3
				l47.1-15.6l-7.6-1l-38,10.2l-40-10L104.6,157.7z"/>
			<rect x="115.5" y="108" class="st2" width="1" height="49"/>
			<polygon class="st2" points="136,162 135,162 135,105 115.6,109 115.4,108 136,103.8 			"/>
			<polygon class="st2" points="122.4,107.2 121.4,107.2 121.4,103.5 131,100.2 131,105 130,105 130,101.6 122.4,104.2 			"/>
			<polygon class="st2" points="141.5,105 140.5,105 140.5,102.4 130.4,101 130.6,100 141.5,101.6 			"/>
			<polygon class="st2" points="148,125 147,125 147,106.9 135.4,105 135.6,104 148,106.1 			"/>
			<polygon class="st2" points="161.5,127 160.5,127 160.5,125.5 141.5,125.5 141.5,127 140.5,127 140.5,124.5 161.5,124.5 			"/>
			<polygon class="st2" points="164.5,163 163.5,163 163.5,127.5 139.5,127.5 139.5,163 138.5,163 138.5,126.5 164.5,126.5 			"/>
			<rect x="151" y="126.5" class="st2" width="1" height="39"/>
			<polygon class="st2" points="151.5,125 150.5,125 150.5,89.6 142.5,91.4 142.5,106 141.5,106 141.5,90.6 151.5,88.4 			"/>
			<polygon class="st2" points="145,90.5 144,90.5 144,87.1 151,84.8 151,89.2 150,89.2 150,86.2 145,87.9 			"/>
			<polygon class="st2" points="159,90.5 158,90.5 158,87.9 150.4,86 150.6,85 159,87.1 			"/>
			<polygon class="st2" points="161,111.5 160,111.5 160,90.9 150.4,89 150.6,88 161,90.1 			"/>
			<polygon class="st2" points="167,162 166,162 166,112 154.8,113 154.8,124.9 153.8,124.9 153.8,112 167,111 			"/>
			<polygon class="st2" points="186,157 185,157 185,115.9 166.4,112 166.6,111 186,115.1 			"/>
			<polygon class="st2" points="180,114.2 179,114.2 179,111.9 170.4,109 162.3,109.9 162.3,111.8 161.3,111.8 161.3,109.1 
				170.6,108 180,111.1 			"/>
			<rect x="170" y="108.5" class="st2" width="1" height="3.8"/>
			<g>
				<path class="st3" d="M220.8,282.9c0-2,0.4-3.6,1.2-4.7c0.8-1.2,2.1-1.7,3.9-1.7c1.8,0,3,0.6,3.9,1.7c0.8,1.2,1.2,2.7,1.2,4.7
					c0,2-0.4,3.6-1.2,4.8c-0.8,1.2-2.1,1.8-3.9,1.8c-1.8,0-3.1-0.6-3.9-1.8C221.2,286.5,220.8,284.9,220.8,282.9z M227.9,282.9
					c0-1.1-0.1-2-0.4-2.6c-0.3-0.6-0.8-0.9-1.6-0.9c-0.8,0-1.3,0.3-1.6,0.9c-0.3,0.6-0.4,1.5-0.4,2.6c0,1.1,0.1,2,0.4,2.6
					c0.3,0.6,0.8,0.9,1.6,0.9c0.8,0,1.3-0.3,1.6-0.9C227.8,284.9,227.9,284,227.9,282.9z"/>
				<path class="st3" d="M231.9,279.5v-2.9h5.2v12.8h-3.3v-9.9H231.9z"/>
				<path class="st3" d="M241.9,286.3v3.1h-3.2v-3.1H241.9z"/>
			</g>
			<rect x="150.6" y="288.6" class="st3" width="58.9" height="1"/>
			
				<rect x="452.9" y="62.3" transform="matrix(0.7071 -0.7071 0.7071 0.7071 51.2936 428.5936)" class="st0" width="180.2" height="180.2"/>
			<g class="st1">
				<path class="st2" d="M490.6,188.4l2.5,7.8l2.5-7.8h2.7l-3.6,10.4h-3.3l-3.6-10.4H490.6z"/>
				<path class="st2" d="M501.9,188.4v10.4h-2.5v-10.4H501.9z"/>
				<path class="st2" d="M510.7,197.4c-0.3,0.5-0.7,0.8-1.2,1.1c-0.5,0.3-1.2,0.4-2,0.4c-1.2,0-2.1-0.3-2.9-0.9
					c-0.8-0.6-1.2-1.4-1.2-2.4h2.7c0,0.4,0.2,0.7,0.4,0.9c0.2,0.2,0.5,0.3,0.9,0.3c0.3,0,0.6-0.1,0.8-0.3s0.3-0.4,0.3-0.7
					c0-0.3-0.1-0.5-0.3-0.7c-0.2-0.2-0.4-0.3-0.6-0.4s-0.6-0.2-1.1-0.4c-0.7-0.2-1.2-0.4-1.6-0.7c-0.4-0.2-0.8-0.5-1.1-0.9
					s-0.4-1-0.4-1.6c0-0.6,0.2-1.2,0.5-1.6c0.3-0.5,0.7-0.8,1.3-1s1.2-0.4,1.9-0.4c1.2,0,2.1,0.3,2.8,0.8c0.7,0.5,1.1,1.3,1.2,2.3
					h-2.7c0-0.3-0.2-0.6-0.4-0.8s-0.5-0.3-0.8-0.3c-0.3,0-0.5,0.1-0.7,0.2c-0.2,0.2-0.3,0.4-0.3,0.7c0,0.2,0.1,0.5,0.2,0.6
					c0.2,0.2,0.4,0.3,0.6,0.4c0.2,0.1,0.6,0.2,1.1,0.4c0.7,0.2,1.2,0.4,1.6,0.7c0.4,0.2,0.8,0.5,1.1,1c0.3,0.4,0.5,1,0.5,1.6
					C511.1,196.4,511,196.9,510.7,197.4z"/>
				<path class="st2" d="M514.9,188.4v6c0,0.7,0.2,1.2,0.5,1.6s0.8,0.5,1.3,0.5s1-0.2,1.3-0.5s0.5-0.9,0.5-1.6v-6h2.5v6
					c0,1-0.2,1.8-0.6,2.5c-0.4,0.7-0.9,1.2-1.6,1.5c-0.7,0.3-1.4,0.5-2.2,0.5s-1.6-0.2-2.2-0.5c-0.6-0.3-1.1-0.8-1.5-1.5
					c-0.4-0.7-0.5-1.5-0.5-2.5v-6H514.9z"/>
				<path class="st2" d="M529.2,196.9h-3.9l-0.6,1.9H522l3.8-10.3h2.9l3.8,10.3h-2.7L529.2,196.9z M528.6,195l-1.3-3.8L526,195
					H528.6z"/>
				<path class="st2" d="M536,196.9h3.4v1.9h-5.9v-10.4h2.5V196.9z"/>
				<path class="st2" d="M543.1,188.4v10.4h-2.5v-10.4H543.1z"/>
				<path class="st2" d="M547.4,196.8h4.6v2h-7.4v-1.9l4.5-6.5h-4.5v-2h7.3v1.9L547.4,196.8z"/>
				<path class="st2" d="M560,196.9h-3.9l-0.6,1.9h-2.6l3.8-10.3h2.9l3.8,10.3h-2.7L560,196.9z M559.3,195l-1.3-3.8l-1.3,3.8H559.3z
					"/>
				<path class="st2" d="M572.3,189.3c0.9,0.7,1.4,1.6,1.7,2.8h-2.7c-0.2-0.5-0.5-0.9-0.9-1.1c-0.4-0.3-0.9-0.4-1.4-0.4
					c-0.7,0-1.3,0.3-1.8,0.8c-0.5,0.5-0.7,1.3-0.7,2.2c0,0.9,0.2,1.6,0.7,2.2c0.5,0.5,1,0.8,1.8,0.8c0.6,0,1-0.1,1.4-0.4
					s0.7-0.6,0.9-1.1h2.7c-0.3,1.2-0.8,2.1-1.7,2.8c-0.9,0.7-2,1.1-3.3,1.1c-1,0-1.9-0.2-2.7-0.7c-0.8-0.4-1.4-1.1-1.8-1.9
					s-0.6-1.7-0.6-2.8s0.2-1.9,0.6-2.8c0.4-0.8,1-1.4,1.8-1.9c0.8-0.4,1.7-0.7,2.7-0.7C570.4,188.3,571.5,188.6,572.3,189.3z"/>
				<path class="st2" d="M577.9,188.4v10.4h-2.5v-10.4H577.9z"/>
				<path class="st2" d="M587.3,188.9c0.8,0.5,1.4,1.1,1.9,1.9c0.5,0.8,0.7,1.7,0.7,2.7s-0.2,1.9-0.7,2.8c-0.5,0.8-1.1,1.4-1.9,1.9
					c-0.8,0.5-1.7,0.7-2.7,0.7s-1.9-0.2-2.7-0.7c-0.8-0.5-1.4-1.1-1.9-1.9c-0.5-0.8-0.7-1.7-0.7-2.8s0.2-1.9,0.7-2.7
					c0.5-0.8,1.1-1.4,1.9-1.9c0.8-0.5,1.7-0.7,2.7-0.7C585.6,188.2,586.5,188.4,587.3,188.9z M582.7,191.4c-0.5,0.5-0.7,1.3-0.7,2.2
					c0,0.9,0.2,1.6,0.7,2.2c0.5,0.5,1.1,0.8,2,0.8c0.8,0,1.5-0.3,2-0.8c0.5-0.5,0.7-1.3,0.7-2.2c0-0.9-0.2-1.6-0.7-2.2
					c-0.5-0.5-1.1-0.8-2-0.8S583.1,190.8,582.7,191.4z M586.7,186.3l-3.5,1.5v-1.7l3.5-1.7V186.3z"/>
				<path class="st2" d="M600.5,198.8H598l-4.2-6.4v6.4h-2.5v-10.4h2.5l4.2,6.4v-6.4h2.5V198.8z"/>
			</g>
			<g>
				<path class="st3" d="M612.7,284.7c0-2,0.4-3.6,1.2-4.7c0.8-1.2,2.1-1.7,3.9-1.7c1.8,0,3,0.6,3.9,1.7c0.8,1.2,1.2,2.7,1.2,4.7
					c0,2-0.4,3.6-1.2,4.8c-0.8,1.2-2.1,1.8-3.9,1.8c-1.8,0-3.1-0.6-3.9-1.8C613.1,288.3,612.7,286.7,612.7,284.7z M619.8,284.7
					c0-1.1-0.1-2-0.4-2.6s-0.8-0.9-1.6-0.9c-0.8,0-1.3,0.3-1.6,0.9c-0.3,0.6-0.4,1.5-0.4,2.6c0,1.1,0.1,2,0.4,2.6
					c0.3,0.6,0.8,0.9,1.6,0.9c0.8,0,1.3-0.3,1.6-0.9S619.8,285.8,619.8,284.7z"/>
				<path class="st3" d="M630,282.2c0-1-0.4-1.5-1.3-1.5c-0.5,0-0.8,0.2-1.1,0.5c-0.2,0.3-0.3,0.9-0.4,1.6h-3
					c0.1-1.6,0.5-2.7,1.4-3.5c0.9-0.8,2-1.2,3.3-1.2c1.4,0,2.4,0.3,3.1,1c0.7,0.7,1.1,1.6,1.1,2.7c0,1.2-0.5,2.5-1.4,3.6
					c-1,1.2-2.1,2.2-3.4,3h5v2.5h-9.1v-2.3C628.1,286,630,283.8,630,282.2z"/>
				<path class="st3" d="M637.6,288.1v3.1h-3.2v-3.1H637.6z"/>
			</g>
			<rect x="542.5" y="290.4" class="st3" width="58.9" height="1"/>
			
				<rect x="844.8" y="64.7" transform="matrix(0.7071 -0.7071 0.7071 0.7071 164.3255 706.4396)" class="st0" width="180.3" height="180.2"/>
			<g class="st1">
				<path class="st2" d="M884.8,191.8c0.9,0.7,1.4,1.6,1.7,2.8h-2.7c-0.2-0.5-0.5-0.9-0.9-1.1s-0.9-0.4-1.5-0.4
					c-0.7,0-1.3,0.3-1.8,0.8c-0.5,0.5-0.7,1.3-0.7,2.2c0,0.9,0.2,1.6,0.7,2.2c0.5,0.5,1,0.8,1.8,0.8c0.6,0,1-0.1,1.5-0.4
					c0.4-0.3,0.7-0.6,0.9-1.1h2.7c-0.3,1.2-0.8,2.1-1.7,2.8c-0.9,0.7-2,1.1-3.3,1.1c-1,0-1.9-0.2-2.7-0.7c-0.8-0.4-1.4-1.1-1.8-1.9
					c-0.4-0.8-0.6-1.7-0.6-2.8c0-1,0.2-1.9,0.6-2.8c0.4-0.8,1-1.4,1.8-1.9s1.7-0.7,2.7-0.7C882.8,190.8,883.9,191.1,884.8,191.8z"/>
				<path class="st2" d="M895.5,191.4c0.8,0.5,1.4,1.1,1.9,1.9c0.5,0.8,0.7,1.7,0.7,2.7c0,1-0.2,1.9-0.7,2.8
					c-0.5,0.8-1.1,1.4-1.9,1.9c-0.8,0.5-1.7,0.7-2.7,0.7s-1.9-0.2-2.7-0.7c-0.8-0.5-1.4-1.1-1.9-1.9c-0.5-0.8-0.7-1.7-0.7-2.8
					c0-1,0.2-1.9,0.7-2.7c0.5-0.8,1.1-1.4,1.9-1.9c0.8-0.5,1.7-0.7,2.7-0.7C893.8,190.7,894.7,190.9,895.5,191.4z M890.9,193.8
					c-0.5,0.5-0.7,1.3-0.7,2.2c0,0.9,0.2,1.6,0.7,2.2c0.5,0.5,1.1,0.8,2,0.8c0.8,0,1.5-0.3,2-0.8c0.5-0.5,0.7-1.3,0.7-2.2
					s-0.2-1.6-0.7-2.2s-1.1-0.8-2-0.8S891.4,193.3,890.9,193.8z"/>
				<path class="st2" d="M908.8,201.3h-2.5l-4.2-6.4v6.4h-2.5v-10.4h2.5l4.2,6.4v-6.4h2.5V201.3z"/>
				<path class="st2" d="M917.5,199.9c-0.3,0.5-0.7,0.8-1.2,1.1c-0.5,0.3-1.2,0.4-2,0.4c-1.2,0-2.1-0.3-2.9-0.9s-1.2-1.4-1.2-2.4
					h2.7c0,0.4,0.2,0.7,0.4,0.9c0.2,0.2,0.5,0.3,0.9,0.3c0.3,0,0.6-0.1,0.8-0.3c0.2-0.2,0.3-0.4,0.3-0.7c0-0.3-0.1-0.5-0.3-0.7
					c-0.2-0.2-0.4-0.3-0.6-0.4c-0.3-0.1-0.6-0.2-1.1-0.4c-0.7-0.2-1.2-0.4-1.6-0.7c-0.4-0.2-0.8-0.5-1.1-0.9c-0.3-0.4-0.4-1-0.4-1.6
					c0-0.6,0.2-1.2,0.5-1.6c0.3-0.5,0.7-0.8,1.3-1c0.6-0.2,1.2-0.4,1.9-0.4c1.2,0,2.1,0.3,2.8,0.8s1.1,1.3,1.2,2.3H915
					c0-0.3-0.2-0.6-0.4-0.8s-0.5-0.3-0.8-0.3c-0.3,0-0.5,0.1-0.7,0.2c-0.2,0.2-0.3,0.4-0.3,0.7c0,0.2,0.1,0.5,0.2,0.6
					c0.2,0.2,0.4,0.3,0.6,0.4s0.6,0.2,1.1,0.4c0.7,0.2,1.2,0.4,1.6,0.7c0.4,0.2,0.8,0.5,1.1,1c0.3,0.4,0.5,1,0.5,1.6
					C918,198.9,917.8,199.4,917.5,199.9z"/>
				<path class="st2" d="M926.8,190.9v2H924v8.4h-2.5v-8.4h-2.8v-2H926.8z"/>
				<path class="st2" d="M933.2,201.3l-2.3-3.9h-0.6v3.9h-2.5v-10.4h4.3c0.8,0,1.5,0.1,2.1,0.4c0.6,0.3,1,0.7,1.3,1.2
					c0.3,0.5,0.4,1.1,0.4,1.7c0,0.8-0.2,1.4-0.6,1.9c-0.4,0.5-1,0.9-1.8,1.1l2.5,4.1H933.2z M930.4,195.6h1.6c0.5,0,0.9-0.1,1.1-0.3
					c0.2-0.2,0.4-0.5,0.4-1c0-0.4-0.1-0.7-0.4-1c-0.2-0.2-0.6-0.4-1.1-0.4h-1.6V195.6z"/>
				<path class="st2" d="M939.7,190.9v6c0,0.7,0.2,1.2,0.5,1.6c0.3,0.4,0.8,0.5,1.3,0.5s1-0.2,1.3-0.5c0.3-0.4,0.5-0.9,0.5-1.6v-6
					h2.5v6c0,1-0.2,1.8-0.6,2.5c-0.4,0.7-0.9,1.2-1.6,1.5s-1.4,0.5-2.2,0.5s-1.6-0.2-2.2-0.5c-0.6-0.3-1.1-0.8-1.5-1.5
					c-0.4-0.7-0.5-1.5-0.5-2.5v-6H939.7z"/>
				<path class="st2" d="M955.6,191.8c0.9,0.7,1.4,1.6,1.7,2.8h-2.7c-0.2-0.5-0.5-0.9-0.9-1.1s-0.9-0.4-1.5-0.4
					c-0.7,0-1.3,0.3-1.8,0.8c-0.5,0.5-0.7,1.3-0.7,2.2c0,0.9,0.2,1.6,0.7,2.2c0.5,0.5,1,0.8,1.8,0.8c0.6,0,1-0.1,1.5-0.4
					c0.4-0.3,0.7-0.6,0.9-1.1h2.7c-0.3,1.2-0.8,2.1-1.7,2.8c-0.9,0.7-2,1.1-3.3,1.1c-1,0-1.9-0.2-2.7-0.7c-0.8-0.4-1.4-1.1-1.8-1.9
					c-0.4-0.8-0.6-1.7-0.6-2.8c0-1,0.2-1.9,0.6-2.8c0.4-0.8,1-1.4,1.8-1.9s1.7-0.7,2.7-0.7C953.6,190.8,954.7,191.1,955.6,191.8z"/>
				<path class="st2" d="M966.7,191.8c0.9,0.7,1.4,1.6,1.7,2.8h-2.7c-0.2-0.5-0.5-0.9-0.9-1.1s-0.9-0.4-1.4-0.4
					c-0.7,0-1.3,0.3-1.8,0.8c-0.5,0.5-0.7,1.3-0.7,2.2c0,0.9,0.2,1.6,0.7,2.2c0.5,0.5,1,0.8,1.8,0.8c0.6,0,1-0.1,1.4-0.4
					c0.4-0.3,0.7-0.6,0.9-1.1h2.7c-0.3,1.2-0.8,2.1-1.7,2.8c-0.9,0.7-2,1.1-3.3,1.1c-1,0-1.9-0.2-2.7-0.7c-0.8-0.4-1.4-1.1-1.8-1.9
					s-0.6-1.7-0.6-2.8c0-1,0.2-1.9,0.6-2.8s1-1.4,1.8-1.9c0.8-0.4,1.7-0.7,2.7-0.7C964.7,190.8,965.8,191.1,966.7,191.8z"/>
				<path class="st2" d="M972.3,190.9v10.4h-2.5v-10.4H972.3z"/>
				<path class="st2" d="M981.7,191.4c0.8,0.5,1.4,1.1,1.9,1.9c0.5,0.8,0.7,1.7,0.7,2.7c0,1-0.2,1.9-0.7,2.8
					c-0.5,0.8-1.1,1.4-1.9,1.9c-0.8,0.5-1.7,0.7-2.7,0.7s-1.9-0.2-2.7-0.7c-0.8-0.5-1.4-1.1-1.9-1.9c-0.5-0.8-0.7-1.7-0.7-2.8
					c0-1,0.2-1.9,0.7-2.7c0.5-0.8,1.1-1.4,1.9-1.9c0.8-0.5,1.7-0.7,2.7-0.7C980,190.7,980.9,190.9,981.7,191.4z M977,193.8
					c-0.5,0.5-0.7,1.3-0.7,2.2c0,0.9,0.2,1.6,0.7,2.2c0.5,0.5,1.1,0.8,2,0.8c0.8,0,1.5-0.3,2-0.8c0.5-0.5,0.7-1.3,0.7-2.2
					s-0.2-1.6-0.7-2.2s-1.1-0.8-2-0.8S977.5,193.3,977,193.8z M981.1,188.8l-3.5,1.5v-1.7l3.5-1.7V188.8z"/>
				<path class="st2" d="M994.9,201.3h-2.5l-4.2-6.4v6.4h-2.5v-10.4h2.5l4.2,6.4v-6.4h2.5V201.3z"/>
			</g>
			<g>
				<path class="st3" d="M1004.6,287.1c0-2,0.4-3.6,1.2-4.7c0.8-1.2,2.1-1.7,3.9-1.7c1.8,0,3,0.6,3.9,1.7c0.8,1.2,1.2,2.7,1.2,4.7
					c0,2-0.4,3.6-1.2,4.8c-0.8,1.2-2.1,1.8-3.9,1.8c-1.8,0-3.1-0.6-3.9-1.8C1005.1,290.7,1004.6,289.1,1004.6,287.1z M1011.7,287.1
					c0-1.1-0.1-2-0.4-2.6c-0.3-0.6-0.8-0.9-1.6-0.9c-0.8,0-1.3,0.3-1.6,0.9c-0.3,0.6-0.4,1.5-0.4,2.6c0,1.1,0.1,2,0.4,2.6
					c0.3,0.6,0.8,0.9,1.6,0.9c0.8,0,1.3-0.3,1.6-0.9C1011.6,289.2,1011.7,288.3,1011.7,287.1z"/>
				<path class="st3" d="M1023.3,280.8c0.6,0.3,1.1,0.7,1.5,1.3c0.3,0.5,0.5,1.1,0.5,1.8c0,0.8-0.2,1.5-0.6,2s-1,0.8-1.6,1v0.1
					c1.7,0.5,2.5,1.6,2.5,3.1c0,0.7-0.2,1.4-0.5,2c-0.3,0.6-0.8,1-1.5,1.3c-0.6,0.3-1.4,0.5-2.3,0.5c-1.5,0-2.6-0.4-3.5-1.1
					s-1.3-1.8-1.4-3.3h3c0,0.6,0.2,1,0.5,1.3s0.7,0.5,1.3,0.5c0.4,0,0.8-0.1,1.1-0.4s0.4-0.6,0.4-1c0-1-0.8-1.6-2.3-1.6h-0.6v-2.5
					h0.6c1.4,0,2-0.5,2-1.5c0-0.4-0.1-0.8-0.4-1c-0.2-0.2-0.6-0.4-0.9-0.4c-0.4,0-0.8,0.1-1,0.4c-0.3,0.3-0.4,0.7-0.4,1.2h-3
					c0.1-1.3,0.5-2.4,1.3-3.1c0.8-0.7,1.9-1.1,3.3-1.1C1021.9,280.3,1022.6,280.5,1023.3,280.8z"/>
				<path class="st3" d="M1030.2,290.6v3.1h-3.2v-3.1H1030.2z"/>
			</g>
			<rect x="934.5" y="292.9" class="st3" width="58.8" height="1"/>
			<path class="st2" d="M544.5,173l-0.2-0.1l-54.1-22.5l52.8-21l54.8,22L544.5,173z M492.8,150.5l51.7,21.5l50.7-20.5l-52.2-21
				L492.8,150.5z"/>
			<polygon class="st2" points="596.5,152 595.5,152 595.5,117.3 543,95.5 491.5,116.3 491.5,151 490.5,151 490.5,115.7 
				490.8,115.5 543,94.5 596.5,116.7 			"/>
			<rect x="542" y="95" class="st2" width="1" height="21"/>
			<rect x="542.5" y="122" class="st2" width="1" height="8"/>
			<path class="st2" d="M575.5,137.7l-26-10.4v-21.1l26,10.4V137.7z M550.5,126.7l24,9.6v-18.9l-24-9.6V126.7z"/>
			<path class="st2" d="M496,143.2v-22.1l25-9.4v22.1L496,143.2z M497,121.8v19.9l23-8.6v-19.9L497,121.8z"/>
			<path class="st2" d="M525,121.2v-11.1l14-5.4v11.1L525,121.2z M526,110.8v8.9l12-4.6v-8.9L526,110.8z"/>
			<path class="st2" d="M525,133.2v-9.1l14-5.4v9.1L525,133.2z M526,124.8v6.9l12-4.6v-6.9L526,124.8z"/>
			<path class="st2" d="M591,143.2l-13-5.4v-20.1l13,5.4V143.2z M579,137.2l11,4.6v-17.9l-11-4.6V137.2z"/>
			<path class="st2" d="M543.5,158l-12.5-5.2v-9.7l13.5-5.2l11.5,4.2v10.7L543.5,158z M532,152.2l11.5,4.8l11.5-4.8v-9.3l-10.5-3.8
				l-12.5,4.8V152.2z"/>
			<polygon class="st2" points="543.5,148 531.3,144 531.7,143 543.5,147 555.3,142 555.7,143 			"/>
			<rect x="543" y="147.5" class="st2" width="1" height="10"/>
			<polygon class="st2" points="945,141 944,141 944,137.6 947,136.6 947,133.7 949,132.7 949,129.6 952,128.6 952,125.6 955,124.6 
				955,121.7 957,120.7 957,118.7 959,117.7 959,114.6 962,113.6 962,110.6 965,109.6 965,106.6 968.5,105.7 961.5,98.7 
				931.9,128.9 931.1,128.1 961.5,97.3 970.5,106.3 966,107.4 966,110.4 963,111.4 963,114.4 960,115.4 960,118.3 958,119.3 
				958,121.3 956,122.3 956,125.4 953,126.4 953,129.4 950,130.4 950,133.3 948,134.3 948,137.4 945,138.4 			"/>
			<path class="st2" d="M964.6,178.8c-0.8,0-1.6-0.3-2.2-0.9c-0.1-0.1-0.1-0.1-0.2-0.2l-23.6-27.9c-1.1-1.3-1-3.2,0.3-4.3l4-4
				c1.2-1.2,3-1.2,4.3-0.1l27.5,24c1.3,1.1,1.4,3.1,0.3,4.4c0,0-0.1,0.1-0.1,0.1l-8,8C966.2,178.5,965.4,178.8,964.6,178.8
				C964.6,178.8,964.6,178.8,964.6,178.8z M945.1,141.5c-0.5,0-1.1,0.2-1.5,0.6l-4,4c-0.8,0.8-0.9,2.1-0.2,3L963,177
				c0,0,0.1,0.1,0.1,0.1c0.4,0.4,0.9,0.6,1.5,0.6c0,0,0,0,0,0c0.6,0,1.1-0.2,1.5-0.6l8-8c0,0,0.1-0.1,0.1-0.1c0.8-0.9,0.7-2.3-0.2-3
				l-27.5-24C946.1,141.7,945.6,141.5,945.1,141.5z"/>
			
				<rect x="932" y="114.9" transform="matrix(0.7071 -0.7071 0.7071 0.7071 180.8455 697.5996)" class="st2" width="1" height="31.1"/>
			
				<rect x="927" y="119.9" transform="matrix(0.7071 -0.7071 0.7071 0.7071 175.8455 695.5286)" class="st2" width="1" height="31.1"/>
			
				<rect x="918.3" y="137" transform="matrix(0.7071 -0.7071 0.7071 0.7071 172.9668 692.5788)" class="st2" width="8.5" height="1"/>
			<polygon class="st2" points="931.7,156.9 931.3,156.1 933,155.2 933,152.1 937,151.1 937,146.5 938,146.5 938,151.9 934,152.9 
				934,155.8 			"/>
			<path class="st2" d="M917.2,177.9C917.2,177.9,917.2,177.9,917.2,177.9c-1,0-2-0.4-2.7-1.1c-0.1-0.1-0.2-0.2-0.3-0.3l-13.7-16.8
				c-1.3-1.5-1.2-3.8,0.3-5.2l0,0l14.4-13.7c1.5-1.4,3.8-1.4,5.3,0.1l9.7,9.7c0.7,0.7,1.1,1.7,1.1,2.7v10.3c0,1-0.4,2-1.2,2.7
				l-10.4,10.4C919.2,177.5,918.2,177.9,917.2,177.9z M901.6,155.3c-1,1-1.1,2.7-0.2,3.8l13.7,16.8c0.1,0.1,0.1,0.1,0.2,0.2
				c0.5,0.5,1.2,0.8,2,0.8c0,0,0,0,0,0c0.7,0,1.5-0.3,2-0.8l10.5-10.4c0.5-0.5,0.8-1.2,0.9-2v-10.3c0-0.7-0.3-1.5-0.8-2l-9.7-9.7
				c-1.1-1.1-2.8-1.1-3.9-0.1L901.6,155.3z"/>
			<path class="st2" d="M917.2,170.3c-0.8,0-1.7-0.4-2.3-1l-7.8-9.2c-1-1.2-0.9-2.9,0.2-4l3.5-3.5c0.1-0.1,0.1-0.1,0.2-0.2
				c1.3-1.1,3.1-0.9,4.2,0.3l7.8,9.2c1,1.2,0.9,2.9-0.2,4l-3.5,3.5c-0.1,0.1-0.1,0.1-0.2,0.2C918.5,170.1,917.8,170.3,917.2,170.3z
				 M907.9,159.4l7.8,9.2c0.7,0.8,2,0.9,2.8,0.2c0,0,0.1-0.1,0.1-0.1l3.5-3.5c0.7-0.7,0.8-1.9,0.1-2.7l-7.8-9.2
				c-0.7-0.8-2-0.9-2.8-0.2c0,0-0.1,0.1-0.1,0.1l-3.5,3.5C907.2,157.5,907.2,158.6,907.9,159.4L907.9,159.4z"/>
			<circle class="st2" cx="918.5" cy="145.5" r="1.5"/>
			<circle class="st2" cx="926.5" cy="153.5" r="1.5"/>
			
				<rect x="897.5" y="122.5" transform="matrix(0.7071 -0.7071 0.7071 0.7071 176.9227 673.1291)" class="st2" width="7.1" height="1"/>
			
				<rect x="903.1" y="127.3" transform="matrix(0.7071 -0.7071 0.7071 0.7071 175.1016 678.2326)" class="st2" width="6.4" height="1"/>
			<path class="st2" d="M902,136.7c-0.6,0-1.3-0.2-1.8-0.7l-7.1-7.1c-1-1-1-2.5,0-3.5l0.6-0.6c0.4-0.4,0.9-0.6,1.4-0.7l1.8-0.3
				c0.8-0.1,1.6,0.2,2.1,0.7l5.7,5.7c0.5,0.5,0.7,1.1,0.7,1.8v1.3c0,0.7-0.3,1.3-0.7,1.8l-1,1C903.3,136.4,902.6,136.7,902,136.7z
				 M897.3,124.6c-0.1,0-0.1,0-0.2,0l-1.8,0.3c-0.3,0.1-0.6,0.2-0.9,0.4l-0.6,0.6c-0.6,0.6-0.6,1.6,0,2.1l7.1,7.1
				c0.6,0.6,1.5,0.6,2.1,0l1-1c0.3-0.3,0.4-0.7,0.4-1.1v-1.3c0-0.4-0.2-0.8-0.4-1.1l-5.7-5.7C898.1,124.8,897.7,124.6,897.3,124.6z"
				/>
			<polygon class="st2" points="923.9,111.9 923.1,111.1 934.2,100.1 923.7,101 917.8,105.9 917.2,105.1 923.3,100 936.8,98.9 			
				"/>
			<path class="st2" d="M912,128.1c-1,0-2-0.4-2.7-1.1l-7.4-7.4c-0.7-0.7-1.1-1.7-1.1-2.7c0-1,0.4-2,1.1-2.7l9.9-9.9
				c1.4-1.4,3.9-1.4,5.3,0l7.4,7.4c0.7,0.7,1.1,1.7,1.1,2.7s-0.4,2-1.1,2.7l-9.9,9.9C914,127.7,913,128.1,912,128.1z M914.5,104.4
				c-0.7,0-1.4,0.3-2,0.8l-9.9,9.9c-0.5,0.5-0.8,1.2-0.8,2c0,0.7,0.3,1.4,0.8,2l7.4,7.4c1.1,1.1,2.9,1,3.9,0l9.9-9.9
				c0.5-0.5,0.8-1.2,0.8-2s-0.3-1.4-0.8-2l-7.4-7.4C915.9,104.6,915.2,104.4,914.5,104.4z"/>
		</g>
	</g>
</g>
</svg>
