<?xml version="1.0" encoding="utf-8"?>
<!-- Generator: Adobe Illustrator 22.1.0, SVG Export Plug-In . SVG Version: 6.00 Build 0)  -->
<svg version="1.1" id="Layer_1" xmlns="http://www.w3.org/2000/svg" xmlns:xlink="http://www.w3.org/1999/xlink" x="0px" y="0px"
	 viewBox="0 0 233 73" style="enable-background:new 0 0 233 73;" xml:space="preserve">
<style type="text/css">
	.st0{fill:#262626;}
	.st1{fill:#3D3D3D;}
	.st2{fill:#191919;}
	.st3{fill:#FFFFFF;}
	.st4{fill:#F7F7F7;}
	.st5{fill:#E5E5E5;}
	.st6{fill:#474747;}
	.st7{fill:#C3C3C3;}
	.st8{fill:#F5F5F5;}
	.st9{fill:#BBBBBB;}
	.st10{fill:#F6F6F6;}
	.st11{fill:#DBDBDB;}
	.st12{fill:#DADADA;}
	.st13{fill:#9D9D9D;}
</style>
<title>Asset 16</title>
<g id="Layer_2_1_">
	<g id="Layer_1-2">
		<g id="_Group_">
			<path id="_Path_" class="st0" d="M139.6,29.5c0.1,0.1,0.2,0,0.2,0c0.6-0.4,1.2-0.8,1.8-1.2c0.1-0.1,0.3-0.1,0.4,0
				c0.9,0.6,1.7,1.2,2.6,1.9c0.2,0.2,0.4,0.4,0.7,0.6c0.1,0.1,0.2,0.1,0.1,0.2c-0.3,0.3-0.6,0.6-0.9,0.8c-0.7,0.6-1.5,1-2.2,1.6
				c-0.4,0.3-0.8,0.6-1.2,0.9c-0.1,0.1-0.2,0.3-0.1,0.4c0,0,0,0,0,0c0.1,0.2,0.2,0.4,0.3,0.7c0,0.1,0.1,0.1,0.2,0.2
				c0.1,0.3,0.2,0.6,0.3,0.9c0.3,0.8,0.7,1.5,1,2.3l1,2.4c0,0.1,0.1,0.2,0.1,0.4c0.1,0.3,0.1,0.3-0.2,0.5c-0.4,0.2-0.9,0.3-1.4,0.4
				c-0.6,0.1-1.2,0.3-1.9,0.4s-1.1,0.1-1.6,0.2c-0.1,0-0.1,0-0.2-0.1c0-0.1-0.1-0.1-0.1-0.2c-0.2-0.6-0.5-1.2-0.6-1.8
				c0-0.1-0.1-0.2-0.1-0.2c-0.1,0-0.2-0.1-0.2-0.2c-0.2-0.7-0.5-1.3-0.7-2c-0.2-0.4-0.3-0.7-0.4-1.1c-0.1-0.4-0.3-0.5-0.7-0.2
				l-0.2,0.1c-0.1,0.1-0.2,0.1-0.3,0.2c-0.1,0-0.1,0.1-0.2,0.2c-0.1,0.4-0.2,0.8-0.2,1.2c-0.1,0.5-0.1,1-0.2,1.5s-0.1,0.8-0.2,1.2
				c-0.1,0.4-0.1,0.4-0.4,0.4c-0.6-0.1-1.2-0.1-1.8-0.2c-0.4-0.1-0.7-0.3-0.8-0.7c0-0.2-0.2-0.2-0.3-0.3c-0.2-0.1-0.3-0.2-0.4-0.4
				c0.1-0.2,0.3-0.2,0.4-0.3s0.2-0.1,0.3-0.2s0.2-0.2,0.2-0.4c0,0,0-0.1,0-0.1c0,0,0,0,0,0.1c0,0,0,0,0,0.1c-0.1,0.1-0.2,0-0.2,0
				c-0.2-0.3-0.5-0.5-0.8-0.5c-0.1,0-0.3-0.1-0.4-0.2c-0.1,0,0-0.3,0-0.4c0.2-0.2,0.4-0.2,0.6-0.4s0.3-0.1,0.3-0.3
				c-0.1-0.1-0.2-0.1-0.3-0.1c-0.2,0-0.4-0.1-0.4-0.3c0-0.3,0.1-0.6,0.1-1c0-0.1,0-0.2,0-0.2c0-0.1,0.1-0.2,0.1-0.3
				c0.2-1.4,0.4-2.8,0.6-4.2l0.6-4.1c0.2-1.5,0.4-2.9,0.6-4.4c0,0,0-0.1,0-0.1c0.1-0.4,0.1-0.7,0.2-1c-0.1,0.3-0.1,0.6-0.1,0.9
				c-0.1,0.5-0.2,1-0.2,1.4c-0.1,0.7-0.2,1.3-0.3,2c-0.1,1-0.3,2-0.4,3s-0.3,2.2-0.5,3.2c-0.2,1.1-0.3,2.2-0.5,3.2
				c-0.2,0.3-0.3,0.3-0.6,0.1c0.3-1.9,0.6-3.8,0.8-5.6c0.2-1.5,0.5-3.1,0.7-4.6c0.2-1.4,0.4-2.7,0.8-4.1c0.1-0.5,0.2-0.5,0.7-0.5
				c1.3,0,2.5,0.2,3.7,0.4l0.9,0.2c0.1,0.1,0.1,0.2,0.2,0.2c0.1,0,0.1,0.1,0.1,0.2c0,0,0,0,0,0.1c-0.1,0.1-0.2,0.2-0.3,0.4
				c-0.1,0.6-0.2,1.2-0.3,1.8c-0.1,0.8-0.3,1.6-0.5,2.4c-0.1,0.4-0.2,0.8-0.2,1.3c-0.1,0.4-0.2,0.9-0.3,1.3
				c-0.2,0.9-0.4,1.8-0.6,2.7c0,0.1-0.1,0.2-0.1,0.3c0,0.1,0,0.2,0.2,0.1c0.9-0.6,1.7-1.3,2.6-1.9c0.2-0.2,0.5-0.4,0.7-0.5
				C139.5,29.5,139.5,29.5,139.6,29.5z"/>
			<path id="_Path_2" class="st0" d="M152.8,29c0.2-0.1,0.5-0.1,0.7-0.1c1.4,0,2.9,0.2,4.3,0.3h0.1c-0.1,0.1-0.2,0.3-0.1,0.5
				c0.1,0.5,0.2,1,0.2,1.6c0,0.1,0,0.3-0.2,0.4s-0.1-0.1-0.1-0.2c-0.1-0.4-0.1-0.8-0.2-1.1c0.1,0.8,0.2,1.6,0.3,2.5
				c0.1,0.9,0.3,1.9,0.4,2.9c0,0.3,0.1,0.6,0.2,0.8c0,0,0.1,0.1,0.1,0c0-0.1,0.1-0.2,0.2-0.2c1.2-2.1,2.5-4.1,3.8-6.1
				c0.1-0.1,0.2-0.1,0.4,0c1.3,0.6,2.6,1.2,3.8,1.8c0,0,0,0,0.1,0.1c0.2,0.2,0.2,0.4,0.1,0.7c-0.4,0.6-0.8,1.2-1.2,1.8
				s-0.6,0.9-1,1.4c-0.5,0.8-1.1,1.5-1.6,2.3c-0.9,1.2-1.8,2.5-2.7,3.7c-0.4,0.6-0.9,1.3-1.4,1.9c-0.3,0.5-0.7,0.9-1,1.4
				c-0.6,0.8-1.2,1.7-1.9,2.5c-0.3,0.3-0.5,0.7-0.8,1c-0.1,0.2-0.3,0.3-0.5,0.3c-0.7-0.4-1.4-0.8-2.1-1.3c-0.6-0.4-1.1-0.8-1.6-1.3
				c-0.1-0.1-0.2-0.2-0.2-0.3c0-0.1,0-0.2,0.1-0.2c0.8-1,1.6-2.1,2.3-3.1c0.3-0.5,0.7-0.9,1-1.4c0-0.1,0-0.1,0-0.2
				c0-0.3-0.1-0.5-0.1-0.8c-0.3-1.4-0.5-2.8-0.8-4.3c-0.1-0.8-0.2-1.7-0.4-2.5c-0.2-1.2-0.3-2.3-0.4-3.5c0-0.3,0-0.6-0.1-0.9
				C152.6,29.2,152.7,29.1,152.8,29z"/>
			<path id="_Path_3" class="st0" d="M76.4,40.3c-0.7-0.3-1.2-0.8-1.6-1.4c-1.2-2-0.8-4.5,0.9-6c1.1-0.8,2.3-1.3,3.6-1.5
				c1.5-0.3,3.1-0.4,4.6-0.3l0.3,0.1c0,0,0,0.1,0,0.1c-0.2,0.2-0.2,0.4-0.2,0.6c0,1-0.2,1.9-0.4,2.9c0,0.3-0.2,0.5-0.5,0.5
				c-0.8-0.1-1.6-0.1-2.5,0c-0.2,0-0.4,0.1-0.6,0.2c-0.1,0.1-0.2,0.2-0.3,0.3c-0.1,0.1-0.1,0.3,0,0.4c0,0,0.1,0.1,0.1,0.1
				c0.2,0.1,0.4,0.1,0.6,0.1c0.9-0.1,1.8-0.2,2.8-0.1c0.2,0,0.4,0.1,0.6,0.2c0.2,0.1,0.4,0.1,0.6,0.2c0.3,0.1,0.6,0.3,0.8,0.5
				c0.5,0.5,0.9,1.2,1.1,1.9c0.2,0.6,0.3,1.3,0.2,2c-0.1,0.7-0.4,1.4-0.8,2c-0.7,0.9-1.6,1.6-2.7,2c-1,0.4-2,0.6-3,0.7
				c-0.3,0-0.7,0.1-1.1,0.2c-0.4,0.1-0.8,0.1-1.2,0.1c-0.4,0-0.9,0-1.3-0.1c-0.3-0.1-0.5-0.3-0.4-0.6c0-1.1,0.1-2.2,0.4-3.3
				c0.1-0.4,0.1-0.4,0.5-0.3c0.9,0.2,1.9,0.4,2.9,0.4c0.1,0,0.1,0,0.1-0.1s0.1-0.1,0.2-0.1c0.4,0,0.9-0.1,1.3-0.3
				c0.2-0.1,0.3-0.2,0.3-0.4c0-0.2-0.2-0.3-0.4-0.3c-0.5-0.1-1-0.1-1.5,0c-0.9,0.1-1.8,0-2.7-0.2c-0.1,0-0.3,0-0.4-0.1
				C76.5,40.4,76.4,40.4,76.4,40.3z"/>
			<path id="_Path_4" class="st0" d="M70.6,32.5l-2.2-1.9l-2.7-2.3c-0.2-0.2-0.2-0.2,0-0.4c1.7-1.7,3.6-3.1,5.7-4.1
				c2.4-1.2,4.9-2,7.6-2.3c2.1-0.3,4.2-0.2,6.2,0.1c0,0,0.1,0,0.1,0c0.1,0.1,0.1,0.2,0.1,0.4c-0.1,0.8-0.3,1.5-0.4,2.3
				c-0.2,1.2-0.4,2.4-0.6,3.5c0,0.2-0.1,0.3-0.2,0.4c-0.4,0-0.7-0.1-1.1-0.1c-0.8-0.1-1.7-0.1-2.5,0c-1.1,0.1-2.2,0.3-3.2,0.6
				c-1.8,0.5-3.4,1.4-4.9,2.5c-0.5,0.4-0.9,0.8-1.3,1.2C70.9,32.4,70.8,32.5,70.6,32.5z"/>
			<path id="_Path_5" class="st1" d="M152.8,29L152.8,29c0,0.7,0.1,1.4,0.2,2.1c0.1,0.7,0.1,1.4,0.2,2.1c0.1,0.7,0.2,1.6,0.3,2.4
				s0.2,1.3,0.3,2c0.1,0.7,0.2,1.3,0.4,1.9c0.1,0.6,0.2,1.2,0.4,1.8c0,0,0,0.1,0,0.1c-1.3,0.3-2.6,0.5-4,0.8c-0.1,0-0.2,0.1-0.3,0
				c-0.6-2.7-1.1-5.4-1.4-8.2c-0.2-1.2-0.3-2.4-0.4-3.7c0-0.5,0-0.5,0.5-0.5c1.2-0.2,2.4-0.5,3.6-0.7C152.7,29,152.7,29,152.8,29z"
				/>
			<path id="_Path_6" class="st1" d="M94.4,22.5l2.6,1.7c0.1,0.1,0.2,0.2,0.2,0.3c0.1,0.8,0.2,1.5,0.3,2.3c0.2,2.2,0.4,4.4,0.6,6.6
				c0.2,1.7,0.3,3.4,0.4,5.2c0.2,2,0.3,4,0.4,6c0,0.1,0.1,0.2-0.1,0.2c-0.8-0.4-1.6-1-2.4-1.5c-0.1-0.1-0.2-0.1-0.4-0.2
				c-0.1,0-0.2-0.1-0.2-0.2c0.1-0.2,0.1-0.3,0.1-0.5c-0.1-0.8-0.1-1.7-0.2-2.5c-0.1-0.8-0.1-1.6-0.2-2.3c-0.1-1-0.1-1.9-0.2-2.9
				l-0.2-2.2c-0.1-0.9-0.2-1.8-0.2-2.7s-0.2-1.7-0.2-2.6c0-0.5-0.1-1-0.2-1.5c-0.1-1-0.2-2.1-0.3-3.1C94.3,22.5,94.3,22.5,94.4,22.5
				z"/>
			<path id="_Path_7" class="st1" d="M102.8,45.5c-0.7,0.1-1.3,0.1-2,0.1c-0.2,0-0.2-0.1-0.2-0.3c-0.1-0.5-0.1-1.1-0.2-1.7
				c-0.2-2.4-0.5-4.8-0.7-7.2c-0.1-1.4-0.2-2.8-0.3-4.2c0-0.2,0.1-0.4,0.2-0.5l1.5-1.4c0.2-0.1,0.1-0.2-0.1-0.2
				c-1.2-0.3-2-1.4-1.9-2.6c0-0.5,0-1,0.2-1.5c0.1-0.2,0.2-0.4,0.3-0.5l1.7-1.6c0.1,0,0.1,0,0.1,0c-0.4,0.9-0.3,1.9,0,2.8
				c0.3,0.7,1,1.3,1.7,1.4c0.8,0.2,1.7,0.1,2.4-0.2c0.1,0,0.2-0.1,0.2,0.1c-0.6,0.5-1.1,1.1-1.7,1.6l-0.2,0.2c0,0.2-0.2,0.1-0.3,0.2
				c-0.5,0.1-1,0-1.5,0.1c-0.1,0-0.3,0-0.4,0.1c-0.2,0.1-0.3,0.2-0.2,0.4c0,0.9,0.1,1.7,0.2,2.6c0.1,0.9,0.2,1.8,0.2,2.7
				c0.1,0.9,0.2,1.9,0.3,2.8c0.1,0.9,0.2,2,0.3,2.9c0.1,0.7,0.1,1.3,0.2,2c0,0.1,0,0.1-0.1,0.1c-0.5,0.4-1,0.9-1.5,1.4
				c0,0-0.1,0.1-0.1,0.2c0,0.1,0.1,0,0.2,0h1.1C102.6,45.4,102.7,45.3,102.8,45.5z"/>
			<path id="_Path_8" class="st1" d="M76.3,45.8h1.3c0.4,0,0.9,0,1.3,0c0.4-0.1,0.8-0.1,1.3-0.1c0.9-0.1,1.8-0.3,2.7-0.6
				c0.9-0.3,1.8-0.7,2.5-1.3c0.9-0.8,1.5-1.9,1.6-3.1c0-0.9-0.2-1.8-0.6-2.5c-0.1-0.3-0.3-0.5-0.5-0.7c-0.1-0.1-0.2-0.2-0.2-0.4
				c0.2,0,0.5,0.1,0.7,0.3c0.5,0.2,0.9,0.5,1.4,0.7c0.9,0.4,1.5,1.2,1.8,2.1c0.5,1.3,0.4,2.8-0.3,4c-0.6,1-1.5,1.8-2.6,2.2
				c-1.1,0.5-2.2,0.7-3.3,0.9c-1.1,0.2-2.3,0.2-3.4,0.1c-0.5,0-1.1-0.2-1.6-0.4C77.7,46.5,77,46.1,76.3,45.8z"/>
			<path id="_Path_9" class="st1" d="M138.1,21.8L138.1,21.8c0.1-0.1-0.1-0.2,0.1-0.2c0.7,0.5,1.3,1,2,1.5c0.4,0.2,0.7,0.7,0.5,1.2
				c-0.3,1.5-0.6,2.9-0.9,4.3c-0.1,0.4-0.1,0.7-0.2,1.1c-0.2,0.3-0.5,0.6-0.9,0.8c-0.7,0.5-1.5,1-2.2,1.6c-0.1,0.1-0.2,0.2-0.3,0.2
				S136,32,136,31.9c0-0.2,0.1-0.3,0.1-0.4c0.2-0.9,0.4-1.9,0.6-2.8c0.2-0.7,0.3-1.4,0.4-2.1c0.3-1.3,0.5-2.6,0.7-3.9
				c0.1-0.2,0.1-0.5,0.1-0.7C138,21.9,138.1,21.8,138.1,21.8z"/>
			<path id="_Path_10" class="st0" d="M101.5,24L101.5,24c0.3-0.5,0.9-0.8,1.5-0.9c0.4-0.1,0.8-0.1,1.2-0.1c1.3,0,2.5,0.9,2.8,2.2
				c0.1,0.4,0.1,0.8,0.1,1.3c-0.1,0.4-0.3,0.8-0.6,1.1c-0.4,0.3-0.8,0.5-1.2,0.5c-0.8,0.2-1.7,0.1-2.5-0.3c-0.7-0.4-1.3-1.1-1.4-1.9
				C101.2,25.3,101.2,24.6,101.5,24z"/>
			<path id="_Path_11" class="st1" d="M70.6,32.5c0.6-0.5,1.1-1,1.7-1.5c1-0.8,2.2-1.4,3.4-1.9c1.1-0.5,2.2-0.8,3.3-1
				c1.3-0.2,2.7-0.3,4-0.2l1.1,0.1c0.4-0.1,0.7,0.2,1,0.4c0.1,0.1,0.3,0.1,0.4,0.2c0.1,0.1,0.2,0.1,0.1,0.2c-0.1,0.1-0.1,0.1-0.2,0
				c-0.8-0.1-1.6-0.1-2.3-0.1c-4,0-7.7,1.6-10.6,4.4c-0.2,0.2-0.3,0.2-0.5,0.1C71.5,33,71,32.8,70.6,32.5z"/>
			<path id="_Path_12" class="st1" d="M145.4,30.9c-0.1-0.2-0.3-0.4-0.5-0.6c-0.1-0.1-0.2-0.1-0.2-0.2c1,0.7,2,1.5,3,2.4
				c0.6,0.5,0.6,0.6,0,1.1c-1.3,1-2.6,2-4,2.9c-0.1,0.1-0.2,0.1-0.2,0c0,0,0,0,0,0c-0.8-0.6-1.6-1.1-2.3-1.8c-0.1,0-0.1-0.1-0.1-0.2
				c0.2-0.2,0.5-0.5,0.8-0.6c1-0.8,2.1-1.5,3.1-2.3C145.2,31.4,145.4,31.2,145.4,30.9z"/>
			<path id="_Path_13" class="st1" d="M150.3,42.2l2.7-0.5l1.3-0.2c0.1,0,0.2-0.1,0.2,0c-0.8,1.2-1.6,2.2-2.5,3.4l-1.1,1.4
				c-0.1,0.1-0.2,0.2-0.3,0.2c-1.2,0.2-2.4,0.5-3.6,0.7c-0.1,0-0.3,0.1-0.3-0.1l2-2.7C149.3,43.6,149.9,42.9,150.3,42.2z"/>
			<path id="_Path_14" class="st1" d="M146.8,47c0.1,0,0.1,0,0.2,0l4-0.8c0.1,0.2,0.3,0.4,0.5,0.6c1,0.9,2.1,1.6,3.3,2.3
				c0.1,0,0.2,0,0.3,0c0.2,0,0.3,0.1,0.3,0.3l-3,0.6c-0.2,0-0.4,0.1-0.6,0.1c-0.3,0.1-0.7,0-1-0.1c-1.4-0.7-2.7-1.6-3.8-2.7
				C146.8,47.2,146.7,47.1,146.8,47z"/>
			<path id="_Path_15" class="st1" d="M94.4,22.5L94.4,22.5c-0.1,0.2-0.2,0.2-0.3,0.2c-0.4,0-0.8,0.1-1.2,0.1
				c-0.9,0.1-1.8,0.2-2.6,0.4c-0.4,0.1-0.5,0.2-0.5,0.6c0,1,0,1.9,0.1,2.9c0.1,1.3,0.2,2.6,0.4,3.9c0.1,0.5,0.1,1.1,0.2,1.7
				c0.1,0.7,0.2,1.5,0.2,2.2c0.1,1.1,0.2,2.1,0.3,3.2c0.1,0.8,0.1,1.6,0.3,2.3c0.1,0.8,0.2,1.3,0.2,1.9c0,0.3,0.1,0.6,0.2,0.9
				c0,0.3,0.2,0.3,0.3,0.5c0.1,0.1-0.1,0.1-0.2,0.2c-0.2,0-0.4,0-0.6-0.1C91,43.5,91,43.3,91,43.1c-0.1-0.9-0.2-1.8-0.4-2.6
				c-0.3-2.3-0.5-4.6-0.8-6.9c-0.2-2.1-0.4-4.1-0.6-6.2c-0.1-1.2-0.2-2.4-0.2-3.7c0-0.5,0-0.5,0.5-0.6c0.9-0.2,1.9-0.4,2.8-0.5
				c0.5,0,1-0.1,1.5-0.1C94.1,22.4,94.3,22.4,94.4,22.5z"/>
			<path id="_Path_16" class="st1" d="M146.7,43.9c-0.5,0.2-1,0.4-1.6,0.5c-0.9,0.2-1.8,0.4-2.8,0.5c-0.3,0-0.6,0-0.9,0
				c-0.1,0-0.3-0.1-0.4-0.1l-2.3-1.7c0-0.1,0.1-0.1,0.2-0.1c0.8,0,1.6-0.1,2.3-0.3c0.9-0.1,1.8-0.4,2.7-0.7c0.2-0.1,0.4,0,0.5,0.1
				c0.6,0.5,1.2,1,1.9,1.4c0.1,0.1,0.2,0.2,0.3,0.3C146.7,43.8,146.8,43.8,146.7,43.9z"/>
			<path id="_Path_17" class="st1" d="M146.7,43.9c-0.1-0.2-0.3-0.3-0.5-0.4c-0.6-0.5-1.2-0.9-1.9-1.4c-0.1-0.1-0.2-0.1-0.4-0.1
				c-0.1-0.4-0.2-0.8-0.4-1.1c-0.3-0.6-0.5-1.2-0.8-1.8c-0.3-0.6-0.5-1.1-0.7-1.7c-0.1-0.3-0.3-0.6-0.4-0.9c-0.2-0.3-0.3-0.7-0.4-1
				c0-0.1-0.2-0.2-0.2-0.3c0-0.1-0.2-0.3-0.2-0.5s-0.1-0.2,0.1-0.3c0,0.1,0.1,0.2,0.1,0.2l2.3,1.7h0.1c0.4,1,0.9,2,1.3,3
				c0.6,1.3,1.1,2.5,1.6,3.8C146.7,43.5,146.8,43.7,146.7,43.9z"/>
			<path id="_Path_18" class="st1" d="M155.4,49.3l-0.6-0.3c0.3,0,0.4-0.3,0.6-0.5c0.5-0.7,1.1-1.4,1.6-2.1c0.5-0.7,0.9-1.2,1.3-1.9
				c0.5-0.6,0.8-1.1,1.2-1.7c0.4-0.6,0.8-1,1.2-1.6c0.1-0.2,0.3-0.4,0.4-0.6c0.9-1.2,1.8-2.5,2.7-3.7c0.5-0.8,1.1-1.5,1.6-2.3
				c0.5-0.8,0.9-1.3,1.3-2c0.1-0.2,0-0.4,0-0.5l0.5,0.2c0.2,0.1,0.2,0.2,0.1,0.4c-0.4,0.7-0.9,1.4-1.4,2.1c-2.6,3.7-5.2,7.4-7.9,11
				c-0.8,1-1.5,2.1-2.3,3.1C155.7,49.2,155.6,49.3,155.4,49.3z"/>
			<path id="_Path_19" class="st1" d="M137,38.4c0.1,0.1,0.1,0.3,0.2,0.5c0.2,0.6,0.4,1.2,0.6,1.8c-0.1,1-0.3,1.9-0.4,2.9
				c0,0.1,0,0.1,0,0.2c-0.2,0.1-0.4,0-0.6-0.2c-0.4-0.3-0.8-0.5-1.1-0.8c-0.3-0.3-0.6-0.5-1-0.7c-0.1,0-0.2-0.1-0.1-0.2
				c0.1-0.1,0.1-0.1,0.1-0.2c0.1-0.8,0.2-1.5,0.3-2.3c0.1-0.5,0.2-1.1,0.2-1.6c0-0.1,0.1-0.2,0.2-0.3c0-0.1,0.1-0.2,0.2-0.2
				c0.1,0.2,0.2,0.3,0.4,0.4C136.4,37.8,136.7,38.1,137,38.4z"/>
			<path id="_Path_20" class="st0" d="M130.9,40.3c0.4,0.1,0.7,0.4,0.8,0.8c0.1,0.2,0.2,0.3,0.4,0.4c0.1,0,0.1,0,0.2,0.1
				c-0.1,0.2-0.2,0.1-0.3,0.1c-0.1,0-0.2-0.1-0.3,0c-0.6,0.5-1.3,0.8-2.1,0.9c-0.8,0.2-1.7,0.3-2.5,0.4c-0.7,0-1.3,0-2,0
				c-0.7,0-1-0.1-1.5-0.1c-0.8-0.1-1.5-0.3-2.2-0.5c-0.4-0.1-0.7-0.4-0.9-0.7c0-0.3,0-0.6-0.1-0.9l0,0c0.3,0.1,0.6,0.1,0.9,0
				c0.1,0,0.2,0,0.3,0c0.5-0.1,1-0.2,1.5-0.2c0.2-0.1,0.5-0.1,0.8-0.2c0.2,0,0.5,0,0.7,0c0.8-0.1,1.6,0,2.4,0.1
				c0.5,0.1,1,0.2,1.5,0.2c0.4,0.1,0.8-0.1,0.9-0.4c0.1,0,0.2,0,0.2,0c-1.2-0.2-2.3-0.3-3.5-0.3c-0.1,0-0.2,0-0.2-0.1
				s0.1-0.1,0.2-0.1c0.1,0,0.2-0.1,0.4-0.1c0.6,0.1,1.3,0,1.9,0.1c0.4,0.1,0.7,0.2,1.1,0.2c0.2,0,0.3,0,0.4,0.2
				c0.1,0.2,0.1,0.1,0.2,0.1c0.2,0,0.4,0,0.6,0.1c0,0,0.1,0.1,0.1,0.1c0,0.2-0.2,0.2-0.3,0.3c-0.7,0.3-1.4,0.5-2.1,0.6
				c-0.4,0.1-0.8,0.2-1.3,0.3c-0.7,0.1-1.3,0.2-2,0.3c-0.9,0.1-1.8,0.1-2.8,0.1c-0.3,0-0.5,0-0.8-0.1c-0.2,0-0.4-0.1-0.6-0.1
				c0.2,0.1,0.4,0.1,0.6,0.1c0.1,0,0.2,0,0.2,0.1c0,0.1-0.1,0-0.2,0.1c0.3-0.3,0.7-0.2,1.1-0.1c0.1,0,0.2,0,0.2,0.1
				c0,0.1-0.1,0.1-0.2,0.1c-0.2,0-0.4,0.1-0.6,0.1c0.5-0.1,0.9-0.2,1.4-0.1c0.2,0,0.4,0,0.6,0c1.5,0,3.1,0.2,4.6,0.5
				c-0.9-0.2-1.9-0.4-2.8-0.5c-0.2,0-0.4-0.1-0.7-0.1c-0.1,0-0.1,0-0.2-0.1s0.1-0.1,0.2-0.1s0.4-0.1,0.7-0.1c0.2,0,0.3,0.1,0.5,0.1
				c0.2,0,0.5,0.1,0.8,0.1c0.7,0.1,1.4,0.3,2.1,0.5c-0.7-0.2-1.5-0.4-2.3-0.5l-0.2-0.1c-0.1,0-0.2,0-0.2-0.1s0.1-0.1,0.2-0.1
				c0.1,0,0.3-0.1,0.4-0.1c0.7,0.2,1.5,0.3,2.3,0.6c0.1,0,0.2,0.1,0.2,0.1c-0.6-0.2-1.1-0.3-1.7-0.5l-0.3-0.1
				c-0.1,0-0.1-0.1-0.1-0.1c0-0.1,0.1-0.1,0.1-0.1c0,0,0,0,0,0c0.1,0,0.2,0,0.2,0c0.7,0.3,1.4,0.3,2,0.6c0.1,0,0.1,0,0.2,0.1l0,0
				c-0.5-0.2-1.1-0.4-1.7-0.5c-0.1,0-0.1-0.1-0.1-0.2c0-0.1,0.1-0.1,0.1-0.1c0.2-0.1,0.5-0.1,0.8,0.1c0.4,0.2,0.8,0.3,1.2,0.6
				c-0.1-0.1-0.3-0.1-0.3-0.2c-0.1-0.1,0.2-0.2,0.4-0.2s0.3,0,0.4,0s0.1-0.1,0.1-0.2c-0.1-0.1-0.2-0.2-0.4-0.2
				c-0.1,0-0.2-0.2-0.1-0.3C130.7,40.4,130.7,40.2,130.9,40.3z"/>
			<path id="_Path_21" class="st1" d="M84.5,31.3l2.6,1.4c0.1,0.1,0.1,0.2,0.1,0.4c0,0.7,0,1.4-0.2,2.1c-0.1,0.4-0.2,0.9-0.3,1.3
				c0,0.1,0,0.2-0.2,0.2c-0.6-0.1-1.1-0.4-1.6-0.7c-0.4-0.3-0.9-0.5-1.3-0.6c-0.1,0-0.2-0.1-0.1-0.2c0.2-0.1,0.4-0.3,0.4-0.6
				c0.2-1,0.4-2,0.4-3.1C84.4,31.4,84.4,31.3,84.5,31.3z"/>
			<path id="_Path_22" class="st1" d="M162.5,30.4c0.2,0,0,0.1,0,0.2l-1,1.6c-0.9,1.4-1.7,2.8-2.6,4.2c0,0-0.1,0.1-0.1,0.1
				c-0.1,0.1-0.1,0.1-0.2,0c-0.1-0.1-0.1-0.2-0.1-0.3c0-1.2-0.1-2.4-0.2-3.6c0-0.4-0.1-0.7-0.1-1c0-0.2,0.1-0.3,0.2-0.4l2.7-0.5
				L162.5,30.4z"/>
			<path id="_Path_23" class="st1" d="M85.3,28.9h0.1c0-0.1-0.1-0.1-0.1-0.1c-0.4-0.3-0.9-0.5-1.3-0.7c0.1,0,0.1-0.1,0.2-0.2
				c0.4-1.9,0.7-3.9,1.1-5.9c0-0.1,0-0.2,0-0.4c0.5,0.2,1,0.6,1.5,0.9c0.1,0,0.1,0.1,0,0.2L86,27.1l-0.3,1.6
				C85.7,29,85.7,29,85.3,28.9z"/>
			<path id="_Path_24" class="st1" d="M91.2,43.6c0.2-0.1,0.3-0.1,0.5-0.1c0.1,0,0.2,0,0.3,0c0.1-0.1,0.2-0.1,0.2-0.1l2.8-0.3
				l0.6-0.1c0.1,0,0.2,0,0.2,0.1c0.3-0.1,0.6,0.2,0.8,0.3l1.9,1.2c0.1,0.1,0.2,0.1,0.2,0.2c-1,0.2-2.1,0.3-3.1,0.4
				c-0.5,0.1-1,0.1-1.5,0.1c-0.2,0-0.4,0-0.5-0.1L91.2,43.6z"/>
			<path id="_Path_25" class="st1" d="M91.5,51.1L91.5,51.1c-0.5,0-0.5,0.1-0.7-0.5c0-0.1-0.2-0.2-0.3-0.2c0,0,0,0,0,0h-0.1
				c-0.2,0-0.4,0-0.6,0c-0.2,0.1-0.2,0.3-0.2,0.5s-0.1,0.2-0.2,0.2l-1-0.1c-0.1,0-0.2-0.1-0.1-0.2l1.1-3.4c0-0.1,0.1-0.2,0.2-0.2
				h1.3c0.1,0,0.2,0.1,0.2,0.1c0.4,1.1,0.8,2.2,1.2,3.4c0.1,0.2,0,0.3-0.2,0.3L91.5,51.1L91.5,51.1z"/>
			<path id="_Path_26" class="st0" d="M102.8,45.5h-1.7c-0.1,0-0.2,0-0.2-0.1s0.1-0.1,0.1-0.2l1.4-1.3c0.1-0.1,0.2-0.2,0.4-0.2
				c0.1-0.1,0.2-0.1,0.3-0.1c0.6,0,1.2,0,1.8,0c0.9,0,1.8-0.1,2.6-0.1h0.2c0.1,0,0.2,0,0.2,0.1l-1.8,1.7c-0.1,0.1-0.2,0.1-0.3,0.2
				C104.7,45.4,103.8,45.5,102.8,45.5z"/>
			<path id="_Path_27" class="st1" d="M122.2,49c0,0.6,0,1.2,0,1.8c0,0.2-0.1,0.3-0.3,0.3h-0.5c-0.1,0-0.2,0-0.2,0
				c-0.1-0.3-0.2-0.1-0.4-0.1c-0.5,0.2-1.2,0.1-1.5-0.4c-0.4-0.5-0.4-1.2,0-1.7c0.4-0.5,1-0.6,1.6-0.4c0.2,0.1,0.2,0,0.2-0.1
				c0-0.4,0-0.7,0-1.1c0-0.2,0.1-0.2,0.2-0.2h0.8c0.2,0,0.2,0.1,0.2,0.2L122.2,49L122.2,49z"/>
			<path id="_Path_28" class="st0" d="M85.7,37c0.5,0.5,0.9,1.1,1.1,1.8c0.3,0.9,0.3,1.9,0.1,2.8c-0.3,0.9-0.8,1.7-1.5,2.3
				c-1.2,0.9-2.6,1.5-4.1,1.7c-1.1,0.2-2.2,0.3-3.3,0.3c-0.1,0-0.2,0-0.3,0c1.2,0,2.4-0.2,3.5-0.4c0.9-0.2,1.8-0.5,2.6-0.9
				c1.1-0.6,1.9-1.5,2.3-2.6c0.3-1,0.3-2,0-3c-0.2-0.7-0.5-1.3-1-1.8c-0.3-0.3-0.7-0.5-1.2-0.7c-0.2-0.1-0.5-0.2-0.8-0.2
				c0.1-0.2,0.3-0.1,0.4-0.1c0.4,0,0.9,0.1,1.3,0.3c0.1,0.3,0.4,0.5,0.7,0.5L85.7,37z"/>
			<path id="_Path_29" class="st0" d="M109.1,33l0.1-0.4c0.2,0,0.2,0.1,0.2,0.2c0.1,1.2,0.6,2.3,1.5,3.1c0.6,0.6,1.3,1.2,2.1,1.6
				c0.9,0.6,2,0.9,3.1,1.2c0.3,0.1,0.6,0.1,0.9,0.1c-0.6,0-1.3-0.2-1.9-0.4c-0.1,0-0.2-0.1-0.3-0.1c-0.2-0.2-0.5-0.3-0.8-0.2
				l-0.2-0.1c-0.2-0.1-0.2-0.2-0.2-0.3c-0.2-0.2-0.4-0.1-0.6-0.2H113c-0.1,0-0.2-0.1-0.2-0.2c0-0.1,0.2-0.1,0.3-0.1
				c0.1,0,0.1,0,0.1,0c-0.2-0.1-0.5-0.1-0.8-0.1c-0.1,0-0.2-0.1-0.2-0.2c0-0.1,0.2-0.1,0.2-0.1s0.1,0,0.2,0
				c-0.2-0.1-0.4-0.1-0.7-0.1c-0.1,0-0.2,0-0.2-0.1c0.1-0.1,0.2-0.1,0.4,0c-0.1,0-0.3,0-0.4,0c-0.1,0-0.2,0-0.2-0.1
				c0-0.1,0.1-0.1,0.2-0.1s0.2,0,0.3-0.1c-0.2-0.3-0.5-0.5-0.7-0.8c-0.1-0.1-0.3-0.1-0.4-0.3c0,0,0,0,0-0.1c0-0.1,0.1-0.1,0.1-0.2
				c-0.3-0.5-0.6-1.1-0.8-1.7c0-0.1,0-0.3-0.1-0.4c-0.1-0.1,0-0.5-0.1-0.7c0-0.2,0.1-0.4,0.2-0.5c0-0.1,0-0.1,0.1-0.2
				c0.2,0,0.2,0.1,0.2,0.2c0,1.4,0.5,2.7,1.4,3.7c0.5,0.7,1.1,1.3,1.7,1.8c0.7,0.5,1.4,0.9,2.2,1.2c0.5,0.2,1,0.3,1.5,0.4
				c0.2,0,0.5,0,0.7-0.1c0.1,0,0.2-0.1,0.3,0.1l0,0c-0.2,0.4-0.6,0.4-0.9,0.5c-0.9,0.2-1.8,0.1-2.7-0.1c-0.4-0.1-0.9-0.2-1.3-0.3
				c-0.3-0.1-0.5-0.2-0.8-0.3c-0.1,0-0.2-0.1-0.3-0.1c-0.2,0-0.3,0-0.5-0.1c-0.1,0-0.1-0.1-0.1-0.1c0-0.1,0.1-0.1,0.2-0.1h-0.1
				c-0.1-0.1-0.3-0.1-0.4-0.1c-0.1,0-0.2,0-0.4,0c-0.1,0-0.2,0-0.2-0.2s0.1-0.1,0.2-0.1c-0.2-0.1-0.5-0.1-0.7,0
				c-0.1-0.1-0.3-0.1-0.2-0.2s0.2-0.1,0.3-0.1l0,0l0,0c-0.2,0-0.5,0-0.7,0s-0.3,0-0.3-0.2c0-0.2,0.2-0.1,0.3-0.1s0.1,0,0.1,0
				c-0.2-0.1-0.5,0.1-0.7,0.1c-0.2,0-0.2-0.1-0.2-0.2c0-0.1,0.3-0.1,0.4-0.1s0,0,0,0l0,0c-0.2,0-0.3,0-0.5,0c-0.1,0-0.2,0-0.2-0.1
				c0-0.1,0.1-0.1,0.2-0.1c0.1,0,0.2-0.1,0.2,0c-0.1,0-0.3,0-0.4,0.1c-0.1,0-0.2,0-0.2-0.1c0-0.1,0.1-0.1,0.1-0.2l0.3-0.1
				c0.1,0,0.1,0,0.1-0.1c-0.3-0.3-0.5-0.7-0.8-1.1c-0.1-0.1-0.1-0.3,0-0.4c0-0.2,0-0.4,0-0.6c0.2,0,0.2,0.1,0.2,0.2
				c0.3,0.9,0.8,1.6,1.5,2.1c0.5,0.5,1.1,0.8,1.7,1.1c0.6,0.3,1.2,0.6,1.9,0.8c0.5,0.1,0.9,0.3,1.4,0.4l0.8,0.2
				c-0.7-0.1-1.5-0.3-2.1-0.6c-0.1,0-0.1,0-0.2-0.1c-0.1,0-0.2-0.2-0.4-0.1c-0.2,0-0.3-0.1-0.5-0.1c-0.1-0.1-0.1-0.1,0-0.2l0,0
				c-0.2-0.1-0.3-0.1-0.5-0.1c-0.1,0-0.2,0-0.2,0c-0.1,0-0.3,0-0.3-0.2c0-0.2,0.2-0.1,0.3-0.1h0.1l0,0c-0.2-0.1-0.5-0.1-0.8-0.1
				c-0.1,0-0.2-0.1-0.2-0.2c0-0.1,0.2-0.1,0.2-0.1c0.1,0,0.1,0,0.1,0c-0.2-0.1-0.5-0.1-0.7,0c-0.1,0-0.2,0-0.2-0.2
				c0-0.2,0.1-0.1,0.2-0.1c0.1,0,0.1,0,0.2,0c-0.2,0-0.4,0-0.6,0s-0.2-0.1-0.2-0.2s0.2-0.1,0.2-0.1h0.1c-0.2,0-0.3,0-0.5,0
				c-0.1,0-0.2,0-0.2-0.1c0-0.1,0.1-0.1,0.2-0.2c0.1,0,0.3,0.1,0.4-0.1c-0.3-0.3-0.5-0.7-0.8-1s-0.4-0.1-0.6-0.1h0
				c-0.1,0-0.3-0.1-0.2-0.2s0.2-0.1,0.3-0.1c0.1,0,0.3,0.1,0.4-0.1c-0.1-0.3-0.2-0.7-0.3-1C109,33.4,109,33.2,109.1,33z"/>
			<path id="_Path_30" class="st0" d="M123.4,28.8c0.6-0.1,1.1,0.1,1.4,0.6l0.2,0.4c-0.3,0.2-0.4,0.2-0.6-0.1s-0.3-0.1-0.4-0.2
				c-0.2-0.1-0.4-0.1-0.5-0.1c-0.1,0-0.2,0.1-0.2,0.2c0,0.4,0.1,0.7,0.1,1c0,0.1-0.2,0.2-0.3,0.2s-0.2,0-0.3-0.2s0-0.5-0.1-0.8
				c0-0.1,0-0.2-0.2-0.2c-0.1,0-0.2,0.2-0.2,0.3c0,0,0,0,0,0c0.1,0.4,0.2,0.8,0.2,1.3c-0.1,0.1-0.1,0.2-0.3,0.2
				c-0.2,0-0.2-0.2-0.2-0.4c0-0.2-0.1-0.5-0.1-0.7c-0.1-0.2-0.2-0.3-0.3-0.1c-0.2,0.2-0.2,0.2-0.2,0.2c-0.2,0.1-0.2,0.3-0.2,0.5
				c0.1,0.3,0.1,0.6,0.2,0.9c0,0.2,0,0.3,0,0.5c-0.1,0.1-0.1,0.3-0.3,0.3s-0.1-0.1-0.1-0.2c-0.1-0.3-0.1-0.6-0.1-0.9
				c0-0.1,0-0.2-0.1-0.2s-0.1,0.1-0.2,0.1c-0.2,0.2-0.3,0.5-0.2,0.7c0.1,0.3,0.2,0.7,0.2,1c0,0.1,0.1,0.1,0.1,0.2
				c-0.1,0.2-0.2,0.5-0.5,0.6c-0.1-0.1-0.1-0.2-0.1-0.3c0-0.3-0.1-0.7-0.2-1c-0.2,0.1-0.2,0.3-0.2,0.4c0.1,0.4,0.2,0.9,0.3,1.3
				c-0.1,0.2-0.2,0.3-0.3,0.5c0,0.1-0.1,0.1-0.2,0.1c-0.2-0.1-0.2-0.3-0.2-0.5c0-0.2-0.1-0.4-0.2-0.6c0.1,0.4,0.2,0.8,0.3,1.2
				c-0.1,0.4-0.3,0.7-0.5,1c-0.3,0.6-0.4,1.3-0.3,2c-0.1,0.1-0.2,0.1-0.2,0c-0.3-0.5-0.4-1.1-0.4-1.7c0.1-1.1,0.3-2.1,0.8-3.1
				c0.4-0.8,0.8-1.6,1.4-2.3c0.5-0.7,1.1-1.2,1.7-1.8C122.5,29,123,28.9,123.4,28.8C123.5,28.8,123.4,28.8,123.4,28.8z"/>
			<path id="_Path_31" class="st0" d="M118.1,38.8c0,0.2,0,0.3-0.1,0.4l-0.1,0.1c-0.4,0.3-1,0.6-1.5,0.6c-0.8,0.1-1.6,0.2-2.4,0.2
				c-0.7,0-1.5-0.1-2.2-0.2c-0.8-0.1-1.5-0.3-2.3-0.5c-0.6-0.2-1.2-0.5-1.8-0.8c0,0,0,0,0-0.1c0-0.2,0-0.2,0.2-0.1
				c0.4,0.2,0.7,0.3,1.1,0.5c1.1,0.4,2.1,0.6,3.2,0.8c0.5,0.1,0.9,0.1,1.4,0.1c0.5,0,1,0,1.5,0c0.7,0,1.3-0.1,1.9-0.3
				c0.1,0,0.2-0.1,0.3-0.1c-0.7,0.2-1.5,0.4-2.2,0.4c-0.4,0-0.8,0-1.3,0c-1.6-0.1-3.3-0.4-4.8-0.9c-0.5-0.2-0.9-0.4-1.3-0.6
				c-0.1,0-0.1-0.1-0.1-0.2c0,0,0,0,0,0c0.1-0.1,0.2-0.1,0.3,0c0.3,0.2,0.6,0.3,0.9,0.4c0.3,0.1,0.7,0.3,1.1,0.4
				c0.4,0.1,0.9,0.3,1.3,0.3c0.6,0.1,1.2,0.2,1.8,0.3c0.4,0,0.7,0.1,1.1,0.1c0.5,0.1,0.9,0.1,1.4,0c0.1,0,0.3,0,0.4,0
				c0.4,0,0.8-0.1,1.2-0.1c-0.4,0.1-0.8,0.1-1.3,0.1c-0.2,0-0.4,0-0.6,0.1c-0.1,0-0.2,0-0.3,0c-0.5-0.2-1.1-0.4-1.6-0.4
				c-0.8-0.2-1.6-0.3-2.4-0.4c-0.3,0-0.6-0.1-0.9-0.1c-0.1,0-0.2,0-0.3-0.1c-0.1-0.1,0.1-0.1,0.2-0.1c0.7,0,1.3,0.1,2,0
				c0.1,0,0.2,0.1,0.3,0.1c-0.1,0-0.3-0.1-0.4-0.1c-0.7-0.1-1.4-0.1-2.2,0c-0.2,0-0.3,0-0.5,0s-0.1,0-0.1-0.1c0-0.1,0.1-0.1,0.1-0.1
				c0.1,0,0.2,0,0.3,0c0.5,0,0.9,0,1.4,0l0,0c-0.3-0.1-0.7-0.1-1,0c-0.1,0-0.2,0-0.3,0c-0.2,0-0.3,0-0.5,0.1h-0.2
				c-0.1,0-0.3,0-0.3-0.1s0.1-0.2,0.2-0.2c0.4-0.1,0.9-0.1,1.3-0.1c-0.1,0-0.2,0-0.3,0c-0.2,0.1-0.5,0-0.7,0.1c-0.2,0-0.4,0-0.6,0.1
				c-0.1,0-0.2,0-0.3-0.1c0-0.1,0.1-0.2,0.2-0.2c0.3-0.1,0.6-0.1,0.8-0.1c0.1,0,0.2,0,0.3,0c-0.2,0-0.5,0.1-0.7,0.1
				c-0.2,0-0.4,0.1-0.6,0.1c-0.1,0-0.2,0.1-0.3-0.1c0-0.1,0.1-0.2,0.2-0.2c0.3-0.1,0.5-0.2,0.8-0.2c-0.3,0-0.5,0.1-0.8,0.2
				c-0.1,0-0.2,0.1-0.3-0.1c0,0,0,0,0-0.1c0.2-0.1,0.4-0.2,0.7-0.3c-0.2,0-0.3,0.1-0.5,0.2c-0.1,0-0.1,0.1-0.2,0
				c-0.1,0-0.1-0.1,0-0.2c0,0,0,0,0,0c0.1,0,0.2-0.1,0.3-0.2c-0.1,0-0.2,0.2-0.4,0.1c0,0,0-0.1,0-0.1c0.1,0,0,0,0,0
				c0-0.1,0-0.1,0-0.1c0.1-0.2,0-0.3-0.1-0.5c-0.1-0.2-0.1-0.2,0.1-0.3c0.2-0.1,0.2,0.1,0.3,0.1c0.3,0.3,0.7,0.6,1.1,0.9
				c0.5,0.3,0.9,0.5,1.4,0.7s0.8,0.3,1.2,0.5c0.2,0.1,0.4,0.2,0.6,0.2c0.5,0.1,1,0.2,1.4,0.4c0.8,0.2,1.6,0.3,2.4,0.4
				c0.5,0,0.9,0,1.4-0.1c0.2-0.1,0.3-0.1,0.5-0.2C118,38.8,118.1,38.7,118.1,38.8z"/>
			<path id="_Path_32" class="st0" d="M130.1,35.7c0.2,0,0.4,0,0.6-0.1c0.1,0,0.1,0,0.1,0.1c-0.3,0.3-0.7,0.5-1.1,0.7
				c-2,0.9-4.1,1.7-6.2,2.4c-0.8,0.3-1.6,0.6-2.5,0.8l-0.6,0.2c-0.1,0-0.2,0-0.3-0.1c0-0.1,0-0.2-0.2-0.2c-0.1,0-0.2,0-0.2-0.1
				c0,0,0,0,0,0c0.2-0.4,0.6-0.8,1-1.1c0.6-0.5,1.3-0.9,2-1.3c0.6-0.3,1.2-0.7,1.8-1c1-0.5,2.1-1,3.2-1.4c0.5-0.2,1-0.3,1.5-0.4
				c0.1,0,0.2,0,0.3,0s0.2,0.3,0.1,0.4c-0.4,0.4-0.8,0.7-1.2,1l-1.7,1.1C127.9,36.2,129,35.9,130.1,35.7z"/>
			<path id="_Path_33" class="st0" d="M125.4,29.8c0.6,0.2,0.8,0.5,0.7,1.2c0,0.2,0,0.3,0,0.5c0,0.1-0.1,0.2-0.2,0.2c0,0,0,0-0.1,0
				c-0.1,0-0.1-0.2-0.1-0.3s0-0.3,0.1-0.5c0-0.2-0.1-0.4-0.3-0.4c0,0,0,0,0,0c-0.2,0-0.1,0.1-0.1,0.2c0,0.3,0,0.6,0,0.9
				c0,0.1-0.1,0.3-0.1,0.4c-0.1,0.1-0.2,0.1-0.3,0.2s-0.1,0.1-0.2,0s-0.1-0.1,0-0.2c0.1-0.4,0.2-0.9,0.2-1.3c0-0.1,0-0.2-0.1-0.2
				c-0.1,0-0.2,0-0.2,0c-0.3,0.2-0.5,0.3-0.8,0.5c-0.1,0.1-0.2,0.3-0.2,0.5c0,0.6-0.1,1.2-0.3,1.8c0,0.1,0,0.2,0,0.3
				s-0.2,0.2-0.3,0.3c-0.1,0.1-0.2,0.1-0.2,0c-0.1-0.1-0.1-0.2-0.1-0.2c0.1-0.2,0.1-0.5,0.2-0.7c0.1-0.4,0.2-0.8,0.2-1.1l0,0l0,0
				c-0.3,0.1-0.1,0.3-0.1,0.5c0,0.1,0,0.2,0,0.3c-0.1,0.5-0.2,1-0.4,1.5c0,0.2-0.1,0.3-0.3,0.3c-0.2,0-0.1-0.2-0.1-0.3l0.2-1
				c0-0.2,0-0.4,0-0.6c-0.2,0.2-0.6,0.5-0.6,0.9c0,0.4,0,0.8-0.1,1.2c0,0.2-0.1,0.3-0.1,0.4c-0.1,0.2-0.2,0.4-0.5,0.4
				c-0.2,0.1-0.1-0.2-0.1-0.3c0.1-0.4,0.2-0.9,0.2-1.4c-0.1,0.2-0.3,0.3-0.3,0.5c0,0.3-0.1,0.6-0.1,0.8c0,0.3-0.1,0.5-0.1,0.8
				c-0.2,0.3-0.4,0.5-0.6,0.8c-0.2,0.3-0.4,0.7-0.6,1c-0.1,0.2-0.2,0.5-0.1,0.8c0,0,0,0,0,0.1c-0.1,0-0.2-0.1-0.3-0.2
				c-0.1-0.1-0.1-0.3-0.1-0.4c0-0.6,0.1-1.2,0.3-1.7c0.5-1.2,1.2-2.3,2-3.4c0.5-0.7,1.2-1.3,1.8-1.9c0.4-0.4,0.9-0.7,1.3-0.9
				C124.8,29.8,125.1,29.8,125.4,29.8z"/>
			<path id="_Path_34" class="st1" d="M116.2,49.6c0.2-0.4,0.3-0.8,0.4-1.1c0.1-0.4,0.2-0.3,0.4-0.2l0.5,0.1
				c0.3,0.1,0.3,0.1,0.2,0.4c-0.4,0.8-0.8,1.7-1.2,2.5c-0.1,0.3-0.3,0.5-0.4,0.8c0,0.1-0.2,0.2-0.3,0.2c0,0,0,0,0,0
				c-0.2-0.1-0.4-0.2-0.7-0.2c-0.2-0.1-0.2-0.1-0.1-0.3c0.1-0.2,0.2-0.5,0.3-0.7c0.1-0.1,0.1-0.3,0-0.4c-0.3-0.6-0.5-1.2-0.7-1.9
				c-0.1-0.3-0.1-0.3,0.2-0.3c0.3-0.1,0.4-0.1,0.6-0.1c0.1-0.1,0.3,0,0.3,0.1c0,0,0,0,0,0.1L116.2,49.6z"/>
			<path id="_Path_35" class="st1" d="M142.5,48.6c0.1-0.1,0.3-0.2,0.5-0.3c0.5-0.2,1.1,0.1,1.3,0.6c0,0.1,0.1,0.2,0.1,0.3
				c0,0.5,0,1.1,0,1.6c0,0.1-0.1,0.2-0.2,0.2h-0.7c-0.2,0-0.2-0.1-0.2-0.2c0-0.4,0-0.8,0-1.2c0-0.3-0.1-0.4-0.3-0.4
				c-0.2,0-0.4,0.2-0.4,0.4c0,0,0,0,0,0c0,0.4,0,0.8,0,1.2c0,0.2-0.1,0.3-0.3,0.3h-0.7c-0.1,0-0.2-0.1-0.2-0.2c0-0.8,0-1.5,0-2.3
				c0-0.1,0.1-0.2,0.2-0.2c0,0,0,0,0,0h0.7C142.4,48.3,142.5,48.3,142.5,48.6z"/>
			<path id="_Path_36" class="st1" d="M131.8,41.6c0-0.1,0.1-0.2,0.2-0.1c0.1,0.1,0.3,0.1,0.4,0.1c0.6,0.1,1.2,0.2,1.8,0.2
				c0.1,0.1,0.2,0,0.3,0c0.5,0.2,0.9,0.5,1.3,0.8l1.3,1c0.1,0,0.1,0.1,0.2,0.1c0,0.1-0.1,0.1-0.2,0.1c-1.6-0.2-3.2-0.4-4.7-0.6
				c-0.2,0-0.4-0.1-0.6-0.3c-0.1,0-0.1,0-0.2-0.1c0-0.2,0-0.5-0.1-0.7c0-0.1,0-0.2,0.2-0.3C131.8,41.7,131.8,41.7,131.8,41.6
				C131.8,41.6,131.8,41.6,131.8,41.6z"/>
			<path id="_Path_37" class="st1" d="M99.9,48.6c0.2-0.2,0.5-0.3,0.8-0.3c0.6,0,1,0.4,1.1,0.9c0,0,0,0,0,0.1c0,0.5,0,1,0,1.5
				c0,0.2-0.1,0.2-0.2,0.2h-0.7c-0.2,0-0.2-0.1-0.2-0.2c0-0.4,0-0.8,0-1.2s-0.1-0.4-0.3-0.4s-0.4,0.2-0.4,0.5s0,0.8,0,1.2
				c0,0.2-0.1,0.2-0.2,0.2H99c-0.2,0-0.2,0-0.2-0.2c0-0.8,0-1.5,0-2.3c0-0.1,0.1-0.2,0.2-0.2c0,0,0,0,0,0h0.6
				C99.7,48.3,99.9,48.2,99.9,48.6z"/>
			<path id="_Path_38" class="st1" d="M84.8,36.5c-0.1,0-0.1,0-0.2,0c-0.5-0.2-1-0.3-1.5-0.2c-0.9,0-1.8,0-2.7,0.1
				c-0.2,0-0.5,0-0.7-0.1c-0.2,0-0.4-0.3-0.3-0.5c0,0,0-0.1,0-0.1c0.1-0.3,0.4-0.5,0.6-0.6c0.5-0.2,1.1-0.2,1.7-0.2
				c0.4,0,0.8,0,1.2,0.1c0.1,0,0.2,0,0.3,0c0.1-0.1,0.3,0,0.4,0.1c0,0,0,0,0,0c0.6,0.2,1.3,0.5,1.8,0.8c0.4,0.2,0.8,0.4,1.2,0.6
				c-0.5,0-1-0.1-1.6-0.2C85,36.4,84.9,36.5,84.8,36.5z"/>
			<path id="_Path_39" class="st0" d="M130.6,37.2c0.2,0.3,0.5,0.1,0.7,0.3c0.2,0.2-0.1,0.2-0.2,0.3c-0.5,0.3-1,0.6-1.6,0.8
				c-0.9,0.4-1.9,0.7-2.8,1c-0.9,0.2-1.7,0.5-2.6,0.7s-1.5,0.3-2.3,0.4c-0.2,0-0.3,0.1-0.5,0c-0.3,0.1-0.6,0.1-0.9,0l0,0
				c-0.1-0.1-0.1-0.3,0-0.4c0,0,0.1-0.1,0.1-0.1l0.8-0.5c0.1-0.1,0.2-0.2,0.4-0.3c0.9-0.2,1.7-0.6,2.6-0.9c0.3-0.1,0.6-0.2,0.9-0.3
				c0.3-0.1,0.7-0.1,1.1-0.2c1-0.3,2.1-0.5,3.1-0.7c0.2,0,0.3-0.1,0.4-0.3c0-0.1,0-0.1,0.1-0.2c0.1,0,0.2,0,0.2,0.1c0,0,0,0,0,0
				c0,0.2,0.2,0.2,0.3,0.2S130.5,37.2,130.6,37.2z"/>
			<path id="_Path_40" class="st1" d="M106.6,50.8c-0.3,0.3-0.6,0.4-1,0.3c-0.4,0-0.8-0.3-0.8-0.7c-0.1-0.6-0.1-1.3,0-1.9
				c0-0.1,0.1-0.1,0.1-0.2c0,0,0,0,0,0h0.8c0.2,0,0.2,0.1,0.2,0.2c0,0.4,0,0.8,0,1.3c0,0.4,0.2,0.4,0.4,0.4s0.3-0.2,0.3-0.4
				c0-0.4,0-0.8,0-1.2c0-0.2,0.1-0.2,0.3-0.2c0.2,0,0.4,0,0.6,0c0.1,0,0.2,0.1,0.2,0.2c0,0.8,0,1.6,0,2.3c0,0.1-0.1,0.2-0.2,0.2
				h-0.7C106.6,51,106.6,50.9,106.6,50.8z"/>
			<path id="_Path_41" class="st0" d="M121.3,27.9c0.7-0.1,1.4,0.3,1.6,1c-0.2,0.2-0.3,0.2-0.5,0.1c-0.1-0.2-0.2-0.3-0.3-0.4
				c-0.1-0.1-0.2-0.1-0.3,0c0,0.2,0.2,0.3,0.2,0.4c0.1,0.1,0.1,0.3,0.1,0.5c-0.1,0.1-0.1,0.2-0.2,0.2c-0.1,0-0.2-0.1-0.2-0.2
				c-0.1-0.2-0.2-0.4-0.4-0.6c-0.2-0.2-0.4-0.2-0.6-0.1c0,0-0.1,0.1-0.1,0.1c-0.1,0.1-0.1,0.2,0,0.3c0.1,0.2,0.2,0.3,0.2,0.5
				c0.1,0.2,0.2,0.5,0.2,0.7c-0.1,0.1-0.1,0.2-0.2,0.2c-0.1,0-0.2-0.1-0.2-0.2c-0.1-0.3-0.2-0.5-0.3-0.8c-0.1-0.2-0.2-0.2-0.4,0
				s-0.3,0.4-0.1,0.8c0.2,0.3,0.3,0.7,0.4,1.1c-0.1,0.2-0.2,0.4-0.4,0.4s-0.1-0.1-0.2-0.2c-0.1-0.3-0.2-0.5-0.3-0.8
				c0-0.1,0-0.1-0.1-0.1s-0.1,0.1-0.2,0.1c-0.2,0.2-0.2,0.5,0,0.7c0.2,0.3,0.3,0.6,0.4,0.9c-0.1,0.2-0.2,0.4-0.3,0.5
				s-0.1-0.1-0.2-0.2c-0.1-0.2-0.2-0.5-0.3-0.7c0,0,0-0.1-0.1-0.1c-0.1,0-0.1,0.1-0.1,0.1c-0.1,0.2-0.1,0.4,0,0.5
				c0.2,0.3,0.3,0.5,0.4,0.8c0,0.2-0.1,0.4-0.2,0.5c-0.1,0-0.2-0.1-0.2-0.2s-0.2-0.3-0.3-0.5c-0.1,0.1-0.1,0.3,0,0.4
				c0.1,0.2,0.3,0.4,0.4,0.6c0,0.2-0.1,0.4-0.2,0.6c-0.1,0-0.2-0.1-0.2-0.2c-0.1-0.1-0.1-0.2-0.2-0.4c0.1,0.2,0.2,0.5,0.4,0.7
				c0,0,0.1,0.1,0.1,0.1c0,0.2-0.1,0.4-0.2,0.6c-0.2,0.1-0.2-0.1-0.3-0.2c0,0.3,0.1,0.5,0.2,0.7c-0.1,0.6,0,1.1,0.2,1.7
				c0,0.1-0.1,0.2-0.2,0.1c-0.6-0.9-0.9-1.9-0.7-3c0.1-1.5,0.5-3,1.2-4.4c0.4-0.7,0.8-1.3,1.4-1.8C120.3,28.3,120.8,28,121.3,27.9z"
				/>
			<path id="_Path_42" class="st1" d="M139.3,51.1c-0.8,0-1.5-0.6-1.5-1.3c0-0.2,0-0.4,0.1-0.7c0.4-0.7,1.2-1,1.9-0.8
				c0.7,0.2,1.1,0.9,1,1.6C140.7,50.7,140.1,51.1,139.3,51.1z"/>
			<path id="_Path_43" class="st0" d="M119.2,38.6L119.2,38.6c0-0.6,0.2-1,0.5-1.4c0.6-1,1.4-1.8,2.2-2.6c0.8-0.7,1.6-1.4,2.4-2
				c0.6-0.4,1.3-0.8,2-1.2c0.3-0.1,0.5-0.2,0.8-0.2c0.2,0,0.3,0,0.5,0.1c0.2,0.3,0.2,0.6,0,0.8c0,0.1-0.1,0.2-0.1,0.3
				s-0.2,0.2-0.3,0.2c-0.1,0-0.1-0.1-0.1-0.2c0-0.1,0.1-0.2,0.1-0.2c0.1-0.1,0.1-0.3-0.1-0.4c-0.1-0.1-0.2-0.1-0.3-0.1
				c-0.3,0.1-0.6,0.2-0.9,0.4c-0.1,0.1-0.1,0.1-0.2,0.2c-0.2,0.5-0.5,1.1-0.9,1.5c-0.1,0.1,0,0.2-0.1,0.3c-0.1,0.1-0.3,0.2-0.4,0.3
				s-0.1,0-0.1,0c0,0,0-0.1,0-0.2c0.1-0.2,0.2-0.4,0.3-0.6c0.1-0.2,0.3-0.6,0.5-0.9c0-0.1,0.1-0.1,0-0.2c-0.1-0.1-0.2,0.1-0.2,0.2
				c-0.2,0.4-0.4,0.8-0.5,1.3c-0.2,0.4-0.4,0.7-0.7,1c-0.1,0-0.2,0.1-0.2,0c-0.1-0.1,0-0.2,0-0.2c0.2-0.4,0.4-0.8,0.6-1.3
				c0-0.1,0.1-0.2,0-0.3c-0.2,0-0.3,0.2-0.4,0.3c-0.3,0.2-0.6,0.5-0.9,0.7c-0.1,0.1-0.2,0.2-0.2,0.3c-0.2,0.6-0.5,1.2-0.9,1.8
				c-0.1,0.1-0.1,0.2-0.2,0.3c-0.5,0.5-1,1-1.5,1.5c-0.2,0.2-0.3,0.4-0.3,0.6c0,0,0,0.1-0.1,0.1C119.5,38.8,119.3,38.8,119.2,38.6z"
				/>
			<path id="_Path_44" class="st0" d="M107.6,36c0,0.1,0,0.2,0.2,0.3c0.1,0.1,0.2,0.2,0,0.3l-0.1,0.1l0,0c0.1,0,0.2-0.1,0.4-0.1
				c-0.1,0.2-0.3,0.1-0.4,0.3c-0.1,0.2,0.1,0.1,0.1,0.2c0,0.1-0.1,0.1,0,0.2c0,0,0,0.1,0,0.2l0,0c0,0.1,0,0.3,0.1,0.4
				c0,0.1,0,0.2-0.1,0.3c0,0.1,0,0.2,0.1,0.2s-0.1,0.2,0,0.2l0,0l0.1,0.1c0,0,0,0.1,0,0.1c0,0.1,0,0.2,0,0.3v0.1c0,0.1,0,0.3,0,0.4
				c0,0,0,0.1,0,0.1c0,0,0,0.1,0,0.1c0,0.1,0,0.1,0,0.2c0,0.1,0,0.1,0,0.2c0,0,0,0.1,0,0.1c0,0.1,0,0.2,0,0.4c0,0.1,0,0.1,0,0.2
				c0,0.1,0,0.1,0,0.2c0.1,0.1,0,0.1,0,0.2s0,0.2,0,0.2s0,0.1,0,0.1s0,0.1,0,0.2s0,0.1,0,0.2c0,0.1,0,0.1,0,0.2c0,0.1,0,0.1,0,0.2
				c0,0.1,0,0.1,0,0.2c0,0,0,0.1,0,0.2c0,0.1,0,0.1,0,0.2c0,0.2,0,0.3,0,0.5c0,0.1-0.1,0.2-0.1,0.2h-0.1c-0.1-0.1-0.1-0.2-0.1-0.3
				c0-0.6,0-1.3-0.1-1.9c0-0.5,0-1.1-0.1-1.6c-0.1-1.1-0.1-2.2-0.2-3.4c0-0.4,0-0.8-0.1-1.3c0-1-0.1-2-0.2-2.9
				c0-0.4-0.1-0.7-0.1-1.1s-0.1-0.6-0.6-0.6c-1.1,0-2.3,0-3.4,0.1c-0.4,0-0.8,0-1.1,0.1c-0.1,0-0.2,0-0.3,0c0-0.4,0-0.4,0.4-0.5
				c0.7-0.1,1.5-0.1,2.2-0.2c0.3,0,0.6,0,0.8,0c0.7,0,1.3,0,2,0c0.2,0,0.3,0.1,0.3,0.3c0.1,1.5,0.2,2.9,0.3,4.4c0,0.1,0,0.2,0.1,0.3
				c0.1,0,0,0.1,0,0.2c0,0.2,0,0.4,0,0.7C107.7,35.9,107.6,36,107.6,36z"/>
			<path id="_Path_45" class="st1" d="M113.3,50.1c0,0.2,0,0.5,0,0.7s-0.1,0.2-0.2,0.2h-0.6l0,0c-0.2-0.3-0.4,0-0.5,0
				c-0.4,0.2-0.9,0-1.1-0.3c-0.1-0.1-0.1-0.3-0.1-0.4c0-0.3,0.2-0.5,0.4-0.7c0.3-0.1,0.6-0.2,0.8-0.1c0.1,0,0.2,0.1,0.2,0
				c0-0.1,0-0.2-0.1-0.2c-0.2-0.1-0.4-0.1-0.6,0c-0.3,0.1-0.6,0-0.7-0.3c0-0.1,0-0.1,0.1-0.2c0.6-0.6,1.6-0.6,2.2,0
				c0.2,0.2,0.2,0.4,0.2,0.7L113.3,50.1L113.3,50.1z"/>
			<path id="_Path_46" class="st1" d="M129.6,50h-0.6c-0.1,0-0.2,0-0.2,0.1c0,0.1,0,0.1,0.1,0.2c0.2,0.1,0.5,0.1,0.7,0
				c0.1,0,0.2-0.2,0.3,0c0.1,0.2,0.2,0.4,0.3,0.6c0,0.1-0.1,0.1-0.1,0.1c-0.5,0.3-1.2,0.3-1.7,0c-0.5-0.3-0.8-0.9-0.7-1.5
				c0.1-0.6,0.6-1.1,1.2-1.2c0.7-0.2,1.3,0.2,1.5,0.9c0,0.1,0,0.3,0,0.4c0,0.2-0.1,0.3-0.3,0.3C130,49.9,129.8,49.9,129.6,50
				L129.6,50z"/>
			<path id="_Path_47" class="st1" d="M97.5,50c-0.2,0-0.4,0-0.5,0s-0.2,0-0.2,0.1c0,0.1,0.1,0.1,0.1,0.2c0.2,0.1,0.5,0.1,0.7,0
				c0.1,0,0.2-0.1,0.3,0c0.1,0.2,0.2,0.4,0.3,0.6c0,0.1-0.1,0.1-0.1,0.1c-0.6,0.3-1.2,0.3-1.8,0c-0.5-0.3-0.8-0.9-0.6-1.5
				c0.1-0.6,0.5-1,1.1-1.1c0.7-0.2,1.4,0.2,1.6,0.8c0.1,0.2,0.1,0.4,0,0.5c0,0.2-0.1,0.3-0.3,0.3L97.5,50L97.5,50z"/>
			<path id="_Path_48" class="st1" d="M126,49.8c0.2-0.4,0.3-0.9,0.5-1.3c0.1-0.2,0.2-0.3,0.4-0.2l0.6,0.1c0.1,0,0.2,0.1,0.1,0.2
				c-0.3,0.8-0.7,1.6-1.1,2.3c0,0.1-0.1,0.1-0.2,0.1l0,0c-0.9,0.1-1,0-1.3-0.8c-0.2-0.5-0.3-1-0.5-1.6c-0.1-0.2,0-0.3,0.2-0.3
				l0.6-0.1c0.2,0,0.2,0,0.3,0.2c0.1,0.3,0.2,0.7,0.3,1C125.9,49.6,125.9,49.7,126,49.8z"/>
			<path id="_Path_49" class="st1" d="M94,49.3c0.1-0.3,0.2-0.6,0.4-0.9c0-0.1,0.1-0.2,0.3-0.2l0.7,0.1c0.2,0,0.2,0.1,0.1,0.3
				c-0.2,0.5-0.5,1.1-0.7,1.6c-0.1,0.2-0.2,0.4-0.3,0.6c-0.1,0.2-0.2,0.3-0.4,0.2c-0.9,0-0.9,0-1.1-0.8c-0.2-0.5-0.4-1.1-0.6-1.6
				c-0.1-0.2,0-0.3,0.2-0.3l0.5-0.1c0.4-0.1,0.4-0.1,0.5,0.3c0.1,0.4,0.2,0.6,0.2,0.8c0.1,0.1,0.1,0.1,0.2,0
				C93.9,49.4,94,49.3,94,49.3z"/>
			<path id="_Path_50" class="st1" d="M133.9,50c-0.4-0.1-0.6-0.5-0.5-0.9c0-0.4,0.3-0.7,0.7-0.8c0.5-0.1,1-0.1,1.5,0.1l0,0
				c0.2,0.2-0.1,0.4-0.1,0.6s-0.1,0.2-0.3,0.1c-0.2-0.1-0.3-0.1-0.5-0.1c-0.1,0-0.2,0-0.2,0.1c0,0.1,0.1,0.1,0.2,0.1l0.5,0.1
				c0.3,0,0.6,0.3,0.6,0.6c0.1,0.4-0.1,0.7-0.4,0.9c-0.2,0.1-0.4,0.2-0.6,0.2c-0.4,0-0.8,0-1.2-0.2c-0.1,0-0.1,0-0.2-0.1
				c0-0.3,0.1-0.5,0.3-0.8c0.2,0,0.4,0.1,0.6,0.1C134.1,50.2,134,50.1,133.9,50z"/>
			<path id="_Path_51" class="st0" d="M119.3,27.9c0.2-0.1,0.5-0.1,0.7-0.1c0,0.1-0.1,0.1-0.1,0.2c-0.9,0.3-1.6,0.9-2,1.7
				c-0.3,0.6-0.6,1.2-0.8,1.8c-0.2,0.7-0.3,1.4-0.4,2.1c0,0.6,0,1.2,0.1,1.8c0.1,0.6,0.2,1.2,0.5,1.7c0.1,0.3,0.3,0.5,0.6,0.7
				c0,0,0.1,0.1,0.1,0.1c0,0.1,0.1,0.1,0.2,0.2c0.1,0,0.2,0.1,0.2,0.2c0,0.2-0.2,0.1-0.3,0.1h-0.1c-0.3,0-0.6-0.2-0.8-0.4
				c-0.3-0.2-0.5-0.4-0.7-0.7c-0.2-0.2-0.3-0.4-0.4-0.7c-0.1-0.3-0.3-0.6-0.4-0.9c-0.1-0.4-0.2-0.8-0.3-1.1c0-0.1-0.1-0.2,0-0.4
				c-0.1-0.4-0.1-0.9-0.1-1.3c0-0.1,0-0.3,0-0.4c0-0.3,0-0.6,0-0.9c0-0.1,0.1-0.3,0-0.4c0.1-0.3,0.1-0.6,0.2-0.9
				c0.1-0.1,0-0.3,0.1-0.4c0.1-0.3,0.2-0.6,0.4-0.9c0.1-0.1,0.2-0.3,0.3-0.4c0.1-0.2,0.3-0.4,0.5-0.5c0.1-0.1,0.3-0.2,0.5-0.2
				c0.2-0.1,0.3-0.1,0.5-0.2c0.1,0.1,0,0.2-0.1,0.2c-0.8,0.5-1.3,1.2-1.6,2.1c-0.2,0.4-0.3,0.9-0.3,1.3c-0.1,0.5-0.1,1-0.1,1.5
				c0,0.2,0,0.5,0,0.7c0,0.3,0.1,0.7,0.2,1c0,0.2,0.1,0.4,0.1,0.5c0.2,0.8,0.6,1.6,1.1,2.2c-0.2-0.3-0.4-0.6-0.6-0.9
				c-0.1-0.4-0.3-0.8-0.3-1.3c0-0.1,0-0.1,0-0.2c0-0.2,0-0.4,0-0.6c0-0.3,0-0.6,0-0.8c0-0.3,0-0.3,0-0.5c0-0.2,0-0.5,0.1-0.7
				c0.1-0.1,0-0.3,0.1-0.5c0-0.2,0.1-0.4,0.1-0.6c0.1-0.2,0.1-0.3,0.2-0.5c0.1-0.3,0.2-0.7,0.4-1c0.1-0.1,0.1-0.2,0.2-0.3
				c0.1-0.3,0.3-0.5,0.5-0.7c0.1-0.1,0.2-0.3,0.3-0.3s0.4-0.2,0.5-0.4C118.8,27.8,119.1,27.9,119.3,27.9z"/>
			<path id="_Path_52" class="st1" d="M102.5,49.8c0-0.1,0-0.3,0-0.4s0-0.3-0.2-0.3c-0.1,0-0.1,0-0.1-0.1c0,0,0,0,0,0
				c0-0.2,0-0.4,0-0.5c0-0.1,0-0.1,0.1-0.2c0,0,0,0,0.1,0c0.2,0,0.2-0.1,0.2-0.2c0-0.4-0.1-0.4,0.4-0.5c0.1,0,0.3,0,0.4,0
				s0.3,0.1,0.2,0.3V48c0,0.3,0,0.3,0.3,0.3s0.3,0.1,0.3,0.3v0.2c0,0.4,0,0.4-0.4,0.4c-0.2,0-0.3,0.1-0.3,0.3s0,0.3,0,0.4
				s0.1,0.3,0.3,0.3c0.2-0.1,0.3,0,0.4,0.2c0.1,0.5,0,0.7-0.5,0.7h-0.4c-0.7,0-1.1-0.3-1-1.1L102.5,49.8L102.5,49.8z"/>
			<path id="_Path_53" class="st0" d="M116.3,36.5c0.2,0.5,0.5,0.9,0.9,1.2c0.2,0.2,0.5,0.4,0.8,0.4c0,0.1,0,0.1-0.2,0.1h-0.1
				c-0.8-0.3-1.4-0.8-1.9-1.4c-0.9-1.1-1.4-2.5-1.6-3.9c-0.1-0.8-0.2-1.6-0.1-2.4c0.1-1,0.5-1.9,1.3-2.6c0.5-0.3,1.1-0.4,1.6-0.3
				l0.2,0.1l-0.4,0.3c-0.2,0.1-0.4,0-0.7,0.1c-0.1,0-0.2,0-0.2,0.1c0,0.1,0.1,0.1,0.1,0.1c0,0,0.2,0.1,0.2,0.2l-0.3,0.4
				c-0.2,0-0.4-0.1-0.5-0.2c-0.2-0.1-0.4,0-0.5,0.2c0,0,0,0.1,0,0.1c0,0.1,0,0.2,0.1,0.2l0.3,0.2c0.1,0.1,0.2,0.2,0.2,0.3l-0.1,0.4
				c-0.1,0-0.2,0-0.3-0.1c-0.1-0.1-0.1-0.1-0.2-0.1c-0.1,0-0.3-0.2-0.4,0s-0.1,0.5,0.1,0.6c0.2,0.1,0.5,0.2,0.6,0.5l-0.1,0.4
				c-0.1,0.1-0.2,0-0.2,0l-0.3-0.2c-0.2-0.1-0.2,0-0.2,0.1c-0.1,0.2,0.1,0.5,0.3,0.6c0.2,0.1,0.4,0.2,0.5,0.4v0.4
				c-0.1,0.1-0.2,0-0.3,0c-0.1-0.1-0.2-0.1-0.3-0.1c-0.1,0-0.2,0-0.1,0.1c0,0.3,0.1,0.5,0.2,0.8c0.1,0.1,0.2,0.2,0.3,0.2
				c0.1,0.1,0.3,0.2,0.3,0.3c0.1,0.1,0.1,0.2,0.1,0.4c-0.1,0.1-0.2,0-0.4,0s0,0.2,0,0.2c0.2,0.6,0.5,1.1,0.8,1.6
				C116.1,36.5,116.2,36.5,116.3,36.5z"/>
			<path id="_Path_54" class="st0" d="M107.8,41.2v-0.2c0.1-0.1,0.2,0,0.3,0c0.8,0.3,1.7,0.6,2.5,0.8c0.6,0.1,1.3,0.2,1.9,0.3
				c0.6,0.1,1.2,0.1,1.9,0.1c0.9,0,1.8-0.1,2.7-0.4c0.1,0,0.2-0.1,0.2-0.1c-0.5,0.3-1,0.4-1.6,0.5c-1,0.1-1.9,0.1-2.9,0.1
				c-1.4-0.1-2.8-0.4-4.1-0.8c-0.3-0.1-0.5-0.2-0.8-0.3c-0.1,0-0.2-0.1-0.2-0.2v-0.1l0,0c0.3,0,0.5,0.1,0.7,0.2
				c0.9,0.3,1.9,0.6,2.8,0.7c1,0.2,2,0.2,3,0.2c0.8,0,1.5-0.1,2.3-0.3c0.4-0.1,0.7-0.3,1-0.5c0,0,0.1,0,0.1,0c0,0.4-0.1,0.7-0.2,1.1
				c-0.1,0.3-0.3,0.4-0.6,0.5c-0.8,0.3-1.6,0.4-2.5,0.4c-0.4,0-0.9,0-1.3,0c-0.6,0-1.1-0.1-1.7-0.2c-0.8-0.1-1.7-0.3-2.5-0.5
				c-0.3-0.1-0.7-0.2-1-0.4c-0.1,0-0.1-0.1-0.2-0.2v-0.2c0.1,0,0.2,0,0.2,0c1.1,0.4,2.2,0.7,3.3,0.9c0.7,0.1,1.4,0.1,2,0.2
				c0.9,0.1,1.8,0,2.6-0.1c0.4,0,0.8-0.2,1.1-0.4c-0.5,0.3-1,0.4-1.6,0.4c-0.6,0.1-1.1,0.1-1.7,0.1c-0.8,0-1.6-0.1-2.4-0.2
				c-1-0.1-2-0.4-3-0.7c-0.2-0.1-0.5-0.1-0.6-0.3v-0.2c0.1-0.1,0.2,0,0.3,0c1,0.4,2.1,0.7,3.2,0.9c0.7,0.1,1.4,0.2,2,0.2
				c1,0.1,2,0,3-0.2c0.3-0.1,0.6-0.2,0.9-0.3c-0.4,0.2-0.8,0.3-1.3,0.4c-0.7,0.1-1.4,0.2-2.1,0.1c-1.9,0-3.7-0.4-5.5-1
				C108.2,41.4,108,41.3,107.8,41.2z"/>
			<path id="_Path_55" class="st0" d="M128.4,32.2c0.2,0.2,0.3,0.2,0.1,0.5c-0.3,0.5-0.6,0.9-1,1.3c-0.4,0.4-0.8,0.8-1.2,1.1
				c0,0-0.1,0.1,0,0.1c0.1,0.1-0.1,0.1-0.1,0.1c-0.2,0.1-0.5,0.2-0.7,0.3c0,0-0.1,0.1-0.2,0c0-0.1,0-0.1,0-0.2l0.8-0.7
				c0.5-0.4,1-0.9,1.5-1.4c0.1-0.1,0.2-0.2,0.3-0.4c0.1-0.1,0.1-0.1,0-0.2c-0.2-0.1-0.5,0-0.6,0.2c-0.5,0.7-1,1.4-1.7,2
				c-0.2,0.2-0.3,0.3-0.5,0.5c-0.3,0.2-0.5,0.4-0.7,0.7c-0.4,0.2-0.8,0.4-1.2,0.6c-0.1,0-0.1,0.1-0.2,0c-0.1-0.1,0-0.1,0.1-0.2
				c0.4-0.3,0.9-0.7,1.3-1.1c0.7-0.6,1.4-1.3,2-2.1l0,0l0,0c-0.4,0.2-0.9,0.5-1.2,0.8c-0.7,0.4-1.3,1-1.7,1.6
				c-0.3,0.4-0.6,0.7-0.9,1c-0.2,0.1-0.3,0.3-0.3,0.5c-0.5,0.4-1,0.7-1.5,1c0,0-0.1,0-0.2,0.1c0,0-0.1,0,0,0.1c0,0,0.1,0.1,0,0.1
				c0,0,0,0,0,0c-0.3,0.2-0.4,0.4-0.7,0.6l-0.2-0.1c0-0.4,0.2-0.7,0.5-0.9c0.4-0.4,0.8-0.8,1.2-1.2c0.5-0.5,1.1-0.9,1.7-1.4
				c0.4-0.4,0.8-0.6,1.2-0.9c0.2-0.2,0.5-0.4,0.8-0.5c0.6-0.4,1.2-0.8,1.8-1.2C127.3,32.6,127.8,32.3,128.4,32.2z"/>
			<path id="_Path_56" class="st0" d="M131.7,42.8L131.7,42.8c0.1,0.2-0.1,0.4-0.3,0.5c-0.5,0.3-1.2,0.5-1.8,0.6
				c-0.9,0.1-1.8,0.2-2.7,0.1c-1.6,0-3.2-0.3-4.7-0.8c-0.4-0.2-0.9-0.4-1.3-0.6c-0.4-0.2-0.5-0.6-0.5-0.9c0,0,0,0,0-0.1
				c0.9,0.8,2.1,1.2,3.3,1.2c2,0.3,4.1,0.2,6.1-0.3c0.6-0.1,1.2-0.4,1.7-0.7c0.1-0.1,0.1-0.1,0.2-0.2c0.1,0.1,0.1,0.2,0,0.2
				c-0.1,0.1-0.1,0.1-0.2,0.2c-0.2,0.1-0.1,0.3-0.2,0.5c-0.1,0.1-0.1,0.2-0.2,0.1c0.1,0.1,0.2,0.2,0.1,0.3s-0.2,0-0.3,0
				c-0.1,0-0.2-0.1-0.4,0s-0.2,0-0.2,0c0.1,0,0.2,0.1,0.3,0.2c0.1,0.1,0.1,0.1,0.1,0.2c-0.1,0.1-0.2,0.1-0.2,0c0,0,0,0,0,0
				c-0.1,0-0.2-0.1-0.2-0.1c-0.2,0-0.2-0.2-0.4-0.2c0.1,0.1,0.2,0.1,0.4,0.1c0.1,0,0.2,0.1,0.2,0.2s-0.2,0.1-0.2,0.1
				c-0.5-0.2-1.1-0.3-1.6-0.2c-1.2,0.2-2.3,0.2-3.5,0.2c-0.4,0-0.9-0.1-1.3-0.2c-0.2,0-0.4,0-0.6,0c-0.8-0.2-1.5-0.5-2.2-0.9
				c0.2,0.1,0.3,0.2,0.5,0.3c0.2,0.1,0.4,0.2,0.5,0.2l0.6,0.2c0.6,0.2,1.2,0.4,1.9,0.5c0.5,0.1,1.1,0.2,1.6,0.2
				c0.6,0.1,1.2,0.1,1.8,0.1c0.9,0,1.9-0.1,2.8-0.4c0.3-0.1,0.6-0.2,0.9-0.4C131.6,42.8,131.6,42.8,131.7,42.8z"/>
			<path id="_Path_57" class="st0" d="M118,37.9c-0.6-0.5-1-1.3-1.2-2.1c-0.3-1.4-0.3-2.9,0.2-4.3c0.2-0.9,0.6-1.8,1.2-2.5
				c0.4-0.6,1.1-1.1,1.8-1.3c0.3,0,0.7,0.1,1,0.2c-0.1,0.2-0.4,0.2-0.5,0.4c-0.1,0.1-0.1,0-0.2,0c-0.2,0-0.3,0-0.2,0.3
				c0,0.1-0.1,0.2-0.2,0.2c-0.1,0-0.2,0-0.3-0.1c-0.2-0.1-0.5-0.1-0.6,0.1c0,0,0,0,0,0c-0.1,0.1-0.1,0.2,0,0.2
				c0.1,0.1,0.2,0.3,0.3,0.4c0,0.2-0.1,0.3-0.3,0.4c-0.2,0-0.2-0.1-0.3-0.2s-0.1-0.3-0.4-0.2c-0.2,0.1-0.3,0.4-0.2,0.6c0,0,0,0,0,0
				c0.2,0.2,0.3,0.4,0.4,0.6c0,0.2-0.1,0.3-0.2,0.4c-0.2,0-0.2-0.2-0.3-0.3s-0.1-0.3-0.3-0.2s-0.1,0.2-0.2,0.3
				c-0.1,0.1,0,0.3,0.1,0.4c0.2,0.2,0.3,0.4,0.4,0.6c0,0.1,0,0.3-0.2,0.4c-0.2,0.1-0.2,0-0.3-0.1c0-0.1-0.1-0.1-0.1-0.2
				c-0.1-0.1-0.1-0.3-0.3-0.1c-0.1,0.1-0.1,0.3,0,0.4c0.2,0.2,0.3,0.3,0.4,0.5c0,0,0.1,0.1,0.1,0.1c0,0.2-0.1,0.4-0.2,0.6
				c-0.1,0-0.2,0-0.2-0.1c-0.1-0.1-0.2-0.2-0.2-0.4c0,0-0.1-0.1-0.1-0.1c0,0-0.1,0.1-0.1,0.1c0,0.1,0.1,0.2,0.1,0.3
				c0.2,0.2,0.3,0.3,0.4,0.5c0,0.3,0,0.5-0.1,0.8c-0.1,0.1-0.2,0-0.2-0.1c0-0.2-0.2-0.4-0.3-0.5c-0.1,0.4,0.1,0.8,0.4,1
				c0.1,0,0.1,0.1,0.1,0.1c0,0.1,0,0.3,0,0.4c-0.1,0.1-0.2,0.1-0.3,0.1c0.2,0.5,0.2,1,0.6,1.3c0.1,0.3,0.2,0.5,0.4,0.8
				C118,37.9,118,37.9,118,37.9z"/>
			<path id="_Path_58" class="st0" d="M111.7,29.9c0.3-0.4,0.7-0.8,1.2-0.8c0.1,0,0.3-0.1,0.4-0.1c0.1,0.2-0.1,0.3-0.2,0.5
				c-0.2,0.1-0.3,0.2-0.5,0.3c-0.1,0.1-0.1,0.1,0,0.2c0.1,0,0.2,0.1,0.3,0.2c-0.1,0.1,0,0.3-0.1,0.5c-0.1,0.1-0.3-0.1-0.4-0.1
				c-0.3,0-0.5,0.1-0.5,0.4s0.1,0.3,0.3,0.3c0.2,0,0.3,0,0.4-0.2c0.1-0.2,0.1-0.3,0.2-0.1c0,0.3,0,0.6,0,0.9s-0.2,0.1-0.4,0.1
				c-0.5-0.1-0.6,0-0.5,0.5c0.1,0.4,0.2,0.6,0.6,0.6c0.1,0,0.3,0.1,0.4,0.1c0.1,0.1,0.2,0.3,0.2,0.4c-0.1,0.2-0.2,0.1-0.3,0
				c-0.1-0.1-0.3-0.1-0.3,0s0,0.2,0.1,0.4c0.2,0.4,0.5,0.9,0.8,1.2c0.2,0.2,0.4,0.3,0.7,0.3c0.3,0.2,0.3,0.3,0,0.5
				c0.1,0.3,0.4,0.5,0.7,0.5c0.1,0,0.1,0.1,0.2,0.1c0.5,0.7,1.2,1.2,1.9,1.5c0.4,0.2,0.7,0.2,1.1,0.2c0.1,0,0.1,0,0.2,0.1
				c0,0.1,0,0.1-0.1,0.1c-0.1,0-0.1,0-0.2,0c-0.8,0-1.6-0.3-2.3-0.7c-0.4-0.2-0.8-0.5-1.1-0.8c-1-0.9-1.9-2.1-2.4-3.3
				c-0.4-0.8-0.6-1.7-0.6-2.6c0-0.3,0.1-0.7,0.2-1C111.7,30,111.7,29.9,111.7,29.9z"/>
			<path id="_Path_59" class="st0" d="M113.8,28.5c0.4-0.3,0.9-0.4,1.4-0.3c0,0.2-0.2,0.3-0.3,0.5c-0.2,0-0.3,0.1-0.5,0.1
				c0,0-0.1,0-0.1,0.1c0,0.1,0.1,0.1,0.1,0.1c0.1,0,0.2,0.1,0.2,0.2c0,0.2-0.1,0.3-0.2,0.4c-0.2,0-0.3-0.1-0.5-0.1
				c-0.2,0-0.3,0-0.4,0.2c-0.1,0.2,0,0.3,0.2,0.4c0.2,0.1,0.4,0.2,0.6,0.3c0,0.2,0,0.3-0.1,0.5c-0.1,0.1-0.2-0.1-0.3-0.1
				c-0.1,0-0.2-0.1-0.3-0.1c-0.1,0-0.2,0-0.2,0.1c-0.1,0.2-0.1,0.3,0,0.5c0.1,0.2,0.3,0.2,0.6,0.2c0.1,0,0.2-0.1,0.2,0
				c0,0.2,0,0.4,0,0.6c-0.1,0.2-0.2,0.1-0.3,0.1c-0.1,0-0.3-0.2-0.4,0c-0.1,0.2,0,0.3,0,0.4c0,0.1,0.1,0.2,0.1,0.3
				c0,0.2,0.2,0.4,0.4,0.4c0.2,0,0.3,0.2,0.4,0.2c0.1,0.1,0.1,0.2,0.1,0.4c-0.1,0.1-0.2,0.1-0.3,0.1c0,0-0.1,0-0.2,0
				c0,0,0,0.1,0,0.1c0.3,0.6,0.6,1.2,1,1.7c0.1,0.1,0.2,0.1,0.3,0.1c0.1,0.1,0.2,0.3,0.2,0.4c0,0.1,0,0.2,0.2,0.3
				c0.2,0.1,0.2,0,0.2,0.1c0.5,0.6,1.1,1,1.8,1.3c0.1,0,0.2,0,0.3,0.1l0,0c0.1,0.1,0.2,0,0.2,0.1c-0.2,0.1-0.5,0.1-0.7,0
				c-0.6-0.2-1.2-0.5-1.7-0.9c-1-0.9-1.7-1.9-2.2-3.1c-0.3-0.7-0.6-1.5-0.7-2.3c0-0.5,0-0.9,0-1.4c0-0.6,0.2-1.1,0.6-1.6
				C113.5,28.8,113.7,28.7,113.8,28.5z"/>
			<path id="_Path_60" class="st0" d="M117.9,38.5h0.2c0,0.1,0.2-0.1,0.2,0.1l0,0c-0.8,0.2-1.7,0.1-2.4-0.2c-0.7-0.3-1.3-0.6-1.9-1
				c-1.1-0.8-2.1-1.8-2.8-3c-0.4-0.7-0.7-1.4-0.8-2.2c0-0.2,0-0.4,0-0.6c0.1-0.1,0.1-0.2,0-0.3c0.2-0.6,0.7-1.1,1.4-1.2
				c0,0.2-0.1,0.5-0.2,0.7c-0.2,0-0.4,0.1-0.5,0.3c0.1,0.1,0.3,0,0.4,0.2v0.3c-0.1,0.1-0.3,0.2-0.4,0.2c-0.2,0-0.3,0.1-0.3,0.4
				c0,0.2,0.1,0.5,0.4,0.5c0.2,0,0.4,0,0.6,0c0.1,0.1,0.2,0.3,0.2,0.5c-0.1,0.2-0.3,0.1-0.5,0.1s-0.3,0-0.2,0.3
				c0.2,0.4,0.4,0.8,0.7,1.1c0,0.1,0.1,0.1,0.1,0.1c0.3,0.1,0.6,0.2,0.8,0.2c0.1,0,0.1,0.1,0.2,0.2s0,0.2-0.1,0.2
				c-0.1,0-0.2,0-0.3,0c0.1,0.3,0.4,0.6,0.7,0.7c0.2,0.1,0.3,0.1,0.5,0.1c0.1,0.1,0.2,0.1,0.1,0.3s-0.2,0-0.3,0c0.1,0,0.2,0,0.3,0
				c0.1,0,0.2,0,0.2,0.1c0,0,0,0,0,0c0,0.1-0.1,0.2-0.2,0.1c0.1,0,0.2,0,0.4,0c0.1,0,0.2,0.1,0.2,0.2c0.1,0.1,0.1,0.2-0.1,0.2
				c0.2,0.1,0.3,0.1,0.5,0.1c0.4,0.4,0.9,0.7,1.5,0.9C116.9,38.3,117.4,38.5,117.9,38.5z"/>
			<path id="_Path_61" class="st2" d="M76.6,40.4c0.4,0,0.8,0.2,1.2,0.2c0.6,0,1.2,0,1.8,0c0.5-0.1,1.1-0.1,1.6,0
				c0.2,0,0.5,0.1,0.5,0.4c0,0.3-0.1,0.4-0.4,0.5c-0.5,0.3-1,0.4-1.6,0.3c-0.5-0.1-1-0.4-1.5-0.6L77.8,41c-0.3-0.1-0.7-0.3-0.9-0.5
				l0,0C76.7,40.6,76.6,40.6,76.6,40.4z"/>
			<path id="_Path_62" class="st0" d="M116.9,30.9l-0.1,0.5c-0.2,0-0.2-0.2-0.4-0.3s-0.2-0.2-0.3,0.1c-0.1,0.2,0,0.3,0.1,0.4
				c0.1,0.1,0.3,0.2,0.4,0.4l-0.1,0.5c-0.2,0.1-0.2,0-0.3-0.1c-0.1-0.1-0.1-0.1-0.2-0.1c-0.1,0-0.1,0.1-0.1,0.2c0,0.1,0,0.3,0.2,0.4
				c0.1,0.1,0.2,0.2,0.3,0.3c0,0.1,0,0.3,0,0.5c-0.1,0.1-0.2,0-0.2,0s-0.2,0-0.2,0.1c0,0.2,0,0.4,0.1,0.6c0,0.1,0.2,0.2,0.3,0.2
				c0,0.2,0,0.4,0,0.6c-0.1,0.1-0.2,0.1-0.1,0.2c0.1,0.4,0.2,0.8,0.4,1.2c0.2,0.4,0.5,0.8,0.7,1.1l0,0c-0.1-0.1-0.3-0.3-0.4-0.4
				c-0.7-0.9-1.1-2-1.2-3.1c-0.2-1.4-0.1-2.8,0.2-4.1c0.2-0.7,0.6-1.3,1.1-1.8c0.2-0.2,0.4-0.3,0.7-0.5c0.3-0.1,0.7-0.1,1,0
				c0.1,0.1,0.3,0.1,0.4,0.1c-0.2,0.1-0.3,0.1-0.5,0.2c-0.1,0-0.2,0.1-0.4,0.1c-0.1,0-0.2,0-0.1,0.2s0,0.1,0,0.1l-0.3,0.3
				c-0.1,0-0.2-0.1-0.3-0.2c-0.2-0.1-0.3-0.1-0.5,0.1s-0.1,0.3,0,0.4c0.2,0.2,0.3,0.2,0.3,0.4c-0.1,0.1-0.1,0.2-0.2,0.3
				c-0.1,0.1-0.2,0-0.3-0.1s-0.2-0.3-0.3-0.2s-0.2,0.3-0.2,0.4c0,0.1,0,0.3,0.2,0.3C116.7,30.5,116.9,30.7,116.9,30.9z"/>
			<path id="_Path_63" class="st1" d="M109.4,48.6c0.2-0.2,0.5-0.3,0.9-0.3c0.1,0,0.2,0.1,0.2,0.2c0,0.3,0,0.5-0.1,0.8
				c0,0.1-0.1,0.2-0.2,0.1h-0.2c-0.3,0-0.4,0.1-0.4,0.4c0,0.3,0,0.7,0,1c0,0.2-0.1,0.3-0.3,0.3h-0.7c-0.1,0-0.2,0-0.2-0.2
				c0-0.8,0-1.6,0-2.4c0-0.1,0.1-0.2,0.2-0.2c0,0,0,0,0,0h0.6C109.3,48.3,109.5,48.3,109.4,48.6z"/>
			<path id="_Path_64" class="st1" d="M132.1,48.6c0.2-0.2,0.5-0.3,0.8-0.3c0.2,0,0.2,0.1,0.2,0.2c0,0.2,0,0.3,0,0.4
				c-0.1,0.4-0.1,0.4-0.5,0.4c-0.4,0-0.4,0.1-0.4,0.4c0,0.3,0,0.7,0,1c0,0.2,0,0.2-0.2,0.2h-0.8c-0.2,0-0.2,0-0.2-0.2
				c0-0.8,0-1.5,0-2.3c0-0.2,0.1-0.2,0.2-0.2h0.7C132,48.3,132.1,48.3,132.1,48.6z"/>
			<path id="_Path_65" class="st0" d="M111.1,34.8c0.1,0,0.1,0.1,0.1,0.2c0,0.1-0.2,0-0.2,0s-0.3,0-0.4,0.1c0.3,0.4,0.6,0.9,1.2,1
				c0.1,0,0.3,0.1,0.4,0.1c0.1,0,0.1,0.1,0.1,0.2c-0.2,0-0.5-0.1-0.7,0l0.9,0.1c-0.2,0.1-0.4,0-0.6,0c0,0-0.1,0-0.1,0s0.1,0,0.1,0
				c0.3,0.1,0.6,0.1,0.8,0.1c0.1,0.1,0.2,0.1,0.2,0.2l-0.6-0.1c0,0-0.1,0-0.1,0s0,0,0.1,0c0.3,0.1,0.6,0.1,0.9,0.2
				c0.1,0.1,0.2,0.1,0.2,0.2c-0.2,0-0.4,0-0.6-0.1c0.1,0.1,0.2,0.1,0.2,0.1c0.2,0.1,0.5,0.2,0.8,0.2c0.1,0,0.2,0.1,0.2,0.2
				c-0.1,0.1-0.2,0-0.3,0c0.1,0.1,0.2,0.1,0.3,0.1c0.3,0.1,0.6,0.2,0.8,0.3c0.4,0.2,0.8,0.3,1.2,0.4c0.4,0.1,0.8,0.2,1.2,0.2
				c-0.9,0.1-1.7,0-2.6-0.3c-1.4-0.5-2.6-1.2-3.7-2.2c-0.8-0.7-1.4-1.6-1.7-2.6c0-0.2-0.1-0.5-0.1-0.7c0-0.1,0-0.2,0-0.3
				c0.1-0.5,0.5-0.9,0.9-1.1v0.5c-0.1,0.1-0.1,0.3-0.2,0.4c-0.2,0.2-0.1,0.3,0.1,0.3c0.1,0,0.1,0,0.2,0c0,0.1,0.1,0.2,0.1,0.4
				c-0.1,0.1-0.2,0.2-0.3,0.2c-0.1,0-0.2,0.1-0.2,0.2c0,0,0,0.1,0,0.1c0.1,0.3,0.2,0.5,0.3,0.8c0.1,0.1,0.2,0.2,0.4,0.2
				C110.7,34.5,110.9,34.6,111.1,34.8z"/>
			<path id="_Path_66" class="st0" d="M158.5,31.2c-0.1,0.1-0.1,0.3-0.1,0.5c0.1,1.3,0.2,2.5,0.3,3.8c0,0.2,0,0.5,0,0.7
				c0,0.2,0,0.3,0.1,0.3c0,0.2-0.2,0.2-0.3,0.4l-0.1-0.2c-0.1-0.3-0.2-0.6-0.2-0.8c-0.2-1.1-0.3-2.2-0.5-3.4c0-0.2,0-0.3-0.1-0.5
				s0-0.2,0.1-0.2c0.1-0.5,0-0.9-0.1-1.4c0-0.2-0.1-0.4-0.1-0.6c0,0,0-0.1,0-0.1c-0.1-0.4-0.1-0.4,0.2-0.4c0.2,0,0.2,0.1,0.3,0.2
				c0.1,0.5,0.1,1,0.2,1.4C158.4,31,158.3,31.2,158.5,31.2z"/>
			<path id="_Path_67" class="st0" d="M107.6,36c0-0.3,0-0.6,0-0.8c0-0.1,0-0.2,0.1-0.3c0.2-0.1,0.4-0.2,0.6-0.2
				c0.1,0.1,0,0.2,0.1,0.3s-0.1,0.1-0.2,0.2c-0.2,0.1-0.3,0.3-0.2,0.4c0,0.3,0.3,0.4,0.5,0.5c0.2-0.1,0.5-0.1,0.7,0
				c0,0,0.1,0.1,0.1,0.1c0,0.1-0.1,0.1-0.1,0.1c-0.2,0-0.4,0.1-0.6,0.1c0.3,0,0.6-0.1,1-0.1c-0.3,0.1-0.5,0.1-0.8,0.2
				c0.2,0,0.5,0,0.7,0h0.2c0.1,0,0.2,0,0.1,0.1c0,0.1-0.1,0.1-0.2,0.1c-0.2,0-0.3,0-0.5,0c-0.1,0,0,0.1,0,0.1c0.3,0,0.6,0,0.9-0.1
				c0.1,0,0.2,0.1,0.2,0.2c0,0.1-0.1,0.1-0.2,0.1h-0.5c0,0.1,0.1,0.1,0.2,0.1c0.3,0,0.6,0,0.8,0l0.2,0.2v0h-0.6
				c0,0.1,0.1,0.1,0.1,0.1c0.2,0,0.4,0.1,0.6,0.1c0.1,0,0.2,0,0.3,0c0.1,0,0.2,0,0.2,0.1c-0.2,0.1-0.3,0-0.5,0
				c0.2,0.1,0.3,0,0.5,0.1c0.2,0.1,0.3,0,0.5,0.1l0.3,0.2c-0.1,0.1-0.2,0-0.3,0.1c0.2,0.1,0.4,0,0.5,0.1c0.1,0.1,0.2,0.1,0.3,0.1
				c1,0.4,2,0.7,3.1,0.8c0.7,0.1,1.4,0,2.1-0.2c0.2-0.1,0.3-0.2,0.4-0.3c0,0.1,0,0.2,0,0.3c-0.4,0.2-0.9,0.3-1.4,0.4
				c-0.8,0.1-1.6,0-2.4-0.1c-1.6-0.3-3.2-0.8-4.7-1.5C109,37.2,108.3,36.6,107.6,36z"/>
			<path id="_Path_68" class="st0" d="M109.1,33l0.1,0.6c-0.2,0.1-0.4,0.3-0.4,0.5c0,0.2,0,0.3,0.3,0.3c0.2,0,0.4,0,0.5,0.1
				c0.1,0.1,0.1,0.2-0.1,0.2c-0.2,0-0.4,0-0.6,0h0.2c0,0.5,0.4,0.8,0.7,1c0.1,0.1,0.2,0,0.3,0c0.2,0,0.4,0,0.5,0.1
				c0,0,0.1,0.1,0.1,0.1c0,0-0.1,0-0.1,0c-0.2,0-0.5,0-0.7,0c0.4,0.1,0.7,0,1,0.1c-0.2,0-0.4,0.1-0.7,0c0,0-0.1,0-0.1,0.1
				c0,0.1,0,0,0.1,0c0.3,0,0.6,0,0.8,0c0.1,0,0.1,0.1,0.1,0.2c0,0.1-0.1,0-0.2,0h-0.4c-0.2,0-0.1,0.1,0,0.1c0.3,0.1,0.6,0.1,0.9,0
				l0.2,0.2h-0.6c-0.2,0-0.1,0.1,0,0.1c0.3,0.1,0.6,0,0.9,0.1c0.1,0,0.2,0.1,0.2,0.2c-0.2,0-0.4,0-0.6,0c0.2,0.1,0.3,0,0.5,0.1
				c0.1,0.1,0.4,0.1,0.5,0.1l0.3,0.2l0,0h-0.4c0.2,0.2,0.4,0.1,0.5,0.2c0.1,0.1,0.3,0.1,0.4,0.1c0.6,0.4,1.3,0.6,2,0.8l0.6,0.1
				c-0.3,0-0.7,0-1-0.1c-2.2-0.4-4.2-1.3-5.8-2.8c-0.6-0.5-1-1.2-1.1-2c0.1-0.4,0.3-0.7,0.7-0.9L109.1,33z"/>
			<path id="_Path_69" class="st0" d="M128,32.7C128,32.7,128,32.6,128,32.7C128.2,32.6,128.2,32.7,128,32.7c0,0.2-0.1,0.4-0.2,0.5
				c-0.8,0.9-1.6,1.7-2.5,2.4l0.4-0.2l0.5-0.2c0.9-0.5,1.9-0.8,2.9-1.1c0.2-0.1,0.4-0.1,0.6,0c-2.4,0.7-4.7,1.7-6.8,3
				c-0.9,0.5-1.7,1-2.5,1.7c-0.2,0.1-0.3,0.3-0.4,0.5c0,0-0.1,0.1-0.1,0.1v-0.1c0.2-0.3,0.4-0.5,0.7-0.7c-0.1,0-0.2,0.1-0.4,0
				s0.1-0.2,0.2-0.2c0.6-0.3,1.2-0.6,1.8-1.1c0.3-0.4,0.7-0.7,1.1-1c0.9-0.8,1.8-1.6,2.6-2.5c0.2-0.2,0.4-0.3,0.5-0.5
				c0.1,0,0.2-0.2,0.3-0.2c-1,1.4-2.2,2.6-3.5,3.7l0.6-0.3l0.6-0.3c0.2-0.3,0.6-0.5,0.8-0.7c0.5-0.5,1.1-1,1.6-1.4
				c0.3-0.3,0.7-0.7,0.9-1.1C127.8,32.8,127.9,32.7,128,32.7z"/>
			<path id="_Path_70" class="st1" d="M137.3,49.6v1.1c0,0.2-0.1,0.3-0.2,0.2c-0.2,0-0.4,0-0.6,0c-0.2,0-0.2-0.1-0.2-0.2
				c0-0.8,0-1.6,0-2.3c0-0.2,0.1-0.2,0.2-0.2h0.7c0.2,0,0.2,0.1,0.2,0.2C137.4,48.8,137.4,49.2,137.3,49.6L137.3,49.6z"/>
			<path id="_Path_71" class="st0" d="M83.6,35.2c-0.2,0-0.5-0.1-0.7-0.1c0.2,0,0.3-0.1,0.4-0.3c0.3-1,0.4-2,0.4-3v-0.2
				c0-0.2,0.1-0.5,0.4-0.5c0.2,0,0.3,0.1,0.5,0.1c0,0.4,0,0.8,0,1.2c-0.1,0.8-0.2,1.6-0.4,2.5C84,35.2,83.8,35.2,83.6,35.2z"/>
			<path id="_Path_72" class="st1" d="M124,49.7c0,0.4,0,0.8,0,1.1c0,0.2-0.1,0.2-0.2,0.2c-0.2,0-0.4,0-0.7,0s-0.2-0.1-0.2-0.2
				c0-0.8,0-1.6,0-2.3c0-0.1,0.1-0.2,0.2-0.2h0.8c0.1,0,0.2,0.1,0.2,0.2C124.1,48.9,124.1,49.3,124,49.7L124,49.7z"/>
			<path id="_Path_73" class="st0" d="M127.6,31.3c-0.5-0.1-1.1,0.1-1.5,0.4c-1.1,0.6-2.1,1.3-3,2.1c-0.6,0.5-1.3,1.1-1.8,1.7
				c-0.7,0.6-1.2,1.4-1.7,2.2c-0.2,0.3-0.3,0.6-0.3,0.9c-0.1-0.3-0.1-0.6,0.1-0.8c0.3-0.6,0.7-1.2,1.2-1.7c0,0,0.1-0.1,0.1-0.1
				c0.1-0.2,0.1-0.4,0.3-0.4c0.2-0.1,0.3-0.3,0.4-0.4c0.1-0.2,0.2-0.4,0.4-0.6c0.1-0.1,0.2-0.1,0.3-0.1c0.1,0,0.1-0.1,0.2-0.2
				c0.2-0.5,0.3-1.1,0.4-1.6c0-0.3,0-0.5,0.1-0.8c0.1-0.2,0.1-0.3,0.2-0.3c0,0.8-0.2,1.6-0.4,2.4c0.2-0.1,0.3-0.2,0.5-0.4
				c0.1-0.2,0.2-0.3,0.3-0.4l0.8-0.6c0.2-0.1,0.4-0.4,0.4-0.6c0.1-0.4,0.1-0.8,0.1-1.1c0-0.1,0-0.3,0.1-0.4c0.1-0.1,0.1-0.1,0.2,0
				c0,0.3,0,0.6,0,0.8c0,0.3-0.1,0.6-0.2,0.9c0.1,0,0.3-0.1,0.4-0.2c0.1-0.1,0.1-0.1,0.2-0.2c0.3-0.3,0.4-0.7,0.3-1.1
				c0-0.1-0.1-0.2,0-0.3c0.2,0.1,0.3,0.4,0.3,0.6c0,0.2,0,0.3,0,0.5s-0.1,0.1,0,0.2s0.1,0,0.2,0l0.1-0.1c0.3-0.2,0.7-0.3,1-0.3
				C127.2,31,127.5,31.1,127.6,31.3z"/>
			<path id="_Path_74" class="st0" d="M141.3,35.2c0.3,0.7,0.6,1.4,0.9,2.1c0.6,1.3,1.2,2.7,1.8,4.1c0.1,0.2,0.2,0.4,0,0.7
				c-0.9,0.3-1.8,0.6-2.8,0.7c-0.8,0.2-1.6,0.3-2.4,0.2c0,0-0.1,0-0.1,0.1c-0.1-0.1-0.2-0.2-0.3-0.3c0.5,0.3,1.1,0,1.6,0
				c0.6-0.1,1.2-0.2,1.8-0.3c0.6-0.1,1.2-0.3,1.8-0.5c0.1-0.1,0.2-0.1,0.1-0.3c-0.2-0.5-0.4-1-0.6-1.5c-0.3-0.8-0.7-1.5-1-2.3
				c-0.2-0.6-0.5-1.2-0.8-1.8c0-0.1,0-0.2,0-0.3C141.3,35.4,141.2,35.3,141.3,35.2z"/>
			<path id="_Path_75" class="st0" d="M125.4,29.8c-1.5,0.5-2.8,1.5-3.7,2.8c-0.9,1-1.7,2.2-2.2,3.4c-0.4,0.7-0.5,1.4-0.6,2.1
				c0,0.1,0,0.2-0.1,0.2c-0.1-0.5-0.1-1.1,0.2-1.6c0.2-0.5,0.4-0.9,0.6-1.4c0-0.1,0-0.2,0.1-0.2l0.3-0.6c0-0.2,0-0.4,0.3-0.4
				l0.4-0.6c0-0.3,0.3-0.6,0.6-0.7c0.1-0.1,0.2-0.2,0.2-0.3c0.2-0.4,0.4-0.7,0.8-1c0-0.1,0.1-0.1,0.2,0c0.1,0,0.2-0.1,0.2-0.2
				c0.1-0.3,0.1-0.7,0-1.1c0-0.1,0-0.2-0.1-0.3c0-0.1,0-0.2,0.1-0.3c0.1-0.1,0.2-0.1,0.2,0.1c0.1,0.3,0.1,0.6,0.1,0.9
				c0,0.3,0,0.3,0.3,0.1l0.1-0.1c0-0.1,0.1-0.2,0.2-0.3c0.2-0.1,0.4-0.2,0.5-0.3c0.2-0.2,0.3-0.2,0.1-0.4c-0.2-0.2-0.1-0.1-0.1-0.2
				c0.2,0,0.3,0.1,0.4,0.2c0.1,0.3,0.3,0.3,0.6,0.2L125.4,29.8z"/>
			<path id="_Path_76" class="st0" d="M101.5,24c-0.1,0.4-0.1,0.9-0.1,1.3c0,0.8,0.4,1.6,1,2.2c0.6,0.5,1.4,0.7,2.2,0.6
				c0.4,0,0.7-0.1,1.1-0.2c0.2-0.1,0.5-0.2,0.7-0.3c0,0,0.1,0,0.1,0c-0.2,0.2-0.4,0.4-0.5,0.5c-0.1-0.1-0.2,0-0.3,0
				c-0.9,0.4-1.8,0.4-2.7,0.1c-1-0.3-1.7-1.2-1.8-2.3c-0.1-0.5,0-1,0.1-1.5C101.3,24.3,101.4,24.1,101.5,24z"/>
			<path id="_Path_77" class="st0" d="M128.4,32.2c-0.3,0.1-0.6,0.2-0.9,0.4c-1.2,0.6-2.4,1.4-3.5,2.2c-0.9,0.7-1.9,1.5-2.7,2.3
				c-0.4,0.4-0.8,0.7-1.1,1.1c-0.2,0.3-0.4,0.6-0.5,0.9l-0.1-0.1c0-0.2,0.2-0.4-0.1-0.5c0.1-0.1,0.1,0,0.2,0l0.1,0
				c-0.1-0.2,0.2-0.2,0.2-0.3s0.3-0.3,0.4-0.4s0.2-0.3,0.4-0.4c0.2-0.1,0.3-0.3,0.4-0.4l0.2-0.2c0.2-0.2,0.3-0.5,0.6-0.7
				c0.2-0.2,0.4-0.3,0.6-0.5c0.2-0.1,0.3-0.3,0.4-0.5c0.3-0.4,0.5-0.9,0.7-1.4c0.1-0.2,0.2-0.4,0.4-0.6c0.1-0.1,0.1-0.2,0.2-0.2
				c-0.2,0.7-0.5,1.4-0.9,2c0.4-0.2,0.7-0.6,0.9-1c0.2-0.5,0.4-0.9,0.6-1.3c0-0.1,0.1-0.2,0.2-0.2c0.1,0,0-0.1,0.2-0.2
				c-0.3,0.7-0.6,1.4-1.1,2.1l0.4-0.3c0.1-0.2,0.2-0.3,0.4-0.4c0.4-0.3,0.7-0.5,1.1-0.7c0.4-0.2,0.7-0.6,0.8-1c0-0.1,0-0.2,0.2-0.2
				c0.2,0,0.1,0.2,0.1,0.3c0,0.1-0.1,0.3-0.2,0.5c0.1,0,0.3-0.1,0.4-0.2C127.8,32.2,128.1,32.1,128.4,32.2z"/>
			<path id="_Path_78" class="st0" d="M118.7,38.2l0.1-0.2c0.1,0.1,0.1,0.3,0.1,0.4c-0.3-0.2-0.5,0-0.7,0.1l-0.2-0.1
				c0-0.1-0.1,0-0.1,0c-0.7,0-1.4-0.3-2-0.8c-0.3-0.2-0.5-0.4-0.8-0.5c0-0.1,0.1,0,0.1-0.1c0-0.1-0.3-0.1-0.4-0.2
				c0-0.1,0.1,0,0.2-0.1c0-0.1-0.1-0.2-0.2-0.2c-0.1,0-0.1,0-0.2,0c-0.2-0.3-0.6-0.5-0.8-0.7c0,0,0.1,0,0.1,0c0.1,0,0.2,0.1,0.2,0
				s0-0.2-0.1-0.2s-0.2-0.1-0.2-0.2c-0.3-0.5-0.5-1-0.7-1.5c0-0.1-0.1-0.2,0-0.3l-0.1-0.4c-0.1-0.1-0.2-0.1-0.2-0.2
				c-0.1-0.3-0.1-0.7-0.2-1c0-0.1,0-0.2,0.1-0.2v-1c-0.1,0-0.1-0.1,0-0.2c0,0,0,0,0,0l0.1-0.5c-0.1-0.2,0-0.4,0.2-0.6l0.3-0.5
				l0.1-0.1 M113.4,28.9c-0.5,0.9-0.7,2-0.5,3.1c0.3,1.9,1.2,3.7,2.6,5.1c0.6,0.7,1.4,1.1,2.2,1.3h0.2c0-0.1-0.1,0-0.1-0.1
				s0.2,0,0.2,0s0.3,0.1,0.3,0c0-0.1-0.2-0.1-0.3-0.2c0,0-0.1-0.1-0.1-0.1v-0.1c0.1-0.1,0.1,0,0.2,0s0.1,0,0.1,0s0.1,0,0.1,0.1
				c0,0.1,0.1,0.2,0.2,0.2c0,0,0.1,0,0.1,0c0,0,0,0,0,0L113.4,28.9z"/>
			<path id="_Path_79" class="st0" d="M107.8,40.7c0-0.1,0-0.3,0-0.4c0.3,0.1,0.5,0.2,0.8,0.3c0.8,0.3,1.6,0.5,2.4,0.7
				c1,0.2,2,0.3,3,0.3c0.9,0,1.9,0,2.8-0.2c0.2,0,0.4-0.1,0.6-0.2c-0.8,0.3-1.6,0.5-2.5,0.5c-0.7,0-1.4,0-2.1-0.1
				c-1.6-0.1-3.2-0.5-4.7-1.1c-0.1,0-0.2-0.1-0.3-0.2V40c0.1,0,0.2,0,0.2,0c0.9,0.4,1.8,0.7,2.8,0.9c0.6,0.1,1.2,0.2,1.9,0.3
				c0.8,0.1,1.6,0.1,2.4,0.1c0.8,0,1.5-0.2,2.2-0.5c0.1-0.1,0.3-0.2,0.4-0.3c0-0.1,0.1-0.1,0.2-0.1c0,0.2-0.1,0.5-0.1,0.7l0,0
				c-0.8,0.5-1.7,0.8-2.7,0.8c-0.6,0.1-1.3,0.1-1.9,0c-0.6,0-1.2-0.1-1.7-0.2c-0.8-0.1-1.7-0.3-2.5-0.6c-0.3-0.1-0.6-0.2-0.8-0.3
				C108.1,40.8,108,40.7,107.8,40.7L107.8,40.7z"/>
			<path id="_Path_80" class="st0" d="M117.9,38.5c-0.4,0.1-0.8,0.1-1.2-0.1c-0.5-0.2-1-0.4-1.5-0.6c-0.2,0-0.2-0.3-0.4-0.4
				c-0.2-0.1-0.4,0-0.5-0.2c-0.1,0-0.2-0.1-0.2-0.1l0.4,0.1c-0.1-0.1-0.1-0.2-0.2-0.3c-0.2,0-0.3,0-0.5-0.1c0,0-0.1,0-0.2-0.1
				l0.5,0.1c-0.3-0.2-0.6-0.1-0.8-0.3h0.3c0.1,0,0.1,0,0.2,0s0-0.1-0.1-0.2c-0.2-0.1-0.4-0.2-0.5-0.4c-0.1-0.2-0.4-0.4-0.7-0.5
				c-0.1,0-0.3-0.1-0.3-0.2c0.1-0.1,0.2,0,0.4,0l0.3,0.1c0-0.1,0-0.2-0.1-0.2c-0.1,0-0.2-0.1-0.2-0.2c-0.3-0.5-0.6-1-0.8-1.5
				c0-0.1-0.1-0.2,0-0.2l-0.1-0.4c0,0-0.1,0-0.1,0c-0.2-0.3-0.2-0.7-0.2-1c0,0,0-0.1,0.1-0.1v-0.4c-0.2-0.2-0.1-0.3,0.1-0.5l0.2-0.7
				l0.1-0.2c0,0,0,0.1,0,0.2c-0.3,0.8-0.3,1.8,0,2.6c0.7,2.2,2.2,4.1,4.2,5.2c0.5,0.3,1.1,0.5,1.8,0.5
				C117.7,38.5,117.8,38.5,117.9,38.5z"/>
			<path id="_Path_81" class="st0" d="M118.2,37.9c-0.1,0-0.1,0-0.2,0c-0.2-0.2-0.3-0.5-0.4-0.7c-0.2-0.3-0.4-0.7-0.4-1.2
				c0-0.1,0-0.1,0.1-0.2v-0.5c-0.1-0.2-0.2-0.3,0-0.5c0.2-0.2,0-0.5,0.1-0.8c-0.1-0.1-0.1-0.3,0.1-0.3l0.1-0.7
				c-0.1-0.2-0.1-0.5,0.1-0.6c0,0,0,0,0,0l0.1-0.4c0-0.2,0-0.5,0.2-0.7c0-0.1,0.1-0.1,0.2-0.1l0.2-0.5c0-0.4,0.2-0.7,0.5-0.9
				l0.3-0.4c0,0,0-0.1,0-0.1c0.2-0.3,0.3-0.6,0.6-0.6l0.2-0.2c0-0.3,0.2-0.3,0.4-0.3l0.6-0.3l0.3-0.1c-0.2,0.2-0.5,0.2-0.8,0.4
				c-0.6,0.5-1.1,1.1-1.5,1.8c-1,1.6-1.5,3.5-1.5,5.5c-0.1,0.8,0.2,1.6,0.6,2.3C118.1,37.8,118.2,37.9,118.2,37.9z"/>
			<path id="_Path_82" class="st0" d="M125.3,38.3l-3.6,1.2c-0.1,0.1-0.3,0.2-0.5,0.2l-0.8,0.2c-0.1,0-0.3,0-0.3-0.2
				c0.7-0.1,1.4-0.2,2-0.5c2.5-0.8,5-1.7,7.4-2.9c0.4-0.2,0.8-0.4,1.1-0.6l0,0l0,0l-0.1,0.2c0,0.1,0,0.2-0.1,0.2
				c-0.2,0.1-0.4,0.3-0.6,0.4c-1,0.6-2.1,1-3.3,1.4l-0.6,0.2C125.9,38.2,125.6,38.3,125.3,38.3z"/>
			<path id="_Path_83" class="st0" d="M131.6,44.3c-0.1,0.2-0.2,0.4-0.4,0.5c-0.5,0.3-1.1,0.5-1.8,0.5c-2.4,0.3-4.9,0.1-7.2-0.6
				c-0.5-0.1-1-0.4-1.4-0.7c-0.2-0.1-0.3-0.3-0.4-0.5c0,0,0-0.1,0-0.1s0.1,0,0.1,0.1c0.4,0.5,0.9,0.8,1.4,0.9
				c0.7,0.3,1.4,0.5,2.2,0.6c0.6,0.1,1.2,0.2,1.8,0.2s1,0,1.5,0.1c0.4,0,0.9,0,1.3,0l1.1-0.1C130.4,45,131,44.7,131.6,44.3
				C131.5,44.3,131.5,44.3,131.6,44.3z"/>
			<path id="_Path_84" class="st0" d="M120.5,42.2V42c0.2,0.2,0.4,0.4,0.7,0.6c0.6,0.4,1.3,0.6,2,0.8c1,0.3,2,0.4,3,0.5
				c0.7,0.1,1.4,0.1,2.1,0c0.6,0,1.2,0,1.8-0.1c0.5-0.1,1-0.3,1.4-0.6c0.1-0.1,0.1-0.1,0.1,0c0,0,0,0,0,0c-0.2,0.3-0.5,0.5-0.8,0.6
				c-0.6,0.2-1.3,0.3-1.9,0.4c-0.5,0-0.9,0.1-1.4,0.1c-0.9,0-1.9-0.1-2.8-0.2c-1-0.1-2-0.4-3-0.8c-0.4-0.1-0.8-0.4-1.1-0.7
				C120.6,42.5,120.5,42.3,120.5,42.2z"/>
			<path id="_Path_85" class="st0" d="M120.3,42.8v-0.1c0,0,0.1-0.1,0.1,0c0,0,0.1,0.1,0,0.1l0,0c0.3,0.4,0.7,0.7,1.1,0.8
				c0.6,0.3,1.2,0.4,1.8,0.6c0.7,0.1,1.4,0.3,2.1,0.3c1,0.1,2.1,0.1,3.1,0.1c0.7,0,1.5-0.1,2.2-0.4c0.2-0.1,0.4-0.2,0.6-0.4
				c0.1-0.1,0.1-0.1,0.2-0.1c0.1,0.3-0.2,0.4-0.4,0.6c-0.6,0.3-1.3,0.5-1.9,0.5c-0.9,0.1-1.8,0.1-2.8,0.1c-0.7,0-1.3-0.1-2-0.2
				c-0.7-0.1-1.3-0.3-2-0.5c-0.7-0.2-1.3-0.5-1.9-0.9C120.5,43.2,120.4,43,120.3,42.8z"/>
			<path id="_Path_86" class="st0" d="M114,32.2v-0.7c-0.2-0.2-0.2-0.4,0-0.6l0.1-0.5c-0.2-0.2-0.1-0.5,0.1-0.7c0,0,0,0,0,0
				c0.1-0.1,0.1-0.3,0.1-0.5c0-0.3,0.1-0.5,0.4-0.6l0.3-0.4l0.3-0.2c0,0.1-0.1,0.2-0.2,0.2c-0.6,0.6-0.9,1.4-1,2.3
				c-0.2,2,0.2,4,1.3,5.7c0.5,0.9,1.3,1.6,2.3,2c-0.4,0-0.7-0.2-1-0.4c-0.4-0.3-0.7-0.6-1-1c-0.2-0.1-0.3-0.3-0.5-0.5
				c0.1-0.1,0-0.2-0.1-0.3c-0.1,0-0.2-0.1-0.3-0.2c-0.3-0.5-0.5-1-0.6-1.5c0-0.1-0.1-0.2,0-0.3l-0.1-0.4c-0.1-0.1-0.2-0.2-0.2-0.4
				c0-0.2-0.1-0.5-0.1-0.7C113.9,32.4,113.9,32.2,114,32.2z"/>
			<path id="_Path_87" class="st0" d="M120.4,42.4L120.4,42.4c0,0,0.1,0,0.1,0c0.4,0.5,0.9,0.8,1.5,1c1.1,0.4,2.3,0.6,3.4,0.8
				c0.6,0.1,1.3,0.1,1.9,0.1c0.5,0,1,0,1.5-0.1c0.6,0,1.2-0.1,1.8-0.3c0.3-0.1,0.6-0.2,0.8-0.4c0,0,0.1-0.1,0.2-0.1
				c0.1,0.1,0,0.1,0,0.2c-0.4,0.4-0.9,0.6-1.4,0.7c-1.3,0.3-2.6,0.3-3.9,0.2c-1.5-0.1-2.9-0.3-4.3-0.8c-0.5-0.1-0.9-0.4-1.3-0.6
				C120.6,43,120.4,42.7,120.4,42.4z"/>
			<path id="_Path_88" class="st0" d="M120.3,43.1V43c0.1,0,0.1,0,0.1,0.1c0.3,0.4,0.7,0.7,1.2,0.8c1.4,0.6,2.9,0.9,4.4,1
				c0.7,0,1.4,0,2.1,0c1,0,2-0.2,2.9-0.6c0.1-0.1,0.2-0.1,0.3-0.2c0.1,0,0.1-0.1,0.2-0.1c0.1,0.1,0,0.1,0,0.2
				c-0.4,0.3-0.8,0.6-1.3,0.6c-0.8,0.2-1.6,0.3-2.3,0.3c-1.3,0-2.5-0.1-3.8-0.3c-1-0.2-2.1-0.5-3-1c-0.3-0.1-0.5-0.3-0.6-0.5
				C120.4,43.4,120.3,43.3,120.3,43.1z"/>
			<path id="_Path_89" class="st3" d="M107.7,38.9v-0.1c0.1,0,0.1,0,0.2,0c0.9,0.5,1.9,0.8,2.9,1c0.9,0.2,1.9,0.3,2.8,0.4
				c0.7,0.1,1.4,0.1,2.1,0c0.7,0,1.4-0.2,2-0.5c0.1-0.1,0.2-0.1,0.2-0.2h0.1v0.2c-0.1,0.3-0.4,0.4-0.6,0.5c-0.5,0.2-1,0.3-1.5,0.4
				c-0.6,0.1-1.2,0.1-1.8,0.1c-0.7,0-1.4-0.1-2.1-0.2c-0.9-0.1-1.9-0.3-2.8-0.6c-0.4-0.1-0.9-0.3-1.3-0.5
				C107.9,39.2,107.8,39,107.7,38.9z"/>
			<path id="_Path_90" class="st0" d="M118.6,38.2c-0.1-0.1-0.2-0.2-0.3-0.3c-0.2-0.4-0.3-0.9-0.2-1.4v-0.3
				c-0.1-0.2-0.2-0.3,0.1-0.4l0.1-0.6c0-0.1,0-0.2,0.1-0.2l0.2-0.6c-0.1-0.1-0.1-0.2,0.1-0.3l0.2-0.5c0-0.2,0-0.4,0.3-0.5l0.3-0.5
				c0-0.3,0.1-0.6,0.4-0.7l0.3-0.4c0-0.3,0.2-0.4,0.3-0.6c0.2-0.2,0.2-0.3,0.4-0.3l0.2-0.2c0-0.3,0.3-0.5,0.6-0.7
				c0.2-0.2,0.2-0.2,0.3-0.2c0.1,0,0.2-0.1,0.2-0.1c0.2-0.5,0.2-0.5-0.3-0.8c-0.1,0-0.1-0.1-0.1-0.2c0.3,0,0.6,0.2,0.8,0.5
				c0.1,0.2,0.3,0.3,0.5,0.1l0.5-0.1h0.2c-0.7,0.1-1.4,0.5-1.9,1c-1.7,1.5-2.9,3.5-3.4,5.7c-0.2,0.6-0.2,1.2-0.1,1.8
				C118.3,37.6,118.4,37.9,118.6,38.2z"/>
			<path id="_Path_91" class="st0" d="M117.9,40.4c-0.3,0.3-0.6,0.6-1.1,0.7c-1.2,0.3-2.4,0.4-3.7,0.2c-1.2-0.1-2.3-0.2-3.5-0.5
				c-0.7-0.2-1.3-0.4-2-0.8v-0.2c0.1-0.1,0.2,0,0.2,0c0.6,0.3,1.2,0.5,1.8,0.6c0.8,0.2,1.6,0.4,2.4,0.5c0.3,0,0.6,0,0.9,0.1
				c0.7,0.1,1.4,0.1,2.1,0c0.7,0,1.4-0.2,2.1-0.4c0.1-0.1,0.2-0.1,0.3-0.2c0.1-0.1,0.1-0.2,0.3-0.1L117.9,40.4z"/>
			<path id="_Path_92" class="st0" d="M107.9,42.8c0-0.1,0-0.1,0-0.2c0.1-0.1,0.2,0,0.3,0c0.3,0.1,0.5,0.2,0.8,0.3
				c1,0.3,1.9,0.5,2.9,0.6c0.8,0.1,1.7,0.2,2.6,0.1c0.8,0,1.5-0.1,2.3-0.4c0.2-0.1,0.4-0.2,0.6-0.4c0,0,0.1,0,0.1,0
				c-0.1,0.2-0.2,0.4-0.5,0.5c-0.6,0.3-1.3,0.5-2,0.5c-2.2,0.2-4.4-0.1-6.5-0.8C108.4,43,108.2,42.9,107.9,42.8z"/>
			<path id="_Path_93" class="st3" d="M107.9,41.9c1.4,0.6,2.9,0.9,4.4,1.1c1,0.1,2.1,0.1,3.1,0c0.4,0,0.8-0.1,1.1-0.2
				c0.4-0.1,0.8-0.3,1.1-0.6v0.1c0,0.2-0.2,0.4-0.3,0.5c-0.4,0.2-0.8,0.3-1.2,0.4c-0.8,0.1-1.7,0.2-2.6,0.2c-0.6,0-1.3-0.1-1.9-0.2
				c-1-0.1-2-0.4-3-0.7c-0.2-0.1-0.3-0.2-0.5-0.2c-0.1,0-0.1-0.1-0.2-0.2L107.9,41.9z"/>
			<path id="_Path_94" class="st3" d="M131.6,43.6c0-0.1,0.1-0.1,0-0.1c-0.8,0.5-1.7,0.8-2.6,0.8c-1.7,0.2-3.5,0-5.2-0.3
				c-0.9-0.1-1.8-0.5-2.7-0.9c-0.3-0.2-0.6-0.4-0.7-0.7c0-0.1,0-0.1,0.1-0.2c0.3,0.5,0.8,0.9,1.3,1.1c1.2,0.5,2.4,0.7,3.6,0.9
				c0.7,0.1,1.5,0.1,2.3,0.1c0.9,0,1.8-0.1,2.7-0.3c0.5-0.1,0.9-0.3,1.3-0.7C131.7,43.4,131.7,43.5,131.6,43.6L131.6,43.6z"/>
			<path id="_Path_95" class="st3" d="M131.5,44.3v-0.2c-0.6,0.4-1.3,0.7-2,0.8c-1,0.1-2.1,0.2-3.2,0.1c-1-0.1-2-0.2-3-0.4
				c-0.6-0.1-1.2-0.3-1.8-0.6c-0.5-0.2-0.9-0.5-1.2-0.9c0-0.1,0-0.1,0-0.2c0.3,0.5,0.8,0.8,1.3,1c1.4,0.5,2.8,0.9,4.3,0.9
				c1.1,0.1,2.3,0.1,3.5,0c0.6-0.1,1.2-0.2,1.8-0.5c0.2-0.1,0.4-0.3,0.5-0.5c0,0,0-0.1,0.1,0c0,0.2,0,0.4-0.1,0.7h-0.1V44.3z"/>
			<path id="_Path_96" class="st3" d="M131.5,44.3L131.5,44.3c-0.3,0.4-0.8,0.7-1.3,0.8c-1.4,0.3-2.9,0.4-4.3,0.2
				c-1.3-0.1-2.6-0.3-3.9-0.8c-0.6-0.2-1.2-0.5-1.7-1c0-0.1,0,0-0.1,0c-0.1-0.1-0.1-0.3,0-0.4c0.3,0.5,0.9,0.9,1.5,1.1
				c1.2,0.5,2.6,0.8,3.9,0.9c1.3,0.1,2.6,0.1,3.8-0.1C130.2,45,130.9,44.7,131.5,44.3z"/>
			<path id="_Path_97" class="st0" d="M107.7,38.9c0.6,0.4,1.3,0.7,2.1,0.9c1.6,0.5,3.3,0.7,4.9,0.6c0.8,0,1.5-0.1,2.3-0.3
				c0.4-0.1,0.7-0.3,1-0.6c0,0.1,0,0.2,0,0.4l0,0c-0.6,0.4-1.3,0.6-2.1,0.7c-0.8,0.1-1.6,0.1-2.4,0c-1.7-0.1-3.4-0.4-4.9-1
				c-0.3-0.1-0.5-0.2-0.8-0.4C107.8,39.1,107.7,39,107.7,38.9z"/>
			<path id="_Path_98" class="st0" d="M107.8,39.6v-0.4c0.6,0.3,1.1,0.5,1.8,0.7c0.9,0.2,1.8,0.4,2.7,0.6c0.9,0.1,1.7,0.2,2.6,0.2
				c0.9,0,1.7-0.1,2.5-0.4c0.2-0.1,0.5-0.3,0.7-0.4l0,0c0,0.1,0,0.2,0,0.3h-0.1c-0.4,0.3-0.9,0.6-1.4,0.6c-0.9,0.2-1.8,0.2-2.6,0.2
				c-0.8,0-1.7-0.1-2.5-0.3c-1-0.2-1.9-0.4-2.9-0.8C108.3,39.8,108,39.7,107.8,39.6z"/>
			<path id="_Path_99" class="st3" d="M131.7,43.7L131.7,43.7c-0.6,0.5-1.4,0.8-2.1,0.8c-1.5,0.2-2.9,0.2-4.4,0
				c-1-0.1-2-0.3-2.9-0.6c-0.5-0.2-0.9-0.4-1.4-0.7c-0.2-0.1-0.4-0.3-0.5-0.5c0-0.1,0-0.2,0-0.3c0.1,0.3,0.3,0.6,0.5,0.7
				c0.7,0.4,1.4,0.7,2.2,0.9c1.7,0.4,3.5,0.6,5.2,0.5c0.9,0,1.8-0.2,2.7-0.6c0.2-0.1,0.3-0.2,0.5-0.3L131.7,43.7L131.7,43.7z"/>
			<path id="_Path_100" class="st4" d="M117.9,40.3c-0.6,0.5-1.3,0.8-2.1,0.8c-2.1,0.2-4.3,0-6.3-0.6c-0.6-0.2-1.2-0.4-1.7-0.7v-0.1
				c0.1-0.1,0.2,0,0.3,0c1.1,0.5,2.3,0.8,3.5,1c0.6,0.1,1.3,0.2,1.9,0.2c1,0.1,2.1,0.1,3.1-0.1c0.5-0.1,0.9-0.3,1.3-0.6l0,0
				L117.9,40.3z"/>
			<path id="_Path_101" class="st0" d="M117.5,42.9c-0.5,0.5-1.2,0.7-1.9,0.8c-2.5,0.3-5.1,0-7.5-0.9c-0.1,0-0.2-0.1-0.2,0v-0.2
				c0.1-0.1,0.2,0,0.3,0c1.2,0.5,2.4,0.8,3.7,0.9c1.1,0.1,2.1,0.2,3.2,0.1c0.6,0,1.3-0.2,1.9-0.4c0.2-0.1,0.4-0.3,0.5-0.5
				c0,0,0.1-0.1,0.1,0C117.6,42.7,117.6,42.8,117.5,42.9z"/>
			<path id="_Path_102" class="st0" d="M117.6,42.6L117.6,42.6c-0.3,0.3-0.7,0.6-1.1,0.6c-0.6,0.2-1.2,0.2-1.8,0.2c-0.5,0-1,0-1.5,0
				c-0.6,0-1.2-0.1-1.9-0.2c-1-0.1-1.9-0.4-2.8-0.7c-0.2-0.1-0.4-0.1-0.6-0.3v-0.2c1.1,0.5,2.2,0.8,3.4,1c1.2,0.2,2.3,0.3,3.5,0.2
				c0.7,0,1.4-0.1,2.1-0.4c0.3-0.1,0.6-0.3,0.7-0.6C117.7,42.4,117.6,42.5,117.6,42.6z"/>
			<path id="_Path_103" class="st3" d="M131.7,43.2C131.7,43.1,131.7,43.1,131.7,43.2c-0.7,0.4-1.4,0.7-2.1,0.7
				c-2.4,0.3-4.8,0.1-7.1-0.6c-0.6-0.1-1.1-0.4-1.6-0.7c-0.2-0.1-0.4-0.3-0.5-0.6c0-0.1,0-0.2,0-0.4c0,0.4,0.3,0.8,0.6,0.9
				c1,0.5,2,0.9,3.1,1c1.2,0.2,2.4,0.3,3.6,0.3c1,0,2-0.1,3-0.5c0.4-0.1,0.8-0.3,0.9-0.7l0.1,0.1C131.8,42.9,131.7,43.1,131.7,43.2z
				"/>
			<path id="_Path_104" class="st1" d="M123.5,46.9c0.3,0,0.6,0.2,0.6,0.5c0,0,0,0,0,0.1c0,0.3-0.3,0.5-0.6,0.5c0,0,0,0,0,0
				c-0.3,0-0.6-0.2-0.6-0.5c0,0,0-0.1,0-0.1C122.9,47.1,123.1,46.9,123.5,46.9z"/>
			<path id="_Path_105" class="st1" d="M136.8,46.9c0.3,0,0.6,0.2,0.6,0.5c0,0,0,0,0,0.1c0,0.3-0.3,0.6-0.6,0.6c0,0,0,0,0,0
				c-0.3,0-0.6-0.2-0.6-0.5c0,0,0,0,0-0.1c-0.1-0.3,0.1-0.5,0.4-0.6C136.7,46.9,136.8,46.9,136.8,46.9z"/>
			<path id="_Path_106" class="st1" d="M139.9,47c0.2,0.1,0.3,0.3,0.3,0.4c0.1,0.2-0.1,0.2-0.2,0.2l-1,0.4c-0.3,0.1-0.3-0.1-0.4-0.3
				c-0.1-0.1,0-0.2,0.1-0.3l0.9-0.4L139.9,47z"/>
			<path id="_Path_107" class="st5" d="M133.9,50l0.6,0.1c0.1,0,0.2,0,0.2,0.1c0,0.1-0.1,0.1-0.2,0.1c-0.3,0-0.6-0.1-0.8-0.3
				C133.7,50.1,133.8,50.1,133.9,50z"/>
			<path id="_Path_108" class="st6" d="M84.8,36.5c0.1,0,0.2,0,0.3,0h-0.2l0.6,0.3c-0.1,0.1-0.2,0.2-0.3,0c-0.1-0.1-0.2-0.2-0.3-0.2
				C84.8,36.6,84.7,36.6,84.8,36.5z"/>
			<path id="_Path_109" class="st5" d="M76.9,40.6c0.3,0.1,0.6,0.3,0.9,0.5c-0.2,0.1-0.3,0-0.4-0.1C77.2,40.9,77,40.8,76.9,40.6z"/>
			<path id="_Path_110" class="st0" d="M138.2,21.4c0,0.1,0,0.2-0.1,0.2c-0.1,0.1-0.4-0.1-0.3-0.4C137.9,21.3,138.1,21.4,138.2,21.4
				z"/>
			<path id="_Path_111" class="st5" d="M76.6,40.4l0.3,0.2c-0.3,0.1-0.4,0-0.5-0.3L76.6,40.4z"/>
			<path id="_Path_112" class="st1" d="M94,49.3c0,0.2-0.1,0.3-0.2,0.5c-0.1-0.1-0.1-0.2-0.1-0.3C93.9,49.5,93.9,49.3,94,49.3z"/>
			<path id="_Path_113" class="st0" d="M113.5,28.9L113.5,28.9c0-0.2,0.2-0.3,0.3-0.4C113.8,28.7,113.7,28.8,113.5,28.9z"/>
			<path id="_Path_114" class="st0" d="M121.3,39.7c0.2-0.1,0.3-0.1,0.5-0.2c-0.1,0.2-0.3,0.2-0.4,0.2L121.3,39.7z"/>
			<path id="_Path_115" class="st0" d="M138.1,21.8c0,0.5,0,0.9-0.2,1.4c-0.1,0.9-0.3,1.8-0.5,2.6c-0.1,0.6-0.2,1.2-0.4,1.8
				s-0.2,1.1-0.3,1.7c-0.1,0.6-0.2,0.9-0.3,1.4c-0.1,0.4-0.2,0.8-0.3,1.2c0,0.1,0,0.2,0.1,0.2c0,0-0.1,0.1-0.1,0.1
				c-0.1,0-0.2,0.2-0.3,0.1c-0.1-0.1,0-0.2,0-0.3c0.2-0.8,0.4-1.5,0.5-2.3c0.1-0.9,0.4-1.9,0.6-2.8c0.1-0.7,0.3-1.5,0.4-2.2
				c0.1-0.5,0.2-0.9,0.2-1.4c0.1-0.5,0.1-0.9,0.2-1.3C137.8,21.9,137.8,21.7,138.1,21.8z"/>
			<path id="_Path_116" class="st0" d="M122.1,42.1l-0.3,0c0.3-0.1,0.7-0.2,1-0.3c-0.5-0.1-1-0.1-1.4,0.1c0.1-0.1,0.2-0.1,0.4-0.2
				c-0.2-0.1-0.4-0.1-0.6,0.1c0.1-0.2,0.1-0.2-0.1-0.3c-0.2,0-0.4-0.2-0.5-0.3c0.7,0.3,1.5,0.4,2.3,0.3c2.3,0,4.6-0.3,6.9-1
				c0.4-0.1,0.7-0.2,1-0.4c0-0.1,0.1-0.2,0.2-0.2c0.3-0.2,0.5-0.3,0.7-0.5l0,0c0.1,0.1,0.1,0.3,0,0.4c0,0.1-0.1,0.1-0.1,0.1
				l-0.7,0.5c-0.1,0-0.3,0.1,0,0.2c0,0,0.1,0,0,0.1c0,0,0,0-0.1,0c-0.1,0-0.3,0-0.4,0.1c-0.3,0.2-0.6,0.3-0.9,0.3
				c0.2,0.1,0.5,0.1,0.7,0.2c0,0,0.1,0.1,0.1,0.2c0.2,0.1,0.4,0.2,0.6,0.4c-0.1,0.1-0.1,0-0.2,0c-0.5-0.3-1.1-0.5-1.7-0.7
				c-0.1,0-0.3,0-0.4,0c-0.1,0,0,0.1,0,0.1s0,0.1-0.1,0.1c-0.1,0-0.3-0.1-0.5-0.1l-0.3,0.1c0.8,0.2,1.6,0.5,2.4,0.8l-0.6-0.2
				c-0.7-0.2-1.3-0.4-2-0.5c-0.1,0-0.2,0-0.3-0.1l-0.4,0.1c1,0.2,2,0.4,2.9,0.7c-0.1,0.1-0.1,0-0.2,0c-0.2,0-0.4-0.1-0.6-0.2
				c-1-0.3-2-0.4-3-0.5l-0.7,0.1c0.9,0.1,1.8,0.2,2.7,0.3c0.4,0.1,0.8,0.2,1.2,0.3c0,0,0.1,0,0.1,0.1h-0.1c-0.4-0.1-0.8-0.1-1.2-0.2
				c-0.6-0.1-1.2-0.2-1.8-0.2s-1.1-0.1-1.7-0.1c-0.3,0-0.6,0.1-0.9,0c-0.5,0-0.9,0.1-1.3,0.1C122.2,42.1,122.1,42.1,122.1,42.1z"/>
			<path id="_Path_117" class="st3" d="M130.8,35.8L130.8,35.8l-0.1-0.1c0-0.6,0.1-1.2,0.2-1.8c0.3-1.9,0.6-3.9,0.8-5.8
				c0.3-1.7,0.5-3.4,0.8-5.1l0.1-0.3c0.1,0,0,0.1,0,0.1c-0.1,0.8-0.2,1.7-0.3,2.5c-0.2,1.4-0.4,2.9-0.6,4.3c-0.3,2-0.6,4-0.9,6
				C130.8,35.7,130.8,35.7,130.8,35.8z"/>
			<path id="_Path_118" class="st0" d="M141.3,35.2v0.4c-0.1,0-0.1-0.1-0.1-0.1c-0.1-0.3-0.3-0.6-0.4-0.9c-0.1-0.1,0-0.3,0.1-0.3
				c0,0,0,0,0,0c1-0.7,2-1.4,3-2.1c0.5-0.4,1-0.8,1.5-1.2c0.2,0.1,0.2,0.2,0.1,0.4c-0.1,0.2-0.3,0.3-0.5,0.4c-1.2,1-2.5,1.8-3.7,2.7
				h-0.1c-0.1,0.1,0,0.2,0.1,0.4L141.3,35.2z"/>
			<path id="_Path_119" class="st0" d="M121.4,40.6c0.9-0.1,1.7-0.2,2.5-0.4c1.4-0.3,2.9-0.7,4.3-1.2c1-0.3,2.1-0.7,3-1.3
				c0.1-0.1,0.2-0.1,0.2-0.2c0.2,0.1,0,0.2-0.1,0.3c-0.2,0.2-0.5,0.3-0.7,0.4c-0.1,0-0.1,0.1-0.2,0.1l-0.1,0.1
				c-0.2,0.1-0.3,0.2-0.5,0.2c0.4,0.1,0.8,0.2,1.2,0.3c0.1,0.1,0.2,0.2,0,0.2c-0.1,0-0.3,0-0.4-0.1c-0.3-0.1-0.7-0.1-1-0.1
				c-0.4,0-0.8,0-1.2,0.2c-0.3,0.1-0.6,0.2-1,0.3c-0.3,0.1-0.6,0.1-0.9,0.1l-0.5,0.1c1.4,0,2.7,0.2,4.1,0.5c-0.1,0-0.2,0-0.3,0
				l-0.3,0c-0.1,0.1-0.2,0.1-0.4,0c-1-0.2-2.1-0.2-3.1-0.2c-0.3,0-0.7,0.1-1,0.1c-0.4,0.1-0.8,0.1-1.2,0.1c-0.9,0.1-1.7,0.3-2.6,0.6
				L121.4,40.6c-0.1,0.1-0.2,0.1-0.2,0.1S121.3,40.6,121.4,40.6z"/>
			<path id="_Path_120" class="st0" d="M134.5,41.9c-0.1,0-0.2,0-0.3,0c0.2,0,0.3-0.1,0.3-0.3c0-0.4,0.1-0.8,0.2-1.2
				c0.1-0.4,0.2-1,0.2-1.5c0.1-0.4,0.1-0.8,0.2-1.1c0-0.1,0.2-0.2,0.3-0.3c-0.2,1-0.3,2-0.4,3c-0.1,0.4-0.1,0.8-0.2,1.2
				C134.8,41.8,134.6,41.9,134.5,41.9z"/>
			<path id="_Path_121" class="st1" d="M137,38.4c-0.1,0.1-0.2,0-0.3-0.1c-0.3-0.3-0.7-0.5-1-0.8c-0.1-0.1-0.2-0.2-0.1-0.4l0.4-0.3
				c0.3-0.2,0.4-0.1,0.5,0.1C136.7,37.3,136.8,37.9,137,38.4z"/>
			<path id="_Path_122" class="st3" d="M141.6,28.9c-1.6,1.3-3.3,2.5-5,3.5C138.2,31.1,139.9,30,141.6,28.9z"/>
			<path id="_Path_123" class="st0" d="M131.1,39.1c0-0.1,0-0.1-0.1-0.2c-0.3-0.1-0.6-0.2-0.9-0.2l-0.7-0.1c0.3-0.2,0.6-0.3,0.9-0.4
				c0.1,0.1,0,0.2,0,0.4h0.4c0,0.1-0.1,0-0.1,0.1c0.3,0.1,0.5,0.1,0.7,0.2c0.1,0,0.2,0.1,0.3,0.3c0,0.1,0,0.1,0.1,0.1
				c-0.2,0.4-0.5,0.7-0.9,0.8l-0.1,0c-0.1-0.1-0.1-0.2,0-0.3C130.9,39.6,131,39.4,131.1,39.1z"/>
			<path id="_Path_124" class="st3" d="M130.6,36l0.2-0.1c0.1,0.3-0.1,0.5-0.1,0.8s0,0.3-0.1,0.4s0,0.1-0.1,0.1s0-0.1-0.1-0.1
				c-0.1,0-0.1-0.1-0.1-0.2C130.4,36.7,130.4,36.3,130.6,36z"/>
			<path id="_Path_125" class="st5" d="M132.7,22.8v-0.1c0-0.4,0.1-0.8,0.2-1.2L132.7,22.8z"/>
			<path id="_Path_126" class="st0" d="M131.6,39.9c0.1-0.2,0.2-0.3,0.1-0.5s-0.1-0.2,0-0.3C132,39.4,131.9,39.8,131.6,39.9z"/>
			<path id="_Path_127" class="st3" d="M130.3,38.7c-0.1-0.1,0-0.2,0-0.3h0.1C130.4,38.4,130.4,38.6,130.3,38.7z"/>
			<path id="_Path_128" class="st3" d="M157.8,31.7c0.1,1,0.3,1.9,0.4,2.9c0.1,0.6,0.2,1.2,0.2,1.8c0,0.1,0,0.2,0.1,0.3v0.3
				c-0.5-2.3-0.8-4.6-1-7c0.1,0.3,0.2,0.6,0.2,0.9C157.7,31.1,157.8,31.4,157.8,31.7z"/>
			<path id="_Path_129" class="st5" d="M81.7,31.5c-1.5,0.1-3,0.6-4.4,1.3c-1.1,0.5-1.9,1.5-2.3,2.6c-0.1,0.3-0.1,0.5-0.2,0.8
				c0,0,0,0.1,0,0.1c0,0.1,0,0.2-0.1,0.1c-0.1,0-0.1-0.1,0-0.2c0-1.2,0.6-2.3,1.5-3.1c1-0.8,2.1-1.3,3.3-1.5
				c0.6-0.2,1.2-0.2,1.9-0.3C81.5,31.5,81.6,31.4,81.7,31.5z"/>
			<path id="_Path_130" class="st5" d="M77.7,42.5c1.1,0.2,2.2,0.1,3.3-0.2c-0.4,0.5-2.2,0.8-3.3,0.3C77.7,42.5,77.7,42.5,77.7,42.5
				C77.7,42.5,77.7,42.5,77.7,42.5z"/>
			<path id="_Path_131" class="st5" d="M74.7,36.3C74.7,36.3,74.7,36.4,74.7,36.3c0.1,0.1,0,0,0.1-0.1c0,0.4,0,0.9,0,1.3
				C74.7,37.1,74.7,36.7,74.7,36.3z"/>
			<path id="_Path_132" class="st5" d="M77.7,42.5l-0.1,0.1c-0.2,0-0.4-0.1-0.6-0.3L77.7,42.5z"/>
			<path id="_Path_133" class="st7" d="M81.7,31.5h-0.2c0.3-0.1,0.6-0.1,0.9,0H81.7z"/>
			<path id="_Path_134" class="st5" d="M75.4,24.5c0.3-0.4,0.7-0.7,1.3-0.7c0.8,0,1.4,0.5,1.6,1.3c0.2,0.8-0.2,1.5-1,1.8
				c-0.2,0.1-0.4,0.1-0.6,0c-0.2,0-0.2,0-0.2,0.2c0.1,0.2,0.3,0.7,0.4,1c0.1,0.1,0,0.2-0.1,0.3c-0.7,0.3-0.6,0.3-0.8-0.3
				c-0.4-1.1-0.8-2.2-1.3-3.3c-0.1-0.2,0-0.3,0.2-0.4h0.2C75.1,24.2,75.3,24.2,75.4,24.5z"/>
			<path id="_Path_135" class="st5" d="M74.4,27.9c-0.1,0.4-0.3,0.7-0.7,0.9c-0.5,0.3-1.1,0.2-1.5-0.2c-0.4-0.5-0.8-1.1-1.1-1.7
				c0-0.1-0.1-0.1,0-0.2c0.2-0.1,0.3-0.2,0.5-0.3c0.1,0,0.2,0.1,0.2,0.1c0.3,0.4,0.6,0.9,0.9,1.3c0.1,0.3,0.5,0.4,0.8,0.3
				c0.3-0.1,0.5-0.5,0.4-0.8c0-0.1-0.1-0.1-0.1-0.2c-0.3-0.4-0.5-0.9-0.9-1.3c-0.1-0.1-0.1-0.2,0-0.2l0,0c0.5-0.4,0.5-0.4,0.8,0.1
				c0.4,0.6,0.9,1.3,1.3,1.9c0.1,0.2,0.1,0.3-0.1,0.4c-0.1,0-0.1,0.1-0.2,0.1C74.7,28.2,74.5,28.2,74.4,27.9z"/>
			<path id="_Path_136" class="st5" d="M80,26.3c-0.6,0.1-1.1-0.2-1.4-0.7c-0.3-0.5-0.3-1.2,0.1-1.7c0.3-0.5,0.9-0.7,1.5-0.6
				c0.5,0,0.9,0.4,1.1,0.9c0.1,0.2,0.1,0.4,0.1,0.6c0,0.1-0.1,0.2-0.2,0.2L79.5,25c-0.2,0-0.3,0-0.2,0.3c0.1,0.3,0.4,0.4,0.7,0.4
				c0.3,0,0.6,0,0.8-0.2c0.1-0.1,0.2-0.1,0.2,0.1c0,0.1,0.1,0.1,0.1,0.2c0.1,0.1,0.1,0.2-0.1,0.3C80.8,26.2,80.4,26.3,80,26.3z"/>
			<path id="_Path_137" class="st5" d="M68.6,28.8c0-0.2,0.1-0.3,0.2-0.5c0.3-0.4,0.7-0.7,1.2-0.9c0.2-0.1,0.3,0,0.4,0.3
				c0.1,0.3,0,0.3-0.2,0.3c-0.3,0.1-0.5,0.2-0.7,0.4c-0.1,0.1-0.1,0.3,0,0.4c0.1,0.1,0.3,0.1,0.4,0.1c0.2-0.1,0.4-0.2,0.6-0.3
				c0.3-0.2,0.8-0.2,1.1,0.1c0.4,0.3,0.4,0.9,0.1,1.2c0,0,0,0,0,0c-0.3,0.4-0.8,0.7-1.3,0.8c-0.1,0-0.2,0.1-0.3,0
				c-0.1-0.1-0.1-0.3-0.1-0.5c0-0.1,0.1-0.1,0.2-0.1c0.3,0,0.6-0.2,0.8-0.4c0.1-0.1,0.2-0.2,0.1-0.4c-0.1-0.2-0.3-0.1-0.4-0.1
				c-0.2,0.1-0.5,0.3-0.8,0.4c-0.5,0.2-1-0.1-1.2-0.6C68.6,28.9,68.6,28.8,68.6,28.8z"/>
			<path id="_Path_138" class="st5" d="M82.9,23.6c0.3-0.3,0.6-0.4,1-0.3c0.2,0,0.3,0.1,0.2,0.3c0,0.1,0,0.2,0,0.2
				c-0.1,0.3-0.1,0.3-0.4,0.3c-0.3-0.1-0.7,0.1-0.8,0.5c0,0,0,0.1,0,0.1c0,0.4-0.1,0.9-0.1,1.3c0,0.2-0.1,0.3-0.3,0.3
				c-0.6,0-0.6,0-0.6-0.6s0.1-1.4,0.1-2.1c0-0.2,0.1-0.3,0.3-0.3c0.1,0,0.1,0,0.2,0C82.9,23.2,82.9,23.3,82.9,23.6z"/>
			<path id="_Path_139" class="st5" d="M67.8,26.6c0.8-0.7,1.8-1.4,2.7-1.9c3.1-1.7,6.6-2.7,10.2-2.9c0.8,0,1.6-0.1,2.4,0
				c0,0.1-0.1,0.1-0.2,0.1c-0.2,0-0.5,0-0.7,0c-1.8,0.1-3.6,0.3-5.3,0.7c-2.5,0.5-5,1.5-7.2,2.8C69.1,25.7,68.5,26.2,67.8,26.6
				C67.8,26.6,67.8,26.6,67.8,26.6z"/>
			<path id="_Path_140" class="st5" d="M72.6,24.8L72.6,24.8c-0.3,0.4-0.5,0.8-0.8,1.1s-0.3,0.1-0.4,0c-0.2-0.1-0.1-0.2,0-0.3l0.6-1
				c0-0.1,0.1-0.1,0.2-0.1c0,0,0,0,0,0C72.3,24.5,72.5,24.6,72.6,24.8z"/>
			<path id="_Path_141" class="st7" d="M82.3,21.8c0.2,0,0.4,0,0.6,0c0.1,0,0.2,0,0.3,0c0.4,0,0.8,0,1.2,0H82.3z"/>
			<path id="_Path_142" class="st0" d="M95.9,43.1c-1.3,0.2-2.6,0.4-3.9,0.5c-0.2,0-0.3-0.1-0.4-0.3c-0.2-1-0.2-1.9-0.4-2.8
				c-0.1-0.8-0.2-1.5-0.2-2.3s-0.2-1.7-0.3-2.6c-0.1-0.9-0.2-1.8-0.3-2.7c-0.1-1.2-0.2-2.4-0.3-3.6c-0.1-0.8-0.2-1.5-0.2-2.3
				c-0.1-1.1-0.2-2.2-0.1-3.3c0-0.1,0.1-0.2,0.2-0.3c0.4-0.1,0.7-0.2,1.1-0.3c0.6-0.1,1.1-0.2,1.7-0.3c0.6-0.1,0.9-0.1,1.3-0.1
				c0.1,0,0.2,0,0.3-0.1c0.1,0.1,0.1,0.3,0.2,0.5c0.1,1.3,0.3,2.6,0.4,3.9c0.1,1,0.2,2,0.3,3.1c0.1,1.3,0.2,2.7,0.3,4
				c0.1,1.3,0.2,2.4,0.3,3.6c0.1,1.2,0.2,2.5,0.3,3.8c0,0.4,0,0.8,0.1,1.3C96.1,42.9,96.1,43,95.9,43.1z"/>
			<path id="_Path_143" class="st0" d="M101.4,30.5c0.3-0.1,0.6-0.1,0.9-0.1c0.3,0,0.5,0,0.8,0c1.1,0,2.1-0.1,3.2-0.1
				c0.5,0,0.6,0.1,0.6,0.6c0,1,0.1,1.9,0.2,2.9c0.1,0.9,0.1,1.8,0.2,2.8s0.1,1.5,0.1,2.3c0.1,1.1,0.1,2.3,0.2,3.4c0,0.4,0,0.8,0,1.2
				c-1.6,0.1-3.3,0.2-4.9,0.2c-0.1-0.1-0.2-0.3-0.2-0.5c-0.1-1.1-0.2-2.2-0.3-3.2c-0.1-1.1-0.2-2-0.3-3s-0.2-2-0.3-3.1
				c-0.1-0.8-0.1-1.5-0.2-2.3C101.5,31.2,101.4,30.8,101.4,30.5z"/>
			<path id="_Path_144" class="st8" d="M106.6,25.9c-0.3-1.3-1.5-2.3-2.8-2.5c0.6,0,1.2,0.1,1.8,0.5
				C106.2,24.3,106.6,25.1,106.6,25.9z"/>
			<path id="_Path_145" class="st3" d="M123.8,40.3l0.7-0.2c1.6-0.4,3.4-0.4,5,0.1c0,0.2-0.1,0.4-0.3,0.4c0,0,0,0,0,0
				c-0.3,0.1-0.6,0.1-0.9,0.1c-1.4-0.3-2.8-0.4-4.1-0.3C124.1,40.4,123.9,40.3,123.8,40.3z"/>
			<path id="_Path_146" class="st3" d="M128.3,42.6c-0.2,0.1-0.5,0.1-0.8,0.1c-1.6,0.2-3.2,0.1-4.7-0.2c-0.1,0-0.3,0-0.4-0.1
				c0.2-0.1,0.4-0.2,0.7-0.2c0.8-0.1,1.7-0.1,2.5,0c0.8,0.1,1.5,0.2,2.2,0.3C128,42.4,128.2,42.5,128.3,42.6z"/>
			<path id="_Path_147" class="st3" d="M126.6,39.6c0.7-0.2,1.3-0.4,2-0.6c0.4-0.1,0.8-0.2,1.1-0.1c0.2,0.3,0.2,0.7-0.1,1
				c0,0.1-0.1,0.1-0.2,0.1c-0.9-0.1-1.8-0.2-2.7-0.2C126.7,39.7,126.6,39.6,126.6,39.6z"/>
			<path id="_Path_148" class="st0" d="M129.6,39.8c0.1-0.3,0.1-0.7,0.1-1c0.5,0,0.9,0.1,1.4,0.3c0.2,0.2,0.2,0.3,0,0.5
				c-0.1,0.1-0.2,0.3-0.3,0.4c-0.3,0.1-0.7-0.1-1-0.1c0-0.1,0.1,0,0.1-0.1L129.6,39.8z"/>
			<path id="_Path_149" class="st0" d="M130.3,41.4l-1.1-0.4l1.3-0.4c0.1,0,0.2,0,0.3,0l-0.2,0.1c0.3,0,0.5,0.1,0.6,0.4
				c0.1,0.1,0.1,0.2,0,0.3c-0.1,0.1-0.1,0-0.2,0C130.8,41.3,130.5,41.2,130.3,41.4z"/>
			<path id="_Path_150" class="st0" d="M128.3,42.6c-1.9-0.4-3.9-0.5-5.9-0.2h-0.1c0.8-0.4,4.8-0.2,6.2,0.2
				C128.5,42.6,128.4,42.5,128.3,42.6z"/>
			<path id="_Path_151" class="st4" d="M121.9,41.2l-0.5,0.1c0.6-0.6,4.8-0.8,6.2-0.3h-0.3c-0.3,0-0.7,0-1-0.1
				c-0.8-0.1-1.7-0.1-2.6,0c-0.4,0-0.7,0-1.1,0.1C122.4,41,122.2,41.2,121.9,41.2z"/>
			<path id="_Path_152" class="st3" d="M127,40.7h-0.2c-0.4,0-0.8-0.1-1.2-0.1c-0.7-0.1-1.4-0.1-2.2,0c-0.1,0-0.2,0-0.3,0
				c-0.5,0.1-1,0.2-1.5,0.4c0-0.1,0.1-0.1,0.1-0.2c0.7-0.2,1.4-0.4,2.1-0.4c1.4-0.1,2.8,0,4.2,0.3c0.1,0,0.1,0,0.2,0
				c0.1,0.1,0,0.1-0.1,0.1C127.8,40.8,127.4,40.8,127,40.7z"/>
			<path id="_Path_153" class="st3" d="M123.6,41.9c1.9-0.1,3.7,0.1,5.5,0.6c-0.1,0-0.2,0-0.3,0c-1.5-0.4-3-0.5-4.6-0.5
				C124.1,41.9,123.9,41.9,123.6,41.9C123.7,41.9,123.6,41.9,123.6,41.9z"/>
			<path id="_Path_154" class="st3" d="M122.7,41c1.5-0.2,3.1-0.2,4.7,0c-0.1,0.1-0.3,0.1-0.5,0c-1.4-0.1-2.7-0.1-4.1,0
				C122.8,41.1,122.7,41.1,122.7,41z"/>
			<path id="_Path_155" class="st3" d="M123.2,41.3c-0.4,0-0.7,0.1-1.1,0.1c1.4-0.3,2.9-0.4,4.3-0.2c-0.1,0.1-0.2,0-0.3,0.1
				c-0.2,0-0.4,0-0.6,0c-0.6,0-1.3,0-1.9,0C123.4,41.3,123.3,41.3,123.2,41.3z"/>
			<path id="_Path_156" class="st3" d="M126,41.6c0.8,0,1.7,0.1,2.5,0.3c0.4,0.1,0.8,0.2,1.2,0.3c0,0.1-0.1,0-0.2,0
				c-1-0.3-2.1-0.5-3.2-0.6C126.2,41.7,126.1,41.6,126,41.6z"/>
			<path id="_Path_157" class="st3" d="M128.1,41.2c0.2-0.1,0.3,0,0.5,0c0.6,0.1,1.2,0.3,1.7,0.5c0,0,0.1,0,0.1,0.1c0,0-0.1,0-0.1,0
				C129.6,41.6,128.9,41.4,128.1,41.2C128.2,41.2,128.1,41.3,128.1,41.2z"/>
			<path id="_Path_158" class="st3" d="M130.4,41.9c-0.6-0.2-1.2-0.4-1.8-0.6l0.1-0.1c0.7,0.2,1.4,0.4,2,0.7
				C130.5,42,130.5,41.9,130.4,41.9z"/>
			<path id="_Path_159" class="st3" d="M123,40.7c0.7-0.1,1.4-0.1,2.1-0.1c0.1,0,0.2,0,0.3,0c0.1,0-0.2,0-0.2,0.1c-0.7,0-1.3,0-2,0
				C123.2,40.7,123.1,40.7,123,40.7z"/>
			<path id="_Path_160" class="st3" d="M123.2,41.3c1-0.1,1.9-0.1,2.9,0c-0.2,0.1-0.5,0.1-0.7,0c-0.6,0-1.3,0-1.9,0
				C123.4,41.3,123.3,41.3,123.2,41.3z"/>
			<path id="_Path_161" class="st3" d="M127.3,41.4c0.8,0.1,1.6,0.2,2.3,0.5c-0.6-0.1-1.3-0.3-1.9-0.4
				C127.6,41.5,127.4,41.6,127.3,41.4z"/>
			<path id="_Path_162" class="st3" d="M123.6,41.9c0.2,0,0.4,0,0.7,0c-0.5,0-0.9,0.1-1.4,0.1c-0.3,0.1-0.5,0.1-0.8,0.1
				C122.6,41.9,123.1,41.9,123.6,41.9z"/>
			<path id="_Path_163" class="st0" d="M121.4,40.6c0,0-0.1,0,0,0.1c-0.1,0.1-0.4,0-0.4,0.2c-0.1-0.3-0.3-0.2-0.5-0.3L121.4,40.6z"
				/>
			<path id="_Path_164" class="st0" d="M124.9,41.4c-0.5,0.1-1,0.1-1.5,0.1C123.8,41.4,124.4,41.4,124.9,41.4z"/>
			<path id="_Path_165" class="st0" d="M122.7,41h0.2c-0.3,0.1-0.6,0.1-0.9,0.1C122.2,41.1,122.4,41,122.7,41z"/>
			<path id="_Path_166" class="st5" d="M90.2,48.4l0.3,0.9c0,0.1,0,0.1-0.1,0.1H90c0,0-0.1,0-0.1-0.1c0,0,0,0,0,0L90.2,48.4
				L90.2,48.4z"/>
			<path id="_Path_167" class="st4" d="M120.7,49.3c0.2,0,0.4,0.2,0.4,0.4c0,0,0,0,0,0c0,0.2-0.2,0.4-0.4,0.4c0,0,0,0,0,0
				c-0.2,0-0.4-0.2-0.4-0.4c0,0,0,0,0-0.1C120.3,49.4,120.5,49.2,120.7,49.3z"/>
			<path id="_Path_168" class="st3" d="M113.2,37.1c-0.3,0.1-0.6,0-0.9-0.2C112.6,36.9,112.9,37,113.2,37.1z"/>
			<path id="_Path_169" class="st3" d="M111.5,36.9c-0.3,0.1-0.6,0.1-0.9,0C110.9,36.8,111.2,36.8,111.5,36.9z"/>
			<path id="_Path_170" class="st3" d="M112.1,37.3c-0.3,0.1-0.6,0-0.9-0.1C111.5,37.1,111.8,37.2,112.1,37.3z"/>
			<path id="_Path_171" class="st3" d="M111.1,37.6c-0.3,0-0.6,0-0.9-0.1h0.6C110.9,37.5,111,37.5,111.1,37.6z"/>
			<path id="_Path_172" class="st0" d="M114.9,38.1c-0.3,0-0.6-0.1-0.8-0.3C114.3,37.9,114.6,38,114.9,38.1z"/>
			<path id="_Path_173" class="st3" d="M113.8,37.5c-0.3,0-0.5,0-0.8-0.1c0,0,0,0,0-0.1C113.3,37.4,113.6,37.4,113.8,37.5z"/>
			<path id="_Path_174" class="st3" d="M110,36.8C110,36.8,110,36.9,110,36.8c-0.4,0.1-0.6,0.1-0.9,0.1
				C109.4,36.8,109.7,36.8,110,36.8z"/>
			<path id="_Path_175" class="st3" d="M112.7,36.7c-0.3,0.1-0.6,0-0.8-0.1C112.2,36.6,112.5,36.6,112.7,36.7z"/>
			<path id="_Path_176" class="st3" d="M112.7,37.7c-0.2,0-0.5,0-0.7,0c0-0.1,0.1,0,0.2-0.1C112.3,37.6,112.5,37.6,112.7,37.7z"/>
			<path id="_Path_177" class="st0" d="M110.9,35l-0.5-0.1l-0.2-0.1C110.5,34.8,110.7,34.9,110.9,35L110.9,35z"/>
			<path id="_Path_178" class="st3" d="M111.7,37.9c-0.2,0.1-0.5,0-0.7,0c0.1-0.1,0.2,0,0.2,0C111.4,37.8,111.6,37.8,111.7,37.9z"/>
			<path id="_Path_179" class="st3" d="M111.1,36.5c-0.3,0.1-0.6,0.1-0.9,0H111.1z"/>
			<path id="_Path_180" class="st3" d="M110.5,37.2c-0.3,0.1-0.6,0.1-0.8,0C109.9,37.1,110.2,37.1,110.5,37.2z"/>
			<path id="_Path_181" class="st0" d="M113.5,38.1c-0.1,0.1-0.3,0-0.4-0.1l0,0l0,0C113.2,38,113.4,38.1,113.5,38.1z"/>
			<path id="_Path_182" class="st0" d="M112.6,38.3c-0.2,0.1-0.3,0-0.5,0h0.1H112.6z"/>
			<path id="_Path_183" class="st4" d="M118.9,34.7c0.1,0.3,0.2,0.6,0.2,0.9C119,35.3,118.7,35,118.9,34.7z"/>
			<path id="_Path_184" class="st4" d="M118.8,36.1c-0.1-0.2-0.3-0.3-0.2-0.7C118.7,35.7,118.8,35.9,118.8,36.1z"/>
			<path id="_Path_185" class="st4" d="M118.5,36.6c0.1,0.1,0.1,0.3,0,0.4C118.4,36.9,118.4,36.7,118.5,36.6z"/>
			<path id="_Path_186" class="st0" d="M118,39.3c-0.1,0.3-0.3,0.4-0.5,0.4c-0.4,0.2-0.8,0.3-1.2,0.3c-2.5,0.3-5.1,0-7.4-0.9
				c-0.4-0.1-0.7-0.3-1.1-0.4v-0.2c1.2,0.7,2.6,1.1,4,1.3c1,0.2,2,0.2,3,0.2c0.7,0,1.3-0.1,2-0.2C117.2,39.8,117.6,39.6,118,39.3z"
				/>
			<path id="_Path_187" class="st3" d="M109,38.9c0.4,0.1,0.8,0.2,1.3,0.3c1.2,0.3,2.4,0.5,3.6,0.5c0,0.1-0.1,0.1-0.2,0
				c-1.5-0.1-3.1-0.3-4.5-0.8C109.1,39,109.1,38.9,109,38.9L109,38.9z"/>
			<path id="_Path_188" class="st3" d="M113.7,39.8h0.2c0.7,0.1,1.3,0.1,2,0c0.7,0,1.4-0.2,2-0.5c-0.1,0.1-0.2,0.2-0.4,0.3
				c-0.6,0.2-1.1,0.3-1.7,0.4c-0.6,0.1-1.2,0.1-1.7,0.1C113.9,40,113.8,39.9,113.7,39.8z"/>
			<path id="_Path_189" class="st0" d="M113.1,39c-1.1-0.2-2.1-0.3-3.2-0.3c-0.1,0-0.1,0-0.2,0c0.4,0,0.7,0,1.1,0
				C111.6,38.8,112.4,38.9,113.1,39C113.2,39.1,113.1,39.1,113.1,39z"/>
			<path id="_Path_190" class="st3" d="M107.7,37.5v-0.2c0.2-0.1,0.4-0.2,0.6-0.3c0.2-0.1,0.4,0,0.5,0.1
				C108.4,37.2,108,37.3,107.7,37.5z"/>
			<path id="_Path_191" class="st0" d="M113.1,39L113.1,39c0.7,0,1.4,0.2,2,0.4c-0.1,0.1-0.2,0-0.4,0L113.1,39z"/>
			<path id="_Path_192" class="st3" d="M107.7,37.2l-0.1-0.2c0.2,0,0.3-0.1,0.4-0.2s0.2-0.1,0.2,0s0.1,0,0.1,0.1
				c0,0.1,0,0.1-0.1,0.1L107.7,37.2z"/>
			<path id="_Path_193" class="st3" d="M111.7,38.5c-0.1,0-0.2,0-0.3,0c-0.6-0.1-1.3,0-1.9,0l0,0l0,0
				C110.2,38.4,111,38.4,111.7,38.5z"/>
			<path id="_Path_194" class="st3" d="M107.7,38.6c-0.1-0.1-0.1-0.2,0-0.2c0,0,0,0,0,0l1.2,0.6l0,0c-0.3-0.1-0.7-0.2-1-0.4
				C107.8,38.5,107.7,38.4,107.7,38.6z"/>
			<path id="_Path_195" class="st3" d="M110.8,38.1c-0.5,0.1-1,0.1-1.4,0C109.8,38.1,110.3,38.1,110.8,38.1z"/>
			<path id="_Path_196" class="st3" d="M110.1,37.8c-0.4,0.1-0.8,0.1-1.2,0l0.9-0.1C109.9,37.8,110,37.8,110.1,37.8z"/>
			<path id="_Path_197" class="st3" d="M109.4,37.5c-0.3,0.1-0.6,0.1-0.9,0.1C108.8,37.5,109.1,37.5,109.4,37.5z"/>
			<path id="_Path_198" class="st3" d="M109.5,38.4L109.5,38.4c-0.2,0.1-0.3,0.1-0.5,0C109.2,38.4,109.3,38.4,109.5,38.4z"/>
			<path id="_Path_199" class="st3" d="M120.7,39C120.6,39,120.7,39,120.7,39c1.6-0.9,3.1-1.9,4.5-3.1c0.4-0.2,0.8-0.5,1.2-0.6
				c0.7-0.3,1.4-0.6,2.1-0.8c0.2-0.1,0.5-0.1,0.7-0.1c0.1,0.2,0,0.3-0.1,0.4c-0.4,0.4-0.9,0.7-1.3,1c-0.8,0.5-1.6,1-2.5,1.4
				c-0.2,0.1-0.5,0.2-0.7,0.3l-2.9,1.3l-0.5,0.2C121,39,120.8,39.1,120.7,39z"/>
			<path id="_Path_200" class="st3" d="M129.5,36.1c0,0.1,0,0.1-0.1,0.2c-1.1,0.5-2.2,1-3.4,1.4c-1.2,0.4-2.6,1-3.9,1.4
				c0-0.2,0-0.3,0.3-0.4c1.9-0.8,3.8-1.5,5.8-2.2c0.3-0.1,0.7-0.2,1.1-0.3C129.4,36.1,129.4,36,129.5,36.1z"/>
			<path id="_Path_201" class="st0" d="M129.5,36.1c-1.9,0.6-3.7,1.2-5.5,2c-0.5,0.2-1,0.4-1.5,0.7c-0.5,0.3-1.1,0.5-1.7,0.7
				c0,0,0,0-0.1,0c-0.1,0-0.1,0.1-0.2,0c0.2-0.1,0.4-0.3,0.6-0.3c1.9-0.9,3.8-1.6,5.8-2.3c1-0.3,1.9-0.7,2.9-0.9
				c0.1,0,0.3-0.1,0.3,0c0,0.1-0.2,0.1-0.3,0.2L129.5,36.1z"/>
			<path id="_Path_202" class="st0" d="M124.5,37.5c1.3-0.6,2.6-1.4,3.8-2.2l0.6-0.5c0.1-0.1,0.2-0.3,0.3-0.4c0.2,0,0.2,0.1,0.1,0.2
				c-0.1,0.1-0.2,0.2-0.3,0.3c-1.2,0.9-2.4,1.7-3.8,2.3C125,37.4,124.8,37.5,124.5,37.5z"/>
			<path id="_Path_203" class="st0" d="M120.8,38.6c1.1-0.6,2.2-1.4,3.3-2.1C123.1,37.3,121.9,38,120.8,38.6z"/>
			<path id="_Path_204" class="st0" d="M120.8,39.4c0.6-0.2,1.2-0.5,1.8-0.7c-0.1,0.1-0.3,0.1-0.4,0.3
				C121.7,39.2,121.2,39.3,120.8,39.4z"/>
			<path id="_Path_205" class="st0" d="M120.7,39l0.5-0.1c-0.2,0.2-0.4,0.2-0.7,0.2L120.7,39z"/>
			<path id="_Path_206" class="st4" d="M120,36.1c0.1-0.4-0.1-0.9,0.2-1.3C120.2,35.3,120.1,35.7,120,36.1z"/>
			<path id="_Path_207" class="st0" d="M122.7,31.8l-0.1,0.8c0-0.2,0-0.5,0-0.8C122.6,31.9,122.6,31.7,122.7,31.8z"/>
			<path id="_Path_208" class="st0" d="M130.4,42.9l0.3,0.1c-0.2-0.2-0.4-0.3-0.6-0.4c0.1-0.1,0.4-0.1,0.5,0c0.1-0.1-0.1-0.1,0-0.2
				c0.1-0.1,0.2-0.1,0.2,0l0.4,0.3c0-0.2-0.2-0.2-0.2-0.3c-0.1-0.1-0.1-0.1-0.1-0.1c0-0.1,0.1-0.1,0.2,0c0,0,0,0,0,0l0.2,0.2
				c0.1-0.1-0.2-0.2-0.1-0.3s0.1,0.1,0.1,0.1c0-0.3,0-0.3,0.3-0.3c0.2,0.2,0.2,0.5,0.1,0.8c-0.4,0.4-0.9,0.6-1.4,0.7
				c-1.4,0.3-2.8,0.3-4.2,0.2c-1.2-0.1-2.4-0.3-3.5-0.6c-0.6-0.2-1.2-0.4-1.6-0.8c-0.1-0.1-0.2-0.2-0.3-0.3c0.2,0.2,0.4,0.4,0.7,0.5
				c0.4,0.2,0.8,0.3,1.3,0.4c0.2,0,0.3,0.1,0.4,0.1c0.4,0.1,0.8,0.2,1.2,0.2c0.6,0.1,1.2,0.2,1.7,0.2c1.2,0.1,2.4,0.1,3.6-0.1
				c0.2,0,0.4-0.1,0.6,0c0.2-0.1,0-0.1,0-0.1c-0.2-0.1-0.4-0.2-0.7-0.3c0.1-0.1,0.2-0.1,0.3-0.1C130,42.7,130.2,42.8,130.4,42.9z"/>
			<path id="_Path_209" class="st3" d="M129.7,37.7c0.1,0.1,0.2,0.2,0.1,0.4c0,0.1-0.1,0.1-0.2,0.1c-0.5,0.2-1.1,0.4-1.6,0.5
				c-1.2,0.1-2.3,0.2-3.4,0.4c-0.1,0-0.2,0.1-0.2,0c0.1-0.2,0.3-0.1,0.5-0.2c1.3-0.4,2.7-0.7,4.1-1l0.6-0.1
				C129.6,37.6,129.7,37.6,129.7,37.7z"/>
			<path id="_Path_210" class="st3" d="M126.2,38c1.3-0.5,2.6-1,3.8-1.6c0.2,0.1,0.2,0.2,0,0.4c0,0,0,0.1,0,0.1
				c-0.1,0.4-0.1,0.4-0.5,0.5c-1,0.2-2,0.4-3,0.6h-0.1C126.3,38.1,126.2,38.2,126.2,38z"/>
			<path id="_Path_211" class="st3" d="M127.1,38.9c-0.6,0.2-1.2,0.4-1.8,0.6c-1.2,0.3-2.4,0.4-3.5,0.8c-0.1,0-0.2,0-0.2,0
				c0.1-0.2,0.3-0.3,0.6-0.3c0.9-0.3,1.8-0.6,2.7-0.8c0.7-0.1,1.3-0.2,2-0.3C126.9,38.9,127,38.8,127.1,38.9z"/>
			<path id="_Path_212" class="st0" d="M127.1,38.9c-0.6,0-1.1,0.1-1.7,0.2c-1.1,0.2-2.2,0.5-3.2,0.8c-0.2,0.1-0.5,0.2-0.7,0.3
				c-0.1,0-0.1,0.1-0.2,0c0.8-0.8,4.6-1.5,6.4-1.5L127.1,38.9z"/>
			<path id="_Path_213" class="st0" d="M129.7,37.7c-1.4,0.3-2.8,0.6-4.1,1l-0.8,0.2c0,0-0.1,0-0.1-0.1c1-0.4,2.1-0.6,3.1-0.9
				c0.7-0.2,1.4-0.3,2.2-0.4c0.2,0,0.5,0,0.7,0C130.4,37.5,130.1,37.6,129.7,37.7z"/>
			<path id="_Path_214" class="st4" d="M124.7,38.8l0.1,0.1l-0.4,0.2c-0.1,0.1-0.3,0.1-0.5,0.2c-0.2,0.1-0.3,0.1-0.5,0.1
				c-0.9,0.3-1.8,0.6-2.7,1.1c0-0.2,0.1-0.2,0.2-0.3c0.7-0.3,1.4-0.6,2.1-0.8c0.4-0.2,0.9-0.3,1.3-0.4L124.7,38.8z"/>
			<path id="_Path_215" class="st0" d="M130,36.8c0-0.1,0.1-0.3,0-0.4l0.6-0.4c0,0.4-0.1,0.7-0.2,1.1c-0.3,0.2-0.4,0.1-0.4-0.2
				C130,36.9,130,36.9,130,36.8z"/>
			<path id="_Path_216" class="st0" d="M126.2,38h0.2c-0.3,0.1-0.7,0.2-1.1,0.3L126.2,38z"/>
			<path id="_Path_217" class="st0" d="M123.9,39.1l0.5-0.1h0.2C124.4,39.1,124.2,39.1,123.9,39.1C123.9,39.2,123.9,39.2,123.9,39.1
				z"/>
			<path id="_Path_218" class="st0" d="M123.9,39.1L123.9,39.1c-0.2,0.1-0.3,0.2-0.6,0.2L123.9,39.1z"/>
			<path id="_Path_219" class="st5" d="M139.8,49.8c0,0.2-0.2,0.5-0.4,0.5c0,0,0,0-0.1,0c-0.2,0-0.4-0.2-0.4-0.4
				c0-0.2,0.2-0.4,0.4-0.5c0,0,0,0,0.1,0C139.6,49.3,139.8,49.5,139.8,49.8C139.8,49.7,139.8,49.7,139.8,49.8z"/>
			<path id="_Path_220" class="st3" d="M124.2,33.1c-0.3,0.7-0.6,1.4-1,2c-0.2,0.3-0.5,0.5-0.8,0.8l-1,0.9c-0.1,0,0-0.1,0-0.1
				c0.4-0.7,0.8-1.4,1.1-2.1c0-0.1,0.1-0.1,0.1-0.2c0.4-0.4,0.9-0.8,1.4-1.1L124.2,33.1z"/>
			<path id="_Path_221" class="st3" d="M121.6,35.3c0.1-0.2,0.2-0.3,0.4-0.4c-0.2,0.8-1.6,2.8-2.4,2.9c0.4-0.2,0.8-0.6,1.1-0.9
				c0.2-0.5,0.5-0.9,0.9-1.4C121.5,35.4,121.6,35.4,121.6,35.3z"/>
			<path id="_Path_222" class="st3" d="M121.6,35.3c-0.3,0.5-0.6,1-1,1.5c0.1-0.6,0.4-1.1,0.9-1.5C121.5,35.3,121.6,35.3,121.6,35.3
				C121.6,35.3,121.6,35.3,121.6,35.3z"/>
			<path id="_Path_223" class="st3" d="M117.9,40.1c-0.2,0.3-0.5,0.5-0.9,0.6c-1.1,0.3-2.3,0.4-3.5,0.3c-1.2-0.1-2.5-0.3-3.7-0.6
				c-0.7-0.2-1.4-0.5-2.1-0.8v-0.1c0-0.1,0.1-0.1,0.2,0c1.7,0.7,3.6,1.1,5.4,1.2c1.2,0.1,2.3,0,3.5-0.2c0.3-0.1,0.7-0.2,0.9-0.4
				C117.8,40.1,117.9,40.1,117.9,40.1z"/>
			<path id="_Path_224" class="st3" d="M107.8,40.2c0.4,0.1,0.8,0.3,1.2,0.4c1.1,0.4,2.3,0.6,3.5,0.7c0.6,0.1,1.2,0.1,1.8,0.1
				c1,0,2-0.1,2.9-0.4c0.2-0.1,0.4-0.2,0.6-0.3c0,0.1-0.1,0.2-0.2,0.3c-0.5,0.3-1,0.5-1.5,0.5c-2.7,0.3-5.4,0-7.9-1
				c-0.1,0-0.3-0.1-0.4-0.2L107.8,40.2z"/>
			<path id="_Path_225" class="st3" d="M107.8,40.8c1,0.4,2.1,0.7,3.1,0.9c1.2,0.2,2.4,0.3,3.6,0.3c0.9,0,1.7-0.1,2.6-0.3
				c0.2-0.1,0.4-0.2,0.6-0.4c-0.1,0.2-0.2,0.4-0.4,0.4c-0.6,0.3-1.2,0.4-1.9,0.5c-2.2,0.2-4.4-0.1-6.5-0.8c-0.3-0.1-0.6-0.3-1-0.4
				C107.8,41,107.8,40.9,107.8,40.8z"/>
			<path id="_Path_226" class="st3" d="M107.8,41.2c0.4,0.1,0.8,0.3,1.2,0.4c1.2,0.3,2.4,0.6,3.6,0.7c1,0.1,2,0.1,3,0
				c0.7,0,1.4-0.3,2-0.7c-0.1,0.2-0.3,0.4-0.5,0.5c-0.6,0.3-1.3,0.4-2,0.5c-2.1,0.1-4.3-0.1-6.3-0.8c-0.3-0.1-0.6-0.2-0.9-0.4
				L107.8,41.2z"/>
			<path id="_Path_227" class="st3" d="M118,39.8c-0.4,0.4-1,0.7-1.5,0.7c-1.3,0.2-2.5,0.2-3.8,0.1c-1.4-0.1-2.7-0.4-4-0.9
				c-0.3-0.1-0.6-0.3-0.9-0.5l0,0c0.1,0,0.2,0,0.3,0.1c1.3,0.6,2.7,0.9,4.1,1.1c0.7,0.1,1.5,0.2,2.3,0.2c0.9,0,1.9-0.1,2.8-0.3
				c0.2-0.1,0.4-0.2,0.6-0.3C117.8,39.9,117.9,39.8,118,39.8z"/>
			<path id="_Path_228" class="st3" d="M107.9,42.3c0.7,0.2,1.3,0.5,2,0.6c1.2,0.3,2.4,0.4,3.7,0.5c1,0.1,2,0,2.9-0.2
				c0.4-0.1,0.7-0.3,1-0.5c-0.1,0.2-0.3,0.4-0.5,0.5c-0.6,0.3-1.3,0.4-2,0.4c-1.8,0.1-3.5-0.1-5.2-0.5c-0.6-0.2-1.2-0.4-1.8-0.6
				L107.9,42.3z"/>
			<path id="_Path_229" class="st3" d="M107.9,41.6c1.5,0.6,3.1,1,4.8,1.1c1.3,0.1,2.5,0.1,3.8-0.1c0.4-0.1,0.8-0.3,1.2-0.6
				c0,0.2-0.1,0.3-0.3,0.4c-0.6,0.3-1.2,0.5-1.8,0.5c-2.4,0.2-4.8-0.1-7.1-0.9l-0.6-0.2V41.6z"/>
			<path id="_Path_230" class="st5" d="M112.1,50.2c0,0.2-0.1,0.2-0.2,0.2c-0.1,0-0.2-0.1-0.2-0.2c0,0,0,0,0,0
				c0-0.1,0.1-0.2,0.2-0.2C112,50,112.1,50.1,112.1,50.2z"/>
			<path id="_Path_231" class="st5" d="M129.2,49.4c-0.1-0.1-0.3,0.1-0.3-0.1c0-0.2,0.1-0.2,0.3-0.3c0.2,0,0.3,0.1,0.3,0.2
				C129.5,49.4,129.3,49.3,129.2,49.4z"/>
			<path id="_Path_232" class="st5" d="M97,49.4c-0.1,0-0.3,0.1-0.3-0.1S96.8,49,97,49c0.2,0,0.3,0.1,0.3,0.2S97.1,49.3,97,49.4z"/>
			<path id="_Path_233" class="st0" d="M118.3,28.5l-0.2-0.2c-0.1-0.1-0.2-0.1-0.2-0.2c0-0.1,0.2-0.1,0.3-0.1c0.2,0,0.4,0,0.6,0.1
				L118.3,28.5z"/>
			<path id="_Path_234" class="st3" d="M107.8,40.7c0-0.2,0.1-0.2,0.2-0.1c0.8,0.4,1.7,0.6,2.6,0.8c1,0.2,2,0.3,3,0.4
				c0.8,0.1,1.7,0,2.5-0.1c0.6-0.1,1.1-0.3,1.5-0.6c0,0,0.1,0,0.1,0c-0.3,0.3-0.6,0.5-1,0.6c-1,0.2-2,0.3-3.1,0.3
				c-1.1,0-2.2-0.2-3.3-0.4C109.5,41.3,108.7,41.1,107.8,40.7z"/>
			<path id="_Path_235" class="st3" d="M122.3,36.3c0.2-0.1,0.3-0.4,0.7-0.5l-0.2,0.3c0.4-0.2,0.6-0.7,1-0.9
				c-0.8,1.2-1.9,2.2-3.1,2.9c0.1-0.3,0.3-0.3,0.5-0.5c0.2-0.2,0.5-0.5,0.7-0.7C121.9,36.7,122.1,36.5,122.3,36.3z"/>
			<path id="_Path_236" class="st0" d="M122.3,36.3c-0.3,0.4-0.6,0.8-1,1.1c-0.1,0.1-0.2,0.1-0.3,0.2c0-0.1,0.1-0.2,0.1-0.2
				C121.5,37,121.9,36.6,122.3,36.3z"/>
			<path id="_Path_237" class="st0" d="M125.1,35.3c0,0.1,0.1,0.1,0.2,0.1c-0.3,0.2-0.6,0.5-0.9,0.7c0-0.1,0-0.1,0.1-0.2L125.1,35.3
				z"/>
			<path id="_Path_238" class="st3" d="M130.2,43.2c-0.3,0.1-0.6,0.2-0.9,0.2c-2,0.2-4,0.1-5.9-0.4c-0.1,0-0.3,0-0.4-0.1
				c0.9,0.1,1.9,0.2,2.8,0.2c1,0,2.1-0.1,3.1-0.3c0.3,0,0.7,0,1,0.2C130,43.1,130.1,43.2,130.2,43.2z"/>
			<path id="_Path_239" class="st9" d="M130.4,42.9c-0.2,0-0.4-0.1-0.6-0.2C130,42.7,130.2,42.8,130.4,42.9z"/>
			<path id="_Path_240" class="st0" d="M120.4,28.2l-0.4,0.3c-0.1-0.1-0.3-0.2-0.2-0.3c0-0.1,0.2-0.1,0.4-0.1
				C120.2,28.2,120.3,28.2,120.4,28.2z"/>
			<path id="_Path_241" class="st4" d="M115.3,36.3c0.3,0.1,0.4,0.3,0.5,0.5C115.5,36.8,115.4,36.6,115.3,36.3z"/>
			<path id="_Path_242" class="st0" d="M113.7,36.8l0.5,0.1c-0.2,0.1-0.4,0-0.5,0L113.7,36.8z"/>
			<path id="_Path_243" class="st0" d="M114.3,37.2c0.2,0.1,0.4,0,0.5,0.2C114.6,37.5,114.4,37.4,114.3,37.2z"/>
			<path id="_Path_244" class="st0" d="M76.6,24.6c0.5,0,0.8,0.5,0.8,0.9c0,0.4-0.4,0.7-0.8,0.7c0,0,0,0,0,0c-0.5,0-0.9-0.4-0.9-0.9
				C75.8,24.9,76.2,24.5,76.6,24.6C76.6,24.6,76.6,24.6,76.6,24.6z"/>
			<path id="_Path_245" class="st0" d="M79.7,24.5L79.7,24.5c-0.2,0-0.3,0.1-0.4-0.1s0-0.3,0.1-0.4c0.2-0.2,0.5-0.3,0.7-0.2
				c0.2,0,0.4,0.2,0.4,0.4c0,0.1,0,0.2-0.1,0.2L79.7,24.5z"/>
			<path id="_Path_246" class="st10" d="M94.4,25.4c0.2,1.3,0.3,2.5,0.4,3.8c0.1,1.5,0.3,3.1,0.4,4.6c0.1,0.8,0.1,1.5,0.2,2.3
				c0,0.1,0,0.2,0,0.3c-0.1,0,0-0.2-0.1-0.2c-0.3-3.1-0.6-6.2-0.9-9.3c0-0.3-0.1-0.6-0.1-1C94.3,25.7,94.2,25.5,94.4,25.4z"/>
			<path id="_Path_247" class="st11" d="M95.2,36.2l0.1,0.1L95.2,36.2c0.2,0.6,0.2,1.2,0.2,1.8C95.3,37.4,95.3,36.8,95.2,36.2z"/>
			<path id="_Path_248" class="st12" d="M94.4,25.4c-0.1,0.2,0,0.3-0.1,0.5c-0.1-0.5-0.1-1.1-0.1-1.6L94.4,25.4z"/>
			<path id="_Path_249" class="st13" d="M94.3,24.2L94.3,24.2c-0.1-0.1-0.1-0.3-0.1-0.4L94.3,24.2z"/>
			<path id="_Path_250" class="st4" d="M102.7,39.6c0-0.6-0.1-1.2-0.2-1.8c0-0.4-0.1-0.8-0.1-1.1c-0.1-1.1-0.2-2.2-0.2-3.2
				c0-0.6-0.1-1.2-0.1-1.8c0-0.1,0-0.1,0.1,0c0.1,0.1,0,0.1,0,0.1c0,0.5,0.1,1,0.2,1.5c0.1,0.5,0.1,0.9,0.1,1.3
				c0.1,1.2,0.2,2.4,0.3,3.6c0,0.3,0,0.5,0,0.8c0,0.2,0,0.4,0,0.6C102.8,39.5,102.8,39.7,102.7,39.6z"/>
			<path id="_Path_251" class="st4" d="M102.7,39.6c0.2-0.1,0.1-0.3,0.1-0.4c0-0.1,0-0.2,0-0.3c0.1,0.5,0.1,1,0.1,1.4
				C102.8,40.1,102.7,39.8,102.7,39.6z"/>
			<path id="_Path_252" class="st4" d="M102.2,31.7c0,0,0-0.1-0.1-0.1c-0.1,0,0-0.3,0-0.4C102.2,31.3,102.2,31.5,102.2,31.7z"/>
			<path id="_Path_253" class="st3" d="M130.1,39.9l0.1-0.9h0.1C130.3,39.3,130.2,39.6,130.1,39.9L130.1,39.9z"/>
			<path id="_Path_254" class="st0" d="M110.9,39c-0.1,0-0.2,0-0.4-0.1c1.2,0,2.5,0.1,3.7,0.5c-0.2,0-0.4,0-0.6-0.1
				c-0.3,0-0.7,0-1-0.1c-0.4,0-0.8-0.1-1.2-0.1C111.3,39.1,111.1,39.1,110.9,39z"/>
			<path id="_Path_255" class="st0" d="M110.9,39c0.9,0.1,1.8,0.2,2.8,0.3c-0.2,0.1-0.4,0.1-0.6,0l-1.9-0.3
				C111.1,39.1,111,39.1,110.9,39z"/>
		</g>
	</g>
</g>
</svg>
