<?xml version="1.0" encoding="utf-8"?>
<!-- Generator: Adobe Illustrator 22.1.0, SVG Export Plug-In . SVG Version: 6.00 Build 0)  -->
<svg version="1.1" id="Layer_1" xmlns="http://www.w3.org/2000/svg" xmlns:xlink="http://www.w3.org/1999/xlink" x="0px" y="0px"
	 viewBox="0 0 233 73" style="enable-background:new 0 0 233 73;" xml:space="preserve">
<style type="text/css">
	.st0{fill:#3D3D3D;}
</style>
<title>Asset 48</title>
<g id="Layer_2_1_">
	<g id="Layer_1-2">
		<g id="_Group_">
			<path id="_Compound_Path_" class="st0" d="M116.5,35.4h-12.2c-0.9,0-1.3-0.3-1.3-1.2c0-0.9,0-1.9,0-2.8c0.1-0.9,0.4-1.3,1.4-1.3
				c0.5,0,1,0,1.5,0c0.3,0,0.4,0,0.5-0.4c0.2-0.7,0.5-1.4,0.8-2c0.2-0.2,0.1-0.5-0.1-0.6c0,0,0,0,0,0c-0.4-0.4-0.8-0.8-1.2-1.1
				c-0.5-0.3-0.6-0.9-0.3-1.4c0-0.1,0.1-0.1,0.2-0.2c0.7-0.8,1.5-1.6,2.3-2.3c0.4-0.4,1.1-0.4,1.5,0c0,0,0.1,0.1,0.1,0.1
				c0.4,0.4,0.8,1.1,1.4,1.3s1.1-0.4,1.6-0.6c1.2-0.4,1.2-0.4,1.2-1.7c-0.1-1.7,0.1-1.9,1.9-1.9h2.1c0.9,0,1.3,0.4,1.3,1.3
				c-0.1,0.6-0.1,1.2,0.1,1.8c0.2,0.5,1,0.4,1.5,0.7c0.3,0.1,0.7,0.3,1,0.5c0.5,0.4,0.9,0.2,1.2-0.2c0.3-0.4,0.6-0.7,1-1
				c0.3-0.4,1-0.5,1.4-0.2c0,0,0.1,0.1,0.1,0.1c0.8,0.7,1.6,1.5,2.3,2.3c0.4,0.4,0.4,1,0,1.4c0,0-0.1,0.1-0.1,0.1
				c-0.5,0.5-0.9,0.9-1.4,1.4c-0.2,0.2-0.3,0.4-0.1,0.7c0.3,0.6,0.6,1.2,0.7,1.8c0.1,0.3,0.2,0.4,0.5,0.3c0.5,0,1,0,1.5,0
				c0.5-0.1,1.1,0.3,1.1,0.8c0,0.1,0,0.2,0,0.3c0,1,0,2.1,0,3.1c0,0.8-0.5,1.1-1.3,1.1L116.5,35.4z M124.4,27.5
				c-0.3-0.3-0.6-0.6-0.9-0.9c-0.2-0.2-0.4,0.2-0.5,0.3s-0.4,0.2-0.6,0.1s-0.5-0.1-0.4-0.4c0.1-0.3-0.2-0.5-0.5-0.5
				c-0.2,0-0.3,0-0.5,0c-0.3-0.1-0.5,0-0.5,0.4c0.1,0.4-0.3,0.4-0.5,0.6s-0.4,0-0.5-0.1c-0.3-0.5-0.6-0.4-0.9,0
				c-0.1,0.1-0.1,0.2-0.2,0.2c-0.3,0.2-0.3,0.4,0,0.7s0.4,0.3,0.2,0.7c-0.2,0.4-0.2,0.7-0.7,0.6c-0.3-0.1-0.4,0.1-0.3,0.3
				c0,0.2,0,0.3,0,0.5c0,0.4,0,0.7,0.6,0.6c0.3-0.1,0.3,0.2,0.4,0.4s0.1,0.4-0.1,0.5c-0.4,0.3-0.4,0.6,0,0.9
				c0.1,0.1,0.3,0.2,0.3,0.3c0.2,0.2,0.4,0.3,0.5,0c0.2-0.3,0.5-0.2,0.9-0.1s0.4,0.4,0.3,0.7c0,0.3,0.1,0.6,0.5,0.5
				c0.1,0,0.3,0,0.4,0c0.4,0,0.7-0.1,0.6-0.5c-0.1-0.5,0.1-0.5,0.4-0.7s0.6-0.2,0.8,0.1s0.3,0.3,0.5,0c0.1-0.1,0.3-0.2,0.4-0.3
				c0.3-0.3,0.5-0.5,0-0.8c-0.2-0.2-0.1-0.4,0-0.6c0.2-0.2,0.1-0.4,0.5-0.4c0.7,0,0.7-0.1,0.8-0.8c0-0.5-0.1-0.8-0.6-0.7
				s-0.4-0.4-0.6-0.7c-0.2-0.2,0-0.4,0.1-0.5C124.3,27.9,124.4,27.7,124.4,27.5z M114.7,28.5c-0.3-0.2-0.5-0.5-0.8-0.7
				c-0.2-0.2-0.3,0.1-0.4,0.2c-0.1,0.2-0.4,0.2-0.6,0.1c-0.2-0.1-0.4-0.1-0.4-0.4c0.1-0.6-0.4-0.4-0.7-0.4s-0.6-0.1-0.6,0.4
				c0,0.3-0.6,0.6-0.8,0.4c-0.4-0.5-0.7-0.2-1,0.1c-0.3,0.3-0.3,0.5,0,0.7c0.2,0.1,0.3,0.2,0.1,0.4s-0.1,0.6-0.5,0.5
				c-0.7-0.1-0.4,0.4-0.4,0.7c0,0.3,0,0.6,0.4,0.5c0.2-0.1,0.4,0.1,0.4,0.2c0,0,0,0,0,0.1c0.1,0.2,0.2,0.4-0.1,0.6s-0.3,0.5,0,0.6
				s0.4,0.9,0.9,0.2c0.1-0.1,0.3-0.2,0.4-0.1c0,0,0,0,0.1,0c0.2,0.1,0.5,0.1,0.4,0.4c-0.2,0.8,0.3,0.7,0.8,0.7
				c0.3,0,0.5-0.1,0.5-0.5c0-0.2-0.1-0.5,0.3-0.5s0.5-0.3,0.8,0.1s0.3,0.2,0.4,0c0.1-0.1,0.3-0.3,0.4-0.4c0.2-0.2,0.2-0.3,0-0.4
				c-0.2-0.1-0.3-0.4-0.2-0.6c0,0,0,0,0,0c0.1-0.3,0.3-0.4,0.6-0.4c0.3,0,0.3,0,0.3-0.3s0-0.4,0-0.6s0-0.2-0.2-0.3
				c-0.8-0.1-0.9-0.6-0.5-1.1L114.7,28.5z"/>
			<path id="_Path_" class="st0" d="M126.4,36.9c-0.1,0.4-0.2,0.7-0.4,1c-0.2,0.3-0.1,0.5,0.1,0.8c0.3,0.2,0.7,0.6,1,1
				c0.4,0.3,0.5,1,0.2,1.4c0,0-0.1,0.1-0.1,0.1c-0.7,0.8-1.5,1.5-2.3,2.3c-0.4,0.4-1.1,0.4-1.5,0c0,0,0,0-0.1-0.1
				c-0.4-0.4-0.8-1.1-1.3-1.2c-0.5-0.2-1.1,0.5-1.6,0.6h-0.1c-1.1,0.4-1.1,0.4-1.1,1.6V45c0,0.8-0.3,1.2-1.2,1.2c-1,0.1-2,0.1-3,0
				c-0.8,0-1.2-0.5-1.2-1.3c0.1-0.6,0.1-1.2,0-1.8c-0.2-0.5-1-0.4-1.6-0.7c-0.8-0.4-0.8-0.4-1.4,0.2c-0.2,0.2-0.4,0.4-0.6,0.7
				c-0.3,0.4-1,0.5-1.4,0.2c-0.1,0-0.1-0.1-0.1-0.1c-0.8-0.7-1.6-1.5-2.3-2.3c-0.4-0.4-0.5-1.1-0.1-1.5c0,0,0.1-0.1,0.1-0.1
				c0.4-0.4,0.9-0.7,1-1.1c0.1-0.4-0.4-0.8-0.6-1.3l-0.1-0.3h3.1c0.2,0,0.2,0.1,0.3,0.2c1.6,2.4,4.4,3.7,7.3,3.4
				c2.2-0.2,4.1-1.3,5.4-3.1c0.2-0.3,0.6-0.5,1-0.5C124.8,36.9,125.6,36.9,126.4,36.9z"/>
			<path id="_Path_2" class="st0" d="M88.5,60.1c-1.8,0-3.5-0.5-5.1-1.3c-0.3-0.2-0.4-0.3-0.2-0.6c0.2-0.3,0.4-0.7,0.6-1.1
				c0.7-1.3,1.1-1.5,2.4-0.8c0.7,0.4,1.5,0.5,2.2,0.5c0.2,0,0.5,0.1,0.5-0.2c0-0.3-0.2-0.3-0.4-0.4c-0.6-0.2-1.1-0.4-1.7-0.6
				c-0.5-0.2-1-0.4-1.4-0.6c-1.7-1-2.3-3.1-1.3-4.8c0.1-0.1,0.2-0.3,0.3-0.4c1-1.3,2.7-2,4.3-1.7c1.4,0.2,2.7,0.6,3.8,1.3
				c0.2,0.1,0.2,0.2,0.1,0.4c-0.3,0.6-0.6,1.1-0.9,1.6c-0.3,0.6-0.9,0.8-1.5,0.5c0,0-0.1,0-0.1-0.1c-0.6-0.3-1.3-0.5-2.1-0.6
				c-0.2,0-0.5-0.1-0.5,0.2c-0.1,0.3,0.2,0.4,0.4,0.5c0.9,0.4,1.9,0.6,2.8,1c1.8,0.8,2.7,2.9,1.9,4.7c-0.5,1.1-1.4,1.9-2.6,2.1
				C89.5,60,89,60.1,88.5,60.1z"/>
			<path id="_Path_3" class="st0" d="M116.7,53.9c0-1.4,0-2.8,0-4.3c-0.1-0.8,0.5-1.5,1.3-1.5c0.1,0,0.1,0,0.2,0c1.8,0,3.5,0,5.3,0
				c0.8-0.1,1.5,0.5,1.6,1.3c0,0.1,0,0.2,0,0.4c0,1-0.5,1.6-1.5,1.6h-2.4c-0.2,0-0.4,0-0.6,0.1c-0.2,0.1-0.3,0.3-0.2,0.5
				c0,0.2,0.2,0.3,0.3,0.4c0.3,0.1,0.6,0.1,0.8,0.1h1.5c0.7,0,1.3,0.5,1.3,1.1c0,0.1,0,0.1,0,0.2c0,1-0.4,1.5-1.3,1.6
				c-0.6,0-1.3,0-1.9,0c-0.4,0-0.8,0.1-0.8,0.6c0,0.4,0.4,0.6,0.8,0.6c0.8,0,1.6,0,2.4,0.1c1.1,0,1.6,0.5,1.6,1.5
				c0,1-0.5,1.6-1.6,1.6h-5.4c-0.8,0.1-1.4-0.5-1.5-1.2c0-0.1,0-0.2,0-0.3C116.7,56.7,116.7,55.3,116.7,53.9L116.7,53.9z"/>
			<path id="_Path_4" class="st0" d="M100.1,55.8c-0.2,0.3-0.4,0.6-0.5,0.9c-0.2,0.6-0.7,1-1.3,1.1c-0.6-0.1-1.1-0.5-1.3-1.1
				c-0.1-0.2-0.2-0.5-0.3-0.7c-0.1-0.1-0.1-0.2-0.2-0.3c0,0.4-0.1,0.7-0.1,1c0,0.5,0,0.9,0,1.4c-0.1,0.8-0.6,1.2-1.6,1.1
				c-1,0-1.3-0.4-1.3-1.2c0-2.5,0.1-4.9,0.1-7.3c0.1-0.5,0.5-0.9,1-0.9c0.4-0.1,0.9-0.1,1.3,0c0.7,0.1,1.1,0.6,1.4,1.2
				c0.3,0.6,0.6,1.4,0.9,2.1c0.1,0.3,0.3,0.3,0.4,0c0.3-0.7,0.7-1.4,1-2.1c0.6-1.1,2-1.6,3.1-1c0.4,0.2,0.6,0.6,0.5,1
				c0,2.3,0,4.6,0,6.9c0,0.8-0.6,1.6-1.5,1.6c-0.3,0-0.6-0.1-0.9-0.2c-0.5-0.2-0.8-0.6-0.7-1.1c0-0.6,0-1.3,0-1.9
				C100.2,56.1,100.3,55.9,100.1,55.8z"/>
			<path id="_Compound_Path_2" class="st0" d="M141.8,54.6c0-1.1,0-2.2,0-3.3c0-0.9,0.4-1.3,1.2-1.3c1.3,0,2.7,0,4-0.1
				c1.4,0,2.5,1.2,2.4,2.6c0,0.6-0.3,1.2-0.7,1.6c-0.1,0.1-0.3,0.2,0,0.4c1,0.6,1.4,1.8,1,2.9c-0.3,1-1.3,1.7-2.3,1.7
				c-1.5,0.2-3,0.1-4.4,0.2c-0.6,0-1-0.5-1-1.1c0-1.2,0-2.4,0-3.6L141.8,54.6z M145.9,56.7L145.9,56.7c0.2,0,0.5,0,0.7,0
				s0.4-0.3,0.4-0.5s-0.1-0.5-0.4-0.5c-0.5,0-0.9,0-1.4,0.1c-0.3,0-0.5,0.2-0.5,0.5c0,0.3,0.2,0.5,0.5,0.5
				C145.5,56.7,145.7,56.7,145.9,56.7z M145.7,53.3h0.5c0.2,0,0.4-0.2,0.4-0.4c0,0,0-0.1,0-0.1c0-0.3-0.1-0.5-0.5-0.5
				c-0.3,0-0.4,0-0.5,0c-0.4,0-0.9,0-0.9,0.5C144.8,53.4,145.3,53.3,145.7,53.3z"/>
			<path id="_Path_5" class="st0" d="M108.6,54.1c0-1.3,0-2.6,0-3.8c-0.1-0.7,0.4-1.3,1.1-1.4c0.1,0,0.2,0,0.3,0c0.2,0,0.4,0,0.5,0
				c0.7,0,1.2,0.5,1.2,1.2c0,0.1,0,0.1,0,0.2c0,1.8,0,3.5,0,5.2c0,0.8,0.3,1,1,1h2.3c0.7,0,1.2,0.6,1.2,1.3c0,0,0,0,0,0
				c0,0.9-0.4,1.5-1.2,1.5c-1.8,0-3.6,0-5.4,0c-0.7,0-1.2-0.7-1.2-1.4c0,0,0,0,0,0L108.6,54.1L108.6,54.1z"/>
			<path id="_Compound_Path_3" class="st0" d="M140,59c-0.8,0.1-1.5-0.4-1.7-1.2c-0.2-0.4-0.6-0.6-1-0.6c-0.5,0-1,0-1.2,0.5
				c-0.4,1-1.2,1.2-2.2,1.1c-0.7-0.1-1-0.4-0.7-1.1c0.6-1.6,1.3-3.2,1.9-4.9c0.2-0.6,0.5-1.2,0.7-1.8c0.3-0.8,1.2-1.3,2-1
				c0.5,0.2,0.9,0.6,1,1.1c0.5,1.4,1,2.8,1.4,4.2c0.3,0.8,0.5,1.6,0.8,2.3C141.5,58.7,141.2,59.1,140,59z M137.4,53.6h-0.1
				c-0.1,0.4-0.2,0.8-0.3,1.1c-0.1,0.2,0,0.4,0.1,0.5c0.1,0.1,0.3,0.1,0.4,0c0.2-0.1,0.2-0.3,0.2-0.5
				C137.6,54.4,137.5,54,137.4,53.6z"/>
			<path id="_Path_6" class="st0" d="M107.6,53.9c0,1.4,0,2.8,0,4.3c0,1.2-0.5,1.7-1.7,1.7c-1.4,0-1.9-0.5-1.9-1.8
				c0-2.9,0.1-5.8,0.2-8.7c0-0.4,0.3-0.8,0.7-1c0.7-0.3,1.5-0.3,2.2,0c0.4,0.2,0.7,0.6,0.6,1.1C107.6,50.9,107.6,52.4,107.6,53.9
				L107.6,53.9z"/>
			<path id="_Path_7" class="st0" d="M125.8,54.6c0-1.1,0-2.2,0-3.3c0-0.9,0.4-1.3,1.3-1.3c1.2,0,1.6,0.3,1.6,1.3c0,1.5,0,3,0,4.5
				c0,0.8,0.2,1,1,1h1.9c0.6,0,1.2,0.5,1.2,1.2c0,0.9-0.4,1.4-1.2,1.4c-1.6,0-3.1,0-4.7,0c-0.6,0-1.1-0.5-1.1-1.1c0,0,0-0.1,0-0.1
				C125.7,56.9,125.7,55.7,125.8,54.6L125.8,54.6z"/>
			<path id="_Path_8" class="st0" d="M116.7,18.5c-0.6,0-0.6-0.1-0.6-0.7c0.1-1.4,0.2-2.8,0.3-4.1c0-0.2-0.1-0.4-0.3-0.5
				c0,0,0,0,0,0c-0.8-0.3-1.2-1-1-1.8c0.1-0.7,0.7-1.2,1.4-1.2c0.8-0.1,1.5,0.5,1.6,1.2c0.2,0.7-0.2,1.4-0.8,1.7
				c-0.5,0.2-0.5,0.4-0.5,0.8c0.2,1.3,0.3,2.6,0.4,4C117.4,18.5,117.4,18.5,116.7,18.5z"/>
			<path id="_Path_9" class="st0" d="M135.6,60.2c0,0.3-0.1,0.4-0.4,0.4c-0.3-0.1-0.4,0.1-0.4,0.4c0,0.4,0,0.9,0,1.3
				s-0.1,0.4-0.4,0.4s-0.4-0.1-0.4-0.4c0-0.5,0-0.9,0-1.4c0-0.3-0.1-0.4-0.4-0.4c-0.3,0-0.4,0-0.4-0.3c0-0.3,0.2-0.3,0.4-0.3
				c0.8,0,1.6,0,2.3,0c0.2,0,0.5,0.1,0.5,0.3c0.1,0.2,0.2,0.3,0.3,0.6c0.1-0.2,0.2-0.4,0.3-0.6c0.1-0.4,0.4-0.4,0.8-0.4
				c0.3,0,0.2,0.1,0.1,0.3c-0.1,0.2-0.2,0.4-0.4,0.7c-0.4,0.4-0.5,1-0.5,1.6c0,0.2-0.1,0.4-0.3,0.3c-0.3,0-0.5,0.1-0.4-0.3
				C136.6,61.6,136,60.9,135.6,60.2z"/>
			<path id="_Path_10" class="st0" d="M148.3,61.3c0.2-0.3,0.4-0.7,0.5-1c0.1-0.3,0.4-0.5,0.7-0.4c0,0,0,0,0,0
				c0.3,0.1,0.2,0.3,0.2,0.5c0,0.6,0,1.3,0,1.9c0,0.3-0.1,0.4-0.4,0.4s-0.4-0.1-0.4-0.4s0-0.5,0-0.8c-0.3,0.1-0.2,0.6-0.6,0.6
				s-0.4-0.4-0.7-0.6c0,0.3,0,0.5,0,0.7s0,0.4-0.4,0.4c-0.4,0-0.4-0.2-0.4-0.4c0-0.7,0-1.3,0-1.9c0-0.2-0.1-0.4,0.2-0.5
				c0.3,0,0.5,0,0.6,0.3C147.8,60.5,148.1,60.9,148.3,61.3z"/>
			<path id="_Compound_Path_4" class="st0" d="M139.8,60c0.2,0,0.5,0,0.7,0c0.5,0.1,0.8,0.6,0.7,1.1c0,0.1-0.1,0.2-0.1,0.3
				c-0.3,0.4-0.1,0.6,0,0.9c0.1,0.2,0.4,0.4,0.1,0.5c-0.3,0.1-0.6,0.1-0.8-0.2c-0.1-0.2-0.2-0.4-0.2-0.5c0-0.1-0.1-0.2-0.3-0.2
				s-0.1,0.2-0.1,0.3c0,0.3,0.1,0.7-0.5,0.7c-0.2,0-0.3-0.1-0.3-0.3c0-0.7,0-1.4,0-2.2c0-0.5,0.4-0.3,0.6-0.3
				C139.7,59.9,139.7,59.9,139.8,60z M140,60.6c-0.2,0-0.2,0.1-0.2,0.3c0,0.2,0.1,0.2,0.3,0.2c0.2,0,0.3,0,0.3-0.2
				S140.2,60.6,140,60.6z"/>
			<path id="_Compound_Path_5" class="st0" d="M133.1,62.7c-0.5,0.1-0.9,0-1-0.5c0-0.2-0.1-0.4-0.3-0.4c-0.2,0-0.1,0.3-0.1,0.5
				s0,0.5-0.4,0.5s-0.4-0.2-0.4-0.5v-2c0-0.2,0-0.3,0.2-0.3c0.4-0.1,0.9-0.1,1.4,0c0.5,0.1,0.8,0.6,0.7,1c0,0.1-0.1,0.2-0.1,0.3
				c-0.3,0.3-0.3,0.7,0,1C133.1,62.4,133.1,62.6,133.1,62.7z M131.9,61.2c0.2,0,0.4,0,0.4-0.2c0-0.2-0.2-0.3-0.4-0.3
				c-0.2,0-0.3,0.1-0.3,0.3C131.6,61.1,131.7,61.2,131.9,61.2z"/>
			<path id="_Compound_Path_6" class="st0" d="M146.5,61.4c0,1-0.3,1.4-1.2,1.4s-1.2-0.4-1.2-1.5s0.4-1.3,1.2-1.3
				C146.1,60,146.5,60.4,146.5,61.4z M145.7,61.4v-0.3c0-0.3-0.1-0.5-0.4-0.5s-0.4,0.2-0.4,0.5c0,0.2,0,0.4,0,0.6
				c0,0.2,0.2,0.4,0.4,0.4c0.1,0,0.1,0,0.2-0.1C145.8,61.9,145.6,61.6,145.7,61.4L145.7,61.4z"/>
			<path id="_Compound_Path_7" class="st0" d="M143.9,61.4c0,1-0.4,1.5-1.4,1.4c-0.6,0-1-0.4-1-1c0,0,0-0.1,0-0.1v-0.3
				c0-1,0.4-1.4,1.2-1.4C143.6,60,143.9,60.4,143.9,61.4z M143.1,61.4L143.1,61.4c0-0.1,0-0.2,0-0.4c0-0.2-0.2-0.4-0.3-0.4
				c0,0-0.1,0-0.1,0c-0.6,0.1-0.4,0.5-0.4,0.8c0,0.3,0,0.6,0.4,0.6c0.2,0,0.4-0.1,0.4-0.4S143.1,61.5,143.1,61.4L143.1,61.4z"/>
			<path id="_Compound_Path_8" class="st0" d="M130.6,62.8c-0.4,0-0.8,0.2-1-0.3c-0.1-0.2-0.8-0.1-0.9,0.1s-0.4,0.2-0.7,0.2
				s-0.1-0.2-0.1-0.3c0.3-0.8,0.5-1.5,0.8-2.3c0.1-0.2,0.3-0.2,0.5-0.2c0.2,0,0.4,0,0.5,0.3C130.1,61,130.3,61.9,130.6,62.8z
				 M129.3,61c-0.2,0.2-0.2,0.4-0.2,0.7c0,0,0.2,0.1,0.2,0C129.6,61.4,129.3,61.2,129.3,61z"/>
			<path id="_Compound_Path_9" class="st0" d="M125.9,61.3v-0.2c0-1.2,0-1.2,1.2-1.2c0.6,0,1,0.4,1,1c0,0.5-0.3,0.9-0.8,0.9
				c-0.1,0-0.1,0-0.2,0c-0.4,0-0.6,0.1-0.5,0.5s-0.1,0.4-0.4,0.4c-0.3,0-0.4,0-0.4-0.3C125.8,62.1,125.9,61.7,125.9,61.3z
				 M126.6,60.9c0,0.2-0.1,0.3,0.2,0.3c0.3,0,0.4,0,0.4-0.3c0-0.3-0.2-0.3-0.4-0.3C126.6,60.6,126.6,60.8,126.6,60.9z"/>
			<path id="_Path_11" class="st0" d="M123,29.9c0,1-0.7,1.8-1.7,1.8c0,0,0,0-0.1,0c-1,0-1.8-0.8-1.8-1.8c0-1,0.7-1.8,1.7-1.8
				c0,0,0.1,0,0.1,0c0.9,0,1.7,0.7,1.8,1.6C123,29.8,123,29.9,123,29.9z"/>
			<path id="_Path_12" class="st0" d="M110.5,30.5c0-0.8,0.6-1.4,1.4-1.5c0.8,0,1.5,0.7,1.5,1.5c0,0,0,0,0,0c0,0.8-0.7,1.5-1.5,1.5
				c0,0-0.1,0-0.1,0c-0.8,0-1.4-0.6-1.4-1.4C110.5,30.6,110.5,30.5,110.5,30.5z"/>
		</g>
	</g>
</g>
</svg>
