<?xml version="1.0" encoding="utf-8"?>
<!-- Generator: Adobe Illustrator 22.1.0, SVG Export Plug-In . SVG Version: 6.00 Build 0)  -->
<svg version="1.1" id="Layer_1" xmlns="http://www.w3.org/2000/svg" xmlns:xlink="http://www.w3.org/1999/xlink" x="0px" y="0px"
	 viewBox="0 0 233 73" style="enable-background:new 0 0 233 73;" xml:space="preserve">
<style type="text/css">
	.st0{fill:#3D3D3D;}
	.st1{fill:#FFFFFF;}
</style>
<title>Asset 34</title>
<g id="Layer_2_1_">
	<g id="Layer_1-2">
		<g id="_Group_">
			<path id="_Compound_Path_" class="st0" d="M128.1,48.4v-0.2c0-0.1,0-0.2,0-0.3c0-0.1,0-0.2-0.1-0.3c-0.3-0.5-0.7-0.9-1.2-1.2
				c-0.4-0.1-0.7-0.3-1-0.6c-0.2-0.5-0.2-0.9,0.2-1.1c0.4-0.2,0.7-0.2,1.1,0.3c0.2,0.2,0.3,0.1,0.4,0s0.1-0.3,0-0.4
				c-0.4-0.6-1.2-0.8-1.8-0.4c-0.6,0.3-0.8,1.1-0.5,1.7c0,0.1,0.1,0.1,0.1,0.1c0.2,0.3,0.5,0.6,0.9,0.7c0.5,0.2,1,0.5,1.3,1
				c0.1,0.4,0.1,0.8,0,1.2c-0.4,0.6-1.1,0.8-1.7,0.4c-0.3-0.2-0.4-0.4-0.5-0.7c-0.1-0.2-0.1-0.4-0.3-0.3c-0.3,0.1-0.2,0.3-0.2,0.5
				c0.2,0.7,0.8,1.1,1.5,1.2c0.7,0.1,1.4-0.3,1.7-0.9c0.1-0.2,0.2-0.4,0.2-0.6C128.2,48.6,128.2,48.5,128.1,48.4
				C128.1,48.4,128.1,48.4,128.1,48.4z M106,48v1.8c0,0.1,0,0.2,0.2,0.2c0.1,0,0.1-0.1,0.1-0.2V48v-3.4c0-0.1,0-0.3-0.1-0.3
				c-0.2,0-0.2,0.2-0.2,0.3V48z M137.2,48.2c0.2,0.5,0.5,1,1,1.3c1.1,0.8,2.5,0.7,3.6-0.1c0.1-0.1,0.3-0.2,0.1-0.4
				c-0.2-0.2-0.2-0.2-0.4-0.1c-0.8,0.6-1.8,0.7-2.7,0.2c-0.4-0.3-0.8-0.7-1.1-1.2c-0.3-0.5-0.3-1.1-0.1-1.7c0.1-0.2,0.2-0.5,0.3-0.7
				c0.8-1.1,2.3-1.4,3.5-0.6c0,0,0.1,0,0.1,0.1c0.1,0.1,0.3,0.1,0.4,0c0,0,0,0,0,0c0.2-0.2,0-0.3-0.1-0.4c-1.3-1-3.2-0.7-4.2,0.6
				c-0.2,0.3-0.4,0.6-0.5,1C136.8,46.9,136.9,47.6,137.2,48.2z M132.4,48.1c0,0.5,0,1.1,0,1.6c0,0.2,0.1,0.3,0.3,0.3
				c0.2,0,0.3-0.1,0.3-0.3v-1.6v-2.6c0.1,0,0.1-0.1,0.2,0l0.7,1.2c0.3,0.6,0.6,1.2,1,1.8c0.2,0.5,0.5,0.9,0.7,1.3
				c0.1,0.2,0.3,0.2,0.4,0.2c0.2,0,0.2-0.2,0.2-0.4c0-0.7,0-1.3,0-2c0-0.3,0-0.7,0-1c0-0.7,0-1.5,0-2.2c0-0.2-0.1-0.3-0.3-0.3
				c-0.2,0-0.2,0.1-0.2,0.3v2.2c0,0.2,0,0.5,0,0.7c0,0.3,0,0.6,0,1s-0.2,0.1-0.3,0l-1-1.8c-0.4-0.8-0.9-1.5-1.3-2.3
				c-0.1-0.2-0.3-0.3-0.5-0.2c-0.2,0-0.2,0.2-0.2,0.4v2.1C132.4,47.2,132.4,47.7,132.4,48.1z M145.6,49.9c0.1-0.3,0-0.4-0.3-0.4
				h-1.2c-0.9,0-0.9,0-0.9-0.8c0-0.3,0-0.6,0-1c0-0.3,0.1-0.3,0.3-0.3h1.9c0.2,0,0.3-0.1,0.3-0.3s-0.2-0.2-0.4-0.2
				c-0.6,0-1.2,0-1.8,0c-0.2,0-0.3-0.1-0.3-0.3c0-0.6,0-1.2,0-1.8h2.1c0.2,0,0.3,0,0.3-0.3s-0.2-0.2-0.3-0.2c-0.8,0-1.6,0-2.3,0
				c-0.2,0-0.4,0.1-0.4,0.3c0,0.3,0,0.8,0,1.2c0,0.3,0,0.6,0,0.8c0,0.7,0,1.4,0,2.1c-0.1,0.4-0.1,0.8,0,1.2c0,0.1,0.1,0.1,0.2,0.1
				h2.5C145.5,50,145.6,50,145.6,49.9z M123.6,48c0.1,0.3,0,0.7-0.1,1c-0.9,0.9-1.8,0.8-2.3-0.4c-0.1-0.2-0.2-0.2-0.3-0.2
				c-0.1,0-0.2,0.2-0.2,0.3c0,0,0,0,0,0c0.2,0.7,0.7,1.2,1.4,1.3c0.7,0.2,1.4-0.2,1.8-0.8c0.2-0.4,0.4-0.8,0.2-1.3
				c-0.1-0.7-0.6-1.2-1.3-1.5c-0.3-0.1-0.7-0.3-1-0.5c-0.3-0.3-0.2-0.8,0.1-1.1c0,0,0,0,0,0c0.3-0.3,0.8-0.2,1.1,0.2
				c0.1,0.1,0.2,0.2,0.4,0.1c0,0,0,0,0.1,0c0.2-0.1,0.1-0.3,0-0.4c-0.3-0.4-0.7-0.6-1.2-0.6c-0.5,0-0.9,0.4-1.1,0.8
				c-0.2,0.5-0.1,1,0.3,1.3c0.2,0.3,0.6,0.5,0.9,0.6C122.9,47,123.3,47.4,123.6,48z M117.1,49.4c-0.1,0.6-0.1,0.6,0.5,0.6s1.3,0,2,0
				c0.2,0,0.4,0.1,0.5-0.2c0-0.3-0.3-0.2-0.5-0.3c-0.7,0-1.4,0-2.1-0.1c0-0.4,0-0.9,0-1.3c0-0.1,0-0.1,0-0.2
				c-0.1-0.5,0.1-0.6,0.6-0.6s1.1,0,1.6,0c0.2,0,0.4,0,0.4-0.3c0-0.3-0.2-0.2-0.3-0.2c-0.5,0-0.9,0-1.4,0c-0.7,0-0.7,0-0.8-0.6
				c0-0.3,0-0.7,0-1c0-0.3,0.1-0.5,0.5-0.5c0.6,0,1.1,0,1.7,0c0.2,0,0.3,0,0.3-0.3c0-0.3-0.2-0.3-0.4-0.3c-0.8,0-1.6,0-2.3,0
				c-0.2,0-0.3,0.1-0.3,0.3c0,0.6,0,1.1,0,1.7c0,0.6,0,1.3,0,1.9C117,48.6,117,49,117.1,49.4z M93.3,48.8v-2.4c0.1-0.5,0.1-1,0-1.6
				c0-0.2,0.2-0.3,0.3-0.3c0.2,0,0.6,0,1,0c0.1,0,0.2,0,0.2-0.1s-0.1-0.2-0.2-0.2h-2.9c-0.1,0-0.2,0-0.2,0.2c0,0.1,0.1,0.1,0.2,0.1
				c0.3,0,0.5,0,0.8,0c0.4,0,0.5,0.1,0.5,0.5c0,1.2,0,2.5,0,3.8c0,0.3,0,0.7,0,1c0,0.1,0,0.2,0.1,0.2s0.2-0.1,0.2-0.2L93.3,48.8z
				 M111.3,28.6c-0.9-0.8-1.9-1.5-3-2c-0.7-0.4-1.4-0.6-2.1-0.8c-0.5-0.2-1-0.4-1.6-0.4c-0.7-0.2-1.5-0.4-2.2-0.4
				c0.5,0.7,1,1.3,1.5,2c0.9,1.3,1.6,2.7,2.3,4.1l0.8,2.1c0.3,1,0.6,2,0.9,3c0.7,2.4,2,4.5,3.7,6.3c0.5,0.7,1.2,1.2,2,1.6
				c-0.2-0.1-0.3-0.4-0.5-0.6c-1-1.1-1.8-2.3-2.3-3.7c-0.5-1.3-1-2.6-1.3-4c-0.1-0.5-0.2-1.1-0.4-1.6c-0.3-1.4-0.8-2.8-1.5-4.1h0.2
				c0.3,0.6,0.6,1.3,0.9,1.9l1,2.7c0.8,2.8,1.6,5.6,3.5,8c-0.7-1.8-1.1-3.7-1.2-5.6v-1.4l0.1-1.4l0.3-1.5c0.2-0.6,0.4-1.2,0.6-1.8
				c0-0.1,0.1-0.2-0.1-0.3l-0.1-0.2c-0.3-0.6-0.7-1.1-1.2-1.5C111.5,28.8,111.4,28.7,111.3,28.6z M129.1,48.2v-0.4
				c0-0.4,0.2-0.5,0.6-0.5s1.1,0,1.6,0c0.2,0,0.4,0,0.4-0.3c0-0.3-0.2-0.2-0.4-0.2h-1c-1,0-1,0-1.1-1c0,0,0-0.1,0-0.1
				c0-0.2,0-0.4,0-0.6c0-0.4,0.1-0.5,0.4-0.4c0.6,0,1.2,0,1.7,0c0.2,0,0.3-0.1,0.3-0.3s-0.1-0.2-0.3-0.2h-2.5
				c-0.2,0-0.3,0.1-0.3,0.3c0,0.5,0,1,0,1.4c-0.1,0.6-0.1,1.3,0,1.9c0,0.2,0,0.4,0,0.6c0,0.4,0,0.9,0,1.3c0,0.2,0.1,0.3,0.3,0.3
				c0.8,0,1.6,0,2.4,0c0.2,0,0.3,0,0.3-0.3s-0.2-0.2-0.3-0.2c-0.6,0-1.2,0-1.7,0c-0.3,0-0.4-0.1-0.4-0.4
				C129.2,48.8,129.2,48.5,129.1,48.2z M100.9,46.2v1.9c0,0.5,0,1.1,0,1.6c0,0.1,0,0.2,0.2,0.2s0.2-0.1,0.2-0.2c0-0.5,0-1.1,0-1.7
				c0-1,0-2.1,0-3.1c0-0.2-0.1-0.4,0.2-0.4c0.7-0.1,1.5,0,2.2,0.2c0.8,0.5,1.3,1.3,1.4,2.3v0.5V48c0,0-0.1,0.1-0.1,0.2
				c-0.2,0.9-0.6,1.6-1.6,1.7c-0.1,0-0.1,0.1-0.1,0.1c0,0.1,0.1,0.1,0.2,0.1c0.2,0,0.5,0,0.7-0.2c0.7-0.4,1.1-1.2,1.2-2
				c0.1-0.6,0.1-1.1-0.1-1.7c-0.3-1.1-1.2-1.8-2.3-2c-0.6,0-1.2,0-1.8,0c-0.1,0-0.1,0.1-0.1,0.2C100.9,45,100.8,45.6,100.9,46.2
				L100.9,46.2z M89,47.2c0.2,0.1,0.4,0.1,0.6,0.1h0.2c0.6,0.2,1,0.6,1.1,1.2c-0.1,0.7-0.7,1.3-1.4,1.3c-0.7,0.1-1.4-0.3-1.6-0.9
				c-0.1-0.1,0-0.4-0.3-0.3c-0.3,0.1-0.1,0.3,0,0.5c0,0.1,0.1,0.2,0.1,0.3c0.7,0.9,2,1.1,2.9,0.4c0.1-0.1,0.2-0.2,0.3-0.3
				c0.3-0.3,0.4-0.7,0.2-1.1c0.1-0.4-0.2-0.6-0.4-0.8c-0.4-0.4-1-0.6-1.6-0.6c-0.6,0-1.2-0.4-1.4-1c0-0.1-0.1-0.1-0.1-0.2
				c0-0.2,0.1-0.5,0.2-0.7c0.4-0.5,1-0.8,1.7-0.7c0.6,0,1.1,0.4,1.3,1c0,0.1,0,0.2,0.2,0.2c0.2,0,0.1-0.2,0.1-0.3c0-0.1,0-0.1,0-0.2
				c-0.2-0.6-0.8-1.1-1.5-1.1c-0.8-0.2-1.6,0.1-2,0.8c-0.4,0.7-0.2,1.6,0.4,2c0.2,0.1,0.4,0.2,0.7,0.2C88.8,47.1,88.9,47.2,89,47.2
				L89,47.2z M120.5,39.3l1.5-0.9c0.5-0.3,0.9-0.5,1.4-0.9c0.4-0.2,0.9-0.5,1.3-0.8c0.6-0.3,1.1-0.7,1.6-1.2c2.2-2,3.3-4.9,2.9-7.9
				c0-0.3,0-0.6-0.1-0.9c0-0.6-0.2-1.2-0.3-1.8c-0.1-0.4-0.2-0.8-0.4-1.1c-0.1-0.4-0.2-0.8-0.4-1.2c0-0.2-0.1-0.4-0.2-0.5
				c0-0.1,0-0.1-0.1-0.1v0.1c-0.3,0.6-0.5,1.3-0.8,1.9c-1.2,2.2-2.7,4.2-4.5,6c-0.1,0.1-0.3,0.2-0.4,0.5c-0.1,1-0.3,1.9-0.6,2.8
				c1.4-1.1,2.7-2.4,3.8-3.8c0.4-0.4,0.7-1,1.1-1.4c0,0.2-0.2,0.4-0.2,0.6l-0.5,0.8c-0.7,1-1.5,2-2.3,2.9c-0.8,0.8-1.7,1.6-2.5,2.4
				c-0.2,0.2-0.4,0.5-0.6,0.8c-0.5,0.5-0.9,1.1-1.2,1.7c-1.1,1.5-1.9,3.1-2.4,4.9c-0.1,0.3-0.1,0.6,0,0.9c0.3-0.7,0.8-1.4,1.5-1.9
				c0.5-0.4,1-0.8,1.6-1.2C119.8,39.9,120.1,39.6,120.5,39.3z M114.6,33.8c0.3-0.7,0.6-1.4,0.9-2.2c0.4-1.1,0.8-2.1,1.1-3.2
				c0.4-1.1,0.6-2.2,0.7-3.4c0.4-0.2,0.4-0.2,0.2-0.5c-0.2,0.4,0.1,0.7,0,1.1c-0.1,0-0.1,0.1-0.1,0.2l-0.2,1.4l-0.8,3l-0.9,2.7
				c-0.4,0.8-0.6,1.7-0.8,2.6c0,0.1-0.1,0.2-0.1,0.3c-0.5,2.9-0.3,5.9,0.7,8.7c0.1,0.2,0.1,0.4,0.2,0.5c0-0.2,0-0.5-0.1-0.7
				c-0.1-0.7-0.1-1.3,0-2V42l0.1-0.4v-0.2l0.1-0.5c0.1-0.1,0.1-0.1,0.1-0.2c0.4-1.1,0.9-2.1,1.6-3.1c0.5-0.6,0.9-1.1,1.2-1.7
				c0.6-0.8,1-1.6,1.4-2.5c0.5-0.9,0.8-2,0.9-3c0.2-0.5,0.2-1.1,0.2-1.7c0.1-0.2,0.1-0.5,0-0.7c0-0.2,0-0.4,0-0.6
				c0-1.1-0.3-2.2-0.8-3.2c-0.4-1.1-1-2.2-1.8-3.1c-0.7-0.9-1.6-1.8-2.5-2.4c0.1,0.8,0,1.5,0.1,2.2v0.8c0,0.2,0,0.4,0,0.5l-0.1,0.6
				v0.2l-0.2,1.3l-1,3.9v0.2l-0.1,0.2l-0.8,2.6c-0.3,0.8-0.5,1.6-0.6,2.4c-0.2,0.9-0.3,1.8-0.3,2.8c-0.1,0.4-0.1,0.9,0,1.3
				c0,0.1,0,0.2,0,0.3c0,0.3,0,0.5,0.1,0.8c0,0,0,0.1,0,0.2c0,0,0,0,0,0c0.2,1.5,0.6,2.9,1.2,4.3c0.1-0.2,0.1-0.5,0-0.7
				c-0.2-0.7-0.3-1.3-0.4-2c-0.2-1.4-0.2-2.8,0-4.2C114.2,35.4,114.3,34.6,114.6,33.8z M95.8,44.6c0-0.1,0-0.2-0.2-0.2
				c-0.2,0-0.1,0.2-0.1,0.3c0,1.1,0,2.2,0,3.3c0,1.2,1,2.2,2.2,2.2c0,0,0,0,0,0c1.2,0,2.2-1,2.2-2.2c0-1.1,0-2.1,0-3.2
				c0-0.2,0.1-0.4-0.2-0.4s-0.1,0.2-0.1,0.4c0,1.1,0,2.2,0,3.2c-0.1,1.1-1,1.9-2.1,1.8c-1-0.1-1.7-0.8-1.8-1.8c0-0.2,0-0.5,0-0.7
				L95.8,44.6z M110.6,50h0.2c1.1-0.2,1.9-1.1,2.1-2.1v-0.2c0.3-1.6-0.7-3.1-2.3-3.4c-1.1-0.2-2.2,0.2-2.9,1.1c-0.7,0.8-0.9,2-0.4,3
				c0.4,1,1.4,1.7,2.4,1.7c0.2,0.1,0.4,0.1,0.5,0L110.6,50z M119.3,52.4h0.2c0,0.5,0,1,0,1.5c0,0.1-0.1,0.4,0.1,0.4
				c0.2,0,0.1-0.2,0.1-0.3v-2c0-0.1,0-0.3-0.1-0.3c-0.1,0-0.2,0.1-0.3,0.3c-0.2,0.5-0.5,1-0.7,1.4c-0.1,0.1-0.1,0.4-0.3,0.4
				c-0.2,0-0.2-0.2-0.2-0.3l-0.7-1.5c0-0.1-0.1-0.2-0.3-0.2c-0.2,0-0.1,0.2-0.1,0.3c0,0.6,0,1.2,0,1.8c0,0.2-0.2,0.6,0.1,0.6
				c0.3,0,0.1-0.4,0.1-0.6c0-0.4,0-0.8,0.1-1.2c0.3,0.5,0.6,1,0.8,1.5c0,0.1,0.1,0.3,0.2,0.3s0.2-0.1,0.2-0.2
				C118.8,53.5,119.1,53,119.3,52.4z M114.6,54c-0.2-0.1-0.3-0.3-0.3-0.5c0-0.2,0.2-0.4,0.4-0.5c0.1,0,0.3,0,0.3-0.2
				c0-0.2-0.2-0.2-0.2-0.2c-0.1-0.1-0.3-0.2-0.2-0.5s0.3-0.2,0.4,0c0.2,0.2,0.2,0.1,0.3,0c0.1-0.1,0-0.2-0.1-0.3
				c-0.2-0.2-0.4-0.3-0.7-0.1c-0.3,0.1-0.4,0.4-0.3,0.6c0,0,0,0,0,0c0.1,0.2,0,0.5-0.1,0.7c-0.2,0.2-0.2,0.6,0,0.8
				c0.1,0.3,0.4,0.4,0.7,0.4c0.4-0.1,0.8-0.4,1-0.8c0-0.1,0-0.3-0.1-0.4c-0.3-0.3-0.5,0.4-0.9,0.2c-0.1,0-0.2,0.1-0.2,0.3
				S114.8,53.9,114.6,54z M112.9,54.2c-0.2-0.2-0.4-0.4-0.6-0.6c-0.2-0.2-0.2-0.3,0.1-0.3c0.5-0.1,0.8-0.6,0.7-1
				c0-0.1-0.1-0.3-0.2-0.4c-0.5-0.3-1-0.3-1.5-0.2c-0.1,0-0.1,0.1-0.1,0.2v2.3c0,0.1,0,0.2,0.1,0.2s0.1-0.1,0.1-0.1s0-0.2,0-0.3
				s0-0.2,0.1-0.3s0.2,0.1,0.3,0.1c0.1,0.1,0.3,0.3,0.5,0.5S112.7,54.4,112.9,54.2z M105.7,52.9L105.7,52.9c0,0.3,0,0.5,0,0.8
				s-0.1,0.5,0.2,0.5s0.1-0.3,0.1-0.5c0-0.7,0-0.7,0.7-0.7h0.2c0.3,0,0.4,0.1,0.4,0.4s0,0.4,0,0.6s0,0.2,0.2,0.2
				c0.1,0,0.1-0.1,0.1-0.2c0-0.8,0-1.6,0-2.3c0-0.1,0-0.2-0.1-0.2s-0.1,0.1-0.1,0.2c0,0.2,0,0.5,0,0.7s0,0.3-0.2,0.3
				c-0.3,0.1-0.6,0.1-0.9,0c-0.3-0.1-0.1-0.4-0.1-0.7c0-0.1,0-0.2,0-0.3c0-0.1,0-0.2-0.1-0.2s-0.1,0.1-0.1,0.2L105.7,52.9z
				 M122.5,54.1c0-0.1,0-0.1-0.1-0.2c-0.3-0.7-0.6-1.4-0.9-2.1c0-0.1-0.1-0.3-0.3-0.3c-0.2,0-0.2,0.2-0.2,0.3
				c-0.3,0.7-0.6,1.3-0.8,2c-0.1,0.1-0.2,0.3-0.1,0.4s0.2-0.1,0.3-0.2s0.2-0.1,0.3-0.1c0.3,0,0.5,0,0.8,0c0.3,0,0.6-0.1,0.8,0.3
				c0,0,0.1,0,0.2,0c0,0,0,0,0,0C122.5,54.3,122.6,54.2,122.5,54.1z M109.1,51.6c-0.1,0-0.2,0.1-0.2,0.1l-1,2.4c0,0.1,0,0.2,0,0.2
				c0.1,0,0.1,0,0.2,0c0,0,0,0,0,0c0.1-0.3,0.4-0.3,0.6-0.3s0.6,0,0.9,0s0.3,0,0.4,0.2s0.1,0.2,0.2,0.1s0-0.2,0-0.2
				c-0.3-0.7-0.6-1.5-1-2.2C109.2,51.6,109.2,51.6,109.1,51.6z M123.1,52.6v-0.8c0-0.1,0-0.2-0.1-0.2c-0.1,0-0.2,0.1-0.2,0.2v2.3
				c0,0.1,0,0.2,0.2,0.2s0.1-0.1,0.1-0.2s-0.1-0.5,0.1-0.8l0.2,0.2l0.6,0.7c0.1,0.1,0.2,0.2,0.3,0.1c0.1-0.1,0-0.2-0.1-0.3
				c-0.2-0.2-0.4-0.5-0.6-0.7c-0.3-0.3-0.3-0.5,0-0.8c0.3-0.3,0.6-0.6,0.8-1C123.8,51.6,123.7,52.3,123.1,52.6L123.1,52.6z
				 M129.6,52.9V54c0,0.1,0,0.3,0.2,0.3s0.1-0.2,0.1-0.3c-0.1-0.5,0.1-0.7,0.6-0.7s0.8-0.4,0.7-0.9c0-0.4-0.3-0.8-0.7-0.8
				c0,0,0,0-0.1,0c-0.2,0-0.4,0-0.6,0c-0.2,0-0.4,0.1-0.4,0.4S129.6,52.6,129.6,52.9L129.6,52.9z M127.5,52.7c0,0.3,0,0.5,0,0.8
				c0,0.5,0.4,0.8,0.9,0.8c0.4,0,0.7-0.3,0.8-0.7c0-0.6,0-1.1,0-1.7c0-0.1,0-0.2-0.1-0.2s-0.2,0.2-0.2,0.3v1.5
				c0,0.5-0.2,0.7-0.6,0.8c-0.3,0-0.6-0.3-0.6-0.8v-1.5c0-0.1,0-0.2-0.1-0.2c-0.1,0-0.2,0.1-0.2,0.2
				C127.5,52.1,127.5,52.4,127.5,52.7L127.5,52.7z M124.7,53V54c0,0.1,0,0.3,0.2,0.3h1.2c0.1,0,0.2,0,0.2-0.1c0-0.1-0.1-0.1-0.2-0.1
				h-0.7c-0.2,0-0.5,0.1-0.4-0.3c0-0.4-0.2-0.7,0.4-0.7c0.1,0,0.2,0,0.2-0.1c0-0.1-0.2-0.2-0.2-0.1c-0.4,0-0.4-0.2-0.4-0.5
				c0-0.3,0.1-0.5,0.5-0.5c0.2,0,0.3,0,0.5,0c0.1,0,0.2,0,0.2-0.1c0-0.1-0.1-0.1-0.2-0.1h-1c-0.2,0-0.3,0.1-0.3,0.3L124.7,53z
				 M110.9,53c0-0.3,0-0.7,0-1c0-0.1,0-0.3-0.2-0.3s-0.1,0.1-0.1,0.2c0,0.7,0,1.5,0,2.2c0,0.1,0,0.2,0.1,0.2c0.2,0,0.1-0.1,0.1-0.2
				C110.9,53.6,110.9,53.3,110.9,53L110.9,53z"/>
			<path id="_Path_" class="st0" d="M115.8,41l-0.1,0.5c0,0-0.1,0.1,0,0.2c0,0,0,0,0,0l-0.1,0.4c-0.1,0-0.1,0.1,0,0.2
				c-0.1,0.7-0.1,1.3,0,2l-0.2,0.2c-1-2.8-1.3-5.8-0.7-8.7c0-0.1,0.1-0.2,0.1-0.3c1.1,0.1,2.1,0.2,3.2,0.2c0.2,0,0.5,0.1,0.6,0.3
				c-0.4,0.6-0.8,1.2-1.2,1.7c-0.6,1-1.1,2-1.5,3.1C115.7,40.8,115.7,40.9,115.8,41z"/>
			<path id="_Path_2" class="st0" d="M106.1,31c-0.7-1.4-1.4-2.8-2.3-4.1c-0.5-0.7-1-1.3-1.5-2c0.8,0.1,1.5,0.2,2.2,0.4
				c0.4,0.6,0.8,1.2,1.3,1.9c0.6,0.6,1,1.3,1.2,2.1c0.1,0.3,0.3,0.6,0.5,0.8c0.6,1.3,1.1,2.7,1.5,4.1c-0.3-0.1-0.5-0.3-0.6-0.5
				c-0.5-0.9-1.2-1.5-1.7-2.4C106.6,31.2,106.4,30.9,106.1,31z"/>
			<path id="_Path_3" class="st0" d="M125,29.5c-1.1,1.4-2.3,2.7-3.8,3.8c0.3-0.9,0.5-1.8,0.6-2.8c0-0.2,0.2-0.3,0.4-0.5
				c1.8-1.8,3.3-3.8,4.5-6c0.3-0.6,0.6-1.3,0.8-1.9h0.1c0.1,0.2,0.2,0.4,0.2,0.6c-0.3,0-0.3,0.3-0.4,0.5c-0.7,1.5-1.3,3-1.9,4.6
				C125.3,28.3,125.1,28.9,125,29.5z"/>
			<path id="_Path_4" class="st0" d="M115.5,32.9l0.8-2.7l4.5,0.2c-0.1,1-0.4,2.1-0.9,3c-0.1-0.1-0.2-0.2-0.4-0.2
				C118.2,33,116.9,32.9,115.5,32.9z"/>
			<path id="_Path_5" class="st0" d="M120.9,30.4l-4.5-0.2l0.8-3c0.7,0,1.3,0,2,0.1c0.6,0,1.2,0.1,1.9,0.2c0,0.2,0,0.4,0,0.6
				c-0.1,0.2-0.1,0.5,0,0.7C121,29.3,121,29.8,120.9,30.4z"/>
			<path id="_Path_6" class="st0" d="M107,29.3c-0.2-0.8-0.6-1.6-1.2-2.1c-0.5-0.6-0.9-1.2-1.3-1.9c0.5,0.1,1.1,0.2,1.6,0.4
				c0,0.2,0.1,0.3,0.2,0.4c0.4,0.7,0.9,1.4,1.5,2c0.2,0.2,0.3,0.4,0.3,0.6c0.1,0.1,0.3,0.1,0.4,0.1c0.1,0.3,0.3,0.6,0.6,0.9
				c0.2,0.2,0.4,0.4,0.4,0.7c-0.4,0-0.9,0-1.3,0.1c0.3,0.1,0.7,0.1,1.1,0.1c0,0.2,0.1,0.3,0.2,0.4c0.5,0.9,1.2,1.6,1.8,2.4
				c0.2,0.3,0.4,0.7,0.8,0.8l-0.1,1.4c-0.3,0-0.5-0.2-0.6-0.4c-0.5-0.8-1.2-1.5-1.7-2.3c-0.2-0.4-0.5-0.9-1-1
				c-0.3-0.6-0.7-1.2-0.9-1.9C107.6,29.8,107.4,29.5,107,29.3z"/>
			<path id="_Path_7" class="st0" d="M128.7,25c0.2,0.6,0.3,1.2,0.3,1.8c-0.3,0.1-0.4,0.3-0.4,0.5l-1.3,2.9
				c-0.6,1.4-1.2,2.7-1.8,4.1c-0.4,0.8-0.7,1.6-0.9,2.5c-0.4,0.3-0.8,0.6-1.3,0.8c0-0.3,0.1-0.5,0.2-0.8c0.2-0.3,0.3-0.7,0.4-1
				c0.1,0,0.2,0,0.2,0c0,0-0.1,0-0.1-0.1c0-0.2,0.1-0.5,0.2-0.7c0.6-1.4,1.3-2.8,1.9-4.3c0.7-1.8,1.5-3.6,2.3-5.4
				C128.4,25.2,128.5,25.1,128.7,25z"/>
			<path id="_Path_8" class="st0" d="M109.3,35.8c0.3,1.4,0.7,2.7,1.3,4c0.6,1.3,1.4,2.6,2.3,3.7c0.2,0.2,0.2,0.5,0.4,0.6
				c-0.8-0.4-1.5-0.9-2-1.6c-1.7-1.8-3-4-3.7-6.3c-0.3-1-0.6-2-0.9-3c0.2,0,0.4,0.1,0.5,0.3c0.3,0.5,0.7,0.9,1,1.4
				C108.6,35.2,108.8,35.6,109.3,35.8z"/>
			<path id="_Path_9" class="st0" d="M115.5,32.9c1.3,0.1,2.7,0.1,4,0.3c0.2,0,0.3,0.1,0.4,0.2c-0.3,0.9-0.8,1.8-1.4,2.5
				c-0.2-0.2-0.4-0.3-0.6-0.3c-1.1,0-2.2-0.1-3.2-0.2C114.8,34.5,115.1,33.7,115.5,32.9z"/>
			<path id="_Path_10" class="st0" d="M115.7,24.4l0.2-1.3c0.1,0,0.1-0.1,0-0.2c0,0,0,0,0,0l0.1-0.6c0.1-0.2,0.1-0.4,0-0.6v-0.8
				c0.7,0.2,1.4,0,2.1,0.2c0.1,0,0.2,0,0.3-0.1c0.8,0.9,1.4,2,1.8,3.1c-0.8,0-1.5,0-2.3-0.1c-0.3,0-0.5,0.1-0.6,0.4
				c0.2,0.3,0.2,0.3-0.2,0.5c0-0.3-0.1-0.5-0.5-0.5C116.3,24.5,116,24.5,115.7,24.4z"/>
			<path id="_Path_11" class="st0" d="M117.3,24.5c0.1-0.3,0.3-0.4,0.6-0.4c0.8,0,1.5,0.1,2.3,0.1c0.5,1,0.7,2.1,0.8,3.2
				c-0.6-0.1-1.2-0.2-1.9-0.2c-0.7-0.1-1.3-0.1-2-0.1l0.1-1.4c0.1,0,0.1-0.1,0.1-0.2C117.4,25.2,117.2,24.8,117.3,24.5z"/>
			<path id="_Path_12" class="st0" d="M119.3,40.1c-0.5,0.4-1,0.8-1.5,1.2c-0.6,0.5-1.1,1.1-1.5,1.9c-0.1-0.3-0.1-0.6,0-0.9
				c0.5-1.8,1.4-3.4,2.5-4.9c0.4-0.6,0.8-1.1,1.2-1.7h0.1c0.3,0.1,0.6,0.1,0.8,0.1c-0.3,0.9-0.6,1.8-1.1,2.7
				C119.6,39,119.4,39.5,119.3,40.1z"/>
			<path id="_Path_13" class="st0" d="M124.6,36.8c0.2-0.9,0.5-1.7,0.9-2.5c0.6-1.4,1.2-2.7,1.8-4.1l1.3-2.9
				c0.1-0.2,0.2-0.4,0.5-0.5c0.1,0.3,0.1,0.6,0.1,0.9c-0.2,0.3,0,0.7-0.2,1.1c-0.7,1.5-1.3,3-2,4.5c-0.4,0.7-0.7,1.5-0.8,2.3
				C125.7,36.1,125.2,36.5,124.6,36.8z"/>
			<path id="_Path_14" class="st0" d="M128.7,25c-0.2,0-0.3,0.2-0.4,0.4c-0.8,1.8-1.6,3.5-2.3,5.3c-0.6,1.4-1.2,2.9-1.9,4.3
				c-0.1,0.2-0.2,0.4-0.2,0.7h-0.7c0.1-0.4,0.2-0.8,0.4-1.2c0.7-1.6,1.4-3.1,2.1-4.7c0.1-0.3,0.4-0.6,0.2-1c0-0.2,0.2-0.4,0.2-0.6
				c0.3-0.3,0.5-0.6,0.7-0.9c0.4-0.9,0.8-1.8,1.1-2.7c0.1-0.2,0.2-0.5,0.5-0.6C128.5,24.3,128.7,24.7,128.7,25z"/>
			<path id="_Path_15" class="st0" d="M111.9,37.1c0.1,1.9,0.5,3.8,1.2,5.6c-1.9-2.3-2.7-5.1-3.5-8c0.1,0,0.3,0.1,0.3,0.2
				c0.4,0.5,0.8,1,1.1,1.5C111.2,36.7,111.4,37.1,111.9,37.1z"/>
			<path id="_Path_16" class="st0" d="M125.9,28.8c0.2,0.4-0.1,0.7-0.2,1c-0.7,1.6-1.4,3.1-2.1,4.7c-0.2,0.4-0.3,0.8-0.4,1.2h-1.3
				c0.1-0.7,0.4-1.4,0.7-2c0.3-0.4,0.4-0.8,0.4-1.2c0.8-0.9,1.6-1.8,2.3-2.8L125.9,28.8z"/>
			<path id="_Path_17" class="st0" d="M115.7,24.4c0.3,0.1,0.7,0.1,1,0.1c0.4,0,0.5,0.1,0.5,0.5c-0.1,1.2-0.3,2.3-0.7,3.4
				c-0.6-0.1-1.1-0.1-1.7-0.1L115.7,24.4z"/>
			<path id="_Compound_Path_2" class="st0" d="M112.9,47.9c-0.2,1.1-1,1.9-2.1,2.1c0,0-0.1-0.1-0.2,0c0,0,0,0,0,0h-0.3
				c-0.2-0.1-0.4-0.1-0.5,0c-1.1,0-2-0.6-2.5-1.6c-0.5-1-0.3-2.2,0.4-3c1-1.3,2.8-1.5,4.1-0.6c0.9,0.7,1.3,1.8,1.1,2.8
				C112.9,47.7,112.8,47.7,112.9,47.9C112.9,47.8,112.9,47.8,112.9,47.9z M107.4,47.1c0,1.5,1.2,2.6,2.6,2.6
				c1.4-0.1,2.5-1.3,2.5-2.8c-0.1-1.3-1.1-2.4-2.5-2.5C108.6,44.6,107.5,45.7,107.4,47.1z"/>
			<path id="_Path_18" class="st0" d="M126.2,35.6c0.1-0.8,0.4-1.6,0.8-2.3c0.6-1.5,1.2-3,2-4.5c0.2-0.3,0-0.7,0.2-1.1
				C129.5,30.7,128.4,33.6,126.2,35.6z"/>
			<path id="_Path_19" class="st0" d="M114.8,28.2c0.6,0,1.1,0,1.7,0.1c-0.3,1.1-0.6,2.2-1.1,3.2c-0.1-0.3-0.3-0.4-0.6-0.4h-1
				l0.9-2.6c0.1,0,0.1-0.1,0.1-0.2L114.8,28.2z"/>
			<path id="_Path_20" class="st0" d="M128.4,23.9c-0.3,0.1-0.4,0.4-0.5,0.6c-0.3,0.9-0.8,1.8-1.1,2.7c-0.2,0.3-0.4,0.7-0.7,0.9
				c-0.4,0.4-0.7,1-1.1,1.4c0.1-0.6,0.3-1.2,0.7-1.8c0.6-1.5,1.3-3,1.9-4.5c0.1-0.2,0.1-0.4,0.4-0.5
				C128.1,23.1,128.3,23.5,128.4,23.9z"/>
			<path id="_Path_21" class="st0" d="M112,34.3c-0.4-0.1-0.6-0.5-0.8-0.8c-0.6-0.8-1.3-1.6-1.8-2.4c-0.1-0.1-0.2-0.3-0.2-0.5h1.6
				c0,0.2,0.1,0.4,0.2,0.5c0.4,0.6,0.8,1.1,1.3,1.6L112,34.3z"/>
			<path id="_Path_22" class="st0" d="M95.8,47.2c0,0.2,0,0.5,0,0.7c0.1,1.1,1,1.9,2.1,1.8c1-0.1,1.7-0.8,1.8-1.8c0-1.1,0-2.1,0-3.2
				c0-0.1-0.1-0.4,0.1-0.4s0.2,0.2,0.2,0.4c0,1.1,0,2.1,0,3.2c0,1.2-1,2.2-2.2,2.2c-1.2,0-2.2-1-2.2-2.2c0,0,0,0,0,0
				c0-1.1,0-2.2,0-3.3c0-0.1,0-0.3,0.1-0.3c0.1,0,0.2,0,0.2,0.2c-0.1,0.1-0.2,0.2-0.2,0.3c0,0.7,0,1.3,0,2
				C95.6,47,95.6,47.2,95.8,47.2z"/>
			<path id="_Path_23" class="st0" d="M108.1,28.8c0-0.2-0.1-0.4-0.3-0.6c-0.5-0.6-1-1.3-1.5-2c-0.1-0.1-0.2-0.3-0.2-0.4
				c0.7,0.2,1.4,0.5,2.1,0.9c0.2,0.5,0.5,0.9,0.9,1.3c0.2,0.3,0.5,0.5,0.5,0.9L108.1,28.8z"/>
			<path id="_Path_24" class="st0" d="M111.9,37.1c-0.5,0-0.7-0.4-0.8-0.7c-0.3-0.5-0.7-1-1.1-1.5c-0.1-0.1-0.2-0.2-0.3-0.2
				c-0.3-0.9-0.7-1.8-1-2.7c0.6,0.1,0.8,0.6,1,1c0.5,0.8,1.2,1.5,1.7,2.3c0.1,0.2,0.3,0.4,0.6,0.4L111.9,37.1z"/>
			<path id="_Path_25" class="st0" d="M113.9,36.3c-0.2,1.4-0.2,2.8,0,4.2c0.1,0.7,0.2,1.3,0.4,2c0.1,0.2,0.1,0.5,0,0.7
				c-0.6-1.4-1-2.8-1.2-4.3c0,0,0-0.1,0-0.2c0,0,0,0,0,0c-0.1-0.2-0.1-0.5-0.1-0.8c0.1-0.1,0.1-0.2,0-0.3c-0.1-0.4-0.1-0.9,0-1.3
				C113.3,36.3,113.6,36.3,113.9,36.3z"/>
			<path id="_Path_26" class="st0" d="M113.9,31.2h1c0.3,0,0.5,0.1,0.6,0.4c-0.3,0.7-0.6,1.5-0.9,2.2c-0.4-0.3-0.9-0.1-1.3-0.2
				C113.4,32.8,113.6,32,113.9,31.2z"/>
			<path id="_Path_27" class="st0" d="M119.3,52.4c-0.3,0.5-0.5,1.1-0.8,1.6c0,0.1-0.1,0.3-0.2,0.2c-0.2,0-0.2-0.2-0.2-0.3
				c-0.3-0.5-0.5-1-0.8-1.5c-0.1,0.4-0.1,0.8-0.1,1.2c0,0.2,0.1,0.6-0.1,0.6c-0.2,0-0.1-0.4-0.1-0.6c0-0.6,0-1.2,0-1.8
				c0-0.1,0-0.3,0.1-0.3s0.2,0.1,0.3,0.2l0.8,1.5c0.1,0.1,0.1,0.3,0.2,0.3c0.2,0,0.2-0.2,0.3-0.4c0.2-0.5,0.5-1,0.7-1.4
				c0.1-0.1,0.1-0.3,0.3-0.3s0.1,0.2,0.1,0.3v2c0,0.1,0,0.3-0.1,0.3c-0.1,0-0.1-0.2-0.1-0.4c0-0.5,0-1,0-1.5L119.3,52.4z"/>
			<path id="_Path_28" class="st0" d="M122,38.5l-1.5,0.9c0-0.2,0-0.5,0.1-0.7c0.3-0.7,0.6-1.5,0.9-2.2c0.1-0.2,0.2-0.4,0.2-0.7h1.1
				c-0.1,0.4-0.2,0.8-0.4,1.1C122.2,37.4,122,37.9,122,38.5z"/>
			<path id="_Path_29" class="st0" d="M123,32.5c0,0.4-0.1,0.9-0.4,1.2c-0.4,0.6-0.6,1.3-0.7,2h-2c0.1-0.3,0.3-0.6,0.6-0.8
				C121.3,34.1,122.2,33.3,123,32.5z"/>
			<path id="_Path_30" class="st0" d="M137.1,46.3c0.5-1.6,2.1-2.5,3.7-2.1c0.3,0.1,0.7,0.3,1,0.5c0.1,0.1,0.3,0.2,0.1,0.4
				c-0.1,0.1-0.3,0.2-0.4,0.1c0,0,0,0,0,0c-1.1-0.8-2.6-0.6-3.5,0.5c0,0,0,0.1-0.1,0.1c-0.1,0.2-0.2,0.4-0.3,0.7L137.1,46.3z"/>
			<path id="_Path_31" class="st0" d="M109.3,35.8c-0.5-0.2-0.8-0.6-1-1.1c-0.2-0.4-0.7-0.9-1-1.4c-0.1-0.2-0.3-0.2-0.5-0.3
				l-0.8-2.1c0.3-0.1,0.5,0.2,0.6,0.4c0.5,0.9,1.2,1.5,1.7,2.4c0.1,0.2,0.3,0.4,0.6,0.5C109.2,34.8,109.3,35.3,109.3,35.8z"/>
			<path id="_Path_32" class="st0" d="M118.4,21.1c-0.1,0.1-0.2,0.1-0.4,0.1c-0.7-0.2-1.4,0-2.1-0.2c-0.1-0.7,0-1.5-0.1-2.2
				C116.9,19.3,117.7,20.1,118.4,21.1z"/>
			<path id="_Path_33" class="st0" d="M113.3,33.6c0.4,0,0.9-0.1,1.3,0.2c-0.3,0.8-0.4,1.7-0.7,2.5c-0.3,0-0.6,0-0.9,0.1
				C113,35.5,113.1,34.6,113.3,33.6z"/>
			<path id="_Path_34" class="st0" d="M121.8,35.8c0,0.2-0.1,0.5-0.2,0.7c-0.4,0.7-0.7,1.4-0.9,2.1c-0.1,0.2-0.1,0.4-0.1,0.7
				c-0.4,0.3-0.8,0.5-1.2,0.8c0.1-0.6,0.3-1.1,0.6-1.6c0.4-0.9,0.8-1.8,1.1-2.7L121.8,35.8z"/>
			<path id="_Path_35" class="st0" d="M87.7,45.9c0.2,0.6,0.8,0.9,1.4,1c0.6,0,1.1,0.2,1.6,0.6c0.2,0.2,0.5,0.4,0.4,0.8
				c0,0.1-0.1,0.1-0.2,0.2c-0.1-0.6-0.6-1-1.1-1.2c0,0-0.1-0.1-0.2,0c0,0,0,0,0,0c-0.2,0-0.4,0-0.6-0.1c-0.1-0.1-0.2-0.1-0.3,0
				c0,0,0,0,0,0c-0.8,0-1.4-0.7-1.4-1.5c0-0.3,0.1-0.6,0.3-0.8c0.4-0.6,1.2-0.9,2-0.8c0.7,0,1.3,0.5,1.5,1.1c0,0.1,0,0.1,0,0.2
				c0,0.1,0.1,0.3-0.1,0.3c-0.2,0-0.2-0.1-0.2-0.2c-0.2-0.6-0.7-1-1.3-1c-0.6-0.1-1.3,0.2-1.7,0.7c-0.1,0.2-0.2,0.4-0.2,0.7
				L87.7,45.9z"/>
			<path id="_Path_36" class="st0" d="M111.6,28.9c0.5,0.4,0.9,0.9,1.2,1.5h-1.9c-0.1-0.2-0.2-0.4-0.3-0.5c-0.3-0.3-0.5-0.6-0.7-1
				L111.6,28.9z"/>
			<path id="_Path_37" class="st0" d="M143.2,44.7c0,0.6,0,1.2,0,1.8c0,0.2,0.1,0.3,0.3,0.3c0.6,0,1.2,0,1.8,0c0.2,0,0.3,0,0.4,0.2
				c0,0.2-0.1,0.3-0.3,0.3h-1.8c-0.2,0-0.4,0.1-0.4,0.4s0,0.6,0,1h-0.5c0-0.7,0-1.4,0-2.1c0.3,0.1,0.4,0,0.4-0.3s0-0.3,0-0.5
				C143.1,45.4,142.9,45.1,143.2,44.7z"/>
			<path id="_Path_38" class="st0" d="M101,44.3c0.6,0,1.2,0,1.8,0c1.1,0.2,2,0.9,2.3,2c0.2,0.5,0.2,1.1,0.1,1.7h-0.3v-0.4
				c0.1-0.1,0.1-0.3,0-0.5c0,0,0,0,0,0c-0.1-0.9-0.6-1.8-1.4-2.3c-0.7-0.2-1.4-0.3-2.1-0.2c-0.2,0-0.2,0.3-0.2,0.4c0,1,0,2.1,0,3.1
				h-0.3v-2C101,45.6,101,44.9,101,44.3z"/>
			<path id="_Path_39" class="st0" d="M114.6,54c0.2-0.2,0-0.3,0-0.5s0.2-0.3,0.2-0.3c0.4,0.2,0.6-0.5,0.9-0.2
				c0.1,0.1,0.1,0.3,0.1,0.4c-0.2,0.4-0.6,0.7-1,0.8c-0.3,0-0.6-0.1-0.7-0.4c-0.2-0.2-0.2-0.6,0-0.8c0.2-0.2,0.2-0.5,0.1-0.7
				c-0.1-0.3,0-0.5,0.3-0.6c0,0,0,0,0,0c0.2-0.1,0.5-0.1,0.7,0.1c0.1,0.1,0.2,0.2,0.1,0.3c-0.1,0.1-0.2,0.1-0.3,0
				c-0.1-0.1-0.3-0.2-0.4,0s0,0.3,0.2,0.5c0.2,0.1,0.3,0,0.2,0.2c0,0.2-0.2,0.1-0.3,0.2c-0.2,0.1-0.4,0.2-0.4,0.5
				C114.3,53.7,114.4,53.9,114.6,54z"/>
			<path id="_Path_40" class="st0" d="M128.7,47.9c-0.1-0.6-0.1-1.3,0-1.9c0.2,0,0.4,0,0.5-0.2c0,0,0,0.1,0,0.1c0.1,1,0.1,1,1.1,1h1
				c0.2,0,0.4-0.1,0.4,0.2c0,0.3-0.1,0.3-0.3,0.3c-0.5,0-1.1,0-1.6,0s-0.6,0.1-0.6,0.5L128.7,47.9z"/>
			<path id="_Path_41" class="st0" d="M112.3,32.8c-0.5-0.5-0.9-1.1-1.3-1.6c-0.1-0.1-0.2-0.3-0.2-0.5h2c0.1,0.1,0.1,0.2,0.1,0.3
				C112.7,31.6,112.5,32.2,112.3,32.8z"/>
			<path id="_Path_42" class="st0" d="M129.1,48.2c0,0.3,0,0.6,0,0.9s0.1,0.4,0.4,0.4c0.6,0,1.2,0,1.7,0c0.2,0,0.3,0,0.3,0.2
				s-0.1,0.3-0.3,0.3c-0.8,0-1.6,0-2.4,0c-0.2,0-0.3-0.1-0.3-0.3c0-0.4,0-0.9,0-1.3c0.2,0.1,0,0.5,0.2,0.5s0.1-0.4,0.2-0.5
				L129.1,48.2z"/>
			<path id="_Path_43" class="st0" d="M109.6,28.8c0-0.4-0.3-0.6-0.5-0.9c-0.3-0.4-0.6-0.8-0.9-1.2c1.1,0.5,2.2,1.2,3.1,2
				C110.7,28.8,110.2,28.9,109.6,28.8z"/>
			<path id="_Compound_Path_3" class="st0" d="M112.9,54.2c-0.2,0.1-0.3,0-0.5-0.1s-0.3-0.3-0.5-0.5c-0.2-0.1-0.2-0.2-0.3-0.1
				s-0.1,0.2-0.1,0.3s0,0.2,0,0.3s0,0.2-0.1,0.1s-0.1-0.1-0.1-0.2v-2.3c0-0.1,0-0.2,0.1-0.2c0.5-0.1,1,0,1.5,0.3
				c0.3,0.4,0.3,0.9-0.1,1.2c-0.1,0.1-0.2,0.2-0.4,0.2c-0.3,0.1-0.3,0.2-0.1,0.3C112.6,53.8,112.8,54,112.9,54.2z M111.6,52.5
				c0,0.3-0.1,0.7,0.5,0.6s0.8-0.2,0.8-0.6s-0.3-0.6-0.8-0.6C111.5,51.8,111.6,52.1,111.6,52.5z"/>
			<path id="_Path_44" class="st0" d="M117.1,46.2c0-0.6,0-1.1,0-1.7c0-0.2,0.1-0.3,0.3-0.3c0.8,0,1.6,0,2.3,0c0.2,0,0.4,0,0.4,0.3
				c0,0.3-0.2,0.3-0.3,0.3c-0.6,0-1.1,0-1.7,0c-0.4,0-0.5,0.1-0.5,0.5c0,0.3,0,0.7,0,1L117.1,46.2z"/>
			<path id="_Path_45" class="st0" d="M105.7,52.9v-1.1c0-0.1,0-0.2,0.1-0.2c0.1,0,0.1,0.1,0.1,0.2c0,0.1,0,0.2,0,0.3
				c0,0.2-0.1,0.6,0.1,0.7c0.3,0.1,0.6,0.1,0.9,0c0.2,0,0.2-0.2,0.2-0.3c0-0.1,0-0.5,0-0.7c0-0.1,0-0.2,0.1-0.2s0.1,0.1,0.1,0.2
				c0,0.8,0,1.6,0,2.3c0,0.1,0,0.2-0.1,0.2c-0.1,0-0.2-0.1-0.2-0.2s0-0.4,0-0.6s-0.1-0.4-0.4-0.4h-0.2c-0.7,0-0.7,0-0.7,0.7
				c0,0.2,0.1,0.5-0.1,0.5s-0.1-0.3-0.2-0.5S105.7,53.2,105.7,52.9L105.7,52.9z"/>
			<path id="_Path_46" class="st0" d="M117.1,46.2h0.5c0.1,0.6,0.1,0.6,0.8,0.6c0.5,0,1,0,1.4,0c0.2,0,0.3,0,0.3,0.2
				s-0.2,0.3-0.4,0.3c-0.5,0-1,0-1.6,0s-0.7,0.1-0.6,0.6c0,0.1,0,0.1,0,0.2h-0.5C117.1,47.5,117.1,46.9,117.1,46.2z"/>
			<path id="_Path_47" class="st0" d="M132.9,45.6v1.1h-0.5v-2.1c0-0.1,0-0.3,0.2-0.4c0.2,0,0.4,0,0.5,0.2c0.4,0.8,0.9,1.5,1.3,2.3
				h-0.6l-0.7-1.2c0-0.1,0-0.2-0.1-0.1C132.9,45.4,132.9,45.5,132.9,45.6z"/>
			<path id="_Path_48" class="st0" d="M122,38.5c0.1-0.5,0.3-1.1,0.5-1.5c0.2-0.3,0.3-0.7,0.4-1.1h1c-0.1,0.3-0.2,0.7-0.4,1
				c-0.1,0.2-0.2,0.5-0.2,0.8C122.9,37.9,122.4,38.2,122,38.5z"/>
			<path id="_Path_49" class="st0" d="M129.1,45.8c-0.1,0.1-0.3,0.2-0.5,0.2c0-0.5,0-0.9,0-1.4c0-0.2,0.1-0.3,0.3-0.3h2.4
				c0.2,0,0.3,0,0.3,0.2c0,0.2-0.1,0.3-0.3,0.3c-0.6,0-1.2,0-1.7,0c-0.3,0-0.5,0.1-0.5,0.4C129.2,45.4,129.2,45.6,129.1,45.8z"/>
			<path id="_Path_50" class="st0" d="M127.9,49.2c-0.3,0.7-1,1-1.7,0.9c-0.7-0.1-1.3-0.5-1.5-1.2c-0.1-0.2-0.1-0.4,0.2-0.5
				c0.3-0.1,0.3,0.1,0.3,0.3c0.2,0.7,0.9,1,1.6,0.8c0.3-0.1,0.5-0.3,0.7-0.5C127.6,49.1,127.8,49.2,127.9,49.2z"/>
			<path id="_Compound_Path_4" class="st0" d="M122.5,54.1c0,0.1,0,0.1-0.1,0.2c0,0-0.1,0-0.2,0c0,0,0,0,0,0
				c-0.2-0.4-0.5-0.3-0.8-0.3s-0.5,0-0.8,0c-0.1,0-0.2,0-0.3,0.1s-0.1,0.4-0.3,0.2s0-0.3,0.1-0.4c0.3-0.7,0.6-1.3,0.8-2
				c0.1-0.1,0.1-0.2,0.2-0.3s0.2,0.2,0.3,0.3c0.3,0.7,0.6,1.4,0.9,2.1C122.5,54,122.5,54.1,122.5,54.1z M121.3,52.2h-0.1
				c-0.1,0.2-0.2,0.3-0.2,0.5c-0.5,1.1-0.5,1.1,0.7,1c0.2,0,0.3,0,0.2-0.2C121.8,53,121.6,52.6,121.3,52.2z"/>
			<path id="_Compound_Path_5" class="st0" d="M109.1,51.6c0.1,0,0.2,0.1,0.2,0.2c0.3,0.7,0.6,1.5,1,2.2c0,0.1,0.1,0.2,0,0.2
				c-0.1,0.1-0.2,0-0.2-0.1c0-0.1-0.2-0.2-0.4-0.2s-0.6,0-0.9,0s-0.5-0.1-0.6,0.3c0,0.1-0.1,0.1-0.2,0.1c0,0,0,0,0,0
				c-0.1,0-0.1-0.1,0-0.2l1-2.4C109,51.7,109,51.6,109.1,51.6z M109.1,52l-0.3,0.7c-0.4,1-0.4,1.1,0.7,1c0.2,0,0.2-0.1,0.2-0.3
				L109.1,52z"/>
			<path id="_Path_51" class="st0" d="M121.4,46.3c-0.4-0.3-0.5-0.9-0.3-1.3c0.1-0.5,0.6-0.8,1.1-0.8c0.5-0.1,1,0.2,1.2,0.6
				c0.1,0.1,0.2,0.3,0,0.4c-0.1,0.1-0.3,0.1-0.4,0c0,0,0,0,0-0.1c-0.3-0.4-0.8-0.5-1.1-0.2c-0.3,0.3-0.4,0.8-0.1,1.1c0,0,0,0,0,0
				C121.7,46.2,121.6,46.2,121.4,46.3z"/>
			<path id="_Path_52" class="st0" d="M123.8,49.3c-0.3,0.6-1.1,1-1.8,0.8c-0.7-0.1-1.2-0.6-1.4-1.3c-0.1-0.1,0-0.3,0.1-0.3
				c0,0,0,0,0,0c0.2-0.1,0.3,0,0.3,0.2c0.5,1.1,1.4,1.3,2.3,0.4C123.5,49.2,123.6,49.3,123.8,49.3z"/>
			<path id="_Path_53" class="st0" d="M125.3,46.1c-0.4-0.6-0.3-1.4,0.3-1.8c0,0,0.1,0,0.1-0.1c0.6-0.4,1.4-0.2,1.8,0.4
				c0.1,0.1,0.2,0.3,0,0.4c-0.2,0.1-0.3,0.1-0.4,0c-0.4-0.4-0.7-0.5-1.1-0.3c-0.3,0.2-0.4,0.6-0.2,1.1
				C125.7,46.1,125.5,46.1,125.3,46.1z"/>
			<path id="_Path_54" class="st0" d="M123.1,52.6c0.5-0.3,0.7-0.9,1.3-1c-0.2,0.4-0.5,0.7-0.8,1c-0.3,0.3-0.3,0.5,0,0.8
				c0.2,0.2,0.4,0.4,0.6,0.7c0,0.1,0.2,0.2,0.1,0.3s-0.2,0-0.3-0.1l-0.6-0.7l-0.2-0.2c-0.2,0.3-0.1,0.5-0.1,0.8s0,0.2-0.1,0.2
				c-0.1,0-0.2-0.1-0.2-0.2v-2.3c0-0.1,0-0.2,0.2-0.2s0.1,0.1,0.1,0.2V52.6z"/>
			<path id="_Path_55" class="st0" d="M138.7,49.3c0.9,0.5,1.9,0.4,2.7-0.2c0.2-0.2,0.3-0.1,0.4,0.1c0.1,0.1,0,0.3-0.1,0.4
				c-1,0.8-2.5,0.8-3.6,0.1C138.4,49.5,138.6,49.4,138.7,49.3z"/>
			<path id="_Compound_Path_6" class="st0" d="M129.6,52.9c0-0.3,0-0.6,0-1s0.1-0.4,0.4-0.4c0.3,0,0.4,0,0.5,0
				c0.4,0,0.8,0.3,0.8,0.7c0,0,0,0,0,0.1c0,0.5-0.2,0.9-0.7,0.9c-0.5,0-0.7,0.2-0.7,0.7c0,0.1,0,0.2-0.1,0.3s-0.2-0.2-0.2-0.3
				L129.6,52.9z M129.9,52.3c0,0.8,0,0.8,0.4,0.8c0.4,0,0.7-0.2,0.7-0.6c0-0.4-0.2-0.6-0.7-0.6S129.9,52.1,129.9,52.3z"/>
			<path id="_Path_56" class="st0" d="M143.2,44.7c-0.2,0.3-0.1,0.7-0.1,1h-0.4c0-0.4,0-0.8,0-1.2s0.1-0.3,0.4-0.3
				c0.8,0,1.6,0,2.3,0c0.2,0,0.3,0,0.3,0.2c0,0.2-0.1,0.3-0.3,0.3L143.2,44.7z"/>
			<path id="_Path_57" class="st0" d="M136.2,47.6c0,0.7,0,1.3,0,2c0,0.1,0,0.3-0.2,0.4c-0.2,0.1-0.3,0-0.4-0.2
				c-0.3-0.4-0.5-0.9-0.7-1.3l0.5-0.1c0.1,0.1,0.3,0.4,0.3,0s0-0.6,0-1c0.1,0.1,0.1,0.2,0.1,0.4c0,0.1,0,0.3,0.1,0.3
				c0.2,0,0.1-0.2,0.2-0.2C136.1,47.8,136.1,47.7,136.2,47.6z"/>
			<path id="_Path_58" class="st0" d="M93.1,48.8c0-1.3,0-2.5,0-3.8c0-0.4-0.1-0.5-0.5-0.5c-0.3,0-0.5,0-0.8,0c-0.1,0-0.2,0-0.2-0.1
				c0-0.2,0.1-0.2,0.2-0.2h2.9c0.1,0,0.2,0,0.2,0.2c0,0.2-0.1,0.1-0.2,0.1c-0.3,0-0.7,0-1,0c-0.4,0-0.3,0-0.4,0.3
				c-0.1,0.5-0.1,1.1,0,1.6v2.4H93.1z"/>
			<path id="_Path_59" class="st0" d="M117.6,49.4c0.7,0.1,1.4,0.1,2.1,0.1c0.2,0,0.5-0.1,0.5,0.3s-0.3,0.2-0.5,0.2
				c-0.7,0-1.3,0-2,0c-0.7,0-0.6,0-0.5-0.6L117.6,49.4z"/>
			<path id="_Path_60" class="st0" d="M127.5,52.7c0-0.3,0-0.6,0-0.9c0-0.1,0-0.2,0.2-0.2s0.1,0.1,0.1,0.2v1.5
				c0,0.5,0.2,0.8,0.6,0.8s0.6-0.3,0.6-0.8v-1.5c0-0.1,0-0.3,0.1-0.3c0.2,0,0.1,0.1,0.1,0.2c0,0.6,0,1.1,0,1.7
				c-0.1,0.5-0.5,0.8-1,0.7c-0.4-0.1-0.7-0.4-0.7-0.8C127.5,53.2,127.5,53,127.5,52.7z"/>
			<path id="_Path_61" class="st0" d="M124.7,53v-1.1c0-0.2,0.1-0.3,0.3-0.3h1c0.1,0,0.2,0,0.2,0.1c0,0.1-0.2,0.1-0.2,0.1
				c-0.2,0-0.3,0-0.5,0c-0.4,0-0.6,0.1-0.5,0.5s0,0.5,0.4,0.5c0.1,0,0.2,0,0.2,0.1s-0.2,0.1-0.2,0.1c-0.6,0-0.3,0.4-0.4,0.7
				s0.2,0.3,0.5,0.3h0.7c0.1,0,0.2,0,0.2,0.1s-0.1,0.1-0.2,0.1h-1.1c-0.2,0-0.2-0.2-0.2-0.3V53z"/>
			<path id="_Path_62" class="st0" d="M121.4,46.3c0.2-0.1,0.3-0.2,0.3-0.3c0.3,0.2,0.7,0.4,1,0.5c0.7,0.2,1.1,0.8,1.3,1.5h-0.5
				c-0.2-0.5-0.7-0.9-1.2-1.1C122,46.8,121.7,46.6,121.4,46.3z"/>
			<path id="_Path_63" class="st0" d="M90.8,48.4c0.1,0,0.1-0.1,0.2-0.2c0.2,0.4,0.1,0.8-0.2,1.1c-0.8,0.9-2.1,0.9-2.9,0.2
				c-0.1-0.1-0.2-0.2-0.3-0.3c-0.1-0.1-0.1-0.2-0.1-0.3c0-0.2-0.2-0.4,0-0.5s0.2,0.2,0.3,0.3c0.3,0.6,1,1,1.7,0.9
				C90.1,49.7,90.7,49.2,90.8,48.4z"/>
			<path id="_Path_64" class="st0" d="M125.3,46.1c0.2,0,0.3-0.1,0.4-0.2c0.3,0.2,0.6,0.4,1,0.6c0.5,0.2,1,0.6,1.2,1.2
				c-0.1,0.1-0.3,0.2-0.5,0.2c-0.3-0.5-0.7-0.8-1.3-1C125.9,46.7,125.6,46.5,125.3,46.1z"/>
			<path id="_Path_65" class="st0" d="M142.6,48.7h0.5c0.1,0.8,0.1,0.8,0.9,0.8h1.3c0.3,0,0.4,0.1,0.3,0.4h-3
				C142.6,49.5,142.6,49.1,142.6,48.7z"/>
			<path id="_Path_66" class="st0" d="M135.7,46.6v-2.2c0-0.2,0-0.3,0.2-0.3s0.3,0.1,0.3,0.3c0,0.7,0,1.5,0,2.2L135.7,46.6z"/>
			<path id="_Path_67" class="st0" d="M132.9,48.1v1.6c0,0.2-0.1,0.3-0.3,0.3c-0.2,0-0.3-0.1-0.3-0.3c0-0.5,0-1.1,0-1.6H132.9z"/>
			<path id="_Path_68" class="st0" d="M135.4,48.4l-0.5,0.1c-0.4-0.6-0.7-1.2-1-1.8l0.5,0L135.4,48.4z"/>
			<path id="_Path_69" class="st0" d="M137.1,46.3l0.5,0.1c-0.2,0.6-0.2,1.2,0.1,1.7c-0.1,0.1-0.3,0.2-0.5,0.2
				C136.9,47.6,136.9,46.9,137.1,46.3z"/>
			<path id="_Path_70" class="st0" d="M104.9,48h0.3c-0.1,0.8-0.5,1.6-1.2,2c-0.2,0.1-0.4,0.2-0.7,0.2c-0.1,0-0.1-0.1-0.2-0.1
				c0-0.1,0-0.1,0.1-0.1c1-0.1,1.4-0.8,1.6-1.7C104.8,48.1,104.8,48,104.9,48z"/>
			<path id="_Path_71" class="st0" d="M110.9,52.9c0,0.4,0,0.7,0,1.1c0,0.1,0,0.2-0.1,0.2c-0.1,0-0.1-0.1-0.1-0.2c0-0.7,0-1.5,0-2.2
				c0-0.1,0-0.2,0.1-0.2s0.2,0.2,0.2,0.3C110.9,52.2,110.9,52.6,110.9,52.9z"/>
			<path id="_Path_72" class="st0" d="M106,48v-3.4c0-0.1,0-0.3,0.2-0.3c0.1,0,0.1,0.2,0.1,0.3V48H106z"/>
			<path id="_Path_73" class="st0" d="M137.2,48.2c0.2,0,0.4,0,0.5-0.2c0.3,0.5,0.6,0.9,1.1,1.2c-0.1,0.2-0.3,0.3-0.5,0.3
				C137.7,49.2,137.4,48.8,137.2,48.2z"/>
			<path id="_Path_74" class="st0" d="M112.8,30.6h-3.6c-0.4,0-0.7,0-1.1-0.1c0.4-0.1,0.9-0.1,1.3-0.1h1.3h1.9L112.8,30.6z"/>
			<path id="_Path_75" class="st0" d="M123.6,48h0.5c0.2,0.5-0.1,0.9-0.2,1.3c-0.2,0-0.3-0.1-0.4-0.3
				C123.6,48.7,123.6,48.3,123.6,48z"/>
			<path id="_Path_76" class="st0" d="M127.5,47.8c0.2,0,0.3-0.1,0.5-0.2c0.1,0.1,0.1,0.2,0.1,0.3c-0.1,0.1-0.1,0.2,0,0.3v0.2
				c0,0-0.1,0.1,0,0.2c0,0,0,0,0,0c0,0.2-0.1,0.4-0.2,0.6c-0.2,0-0.3-0.1-0.4-0.2C127.6,48.6,127.6,48.2,127.5,47.8z"/>
			<path id="_Path_77" class="st0" d="M117.6,49.4h-0.5c0-0.4,0-0.9,0-1.3h0.5C117.6,48.6,117.6,49,117.6,49.4z"/>
			<path id="_Path_78" class="st0" d="M132.9,48.1h-0.5c0-0.5,0-1,0-1.5h0.5V48.1z"/>
			<path id="_Path_79" class="st0" d="M135.7,46.6h0.5c0,0.3,0,0.7,0,1c0,0-0.1,0.1-0.1,0.1c0,0.1,0,0.2-0.2,0.2s-0.1-0.2-0.2-0.3
				c0-0.1,0-0.3-0.1-0.4C135.6,47.1,135.6,46.9,135.7,46.6z"/>
			<path id="_Path_80" class="st0" d="M100.9,48.1h0.3c0,0.5,0,1.1,0,1.6c0,0.1,0,0.2-0.2,0.2c-0.1,0-0.1-0.1-0.1-0.2
				C100.8,49.2,100.8,48.7,100.9,48.1z"/>
			<path id="_Path_81" class="st0" d="M106,48h0.2v1.8c0,0.1,0,0.2-0.1,0.2c-0.2,0-0.2-0.1-0.2-0.2L106,48z"/>
			<path id="_Path_82" class="st0" d="M142.7,49.9h3c0,0.1-0.1,0.1-0.2,0.1h-2.6C142.8,50,142.7,50,142.7,49.9z"/>
			<path id="_Path_83" class="st0" d="M95.8,47.2c-0.2-0.1-0.2-0.2-0.2-0.3c0-0.7,0-1.3,0-2c0-0.1,0.1-0.3,0.2-0.3L95.8,47.2z"/>
			<path id="_Path_84" class="st0" d="M129.1,48.2l-0.1,0.1c-0.1,0.2,0.1,0.5-0.2,0.5c-0.3,0-0.1-0.3-0.2-0.5c0-0.2,0-0.4,0-0.6h0.5
				L129.1,48.2z"/>
			<path id="_Path_85" class="st0" d="M109.6,28.8c0.6,0.1,1.1,0,1.7-0.1c0.1,0.1,0.2,0.2,0.3,0.3h-3.1c-0.2,0-0.3,0-0.4-0.1
				L109.6,28.8z"/>
			<path id="_Path_86" class="st0" d="M142.6,45.8h0.4c0,0.2,0,0.3,0,0.5c0,0.2-0.1,0.4-0.4,0.3C142.6,46.3,142.6,46,142.6,45.8z"/>
			<path id="_Path_87" class="st0" d="M93.1,48.8h0.2v1c0,0.1,0,0.2-0.2,0.2c-0.1,0-0.1-0.1-0.1-0.2C93.1,49.5,93.1,49.1,93.1,48.8z
				"/>
			<path id="_Path_88" class="st0" d="M101,44.3c0,0.6,0,1.3-0.1,1.9c0-0.6,0-1.2,0-1.8C100.9,44.4,100.9,44.3,101,44.3z"/>
			<path id="_Path_89" class="st0" d="M93.4,46.4c-0.1-0.5-0.1-1.1,0-1.6C93.5,45.4,93.5,45.9,93.4,46.4z"/>
			<path id="_Path_90" class="st0" d="M107,29.3c0.4,0.1,0.5,0.5,0.7,0.9h-0.2C107.3,29.9,107.1,29.6,107,29.3z"/>
			<path id="_Path_91" class="st0" d="M115.3,44.4l0.2-0.2c0.1,0.2,0.1,0.5,0.1,0.7C115.3,44.8,115.3,44.6,115.3,44.4z"/>
			<path id="_Path_92" class="st0" d="M121,28.7c-0.1-0.2-0.1-0.5,0-0.7C121.1,28.2,121.1,28.5,121,28.7z"/>
			<path id="_Path_93" class="st0" d="M109.8,50.1c0.2-0.1,0.4-0.1,0.5,0C110.2,50.1,110,50.1,109.8,50.1z"/>
			<path id="_Path_94" class="st0" d="M116,21.7c0.1,0.2,0.1,0.4,0,0.5C115.9,22.1,115.9,21.9,116,21.7z"/>
			<path id="_Path_95" class="st0" d="M104.9,47.1c0.1,0.1,0.1,0.3,0,0.5c0,0,0,0,0,0V47.1z"/>
			<path id="_Path_96" class="st0" d="M88.7,47.1c0.1-0.1,0.2-0.1,0.3,0c0,0,0,0,0,0C88.9,47.2,88.8,47.2,88.7,47.1z"/>
			<path id="_Path_97" class="st0" d="M128.1,48.2c-0.1-0.1-0.1-0.2,0-0.3C128.2,48.1,128.2,48.2,128.1,48.2z"/>
			<path id="_Path_98" class="st0" d="M113,37.6c0.1,0.1,0.1,0.2,0,0.3C113,37.8,113,37.7,113,37.6z"/>
			<path id="_Path_99" class="st0" d="M132.9,45.6c0-0.1,0-0.2,0-0.2c0.1,0,0.1,0.1,0.1,0.1C133.1,45.6,133,45.5,132.9,45.6z"/>
			<path id="_Path_100" class="st0" d="M110.6,50c0,0,0.1-0.1,0.2,0c0,0,0,0,0,0H110.6z"/>
			<path id="_Path_101" class="st0" d="M115.5,42.2c0-0.1,0-0.1,0-0.2V42.2z"/>
			<path id="_Path_102" class="st0" d="M115.8,41c0-0.1,0-0.2,0.1-0.2C115.8,40.9,115.8,40.9,115.8,41z"/>
			<path id="_Path_103" class="st0" d="M87.7,45.9l-0.1-0.2C87.6,45.8,87.7,45.8,87.7,45.9z"/>
			<path id="_Path_104" class="st0" d="M115.9,22.9c0.1,0,0.1,0.1,0,0.2c0,0,0,0,0,0V22.9z"/>
			<path id="_Path_105" class="st0" d="M112.9,47.9c0,0-0.1-0.1,0-0.2c0,0,0,0,0,0V47.9z"/>
			<path id="_Path_106" class="st0" d="M89.5,47.2c0,0,0.1-0.1,0.2,0c0,0,0,0,0,0H89.5z"/>
			<path id="_Path_107" class="st0" d="M128.1,48.6c0,0-0.1-0.1,0-0.2c0,0,0,0,0,0C128.1,48.5,128.1,48.6,128.1,48.6z"/>
			<path id="_Path_108" class="st0" d="M114.8,28.4c0,0.1,0,0.1-0.1,0.2L114.8,28.4z"/>
			<path id="_Path_109" class="st0" d="M113.1,38.6c0,0,0,0.1,0,0.2c0,0,0,0,0,0C113.1,38.8,113.1,38.7,113.1,38.6
				C113.1,38.6,113.1,38.6,113.1,38.6z"/>
			<path id="_Path_110" class="st0" d="M117.3,25.6c0.1,0.1,0,0.1-0.1,0.2C117.2,25.8,117.2,25.6,117.3,25.6z"/>
			<path id="_Path_111" class="st0" d="M115.6,41.6c0,0-0.1-0.1,0-0.2c0,0,0,0,0,0V41.6z"/>
			<path id="_Path_112" class="st0" d="M127.7,22.2h-0.1v-0.1C127.7,22.1,127.7,22.1,127.7,22.2z"/>
			<path id="_Path_113" class="st0" d="M108.5,28.9h1.3c0.2,0.4,0.4,0.7,0.7,1c0.1,0.2,0.3,0.3,0.3,0.6h-1.3c0-0.3-0.3-0.5-0.4-0.7
				C108.8,29.5,108.6,29.2,108.5,28.9z"/>
			<path id="_Path_114" class="st0" d="M123.9,35.8h-2.9c-0.3,0-0.6,0-0.8-0.1h3.9c0,0,0.1,0,0.1,0.1S124,35.8,123.9,35.8z"/>
			<path id="_Path_115" class="st1" d="M107.4,47.1c0.1-1.4,1.2-2.5,2.6-2.6c1.4,0.1,2.5,1.3,2.5,2.8c-0.1,1.3-1.1,2.4-2.5,2.5
				C108.6,49.7,107.4,48.6,107.4,47.1z"/>
			<path id="_Path_116" class="st1" d="M111.6,52.5c0-0.3-0.1-0.7,0.5-0.6c0.5,0,0.8,0.2,0.8,0.6s-0.3,0.6-0.8,0.6
				S111.6,52.8,111.6,52.5z"/>
			<path id="_Path_117" class="st1" d="M121.3,52.2c0.2,0.4,0.4,0.8,0.6,1.3c0.1,0.2,0,0.2-0.2,0.2c-1.2,0.1-1.2,0.1-0.7-1
				c0.1-0.2,0.2-0.4,0.2-0.5L121.3,52.2z"/>
			<path id="_Path_118" class="st1" d="M109.1,52l0.6,1.4c0.1,0.2,0,0.3-0.2,0.3c-1.1,0.1-1.2,0.1-0.7-1L109.1,52z"/>
			<path id="_Path_119" class="st1" d="M129.9,52.3c0-0.2-0.1-0.5,0.4-0.4c0.5,0,0.7,0.2,0.7,0.6s-0.2,0.6-0.7,0.6
				C129.8,53.1,129.9,53.1,129.9,52.3z"/>
		</g>
	</g>
</g>
</svg>
