<?xml version="1.0" encoding="utf-8"?>
<!-- Generator: Adobe Illustrator 22.1.0, SVG Export Plug-In . SVG Version: 6.00 Build 0)  -->
<svg version="1.1" id="Layer_1" xmlns="http://www.w3.org/2000/svg" xmlns:xlink="http://www.w3.org/1999/xlink" x="0px" y="0px"
	 viewBox="0 0 233 73" style="enable-background:new 0 0 233 73;" xml:space="preserve">
<style type="text/css">
	.st0{fill:#3D3D3D;}
	.st1{fill:#747474;}
	.st2{fill:#FFFFFF;}
	.st3{fill:#E5E5E5;}
</style>
<title>Asset 26</title>
<g id="Layer_2_1_">
	<g id="Layer_1-2">
		<g id="_Group_">
			<path id="_Compound_Path_" class="st0" d="M109.6,40.9c-0.3-1.3-0.8-2.5-1.1-3.8c-0.1-0.3-0.2-0.2-0.4-0.1
				c-1,0.3-2.1,0.5-3.2,0.4c-2.1-0.1-4-1.4-4.8-3.3c-0.5-1-0.3-2.3,0.5-3.1l0.1-0.1c-1.5-0.9-2.3-2.5-2.3-4.2c0-1.6,0.7-3.1,2-4
				c1.7-1.3,3.9-1.9,6-1.7c0.2,0,0.4,0,0.4-0.2c1.7-3.2,4.8-5.4,8.4-6c2.5-0.5,5.2-0.1,7.5,1.1c0.3,0.1,0.5,0.2,0.8,0.1
				c2.4-0.7,4.9-1.3,7.3-2c1.4-0.5,3,0.2,3.5,1.6c0.1,0.2,0.1,0.3,0.1,0.5c0.3,1.3-0.5,2.6-1.7,3c-0.4,0.2-0.8,0.3-1.3,0.4
				c-0.3,0.1-0.3,0.2-0.3,0.4c0.6,2.2,1.2,4.4,1.8,6.7c0.2,0.6,0.3,1.3,0.2,2c-0.4,1.6-1.9,2.6-3.5,2.2c-0.3-0.1-0.5-0.2-0.8-0.3
				c-0.3-0.1-0.4-0.1-0.5,0.2c-0.6,1.5-1.6,2.9-2.8,4.1c-2.5,2.4-4.8,4.9-7.2,7.3l-0.4,0.4l-0.3,0.3l-5.6,5.8
				c-0.1,0.1-0.1,0.2-0.3,0.2c-0.2-0.7-0.4-1.4-0.6-2.1c-0.3-1.3-0.7-2.5-1.1-3.8c-0.1-0.6-0.3-1.2-0.6-1.7
				C109.6,41,109.6,41,109.6,40.9z M105.7,27.7h-1.4c-0.4,0-0.9-0.1-1.3-0.3c-0.5-0.3-0.8-0.9-0.5-1.4c0.7-1.1,1.9-1.6,3.2-1.3
				c0.6,0.3,1.1,0.7,1.6,1.2c0.3,0.4,0.9,0.5,1.3,0.2c0.5-0.3,0.7-0.8,0.5-1.3c-0.3-1-1.1-1.8-2.2-2c-2.1-0.5-4.4,0.1-5.9,1.7
				c-1.2,1.2-1.2,3.3,0,4.5c0.4,0.4,0.9,0.7,1.4,0.8c0.8,0.2,1.6,0.3,2.4,0.2c0.8,0,1.6,0,2.4,0c0.9,0,1.6,0.7,1.6,1.6
				c0,0.5-0.2,1-0.6,1.3c-0.5,0.5-1.2,0.8-1.9,0.8c-0.8,0.2-1.6-0.1-2.1-0.7c-0.2-0.3-0.4-0.5-0.7-0.8c-0.4-0.5-1-0.6-1.5-0.3
				c-0.5,0.3-0.6,1-0.4,1.5c0.4,0.8,1,1.5,1.9,1.9c1.1,0.5,2.3,0.6,3.5,0.3c1.4-0.2,2.7-1,3.7-2.1c1.4-1.8,0.8-5.3-2.2-5.8
				C107.5,27.7,106.6,27.7,105.7,27.7z M131.7,15.5c-0.1,0-0.3,0.1-0.6,0.1l-5.9,1.6c-0.7,0.2-1.4,0.4-2.1,0.6
				c-0.5,0.1-0.9,0.7-0.7,1.2c0,0,0,0,0,0c0.1,0.5,0.6,0.9,1.2,0.8c0,0,0.1,0,0.1,0c0.9-0.2,1.7-0.4,2.6-0.7
				c0.3-0.1,0.4-0.1,0.5,0.3c0.6,2.3,1.2,4.7,1.9,7c0.1,0.7,0.3,1.3,0.6,1.9c0.3,0.6,1.1,0.9,1.7,0.6c0.4-0.2,0.7-0.6,0.7-1.1
				c0-0.2-0.1-0.5-0.1-0.7c-0.8-2.8-1.5-5.6-2.3-8.3c-0.1-0.3-0.1-0.4,0.2-0.4c0.4-0.1,0.8-0.2,1.2-0.3c0.6-0.1,1.1-0.3,1.7-0.5
				c0.4-0.2,0.7-0.7,0.6-1.1C132.8,15.9,132.3,15.5,131.7,15.5C131.7,15.5,131.7,15.5,131.7,15.5L131.7,15.5z M112.8,26.9
				c-0.1-0.2-0.1-0.3-0.1-0.4c-0.2-0.5-0.6-0.8-1.1-0.7c-0.5,0.1-0.8,0.6-0.7,1.1c0,0,0,0,0,0c0.1,0.5,0.2,1,0.4,1.5
				c0.4,1.6,0.9,3.3,1.3,5c0.3,0.9,0.5,1.9,0.8,2.8c0.1,0.4,0.5,0.7,1,0.6c0.1,0,0.2-0.1,0.3-0.1c0.4-0.2,0.6-0.7,0.5-1.1
				c-0.2-1.1-0.5-2.1-0.8-3.2c0.2-0.1,0.3,0,0.4,0.1c1.5,0.9,3.4,0.4,4.3-1.1c0.2-0.3,0.3-0.6,0.4-0.9c0.4-1.6,0-3.2-1-4.5
				c-0.8-1.1-2.1-1.6-3.4-1.2C114,25.1,113.2,25.9,112.8,26.9z M124,22.6c-2.2-0.1-4.1,1.5-4.3,3.7c0,0.1,0,0.1,0,0.2
				c0,2.4,1.5,4.5,3.9,4.5c2.2,0.1,4.1-1.5,4.3-3.7c0-0.1,0-0.1,0-0.2C127.9,24.7,126.6,22.6,124,22.6L124,22.6z M112.8,22.1
				c-0.1-0.4-0.2-0.7-0.3-1c-0.1-0.3-0.2-0.5-0.5-0.4c-0.3,0.1-0.3,0.3-0.2,0.6l0.9,3.1c0.1,0.3,0.2,0.5,0.5,0.4s0.3-0.4,0.2-0.6
				c-0.1-0.4-0.2-0.9-0.3-1.3c-0.1-0.3,0.1-0.7,0.4-0.8c0,0,0.1,0,0.1,0c0.4-0.1,0.5,0.3,0.6,0.6c0.1,0.3,0.2,0.9,0.4,1.4
				c0.1,0.2,0.2,0.4,0.5,0.3c0.3-0.1,0.3-0.3,0.3-0.5c-0.2-0.6-0.3-1.1-0.5-1.7c-0.1-0.5-0.7-0.9-1.2-0.7c-0.1,0-0.1,0-0.2,0.1
				C113.2,21.6,113,21.8,112.8,22.1z M117.1,23.7c0.4,0,0.8-0.2,1.2-0.4c0.2-0.1,0.3-0.3,0.3-0.6c0-0.2,0-0.3-0.1-0.4
				c-0.1-0.1-0.3,0-0.4,0.1c-0.1,0.2-0.2,0.3-0.3,0.5c-0.3,0.3-0.8,0.3-1.1,0c-0.1-0.1-0.1-0.1-0.1-0.2c-0.1-0.2-0.1-0.3,0.1-0.4
				s0.8-0.2,1.2-0.3c0.6-0.2,0.7-0.5,0.3-1c-0.1-0.2-0.3-0.3-0.5-0.4c-0.6-0.3-1.3-0.2-1.8,0.2c-0.5,0.5-0.6,1.2-0.3,1.8
				C115.9,23.3,116.5,23.7,117.1,23.7z M111.4,25.2c0.2,0,0.5-0.1,0.7-0.2c0.2-0.1,0.3-0.2,0.2-0.5c-0.1-0.2-0.3-0.2-0.5-0.1
				s-0.4,0-0.5-0.2s-0.2-0.7-0.3-1.1s-0.1-0.4,0.2-0.5c0.1,0,0.2-0.1,0.2-0.3c0,0,0,0,0,0c0-0.1-0.1-0.2-0.3-0.2c0,0,0,0-0.1,0
				c-0.4,0.2-0.4-0.1-0.4-0.3c0-0.1-0.1-0.2-0.1-0.4c-0.1-0.2-0.3-0.3-0.5-0.2c-0.2,0-0.3,0.2-0.2,0.4c0,0,0,0,0,0
				c0,0.2,0.1,0.4,0.1,0.5c0,0.1,0.1,0.3-0.1,0.3c-0.2,0.1-0.2,0.1-0.2,0.3s0.1,0.3,0.3,0.2c0.2,0,0.3,0.1,0.3,0.3
				c0.1,0.5,0.3,1,0.4,1.4C110.8,25.1,111.1,25.3,111.4,25.2z M117.4,38.9l-0.1,0.1h-0.2c-0.4,0.1-0.6,0.4-0.6,0.8
				c0.1,0.4,0.4,0.8,0.7,0.9c0.4,0.1,0.8,0,1-0.4c0.1-0.2,0.1-0.3,0.3-0.4s0.2-0.2,0.1-0.4l-1.4-1.4c-0.1-0.1-0.2-0.2-0.3,0
				c-0.1,0.2-0.2,0.2,0,0.3L117.4,38.9z M124.3,33.1l-0.8-0.9c-0.1-0.1-0.2-0.1-0.3,0c-0.1,0.1-0.1,0.2,0,0.3
				c0.5,0.5,0.9,0.9,1.4,1.4c0.1,0.1,0.2,0.2,0.3,0s0.1-0.2,0-0.3c-0.1-0.1-0.2-0.2-0.3-0.4c0.4-0.1,1,0.2,1.3-0.4H125
				c-0.2,0-0.3-0.1-0.3-0.3s0-0.5,0-0.9C124.4,31.9,124.4,31.9,124.3,33.1L124.3,33.1z M114.5,43.9c0.5,0,0.9-0.4,0.9-0.9
				c0,0,0,0,0-0.1c0-0.5-0.4-0.9-0.9-0.9c0,0-0.1,0-0.1,0c-0.5,0-0.9,0.4-0.9,0.9C113.6,43.4,114,43.9,114.5,43.9z M116.1,40.5
				c-0.5,0-0.9,0.3-0.9,0.8c0,0,0,0.1,0,0.1c0,0.5,0.4,1,0.9,1c0,0,0,0,0,0c0.6,0,1-0.4,1-1C117,40.9,116.7,40.5,116.1,40.5
				C116.1,40.4,116.1,40.4,116.1,40.5L116.1,40.5z M113.7,45c0-0.2-0.2-0.2-0.2-0.3c-0.1-0.1-0.3-0.3-0.4-0.4
				c-0.1-0.2,0.2-0.3,0.3-0.5c0.1-0.2,0.1-0.2,0-0.3c-0.1-0.1-0.2-0.1-0.3,0c0,0,0,0,0,0l-0.3,0.3c-0.1,0.1-0.2,0-0.3-0.1
				s-0.1-0.2,0-0.2c0.1-0.1,0.2-0.2,0.3-0.3c0.2-0.1,0.1-0.3,0-0.3c-0.4-0.1-0.5,0.3-0.7,0.5c-0.2,0.2-0.3,0.2-0.1,0.4l0,0l1.4,1.4
				c0.1,0,0.1,0.2,0.2,0.1C113.6,45.1,113.6,45,113.7,45L113.7,45z M121.8,36.8c0.3,0,0.6-0.2,0.7-0.5c0.1-0.2,0.1-0.6-0.1-0.8
				c-0.2-0.2-0.4-0.4-0.6-0.7s-0.2-0.1-0.3,0c-0.1,0.1-0.1,0.2,0,0.3c0.1,0.1,0.4,0.4,0.6,0.6c0.2,0.2,0.2,0.4,0,0.5
				c-0.1,0.1-0.3,0.1-0.5,0c0,0,0,0,0-0.1c-0.2-0.2-0.4-0.4-0.6-0.5s-0.2-0.1-0.3,0c-0.1,0.1-0.2,0.2,0,0.3c0.2,0.1,0.5,0.5,0.7,0.7
				C121.4,36.8,121.6,36.8,121.8,36.8L121.8,36.8z M122.3,34.5c0,0.2,0,0.4,0.2,0.6c0.2,0.3,0.6,0.4,0.9,0.3
				c0.4-0.1,0.7-0.4,0.8-0.8c0-0.1,0.1-0.2-0.1-0.3c-0.1,0-0.3,0-0.3,0.1c0,0.1-0.1,0.2-0.1,0.3c-0.1,0.2-0.4,0.3-0.6,0.3
				c-0.2,0-0.4-0.2-0.4-0.4c0-0.2,0.1-0.5,0.3-0.6c0.1,0,0.2,0,0.3-0.1c0.1-0.1,0.2-0.2,0.1-0.3c-0.1-0.2-0.2-0.1-0.3,0
				C122.6,33.5,122.3,34,122.3,34.5L122.3,34.5z M118.7,37.4c0.1,0,0.2,0.1,0.2,0.2c0.3,0.3,0.7,0.7,1,1c0.1,0.1,0.2,0.1,0.3,0
				c0.1-0.1,0.1-0.2,0-0.3l-1-1c-0.1-0.1-0.3-0.3,0-0.4c0.2-0.2,0-0.2-0.1-0.3c-0.1-0.1-0.2,0-0.3,0l-0.7,0.6
				c-0.1,0.1-0.1,0.2,0,0.3c0.1,0.1,0.2,0.2,0.3,0.1L118.7,37.4z M120.2,36c-0.2,0.2-0.4,0.4-0.6,0.6c0,0,0.1,0.1,0.1,0.2
				c0.3,0.3,0.6,0.6,0.9,1c0.3,0.4,0.3,0,0.4-0.1c0.1-0.1-0.1-0.2-0.1-0.3c-0.3-0.3-0.8-0.6-0.5-1.2C120.4,36.1,120.4,36,120.2,36
				L120.2,36z M105.2,31.8c0.3,0.5,0.9,0.6,1.4,0.3c0,0,0,0,0,0c0.1,0,0.2-0.1,0.2-0.2c0-0.1-0.1-0.1-0.2-0.1L105.2,31.8z"/>
			<path id="_Compound_Path_2" class="st0" d="M109.6,40.9c0,0.1,0,0.1,0,0.2c-0.3,0-0.5,0.1-0.8,0.1c-1.6,0.3-3.1,1-4.3,2.1
				c-1.6,1.3-1.8,3.6-0.5,5.2c0,0,0.1,0.1,0.1,0.1c0.6,0.7,1.2,1.2,2,1.6c3.3,1.8,7.3,2.1,10.8,0.8c1.3-0.4,2.5-1.2,3.4-2.3
				c0.9-1.2,1-2.8,0.2-4.1c-0.6-0.9-1.4-1.6-2.3-2.1l0.4-0.4c0.9,0.5,1.7,1.1,2.4,1.8c1.1,1.2,1.9,2.7,2.1,4.3c0,0.1,0,0.3-0.1,0.4
				c-0.1,0.2-0.1,0.4,0.1,0.5c0.1,0.1,0,0.3-0.1,0.4c-0.1,0.1-0.2-0.1-0.2-0.2c-0.1-0.1,0-0.2-0.2-0.2c-0.1,0.1-0.1,0.2-0.1,0.2
				c0,0.4,0,0.8,0.5,0.9c0.1,0,0.1,0.1,0.1,0.2c-0.1,0.4-0.1,0.8-0.2,1.2c0,0.2-0.1,0.3-0.3,0.2c-0.1,0,0-0.2,0-0.3
				c0.1-0.3,0.2-0.6,0.2-0.9c-0.2,0.1-0.1,0.3-0.3,0.4c0-0.1,0-0.1,0-0.2c0-0.1,0.1-0.3-0.1-0.3s-0.3-0.1-0.4,0.1
				c-0.2,0.2-0.2,0.4-0.1,0.6c0,0.1,0.2,0.1,0.3,0.1c0.1,0,0.2-0.3,0.3-0.3c0,0.4-0.2,0.8-0.3,1.1l0,0c0-0.1,0-0.2-0.1-0.2
				c-0.1,0-0.2,0.1-0.2,0.2c-0.1,0.3-0.3,0.7-0.5,1c0,0.1-0.1,0.2-0.2,0.3c0-0.1,0-0.2,0-0.2c0-0.1,0-0.1,0-0.2
				c-0.1-0.1-0.2-0.1-0.2,0c-0.5,0.4-0.8,1-1,1.6c0,0,0,0.1,0,0.1c0.1,0.1,0.2,0.1,0.3,0c0.1-0.1,0.2-0.3,0.3-0.4
				c0.1-0.2,0.2-0.6,0.6-0.4c0.1,0.1,0.2-0.1,0.3-0.2l0,0.1c0,0.2-0.1,0.3-0.2,0.5c-0.1,0.1-0.2,0.2-0.2,0.1
				c-0.4-0.3-0.5,0.1-0.6,0.3c-0.2,0.4-0.7,0.6-0.8,1c0,0.1-0.2,0.2,0,0.4s0.3-0.1,0.4-0.2c-0.1,0.4,0.2,0.3,0.4,0.3l0.1,0.1
				c-0.3,0.3-0.6,0.6-1,0.8c-0.1-0.2,0.1-0.5-0.2-0.6c-0.3,0-0.5,0.2-0.6,0.4c-0.1,0.2,0.3,0.2,0.3,0.4c-0.8,0.5-1.6,0.8-2.5,1
				c-0.2,0.1-0.2,0-0.2-0.2c0.1-0.3-0.2-0.4-0.4-0.4c-0.3-0.1-0.6,0-0.8,0.2c-0.1,0.1-0.1,0.2,0,0.3l0.5,0.4
				c-0.8,0.2-1.7,0.3-2.6,0.3c0.1-0.2,0-0.4-0.1-0.6c-0.1-0.3-0.4-0.4-0.7-0.3c-0.1,0-0.1,0.1-0.2,0.1c-0.1,0.1-0.1,0.2,0,0.2
				c0.1,0,0.1,0.1,0.2,0.1c0.1,0.1,0.3,0.2,0.2,0.4c-0.1,0.2-0.2,0.1-0.4,0c-0.6,0-1.3-0.1-1.9-0.2c-0.3,0-0.5-0.2-0.5-0.4
				c-0.2-0.6-0.9-1-1.5-0.8c0.3,0.3,0.7,0.5,0.9,1c-0.7-0.1-1.5-0.3-2.2-0.6c0,0-0.1,0-0.1-0.1c0-0.4-0.3-0.7-0.5-1.1l0.2-0.1
				c0.4,0.1,0.8,0,1-0.3c0.2-0.2,0.1-0.3,0-0.5s-0.3-0.1-0.4,0s-0.3,0.3-0.5,0.1c-0.1-0.1-0.1,0-0.2,0.1c-0.1,0.2-0.1,0.4,0.1,0.6
				l-0.1,0.1c-0.2-0.1-0.4-0.2-0.6,0c-0.2,0.2-0.1,0-0.2-0.1c0-0.1-0.3-0.3-0.4-0.4l0,0c0.2,0,0.4-0.1,0.7,0s0.3-0.2,0.5-0.4
				c0.1-0.2,0-0.2-0.1-0.3c-0.1-0.1-0.3-0.2-0.4-0.1c-0.1,0.1-0.3,0.1-0.4,0c0,0,0,0,0,0c-0.2-0.2-0.3-0.1-0.5,0.1
				c-0.1,0.1,0.1,0.3,0.1,0.4l-0.1,0.1l-0.5-0.3c0,0-0.1-0.1-0.2,0c-0.1,0.1,0,0.2,0,0.2c0.4,0.5,1,0.9,1.6,1.2
				c0.4,0.1,0.5,0.3,0.6,0.7c-0.9-0.3-1.6-0.8-2.3-1.4c-0.2-0.4-0.4-0.8-0.5-1.2v-0.1c0.2,0.1,0.4,0,0.5,0.1
				c0.2,0.1,0.4-0.2,0.5-0.3c0.1-0.1-0.4-0.5-0.6-0.5c-0.2,0-0.5-0.1-0.6-0.2c-0.2,0.2-0.3,0.4-0.1,0.6l-0.1,0.1
				c-0.1,0-0.1-0.1-0.3-0.1l0.2,0.6l-0.1,0.1c-0.3-0.3-0.5-0.7-0.6-1.2c0-0.1,0-0.2,0.1-0.2c0.3,0.2,0.5-0.2,0.5-0.3
				c0-0.3-0.2-0.5-0.4-0.5c0,0,0,0,0,0c-0.2,0-0.3,0-0.4-0.2c-0.2,0.1-0.1,0.3-0.2,0.5c-0.1-0.3-0.5-0.2-0.5-0.6
				c0.1-0.1,0.3,0.2,0.4-0.1c0.1-0.4-0.2-0.8-0.6-0.9c-0.1,0-0.1,0.1-0.2,0.2c-0.2-0.3,0.1-0.5,0.1-0.7c0,0.3,0.4,0.1,0.6,0.4
				c0.1-0.1,0.2-0.2,0.2-0.3c0-0.1-0.1-0.2-0.1-0.4c0-0.1,0.1,0.1,0.1,0.1s0.1,0.3,0.3,0.2c0.2-0.1,0.1-0.3,0-0.4
				c-0.2-0.3-0.2-0.7-0.2-1.1c0-0.2-0.1-0.4-0.3-0.5c0,0.6,0,1.1,0.1,1.7c-0.2,0-0.1-0.2-0.3-0.3c-0.3-0.1-0.4,0.1-0.5,0.3
				c-0.2-0.1-0.4-0.3-0.4-0.5c0.1-0.1,0.3,0.2,0.4-0.1c0.1-0.3,0.5-0.3,0.3-0.7c0-0.4-0.1-0.7-0.3-1v0.8c-0.2,0.2-0.3-0.4-0.5,0
				c0,0,0-0.1,0-0.1v-1.3c0.1,0.3,0,0.7,0.3,1c-0.1-0.7,0-1.4,0.2-2c0-0.2,0-0.3-0.2-0.2l-0.1-0.1c0.3-0.3,0.5-0.7,0.5-1.1
				c-0.2,0.1-0.2,0.3-0.4,0.3c0-0.2,0.1-0.4,0.1-0.5c0.1-0.3,0.5-0.5,0.2-0.9c0,0,0.1-0.2,0.1-0.3c0.5-0.8,1.1-1.4,1.9-1.9
				C105.3,41.7,107.4,41,109.6,40.9z M107.6,57.5c0.5-0.2,1-0.2,1.3-0.6c0.1-0.1,0.1-0.2,0-0.3s-0.3-0.3-0.6-0.1s-0.4,0.4-0.7,0.1
				c-0.1-0.1-0.1,0.1-0.2,0.1c-0.3,0.3,0,0.5,0,0.7c-0.2,0.1-0.2-0.2-0.4-0.2c-0.2,0-0.2-0.1-0.4,0c-0.1,0.1,0,0.2,0.1,0.3
				c0.3,0.4,0.7,0.6,1.2,0.7C108,58,107.7,57.9,107.6,57.5L107.6,57.5z M111.3,55.9c-0.1-0.2-0.3-0.3-0.4-0.4s-0.2,0-0.3,0.1
				c-0.1,0.1-0.2,0.1-0.3,0.1c-0.3,0-0.6,0.2-0.8,0.4c-0.1,0.1-0.3,0.2-0.2,0.3c0.1,0.2,0.3,0.4,0.6,0.3c0.2-0.1,0.3-0.2,0.5-0.3
				c0.1-0.1,0.2-0.2,0.3-0.1s0.3,0.3,0.4,0C111.2,56.1,111.2,56,111.3,55.9z M108.8,54.9c-0.1,0.2-0.3,0.3-0.5,0.3
				c-0.4,0-0.5,0.3-0.7,0.6c-0.2,0.3,0.1,0.3,0.2,0.4s0.2,0.1,0.2,0c0.3-0.2,0.5-0.5,0.9-0.2c0,0,0.1,0,0.1,0
				c0.1-0.2,0.4-0.3,0.3-0.5S109,55.2,108.8,54.9z M118,54.5c-0.2-0.1-0.3,0-0.3,0.1c0,0.1-0.1,0.2-0.2,0.3c-0.4,0.2-0.8,0.6-1,1.1
				c0,0.1-0.2,0.2-0.1,0.3c0.2,0.2,0.3,0,0.4-0.1c0.4-0.3,0.6-0.7,1.2-0.8c0.3,0,0.4-0.4,0.4-0.7S118.1,54.6,118,54.5L118,54.5z
				 M118.5,54.2c0.3,0,0.5-0.1,0.6-0.4c0.1-0.3-0.1-0.4-0.3-0.5c-0.1-0.1-0.2-0.2-0.3-0.3c-0.1-0.1-0.1-0.3-0.2-0.2
				c-0.2,0.1-0.5,0.2-0.6,0.4C117.6,53.7,118,54.1,118.5,54.2L118.5,54.2z M112.5,55.3c-0.1,0.2-0.2,0.4-0.4,0.4
				c-0.4,0.1-0.6,0.5-0.8,0.7c-0.1,0.1,0,0.1,0,0.2c0.1,0.2,0.4,0.3,0.6,0.1c0,0,0,0,0.1,0c0.2-0.1,0.3-0.4,0.6-0.4
				c0.3,0.1,0.2,0,0.3-0.1C113.1,55.8,113.1,55.8,112.5,55.3L112.5,55.3z M110.9,53.8c-0.2,0-0.3,0-0.3,0.2c0,0.7,0.5,1.2,1.1,1.3
				c0,0,0.1,0,0.1,0c0.1,0,0.3,0,0.3-0.1c0.1-0.2,0-0.2-0.1-0.3c-0.3-0.2-0.5-0.5-0.6-0.8C111.4,53.9,111.2,53.8,110.9,53.8
				L110.9,53.8z M104.4,51.7c0,0.3,0,0.5,0,0.8c0,0.5,0.3,1,0.7,1.3c0.1,0.1,0.2,0.2,0.4,0.1s0.1-0.3,0.1-0.4c0-0.1-0.1-0.2-0.1-0.3
				c-0.2-0.2-0.3-0.4-0.3-0.7C105.1,52,104.8,51.9,104.4,51.7z M109.4,57c-0.1,0.1-0.3,0.3-0.4,0.4c-0.1,0.2,0.1,0.2,0.2,0.3
				c0.5,0.2,1.1,0.1,1.5-0.2c0.1-0.1,0.4-0.2,0.2-0.5c-0.2-0.3-0.4-0.2-0.7-0.1C110,57,109.8,57.3,109.4,57z M113.3,57
				c0,0,0.1-0.1,0.1-0.1c0.2-0.2,0.3-0.4,0.5-0.4c0.3,0,0.4-0.2,0.5-0.4c0.1-0.2,0.2-0.3,0-0.5c-0.3-0.2-0.4-0.2-0.4,0.1
				c0,0-0.1,0.1-0.1,0.1c-0.6,0-0.6,0.5-0.9,0.9C112.9,56.7,113.1,57,113.3,57L113.3,57z M116.6,55.3c-0.3-0.1-0.5-0.3-0.7-0.1
				c-0.2,0.2-0.4,0.3-0.6,0.4c-0.3,0.2-0.4,0.4-0.5,0.7c-0.1,0.1,0,0.3,0.1,0.4c0.1,0.1,0.2,0,0.3-0.1c0.2-0.2,0.4-0.5,0.7-0.5
				C116.2,56.1,116.3,55.6,116.6,55.3L116.6,55.3z M115.1,55.2c0.2,0,0.3-0.1,0.4-0.2c0.1-0.2-0.1-0.3-0.2-0.4
				c-0.2-0.2-0.4-0.4-0.5-0.7c-0.1-0.3-0.4-0.2-0.6-0.2c-0.2,0,0,0.2,0,0.4c0,0.1,0,0.2,0.1,0.4C114.3,54.9,114.6,55.2,115.1,55.2
				L115.1,55.2z M114.6,58C114.6,58,114.7,58,114.6,58c0.4-0.4,1.1-0.5,1.3-1.1c0-0.1,0.2-0.2,0.1-0.3c-0.1-0.1-0.3-0.2-0.4-0.2
				c-0.1,0.1-0.2,0.2-0.3,0.2c-0.2,0.1-0.3,0.4-0.5,0.4c-0.3,0-0.4,0.2-0.5,0.4c-0.1,0.2-0.2,0.2-0.1,0.2
				C114.4,57.9,114.5,57.9,114.6,58L114.6,58z M107.3,53c0,0.4,0,0.7,0.1,1.1c0,0.3,0.2,0.6,0.5,0.7c0.1,0.1,0.3,0.1,0.5-0.1
				c0.1-0.2,0-0.3-0.1-0.4c-0.2-0.2-0.3-0.4-0.4-0.7C107.9,53.1,107.6,53.1,107.3,53L107.3,53z M118.1,56.1c-0.3-0.1-0.6,0-0.8,0.2
				c-0.2,0.2-0.3,0.5-0.6,0.5c-0.3,0-0.5,0.3-0.6,0.5c-0.2,0.2,0,0.2,0.1,0.2c0.3,0.2,0.5-0.1,0.8-0.2
				C117.4,57.1,117.7,56.5,118.1,56.1L118.1,56.1z M112.8,57.1c0-0.1-0.1-0.2-0.2-0.2c-0.1-0.1-0.2,0-0.3,0.1
				c-0.3,0.2-0.4,0.5-0.9,0.3c-0.2-0.1-0.3,0.2-0.4,0.4s-0.1,0.2,0,0.2c0.1,0.1,0.3,0.3,0.5,0.2c0.2-0.1,0.5-0.2,0.8-0.3
				C112.5,57.6,112.6,57.3,112.8,57.1L112.8,57.1z M104.8,54c-0.2-0.2-0.3-0.4-0.5-0.6c-0.2-0.2-0.2,0.1-0.3,0.1
				c-0.1,0-0.2,0-0.3-0.1c-0.1-0.1-0.3-0.1-0.4,0c0,0,0,0,0,0c-0.1,0.1-0.3,0.2-0.2,0.5c0.2,0.2,0.3,0.4,0.6,0.3
				c0.1-0.1,0.3-0.1,0.4,0.1c0.1,0.2,0.2,0.1,0.2,0S104.8,54.1,104.8,54z M119.7,53.8c-0.1,0-0.2,0.1-0.3,0.2c0,0.1-0.1,0.2-0.2,0.3
				c-0.4,0.3-0.7,0.6-0.8,1.1c0,0.1-0.1,0.1,0,0.2c0.1,0.1,0.2,0.1,0.3,0c0.2-0.1,0.2-0.2,0.3-0.3s0.3-0.4,0.5-0.5
				c0.2-0.1,0.3-0.4,0.5-0.6S119.8,53.9,119.7,53.8z M109.2,54.1c-0.2-0.1-0.3,0-0.3,0.2c0.1,0.5,0.5,0.9,1,1c0.2,0,0.4-0.1,0.4-0.3
				c0.1-0.1,0.1-0.1,0-0.2C110.1,54.5,109.7,54.2,109.2,54.1z M105.4,54.3c-0.3-0.1-0.5,0.1-0.6,0.3c-0.1,0.2,0.2,0.5,0.3,0.5
				c0.3,0,0.7,0,1-0.1c0.2,0,0.3-0.2,0.2-0.4c0,0,0-0.1-0.1-0.1c-0.2-0.2-0.2-0.6-0.6-0.2C105.6,54.3,105.4,54.3,105.4,54.3z
				 M118.3,56.9c0,0,0.1,0,0.1,0c0.5-0.4,1-0.9,1.2-1.5c0.1-0.2-0.1-0.2-0.2-0.2c-0.1,0-0.2,0.2-0.3,0.2c-0.1,0.1-0.3,0.6-0.6,0.7
				s-0.4,0.3-0.5,0.5C117.8,56.9,117.9,57,118.3,56.9L118.3,56.9z M113.3,57.4c-0.3-0.1-0.4,0.2-0.5,0.3c-0.1,0-0.1,0.1-0.1,0.2
				c0,0,0,0,0.1,0.1c0.1,0.1,0.3,0.3,0.4,0.2c0.3-0.3,0.8-0.3,1-0.8c0-0.2,0.2-0.3,0-0.5c-0.2-0.2-0.3,0.1-0.4,0.1
				S113.4,57.3,113.3,57.4L113.3,57.4z M107.7,55.2c0-0.1-0.4-0.6-0.5-0.6c-0.3,0.3-0.8,0.2-1,0.7c-0.1,0.2,0,0.3,0.1,0.4
				c0.1,0.1,0.2,0,0.3,0s0.2-0.3,0.5-0.2C107.6,55.7,107.4,55.3,107.7,55.2z M116.6,54c-0.2,0-0.5-0.1-0.6,0.3s0.3,0.7,0.7,0.6
				c0.4,0,0.7-0.2,0.8-0.5C117.4,54.2,117.1,54,116.6,54z M120.6,51.7c0,0.1,0.1,0.3,0.2,0.5c0.1,0.2,0.2,0.3,0.4,0.4
				c0.2,0,0.3-0.2,0.4-0.3c0.1-0.1,0.1-0.4,0-0.5c-0.1-0.1-0.2-0.3-0.4-0.4c-0.1-0.1-0.1-0.2-0.3-0.1
				C120.7,51.4,120.6,51.6,120.6,51.7L120.6,51.7z M113.4,55.4c0.2,0,0.4,0,0.4-0.3s-0.5-0.7-0.8-0.7c-0.3,0-0.5,0-0.5,0.4
				C112.6,55.1,113,55.4,113.4,55.4z M111.2,59c0.1-0.1,0.3,0.1,0.3-0.2c-0.2-0.5-0.8-0.8-1.4-0.7c-0.2,0.1-0.3,0.3-0.1,0.4
				C110.4,58.6,110.8,58.9,111.2,59L111.2,59z M103.3,53c0-0.3-0.7-1-1-0.9c0,0,0,0-0.1,0c-0.1,0.2-0.3,0.3-0.2,0.6s0.2,0.4,0.4,0.3
				c0.1,0,0.2,0,0.3,0.1c0.1,0.1,0.1,0.2,0.2,0.2C103.1,53.2,103.2,53.1,103.3,53z M103,51.3c-0.1,0.1-0.1,0.2-0.1,0.3
				c0.1,0.5,0.3,0.9,0.6,1.2c0.1,0.1,0.1,0.3,0.3,0.2c0.1-0.1,0.2-0.2,0.2-0.4C103.8,52,103.4,51.6,103,51.3z M105.9,53.3
				c0.1,0.4,0.2,0.7,0.5,1c0.1,0.1,0.2,0.2,0.3,0.1c0.1-0.1,0.2-0.2,0.2-0.3c-0.1-0.4-0.3-0.7-0.6-0.9
				C106,53.1,105.9,53.1,105.9,53.3z M109.4,53.9c0.5,0.1,0.3-0.3,0.3-0.4c0.1-0.3-0.1-0.4-0.7-0.5c-0.2,0-0.3,0.1-0.3,0.3
				C108.7,53.7,108.9,53.9,109.4,53.9z M116.1,53.8c0.2,0,0.5,0.1,0.5-0.2c0.1-0.3-0.1-0.5-0.4-0.6c0,0-0.1,0-0.1,0
				c-0.2,0-0.5,0-0.6,0.3C115.5,53.6,115.7,53.8,116.1,53.8L116.1,53.8z M118.1,57.4c0-0.1-0.1-0.2-0.3-0.2c0,0,0,0-0.1,0
				c-0.3,0.1-0.5,0.2-0.7,0.5c-0.1,0.1-0.2,0.2-0.1,0.3c0.1,0.1,0.2,0.2,0.3,0.1c0.2-0.1,0.5-0.2,0.7-0.3
				C118.2,57.6,118,57.5,118.1,57.4L118.1,57.4z M114,58c-0.2,0-0.5,0.1-0.4,0.3c0,0.3,0.2,0.5,0.5,0.5c0.3,0,0.7-0.2,0.6-0.4
				C114.4,58.2,114.2,58,114,58L114,58z M120.6,52.8c-0.1-0.1-0.4-0.2-0.6-0.2c-0.2,0-0.4,0.2-0.4,0.5c0,0,0,0,0,0
				c0,0.3,0.2,0.3,0.5,0.4C120.3,53.5,120.6,53,120.6,52.8L120.6,52.8z M119.1,52.1c0,0.2,0.1,0.5,0.3,0.5c0.2,0,0.5-0.1,0.5-0.3
				s-0.1-0.6-0.3-0.6C119.3,51.6,119.1,51.9,119.1,52.1L119.1,52.1z M112.9,53.3c-0.2,0-0.5,0-0.5,0.3s0.2,0.4,0.6,0.4
				c0.3,0,0.2-0.2,0.3-0.4C113.3,53.5,113.1,53.3,112.9,53.3L112.9,53.3z M106.7,52.7c0.1-0.4-0.2-0.6-0.4-0.6
				c-0.3,0-0.2,0.4-0.3,0.6c0,0.2,0.3,0.3,0.5,0.3C106.7,53,106.7,52.8,106.7,52.7z M103.9,51c0-0.2-0.4-0.7-0.5-0.7
				s-0.1,0.3-0.2,0.4c-0.1,0.1,0.4,0.7,0.5,0.6C103.9,51.3,103.8,51.1,103.9,51z M121.7,49.9c-0.1,0.1-0.2,0.2-0.3,0.4
				c-0.1,0.1-0.1,0.3,0,0.5c0.1,0.1,0.1,0.2,0.2,0.2c0.2-0.1,0.3-0.2,0.3-0.4C121.9,50.3,121.9,50,121.7,49.9z M101.8,48.4
				c-0.1,0.4-0.3,0.7,0.1,1C102.2,48.9,102.2,48.8,101.8,48.4z M122.6,48.6c0.2-0.2,0.2-0.5,0-0.7c0-0.1-0.1,0-0.1,0
				c-0.1,0.2-0.1,0.4,0,0.6C122.6,48.5,122.6,48.6,122.6,48.6z"/>
			<path id="_Path_" class="st0" d="M120.6,56.1l0.1-0.2c0-0.1,0.1-0.3,0-0.3s-0.2,0.1-0.3,0.1l-0.1-0.1l0.4-0.6l0.1,0.1
				c-0.1,0.2,0.2,0.1,0.3,0.3C121.2,55.8,120.8,55.9,120.6,56.1L120.6,56.1z"/>
			<path id="_Path_2" class="st0" d="M121.6,53.5c0-0.5,0.2-0.7,0.5-0.6c0.1,0,0.2,0.2,0.4,0.2c0,0.1,0,0.3-0.1,0.3
				c-0.1,0-0.3,0-0.5,0.1C121.8,53.3,121.7,53.6,121.6,53.5z"/>
			<path id="_Path_3" class="st0" d="M122,54.1c0,0.3-0.2,0.5-0.3,0.8c-0.1,0,0-0.1-0.1-0.2c-0.1-0.2-0.1-0.3,0.1-0.5
				S121.9,54.3,122,54.1L122,54.1z"/>
			<path id="_Path_4" class="st0" d="M121,53.8c0-0.1-0.1-0.2,0.1-0.3c0.1,0,0.1,0.1,0,0.1C121,53.7,121,53.8,121,53.8z"/>
			<path id="_Path_5" class="st0" d="M122.2,52.2v0.2h-0.1C122.1,52.5,122.2,52.3,122.2,52.2L122.2,52.2z"/>
			<path id="_Path_6" class="st0" d="M101.1,47.4c0,0.1,0,0.2-0.1,0.2C101,47.6,101,47.5,101.1,47.4L101.1,47.4z"/>
			<path id="_Path_7" class="st0" d="M121.6,53.7l-0.1,0.2v-0.1C121.5,53.7,121.5,53.7,121.6,53.7C121.6,53.6,121.6,53.7,121.6,53.7
				z"/>
			<path id="_Path_8" class="st0" d="M103.1,55.6c0,0,0.1,0.1,0,0.2l-0.1-0.1L103.1,55.6z"/>
			<path id="_Path_9" class="st0" d="M103.4,55.4l-0.1-0.2h0.1L103.4,55.4L103.4,55.4z"/>
			<path id="_Path_10" class="st0" d="M120.6,55l0.1-0.1c0,0.1,0,0.1,0,0.2L120.6,55z"/>
			<path id="_Path_11" class="st0" d="M120.1,55.8l0.1-0.2l0.1,0.1L120.1,55.8L120.1,55.8z"/>
			<path id="_Path_12" class="st0" d="M120.5,56.2L120.5,56.2l0.2,0L120.5,56.2L120.5,56.2z"/>
			<path id="_Path_13" class="st0" d="M120.4,56.3L120.4,56.3h0.2H120.4L120.4,56.3z"/>
			<path id="_Path_14" class="st0" d="M122,54.1L122,54.1L122,54.1L122,54.1z"/>
			<path id="_Path_15" class="st0" d="M103.3,55.3L103.3,55.3L103.3,55.3L103.3,55.3L103.3,55.3z"/>
			<path id="_Path_16" class="st0" d="M103.2,55.2L103.2,55.2V55V55.2L103.2,55.2z"/>
			<path id="_Path_17" class="st0" d="M101.1,47.4L101.1,47.4l0.2,0L101.1,47.4L101.1,47.4z"/>
			<path id="_Path_18" class="st1" d="M106.2,57L106.2,57v-0.2V57L106.2,57z"/>
			<path id="_Path_19" class="st0" d="M120.2,55.8C120.2,55.8,120.2,55.9,120.2,55.8C120,55.7,120.1,55.7,120.2,55.8L120.2,55.8z"/>
			<path id="_Path_20" class="st0" d="M121.5,53.6C121.5,53.6,121.6,53.5,121.5,53.6C121.6,53.6,121.6,53.6,121.5,53.6
				C121.5,53.7,121.5,53.6,121.5,53.6z"/>
			<path id="_Path_21" class="st2" d="M105.7,27.7c0.9,0,1.8,0,2.7,0.1c3,0.4,3.6,4,2.2,5.8c-0.9,1.1-2.2,1.8-3.7,2.1
				c-1.2,0.3-2.4,0.2-3.5-0.3c-0.8-0.4-1.5-1-1.8-1.8c-0.3-0.5-0.1-1.2,0.4-1.5c0.5-0.3,1.2-0.2,1.6,0.3c0.2,0.3,0.4,0.5,0.7,0.8
				c0.5,0.6,1.3,0.9,2.1,0.7c0.7-0.1,1.4-0.4,1.9-0.9c0.7-0.5,0.8-1.6,0.3-2.3c-0.3-0.4-0.8-0.6-1.3-0.6c-0.8,0-1.6,0-2.4,0
				c-0.8,0-1.6,0-2.4-0.2c-1.7-0.4-2.7-2.2-2.3-3.9c0.1-0.5,0.4-1,0.8-1.4c1.5-1.6,3.8-2.2,5.9-1.7c1,0.2,1.9,0.9,2.2,1.9
				c0.1,0.5-0.1,1-0.5,1.3c-0.4,0.3-1,0.2-1.3-0.1c-0.4-0.5-1-0.9-1.6-1.2c-1.2-0.3-2.5,0.3-3.2,1.3c-0.2,0.5,0,1.2,0.5,1.4
				c0.4,0.2,0.8,0.3,1.3,0.3L105.7,27.7z"/>
			<path id="_Path_22" class="st2" d="M131.7,15.5c0.5-0.1,1.1,0.3,1.1,0.8c0.1,0.5-0.1,0.9-0.6,1.1c-0.5,0.2-1.1,0.4-1.7,0.5
				c-0.4,0.1-0.8,0.2-1.2,0.3c-0.3,0.1-0.3,0.2-0.2,0.4c0.8,2.8,1.5,5.6,2.3,8.3c0.1,0.2,0.1,0.5,0.1,0.7c0.1,0.7-0.4,1.3-1.1,1.4
				c-0.6,0.1-1.1-0.3-1.3-0.8c-0.2-0.6-0.4-1.3-0.6-1.9c-0.6-2.3-1.3-4.6-1.9-7c-0.1-0.4-0.2-0.4-0.5-0.3c-0.9,0.2-1.7,0.5-2.6,0.7
				c-0.5,0.1-1.1-0.3-1.2-0.8c-0.1-0.5,0.2-1.1,0.7-1.2c0.7-0.2,1.4-0.4,2.1-0.6l5.9-1.6C131.4,15.6,131.6,15.6,131.7,15.5z"/>
			<path id="_Compound_Path_3" class="st2" d="M112.8,26.9c0.4-1,1.2-1.8,2.2-2c1.3-0.4,2.6,0.1,3.4,1.1c1,1.3,1.4,2.9,1,4.5
				c-0.4,1.7-2.1,2.8-3.8,2.4c-0.3-0.1-0.6-0.2-0.9-0.4c-0.1-0.1-0.2-0.2-0.4-0.1c0.3,1,0.6,2.1,0.8,3.1c0.1,0.4-0.1,0.9-0.5,1.1
				c-0.4,0.2-0.9,0.1-1.1-0.2c-0.1-0.1-0.1-0.2-0.1-0.3c-0.4-0.9-0.6-1.9-0.8-2.8c-0.5-1.6-0.9-3.3-1.3-5c-0.2-0.5-0.3-1-0.4-1.4
				c-0.1-0.5,0.2-1,0.7-1.1c0,0,0,0,0,0c0.5-0.1,1,0.2,1.1,0.7C112.7,26.6,112.8,26.7,112.8,26.9z M117.5,29.4
				c0-0.8-0.3-1.6-0.9-2.3c-0.4-0.5-1.1-0.8-1.7-0.6c-0.7,0.1-1.2,0.7-1.4,1.4c-0.2,1.1,0.1,2.2,0.8,3c0.4,0.5,1,0.8,1.6,0.7
				C117,31.4,117.5,30.6,117.5,29.4L117.5,29.4z"/>
			<path id="_Compound_Path_4" class="st2" d="M124,22.6c2.5,0,3.9,2.2,3.9,4.4c-0.1,2.2-1.9,3.9-4.1,3.9c-0.1,0-0.1,0-0.2,0
				c-2.4,0-3.9-2.1-3.9-4.5c0.1-2.2,1.9-3.9,4.1-3.9C123.9,22.6,124,22.6,124,22.6z M125.9,27.1c0-0.9-0.4-1.7-1-2.4
				c-0.5-0.5-1.2-0.7-1.9-0.5c-0.7,0.2-1.2,0.7-1.3,1.4c-0.2,1.1,0.1,2.3,0.9,3.1c0.3,0.3,0.7,0.6,1.1,0.6
				C125.1,29.4,126,28.6,125.9,27.1z"/>
			<path id="_Path_23" class="st2" d="M112.8,22.1c0.1-0.2,0.3-0.5,0.6-0.6c0.5-0.3,1.1-0.1,1.4,0.4c0,0.1,0.1,0.2,0.1,0.2
				c0.2,0.5,0.3,1.1,0.5,1.7c0.1,0.2,0,0.5-0.3,0.5s-0.4-0.1-0.5-0.3c-0.1-0.4-0.2-0.9-0.4-1.4S114,22,113.6,22
				c-0.4,0.1-0.6,0.4-0.5,0.8c0,0,0,0.1,0,0.1c0.1,0.4,0.2,0.9,0.3,1.3c0.1,0.3,0.1,0.5-0.2,0.6c-0.4,0.1-0.4-0.2-0.5-0.5l-0.9-3.1
				c-0.1-0.3-0.1-0.5,0.2-0.6s0.4,0.1,0.5,0.4C112.6,21.3,112.7,21.7,112.8,22.1z"/>
			<path id="_Compound_Path_5" class="st2" d="M117.1,23.7c-0.6,0-1.2-0.4-1.4-1c-0.3-0.6-0.2-1.3,0.3-1.8c0.5-0.4,1.2-0.5,1.8-0.2
				c0.2,0.1,0.3,0.2,0.5,0.4c0.4,0.5,0.3,0.9-0.3,1c-0.4,0.1-0.8,0.2-1.2,0.3s-0.3,0.2-0.1,0.4c0.2,0.4,0.7,0.5,1,0.3
				c0.1,0,0.1-0.1,0.2-0.1c0.1-0.1,0.2-0.3,0.3-0.5c0.1-0.1,0.2-0.2,0.4-0.1c0.2,0.1,0.2,0.2,0.1,0.4c-0.1,0.2-0.2,0.4-0.3,0.6
				C118,23.5,117.6,23.7,117.1,23.7z M117.7,21.7c-0.2-0.5-0.4-0.6-0.8-0.6c-0.3,0-0.6,0.3-0.6,0.7c0,0.2,0,0.3,0.2,0.2
				C116.8,21.9,117.3,21.8,117.7,21.7L117.7,21.7z"/>
			<path id="_Path_24" class="st2" d="M111.4,25.2c-0.3,0-0.6-0.2-0.7-0.5c-0.2-0.5-0.3-1-0.4-1.4c0-0.2-0.1-0.4-0.3-0.3
				c-0.3,0.1-0.2-0.1-0.3-0.2s0.1-0.2,0.2-0.3s0.2-0.2,0.1-0.3c0-0.2-0.1-0.4-0.1-0.5c0-0.2,0.1-0.4,0.2-0.4c0,0,0,0,0,0
				c0.2-0.1,0.4,0,0.5,0.2c0,0.1,0.1,0.2,0.1,0.4c0.1,0.2,0.1,0.5,0.4,0.3c0.1-0.1,0.3,0,0.3,0.1c0,0,0,0,0,0.1c0,0.1,0,0.3-0.2,0.3
				c0,0,0,0,0,0c-0.3,0.1-0.3,0.3-0.2,0.5s0.2,0.7,0.3,1.1s0.2,0.4,0.5,0.2s0.4-0.2,0.5,0.1c0.1,0.2,0,0.4-0.2,0.5
				C111.9,25.1,111.7,25.2,111.4,25.2z"/>
			<path id="_Compound_Path_6" class="st3" d="M117.4,38.9l-0.5-0.4c-0.2-0.1-0.1-0.2,0-0.3c0.1-0.1,0.2-0.1,0.3,0l1.4,1.4
				c0.2,0.2,0.1,0.3-0.1,0.4c-0.1,0-0.3,0.2-0.3,0.4c-0.2,0.3-0.6,0.5-1,0.4c-0.4-0.2-0.7-0.5-0.7-0.9c0-0.4,0.3-0.7,0.6-0.8h0.2
				L117.4,38.9z M117.6,39.3c-0.3,0-0.5,0.2-0.5,0.5c0,0.3,0.3,0.5,0.6,0.6c0.3,0,0.5-0.2,0.5-0.5C118.1,39.6,117.9,39.3,117.6,39.3
				C117.6,39.3,117.6,39.3,117.6,39.3L117.6,39.3z"/>
			<path id="_Path_25" class="st3" d="M124.3,33.1c0.1-1.1,0.1-1.1,0.4-1.4c0,0.3,0,0.6,0,0.9s0.1,0.3,0.3,0.3h0.9
				c-0.3,0.6-0.9,0.3-1.3,0.4c0,0.2,0.2,0.2,0.3,0.4s0.2,0.2,0,0.3s-0.2,0.1-0.3,0c-0.5-0.5-0.9-0.9-1.4-1.4c-0.1-0.1-0.1-0.2,0-0.3
				s0.2-0.1,0.3,0L124.3,33.1z"/>
			<path id="_Compound_Path_7" class="st3" d="M114.5,43.9c-0.5,0-0.9-0.4-1-1c0-0.5,0.4-0.9,0.9-0.9c0.5,0,0.9,0.3,0.9,0.8
				c0,0,0,0,0,0.1C115.5,43.4,115.1,43.8,114.5,43.9C114.6,43.9,114.5,43.9,114.5,43.9z M114,42.9c0,0.3,0.2,0.5,0.5,0.6
				c0.3,0,0.5-0.2,0.6-0.5c0-0.3-0.3-0.5-0.5-0.5C114.3,42.4,114.1,42.6,114,42.9C114,42.8,114,42.9,114,42.9z"/>
			<path id="_Compound_Path_8" class="st3" d="M116.1,40.4c0.5,0,0.9,0.4,0.9,0.9c0,0,0,0,0,0c0,0.6-0.4,1-1,1c-0.5,0-0.9-0.5-0.9-1
				c0,0,0,0,0,0C115.1,40.9,115.5,40.5,116.1,40.4C116,40.4,116.1,40.4,116.1,40.4z M116.6,41.4c0-0.3-0.2-0.5-0.5-0.5
				c0,0,0,0-0.1,0c-0.3,0-0.5,0.2-0.5,0.5c0,0.2,0.2,0.5,0.5,0.5C116.4,41.9,116.6,41.7,116.6,41.4z"/>
			<path id="_Path_26" class="st3" d="M113.7,44.9c-0.1,0.1-0.1,0.2-0.2,0.2c-0.1,0.1-0.1,0-0.2-0.1l-1.4-1.4l0,0
				c-0.2-0.2,0-0.3,0.1-0.4c0.1-0.1,0.3-0.6,0.7-0.5c0.1,0,0.2,0.2,0,0.3c-0.1,0.1-0.2,0.2-0.3,0.3c-0.1,0.1-0.1,0.2,0,0.2
				s0.2,0.2,0.3,0.1l0.3-0.3c0.1-0.1,0.2-0.1,0.3,0c0,0,0,0,0,0c0.1,0.1,0.1,0.2,0,0.3c-0.1,0.1-0.4,0.2-0.3,0.5
				c0.1,0.2,0.3,0.3,0.4,0.4S113.7,44.8,113.7,44.9z"/>
			<path id="_Path_27" class="st3" d="M121.8,36.8c-0.2,0-0.3,0-0.4-0.2c-0.2-0.2-0.5-0.5-0.7-0.7c-0.2-0.2-0.1-0.2,0-0.3
				c0.1-0.1,0.2-0.1,0.3,0s0.4,0.4,0.6,0.5c0.1,0.2,0.3,0.2,0.5,0.1c0,0,0,0,0.1,0c0.2-0.2,0.1-0.3,0-0.5c-0.1-0.2-0.4-0.4-0.6-0.6
				s-0.1-0.2,0-0.3s0.2-0.1,0.3,0c0.1,0.1,0.4,0.4,0.6,0.7c0.2,0.2,0.2,0.5,0.1,0.8C122.4,36.6,122.1,36.8,121.8,36.8z"/>
			<path id="_Path_28" class="st3" d="M122.3,34.5c0-0.5,0.3-1,0.8-1.1c0.1,0,0.2-0.1,0.3,0c0,0.1,0,0.3-0.1,0.3
				c-0.1,0.1-0.2,0.1-0.3,0.1c-0.2,0.1-0.4,0.3-0.3,0.6c0,0.2,0.2,0.4,0.4,0.4c0.2,0.1,0.5,0,0.6-0.3c0-0.1,0.1-0.2,0.1-0.3
				c0.1-0.1,0.2-0.2,0.3-0.2c0.1,0,0.1,0.2,0.1,0.3c-0.1,0.4-0.4,0.7-0.8,0.8c-0.3,0.1-0.7,0-0.9-0.3
				C122.3,34.8,122.3,34.7,122.3,34.5z"/>
			<path id="_Path_29" class="st3" d="M118.7,37.3l-0.1,0.1c-0.1,0.1-0.2,0-0.3-0.1c-0.1-0.1-0.1-0.2,0-0.3l0.6-0.6
				c0.1-0.1,0.2-0.2,0.3,0c0.1,0.2,0.2,0.2,0.1,0.3c-0.2,0.2-0.1,0.3,0.1,0.4l1,1c0.1,0.1,0.2,0.2,0,0.3c-0.2,0.1-0.2,0.1-0.3,0
				c-0.3-0.3-0.7-0.7-1-1C118.9,37.4,118.8,37.3,118.7,37.3z"/>
			<path id="_Path_30" class="st3" d="M120.2,36c0.1,0,0.2,0.1,0.2,0.2c-0.2,0.6,0.3,0.8,0.5,1.2c0.1,0.1,0.2,0.1,0.1,0.3
				c-0.1,0.2-0.2,0.3-0.4,0.1c-0.2-0.2-0.6-0.6-0.9-1c0,0-0.1-0.1-0.1-0.2C119.8,36.4,120.1,36.2,120.2,36z"/>
			<path id="_Path_31" class="st2" d="M105.3,31.7h1.3c0.1,0,0.2,0,0.2,0.1c0,0.1-0.1,0.1-0.2,0.2C106.2,32.3,105.6,32.2,105.3,31.7
				C105.3,31.7,105.3,31.7,105.3,31.7z"/>
			<path id="_Path_32" class="st0" d="M117.5,29.3c0,1.3-0.6,2-1.6,2.2c-0.6,0.1-1.3-0.1-1.7-0.6c-0.7-0.8-1-1.9-0.8-3
				c0.1-0.7,0.7-1.3,1.4-1.4c0.6-0.2,1.3,0.1,1.7,0.6C117.2,27.7,117.5,28.5,117.5,29.3z"/>
			<path id="_Path_33" class="st0" d="M125.9,27.1c0,1.5-0.9,2.3-2.1,2.2c-0.4,0-0.9-0.2-1.1-0.6c-0.8-0.9-1.1-2-0.9-3.1
				c0.1-0.7,0.6-1.3,1.3-1.4c0.7-0.2,1.4,0,1.9,0.5C125.6,25.4,125.9,26.2,125.9,27.1z"/>
			<path id="_Path_34" class="st0" d="M117.7,21.7c-0.4,0.1-0.7,0.2-1.1,0.3c-0.4,0.1-0.3,0-0.2-0.2c0-0.3,0.2-0.7,0.6-0.7
				C117.3,21,117.4,21.2,117.7,21.7z"/>
			<path id="_Path_35" class="st0" d="M117.6,39.3c0.3,0,0.5,0.2,0.5,0.5c0,0,0,0,0,0c0,0.3-0.2,0.5-0.5,0.5c-0.3,0-0.5-0.3-0.6-0.6
				C117.1,39.5,117.3,39.3,117.6,39.3z"/>
			<path id="_Path_36" class="st0" d="M114,42.9c0-0.2,0.2-0.4,0.4-0.4c0,0,0.1,0,0.1,0c0.3,0,0.5,0.2,0.5,0.5
				c0,0.3-0.3,0.5-0.5,0.5C114.2,43.4,114,43.2,114,42.9z"/>
			<path id="_Path_37" class="st0" d="M116.6,41.4c0,0.3-0.2,0.5-0.5,0.5c-0.3,0-0.5-0.2-0.5-0.5s0.2-0.5,0.5-0.5
				C116.3,40.8,116.5,41,116.6,41.4C116.6,41.3,116.6,41.4,116.6,41.4z"/>
		</g>
	</g>
</g>
</svg>
