<?xml version="1.0" encoding="utf-8"?>
<!-- Generator: Adobe Illustrator 22.1.0, SVG Export Plug-In . SVG Version: 6.00 Build 0)  -->
<svg version="1.1" id="Layer_1" xmlns="http://www.w3.org/2000/svg" xmlns:xlink="http://www.w3.org/1999/xlink" x="0px" y="0px"
	 viewBox="0 0 233 73" style="enable-background:new 0 0 233 73;" xml:space="preserve">
<style type="text/css">
	.st0{fill:#C6C4C4;}
	.st1{fill:#7D7D7D;}
	.st2{fill:#F9F7F9;}
	.st3{fill:#3D3D3D;}
	.st4{fill:#886628;}
	.st5{fill:#702775;}
	.st6{fill:#7D4E1F;}
</style>
<title>Asset 12</title>
<g id="Layer_2_1_">
	<g id="Layer_1-2">
		<g id="_Group_">
			<path id="_Compound_Path_" class="st0" d="M165,35.8c0.3,0.9,0.6,1.7,0.9,2.6c0.3,0.9-0.1,1.6-1.1,1.6l-1,0.1h-0.7
				c-3.4,0-6.9,0.8-10.3-0.1c-0.3-0.1-0.5,0.1-0.7,0.4c1.1,0.3,2.2,0.4,3.3,0.4c2.6,0.1,5.1,0.9,7.7,1.2c0.1,0,0.2,0.1,0.3,0.1
				c0.1,0.2,0.3,0.5,0.4,0.8c0.6,1.8,1.3,3.7,1.9,5.6c0.3,0.8,0.1,1.2-0.7,1.4c-0.2,0.1-0.3,0.1-0.5,0.1c-1.1,0.5-2.2,0.6-3.2-0.4
				c-0.5,0.1-1,0-1.5-0.1c-0.6-0.2-1.3-0.3-1.9-0.2c-1.3,0.2-2.6,0-3.8-0.6c-0.3-0.2-0.7-0.2-1,0.1c-1.1,0.6-2.3,0.7-3.5,0.3
				c-0.3-0.1-0.6-0.2-0.8,0.3s-0.6,0.5-1,0.4l-2.9-0.3c-0.3,0-0.5,0-0.7,0.3c-0.2,0.3-0.5,0.5-0.8,0.4H141c0,0-0.1,0-0.1,0
				c-1.2-0.8-2.3-0.1-3.4,0.1c-1.5,0.1-2.9-0.7-3.6-2c-0.7-1.8-1.3-3.6-2-5.4c-0.3-0.9-0.1-1.3,0.9-1.5c2.5-0.4,5-0.6,7.5-0.6
				c0.2,0,0.5,0,0.7,0.2c0.3,0.5,0.8,0.4,1.3,0.2c-0.3-0.4-0.9-0.6-1.1-1.1c1.8,0.3,3.7,0.4,5.6,0.5c0.7,0.1,1.4,0.2,2.1,0.2
				c1.3-0.2,2.5-0.7,3.4-1.6l3.4,0.6l9.4-0.4c-0.6-1.6-1.2-3.1-1.7-4.6c-0.1-0.2-0.1-0.4-0.4-0.2c-1.3,0.1-2.7,0.5-3.9,1
				c0-0.2,0-0.5,0-0.7c-0.1-0.6,0.2-0.9,0.8-0.9c0.6,0,1-0.1,1.5-0.1c0.3,0,0.4-0.1,0.4-0.4c-0.2-0.8-0.3-1.6-0.5-2.4
				c-0.1-0.3-0.2-0.5-0.5-0.3c-0.7,0-1.5,0.1-2.2,0.3c-0.3-0.5-0.2-0.7,0.4-0.8c1.2-0.2,2.3-0.6,3.4-0.8c0.4-0.1,0.6-0.2,0.4-0.7
				c-0.3-0.9-0.5-1.7-0.8-2.6c-0.4-1.3-0.4-1.3-1.6-0.8l-6.9,2.4c-1.3,0.3-2.6,0.8-3.9,1.2c-1.4-0.2-2.8,0-4.1,0.7
				c-1.3,0.3-2.5,0.6-3.8,1v-0.6c0.9-0.2,1.8-0.4,2.6-0.7c0.4,0,0.5-0.2,0.5-0.6c0-1.3-0.1-2.6,0-3.9c0-0.6-0.2-0.7-0.7-0.6
				c-3,0.2-6,0.4-9,0.6c-1,0-1.9,0.1-2.8,0.3c-0.5,0.2-0.8,0.6-1.3,0.9c-0.9,0.3-1.4,1.3-1.1,2.2c0,0.1,0,0.1,0.1,0.2
				c0.1,0.2,0.1,0.5,0.1,0.7c0.3,2.2,0.3,2.2,2.5,1.3l1.3-0.2l0.4,8c0,0.2-0.1,0.5,0.3,0.6c0.8,0.2,1.5,0.4,2.3,0.6
				c1,0.1,1.9-0.2,2.9-0.1c0.3,0.4,0.8,0.5,1.1,0.8c-1,0.1-1.9,0.2-2.9,0.3c-1.4,0-2.7-0.2-4-0.7c-0.6-0.2-0.7-0.7-0.7-1.3
				c-0.1-2.1-0.2-4.2-0.3-6.3c0-0.5-0.1-0.7-0.6-0.5c-0.5,0.2-1.1,0.4-1.7,0.5c0.6,0.2,1,0.3,1.5,0.4c0.6,0.1,0.9,0.7,0.8,1.3
				c0,0,0,0.1,0,0.1c-0.7,2.9-3.2,5.1-6.2,5.4c-1.3,0.2-2.6,0.1-3.9-0.2c0.4,0.8,0.7,1.5,1,2.3c0.3,0.5,0.2,1.2-0.3,1.5
				c-0.1,0.1-0.2,0.1-0.4,0.2c-1.4,0.5-2.8,0.9-4.1,1.4c-0.5,0.3-1.2,0-1.4-0.5c0-0.1-0.1-0.2-0.1-0.3c-0.2-0.6-0.4-1.3-0.6-2
				c-0.1-0.2-0.1-0.4-0.3-0.3c-0.3,0-0.3,0.2-0.3,0.4c-0.2,2-0.2,2.1-2.2,2c-1.2,0-2.4-0.1-3.6-0.1c-1-0.1-1.4-0.6-1.1-1.6
				c0.2-0.5,0-0.6-0.5-0.6c-1.2,0.1-2.5,0-3.7-0.4c-0.9-0.3-1.1-0.5-1.2-1.4c-0.1-1.7-0.2-3.3-0.3-4.9c0-0.8-0.7-0.5-1.1-0.6
				c-0.2-0.1-0.2,0-0.2,0.1c0,0.4-0.2,0.9-0.4,1.2c-1.4,2.2-3.9,3.7-6.5,3.8c-1.3,0.1-2.7,0-4-0.3c-0.1,0-0.3-0.1-0.4,0
				c-0.5,0.5-1.2,0.4-1.7,0.7c-2.3,0.7-4.6,0.2-6.9,0.3c-0.8,0-1.1-0.5-1-1.3c0.1-1.7,0.2-3.5,0.3-5.2c0-0.5-0.1-0.7-0.6-0.8
				c-1.4-0.2-1.4-0.2-1.4,1.3v5.7c0,1-0.3,1.2-1.2,1.5c-2.1,0.8-4.1,0.2-6.1-0.2l-2.1-0.4c-0.6,0-1.1-0.5-1.1-1.2
				c0-0.1,0-0.3,0.1-0.4c0.5-2.4,1-4.8,1.6-7.2c0.1-0.5,0-0.7-0.5-0.8c-0.8-0.1-1.6-0.3-2.4-0.4c-0.6,0-1-0.5-1-1.1
				c0-0.1,0-0.2,0.1-0.3c0.3-1.6,0.6-3.1,0.9-4.7c0-0.6,0.5-1.1,1.1-1.1c0.1,0,0.1,0,0.2,0c4.2,0.5,8.3,1,12.5,1.6
				c0.8,0.2,1.7,0.2,2.5,0.1c1.2-0.1,2.3,0.5,3.4,0.8c0.5,0.2,1.1,0.1,1.4-0.3c1.3-1,2.9-1.6,4.6-1.5c0.6,0.2,1.2,0.1,1.8,0.3
				c1.6,0.5,3,1.4,4.2,2.5c0.2,0.2,0.4,0.4,0.7,0c0.2-0.2,0.5-0.3,0.7-0.2c3.7-0.3,7.3-0.6,11-1c0.6-0.1,1.3,0.2,1.5,0.8
				c0.3,1.1,1.3,1.7,2.4,1.5c0.1,0,0.3-0.1,0.4-0.1c1.1-0.4,1.2-0.2,2,1.3c0.5-0.8,1-1.5,1.6-2.2c2.2-2.8,6.2-3.5,9.3-1.6
				c0.2,0.2,0.6,0.2,0.8-0.1c1.1-1.1,2.6-1.6,4.1-1.6c3.3-0.1,6.6-0.4,9.9-0.6c1.3-0.1,1.7,0.2,1.7,1.6c0,1,0,2,0,3
				c0,0.3,0.1,0.5,0.4,0.3c0.9-0.3,1.9-0.4,2.9-0.3c0.3,0,0.7-0.1,1-0.2l10.7-3.5c1.1-0.4,1.5-0.1,1.8,0.9c0.4,1.2,0.7,2.5,1.1,3.7
				c0.3,0.9,0,1.4-0.9,1.6c-0.5,0.1-0.7,0.3-0.6,0.8c0.2,0.6,0.2,1.2,0.3,1.8c0,0.3,0.1,0.5,0.5,0.4c0.5-0.1,1,0.3,1.1,0.8
				C164.4,34.5,164.7,35.1,165,35.8z M120.1,28L120.1,28c-0.1,0.1-0.2,0.1-0.2,0.3l0,0c-1.1,1.1-1.6,2.6-1.4,4.2
				c-0.4-0.7-0.7-1.5-1.1-2.2c-0.8-1.7-0.8-1.7-2.7-1.3c-0.3,0-0.5,0.3-0.6,0.5c-0.2,0.7-0.5,1.4-0.7,2c0-0.4,0-0.8,0-1.2
				c0.2-1.3-0.3-2.7-1.3-3.6c-0.3-0.3-0.7-0.1-1.1-0.1c-0.9,0-1.8,0.1-2.7,0.2c-2.4,0.2-4.7,0.4-7.1,0.6c-0.5,0-0.7,0.2-0.6,0.7
				c0.1,1.2,0.1,2.4,0.1,3.6c0,0.2-0.1,0.5,0.1,0.6c0.4,0.1,0.9,0.2,1.3,0.2c0.7,0.2,1.4,0.3,2.1,0.1c0,0.2,0.1,0.4,0.1,0.5
				c0.1,1.9,0.2,3.8,0.3,5.8c0,0.3-0.1,0.7,0.4,0.6c0.6,0.3,1.2,0.4,1.9,0.4h3.6l-0.6,2.1h1.2c0.7,0.1,1.4,0.2,2.1,0.1
				c1.6,0,1.6,0,1.6-1.6v-0.1c0-0.3,0.1-0.5,0.4-0.6c0.6-0.1,1.2-0.3,1.8-0.5c0.3,1,0.7,2,0.9,3c0.1,0.5,0.3,0.5,0.7,0.3
				c1.1-0.4,2.3-0.8,3.4-1.1c0.4-0.1,0.5-0.3,0.3-0.7c-0.8-1.6-1.5-3.2-2.2-4.8c0.2,0.2,0.4,0.3,0.7,0.5c1.5,1.1,3.3,1.4,5.1,1.1
				c2.5-0.1,4.7-1.8,5.4-4.2c0.1-0.2,0.3-0.5-0.1-0.6c-1-0.4-2.1-0.6-3.2-0.8c-0.6,0.2-1.3,0.4-1.9,0.5c-0.4,0.1-0.8,0.4-1,0.8
				c-1.4-0.7-1.9-2.4-1.2-3.8c0.5-0.2,1-0.2,1.5,0.1c0.3,0.1,0.6,0.6,0.8,0.5s0.5-0.5,0.7-0.8s0.3-0.4,0.4-0.6
				c0.5-0.6,1-1.3,1.6-1.9c0.4-0.4,0.3-0.7-0.1-1c-2.9-1.8-6.3-1.2-8.6,1.6L120.1,28z M97,26.3c0-0.2-0.1-0.2-0.2-0.1
				c-1.3-1-3-1.4-4.7-1.1c-1.5,0.3-2.8,1-3.8,2.2c-0.8-0.5-1.7-0.8-2.6-0.9l0,0c-0.1-0.1-0.2-0.1-0.3-0.1c-0.9-0.5-1.9-0.4-2.7,0.1
				c-0.4-0.2-0.9-0.4-1.3-0.5c-0.1,0-0.2-0.1-0.4-0.1l-12-1.5c-0.3,0-0.4,0.1-0.4,0.4c-0.2,1.4-0.5,2.8-0.7,4.2
				c-0.1,0.4,0.1,0.5,0.4,0.5c1.1,0.2,2.1,0.4,3.2,0.6c0.4,0.1,0.6,0.2,0.5,0.7c-0.6,2.4-1.1,4.9-1.6,7.3c-0.3,1.3-0.3,1.3,1,1.6
				c1.5,0.3,3.1,0.7,4.6,0.8c0.6-0.1,1.2-0.3,1.8-0.4c0.6-0.1,0.6-0.3,0.6-0.8c0-2.7,0-5.5,0-8.2l2.5,0.4l1.7,0.3c0,0.5,0,1-0.1,1.5
				c-0.1,1.7-0.2,3.3-0.4,5c0,0.2-0.1,0.6,0.4,0.6c1.6,0,3.3,0,4.9,0c0.3,0,0.7-0.1,1-0.2c0.4,0,0.9-0.2,1.3-0.4
				c0.4-0.3-0.2-0.8-0.1-1.2c1.2,0.8,2.7,1.2,4.1,1.1c2.3,0.2,4.6-0.6,6.2-2.2c0.5-0.4,0.8-0.9,1-1.6c-0.8-0.6-1.7-1-2.6-1.2
				c-1.1-0.1-2.1,0-3.2,0.1c-0.7-0.6-0.9-1.7-0.4-2.5c0.4-0.7,0.9-0.9,2.1-0.5c1.1,0.4,2.4,0.2,3.4-0.4c-0.8-1.3-1.9-2.4-3.2-3.2
				l0,0C97.2,26.3,97.1,26.2,97,26.3L97,26.3z M141.2,43.3l-0.7,0.1c0-0.5-0.1-1.1-0.1-1.7c0-0.2,0-0.4-0.3-0.4c-0.5,0-1,0-1.4,0.1
				c-2.1-0.1-4.1,0.1-6.1,0.5l2.2,5.7c0.1,0.3,0.2,0.5,0.5,0.7c0.5,0.2,1,0.5,1.6,0.8c0.7-0.1,1.4-0.2,2.1-0.3
				c0.3,0,0.3-0.2,0.3-0.4c-0.1-0.5-0.1-1.1-0.3-1.7c-0.1-0.5,0.1-0.6,0.5-0.7c0.2,0,0.5,0,0.5-0.2c0-0.4-0.1-0.8-0.3-1.1
				c-0.1-0.3-0.4-0.2-0.7-0.2c-0.3,0-0.5-0.2-0.5-0.5c0,0,0,0,0,0c0-0.3,0.3-0.3,0.5-0.3c0.2,0,0.6,0,0.9,0
				c-0.2,0.9-0.1,1.2,0.9,1.3l0.7,0.1l0.4,0.2c-1.6,0.3-1.6,0.3-1.8,1.8c-0.1,1.3-0.1,1.3,1.1,1.9c0.4,0,0.9,0.1,1.3,0.1
				c1,0,1,0,1-1l0.6,0.1c1.2,0.1,2.3,0.3,3.5,0.4c0.5,0.1,1,0.1,0.7-0.7c-0.1-0.2-0.1-0.5-0.1-0.8l0.9,0.4c1.6,0.6,3.2,1,4.7-0.4
				l2.3,0.8l1.2,0.1c1.1,0.1,1.1,0.1,1.2-1l1,0.8c0.3,0.2,0.8,0.2,1.1,0.4c0.5,0.3,0.8,0,0.9-0.5l1.8,1.3c0.6-0.1,1.2-0.2,1.8-0.5
				c0.4-0.1,0.4-0.2,0.3-0.5c-0.6-1.8-1.2-3.6-1.8-5.4c-0.1-0.2-0.1-0.4-0.4-0.4c-0.4-0.1-0.8-0.1-1.3-0.1c-0.5,0-1,0-1.4,0.1
				c-0.1-0.2,0.2-0.6-0.3-0.7c-1.8-0.2-3.6-0.3-5.4-0.5h-1.1c-0.8-0.2-1.6-0.3-2.5-0.3c-1.1-0.2-2.3,0.2-3.1,1
				c0-0.3-0.1-0.7-0.5-0.5c-1.6-0.1-3.1-0.1-4.7,0.2c-1.2,0.3-1.2,0.3-1.1,1.5L141.2,43.3z"/>
			<path id="_Path_" class="st1" d="M141.5,30.3c1.2-0.4,2.5-0.7,3.8-1c0,0.2-0.2,0.3-0.4,0.5c-2.2,1.9-2.8,5-1.5,7.6
				c0.7,1.4,1.9,2.4,3.3,3c-1.9-0.1-3.7-0.2-5.6-0.5l0,0c0-0.2,0-0.2-0.1-0.2h-0.2c-0.4-0.3-0.8-0.4-1.1-0.8c0.7-0.1,1.3-0.2,2-0.2
				c0.6,0,0.7-0.2,0.6-0.8C141.9,35.4,141.7,32.8,141.5,30.3z"/>
			<path id="_Path_2" class="st2" d="M140.9,39.8c0.1,0,0.1,0,0.1,0.1L140.9,39.8z"/>
			<path id="_Path_3" class="st2" d="M164.3,25.8c-0.2-0.3-0.4-0.4-0.5,0.2c0.1-0.4-0.3-0.9,0.2-1c0.5-0.1,0.2,0.5,0.4,0.7
				C164.4,25.7,164.4,25.7,164.3,25.8C164.4,25.8,164.3,25.8,164.3,25.8z"/>
			<path id="_Path_4" class="st3" d="M81,31.2l-2.5-0.4l-1.1-0.2c-0.4-0.1-0.6,0-0.7,0.4c-0.1,0.6-0.1,1.2-0.1,1.7
				c-0.2,2.5-0.5,4.9-0.5,7.4c-1.6-0.1-3.1-0.5-4.6-0.8c-1.3-0.2-1.3-0.3-1-1.6c0.5-2.4,1-4.9,1.6-7.3c0.1-0.5,0-0.6-0.5-0.7
				c-1.1-0.2-2.1-0.4-3.2-0.6c-0.4,0-0.5-0.1-0.4-0.5c0.3-1.4,0.5-2.8,0.8-4.2c0-0.3,0.1-0.4,0.4-0.4l12,1.5c0.1,0,0.2,0,0.4,0.1
				C81.3,27.6,81.1,29.4,81,31.2z"/>
			<path id="_Path_5" class="st3" d="M141.5,30.3c0.2,2.5,0.4,5,0.7,7.6c0,0.5-0.1,0.8-0.6,0.8c-0.7,0-1.3,0.1-2,0.2
				c-1-0.1-1.9,0.2-2.9,0.1c-0.1-2.1-0.2-4.2-0.4-6.3l-0.1-2.9c0-0.3-0.1-0.5-0.5-0.4l-2,0.5l-1.3,0.2c-0.1-1.8-0.2-3.5-0.4-5.3
				c0.9-0.2,1.8-0.3,2.7-0.2c3-0.2,6-0.4,9-0.6c0.5,0,0.7,0.1,0.7,0.6c0,1.3,0,2.6,0,3.9c0,0.4,0,0.6-0.5,0.6
				c-0.8,0-1.5,0.1-2.3,0.1c-0.5,0-0.5,0.2-0.4,0.6L141.5,30.3z"/>
			<path id="_Path_6" class="st3" d="M160.5,30.5c0.3-0.2,0.5-0.1,0.5,0.3c0.1,0.8,0.3,1.6,0.4,2.3c0.1,0.3-0.1,0.4-0.4,0.4
				c-0.5,0-1,0.1-1.5,0.1s-0.9,0.2-0.8,0.9c0,0.2,0,0.5,0,0.7c0,0.3,0,0.6,0,0.8s0.1,0.4,0.4,0.2c1.2-0.7,2.4-1.3,3.6-2.1
				c0.3-0.2,0.3,0,0.4,0.2c0.6,1.5,1.1,3,1.7,4.6l-9.4,0.4c0-0.3-0.1-0.6-0.1-0.8c-0.7-3.5-1.5-7-2.3-10.5c-0.1-0.2,0-0.5,0.1-0.7
				l6.9-2.4c1.2-0.4,1.2-0.4,1.6,0.9c0.2,0.9,0.5,1.7,0.8,2.6c0.2,0.5,0,0.6-0.4,0.7c-1.1,0.2-2.3,0.6-3.4,0.8
				c-0.6,0.1-0.7,0.3-0.4,0.8c0,0.3,0,0.5,0.4,0.4C159.3,31,159.9,30.8,160.5,30.5z"/>
			<path id="_Path_7" class="st3" d="M93.8,37.9c-1.5,0.1-2.9-0.3-4.1-1.1l0,0l-0.1-0.1c-0.8-0.7-1.5-1.5-2-2.4
				c-0.4-1-0.6-2-0.6-3.1c0-0.3,0.1-0.5,0.1-0.8c0.2-1.1,0.7-2.2,1.3-3.2c1-1.1,2.3-1.9,3.8-2.2c1.6-0.3,3.3,0.1,4.7,1.1l0.2,0.1
				l0,0c0.1,0.1,0.1,0.2,0.3,0.1l0,0c0.1,0.5,0.5,0.7,0.8,1s0.3,0.6-0.2,0.9c-0.6,0.3-1.1,0.6-1.6,1c-0.4,0.3-0.6,0.2-0.9-0.2
				c-0.7-0.9-1.9-1-2.8-0.4c-0.1,0.1-0.1,0.1-0.2,0.2c-1.1,1-1.3,2.6-0.6,3.9c0.5,1,1.7,1.4,2.7,0.9c0.3-0.2,0.6-0.4,0.8-0.8
				c1-0.1,2.1-0.1,3.2-0.1c0.9,0.2,1.7,0.6,2.5,1.2c-0.6,0.2-1.1,0.3-1.7,0.5c-0.6,0.1-1.2,0.5-1.6,1c-0.7,0.9-1.6,1.5-2.7,1.9
				C94.7,37.7,94.3,37.8,93.8,37.9z"/>
			<path id="_Path_8" class="st3" d="M100.9,32.4c-0.2-0.2-0.1-0.4-0.1-0.6c0-1.2,0-2.4-0.1-3.6c0-0.5,0.1-0.7,0.6-0.7
				c2.4-0.2,4.7-0.4,7.1-0.6c0.9-0.1,1.8-0.2,2.7-0.2c0.3,0,0.7-0.2,1.1,0.1c0,1.2,0.1,2.4,0.2,3.6c0,0.5,0,0.7-0.6,0.8
				c-0.7,0.1-1.4,0.2-2.2,0.2c-0.8,0-0.7,0.4-0.7,0.9c0.3,2.3,0.7,4.6,1.1,6.9c-0.2,0.2-0.5,0.1-0.7,0.1c-1.4,0-2.8,0.2-4.2,0.4
				c-0.5,0.1-0.4-0.3-0.4-0.6c-0.1-1.9-0.2-3.8-0.3-5.8c0-0.2,0-0.4-0.1-0.5c0.1-1,0.1-1-0.9-0.8L100.9,32.4z"/>
			<path id="_Compound_Path_2" class="st3" d="M113.5,31.5c0.2-0.7,0.5-1.4,0.7-2c0.1-0.3,0.3-0.5,0.6-0.6c1.9-0.4,1.9-0.4,2.7,1.3
				c0.3,0.7,0.7,1.5,1.1,2.2c0.6,1.3,1.2,2.6,1.8,3.9c0.7,1.6,1.4,3.2,2.2,4.8c0.2,0.4,0.1,0.5-0.3,0.7c-1.1,0.4-2.3,0.7-3.4,1.1
				c-0.4,0.1-0.6,0.1-0.7-0.3c-0.2-1-0.6-2-0.9-3c0-0.2,0-0.5-0.4-0.4c-0.8,0-1.5,0.2-2.2,0.4c-0.5,0.2-0.4,1.1-0.6,1.7
				c0,0,0,0.1,0,0.1c0,0.4-0.2,0.5-0.6,0.5c-0.7,0-1.5,0.1-2.2,0.3H110l0.6-2.1c0.1-0.2,0.2-0.3,0.2-0.5c0.2-0.3,0.3-0.6,0.3-0.9
				c0.8-2.3,1.6-4.6,2.3-6.9L113.5,31.5z M115.7,34.6c-0.1-0.2,0-0.6-0.3-0.8c-0.1,0.5-0.2,0.9-0.2,1.3c-0.1,0.7-0.2,1.4-0.3,2.1
				c-0.2,0.9-0.1,0.9,0.8,0.7h0.3c0.6,0.1,0.8-0.1,0.6-0.8C116.1,36.3,115.9,35.4,115.7,34.6z"/>
			<path id="_Path_9" class="st3" d="M128.2,32.4c1.1,0.2,2.2,0.4,3.2,0.8c0.4,0.1,0.2,0.4,0.1,0.6c-0.7,2.4-2.9,4-5.4,4.1
				c-3.7,0-6.7-2.9-6.7-6.6c0-0.5,0.1-1,0.2-1.6c0.2-0.5,0.4-1,0.4-1.5l0,0c0.2,0,0.2-0.2,0.2-0.3l0,0l0.2-0.2
				c2.3-2.9,5.7-3.5,8.6-1.6c0.5,0.3,0.5,0.5,0.1,1c-0.6,0.6-1,1.3-1.6,1.9c-0.3-0.2-0.5-0.3-0.8-0.5c-1-0.4-2.1,0-2.5,0.9
				c-0.1,0.1-0.1,0.2-0.1,0.3c-0.7,1.4-0.1,3.1,1.3,3.8c1,0.5,2.2,0.2,2.7-0.8C128.1,32.7,128.1,32.5,128.2,32.4z"/>
			<path id="_Compound_Path_3" class="st3" d="M146.6,40.3c-1.4-0.6-2.6-1.6-3.3-3c-1.3-2.6-0.6-5.7,1.5-7.6
				c0.1-0.1,0.4-0.2,0.4-0.5c1.3-0.7,2.7-0.9,4.1-0.7c2.3,0.6,4.1,2.6,4.3,5c0.3,1.9-0.3,3.8-1.6,5.2c-0.9,0.9-2.1,1.5-3.4,1.7
				C148,40.6,147.3,40.5,146.6,40.3z M146.2,33.3c-0.8,1.1-0.5,2.7,0.7,3.4c0.9,0.7,2.2,0.6,2.9-0.2c0.9-1,1-2.4,0.2-3.5
				c-0.7-1-2.1-1.3-3.1-0.6C146.6,32.7,146.4,33,146.2,33.3L146.2,33.3z"/>
			<path id="_Path_10" class="st3" d="M87.5,38.5c-1.6,0-3.3,0-4.9,0c-0.5,0-0.4-0.3-0.3-0.6c0.1-1.7,0.2-3.3,0.3-5
				c0-0.5,0-1,0.1-1.5l0.1-0.2l3.3-0.3L87.5,38.5z"/>
			<path id="_Path_11" class="st3" d="M139.7,43.7c-0.3,0-0.6,0-0.9,0s-0.5,0-0.5,0.3c0,0.3,0.2,0.5,0.4,0.5c0,0,0,0,0,0
				c0.2,0,0.6-0.1,0.7,0.2c0.1,0.4,0.2,0.7,0.3,1.1c0,0.3-0.3,0.2-0.5,0.2c-0.4,0-0.6,0.2-0.5,0.7s0.2,1.1,0.3,1.7
				c0,0.3,0,0.4-0.3,0.4c-0.7,0.2-1.4,0.3-2.1,0.3c-0.6-2.1-1.1-4.3-1.6-6.5c-0.2-0.6,0-0.8,0.6-0.9c1-0.1,2-0.2,3-0.4
				c0.5-0.1,0.9-0.1,1.4-0.1c0.3,0,0.3,0.2,0.3,0.4c0,0.5,0.1,1.1,0.1,1.7C140.3,43.7,139.9,43.5,139.7,43.7z"/>
			<path id="_Path_12" class="st1" d="M95.3,33c-0.6,1-1.8,1.3-2.8,0.7c-0.3-0.2-0.6-0.5-0.8-0.8C91,31.6,91.2,30,92.3,29
				c0.8-0.8,2-0.8,2.8,0c0.1,0.1,0.1,0.1,0.2,0.2c0.3,0.4,0.5,0.4,0.9,0.2c0.5-0.4,1.1-0.7,1.6-1c0.5-0.3,0.4-0.5,0.2-0.9
				c-0.3-0.4-0.7-0.5-0.8-1c1.3,0.8,2.4,1.9,3.2,3.2c-1,0.6-2.2,0.7-3.4,0.3c-1.2-0.4-1.6-0.2-2.1,0.5C94.4,31.4,94.6,32.4,95.3,33z
				"/>
			<path id="_Path_13" class="st3" d="M153.4,47.2c-1.5,1.4-3.1,1-4.7,0.4c0.2-0.7,0.3-1.5,0.5-2.2l1,0.4c0.2,0.2,0.6,0.3,0.9,0.3
				c0.2,0,0.5,0,0.6-0.3s-0.2-0.4-0.4-0.5c-0.4-0.2-0.9-0.4-1.3-0.7c-0.9-0.5-1.2-1.7-0.7-2.6c0-0.1,0.1-0.1,0.1-0.2
				c0.3-0.4,0.8-0.8,1.4-0.9c0.8-0.1,1.7,0,2.5,0.3c0.4,0.1,0.5,0.3,0.4,0.8c-0.1,0.4-0.2,0.8-0.3,1.2c-0.1,0.1,0,0.4-0.3,0.5
				c-0.3-0.3-0.7-0.6-1.1-0.7c-0.4-0.1-0.9-0.5-1,0.1c-0.2,0.5,0.4,0.5,0.7,0.7c0.9,0.5,1.8,0.9,2.1,2
				C153.8,46.3,153.7,46.8,153.4,47.2z"/>
			<path id="_Path_14" class="st1" d="M133.7,29.8l2-0.5c0.4-0.1,0.4,0.1,0.5,0.4l0.2,3c0.1,2.1,0.2,4.2,0.3,6.3
				c-0.8-0.1-1.6-0.3-2.3-0.6c-0.4-0.1-0.3-0.4-0.3-0.6L133.7,29.8z"/>
			<path id="_Path_15" class="st3" d="M147.1,41.5c0.5-0.2,0.5,0.2,0.5,0.5c0,0.3,0.1,0.8,0.1,1.2c0,0.2,0.1,0.5-0.2,0.6
				s-0.8,0-1.3,0c-0.2,0-0.6-0.1-0.6,0.3c0.1,0.4,0.4,0.1,0.6,0.2c0.2,0,0.5-0.3,0.6,0.1c0.1,0.4,0.1,0.8,0,1.2
				c-0.1,0.3-0.5,0.1-0.7,0.1c-0.5-0.1-0.7,0.1-0.6,0.6c-0.2,0.5-0.1,0.8,0.5,0.6c0.5-0.1,0.9-0.3,1.3-0.5l0,0
				c0.3,0.2,0.2,0.6,0.3,0.8c0,0.3,0,0.5,0.1,0.8c0.3,0.8-0.1,0.7-0.7,0.7c-1.2-0.2-2.3-0.3-3.5-0.4c-0.2-1.8-0.1-3.7-0.2-5.5
				c0-0.4,0-0.6,0.5-0.7L147.1,41.5z"/>
			<path id="_Path_16" class="st3" d="M154.3,41.3c1.8,0.2,3.6,0.4,5.4,0.5c0.5,0,0.3,0.4,0.3,0.7c-0.1,0.2-0.1,0.4-0.1,0.6
				c0,0.7-0.2,0.9-0.9,0.8c-0.9-0.2-0.9-0.2-1,0.7c0,0.7,0,1.4,0,2.1v0.4c-0.1,1.1-0.1,1.1-1.2,1l-1.2-0.1c0.1-1,0.2-2,0.4-3.1
				c0.2-1.4,0.2-1.4-1.2-1.4c0,0,0,0-0.1,0c-0.5,0.1-0.6-0.2-0.6-0.7C154.2,42.4,154.3,41.8,154.3,41.3z"/>
			<path id="_Compound_Path_4" class="st3" d="M161.5,42.4c0.4,0,0.8,0,1.3,0.1c0.3,0,0.3,0.2,0.4,0.4c0.6,1.8,1.2,3.6,1.9,5.4
				c0.1,0.3,0.1,0.5-0.3,0.5c-0.6,0.2-1.2,0.4-1.8,0.4c0-0.4-0.2-0.9-0.2-1.3c-0.1-0.7-0.5-0.8-1.1-0.8s-0.4,0.5-0.5,0.8
				c-0.1,0.5-0.3,0.7-0.9,0.5c-0.3-0.2-0.8-0.1-1.1-0.4L161.5,42.4z M162.3,44.6h-0.2c-0.1,0.4-0.3,0.8-0.4,1.1
				c0,0.1-0.1,0.3,0.1,0.3c0.2,0.1,0.4,0.1,0.7,0.1c0.2-0.1,0.1-0.2,0-0.4C162.4,45.4,162.3,45,162.3,44.6z"/>
			<path id="_Path_17" class="st1" d="M76,40.2c0.1-2.5,0.3-4.9,0.5-7.4c0.1-0.6,0-1.2,0.1-1.7c0.1-0.4,0.2-0.6,0.7-0.4l1.1,0.2
				c0,2.7,0,5.5,0,8.2c0,0.5-0.2,0.7-0.6,0.8C77.3,39.9,76.6,40.1,76,40.2z"/>
			<path id="_Path_18" class="st1" d="M152.1,38.8c1.3-1.4,1.9-3.3,1.6-5.2c-0.3-2.4-2-4.4-4.3-5c1.3-0.4,2.6-0.9,3.9-1.2
				c-0.2,0.2-0.2,0.5-0.1,0.7c0.8,3.5,1.5,7,2.3,10.5c0.1,0.3,0.1,0.6,0.1,0.8L152.1,38.8z"/>
			<path id="_Path_19" class="st3" d="M82.7,26.3c0.8-0.5,1.9-0.6,2.7-0.1c0.1,0.1,0.2,0.2,0.3,0.1l0,0c0,0.1,0,0.1,0,0.2
				c1.2,1.8,0.8,3.1-1.2,3.9c-0.6,0-1.1-0.1-1.6-0.3C81.5,28.8,81.4,27.7,82.7,26.3z"/>
			<path id="_Path_20" class="st1" d="M138.6,41.4c-1,0.1-2,0.3-3,0.4c-0.6,0-0.8,0.2-0.6,0.9c0.6,2.1,1.1,4.3,1.7,6.5
				c-0.5-0.3-1-0.5-1.6-0.8c-0.3-0.1-0.4-0.4-0.5-0.7l-2.2-5.7C134.5,41.5,136.5,41.4,138.6,41.4z"/>
			<path id="_Path_21" class="st1" d="M147.1,41.5l-3,0.5c-0.4,0.1-0.5,0.3-0.5,0.7c0,1.8,0,3.7,0.1,5.5l-0.6-0.1
				c-0.1-0.5-0.2-0.9-0.3-1.4c-0.2-1-0.2-1-1.2-0.9c-0.4,0-0.6,0.2-0.6,0.6c0,0.9-0.1,1.8-0.2,2.7c-1.2-0.6-1.2-0.6-1.1-1.9
				c0.1-1.5,0.1-1.5,1.8-1.8c0.6-0.1,1.2-0.4,1.2-1.2s-0.6-1-1.5-0.9c-0.1-1.2-0.1-1.2,1.1-1.5C144,41.4,145.6,41.3,147.1,41.5z"/>
			<path id="_Path_22" class="st1" d="M111.1,38.7c0,0.3-0.1,0.6-0.3,0.9l-0.7-0.4c-0.4-2.3-0.7-4.6-1.1-6.9
				c-0.1-0.5-0.2-0.9,0.7-0.9c0.7,0,1.4-0.1,2.1-0.2c0.6-0.1,0.6-0.3,0.6-0.8c-0.1-1.2-0.1-2.4-0.2-3.6c1,0.9,1.5,2.3,1.3,3.6
				c0,0.4,0,0.8,0,1.2l-0.1,0.3c-1.1,0.1-2.3,0.2-3.4,0.3c-0.3,0-0.4,0.1-0.3,0.4c0.2,0.8,0.4,1.6,0.6,2.4
				C110.5,36.1,110.8,37.4,111.1,38.7z"/>
			<path id="_Path_23" class="st1" d="M132.1,24.8c0.1,1.8,0.2,3.5,0.4,5.3c-2.2,0.9-2.2,0.9-2.5-1.3c0-0.2-0.1-0.5-0.1-0.7
				c-0.4-0.9,0-1.9,0.8-2.3c0.1,0,0.1,0,0.2-0.1C131.3,25.4,131.6,25,132.1,24.8z"/>
			<path id="_Path_24" class="st1" d="M154.3,41.3c0,0.5-0.1,1-0.1,1.5s0,0.7,0.6,0.7c0,0,0,0,0.1,0c1.5,0,1.4,0,1.2,1.5
				c-0.2,1-0.2,2-0.4,3.1l-2.3-0.8c0.2-0.4,0.3-0.9,0.3-1.4c0.1-0.5,0.2-1,0.3-1.5c0.1-0.5,0-1-0.7-1c0.1-0.4,0.2-0.8,0.3-1.2
				c0.2-0.4,0-0.7-0.4-0.8L154.3,41.3z"/>
			<path id="_Path_25" class="st1" d="M87.5,38.5L86.1,31l0.9,0.2c0,1.1,0.3,2.1,0.7,3.1c0.5,0.9,1.2,1.8,2,2.4c0,0,0,0.1,0.1,0.1
				l0,0c-0.1,0.4,0.5,0.9,0.1,1.2c-0.4,0.2-0.8,0.3-1.3,0.4C88.2,38.5,87.9,38.5,87.5,38.5z"/>
			<path id="_Path_26" class="st1" d="M120,28.3c-0.1,0.5-0.2,1-0.4,1.5c-0.8,3.6,1.5,7.1,5,7.9c0.5,0.1,1,0.2,1.5,0.2
				c-1.8,0.4-3.6,0-5.1-1c-0.2-0.1-0.5-0.3-0.7-0.5c-0.6-1.3-1.2-2.6-1.8-3.9C118.3,30.9,118.9,29.3,120,28.3z"/>
			<path id="_Path_27" class="st1" d="M161.5,42.4l-2.4,5.5l-1-0.8v-0.4c0.3-0.9,0.6-1.9,1-2.8c0.6,0.1,0.9-0.1,0.9-0.8
				c0-0.2,0.1-0.4,0.1-0.6C160.6,42.5,161,42.4,161.5,42.4z"/>
			<path id="_Path_28" class="st1" d="M147.6,43.7c0.3-0.1,0.2-0.4,0.2-0.6c0-0.4-0.1-0.8-0.1-1.2c0.8-0.8,2-1.2,3.1-1
				c-0.5,0.1-1,0.5-1.4,0.9c-0.6,0.9-0.4,2,0.4,2.7c0.1,0,0.1,0.1,0.2,0.1c0.4,0.3,0.9,0.4,1.3,0.7c0.2,0.1,0.5,0.2,0.4,0.5
				c-0.1,0.3-0.4,0.3-0.6,0.3c-0.3,0-0.7-0.1-0.9-0.3c0.1-0.6-0.4-0.6-0.7-0.7C148.7,44.9,148,44.4,147.6,43.7z"/>
			<path id="_Path_29" class="st1" d="M93.8,37.9c0.4-0.1,0.8-0.2,1.3-0.3c1.1-0.3,2-1,2.7-1.9c0.4-0.5,0.9-0.9,1.6-1
				c0.6-0.1,1.1-0.3,1.7-0.5c-0.2,0.6-0.5,1.2-1,1.6C98.4,37.3,96.1,38.1,93.8,37.9z"/>
			<path id="_Path_30" class="st3" d="M141,49c0.1-0.9,0.1-1.8,0.2-2.7c0-0.4,0.1-0.6,0.6-0.6c1,0,1,0,1.2,0.9
				c0.1,0.5,0.2,0.9,0.3,1.4c0.1,1,0.1,1-1,1C141.8,49,141.4,49,141,49z"/>
			<path id="_Path_31" class="st1" d="M82.7,26.3c-1.3,1.5-1.2,2.5,0.3,3.8l-0.2,1.2l-0.1,0.2L81,31.2c0.2-1.8,0.3-3.6,0.4-5.5
				C81.9,25.9,82.3,26,82.7,26.3z"/>
			<path id="_Path_32" class="st1" d="M84.7,30.4c1.9-0.8,2.3-2.1,1.2-3.9c0,0,0-0.1,0-0.2c0.9,0.1,1.8,0.4,2.6,0.9
				c-0.7,0.9-1.2,2-1.4,3.2L84.7,30.4z"/>
			<path id="_Path_33" class="st1" d="M111.2,42.3c0.7-0.2,1.4-0.3,2.2-0.3c0.4,0,0.6-0.1,0.6-0.5c0,0,0-0.1,0-0.1
				c0.2-0.6,0.1-1.4,0.5-1.7c0.7-0.3,1.5-0.4,2.2-0.4c0.4-0.1,0.4,0.2,0.4,0.4c-0.6,0.2-1.2,0.3-1.8,0.5c-0.3,0.1-0.5,0.2-0.5,0.6
				v0.1c0,1.6,0,1.6-1.6,1.6C112.5,42.4,111.9,42.4,111.2,42.3z"/>
			<path id="_Path_34" class="st1" d="M124,29.9c0.2-1,1.3-1.7,2.3-1.4c0.1,0,0.2,0.1,0.4,0.1c0.3,0.1,0.5,0.3,0.8,0.5
				c-0.1,0.2-0.3,0.4-0.4,0.6c-0.1,0.2-0.4,0.7-0.7,0.8c-0.3,0.1-0.5-0.3-0.8-0.5C125,29.7,124.5,29.7,124,29.9z"/>
			<path id="_Path_35" class="st1" d="M110,39.2l0.7,0.4c0,0.2,0,0.4-0.1,0.5H107c-0.6,0-1.3-0.2-1.9-0.4c1.4-0.2,2.8-0.4,4.2-0.4
				C109.6,39.3,109.8,39.3,110,39.2z"/>
			<path id="_Path_36" class="st3" d="M141.3,43.2c0.9-0.1,1.4,0.2,1.5,0.9c0,0.7-0.5,1-1.2,1.2l-0.4-0.2c-0.6-0.8-0.6-1,0-1.8
				L141.3,43.2z"/>
			<path id="_Path_37" class="st1" d="M162.8,34.2c-1.1,0.8-2.4,1.4-3.6,2.1c-0.2,0.1-0.4,0.1-0.4-0.2c0-0.3,0-0.6,0-0.8
				C160.1,34.7,161.4,34.4,162.8,34.2z"/>
			<path id="_Path_38" class="st1" d="M128.2,32.4c-0.2,1.1-1.3,1.8-2.4,1.6c-0.2,0-0.4-0.1-0.6-0.3c0.2-0.4,0.6-0.7,1-0.8
				C126.9,32.8,127.5,32.5,128.2,32.4z"/>
			<path id="_Path_39" class="st1" d="M147.9,47.2c-0.2-0.3,0-0.6-0.3-0.8c0-0.9,0.4-1.1,1.2-1c0.2,0,0.3,0,0.5,0
				c-0.2,0.7-0.3,1.5-0.5,2.2L147.9,47.2z"/>
			<path id="_Path_40" class="st1" d="M100.9,32.4l2.5-0.5c1-0.2,1-0.2,0.9,0.8c-0.7,0.1-1.4,0.1-2.1-0.1
				C101.8,32.6,101.3,32.5,100.9,32.4z"/>
			<path id="_Path_41" class="st1" d="M161.1,47.9c0.1-0.3,0-0.8,0.5-0.8c0.5,0,1,0.1,1.1,0.8c0,0.4,0.2,0.9,0.2,1.3L161.1,47.9z"/>
			<path id="_Path_42" class="st1" d="M141.2,43.3c-0.6,0.8-0.6,1,0,1.8l-0.7-0.1c-1-0.1-1.1-0.4-0.9-1.3c0.2-0.2,0.6,0,0.8-0.3
				L141.2,43.3z"/>
			<path id="_Path_43" class="st1" d="M141.4,29.7c-0.1-0.4-0.1-0.6,0.4-0.6c0.8,0,1.5-0.1,2.3-0.1
				C143.2,29.3,142.3,29.5,141.4,29.7z"/>
			<path id="_Path_44" class="st1" d="M160.5,30.5c-0.6,0.2-1.2,0.4-1.8,0.6c-0.4,0.1-0.4-0.1-0.4-0.4
				C159,30.6,159.7,30.5,160.5,30.5z"/>
			<path id="_Path_45" class="st4" d="M97.2,26.4c-0.2,0.1-0.2,0-0.3-0.1C97.1,26.2,97.2,26.3,97.2,26.4z"/>
			<path id="_Path_46" class="st5" d="M120.1,28c0,0.1,0,0.2-0.2,0.3C119.9,28.1,120,28.1,120.1,28z"/>
			<path id="_Path_47" class="st6" d="M85.8,26.3c-0.1,0-0.3,0-0.3-0.1C85.6,26.2,85.7,26.1,85.8,26.3z"/>
			<path id="_Path_48" class="st5" d="M120.3,27.8l-0.2,0.2L120.3,27.8z"/>
			<path id="_Path_49" class="st4" d="M97,26.3l-0.2-0.1C96.9,26.1,97,26.1,97,26.3z"/>
			<path id="_Path_50" class="st2" d="M84.7,30.4l2.3,0c0,0.3,0,0.5-0.1,0.8L86,31l-3.3,0.3l0.2-1.2C83.5,30.3,84.1,30.4,84.7,30.4z
				"/>
			<path id="_Path_51" class="st2" d="M89.7,36.8c-0.1,0-0.1,0-0.1-0.1L89.7,36.8z"/>
			<path id="_Path_52" class="st2" d="M111.1,38.7c-0.3-1.3-0.6-2.6-0.9-3.8c-0.1-0.8-0.3-1.6-0.6-2.4c-0.1-0.3,0-0.3,0.3-0.4
				c1.2-0.1,2.3-0.2,3.4-0.3C112.7,34.1,112,36.4,111.1,38.7z"/>
			<path id="_Path_53" class="st1" d="M115.6,37.9c-1,0.2-1,0.2-0.8-0.7c0.1-0.7,0.2-1.4,0.4-2.1c0.1-0.4,0.1-0.9,0.2-1.3
				c0.3,0.2,0.2,0.5,0.3,0.8L115.6,37.9z"/>
			<path id="_Path_54" class="st2" d="M115.6,37.9l0.1-3.3c0.3,0.8,0.5,1.7,0.8,2.5c0.2,0.6,0,0.9-0.6,0.8L115.6,37.9z"/>
			<path id="_Path_55" class="st1" d="M146.2,33.3c0.6-1.1,1.9-1.5,3-1c0.3,0.2,0.6,0.4,0.8,0.7c0.8,1,0.7,2.5-0.2,3.4
				c-0.8,0.8-2,1-2.9,0.2C147.2,35.5,147,34.3,146.2,33.3z"/>
			<path id="_Path_56" class="st2" d="M146.2,33.3c0.8,1,1,2.3,0.7,3.5C145.7,36,145.4,34.4,146.2,33.3
				C146.2,33.3,146.2,33.3,146.2,33.3z"/>
			<path id="_Path_57" class="st2" d="M149.2,45.4c-0.2,0-0.3,0-0.5,0c-0.8-0.1-1.2,0.1-1.2,1l0,0l-1.9-0.1
				c-0.1-0.5,0.1-0.6,0.6-0.6c0.2,0,0.6,0.2,0.7-0.1c0.1-0.4,0.1-0.8,0-1.2c-0.1-0.3-0.4,0-0.6-0.1c-0.2,0-0.6,0.2-0.6-0.2
				s0.3-0.3,0.6-0.3c0.4,0,0.8,0,1.3,0c0.4,0.7,1.1,1.2,1.9,1.4c0.3,0.1,0.8,0.2,0.7,0.7L149.2,45.4z"/>
			<path id="_Path_58" class="st2" d="M153.3,43.3c0.7,0,0.8,0.4,0.7,1c-0.2,0.6-0.2,1-0.3,1.5c-0.3-1.1-1.3-1.5-2.1-2l1.4,0
				C153.3,43.8,153.2,43.4,153.3,43.3z"/>
			<path id="_Path_59" class="st1" d="M153,43.8h-1.4c-0.3-0.1-0.9-0.2-0.7-0.7c0.2-0.4,0.7-0.2,1-0.1
				C152.3,43.2,152.7,43.4,153,43.8z"/>
			<path id="_Path_60" class="st1" d="M145.7,46.2l1.9,0.1c-0.4,0.2-0.9,0.3-1.3,0.5C145.6,47.1,145.5,46.8,145.7,46.2z"/>
			<path id="_Path_61" class="st2" d="M159.1,43.9c-0.3,1-0.7,1.9-1,2.8c0-0.7,0-1.4,0-2.1C158.2,43.7,158.2,43.7,159.1,43.9z"/>
			<path id="_Path_62" class="st1" d="M162.3,44.6c0.1,0.4,0.2,0.8,0.2,1.2c0,0.1,0.1,0.3,0,0.4c-0.2,0.1-0.5,0-0.7-0.1
				c-0.2-0.1-0.1-0.2-0.1-0.3c0.1-0.4,0.3-0.8,0.4-1.1H162.3z"/>
		</g>
	</g>
</g>
</svg>
