<?xml version="1.0" encoding="utf-8"?>
<!-- Generator: Adobe Illustrator 22.1.0, SVG Export Plug-In . SVG Version: 6.00 Build 0)  -->
<svg version="1.1" id="Layer_1" xmlns="http://www.w3.org/2000/svg" xmlns:xlink="http://www.w3.org/1999/xlink" x="0px" y="0px"
	 viewBox="0 0 233 73" style="enable-background:new 0 0 233 73;" xml:space="preserve">
<style type="text/css">
	.st0{fill:#E5E5E5;}
	.st1{fill:#3D3D3D;}
	.st2{fill:#FFFFFF;}
</style>
<title>Asset 36</title>
<g id="Layer_2_1_">
	<g id="Layer_1-2">
		<g id="_Group_">
			<path id="_Compound_Path_" class="st0" d="M116.5,51.3h41.1c1.3,0,2.7-0.1,4-0.3c8.1-1.4,13.5-9.1,12.1-17.1
				c-1.2-7.3-7.6-12.5-15-12.3H74.3c-8.1-0.2-14.9,6.2-15.1,14.4c0,1,0.1,2,0.2,3c1.1,7.1,7.2,12.3,14.4,12.3
				C88,51.4,102.2,51.3,116.5,51.3z"/>
			<path id="_Compound_Path_2" class="st1" d="M116.5,51.3c-14.2,0-28.5,0.1-42.7,0c-7.2,0-13.3-5.2-14.4-12.3
				c-1.4-8,3.9-15.7,11.9-17.1c1-0.2,2-0.3,3-0.2h84.4c8.2-0.2,15,6.2,15.2,14.4c0.2,7.4-5,13.7-12.3,15c-1.3,0.2-2.7,0.3-4,0.3
				H116.5z M116.6,22.7c-14.1,0-28.3,0-42.4,0c-7.6-0.3-14,5.6-14.3,13.2c-0.3,7.6,5.6,14,13.2,14.3c0.2,0,0.4,0,0.6,0
				c28.5,0,57,0,85.6,0c7.6-0.3,13.5-6.7,13.3-14.3c-0.3-7.4-6.3-13.2-13.6-13.3C144.8,22.6,130.7,22.6,116.6,22.7z"/>
			<path id="_Compound_Path_3" class="st2" d="M116.6,22.7c14.1,0,28.2,0,42.3,0c7.6,0.1,13.7,6.3,13.6,13.9
				c-0.1,7.4-5.9,13.4-13.3,13.6c-28.5,0-57,0-85.6,0c-7.6,0-13.8-6.1-13.8-13.7S66,22.7,73.6,22.7c0.2,0,0.4,0,0.6,0
				C88.3,22.6,102.4,22.6,116.6,22.7z M116.5,49.1H159c7-0.1,12.6-5.8,12.5-12.8s-5.8-12.6-12.8-12.5H74.2
				c-7-0.1-12.8,5.5-12.9,12.5c-0.1,7,5.5,12.8,12.5,12.9H116.5z"/>
			<path id="_Compound_Path_4" class="st1" d="M116.5,49.1H73.8c-7-0.1-12.6-5.9-12.5-12.9s5.9-12.6,12.9-12.5c0,0,0,0,0,0h84.6
				c7-0.1,12.8,5.5,12.8,12.5S166,49,159,49.1H116.5z M111.2,33.6c-0.2-0.2-0.4-0.2-0.6,0c-0.5-0.4-0.9-0.8-0.3-1.4
				c0.2,0,0.3-0.2,0.5-0.1s0.5-0.1,0.7,0.1c0.4,0.3,0.5,0,0.5-0.4c0.5,0.3,0.7-0.1,0.9-0.4c0.3-0.7,0.2-1.4-0.1-2.1
				c0-0.2-0.2-0.3-0.4-0.2c-0.2,0.1-0.4,0.2-0.6,0.3c-0.9,0.3-1.1,0.1-1-0.8c0.1-1.2-0.3-2.5-1-3.5c0,1.1-0.5,2.2-1.2,3.1
				c-1.4,1.9-1,3.8,1.2,4.5c0.1,0.4,0,0.8-0.4,1.1c-0.4,0.4-0.8,0.9-1,1.4c-0.6,0.9-0.8,2.1-0.6,3.2c0.1-0.4,0.5-0.7,0.4-1.2
				c-0.1-0.4,0.2-0.9,0.6-1c0.4-0.1,0.6,0.3,0.9,0.5c0.1,0.1,0,0.3,0.3,0.3c-0.1-0.7-0.5-1.4-1.1-1.8c0-0.9,0.7-1.2,1.2-1.7
				c0.1,0.4,0.4,0.8,0.8,1l0.2,0.1c0.1,0.2,0.2,0.4,0.5,0.4c0.1,0,0.2-0.1,0.2-0.2c0-0.3-0.3-0.3-0.5-0.4c0,0,0,0-0.1,0
				c-0.1-0.2-0.1-0.2,0.3-0.2c0.1,0.1,0.2,0.2,0.3,0.1c0.1-0.1-0.1-0.2-0.2-0.2l-0.1-0.1v-0.2C111.2,33.8,111.3,33.8,111.2,33.6z
				 M125.1,40.6c-0.2,0.5-0.2,1-0.1,1.5c-0.3,0.5-0.6,1-1.3,0.7c-0.7-0.3-1.5-0.1-2.1,0.4c-0.8,0.1-1.5-0.5-2.3-0.3
				c-0.6,0.2-0.9,0-1.1-0.7c-0.1-0.7-0.6-1.1-1.2-0.9c0.4,0.3,0.6,0.7,0.8,1.1c0.2,0.9,0.8,1,1.5,0.9c0.6-0.1,1.3-0.1,1.9,0.2
				c0,0.5,0.1,0.9,0.8,0.9c-0.9,0.3-1.3,1.5-2.4,1.3c0.1,0.2,0.2,0.2,0.3,0.2c1.1,0.2,1.5-0.8,2.1-1.4c0.2-0.2,0.3-0.3,0.6-0.2
				c0.6,0.2,1.2,0,1.5-0.6c0.1-0.6,0.9-0.6,1.1-1.2c0.3-0.3,0.1-0.7,0.1-1.1c0.3-0.5,0.3-1,0-1.5c-0.5-0.5-0.8-1.1-0.9-1.8
				c0-0.2,0-0.5-0.1-0.7c-0.3-0.7-0.3-1.6,0-2.3c0-0.2,0.4-0.4,0-0.5s-0.5,0.1-0.5,0.5s-0.2,0.8-0.9,0.7c-0.6-0.1-1.3-0.1-1.9,0
				c0.6,0.2,1.2,0.3,1.8,0.3c0.4,0.1,1-0.1,0.9,0.7s-0.6,0.5-1,0.5c-0.4,0-0.8-0.2-1.2,0.2c0.7,0.2,1.3,0.3,2,0.2
				c0.6,0.1,0.8,0.3,0.6,0.8c-0.7-0.1-1.3,0-2,0.1l1.7,0.2c0.2,0,0.3,0,0.5,0.2c0,0.5-0.3,0.2-0.5,0.2c-0.8-0.1-1.6-0.1-2.3,0.2
				c1.3,0.3,2.8-0.4,3.7,0.8L125.1,40.6z M126.8,32.6c-0.2-0.8,0.4-1.3,0.8-1.9c0.1-0.2,0.2-0.5,0.2-0.7c0-0.7-0.1-1.3-0.3-1.9
				c-0.4-1.3-1.3-2.4-2.3-3.2c0,0.5,0.1,1.1,0.3,1.5c0.4,0.7,0.7,1.5,0.9,2.3c0.1,0.6-0.2,0.9-0.8,1s-0.9,0-1.4,0
				c0.5,0.7,1.2,0.5,1.9,0.4s0.7-0.6,0.8-1.2c0-0.7-0.2-1.5-0.6-2.1c0.8,0.9,1.3,2,1.4,3.2c-0.1,0.3-0.4,0-0.4,0.3
				c0,0.6-0.1,0.7-0.7,0.5c-0.1,0-0.1-0.1-0.2,0c-0.4,0.6-1.1,0.3-1.6,0.3s-0.6,0.3-0.7,0.5c-0.1,0.4,0.3,0.4,0.6,0.4
				c0.4,0,0.7,0,1.1-0.1c0.6-0.2,1,0,1.1,0.6c-0.2,0.3-0.7,0.3-0.6,0.8c-0.5,0-0.3,0.9-1.1,0.7c0.5,0.4,0.8,0.1,1.1-0.2
				C126.2,33.5,126.5,33.1,126.8,32.6L126.8,32.6z M98.2,32.6c-1.6,0-3.1,0-4.7,0c-0.4,0-0.6,0.1-0.6,0.5c0,2.7,0,5.3,0,8
				c0,0.3,0.1,0.5,0.5,0.5c1,0,1.9,0,2.9,0c0.3,0,0.4-0.1,0.4-0.4c0-0.6,0-1.1,0-1.7c0-0.6,0.1-0.8,0.7-0.7c0.6,0,1.1,0,1.7,0
				c2.2,0,2.2,0,2.3,2.2v0.1c0,0.3,0.1,0.5,0.5,0.5c0.9,0,1.9,0,2.8,0c0.2,0,0.4,0,0.4-0.3c0-1.3,0.2-2.6-0.8-3.7
				c-0.2-0.2-0.4-0.3,0-0.6c1-0.7,1.3-2,0.9-3.1c-0.5-1-1.5-1.5-2.6-1.4C101.1,32.6,99.6,32.6,98.2,32.6z M134,32.6h-4.7
				c-0.3,0-0.6,0-0.6,0.5c0,2.7,0,5.4,0,8.1c0,0.3,0.1,0.4,0.4,0.4c1,0,1.9,0,2.9,0c0.4,0,0.5-0.1,0.5-0.5c0-0.8-0.3-1.9,0.2-2.2
				c0.5-0.4,1.6-0.1,2.4-0.1c2,0,2.1,0.1,2.1,2.1c0,0.1,0,0.2,0,0.3c0,0.3,0.1,0.4,0.4,0.4c1,0,1.9,0,2.9,0c0.2,0,0.4,0,0.4-0.3
				c0-1.3,0.2-2.7-0.9-3.7c-0.2-0.2-0.2-0.3,0-0.5c1-0.7,1.4-2,0.9-3.1c-0.4-1.3-1.6-1.4-2.7-1.4C136.8,32.6,135.4,32.6,134,32.6
				L134,32.6z M85.5,32c-1.9-0.1-3.8,0.5-5.4,1.7c-1.7,1.3-2,3.7-0.7,5.4c0.1,0.2,0.3,0.3,0.5,0.5c2.7,2.7,8.4,2.6,11-0.1
				c1.5-1.4,1.6-3.8,0.1-5.3c0,0-0.1-0.1-0.1-0.1C89.5,32.6,87.5,31.9,85.5,32L85.5,32z M148.5,41.6h4.4c1.4,0,1.4,0,1.4-1.5
				c0-0.6-0.2-0.7-0.7-0.7c-2.2,0-4.4,0-6.6,0c-0.6,0-0.6-0.3-0.6-0.7c0-0.5-0.1-0.8,0.6-0.8c1.5,0.1,3,0,4.6,0c1.3,0,1.3,0,1.3-1.3
				c0-0.6-0.2-0.7-0.7-0.7c-1.7,0-3.4,0-5.1,0c-0.5,0-0.7-0.1-0.7-0.6s0.2-0.6,0.6-0.5h5.7c1.7,0,1.6,0,1.6-1.7
				c0-0.4-0.1-0.6-0.6-0.6c-3.5,0-7.1,0-10.7,0c-0.4,0-0.6,0.1-0.6,0.6c0,2.7,0,5.3,0,7.9c0,0.5,0.2,0.5,0.6,0.5
				C145,41.6,146.8,41.6,148.5,41.6L148.5,41.6z M72.6,32.6h-4.2c-1.8,0-1.7,0-1.7,1.7c0,0.5,0.1,0.7,0.6,0.7c0.9,0,1.8,0,2.7,0
				c0.5,0,0.7,0.1,0.7,0.7c0,1.8,0,3.5,0,5.3c0,0.5,0.2,0.7,0.7,0.7c0.9,0,1.7,0,2.6,0c0.5,0,0.6-0.2,0.6-0.6c0-1.3,0-2.5,0-3.8
				c0-0.7-0.3-1.7,0.2-2.1c0.5-0.4,1.4-0.1,2.1-0.1c1.7,0,1.7,0,1.7-1.8c0-0.6-0.2-0.7-0.7-0.7C76,32.6,74.3,32.6,72.6,32.6
				L72.6,32.6z M155.8,32.6l0.9,1.3c0.9,1,1.6,2.1,2.3,3.2c0.6,1.2,0.1,2.6,0.2,4c0,0.5,0.2,0.5,0.6,0.5c0.8,0,1.6,0,2.4,0
				c0.4,0,0.5-0.2,0.5-0.6c0-1.3-0.4-2.7,0.2-3.8c0.6-1.2,1.4-2.3,2.2-3.3c0-0.1,0.1-0.1,0.1-0.2c0.3-0.4,0.6-0.8,0.8-1.3
				c-1,0-1.9,0-2.8,0c-0.3,0-0.7,0.1-0.8,0.4c-0.5,0.8-1,1.5-1.5,2.3l-1.5-2.3c-0.1-0.3-0.4-0.4-0.6-0.4
				C157.9,32.6,157,32.6,155.8,32.6L155.8,32.6z M112.5,28.8c0.3,0.1,0.5,0.2,0.8,0.1c1.8-0.5,3.6-0.5,5.4,0c0.3,0.1,0.7,0.1,1-0.1
				c0.4-0.3,1-0.2,1.3,0.3c0,0.1,0,0.2,0.2,0.1c0.6-0.3,0.8,0.2,1,0.6c0.2,0.3,0.1,0.5,0.5,0.5c0.4-0.4-0.8-0.9,0.3-1.1
				c-1-0.7-2.3-1-3.5-0.9c-0.8,0.1-1.7,0.1-2.5,0c-0.6-0.1-1.2-0.2-1.8-0.3C114.2,27.9,113.2,28.2,112.5,28.8z M112.8,44.5
				c-0.1-0.5,0.6-1.5-0.7-1.5c-0.5-0.7-1.3-1.1-1.7-1.8c-0.1-0.2-0.3-0.4-0.5-0.6c-0.1-0.2-0.4-0.2-0.4,0c-0.1,0.9-0.6,0.8-1.1,0.3
				c0.2,1.1,1.2,1.5,1.8,2.2c0-0.5,0-1-0.2-1.5C111.1,42.4,112,43.3,112.8,44.5z M115.3,35.5c0.4-0.2,0.6-0.5,1-0.4
				c0.1,0,0.4,0,0.2,0.3c-0.1,0.3,0.1,0.7,0.3,0.5s0.8-0.2,1.2-0.1C117.2,34.6,115.7,34.5,115.3,35.5L115.3,35.5z M119,45.6
				c-0.3,0-0.6,0.2-0.8,0.4c-0.4,0.6-1.1,0.9-1.7,0.8c-0.6,0-1.1,0.4-1.3,0.9c0.4-0.3,0.9-0.5,1.3-0.6
				C117.5,47.1,118.5,46.5,119,45.6z M121.2,42.6c0.7,0.2,1.5-0.2,1.7-0.9c0.2-0.7,0.2-0.7-0.3-0.9c0.1,0.7,0,1.2-0.8,1.3
				C121.6,42.1,121.5,42.4,121.2,42.6z M122.2,40c-0.4,0.1-0.9,0-1.2-0.3c-0.2-0.1-0.4-0.2-0.5,0c-0.1,0.2,0.1,0.4,0.2,0.5
				C121.2,40.5,121.8,40.4,122.2,40L122.2,40z M118.9,34.4c-0.1-0.4-0.3-0.8-0.5-1.2c-0.1-0.1-0.2-0.1-0.3-0.1c0,0,0,0,0,0
				c-0.2,0.1-0.1,0.2,0,0.3C118.3,33.8,118.6,34.1,118.9,34.4L118.9,34.4z M113.2,45.1c-0.4,0.8,0.4,1.1,0.6,1.6
				C113.5,46.2,113.6,45.5,113.2,45.1z M117.2,38.3c0.6,0.2,0.9-0.1,1.2-0.4c0.1-0.1,0.1-0.4,0-0.5c-0.2-0.2-0.3,0.1-0.4,0.2
				C117.6,37.7,117.6,38.2,117.2,38.3L117.2,38.3z M120.9,40.6c-0.2,0.5,0.1,0.8,0.4,1c0.2,0.1,0.3,0.1,0.4-0.1
				c0.1-0.1,0-0.3-0.1-0.3c0,0-0.1,0-0.1,0C121.2,41.2,121,41,120.9,40.6z M112.2,37.3c0.2,0,0.4,0,0.3-0.2
				c-0.1-0.3-0.3-0.5-0.7-0.5c-0.1,0-0.3,0.2-0.3,0.3C111.7,37.2,112,37.3,112.2,37.3L112.2,37.3z M120.9,37h-1.8
				C119.6,37.4,120.3,37.4,120.9,37L120.9,37z M121.3,33.7c0.4,0.3,0.9,0.3,1.3,0C122.2,33.6,121.8,33.4,121.3,33.7L121.3,33.7z
				 M119.1,39.7c0.6,0.1,0.7-0.5,1.1-0.7C119.5,38.8,119.4,39.4,119.1,39.7L119.1,39.7z M119.7,33.7c0.4,0.1,0.7,0.7,1.3,0.4
				C120.6,34,120.3,33.6,119.7,33.7L119.7,33.7z M123.7,40.6l0.2,1.1C124.3,41.2,124.5,40.9,123.7,40.6L123.7,40.6z M110.4,44.6
				c0.1-0.4,0.4-0.8-0.1-1.1C110.4,43.8,110.2,44.2,110.4,44.6z M114.2,41.8c-0.3-0.2-0.5-0.4-0.8-0.2c-0.2,0.1-0.1,0.2,0,0.3
				C113.6,42.2,113.8,41.9,114.2,41.8z M123.2,34.8c-0.4-0.3-0.9-0.3-1.3,0H123.2z"/>
			<path id="_Compound_Path_5" class="st2" d="M98.2,32.6c1.5,0,3,0,4.4,0c1.1-0.1,2.1,0.4,2.6,1.4c0.4,1.1,0.1,2.4-0.9,3.1
				c-0.3,0.3-0.2,0.4,0,0.6c1,1.1,0.8,2.4,0.8,3.7c0,0.3-0.3,0.3-0.4,0.3c-0.9,0-1.9,0-2.8,0c-0.4,0-0.5-0.1-0.5-0.5V41
				c-0.1-2.2-0.1-2.2-2.3-2.2c-0.6,0-1.1,0-1.7,0c-0.6-0.1-0.7,0.2-0.7,0.7c0,0.5,0,1.1,0,1.7c0,0.3-0.1,0.5-0.4,0.4
				c-1,0-1.9,0-2.9,0c-0.4,0-0.5-0.2-0.5-0.5c0-2.7,0-5.3,0-8c0-0.4,0.2-0.5,0.6-0.5C95,32.6,96.6,32.6,98.2,32.6z M98.7,36.5
				L98.7,36.5c0.6,0,1.1,0,1.7,0s0.8-0.2,0.8-0.7c0-0.5-0.3-0.7-0.8-0.7h-3.3c-0.3,0-0.4,0.1-0.4,0.4c-0.1,1-0.1,1,0.9,1L98.7,36.5z
				"/>
			<path id="_Compound_Path_6" class="st2" d="M134,32.6c1.4,0,2.9,0,4.3,0c1.1,0,2.3,0.2,2.7,1.4c0.5,1.1,0.1,2.4-0.9,3.1
				c-0.2,0.2-0.2,0.3,0,0.5c1.1,1,0.9,2.4,0.9,3.7c0,0.3-0.2,0.3-0.4,0.3c-1,0-1.9,0-2.9,0c-0.3,0-0.4-0.1-0.4-0.4
				c0-0.1,0-0.2,0-0.3c0-2-0.1-2.1-2.1-2.1c-0.8,0-1.8-0.3-2.4,0.1c-0.5,0.4-0.1,1.5-0.2,2.2c0,0.4-0.1,0.5-0.5,0.5
				c-0.9,0-1.9,0-2.9,0c-0.3,0-0.4-0.1-0.4-0.4c0-2.7,0-5.4,0-8.2c0-0.5,0.3-0.5,0.6-0.5L134,32.6z M134.5,36.4c0.5,0,1.1,0,1.6,0
				s0.9-0.1,0.9-0.7s-0.4-0.7-0.9-0.7c-1,0-2,0-3,0c-0.5,0-0.6,0.2-0.6,0.6c0,0.6,0.1,1,0.8,0.8C133.7,36.4,134.1,36.4,134.5,36.4
				L134.5,36.4z"/>
			<path id="_Compound_Path_7" class="st2" d="M85.5,32c2-0.1,4,0.7,5.5,2.1c1.5,1.4,1.6,3.8,0.1,5.3c0,0-0.1,0.1-0.1,0.1
				c-2.7,2.8-8.3,2.8-11,0.1c-1.6-1.4-1.8-3.8-0.4-5.4c0.2-0.2,0.3-0.4,0.5-0.5C81.7,32.5,83.6,31.9,85.5,32z M85.5,38.7
				c0.8,0,1.7-0.2,2.4-0.7c0.7-0.4,0.9-1.2,0.5-1.9c-0.1-0.2-0.2-0.3-0.4-0.4c-1.5-1.1-3.5-1.1-5,0c-0.6,0.5-0.7,1.3-0.3,1.9
				c0.1,0.1,0.2,0.2,0.3,0.3C83.6,38.5,84.6,38.8,85.5,38.7z"/>
			<path id="_Path_" class="st2" d="M148.5,41.6c-1.8,0-3.6,0-5.3,0c-0.4,0-0.6-0.1-0.6-0.5c0-2.7,0-5.3,0-7.9
				c0-0.4,0.1-0.6,0.6-0.6c3.6,0,7.1,0,10.7,0c0.4,0,0.5,0.2,0.6,0.6c0,1.7,0,1.7-1.6,1.7h-5.7c-0.4,0-0.6,0-0.6,0.5
				c0,0.6,0.2,0.6,0.7,0.6c1.7,0,3.4,0,5.1,0c0.6,0,0.8,0.1,0.7,0.7c0,1.3,0,1.3-1.3,1.3c-1.5,0-3,0-4.6,0c-0.7,0-0.6,0.4-0.6,0.8
				c0,0.4,0,0.8,0.6,0.7c2.2,0,4.4,0,6.6,0c0.5,0,0.8,0.1,0.7,0.7c0,1.5,0,1.5-1.4,1.5L148.5,41.6z"/>
			<path id="_Path_2" class="st2" d="M72.6,32.6c1.7,0,3.4,0,5.1,0c0.5,0,0.7,0.1,0.7,0.7c0,1.8,0,1.7-1.7,1.8
				c-0.7,0-1.7-0.2-2.1,0.1c-0.4,0.4-0.1,1.4-0.2,2.1c0,1.3,0,2.5,0,3.8c0,0.5-0.1,0.6-0.6,0.6c-0.9,0-1.7,0-2.6,0
				c-0.5,0-0.7-0.1-0.7-0.7c0-1.8,0-3.5,0-5.3c0-0.5-0.2-0.7-0.7-0.7c-0.9,0-1.8,0-2.7,0c-0.5,0-0.6-0.2-0.6-0.7
				c0-1.7,0-1.7,1.7-1.7L72.6,32.6z"/>
			<path id="_Path_3" class="st2" d="M155.9,32.6c1.1,0,2.1,0,3,0c0.3,0,0.5,0.2,0.7,0.4l1.5,2.3c0.5-0.8,1-1.5,1.5-2.3
				c0.1-0.3,0.5-0.5,0.8-0.4c0.9,0,1.8,0,2.8,0c-0.2,0.5-0.5,0.9-0.8,1.3c0,0.1-0.1,0.1-0.1,0.2c-0.8,1-1.6,2-2.2,3.2
				c-0.5,1.2-0.1,2.5-0.2,3.8c0,0.4-0.1,0.6-0.5,0.6c-0.8,0-1.6,0-2.4,0c-0.4,0-0.6-0.1-0.6-0.5c-0.1-1.3,0.4-2.8-0.2-4
				c-0.7-1.1-1.4-2.2-2.3-3.2L155.9,32.6z"/>
			<path id="_Compound_Path_8" class="st2" d="M112,31.9c0,0.3-0.1,0.6-0.5,0.4c-0.3-0.2-0.5,0.1-0.7-0.1c-0.2-0.4-0.5-0.1-0.8-0.1
				s-0.6-0.1-0.3-0.5c0.1-0.1,0.4-0.1,0.3-0.3c-0.2-0.2-0.3,0-0.5,0.2s-0.6,0.3-0.6,0.7c-0.7-0.4-1-1.3-0.7-2.1
				c0.3-1.1,1.1-1.9,1.6-3c0.2,0.9-0.3,1.4-0.7,2.1c1.1-0.1,0.6-1.2,1.2-1.5c0,0.5,0,0.9,0,1.4c0,0.3-0.4,0.7,0,0.9
				c0.3,0.1,0.7,0.1,1,0c0.3-0.1,0.5-0.2,0.8-0.2s0.4,0,0.4,0.3c0.1,0.7,0.4,1.4-0.5,1.8C112,31.6,112,31.8,112,31.9z M109.2,29.2
				l-0.1-0.1c-0.1,0.1-0.1,0.1-0.2,0.2c0,0.1,0,0.1,0.1,0.1C109.1,29.3,109.2,29.2,109.2,29.2z"/>
			<path id="_Path_4" class="st2" d="M126.6,32.6c-0.1-0.6-0.4-0.9-1.1-0.6c-0.3,0.1-0.7,0.1-1.1,0.1c-0.2,0-0.7,0.1-0.6-0.4
				c0-0.2,0.1-0.6,0.7-0.5s1.2,0.3,1.6-0.3c0.1-0.1,0.1,0,0.2,0c0.5,0.2,0.7,0.1,0.7-0.5c0-0.3,0.3-0.1,0.4-0.3
				c-0.1-1.2-0.6-2.3-1.4-3.2c0.4,0.6,0.6,1.4,0.6,2.1c0,0.5-0.1,1-0.8,1.2s-1.3,0.3-1.9-0.4c0.5,0,1,0,1.4,0s0.8-0.4,0.8-1
				c-0.2-0.8-0.5-1.5-0.9-2.3c-0.3-0.5-0.4-1-0.3-1.5c1.1,0.8,1.9,1.9,2.3,3.2c0.3,0.6,0.4,1.3,0.3,1.9c0,0.3,0,0.5-0.2,0.7
				c-0.4,0.6-1,1-0.8,1.8L126.6,32.6z"/>
			<path id="_Path_5" class="st2" d="M112.6,29.8c0-0.2-0.2-0.4-0.4-0.3c-0.3,0.1-0.5,0.2-0.8,0.2c-0.3,0.1-0.7,0.1-1,0
				c-0.4-0.2,0-0.6,0-0.9c0-0.5,0-0.9,0-1.4c-0.7,0.4-0.2,1.4-1.2,1.5c0.3-0.7,0.9-1.2,0.7-2.1c-0.5,1.1-1.3,1.9-1.6,3
				c-0.3,0.8,0,1.7,0.7,2.1l0,0c0.3,0.3,0.5,0.7,0.9,0.2c0.2,0,0.4,0,0.5,0.1c-0.6,0.6-0.2,1,0.3,1.4c-0.1,0.5,0.3,0.4,0.6,0.4
				l0.1,0.2v0.2c-0.4,0-0.4,0-0.3,0.2l-0.3,0.1c-0.4-0.2-0.7-0.6-0.8-1c-0.2-0.3,0-0.7-0.3-0.9c-2.1-0.7-2.6-2.6-1.2-4.5
				c0.7-0.8,1.2-1.9,1.2-3c0.7,1,1.1,2.2,1,3.5c0,0.9,0.1,1.1,1,0.8c0.2-0.1,0.4-0.2,0.6-0.3s0.3,0,0.4,0.2
				C112.8,29.7,112.8,29.7,112.6,29.8z"/>
			<path id="_Path_6" class="st2" d="M112.5,28.8c0.7-0.6,1.7-0.9,2.7-0.8c0.6,0,1.3,0.1,1.9,0.2c0.8,0.1,1.7,0.1,2.5,0
				c1.3-0.1,2.5,0.2,3.5,0.9c-1.1,0.2,0,0.8-0.3,1.1c-0.3,0-0.3-0.3-0.5-0.5s-0.3-0.9-1-0.6c-0.2,0.1-0.1-0.1-0.2-0.1
				c-0.3-0.4-0.9-0.5-1.3-0.3c-0.3,0.1-0.7,0.2-1,0.1c-1.8-0.5-3.6-0.5-5.4,0C113.1,29,112.8,28.9,112.5,28.8z"/>
			<path id="_Path_7" class="st2" d="M112.8,44.5c-0.7-1.1-1.7-2.1-2.8-2.8c0.2,0.5,0.2,1,0.2,1.5c-0.7-0.8-1.6-1.1-1.8-2.2
				c0.6,0.5,1,0.6,1.1-0.3c0-0.2,0.3-0.1,0.4,0c0.2,0.2,0.3,0.4,0.5,0.6c0.4,0.7,1.2,1.1,1.7,1.8C113.4,42.9,112.6,43.9,112.8,44.5z
				"/>
			<path id="_Path_8" class="st2" d="M124,38.5c0.2-0.5,0-0.8-0.6-0.8c-0.7,0-1.3-0.1-2-0.2c0.4-0.4,0.8-0.2,1.2-0.2
				c0.4,0,0.9,0.3,1-0.5c0.1-0.7-0.5-0.6-0.9-0.7c-0.6,0-1.2-0.1-1.8-0.3c0.6-0.1,1.3-0.1,1.9,0c0.7,0.1,0.8-0.2,0.9-0.7
				c0-0.5,0.2-0.6,0.5-0.5s0,0.4,0,0.5c-0.3,0.7-0.3,1.6,0,2.3c0.1,0.2,0.1,0.4,0.1,0.7c-0.1,0.2,0.1,0.5-0.1,0.8
				c-0.1-0.2-0.3-0.1-0.5-0.2L124,38.5z"/>
			<path id="_Path_9" class="st2" d="M124,43.9c-0.3,0.6-0.9,0.8-1.5,0.6c-0.3-0.1-0.4,0.1-0.6,0.2c-0.6,0.5-1,1.5-2.1,1.4
				c-0.1,0-0.3,0-0.3-0.2c1.1,0.1,1.5-1.1,2.4-1.3c-0.7,0-0.8-0.4-0.8-0.9h0.1l0.7,0c-0.1,0.1-0.2,0.2,0,0.2c0.6,0.5,1.5,0.4,2-0.1
				L124,43.9z"/>
			<path id="_Path_10" class="st2" d="M108.8,35.3c0.6,0.4,1,1.1,1.1,1.8c-0.3,0-0.2-0.2-0.3-0.3c-0.2-0.3-0.5-0.7-0.9-0.5
				c-0.4,0.1-0.7,0.6-0.6,1c0.1,0.5-0.3,0.8-0.3,1.2c-0.2-1.1,0-2.2,0.6-3.2c0.2,0.1,0.1,0.4,0.3,0.4
				C108.7,35.6,108.7,35.4,108.8,35.3z"/>
			<path id="_Path_11" class="st2" d="M121.2,43.6c-0.6-0.2-1.2-0.3-1.9-0.2c-0.7,0.1-1.3,0-1.5-0.9c-0.1-0.4-0.4-0.8-0.8-1.1
				c0.6-0.1,1.1,0.2,1.2,0.9c0.1,0.7,0.4,0.8,1.1,0.7c0.8-0.2,1.5,0.4,2.3,0.3L121.2,43.6L121.2,43.6z"/>
			<path id="_Path_12" class="st2" d="M121.2,43.5l0.4-0.2c0.6-0.5,1.4-0.6,2.1-0.4c0.7,0.2,1-0.2,1.3-0.7c0.1,0.1,0.1,0.3,0.1,0.4
				c-0.2,0.6-1,0.6-1.1,1.2l-0.2-0.2c0.1-0.3,0-0.5-0.3-0.4c-0.5,0-1.1,0.1-1.6,0.3L121.2,43.5z"/>
			<path id="_Path_13" class="st2" d="M115.3,35.5c0.4-1,1.8-0.8,2.8,0.3c-0.5,0-0.8-0.2-1.2,0.1s-0.5-0.1-0.3-0.5
				c0.2-0.4-0.1-0.3-0.2-0.3C115.9,34.9,115.7,35.3,115.3,35.5z"/>
			<path id="_Path_14" class="st2" d="M124.2,39c0.2-0.2,0.1-0.5,0.1-0.8c0.1,0.7,0.4,1.3,0.9,1.8l-0.2,0.2c-1-1.2-2.4-0.5-3.7-0.9
				c0.7-0.3,1.5-0.3,2.3-0.2C123.9,39.2,124.2,39.5,124.2,39z"/>
			<path id="_Path_15" class="st2" d="M119,45.6c-0.6,0.9-1.5,1.5-2.6,1.5c-0.5,0.1-0.9,0.4-1.3,0.6c0.3-0.5,0.8-0.9,1.3-0.9
				c0.7,0.1,1.4-0.3,1.7-0.8C118.4,45.8,118.7,45.6,119,45.6z"/>
			<path id="_Path_16" class="st2" d="M121.2,42.6c0.3-0.2,0.4-0.5,0.6-0.5c0.8-0.1,0.9-0.6,0.8-1.3c0.5,0.3,0.5,0.3,0.3,0.9
				C122.7,42.4,121.9,42.8,121.2,42.6z"/>
			<path id="_Path_17" class="st2" d="M126.6,32.6l0.1,0.1c-0.3,0.4-0.5,0.8-0.8,1.2c-0.3,0.4-0.5,0.6-1.1,0.2
				c0.7,0.2,0.6-0.7,1.1-0.7C125.9,32.9,126.4,32.9,126.6,32.6z"/>
			<path id="_Path_18" class="st2" d="M112.6,29.8c0.2-0.1,0.1-0.3,0.1-0.4c0.4,0.6,0.4,1.4,0.1,2.1c-0.2,0.4-0.4,0.7-0.8,0.4
				c0-0.1,0-0.3,0-0.3C113,31.2,112.7,30.5,112.6,29.8z"/>
			<path id="_Path_19" class="st2" d="M108.8,35.3c0,0.1-0.1,0.2-0.1,0.2c-0.3,0-0.1-0.3-0.3-0.4c0.2-0.5,0.6-1,1-1.4
				c0.3-0.2,0.5-0.7,0.4-1.1c0.3,0.3,0.1,0.7,0.3,0.9C109.5,34.1,108.8,34.5,108.8,35.3z"/>
			<path id="_Path_20" class="st2" d="M122.2,40c-0.4,0.4-1,0.5-1.5,0.2c-0.2-0.1-0.4-0.2-0.2-0.5c0.2-0.2,0.3-0.1,0.5,0
				C121.3,40,121.8,40.1,122.2,40z"/>
			<path id="_Path_21" class="st2" d="M118.9,34.3c-0.4-0.2-0.7-0.6-0.9-1c0-0.1-0.1-0.2,0-0.3c0.1-0.1,0.2,0,0.3,0.1c0,0,0,0,0,0
				C118.7,33.5,118.8,33.9,118.9,34.3z"/>
			<path id="_Path_22" class="st2" d="M113.2,45.1c0.5,0.5,0.4,1.1,0.6,1.6C113.5,46.2,112.7,45.9,113.2,45.1z"/>
			<path id="_Path_23" class="st2" d="M117.1,38.3c0.6,0,0.5-0.5,0.9-0.7c0.1-0.1,0.2-0.4,0.4-0.2c0.1,0.1,0.1,0.4,0,0.5
				C118,38.2,117.7,38.5,117.1,38.3z"/>
			<path id="_Path_24" class="st2" d="M120.9,40.6c0.1,0.3,0.3,0.5,0.6,0.5c0.1,0,0.2,0.1,0.2,0.3c0,0,0,0.1,0,0.1
				c-0.1,0.2-0.2,0.2-0.4,0.1C120.9,41.4,120.7,41.2,120.9,40.6z"/>
			<path id="_Path_25" class="st2" d="M110.3,32.3c-0.1-0.2-0.3-0.1-0.5-0.1c-0.3,0.1-0.6-0.4-0.9-0.2l0,0c0-0.4,0.4-0.5,0.6-0.7
				l0.2,0.1c-0.3,0.4,0,0.5,0.3,0.5s0.6-0.3,0.8,0.2C110.6,32.1,110.5,32.3,110.3,32.3z"/>
			<path id="_Path_26" class="st2" d="M112.2,37.3c-0.2,0-0.5-0.1-0.6-0.4c0-0.1,0.2-0.3,0.3-0.3c0.3,0,0.6,0.3,0.7,0.5
				C112.6,37.3,112.4,37.3,112.2,37.3z"/>
			<path id="_Path_27" class="st2" d="M120.9,37c-0.5,0.4-1.3,0.4-1.8,0H120.9z"/>
			<path id="_Path_28" class="st2" d="M124,38.5l-0.3,0.3l-1.7-0.2C122.7,38.5,123.4,38.5,124,38.5z"/>
			<path id="_Path_29" class="st2" d="M121.3,33.7c0.5-0.3,0.8-0.1,1.3,0C122.2,34,121.7,34,121.3,33.7z"/>
			<path id="_Path_30" class="st2" d="M119.1,39.7c0.3-0.3,0.4-1,1.1-0.7C119.8,39.3,119.7,39.8,119.1,39.7z"/>
			<path id="_Path_31" class="st2" d="M125.1,40.2l0.2-0.2c0.3,0.5,0.3,1,0,1.5c-0.2-0.3,0-0.6-0.1-0.9L125.1,40.2z"/>
			<path id="_Path_32" class="st2" d="M119.7,33.7c0.5-0.1,0.8,0.3,1.3,0.4C120.4,34.5,120.2,33.8,119.7,33.7z"/>
			<path id="_Path_33" class="st2" d="M123.8,40.6c0.7,0.2,0.5,0.6,0.2,1.1L123.8,40.6z"/>
			<path id="_Path_34" class="st2" d="M110.4,44.6c-0.2-0.4,0-0.8-0.1-1.1C110.8,43.8,110.5,44.2,110.4,44.6z"/>
			<path id="_Path_35" class="st2" d="M125.1,40.7c0.1,0.3-0.1,0.6,0.1,0.9c0,0.4,0.1,0.7-0.1,1.1c0-0.1,0-0.3-0.1-0.4
				C124.9,41.7,124.9,41.2,125.1,40.7z"/>
			<path id="_Path_36" class="st2" d="M114.2,41.8c-0.3,0.1-0.5,0.4-0.8,0.1c-0.1-0.1-0.2-0.2,0-0.3
				C113.6,41.4,113.8,41.6,114.2,41.8z"/>
			<path id="_Path_37" class="st2" d="M123.2,34.8h-1.3C122.2,34.5,122.8,34.5,123.2,34.8z"/>
			<path id="_Path_38" class="st2" d="M110.8,34.7l0.3-0.1h0.1c0.2,0.1,0.5,0.1,0.5,0.5c0,0.1,0,0.2-0.2,0.2c-0.3,0-0.4-0.2-0.5-0.4
				L110.8,34.7z"/>
			<path id="_Path_39" class="st2" d="M111.2,34.1c-0.3,0-0.7,0.1-0.6-0.4c0.1-0.2,0.3-0.2,0.5-0.1c0.1,0,0.1,0.1,0.1,0.1
				c-0.1,0-0.3-0.1-0.3,0.1c-0.1,0.2,0.2,0.1,0.3,0.2L111.2,34.1z"/>
			<path id="_Path_40" class="st2" d="M111.2,33.9c-0.1-0.1-0.3-0.2-0.3-0.2c0,0,0.2,0,0.3-0.1C111.3,33.6,111.2,33.8,111.2,33.9z"
				/>
			<path id="_Path_41" class="st2" d="M111.4,34.4v-0.2c0.1,0,0.3,0.1,0.2,0.2C111.5,34.7,111.4,34.5,111.4,34.4z"/>
			<path id="_Path_42" class="st1" d="M98.7,36.4h-1.1c-1,0-1,0-0.9-1c0-0.3,0.1-0.4,0.4-0.4h3.3c0.4,0,0.8,0.2,0.8,0.7
				s-0.3,0.7-0.8,0.7C99.9,36.4,99.2,36.4,98.7,36.4L98.7,36.4z"/>
			<path id="_Path_43" class="st1" d="M134.5,36.4c-0.4,0-0.8,0-1.1,0c-0.7,0.1-0.8-0.2-0.8-0.8c0-0.4,0.1-0.6,0.6-0.6c1,0,2,0,3,0
				c0.5,0,0.9,0.1,0.9,0.7s-0.4,0.7-0.9,0.7C135.6,36.4,135,36.4,134.5,36.4z"/>
			<path id="_Path_44" class="st1" d="M85.5,38.7c-1,0.1-1.9-0.2-2.7-0.9c-0.6-0.5-0.7-1.3-0.3-1.9c0.1-0.1,0.2-0.2,0.3-0.3
				c1.5-1.1,3.5-1.1,5,0c0.6,0.4,0.8,1.3,0.4,1.9c-0.1,0.2-0.3,0.3-0.4,0.4C87.1,38.5,86.3,38.7,85.5,38.7z"/>
			<path id="_Path_45" class="st2" d="M109.5,31.3c0.1-0.1,0.3-0.4,0.5-0.2c0.2,0.2-0.2,0.2-0.3,0.3L109.5,31.3z"/>
			<path id="_Path_46" class="st2" d="M109.2,29.2c-0.1,0.1-0.1,0.2-0.2,0.2c-0.1,0-0.1-0.1-0.1-0.1c0.1-0.1,0.1-0.1,0.2-0.2
				L109.2,29.2z"/>
			<path id="_Path_47" class="st2" d="M108.9,32c0.4-0.2,0.6,0.3,0.9,0.2C109.4,32.6,109.2,32.3,108.9,32z"/>
			<path id="_Path_48" class="st2" d="M121.9,43.6c0.5-0.2,1.1-0.3,1.6-0.3c0.4,0,0.4,0.1,0.3,0.4c-0.5,0.6-1.4,0.6-2,0.1
				C121.8,43.8,121.8,43.6,121.9,43.6z"/>
		</g>
	</g>
</g>
</svg>
