<?xml version="1.0" encoding="utf-8"?>
<!-- Generator: Adobe Illustrator 22.1.0, SVG Export Plug-In . SVG Version: 6.00 Build 0)  -->
<svg version="1.1" id="Layer_1" xmlns="http://www.w3.org/2000/svg" xmlns:xlink="http://www.w3.org/1999/xlink" x="0px" y="0px"
	 viewBox="0 0 233 73" style="enable-background:new 0 0 233 73;" xml:space="preserve">
<style type="text/css">
	.st0{fill:#3D3D3D;}
	.st1{fill:#FFFFFF;}
</style>
<title>Asset 38</title>
<g id="Layer_2_1_">
	<g id="Layer_1-2">
		<g id="_Group_">
			<g id="_Group_2">
				<path id="_Compound_Path_" class="st0" d="M104.1,14.7L104.1,14.7c-0.9,0-1.8,0-2.6,0c-0.4,0-0.5,0.1-0.5,0.5c0.1,2,0.2,4,0.3,6
					c0,0.3,0,0.7,0,1c0.2,1.6,0.1,3.3,0.2,4.9c-0.1,2.2,0.1,4.3,0.4,6.5c0.3,1.3,1,2.4,2.1,3.2c0.9,0.6,1.9,0.9,2.9,1.1
					c1.1,0.2,2.3,0.3,3.4,0.4c0.8,0,1.7,0,2.5,0c1.1,0,2.3-0.2,3.4-0.5c2-0.4,3.7-2,4.1-4c0.3-1.5,0.5-3,0.5-4.5
					c0.1-1.1,0-2.1,0.1-3.2c0-0.3,0.1-0.4,0.4-0.4c0.4,0,0.8,0,1.2,0c0.4,0,0.4-0.1,0.4-0.4c-0.1-0.6-0.1-1.3,0-1.9
					c0-0.2-0.1-0.3-0.3-0.3c-0.4,0-0.8,0-1.2,0s-0.4-0.1-0.3-0.4c0-0.3,0.1-0.7,0.1-1c0-0.9,0.1-1.7,0.1-2.6
					c0.1-1.4,0.1-2.7,0.2-4.1c0-0.2-0.1-0.3-0.3-0.3h-5.2c-0.3,0-0.4,0.1-0.4,0.4c-0.1,1.4-0.2,2.7-0.2,4.1
					c-0.1,1.9-0.2,3.7-0.2,5.5s-0.2,3.6-0.2,5.4c0,0.3,0,0.6-0.1,0.9c-0.1,0.7-0.6,1.3-1.3,1.5c-0.4,0.1-0.9,0.2-1.3,0.2
					c-0.7,0-1.5,0-2.2-0.1c-0.6,0-1.1-0.2-1.5-0.6c-0.4-0.6-0.7-1.3-0.6-2c0-1.1-0.1-2.3-0.1-3.5c-0.1-2.1-0.2-4.3-0.2-6.4
					c0-1,0-2.1-0.1-3.1c0-0.6,0-1.2-0.1-1.8c0-0.3-0.1-0.4-0.4-0.4C105.9,14.7,105,14.7,104.1,14.7z M108.2,48.8v2
					c0,0.2,0,0.3-0.2,0.3c-0.5,0-1,0-1.5,0c-0.8-0.1-1.3-0.5-1.5-1.6c-0.1-0.9-0.2-1.8-0.1-2.8c0.1-1.3,0.7-1.7,1.8-1.8
					c1.3,0,2.5,0.1,3.8,0.3c0.4,0.1,0.4-0.1,0.4-0.4c-0.1-0.5-0.1-1,0-1.5c0-0.4-0.1-0.6-0.5-0.6c-0.6-0.1-1.2-0.2-1.9-0.3
					c-1.3-0.1-2.7-0.1-4,0.2c-1.1,0.3-2,1.1-2.3,2.2c-0.5,1.8-0.6,3.7-0.1,5.5c0.3,1.5,1.5,2.6,3,2.8c0.8,0.1,1.6,0.2,2.4,0.1
					c0.2,0,0.3,0,0.3,0.2c0,0.8-0.2,1.7-1.3,1.9c-1.1,0.1-2.3,0.2-3.4,0.1c-0.2,0-0.4,0-0.4,0.3c0,0.6,0,1.3-0.1,1.9
					c0,0.3,0.1,0.4,0.4,0.4c0.7,0,1.3,0,2-0.1c0.9,0,1.8-0.1,2.7-0.3c1.1-0.2,2-0.8,2.6-1.7c0.5-0.9,0.7-2,0.6-3
					c0-1.6,0-3.2-0.1-4.7c0-0.5,0-1,0.1-1.4c0-0.2,0-0.4-0.3-0.4c-0.7,0-1.3-0.1-2-0.2c-0.4,0-0.4,0.1-0.4,0.4
					C108.2,47.6,108.2,48.2,108.2,48.8L108.2,48.8z M127.8,32.1c0.3,0,0.7-0.1,1-0.2c1.5-0.4,2.4-2,2-3.5c-0.1-0.4-0.4-0.9-0.7-1.2
					c-0.4-0.4-0.9-0.8-1.3-1.2c-0.9-0.8-1-2.2-0.2-3.1c0.1-0.1,0.1-0.1,0.2-0.2c0.4-0.4,0.9-0.8,1.3-1.2c1.1-1.1,1-2.9-0.1-3.9
					c-0.2-0.2-0.4-0.3-0.6-0.4c-1.2-0.7-2.7-0.7-3.9,0c-1.8,1-3,2.8-3.3,4.8c-0.1,0.3,0,0.5,0.4,0.4c0.4-0.1,0.9,0.1,1,0.6
					c0,0.1,0,0.2,0,0.3c0,0.8,0,1.6,0,2.4c0.1,0.5-0.2,0.9-0.7,1c-0.1,0-0.2,0-0.2,0c-0.5,0-0.5,0-0.4,0.6c0.2,0.9,0.5,1.8,1.1,2.6
					C124.4,31.2,126.1,32.1,127.8,32.1z M112,48c-0.1,0.9,0,1.8,0.3,2.7c0.3,1.2,1.1,2.2,2.3,2.5c1.5,0.4,3.1,0.5,4.7,0.2
					c1.2-0.2,2.3-1,2.8-2.1c0.3-0.9,0.5-1.9,0.5-2.9c0.1-1.1-0.1-2.1-0.4-3.1c-0.4-1.3-1.4-2.3-2.8-2.5c-1.4-0.2-2.8-0.2-4.2,0
					c-1.2,0.2-2.3,1-2.8,2.2C112.1,45.9,111.9,46.9,112,48z M100.7,46.5c0-1.1,0-2.2,0-3.3c0-0.4-0.1-0.6-0.5-0.5c-0.4,0-1,0-1.5,0
					c-0.8,0-0.8-0.1-0.8,0.8v6.3c0,0.8-0.3,1.2-1.1,1.3C96.4,51,96,51,95.6,51c-1,0-1.5-0.4-1.5-1.5c0-2.1,0-4.2,0-6.4
					c0-0.3-0.1-0.5-0.4-0.4c-0.7,0-1.4,0-2.1,0c-0.3,0-0.4,0.1-0.4,0.4c0.1,1.2,0,2.4,0,3.6s0,2.6,0.1,3.8c0,1.5,1.1,2.8,2.6,2.9
					c1.3,0.2,2.5,0.2,3.8,0.1c0.9,0,1.8-0.4,2.4-1.2c0.5-0.8,0.7-1.6,0.7-2.5C100.7,48.7,100.7,47.6,100.7,46.5z M125.4,49.4
					c0-0.3,0-0.6,0-0.9s-0.1-0.3-0.4-0.3c-0.2,0-0.3,0.2-0.3,0.4c0,1.5,0,3,0,4.5c0,0.3,0.2,0.4,0.4,0.3c0.3-0.3,0.6-0.1,0.8,0
					c0.2,0.1,0.4,0.1,0.7,0.1c0.5,0.1,1-0.3,1.1-0.8c0.2-0.6,0.2-1.2,0-1.9c0-0.4-0.3-0.7-0.7-0.7c-0.3,0-0.6,0-0.9,0.1
					c-0.7,0.3-0.7,0.3-0.7-0.5L125.4,49.4z M131.1,52.1L131.1,52.1c0-0.4,0-0.8,0-1.2c0-0.4-0.3-0.8-0.8-0.8c-0.4-0.1-0.8-0.1-1.3,0
					c-0.2,0-0.5,0-0.4,0.3s0.2,0.3,0.5,0.2c0.3,0,0.6,0,0.9,0c0.3,0,0.4,0.3,0.4,0.6c0,0.3-0.3,0.2-0.4,0.2c-0.2,0-0.6,0-0.9,0.1
					c-0.4,0-0.7,0.2-0.7,0.6c-0.1,0.6,0,1.4,0.7,1.4c0.4,0,0.9-0.1,1.2-0.2c0.1-0.1,0.2-0.2,0.3,0.1s0.2,0.2,0.3,0.1
					c0.1,0,0.2-0.2,0.2-0.3L131.1,52.1z M137.4,45.5h0.8c0.1,0,0.2,0,0.3-0.1c0.2-0.7-0.1-1.5-0.8-1.7c-0.1,0-0.1,0-0.2,0
					c-0.2,0-0.4,0-0.6,0c-0.6,0-1.1,0.4-1.2,0.9c-0.1,0.5-0.1,1-0.1,1.4c0,0.6,0.5,1.1,1.1,1.2c0.4,0.1,0.9,0.1,1.4,0
					c0.2,0,0.3-0.1,0.3-0.4s-0.2-0.3-0.4-0.2c-0.3,0.1-0.6,0.1-0.9,0.1c-0.4,0-0.8-0.2-0.8-0.7c0,0,0,0,0,0c0-0.2,0-0.4,0.3-0.4
					C136.9,45.6,137.2,45.5,137.4,45.5L137.4,45.5z M129.1,43.7c-0.7-0.1-1.3,0.3-1.5,0.9c-0.1,0.4-0.2,0.7-0.1,1.1
					c0.1,0.9,0.4,1.5,1.4,1.5c1.6,0.1,2-0.8,1.9-2.1c0-0.7-0.6-1.4-1.3-1.4C129.3,43.7,129.2,43.7,129.1,43.7z M140.7,45.6h0.9
					c0.1,0,0.2,0,0.3-0.2c0.2-0.7-0.2-1.4-0.9-1.7c-0.7-0.3-1.6,0.1-1.8,0.9c0,0,0,0,0,0.1c-0.1,0.5-0.1,0.9-0.1,1.4
					c0,0.5,0.3,0.9,0.8,1.1c0.5,0.2,1.1,0.2,1.7,0c0.2,0,0.2-0.2,0.2-0.3s-0.1-0.2-0.3-0.2c-0.3,0-0.7,0-1,0c-0.4,0-0.7-0.3-0.8-0.7
					c0-0.3,0-0.5,0.3-0.4C140.3,45.6,140.4,45.5,140.7,45.6L140.7,45.6z M134.6,45.8c0-0.3,0-0.7,0-1c0-0.3,0-0.5,0.4-0.4
					c0.2,0,0.4,0.1,0.5-0.3c0-0.3-0.2-0.3-0.5-0.3c-0.2,0-0.3,0.1-0.4-0.1c-0.2-0.4,0-1,0.4-1.1c0.1,0,0.1,0,0.2-0.1
					c0.2,0,0.2-0.1,0.2-0.2c0-0.5-0.2-0.3-0.4-0.2c-0.9,0.2-1.1,0.4-1,1.2c0,0.1,0,0.2,0,0.4c0,0.1,0,0.3-0.3,0.3s-0.3,0-0.3,0.2
					c0,0.2,0,0.3,0.3,0.3s0.3,0.2,0.3,0.4c0,0.7,0,1.4,0,2.1c0,0.2,0.1,0.3,0.3,0.3c0.2,0,0.4-0.1,0.3-0.3S134.6,46.1,134.6,45.8
					L134.6,45.8z M124.6,45.4c-0.1,1.4,0.5,2,1.9,1.8c0.1,0,0.2,0,0.3,0c0.1,0,0.2,0,0.3-0.1c0.2-0.1,0.1-0.2,0.1-0.4
					c-0.1-0.1-0.1-0.2-0.3-0.1c-0.3,0.1-0.7,0.1-1,0c-0.3,0-0.6-0.2-0.7-0.5c-0.1-0.4-0.1-0.9,0-1.3c0.1-0.4,0.4-0.6,0.7-0.6h0.9
					c0.1,0,0.2,0,0.2-0.2s0.1-0.2-0.1-0.3c-0.6-0.2-1.3-0.2-1.9,0.1C124.7,44.2,124.5,44.8,124.6,45.4L124.6,45.4z M131.7,45.7v1.1
					c0,0.2,0,0.3,0.3,0.3s0.3-0.1,0.3-0.3c0-0.6,0-1.2,0-1.9c0-0.6,0-0.6,0.6-0.6c0.2,0,0.2-0.1,0.2-0.3s-0.1-0.2-0.2-0.2h-0.4
					c-0.1,0-0.2,0-0.2-0.2c-0.1-0.8,0-1,0.7-1.3c0.2-0.1,0.2-0.1,0.2-0.3c-0.1-0.2-0.1-0.3-0.3-0.2c-0.7,0-1.2,0.6-1.1,1.3
					c0,0,0,0,0,0.1c0,0.1,0,0.2,0,0.3s0,0.3-0.3,0.3c-0.3,0-0.3,0-0.3,0.2c0,0.2,0.1,0.3,0.3,0.3c0.2,0,0.3,0.1,0.3,0.3
					C131.7,45,131.7,45.3,131.7,45.7L131.7,45.7z M131.9,51.9c0,0.5,0,0.9,0,1.4c0,0.2,0,0.3,0.3,0.3s0.3-0.1,0.3-0.3
					c0-0.6,0-1.2,0-1.8c0-0.2,0.1-0.4,0.3-0.4s0.4-0.2,0.7-0.2s0.3-0.1,0.3-0.3c0-0.2-0.1-0.3-0.3-0.2c-0.2,0.1-0.4,0.1-0.7,0.2
					c-0.1,0.1-0.3,0.2-0.3-0.1c-0.1-0.3-0.2-0.1-0.3-0.1c-0.1,0-0.1,0.2-0.1,0.3C131.9,51,131.9,51.4,131.9,51.9L131.9,51.9z"/>
				<path id="_Path_" class="st0" d="M104.1,14.7c0.9,0,1.8,0,2.7,0c0.3,0,0.4,0.1,0.5,0.4c0,0.6,0,1.2,0.1,1.8
					c0.1,1,0.1,2.1,0.1,3.1c0.1,2.1,0.2,4.3,0.2,6.4c0,1.1,0.1,2.3,0.1,3.4c0,0.7,0.2,1.4,0.6,2c0.4,0.4,0.9,0.6,1.5,0.6
					c0.7,0.1,1.5,0.1,2.2,0.1c0.5,0,0.9-0.1,1.3-0.2c0.7-0.2,1.2-0.8,1.3-1.5c0.1-0.3,0.1-0.6,0.1-0.9c0-1.8,0.1-3.6,0.2-5.4
					s0.1-3.7,0.2-5.5c0.1-1.3,0.2-2.7,0.2-4.1c0-0.2,0.1-0.4,0.4-0.4h5.2c0.2,0,0.3,0,0.3,0.3c-0.1,1.4-0.2,2.7-0.2,4.1
					c0,0.9-0.1,1.8-0.1,2.6c0,0.4,0,0.7-0.1,1.1c0,0.2,0,0.4,0.3,0.4s0.8,0,1.2,0c0.2,0,0.4,0,0.3,0.3c-0.1,0.6-0.1,1.3,0,1.9
					c0,0.3-0.1,0.4-0.4,0.4c-0.3,0-0.8,0-1.2,0c-0.3,0-0.3,0.1-0.4,0.4c-0.1,1.1,0,2.1-0.1,3.2c0,1.5-0.1,3-0.4,4.5
					c-0.5,2-2.1,3.6-4.1,4c-1.1,0.3-2.3,0.4-3.4,0.4c-0.8,0-1.7,0-2.5,0c-1.1,0-2.3-0.2-3.4-0.4c-1-0.2-2-0.5-2.9-1.1
					c-1.1-0.8-1.8-1.9-2.1-3.2c-0.4-2.1-0.5-4.3-0.5-6.5c-0.1-1.6,0-3.2-0.2-4.9c0-0.3,0-0.7,0-1c-0.1-2-0.2-4-0.3-6
					c0-0.4,0.1-0.5,0.5-0.5C102.4,14.7,103.3,14.7,104.1,14.7L104.1,14.7z"/>
				<path id="_Path_2" class="st0" d="M108.2,48.8c0-0.6,0-1.3,0-1.9c0-0.3,0-0.4,0.4-0.4c0.7,0,1.3,0.2,2,0.2
					c0.3,0,0.3,0.2,0.3,0.4c-0.1,0.5-0.1,1,0,1.4c0,1.6,0,3.2,0,4.7c0.1,1-0.1,2.1-0.6,3c-0.6,0.9-1.5,1.5-2.6,1.7
					c-0.9,0.2-1.8,0.3-2.7,0.3c-0.7,0-1.3,0.1-2,0.1c-0.3,0-0.4-0.1-0.4-0.4c0-0.6,0.1-1.3,0.1-1.9c0-0.3,0.2-0.3,0.4-0.3
					c1.1,0.1,2.3,0,3.4-0.1c1.1-0.2,1.3-1.1,1.3-1.9c0-0.3-0.2-0.2-0.3-0.2c-0.8,0-1.6,0-2.3-0.2c-1.5-0.1-2.7-1.3-3-2.8
					c-0.4-1.8-0.4-3.7,0.1-5.5c0.3-1.1,1.2-2,2.3-2.2c1.3-0.3,2.7-0.4,4-0.2c0.6,0,1.2,0.2,1.9,0.3c0.4,0.1,0.5,0.2,0.5,0.6
					c-0.1,0.5-0.1,1,0,1.5c0,0.3,0,0.4-0.4,0.4c-1.3-0.2-2.5-0.3-3.8-0.3c-1.1,0-1.7,0.4-1.8,1.8c-0.1,0.9-0.1,1.8,0.1,2.8
					c0.2,1.1,0.7,1.4,1.5,1.6c0.5,0,1,0,1.5,0c0.2,0,0.2-0.2,0.2-0.3V48.8z"/>
				<path id="_Compound_Path_2" class="st0" d="M127.8,32.1c-1.8,0-3.4-0.9-4.4-2.4c-0.5-0.8-0.9-1.7-1.1-2.6
					c-0.1-0.5-0.1-0.6,0.4-0.6c0.5,0.1,0.9-0.3,0.9-0.8c0-0.1,0-0.2,0-0.2c0-0.8,0-1.6,0-2.4c0-0.5-0.3-0.9-0.8-0.9
					c-0.1,0-0.2,0-0.3,0c-0.4,0.1-0.4,0-0.3-0.4c0.3-2,1.5-3.8,3.3-4.8c1.2-0.7,2.7-0.7,3.9,0c1.3,0.8,1.8,2.5,1.1,3.8
					c-0.1,0.2-0.2,0.4-0.4,0.5c-0.4,0.4-0.9,0.8-1.3,1.2c-0.9,0.8-1,2.2-0.2,3.1c0.1,0.1,0.1,0.1,0.2,0.2c0.4,0.4,0.9,0.8,1.3,1.2
					c1.1,1.1,1,2.9-0.1,4c-0.3,0.3-0.7,0.5-1.2,0.7C128.5,32.1,128.2,32.1,127.8,32.1z M125.4,28.3c0,0.7,0.6,1.3,1.3,1.3
					c0,0,0,0,0,0c0.7-0.1,1.2-0.7,1.2-1.4c0-0.7-0.6-1.3-1.3-1.3C126,27,125.4,27.6,125.4,28.3C125.4,28.3,125.4,28.3,125.4,28.3z
					 M126.6,19.2c-0.7,0-1.2,0.5-1.3,1.2c0,0,0,0,0,0.1c0,0.7,0.5,1.3,1.3,1.3c0,0,0.1,0,0.1,0c0.7-0.1,1.2-0.6,1.2-1.3
					c0-0.7-0.5-1.2-1.2-1.3C126.7,19.2,126.7,19.2,126.6,19.2z"/>
				<path id="_Compound_Path_3" class="st0" d="M112,48c-0.1-1.1,0.1-2.1,0.5-3.2c0.5-1.2,1.5-2,2.8-2.1c1.4-0.2,2.8-0.2,4.2,0
					c1.3,0.2,2.4,1.2,2.8,2.5c0.3,1,0.4,2.1,0.4,3.1c0,1-0.2,2-0.5,2.9c-0.5,1.2-1.5,2-2.8,2.1c-1.6,0.3-3.2,0.2-4.7-0.2
					c-1.2-0.4-2-1.3-2.3-2.5C112,49.8,111.9,48.9,112,48z M119.5,48.1c0-0.5,0-1-0.1-1.4c0-0.8-0.6-1.4-1.4-1.6
					c-0.4-0.1-0.8-0.1-1.1-0.1c-1-0.1-1.8,0.7-1.9,1.6c0,0.1,0,0.2,0,0.4c0,0.9,0,1.8,0.1,2.7c0.1,0.7,0.6,1.3,1.2,1.4
					c0.4,0.1,0.9,0.1,1.3,0.1c1.1-0.1,1.6-0.5,1.8-1.7C119.4,49,119.4,48.5,119.5,48.1z"/>
				<path id="_Path_3" class="st0" d="M100.7,46.5c0,1.1,0,2.2,0,3.2c0.1,0.9-0.2,1.8-0.7,2.5c-0.6,0.7-1.5,1.1-2.4,1.2
					c-1.3,0.2-2.5,0.1-3.8-0.1c-1.5-0.1-2.6-1.4-2.6-2.9c-0.1-1.3-0.1-2.6-0.1-3.8c0-1.3,0.1-2.4,0-3.6c0-0.3,0.1-0.4,0.4-0.4
					c0.7,0,1.4,0,2.1,0c0.4,0,0.4,0.1,0.4,0.4c0,2.1,0,4.3,0,6.4c0,1.1,0.5,1.5,1.5,1.5c0.4,0,0.8,0,1.2,0c0.8-0.1,1.1-0.5,1.1-1.3
					v-6.2c0-0.9-0.1-0.8,0.8-0.8c0.5,0,1,0,1.5,0s0.5,0.1,0.5,0.5C100.7,44.3,100.7,45.4,100.7,46.5z"/>
				<path id="_Compound_Path_4" class="st0" d="M125.4,49.4v0.4c0,0.7,0,0.7,0.7,0.5c0.3-0.1,0.6-0.1,0.9-0.1c0.4,0,0.7,0.3,0.7,0.7
					c0.2,0.6,0.2,1.2,0,1.9c-0.1,0.5-0.6,0.9-1.1,0.8c-0.2,0-0.4,0-0.7-0.1c-0.3-0.1-0.5-0.3-0.8,0c-0.1,0.1-0.4,0-0.4-0.3
					c0-1.5,0-3,0-4.5c0-0.2-0.1-0.4,0.3-0.4s0.4,0.1,0.4,0.3S125.4,49.1,125.4,49.4z M125.4,51.9c0,1,0.2,1.2,1.1,1.2
					c0.4,0,0.6-0.2,0.7-0.6c0-0.4,0-0.8,0-1.2c0-0.3-0.3-0.6-0.6-0.6c-0.1,0-0.1,0-0.2,0c-0.8,0.1-1,0.4-1,1.1L125.4,51.9z"/>
				<path id="_Compound_Path_5" class="st0" d="M131.1,52.1v1.1c0,0.1,0,0.3-0.2,0.3c-0.1,0-0.3,0.1-0.3-0.1s-0.2-0.1-0.3-0.1
					c-0.4,0.2-0.8,0.3-1.2,0.2c-0.8,0-0.8-0.8-0.7-1.4c0.1-0.3,0.4-0.6,0.7-0.6c0.3,0,0.6,0,0.9-0.1s0.4,0.1,0.4-0.2
					s-0.1-0.5-0.5-0.5c-0.3,0-0.6,0-0.9,0c-0.3,0.1-0.4,0-0.5-0.2s0.2-0.2,0.4-0.3c0.4-0.1,0.8-0.1,1.3,0c0.4,0,0.8,0.4,0.8,0.8
					C131.1,51.4,131.1,51.8,131.1,52.1L131.1,52.1z M129.5,53c0.3,0,0.6-0.1,0.9-0.3c0.3-0.1,0.1-0.4,0.1-0.6s-0.1-0.2-0.2-0.2
					c-0.3,0-0.6,0-0.9,0.1c-0.2,0-0.4,0.2-0.4,0.4c0,0,0,0.1,0,0.1C129,52.9,129.1,53.1,129.5,53L129.5,53z"/>
				<path id="_Compound_Path_6" class="st0" d="M137.4,45.5c-0.3,0-0.5,0-0.8,0c-0.3,0-0.4,0.1-0.3,0.4c0,0.4,0.4,0.7,0.8,0.7
					c0,0,0,0,0,0c0.3,0,0.6,0,0.9,0c0.2-0.1,0.3,0,0.4,0.2c0,0.2,0,0.3-0.3,0.4c-0.4,0.1-0.9,0.1-1.3,0c-0.6-0.1-1-0.6-1.1-1.1
					c-0.1-0.5,0-1,0.1-1.4c0.1-0.6,0.6-0.9,1.2-0.9c0.2,0,0.4,0,0.6,0c0.7,0.2,1.2,0.9,1,1.6c0,0.1,0,0.1,0,0.2
					c-0.1,0.1-0.2,0.1-0.3,0.1L137.4,45.5z M137.1,45c0.1,0,0.3,0,0.4,0s0.4-0.1,0.3-0.4c-0.1-0.3-0.3-0.5-0.6-0.5
					c-0.3-0.1-0.6,0.1-0.8,0.3c-0.1,0.1-0.2,0.3-0.2,0.5c0.1,0.2,0.3,0.1,0.4,0.1L137.1,45z"/>
				<path id="_Compound_Path_7" class="st0" d="M129.1,43.7c0.7-0.1,1.4,0.4,1.6,1.1c0,0.1,0,0.2,0,0.3c0.1,1.3-0.3,2.2-1.9,2.1
					c-1-0.1-1.2-0.6-1.4-1.5c0-0.4,0-0.8,0.1-1.1C127.8,43.9,128.5,43.6,129.1,43.7z M130.1,45.5c0-0.1,0-0.2,0-0.4
					c-0.1-0.5-0.5-0.9-1-0.9c-0.5,0-1,0.3-1,0.8c0,0,0,0,0,0c0,0.3,0,0.5,0,0.8c0.1,0.4,0.1,0.8,0.6,0.9c0.7,0.1,1.1,0,1.3-0.5
					C130.1,45.9,130.2,45.7,130.1,45.5L130.1,45.5z"/>
				<path id="_Compound_Path_8" class="st0" d="M140.7,45.5c-0.2,0-0.5,0-0.7,0s-0.4,0.1-0.3,0.4c0.1,0.4,0.4,0.7,0.8,0.7
					c0.3,0,0.7,0,1,0c0.1,0,0.3,0,0.3,0.2c0,0.2,0,0.3-0.2,0.3c-0.5,0.2-1.1,0.2-1.7,0c-0.5-0.2-0.8-0.6-0.8-1.1
					c-0.1-0.5-0.1-1,0.1-1.4c0.3-0.7,1.1-1.1,1.8-0.9c0,0,0,0,0,0c0.7,0.3,1.1,1,0.9,1.7c0,0.2-0.1,0.2-0.3,0.2L140.7,45.5
					L140.7,45.5z M140.4,44.1c-0.4,0-0.7,0.3-0.8,0.6c-0.1,0.2,0,0.3,0.2,0.3h1c0.1,0,0.3,0.1,0.3-0.1c0.1-0.1,0.1-0.3,0-0.5
					C141,44.2,140.7,44.1,140.4,44.1z"/>
				<path id="_Path_4" class="st0" d="M134.6,45.7c0,0.4,0,0.7,0,1.1s-0.1,0.3-0.3,0.3c-0.2,0-0.3-0.1-0.3-0.3c0-0.7,0-1.4,0-2.1
					c0-0.2,0-0.4-0.3-0.4c-0.3,0-0.3-0.1-0.3-0.3s0.1-0.3,0.3-0.2c0.2,0,0.3-0.1,0.3-0.3c0-0.2,0-0.2,0-0.4c0-0.8,0.2-0.9,1-1.1
					c0.2,0,0.5-0.2,0.4,0.2c0,0.1,0,0.2-0.2,0.2c-0.5,0.1-0.8,0.5-0.7,1c0,0.1,0,0.1,0.1,0.2c0.1,0.2,0.2,0.1,0.4,0.1
					s0.5-0.1,0.5,0.3c0,0.4-0.3,0.3-0.5,0.3c-0.4-0.1-0.4,0.1-0.4,0.4C134.6,45,134.6,45.4,134.6,45.7z"/>
				<path id="_Path_5" class="st0" d="M124.6,45.4c-0.1-0.6,0.1-1.2,0.6-1.5c0.6-0.3,1.3-0.3,1.9-0.1c0.1,0,0.1,0.2,0.1,0.3
					c0,0.1-0.1,0.2-0.2,0.2H126c-0.4,0-0.7,0.2-0.7,0.6c-0.1,0.4-0.1,0.9,0,1.3c0.1,0.3,0.3,0.5,0.7,0.5c0.3,0,0.7,0,1,0
					c0.1,0,0.2,0,0.3,0.1c0,0.1,0.1,0.3-0.1,0.4c-0.1,0.1-0.2,0.1-0.3,0.1c-0.1,0-0.2,0-0.3,0C125.1,47.3,124.5,46.7,124.6,45.4z"/>
				<path id="_Path_6" class="st0" d="M131.7,45.7c0-0.4,0-0.7,0-1.1c0-0.2-0.1-0.3-0.3-0.3s-0.3,0-0.3-0.3c0-0.3,0.1-0.2,0.3-0.2
					c0.2,0,0.3-0.1,0.3-0.3c0-0.2,0-0.2,0-0.3c-0.1-0.7,0.4-1.2,1.1-1.3c0,0,0,0,0.1,0c0.2,0,0.3,0.1,0.3,0.2c0.1,0.1,0,0.2-0.2,0.3
					c-0.7,0.3-0.8,0.5-0.7,1.3c0,0.1,0.1,0.2,0.2,0.2h0.4c0.2,0,0.2,0,0.2,0.2c0,0.2,0,0.3-0.2,0.3c-0.6,0-0.6,0-0.6,0.6
					s0,1.2,0,1.8c0,0.2-0.1,0.3-0.3,0.3s-0.3-0.1-0.3-0.3L131.7,45.7z"/>
				<path id="_Path_7" class="st0" d="M131.9,51.8c0-0.4,0-0.9,0-1.3c0-0.1-0.1-0.3,0.1-0.3s0.3,0,0.3,0.1c0,0.1,0.2,0.2,0.3,0.1
					c0.2-0.1,0.4-0.2,0.7-0.2c0.2-0.1,0.3,0,0.3,0.2c0,0.2,0,0.3-0.3,0.3s-0.5,0.2-0.7,0.2s-0.3,0.2-0.3,0.4c0,0.6,0,1.2,0,1.8
					c0,0.2,0,0.4-0.3,0.3s-0.3-0.1-0.3-0.3C131.9,52.7,131.9,52.3,131.9,51.8z"/>
				<path id="_Path_8" class="st1" d="M125.4,28.3c0-0.7,0.5-1.3,1.2-1.3c0,0,0,0,0,0c0.7,0,1.3,0.6,1.3,1.3c0,0.7-0.5,1.3-1.2,1.4
					C126,29.6,125.4,29,125.4,28.3C125.4,28.3,125.4,28.3,125.4,28.3z"/>
				<path id="_Path_9" class="st1" d="M126.6,19.2c0.7-0.1,1.3,0.5,1.3,1.1c0,0,0,0.1,0,0.1c0,0.7-0.5,1.2-1.2,1.3
					c-0.7,0.1-1.3-0.5-1.4-1.2c0,0,0-0.1,0-0.1C125.4,19.8,125.9,19.2,126.6,19.2C126.6,19.2,126.6,19.2,126.6,19.2z"/>
				<path id="_Path_10" class="st1" d="M119.5,48.1c0,0.5,0,0.9-0.1,1.4c-0.1,1.2-0.7,1.5-1.8,1.7c-0.4,0.1-0.9,0-1.3-0.1
					c-0.6-0.2-1.1-0.7-1.2-1.4c-0.1-0.9-0.1-1.8-0.1-2.7c-0.1-1,0.5-1.9,1.5-2c0.1,0,0.2,0,0.4,0c0.4,0,0.8,0,1.1,0.1
					c0.8,0.1,1.3,0.8,1.4,1.6C119.4,47.1,119.4,47.6,119.5,48.1z"/>
				<path id="_Path_11" class="st1" d="M125.4,51.9v-0.1c0-0.7,0.2-1,1-1.1c0.3-0.1,0.7,0.1,0.7,0.5c0,0.1,0,0.1,0,0.2
					c0,0.4,0,0.8,0,1.2s-0.2,0.6-0.7,0.6C125.6,53.1,125.4,52.9,125.4,51.9z"/>
				<path id="_Path_12" class="st1" d="M129.4,53c-0.3,0.1-0.5-0.1-0.5-0.4c-0.1-0.2,0.1-0.5,0.3-0.5c0,0,0.1,0,0.1,0
					c0.3,0,0.6-0.1,0.9-0.1c0.1,0,0.3,0.1,0.2,0.2c0,0.1,0.1,0.5-0.1,0.6C130.1,52.9,129.8,53,129.4,53z"/>
				<path id="_Path_13" class="st1" d="M137.1,45h-0.3c-0.2,0-0.4,0.1-0.4-0.1c-0.1-0.2,0.1-0.3,0.2-0.5c0.2-0.2,0.5-0.4,0.8-0.3
					c0.3,0,0.5,0.2,0.6,0.5c0.1,0.3,0,0.4-0.3,0.4S137.2,45,137.1,45z"/>
				<path id="_Path_14" class="st1" d="M130.1,45.4c0,0.2,0,0.5-0.1,0.7c-0.2,0.4-0.6,0.6-1.3,0.5c-0.5-0.1-0.5-0.5-0.6-0.9
					c0-0.3,0-0.5,0-0.8c0-0.5,0.5-0.9,1-0.8c0,0,0,0,0,0c0.5,0,0.9,0.4,1,0.9C130.1,45.2,130.1,45.3,130.1,45.4z"/>
				<path id="_Path_15" class="st1" d="M140.4,44.1c0.3,0,0.5,0.1,0.7,0.3c0.1,0.1,0.1,0.3,0,0.5c-0.1,0.1-0.2,0.1-0.3,0.1h-1
					c-0.2,0-0.3-0.1-0.2-0.3C139.7,44.4,140,44.1,140.4,44.1z"/>
			</g>
		</g>
	</g>
</g>
</svg>
