<?xml version="1.0" encoding="utf-8"?>
<!-- Generator: Adobe Illustrator 22.1.0, SVG Export Plug-In . SVG Version: 6.00 Build 0)  -->
<svg version="1.1" id="Layer_1" xmlns="http://www.w3.org/2000/svg" xmlns:xlink="http://www.w3.org/1999/xlink" x="0px" y="0px"
	 viewBox="0 0 233 73" style="enable-background:new 0 0 233 73;" xml:space="preserve">
<style type="text/css">
	.st0{fill:#3D3D3D;}
</style>
<title>Asset 22</title>
<g id="Layer_2_1_">
	<g id="Layer_1-2">
		<g id="_Group_">
			<path id="_Path_" class="st0" d="M94.3,49.6c1,0,2,0.1,3,0c0.8-0.1,1,0.3,1.2,0.9c0.4,1.7,0.8,3.5,1.3,5.2c0,0.1,0,0.2,0.3,0.3
				c0.3-1.1,0.6-2.2,0.9-3.3c0.2-0.8,0.5-1.6,0.6-2.4c0-0.4,0.4-0.8,0.8-0.7c0,0,0.1,0,0.1,0h2.6c0.7,0,0.8,0.2,0.5,0.9
				c-1.1,3.2-2.2,6.4-3.3,9.6c-0.2,0.5-0.4,0.8-0.9,0.7c-0.6,0-1.3,0-1.9,0c-1.8,0-1.3,0.3-1.9-1.4c-1-2.5-1.8-5.1-2.6-7.6
				c-0.1-0.3-0.1-0.7-0.5-0.7V49.6z"/>
			<path id="_Path_2" class="st0" d="M138.7,52.5c-0.6,0-1.2,0-1.8,0s-0.9,0.2-0.8,0.8c0,2.2,0,4.4,0,6.6c0,0.7-0.2,0.9-0.9,0.9
				c-0.5,0-1,0-1.5,0c-0.7,0.1-1-0.2-1-0.9c0-2.2,0-4.3,0-6.5c0-0.7-0.2-0.9-0.8-0.8c-0.4,0.1-0.8,0-1.2,0c-0.7,0.1-0.9-0.3-0.9-1
				c0-2.1-0.1-2,2-2h6.9L138.7,52.5z"/>
			<path id="_Compound_Path_" class="st0" d="M113.3,60.8h-0.6c-1.2,0-1.3,0-1.5-1.2c-0.1-0.6-0.4-0.9-1-0.8c-0.2,0-0.5,0-0.7,0
				c-1.4,0-1.4,0-1.8,1.3c-0.1,0.4-0.5,0.8-0.9,0.7c0,0,0,0,0,0c-0.7,0-1.5,0-2.2,0c-0.6,0-0.8-0.2-0.5-0.7c0.9-2.6,1.8-5.2,2.7-7.9
				c0.2-0.6,0.4-1.2,0.6-1.9c0.1-0.5,0.6-0.8,1.1-0.8c0.8,0,1.6,0,2.5,0c0.4,0,0.8,0.2,0.8,0.6c1,3.1,2.1,6.2,3.2,9.3
				c0.4,1.3,0.4,1.3-0.9,1.3L113.3,60.8z M109.5,53.8c-0.3,0.8-0.6,1.5-0.8,2.3c-0.1,0.2,0.1,0.4,0.3,0.4h0.9c0.3,0,0.4-0.1,0.3-0.4
				C110,55.4,109.8,54.7,109.5,53.8L109.5,53.8z"/>
			<path id="_Path_3" class="st0" d="M118.3,53.6c0,1.1,0,2.2,0,3.2c-0.1,0.6,0.3,1.2,0.9,1.3c0,0,0,0,0.1,0
				c0.6,0.1,1.1-0.3,1.2-1.1c0.1-1.9,0.2-3.9,0.1-5.8c0.1-1.8-0.2-1.6,1.7-1.6c1.8,0,1.7-0.2,1.7,1.7s0,3.6,0,5.5c0,2-0.8,3.4-2.5,4
				c-1.6,0.6-4.3,0.4-5.5-1c-0.6-0.7-1-1.6-1-2.6c0-2.3,0-4.5,0-6.8c0-0.7,0.2-0.8,0.9-0.9c2.5,0,2.5,0,2.5,2.5V53.6z"/>
			<path id="_Path_4" class="st0" d="M125,55.2c0-1.6,0-3.1,0-4.7c0-0.7,0.2-0.9,0.9-0.9c0.6,0,1.2,0,1.7,0c0.7,0,0.9,0.2,0.8,0.9
				c0,1.9,0,3.7,0,5.6c0,1.9,0,1.8,1.8,1.8h0.7c0.6-0.1,0.8,0.3,0.7,0.8c0,0.3-0.1,0.5-0.2,0.8c-0.1,1.4-0.1,1.4-1.5,1.4h-3.8
				c-1.2,0-1.2,0-1.2-1.2V55.2z"/>
			<path id="_Path_5" class="st0" d="M109.5,53.8c0.2,0.9,0.4,1.6,0.7,2.3c0.1,0.3,0,0.4-0.3,0.4H109c-0.2,0-0.4-0.1-0.3-0.4
				C108.9,55.3,109.2,54.5,109.5,53.8z"/>
			<g id="_Group_2">
				<path id="_Compound_Path_2" class="st0" d="M117.2,47.1c-9.7,0-17.6-7.9-17.6-17.6S107.5,12,117.2,12s17.6,7.9,17.6,17.6
					c0,0.1,0,0.3,0,0.4C134.5,39.5,126.7,47.1,117.2,47.1z M101,29.6c0,8.9,7.2,16.2,16.2,16.2c8.9,0,16.2-7.2,16.2-16.2
					c0-8.9-7.1-16.1-16-16.2c-8.9-0.1-16.2,7-16.3,16C101,29.4,101,29.5,101,29.6z"/>
				<path id="_Compound_Path_3" class="st0" d="M127.8,28.4c-0.4,0-0.8,0-1.1,0c-0.2,0-0.3,0-0.3,0.2c0,0.7,0,0.7-0.7,0.7
					c-5.8,0-11.6,0-17.3,0c-0.3,0-0.5,0-0.5-0.4s0-0.5-0.5-0.5h-2c-0.2,0-0.3,0-0.3-0.3c0.1-0.2-0.1-0.5-0.4-0.6
					c-0.5-0.3-1.1-0.6-1.6-0.9c-0.3-0.1-0.4-0.4-0.3-0.6c0,0,0-0.1,0.1-0.1c0.5-1.1,0.9-2.2,1.4-3.3c0.2-0.6,0.4-0.6,1-0.4l1.7,0.5
					c0.3,0.1,0.6,0,0.8-0.2c0.6-0.8,1.3-1.5,2.1-2c0.4-0.2,0.5-0.6,0.3-0.9c0,0,0,0,0,0c-0.2-0.6-0.3-1.1-0.5-1.7
					c-0.1-0.2,0-0.5,0.3-0.6l3.6-1.4c0.2-0.1,0.5,0,0.6,0.2c0,0,0,0.1,0,0.1c0.3,0.6,0.6,1.1,0.9,1.7c0.1,0.3,0.4,0.4,0.7,0.4
					c1-0.1,2.1-0.1,3.1,0.1c0.3,0.1,0.6-0.1,0.8-0.4c0.3-0.6,0.7-1.1,1-1.7c0.1-0.2,0.3-0.3,0.5-0.2c0,0,0,0,0.1,0
					c1.2,0.5,2.4,1,3.6,1.6c0.2,0.1,0.4,0.3,0.3,0.6c0,0,0,0.1,0,0.1c-0.2,0.6-0.3,1.2-0.5,1.9c-0.1,0.2,0,0.5,0.2,0.6
					c0.4,0.3,0.7,0.6,1,0.9c0.5,0.5,0.9,0.9,1.4,1.5c0.1,0.2,0.3,0.2,0.5,0.1c0.6-0.2,1.2-0.4,1.8-0.5c0.6-0.2,0.6-0.1,0.9,0.4
					c0.4,1,0.8,2.1,1.2,3.1c0.2,0.2,0.1,0.6-0.1,0.7c0,0-0.1,0-0.1,0.1l-1.7,0.8c-0.2,0.1-0.4,0.3-0.3,0.6c0.1,0.3-0.1,0.2-0.2,0.2
					L127.8,28.4z M123.3,25.6l-3.9,1.4c-0.1,0-0.3,0-0.2,0.2s0,0.6,0.4,0.6h2.7c0.2,0,0.3-0.1,0.3-0.2
					C122.8,26.9,123.1,26.2,123.3,25.6z M111.1,25.6l0.7,2c0,0.1,0,0.2,0.2,0.2h2.9c0.3,0,0.2-0.3,0.3-0.5c0.1-0.2,0-0.2-0.1-0.2
					L111.1,25.6z"/>
				<path id="_Path_6" class="st0" d="M117.3,30.7c1.9,0,3.7,0,5.6,0c0.3,0,0.4,0.1,0.4,0.4c0,0.8,0,1.6,0,2.4
					c0,0.2-0.1,0.3-0.2,0.4c-0.5,0.5-1.1,1-1.6,1.5c-0.2,0.2-0.4,0.2-0.6,0.2h-7.3c-0.2,0-0.5-0.1-0.7-0.2c-0.5-0.5-1-1-1.6-1.5
					c-0.1-0.1-0.2-0.2-0.2-0.3c0-0.9,0-1.7,0-2.6c0-0.3,0.2-0.2,0.3-0.2L117.3,30.7z"/>
				<path id="_Path_7" class="st0" d="M117.1,39.3h5.8c0.3,0,0.3,0.1,0.3,0.3c0,0.9,0,1.8,0,2.7c0,0.2,0,0.3-0.2,0.4
					c-0.7,0.4-1.4,0.8-2.2,1c-0.2,0.1-0.4,0-0.5-0.2c0,0,0-0.1,0-0.1c-0.2-0.5-0.5-1.1-0.8-1.6c-0.1-0.3-0.5-0.5-0.8-0.4
					c-1,0.2-1.9,0.2-2.9,0c-0.3-0.1-0.7,0.1-0.8,0.4c-0.3,0.5-0.6,1-0.8,1.5s-0.3,0.5-0.8,0.3c-0.7-0.2-1.4-0.5-2-0.9
					c-0.2-0.1-0.3-0.3-0.3-0.5c0-0.9,0-1.8,0-2.7c0-0.3,0.1-0.3,0.3-0.3C113.3,39.3,115.2,39.3,117.1,39.3L117.1,39.3z"/>
				<path id="_Path_8" class="st0" d="M127.1,30.8c0.4,0,0.7,0,1.1,0s0.3,0.1,0.3,0.3c0,0.3,0.2,0.6,0.5,0.7c0.5,0.2,1,0.5,1.5,0.8
					c0.2,0,0.3,0.3,0.3,0.4c0,0,0,0.1,0,0.1c-0.5,1.2-1,2.5-1.5,3.7c-0.2,0.4-0.5,0.1-0.7,0.1c-0.5,0-0.6-0.4-0.5-0.8
					c0.1-0.4-0.1-0.9-0.5-1.2c-0.5-0.5-0.9-1-1.5-1.5c-0.2-0.2-0.4-0.5-0.3-0.8c0-0.5,0-1,0-1.6c0-0.2,0.1-0.3,0.3-0.3
					C126.2,30.8,126.7,30.8,127.1,30.8L127.1,30.8z"/>
				<path id="_Path_9" class="st0" d="M107.1,30.8c0.3,0,0.7,0,1,0c0.3,0,0.3,0.1,0.3,0.3c0,0.6,0,1.1,0,1.7c0,0.2,0,0.3-0.2,0.4
					c-0.6,0.6-1.2,1.3-1.9,2c-0.2,0.2-0.3,0.4-0.3,0.7c0,0.2,0,0.4,0,0.6s-0.1,0.3-0.3,0.4c-0.7,0.2-0.7,0.3-1-0.4
					c-0.5-1.1-0.9-2.3-1.4-3.4c-0.1-0.3,0-0.4,0.2-0.5c0.5-0.3,1-0.5,1.6-0.8c0.3-0.1,0.5-0.4,0.5-0.8c0-0.2,0.1-0.3,0.3-0.3
					S106.8,30.8,107.1,30.8z"/>
			</g>
		</g>
	</g>
</g>
</svg>
