<?xml version="1.0" encoding="utf-8"?>
<!-- Generator: Adobe Illustrator 22.1.0, SVG Export Plug-In . SVG Version: 6.00 Build 0)  -->
<svg version="1.1" id="Layer_1" xmlns="http://www.w3.org/2000/svg" xmlns:xlink="http://www.w3.org/1999/xlink" x="0px" y="0px"
	 viewBox="0 0 233 73" style="enable-background:new 0 0 233 73;" xml:space="preserve">
<style type="text/css">
	.st0{fill:#3D3D3D;}
	.st1{fill:#FFFFFF;}
</style>
<title>Asset 29</title>
<g id="Layer_2_1_">
	<g id="Layer_1-2">
		<g id="_Group_">
			<g id="_Group_2">
				<path id="_Compound_Path_" class="st0" d="M129.3,45.5c0.2,0.2,0.3,0.3,0.3,0.4c0.7,0.9,1.4,1.8,2,2.7c0.3,0.4,0.7,0.3,1.1,0.2
					c0.4,0,0.2-0.4,0.2-0.6c0-1.4,0-2.9,0-4.3c0-0.5-0.3-0.5-0.6-0.5c-0.4,0-0.7,0-0.6,0.5c0,0.9,0,1.7,0,2.6
					c-0.3,0-0.3-0.2-0.4-0.4c-0.6-0.8-1.2-1.7-1.9-2.5c-0.3-0.4-0.7-0.2-1.1-0.2c-0.4,0-0.2,0.4-0.2,0.6c0,1.5,0,2.9,0,4.4
					c0,0.6,0.3,0.5,0.6,0.5c0.3,0,0.6,0,0.6-0.5C129.2,47.5,129.3,46.6,129.3,45.5z M146.6,48.9c-0.4-0.6-0.7-1.1-1.1-1.6
					c-0.2-0.2-0.2-0.3,0.1-0.5c0.7-0.4,1-1.2,0.8-2c-0.1-0.7-0.7-1.3-1.5-1.3c-0.9-0.1-1.7-0.1-2.6-0.1c-0.4,0-0.5,0.1-0.5,0.5
					c0,1.5,0,3,0,4.4c0,0.5,0.2,0.5,0.6,0.6s0.7-0.1,0.7-0.7c0-0.2,0-0.3,0-0.5c-0.1-0.5,0.2-0.6,0.6-0.6c0.2,0,0.4,0.1,0.5,0.3
					c0.2,0.3,0.5,0.7,0.7,1c0.1,0.3,0.4,0.4,0.7,0.4C145.9,48.9,146.2,48.9,146.6,48.9z M168.1,48.9c-0.4-0.6-0.7-1.1-1-1.5
					c-0.2-0.3-0.2-0.4,0.1-0.6c0.7-0.4,1-1.2,0.7-2c-0.1-0.7-0.7-1.2-1.4-1.3c-0.9-0.1-1.9-0.1-2.8-0.1c-0.3,0-0.3,0.2-0.3,0.4v4.7
					c0,0.2,0,0.3,0.2,0.4c0.3,0.2,0.8,0.1,1-0.2c0.1-0.1,0.1-0.3,0.1-0.5v-0.6c0-0.2,0.1-0.3,0.3-0.3c0.3-0.1,0.7,0.1,0.9,0.4
					c0.2,0.3,0.4,0.7,0.6,1c0.1,0.2,0.3,0.3,0.6,0.3C167.4,48.9,167.7,48.9,168.1,48.9z M159.8,49c1.5,0,2.8-1.2,2.9-2.7
					c0-0.1,0-0.1,0-0.2c0.1-1.6-1.2-2.9-2.8-3s-2.9,1.2-3,2.8c0,0.1,0,0.2,0,0.3c0,1.5,1.2,2.8,2.7,2.8C159.6,49,159.7,49,159.8,49
					L159.8,49z M94.5,46.2c-0.1,1.5,1.1,2.8,2.6,2.8c0.1,0,0.1,0,0.2,0c1.6,0,2.9-1.2,2.9-2.7c0,0,0-0.1,0-0.1
					c0-1.6-1.3-2.9-2.9-2.9c0,0,0,0-0.1,0C95.7,43.3,94.5,44.6,94.5,46.2C94.5,46.2,94.5,46.2,94.5,46.2z M135.4,48.9h0.9
					c1.5,0,2.7-1.3,2.7-2.8c0-1.3-1-2.4-2.2-2.6c-0.8-0.1-1.5-0.1-2.3-0.1c-0.4,0-0.5,0.1-0.5,0.5c0,1.2,0,2.3,0,3.5
					C133.9,48.9,133.9,48.9,135.4,48.9z M105.6,46.1c0,0.8,0,1.6,0,2.3c0,0.3,0.1,0.5,0.4,0.4c1.1,0,2.2,0,3.3,0
					c0.4,0,0.5-0.2,0.5-0.5s0-0.6-0.5-0.5c-0.7,0-1.4,0-2,0c-0.5,0-0.4-0.3-0.4-0.6c0-0.3,0-0.6,0.4-0.5s1.1,0,1.6,0
					s0.4-0.3,0.4-0.6s0.1-0.6-0.4-0.6c-0.5,0-1.1,0-1.7,0s-0.4-0.3-0.4-0.5c0-0.3-0.1-0.6,0.4-0.5c0.7,0,1.3,0,2,0
					c0.5,0,0.5-0.2,0.5-0.6c0-0.3,0-0.6-0.5-0.6c-1.1,0-2.1,0-3.2,0c-0.4,0-0.5,0.2-0.5,0.5C105.7,44.6,105.6,45.4,105.6,46.1z
					 M93.6,46.2c0-0.8,0-1.6,0-2.4c0-0.5-0.4-0.4-0.6-0.4s-0.6-0.1-0.6,0.4s0,0.9,0,1.4c0,0.2,0,0.4-0.3,0.4
					c-1.7,0.2-1.8,0.1-1.8-1.5c0-0.1,0-0.1,0-0.2c0.1-0.5-0.3-0.5-0.6-0.5S89,43.3,89,43.9c0,1.5,0,3,0,4.5c0,0.5,0.2,0.5,0.6,0.5
					c0.4,0,0.7,0,0.6-0.5s-0.2-1.2,0.1-1.5c0.4-0.3,1-0.1,1.6-0.1c0.4,0,0.5,0.2,0.4,0.5s0,0.8,0,1.2s0.3,0.5,0.6,0.5
					c0.3,0,0.6,0.1,0.6-0.4C93.5,47.7,93.6,47,93.6,46.2z M147.4,46.1c0,0.8,0,1.6,0,2.3c0,0.3,0.1,0.5,0.4,0.5c1.1,0,2.2,0,3.3,0
					c0.5,0,0.4-0.3,0.4-0.5s0.1-0.6-0.4-0.5c-0.7,0-1.4,0-2,0c-0.4,0-0.5-0.1-0.5-0.5s0.1-0.6,0.5-0.6s1.1,0,1.6,0
					c0.5,0,0.4-0.3,0.4-0.6c0-0.3,0.1-0.6-0.4-0.6s-1.1,0-1.6,0c-0.5,0-0.6-0.1-0.6-0.5c0-0.4,0.1-0.6,0.6-0.6c0.7,0,1.3,0,2,0
					c0.5,0,0.4-0.4,0.4-0.6s0.1-0.5-0.4-0.5c-1.1,0-2.2,0-3.3,0c-0.3,0-0.4,0.1-0.4,0.4C147.4,44.6,147.4,45.3,147.4,46.1z
					 M126.8,48.8c0.1-0.1,0.7,0.3,0.5-0.3c-0.6-1.7-1.4-3.3-2-5c-0.2-0.4-0.4-0.2-0.7-0.2c-0.2,0-0.5-0.1-0.7,0.2
					c-0.7,1.6-1.4,3.3-2,4.9c0,0.1-0.1,0.2,0,0.3c0.1,0.1,1.2,0,1.2-0.3c0.2-0.9,0.7-1,1.4-0.9c0.2,0,0.4,0,0.6,0
					c0.3-0.1,0.7,0.1,0.8,0.4c0,0,0,0.1,0,0.1C126,48.7,126.2,49,126.8,48.8z M175.4,43.4h-0.3c-0.8,0-1.6,0.6-1.7,1.4
					c-0.1,0.8,0.4,1.6,1.2,1.8c0.4,0.1,0.8,0.2,1.1,0.3c0.4,0.1,0.6,0.2,0.5,0.6s-0.4,0.5-0.8,0.5c-0.5,0-0.9-0.2-1.3-0.5
					c-0.5-0.4-0.5,0.2-0.8,0.4c-0.2,0.2-0.1,0.4,0.1,0.5c0.8,0.5,1.7,0.7,2.6,0.5c0.8-0.1,1.4-0.7,1.4-1.5c0.1-0.8-0.4-1.5-1.1-1.7
					c-0.4-0.1-0.8-0.2-1.2-0.4c-0.2-0.1-0.5-0.2-0.4-0.5c0-0.3,0.3-0.4,0.6-0.4c0.4,0,0.8,0.1,1.1,0.3c0.5,0.3,0.6-0.2,0.8-0.4
					c0.2-0.2,0.1-0.5-0.2-0.6C176.5,43.5,176,43.3,175.4,43.4z M117.2,43.4c-1.2,0-1.9,0.5-2.1,1.3c-0.1,1,0.3,1.6,1.5,1.9
					c0.3,0.1,0.7,0.2,1,0.3c0.2,0.1,0.3,0.3,0.3,0.5c0,0.2-0.2,0.4-0.4,0.4c-0.2,0.1-0.4,0.1-0.6,0c-0.4-0.1-0.8-0.3-1.1-0.5
					c-0.5-0.2-0.5,0.2-0.7,0.5s-0.1,0.4,0.1,0.5c0.7,0.5,1.7,0.7,2.5,0.6c0.8-0.1,1.4-0.7,1.4-1.5c0.1-0.7-0.4-1.4-1.1-1.6
					c-0.4-0.2-0.9-0.3-1.3-0.4c-0.2-0.1-0.5-0.2-0.4-0.5c0.1-0.3,0.3-0.5,0.6-0.4c0.4,0,0.8,0.1,1.1,0.3c0.3,0.2,0.4,0.1,0.6-0.1
					c0.4-0.6,0.4-0.7-0.3-1C118,43.5,117.6,43.4,117.2,43.4z M154.3,43.4c-1.2,0-1.9,0.5-2,1.4c-0.1,0.9,0.3,1.5,1.4,1.9l1,0.3
					c0.2,0.1,0.4,0.3,0.3,0.5c0,0.3-0.2,0.3-0.4,0.4c-0.6,0.1-1.2-0.1-1.6-0.4c-0.5-0.3-0.6,0.2-0.8,0.4s-0.1,0.4,0.2,0.5
					c0.6,0.4,1.4,0.6,2.2,0.6c0.9,0,1.6-0.6,1.8-1.5c0.1-0.8-0.4-1.6-1.2-1.8c-0.4-0.2-0.8-0.2-1.2-0.4c-0.2-0.1-0.4-0.2-0.4-0.5
					c0.1-0.3,0.3-0.4,0.6-0.4c0.4,0,0.8,0.1,1.2,0.3c0.2,0.2,0.4,0.1,0.6-0.1c0.4-0.6,0.4-0.7-0.3-1
					C155.1,43.4,154.7,43.3,154.3,43.4z M170.1,46.7c0,0.6,0,1.1,0,1.7s0.2,0.5,0.6,0.5s0.7,0,0.7-0.6c0-0.9,0-1.8,0-2.7
					c0-1.2,0-1.2,1.1-1.2c0.4,0,0.5-0.2,0.5-0.5s0.1-0.7-0.5-0.6c-1.2,0-2.4,0-3.6,0c-0.4,0-0.5,0.1-0.5,0.5c0,0.4,0.1,0.8,0.7,0.7
					c0.2,0,0.3,0,0.5,0c0.4,0,0.6,0.1,0.5,0.5S170.1,46.2,170.1,46.7z M102.1,46.7c0,0.6,0,1.2,0,1.8s0.2,0.5,0.6,0.5s0.7,0,0.6-0.5
					c0-0.9,0-1.7,0-2.6c0-0.4-0.2-1,0.1-1.2c0.2-0.3,0.8-0.1,1.2-0.1c0.4,0,0.4-0.3,0.4-0.5c0-0.3,0.2-0.6-0.3-0.6h-3.8
					c-0.1,0-0.2,0-0.3,0.2c-0.2,0.6,0,1,0.7,1c0.1,0,0.3,0,0.4,0c0.4-0.1,0.6,0.1,0.5,0.5S102.1,46.2,102.1,46.7z M110.6,46.1
					c0,0.8,0,1.6,0,2.4c0,0.3,0.1,0.4,0.4,0.4h3.2c0.5,0,0.4-0.3,0.4-0.5c0-0.3,0.1-0.6-0.4-0.5s-1.1,0-1.7,0s-0.7-0.1-0.6-0.6
					c0-1.1,0-2.3,0-3.4c0-0.5-0.3-0.4-0.6-0.4s-0.6-0.1-0.6,0.4C110.7,44.6,110.6,45.3,110.6,46.1z"/>
				<path id="_Path_" class="st0" d="M129.3,45.5c0,1.1,0,2,0,2.9c0,0.5-0.2,0.5-0.6,0.5S128,49,128,48.4c0-1.5,0-2.9,0-4.4
					c0-0.2-0.2-0.6,0.2-0.6c0.4,0,0.8-0.2,1.1,0.2c0.6,0.8,1.2,1.7,1.8,2.5c0.1,0.1,0.2,0.3,0.4,0.4c0-0.9,0-1.7,0-2.6
					c0-0.5,0.2-0.5,0.6-0.5c0.4,0,0.6,0,0.6,0.5c0,1.4,0,2.9,0,4.3c0,0.2,0.2,0.6-0.2,0.6c-0.4,0-0.8,0.2-1.1-0.2
					c-0.6-0.9-1.3-1.8-2-2.7C129.5,45.8,129.4,45.7,129.3,45.5z"/>
				<path id="_Compound_Path_2" class="st0" d="M146.6,48.9c-0.4,0-0.7,0-1,0c-0.3,0-0.6-0.1-0.7-0.4c-0.2-0.3-0.4-0.7-0.7-1
					c-0.1-0.2-0.3-0.3-0.5-0.3c-0.4,0-0.7,0.1-0.6,0.6c0,0.1,0,0.3,0,0.5c0.1,0.5-0.1,0.7-0.7,0.7c-0.5,0-0.6-0.1-0.6-0.6
					c0-1.5,0-3,0-4.4c0-0.4,0.1-0.5,0.5-0.5c0.9,0,1.7,0,2.6,0.1c0.7,0,1.3,0.6,1.5,1.3c0.2,0.8-0.1,1.6-0.8,2
					c-0.3,0.1-0.2,0.3-0.1,0.5C145.9,47.8,146.2,48.3,146.6,48.9z"/>
				<path id="_Compound_Path_3" class="st0" d="M168.1,48.9c-0.4,0-0.7,0-1.1,0c-0.2,0-0.5-0.1-0.6-0.3c-0.2-0.3-0.5-0.6-0.6-1
					c-0.2-0.3-0.5-0.5-0.9-0.4c-0.2,0-0.3,0.1-0.3,0.3v0.6c0.1,0.4-0.2,0.8-0.6,0.8c-0.2,0-0.3,0-0.5-0.1c-0.2-0.1-0.2-0.2-0.2-0.4
					v-4.7c0-0.2,0-0.4,0.3-0.4c0.9,0,1.9,0,2.8,0.1c0.7,0.1,1.3,0.6,1.4,1.3c0.2,0.8,0,1.6-0.7,2c-0.3,0.2-0.3,0.3-0.1,0.6
					C167.5,47.8,167.8,48.3,168.1,48.9z"/>
				<path id="_Compound_Path_4" class="st0" d="M159.8,49c-1.5,0.1-2.8-1.1-2.9-2.6c0-0.1,0-0.1,0-0.2c-0.1-1.6,1.1-3,2.7-3.1
					c1.6-0.1,3,1.1,3.1,2.7c0,0.1,0,0.2,0,0.3c0.1,1.5-1.1,2.8-2.6,2.9C159.9,49,159.8,49,159.8,49z M161.3,46.2
					c0-0.9-0.7-1.7-1.6-1.7c0,0,0,0,0,0c-0.9,0-1.6,0.8-1.6,1.7c0,0,0,0,0,0c-0.1,0.9,0.6,1.6,1.5,1.7c0,0,0.1,0,0.1,0
					c0.9,0,1.6-0.7,1.6-1.5C161.3,46.3,161.3,46.2,161.3,46.2L161.3,46.2z"/>
				<path id="_Compound_Path_5" class="st0" d="M94.5,46.2c0-1.6,1.2-2.9,2.8-2.9c0,0,0,0,0,0c1.6,0,2.9,1.2,2.9,2.8c0,0,0,0,0,0.1
					c0,1.6-1.3,2.8-2.8,2.8c0,0-0.1,0-0.1,0c-1.5,0-2.7-1.2-2.8-2.7C94.5,46.3,94.5,46.2,94.5,46.2z"/>
				<path id="_Compound_Path_6" class="st0" d="M135.4,48.9c-1.5,0-1.5,0-1.5-1.5c0-1.2,0-2.3,0-3.5c0-0.4,0.1-0.5,0.5-0.5
					c0.8,0,1.5,0,2.3,0.1c1.5,0.3,2.4,1.7,2.2,3.2c-0.2,1.3-1.3,2.2-2.6,2.2H135.4z"/>
				<path id="_Path_2" class="st0" d="M105.6,46.1c0-0.7,0-1.5,0-2.2c0-0.4,0.1-0.5,0.5-0.5c1,0,2.1,0,3.2,0c0.5,0,0.5,0.3,0.5,0.6
					c0,0.3,0,0.6-0.5,0.6c-0.7,0-1.3,0-2,0c-0.4,0-0.4,0.3-0.4,0.5c0,0.3-0.1,0.5,0.4,0.5c0.5,0,1.1,0,1.7,0s0.4,0.3,0.4,0.6
					s0.1,0.6-0.4,0.6c-0.5,0-1.1,0-1.6,0c-0.5,0-0.5,0.2-0.4,0.5c0,0.3,0,0.6,0.4,0.6c0.7,0,1.4,0,2,0c0.5,0,0.4,0.2,0.5,0.5
					c0,0.3,0,0.5-0.5,0.5c-1.1,0-2.2,0-3.3,0c-0.3,0-0.4-0.1-0.4-0.4C105.7,47.7,105.6,46.9,105.6,46.1z"/>
				<path id="_Path_3" class="st0" d="M93.6,46.2c0,0.8,0,1.5,0,2.3c0,0.5-0.3,0.4-0.6,0.4c-0.3,0-0.6,0.1-0.6-0.4s0-0.8,0-1.2
					c0-0.4-0.1-0.5-0.4-0.5c-0.5,0.1-1.2-0.2-1.6,0.1s-0.1,1-0.1,1.5c0,0.5-0.2,0.5-0.6,0.5c-0.4,0-0.6,0-0.6-0.5c0-1.5,0-3,0-4.5
					c0-0.5,0.3-0.5,0.6-0.5s0.7-0.1,0.6,0.5c0,0.1,0,0.1,0,0.2c0,1.7,0.1,1.8,1.8,1.5c0.3,0,0.3-0.2,0.3-0.4c0-0.5,0-0.9,0-1.4
					c0-0.5,0.3-0.4,0.6-0.4c0.3,0,0.7-0.1,0.6,0.4C93.5,44.6,93.6,45.4,93.6,46.2z"/>
				<path id="_Path_4" class="st0" d="M147.4,46.1c0-0.8,0-1.5,0-2.3c0-0.3,0.1-0.4,0.4-0.4c1.1,0,2.2,0,3.3,0
					c0.4,0,0.4,0.3,0.4,0.5c0,0.3,0.1,0.6-0.4,0.6c-0.7,0-1.3,0-2,0c-0.4,0-0.6,0.1-0.6,0.6s0.1,0.5,0.5,0.5s1.1,0,1.6,0
					c0.5,0,0.4,0.3,0.4,0.6c0,0.3,0.1,0.6-0.4,0.6c-0.5,0-1.1,0-1.6,0c-0.5,0-0.5,0.2-0.5,0.6c0,0.4,0.1,0.5,0.5,0.5
					c0.7,0,1.4,0,2,0c0.5,0,0.4,0.3,0.4,0.5s0.1,0.5-0.4,0.5c-1.1,0-2.2,0-3.3,0c-0.4,0-0.4-0.2-0.4-0.5
					C147.4,47.7,147.4,46.9,147.4,46.1z"/>
				<path id="_Compound_Path_7" class="st0" d="M126.8,48.8c-0.6,0.2-0.8-0.2-0.9-0.6c0-0.3-0.3-0.6-0.7-0.6c0,0-0.1,0-0.1,0
					c-0.2,0-0.4,0-0.6,0c-0.7-0.1-1.3,0-1.4,0.9c0,0.3-1,0.4-1.2,0.3s0-0.2,0-0.3c0.7-1.6,1.4-3.3,2-4.9c0.1-0.3,0.4-0.2,0.7-0.2
					s0.5-0.1,0.7,0.2c0.7,1.7,1.4,3.3,2,5C127.5,49.2,126.9,48.7,126.8,48.8z"/>
				<path id="_Path_5" class="st0" d="M175.4,43.4c0.5,0,1.1,0.1,1.5,0.4c0.2,0.1,0.4,0.3,0.2,0.6c-0.3,0.3-0.2,0.8-0.8,0.4
					c-0.3-0.2-0.7-0.4-1.1-0.3c-0.3,0-0.6,0.1-0.6,0.4c0,0.3,0.2,0.5,0.4,0.5c0.4,0.1,0.8,0.2,1.2,0.4c0.8,0.1,1.3,0.9,1.2,1.7
					c0,0.8-0.6,1.4-1.3,1.5c-0.9,0.2-1.9,0-2.6-0.5c-0.2-0.1-0.4-0.3-0.1-0.5s0.2-0.8,0.8-0.4c0.4,0.3,0.8,0.4,1.3,0.5
					c0.3,0,0.7,0,0.8-0.5c0.1-0.4-0.2-0.5-0.5-0.6s-0.8-0.2-1.1-0.3c-0.8-0.2-1.3-0.9-1.2-1.8c0.1-0.8,0.8-1.4,1.7-1.4H175.4z"/>
				<path id="_Path_6" class="st0" d="M117.2,43.4c0.4,0,0.8,0.1,1.2,0.2c0.7,0.3,0.7,0.4,0.3,1c-0.2,0.2-0.3,0.3-0.6,0.1
					c-0.3-0.2-0.7-0.3-1.1-0.3c-0.3,0-0.6,0.1-0.6,0.4c-0.1,0.3,0.2,0.5,0.4,0.5c0.4,0.1,0.9,0.2,1.3,0.4c0.7,0.2,1.2,0.9,1.2,1.6
					c0,0.8-0.6,1.5-1.4,1.6c-0.9,0.2-1.8,0-2.6-0.6c-0.2-0.1-0.3-0.3-0.1-0.5c0.2-0.2,0.3-0.7,0.7-0.5c0.3,0.2,0.7,0.4,1.1,0.5
					c0.2,0,0.4,0,0.6,0c0.2,0,0.4-0.2,0.4-0.4c0-0.2-0.1-0.4-0.3-0.5c-0.3-0.1-0.7-0.3-1-0.3c-1.2-0.3-1.6-0.9-1.5-1.9
					C115.2,43.9,116,43.3,117.2,43.4z"/>
				<path id="_Path_7" class="st0" d="M154.3,43.4c0.4,0,0.8,0.1,1.2,0.2c0.7,0.3,0.7,0.4,0.3,1c-0.2,0.2-0.3,0.3-0.6,0.1
					c-0.3-0.2-0.7-0.4-1.2-0.3c-0.3,0-0.5,0.2-0.6,0.4c-0.1,0.3,0.1,0.4,0.4,0.5c0.4,0.1,0.8,0.2,1.2,0.4c0.8,0.2,1.4,0.9,1.2,1.8
					c-0.1,0.8-0.9,1.5-1.7,1.5c-0.8,0-1.5-0.2-2.2-0.6c-0.2-0.1-0.4-0.3-0.1-0.5c0.3-0.2,0.3-0.7,0.8-0.4c0.5,0.4,1.1,0.5,1.6,0.4
					c0.2-0.1,0.4-0.2,0.4-0.4c0-0.2-0.1-0.4-0.3-0.5l-1-0.3c-1.2-0.4-1.6-0.9-1.4-1.9C152.4,43.8,153.1,43.3,154.3,43.4z"/>
				<path id="_Path_8" class="st0" d="M170.1,46.7c0-0.6,0-1.1,0-1.7s-0.1-0.6-0.5-0.5c-0.2,0-0.3,0-0.5,0c-0.6,0.1-0.7-0.2-0.7-0.7
					c0-0.5,0.1-0.5,0.5-0.5c1.2,0,2.4,0,3.6,0c0.6,0,0.5,0.3,0.5,0.6c0,0.3-0.1,0.5-0.5,0.5c-1.1,0-1.1,0-1.1,1.2c0,0.9,0,1.8,0,2.7
					c0,0.6-0.3,0.6-0.7,0.6c-0.4,0-0.6-0.1-0.6-0.5S170.1,47.3,170.1,46.7z"/>
				<path id="_Path_9" class="st0" d="M102.1,46.7c0-0.6,0-1.1,0-1.7s-0.1-0.6-0.5-0.5c-0.1,0-0.3,0-0.4,0c-0.7,0-0.9-0.3-0.7-1
					c0.1-0.2,0.2-0.2,0.3-0.2h3.8c0.5,0,0.3,0.4,0.3,0.6s0.1,0.5-0.4,0.5c-0.5,0-0.9-0.2-1.2,0.1c-0.2,0.3-0.1,0.8-0.1,1.2
					c0,0.9,0,1.7,0,2.6c0,0.5-0.3,0.5-0.6,0.5s-0.6,0-0.6-0.5S102.1,47.3,102.1,46.7z"/>
				<path id="_Path_10" class="st0" d="M110.6,46.1c0-0.8,0-1.5,0-2.3c0-0.5,0.3-0.5,0.6-0.4s0.6-0.1,0.6,0.4c0,1.1,0,2.3,0,3.4
					c0,0.5,0.2,0.6,0.6,0.6c0.5,0,1.1,0,1.7,0s0.4,0.3,0.4,0.5c0,0.3,0.1,0.6-0.4,0.6H111c-0.3,0-0.4-0.1-0.4-0.4
					C110.7,47.7,110.6,46.9,110.6,46.1z"/>
			</g>
			<path id="_Path_11" class="st1" d="M95.8,46.1c-0.1,0.9,0.5,1.7,1.4,1.8c0.9,0.1,1.7-0.5,1.8-1.4c0-0.1,0-0.1,0-0.2
				c0-0.9-0.7-1.7-1.6-1.8C96.5,44.5,95.8,45.2,95.8,46.1C95.8,46.1,95.8,46.1,95.8,46.1z"/>
			<path id="_Path_12" class="st1" d="M124.5,44.7c-0.2,0.6-0.4,1-0.6,1.4c0,0.1-0.1,0.3,0.1,0.3c0.3,0.1,0.7,0.1,1,0
				c0.3-0.2-0.1-0.5-0.1-0.7C124.8,45.4,124.7,45,124.5,44.7z"/>
			<path id="_Path_13" class="st1" d="M135.2,46.2V47c0,0.9,0,0.9,0.9,0.8c0.1,0,0.2,0,0.3,0c0.7-0.1,1.3-0.7,1.3-1.5
				c0.1-0.7-0.3-1.5-1.1-1.7c-0.4-0.2-0.9-0.2-1.3,0c-0.3,0.1-0.1,0.6-0.1,0.9S135.2,46,135.2,46.2z"/>
			<path id="_Path_14" class="st1" d="M143.8,44.5c-0.2,0.1-0.6-0.2-0.7,0.1c-0.1,0.4-0.1,0.8,0,1.3c0.1,0.3,0.5,0.1,0.8,0.1
				c0.9,0,1.3-0.2,1.3-0.8S144.8,44.5,143.8,44.5z"/>
			<path id="_Path_15" class="st1" d="M165.3,44.5c-0.2,0.1-0.6-0.2-0.7,0.1c-0.1,0.4-0.1,0.8,0,1.3c0.1,0.3,0.5,0.1,0.8,0.1
				c0.9,0,1.3-0.2,1.3-0.8S166.2,44.5,165.3,44.5z"/>
			<path id="_Path_16" class="st1" d="M158.1,46.1c-0.1,0.9,0.5,1.7,1.4,1.8c0.9,0.1,1.7-0.5,1.8-1.4c0-0.1,0-0.1,0-0.2
				c0-0.9-0.7-1.7-1.6-1.8C158.9,44.4,158.2,45.1,158.1,46.1C158.1,46,158.1,46.1,158.1,46.1z"/>
			<g id="_Group_3">
				<path id="_Compound_Path_8" class="st0" d="M74.6,24v17.6H55.7c-0.1,0-0.2,0-0.2-0.2V24.1c0-0.2,0-0.2,0.2-0.2H74.6z M59.7,31.1
					c0,0-0.1,0-0.2,0c-0.3,0-0.6,0.2-0.8,0.4c-0.1,0.2-0.1,0.4,0.2,0.4c0.2,0,0.4,0.1,0.5,0.3c0.1,0.2,0.3,0.4,0.4,0.5l2.9,4.6
					c0.1,0.1,0.2,0.3,0.3,0.4c0.5,0.4,1.2,0.3,1.5-0.2c0,0,0.1-0.1,0.1-0.1l2.9-4.7c0.3-0.5,0.6-1,0.9-1.4c0.2-0.4,0.6-0.6,1.1-0.6
					c0.2,0,0.3-0.1,0.2-0.3c-0.1-0.2-0.3-0.3-0.6-0.4c-0.7-0.2-1.4,0-1.9,0.5c-0.2,0.2-0.4,0.4-0.5,0.7c-0.9,1.5-1.9,3-2.8,4.5
					c-0.1,0.2-0.2,0.2-0.3,0l-1.2-1.8c-0.4-0.6-0.8-1.3-1.2-1.9C60.9,31.4,60.3,31.1,59.7,31.1z M66.3,37.9c0.4,0,0.8-0.2,1-0.5
					c0.5-0.7,0.9-1.4,1.3-2.1c0.6-1,1.2-1.9,1.8-2.9c0.1-0.3,0.4-0.5,0.8-0.5c0.1,0,0.2-0.1,0.1-0.2c-0.1-0.2-0.2-0.3-0.3-0.4
					c-0.3-0.2-0.7-0.2-1.1-0.1c-0.5,0.1-1,0.4-1.2,0.9l-3.3,5.1c-0.1,0.1-0.1,0.2,0,0.3C65.7,37.7,66,37.9,66.3,37.9z M65,27.6
					c-0.5,0-0.9,0.2-1.1,0.6c-0.1,0.1-0.2,0.2-0.4,0.3c-0.4,0-0.8,0.2-1.1,0.6c-0.2,0.2-0.1,0.4,0.2,0.4c0.5,0.1,0.9,0.4,1.2,0.9
					l1,1.7c0.2,0.2,0.2,0.2,0.4,0l1.1-1.7c0.2-0.5,0.7-0.8,1.2-0.9c0.2,0,0.3-0.2,0.2-0.4c-0.1-0.1-0.1-0.2-0.2-0.2
					c-0.3-0.2-0.6-0.4-1-0.4c-0.1,0-0.2-0.1-0.3-0.2C65.9,27.9,65.5,27.7,65,27.6z M61.5,29.8h-0.2c-0.4,0-0.7,0.2-0.9,0.5
					c-0.1,0.2-0.1,0.3,0.2,0.3c0.4,0,0.8,0.2,1,0.5c0.1,0.1,0.2,0.3,0.3,0.4l1.7,2.8c0.1,0.2,0.2,0.2,0.3,0l0.7-1.1
					c0.1-0.1,0.1-0.2,0-0.2c-0.4-0.7-0.8-1.4-1.3-2.1C62.9,30.2,62.2,29.8,61.5,29.8z"/>
				<path id="_Compound_Path_9" class="st0" d="M177.2,28.5c-0.1,0,0,0.1-0.1,0.1c-0.2,0.6-0.8,1.1-1.5,1c-0.8-0.1-1.3-0.7-1.3-1.5
					c0-0.6,0.5-1.1,1.1-1.3c0.7-0.2,1.4,0.2,1.6,0.9c0,0.1,0,0.1,0.1,0.2V28.5z M177.1,28.3c0-0.7-0.5-1.2-1.2-1.2c0,0,0,0-0.1,0
					c-0.7,0-1.2,0.5-1.2,1.2c0,0,0,0,0,0c-0.1,0.7,0.4,1.3,1.1,1.3s1.3-0.4,1.3-1.1C177.1,28.4,177.1,28.4,177.1,28.3L177.1,28.3z"
					/>
				<path id="_Path_17" class="st0" d="M88.1,30.4l-0.3,1c-0.8,2.4-1.5,4.8-2.2,7.2c0,0.1-0.1,0.2-0.2,0.2h-1.8
					c-0.1,0-0.2,0-0.2-0.2c-1.1-3.7-2.1-7.4-3.2-11.1L79.9,27c0-0.1,0-0.1,0.1-0.1h2.2c0.1,0,0.1,0.1,0.2,0.1l0.9,3.3
					c0.4,1.5,0.8,3,1.2,4.4v0.1c0.1,0,0.1-0.1,0.1-0.2c0.8-2.6,1.6-5.1,2.4-7.7c0.1-0.1,0.1-0.2,0.2-0.2c0.6,0,1.2,0,1.8,0
					c0.1,0,0.2,0,0.2,0.2c0.8,2.6,1.6,5.2,2.4,7.8c0,0,0,0.1,0,0.1c0.1-0.1,0.1-0.1,0.1-0.2l2.1-7.7c0-0.1,0.1-0.2,0.2-0.2h2
					c0.2,0,0.2,0,0.1,0.2c-1.1,3.8-2.3,7.7-3.4,11.5c0,0.1-0.1,0.2-0.2,0.2h-1.7c-0.1,0-0.2,0-0.2-0.2c-0.9-2.7-1.7-5.4-2.6-8.1
					L88.1,30.4z"/>
				<path id="_Path_18" class="st0" d="M170.5,30.7c-0.1,0-0.1,0.1-0.1,0.1l-3.2,4.8c-0.2,0.2-0.2,0.2-0.4,0l-3.2-4.8l0-0.2v7.7
					c0,0.2,0,0.2-0.2,0.2h-1.9c-0.1,0-0.2,0-0.2-0.2c0-3.8,0-7.6,0-11.5c0-0.1,0-0.2,0.2-0.2c0.7,0,1.3,0,2,0c0.1,0,0.2,0,0.2,0.1
					c1.1,1.7,2.2,3.4,3.2,5l0.1,0.2c0,0,0.1-0.1,0.1-0.1c1.1-1.7,2.2-3.4,3.2-5.1c0.1-0.1,0.2-0.1,0.3-0.1c0.7,0,1.3,0,2,0
					c0.1,0,0.2,0,0.2,0.2v11.5c0,0.1,0,0.2-0.2,0.2h-1.9c-0.2,0-0.2-0.1-0.2-0.2c0-2.5,0-5,0-7.6L170.5,30.7z"/>
				<path id="_Path_19" class="st0" d="M117.7,34.6v-7.5c0-0.2,0-0.2,0.2-0.2c0.6,0,1.3,0,1.9,0c0.1,0,0.2,0,0.2,0.1v11.5
					c0,0.1,0,0.1-0.1,0.1h-1.6c-0.1,0-0.2,0-0.3-0.1c-1.5-2-3-3.9-4.5-5.9l-1.4-1.8c0,0,0-0.1-0.1-0.1v7.7c0,0.2,0,0.2-0.2,0.2h-1.9
					c-0.1,0-0.2,0-0.2-0.1V27c0-0.1,0-0.1,0.2-0.1h1.8c0.1,0,0.2,0,0.2,0.1l5.8,7.5L117.7,34.6z"/>
				<path id="_Compound_Path_10" class="st0" d="M123,32.8c0-1.9,0-3.8,0-5.7c0-0.2,0-0.2,0.2-0.2c1.6,0,3.2-0.1,4.8,0
					c2,0,3.8,1,4.8,2.7c0.7,1.1,1,2.5,0.9,3.8c-0.2,2.6-2.2,4.7-4.8,5.1c-0.5,0.1-1,0.1-1.4,0.1h-4.2c-0.2,0-0.2,0-0.2-0.2
					C123,36.6,123,34.7,123,32.8z M125.3,32.8c0,1.2,0,2.4,0,3.6c0,0.1,0,0.2,0.2,0.2h0.7c0.7,0,1.4,0,2.1-0.1
					c0.9-0.1,1.8-0.6,2.3-1.4c0.6-0.8,0.9-1.9,0.7-2.9c-0.2-1.8-1.6-3.2-3.4-3.2c-0.8,0-1.6,0-2.4,0c-0.1,0-0.2,0-0.2,0.2
					C125.3,30.4,125.3,31.6,125.3,32.8L125.3,32.8z"/>
				<path id="_Path_20" class="st0" d="M145.7,32.8c0,1.9,0,3.8,0,5.7c0,0.2,0,0.2-0.2,0.2h-1.9c-0.1,0-0.2,0-0.2-0.2
					c0-1.5,0-3,0-4.5c0-0.2,0-0.2-0.2-0.2h-4.9c-0.1,0-0.2,0-0.2,0.2v4.5c0,0.1,0,0.2-0.2,0.2h-2c-0.1,0-0.2,0-0.2-0.2
					c0-3.8,0-7.7,0-11.5c0-0.1,0-0.1,0.1-0.1c0.7,0,1.3,0,2,0c0.1,0,0.1,0.1,0.1,0.2v4.4c0,0.1,0,0.2,0.2,0.2h4.9
					c0.2,0,0.2,0,0.2-0.2c0-1.5,0-2.9,0-4.4c0-0.1,0-0.2,0.2-0.2c0.6,0,1.3,0,1.9,0c0.1,0,0.2,0,0.2,0.2
					C145.7,29,145.7,30.9,145.7,32.8z"/>
				<path id="_Compound_Path_11" class="st0" d="M159.9,38.7h-2.3c-0.1,0-0.1-0.1-0.2-0.1l-1-2.5c0-0.1-0.1-0.2-0.3-0.2h-5
					c-0.1,0-0.2,0.1-0.2,0.2c-0.3,0.8-0.7,1.7-1,2.5c0,0.1-0.1,0.2-0.2,0.2h-2.1c-0.2,0-0.1,0-0.1-0.2c1.7-3.8,3.4-7.7,5.1-11.5
					c0-0.1,0.1-0.2,0.2-0.2h1.7c0.1,0,0.2,0,0.2,0.1C156.4,30.8,158.1,34.7,159.9,38.7C159.8,38.6,159.8,38.6,159.9,38.7z
					 M153.5,29.7c-0.6,1.4-1.2,2.8-1.8,4.2h3.4c0.1,0,0.2,0,0.1-0.2c-0.5-1.2-1-2.4-1.6-3.6L153.5,29.7z"/>
				<path id="_Path_21" class="st0" d="M97.2,26.9h2.1c0.2,0,0.4-0.1,0.6,0c0.1,0.1,0.2,0.3,0.3,0.5l2.4,4l0.1,0.2
					c0.1,0,0.1-0.1,0.1-0.2c0.9-1.4,1.8-2.9,2.7-4.3c0.1-0.1,0.2-0.2,0.3-0.2c0.7,0,1.5,0,2.2,0h0.2l-0.1,0.2
					c-1.4,2.2-2.8,4.3-4.2,6.5c-0.1,0.1-0.1,0.2-0.1,0.3c0,1.5,0,3,0,4.6c0,0.1,0,0.2-0.2,0.2h-1.9c-0.1,0-0.2,0-0.2-0.2V34
					c0-0.1,0-0.2-0.1-0.3c-1.4-2.2-2.8-4.4-4.2-6.6C97.3,27,97.3,27,97.2,26.9z"/>
				<path id="_Compound_Path_12" class="st0" d="M176.5,29c-0.2,0.1-0.5,0-0.5-0.3c0-0.1-0.1-0.2-0.3-0.2c-0.2,0-0.1,0-0.1,0.1
					c0,0.1,0,0.1,0,0.2c0,0.1,0,0.2-0.2,0.2c-0.2,0-0.2,0-0.2-0.2c0-0.4,0-0.8,0-1.1c0-0.1,0-0.2,0.2-0.2s0.4,0,0.6,0
					c0.3,0,0.5,0.2,0.5,0.4c0,0.1,0,0.1,0,0.2c0,0.1-0.1,0.2-0.2,0.2c-0.1,0.1-0.1,0.1,0,0.2C176.4,28.7,176.5,28.9,176.5,29z
					 M175.8,28.2c0.1,0,0.1,0,0.2,0c0.1,0,0.2-0.1,0.2-0.2c0,0,0,0,0,0c0-0.1-0.1-0.2-0.1-0.2c0,0,0,0,0,0h-0.3h-0.1
					c0,0.1,0,0.2,0,0.4C175.6,28.3,175.7,28.2,175.8,28.2L175.8,28.2z"/>
			</g>
		</g>
	</g>
</g>
</svg>
